<svg width="770" height="813" viewBox="0 0 770 813" fill="none" xmlns="http://www.w3.org/2000/svg">
<g clip-path="url(#clip0_192_442)">
<path d="M146.472 295.893C146.344 295.765 146.344 295.765 146.344 295.893C146.344 295.893 146.344 295.893 146.472 295.893Z" fill="black"/>
<path d="M300.241 527.996C300.241 527.74 300.241 527.355 300.113 527.099C299.729 522.104 297.936 517.236 293.967 514.29C293.071 513.521 292.047 513.009 290.895 512.497C289.614 511.984 288.206 511.6 286.669 511.472C285.133 511.344 283.469 511.472 281.804 511.984C280.14 512.497 278.475 513.521 277.067 515.059C275.53 516.724 273.994 519.542 273.866 523.128C273.866 524.025 273.866 524.922 273.994 525.818C274.122 526.587 274.25 527.355 274.378 528.124C274.762 529.661 275.274 531.07 275.915 532.607C276.171 533.248 276.555 534.016 276.939 534.657C277.323 535.297 277.835 536.066 278.347 536.706C279.371 537.987 280.652 539.268 282.444 540.293C283.341 540.805 284.493 541.317 285.773 541.574C287.054 541.83 288.59 541.83 289.998 541.446C290.767 541.317 291.407 541.061 292.047 540.805C292.431 540.677 292.687 540.421 293.071 540.293C294.351 540.293 295.632 540.165 296.784 539.652C298.193 538.884 299.345 537.603 299.729 536.194C300.241 534.785 300.241 533.248 300.241 531.582C300.241 530.814 300.241 530.045 300.241 529.277C300.241 528.636 300.241 528.252 300.241 527.996ZM289.486 531.454C289.358 531.326 289.23 531.326 289.102 531.198C288.718 530.942 288.206 530.558 287.822 530.302C287.054 529.661 286.285 529.021 285.645 528.38C285.005 527.74 284.621 527.099 284.365 526.459C285.133 526.459 285.645 526.459 285.901 526.459C287.054 526.331 288.334 526.331 289.614 526.715C290.254 527.74 290.639 529.021 290.639 530.173C290.639 530.814 290.51 531.454 290.254 532.095C289.998 531.839 289.742 531.582 289.486 531.454Z" fill="black"/>
<path d="M769.104 159.218C768.336 157.297 767.567 156.144 766.927 155.888C765.263 155.119 763.214 154.735 760.653 154.991C760.269 154.991 760.013 155.119 759.629 155.119C757.965 153.967 755.02 153.71 750.923 154.351C740.168 155.888 727.749 158.066 713.665 161.14L712.128 160.755L712.512 161.396C709.312 162.036 706.239 162.805 702.91 163.573C684.345 167.929 663.091 173.565 639.661 181.122C638.252 181.506 637.1 182.019 635.948 182.531C634.411 183.172 633.387 183.812 632.619 184.452C627.625 186.502 619.303 191.882 608.036 200.848C598.306 208.534 588.319 216.86 577.692 225.442C576.028 226.851 574.235 228.26 572.571 229.669C572.571 229.157 572.571 228.644 572.571 228.132C572.443 223.649 570.778 219.422 568.73 215.323C566.681 211.352 563.992 207.509 561.048 203.922C555.158 196.749 547.86 190.473 539.666 185.349C531.472 180.097 522.509 175.742 513.035 172.412C503.56 168.953 493.317 166.776 482.946 165.495C472.448 164.214 461.693 163.958 450.682 164.854C439.799 165.751 428.66 167.801 417.777 171.259C406.894 174.717 396.139 179.457 386.024 185.477C365.667 197.518 347.358 214.81 333.402 236.202C331.353 239.532 329.177 242.862 327.384 246.321C326.488 248.114 325.464 249.779 324.568 251.573L322.007 256.953C321.111 258.746 320.471 260.539 319.574 262.332C318.806 264.126 318.038 266.047 317.27 267.712C316.501 269.506 315.733 271.171 314.709 272.58C314.069 273.348 313.429 273.989 312.66 274.501C312.276 271.811 312.148 269.121 312.404 266.431C312.788 262.973 313.685 259.642 314.709 256.312C317.014 249.779 320.342 243.375 323.799 237.098C325.464 233.896 327.256 230.822 328.921 227.491C330.585 224.161 331.994 220.831 333.402 217.628L342.108 197.902L376.934 118.997L394.346 79.5451L398.7 69.6821L398.956 69.0416C399.084 68.7854 399.084 68.7854 399.212 68.6573L399.852 67.5045C400.364 66.6078 400.748 65.8393 401.132 64.9426C401.901 63.1494 402.669 61.3561 403.181 59.5628C404.333 55.9762 404.973 52.2615 405.614 48.675C405.742 48.1626 405.742 47.7783 405.87 47.2659L405.998 45.7288C406.126 44.7041 405.998 43.6794 405.998 42.6546C405.998 41.6299 405.742 40.6052 405.614 39.7085C405.357 38.6838 405.229 37.7871 404.845 36.7624C403.565 32.9196 401.516 29.205 398.444 26.387C395.371 23.5689 391.402 21.5195 387.177 21.0071C386.152 20.879 385.128 20.7509 384.104 20.879C383.079 20.879 382.055 20.879 381.159 21.0071L378.342 21.2633L375.525 21.7756C371.812 22.4161 368.099 23.4408 364.642 24.8498C362.85 25.4903 361.186 26.2589 359.393 27.0274C357.729 27.9241 356.064 28.6926 354.4 29.7173C351.199 31.6387 348.126 33.6882 345.181 35.9939C342.236 38.1714 339.42 40.7333 336.731 43.167C335.451 44.4479 334.042 45.7288 332.762 47.0098C332.122 47.6502 331.482 48.2907 330.841 48.9311L329.049 51.2368C328.153 52.1334 327.512 53.2863 327.128 54.5672L326.744 55.72C326.616 55.9762 326.488 56.2324 326.36 56.3605C326.232 56.4886 326.232 56.6167 326.104 56.6167L325.848 56.8729L324.952 57.8976L323.031 59.9471L319.19 63.9179L317.27 65.9674C316.63 66.6078 315.989 67.2483 315.477 68.0169L308.435 76.599C307.283 78.008 306.131 79.5451 305.106 80.9541L301.906 85.4374C300.881 86.9745 299.729 88.3835 298.705 89.9206L295.76 94.66L292.815 99.3994L291.407 101.705L290.126 104.139L284.749 113.874L280.012 123.865C278.731 126.427 277.707 128.989 276.555 131.679C275.402 134.369 274.378 136.93 273.226 139.62C272.202 142.31 271.177 145.128 270.153 147.818C269.641 149.227 269.129 150.636 268.617 152.045C268.104 153.454 267.72 154.863 267.208 156.272C266.312 159.09 265.288 162.036 264.391 164.982C263.495 167.929 262.599 171.003 261.703 173.949C259.91 180.097 258.374 186.374 256.581 192.907C253.38 205.972 250.436 220.062 247.619 235.177C246.21 242.734 244.802 250.676 243.266 258.874C243.138 259.899 242.882 260.923 242.754 261.948L242.626 262.461C242.626 262.589 242.626 262.589 242.497 262.845L241.985 264.382C241.345 266.431 240.577 268.481 239.937 270.53C239.553 271.555 239.297 272.452 238.913 273.476C238.913 273.605 238.784 273.605 238.784 273.861L238.4 274.629L237.632 276.166L237.12 277.319C236.48 275.782 235.84 274.117 235.071 272.58C235.071 272.452 234.943 272.324 234.943 272.195C231.615 263.357 228.542 253.622 225.853 243.247C221.628 227.235 218.043 209.43 215.354 190.601C214.074 181.25 213.306 171.515 212.922 161.524C212.537 151.533 212.665 141.285 213.178 130.782C214.074 109.775 216.506 87.9992 219.067 65.7112C219.579 61.3561 220.091 56.8728 220.604 52.5177L220.988 49.4435L221.5 46.3693C221.884 44.0636 222.268 41.8861 222.524 39.5804C223.036 34.9691 223.292 30.1016 222.78 25.106C222.268 20.1104 220.732 14.8587 217.659 10.2474C217.275 9.73499 216.891 9.09453 216.506 8.58216L215.226 7.04506C214.33 5.89223 213.306 5.12368 212.281 4.22704C211.769 3.71467 211.257 3.33039 210.745 2.94612L208.44 1.40901L207.288 0.64046C207.16 0.512368 206.904 0.512368 206.648 0.512368H206.008L202.679 0H202.039H201.526H200.502C199.862 0 199.222 0 198.582 0.128092C197.301 0.256184 196.021 0.384276 194.741 0.64046C192.18 1.15283 189.619 2.04947 187.187 3.07421C184.754 4.22704 182.577 5.63605 180.529 7.17315C178.48 8.83835 176.816 10.5035 175.151 12.4249C171.95 16.1396 169.39 20.1104 167.213 23.9532C162.86 31.8949 159.659 39.8366 156.33 47.394C155.434 49.3154 154.666 51.1087 153.77 52.902C153.385 53.7986 152.873 54.6953 152.361 55.4638L151.337 57.2571C151.209 57.6414 150.953 58.1538 150.825 58.538L150.569 59.3066C149.928 61.228 149.288 63.2775 148.52 65.1988L147.496 68.1449L147.24 68.9135L147.112 69.4259C146.984 69.6821 146.984 69.8101 146.984 70.0663L146.6 71.6034C144.807 79.2889 142.246 87.1026 140.07 95.3005C139.046 99.3994 138.021 103.626 137.381 107.597C136.997 109.647 136.613 111.696 136.229 113.746C135.845 115.795 135.461 117.845 135.205 119.894C132.644 136.162 131.492 152.429 131.363 168.441C131.107 184.324 131.748 199.952 132.644 215.323C134.052 239.788 135.973 263.357 136.613 286.158C136.485 285.901 136.229 285.645 136.101 285.389C135.076 283.852 134.18 282.315 133.156 280.778C131.235 277.703 129.315 274.757 127.394 271.811C123.681 265.919 119.968 260.411 116.383 255.031C112.798 249.651 109.342 244.4 105.757 239.148C95.0017 222.88 87.1916 209.687 82.0702 199.567C79.6375 194.956 77.589 190.473 75.6684 185.99C75.1563 184.837 74.7722 183.812 74.2601 182.659C73.876 181.634 73.3638 180.482 72.9797 179.457C72.2115 177.279 71.4433 175.23 70.8031 173.18C68.1144 164.854 66.1939 156.785 64.4014 149.355C63.5052 145.641 62.4809 142.054 61.5846 138.724C60.5604 135.137 59.28 131.807 57.9997 128.732C56.5913 125.658 55.1829 122.968 53.5185 120.406C51.982 117.973 50.1896 115.795 48.5251 113.874C45.1962 110.031 41.7393 107.469 38.9225 105.676C38.1543 105.292 37.5141 104.907 36.874 104.523C36.2338 104.267 35.5936 103.883 35.0815 103.755C34.0572 103.242 33.0329 102.986 32.3927 102.73C30.9844 102.346 30.4722 102.346 30.7283 102.73C30.9844 103.114 32.2647 103.755 34.0572 105.035C35.8497 106.316 38.1543 107.982 40.4589 110.287C42.8916 112.593 45.3242 115.539 47.6289 119.126C49.9335 122.712 52.1101 127.067 53.9026 131.935C54.7988 134.369 55.567 137.058 56.3352 139.876C56.9754 142.566 57.6156 145.513 58.2557 148.459C60.9445 160.371 63.3771 174.589 69.7788 189.576C76.0525 204.691 85.271 220.703 96.41 237.995C100.251 244.015 104.348 250.036 108.317 256.184C112.414 262.332 116.511 268.353 120.481 274.757C122.529 277.96 124.45 281.034 126.498 284.364C128.547 287.567 130.467 290.897 132.772 293.971C133.924 295.508 135.076 296.917 136.485 298.198C136.485 299.735 136.485 301.272 136.485 302.809L139.43 300.632C139.942 301.016 140.582 301.4 141.222 301.657C141.606 301.913 141.99 302.041 142.374 302.169C142.887 302.425 143.399 302.553 143.911 302.809V302.681C143.911 300.888 143.911 299.095 143.911 297.302L146.087 295.636C145.575 295.508 145.063 295.252 144.551 294.996C144.295 294.868 144.167 294.74 143.911 294.612C143.783 275.27 142.503 255.544 141.222 235.561C139.686 212.761 138.277 189.448 138.789 165.751C138.918 153.838 139.942 141.926 141.222 130.013C141.606 127.067 142.118 123.993 142.503 121.047L142.759 118.741L143.143 116.564L144.039 112.081C144.551 109.134 145.063 106.06 145.831 103.114C146.472 100.168 147.24 97.2218 148.136 94.2757C149.8 88.3835 151.593 82.4912 153.257 76.4709C153.641 74.9338 154.026 73.3967 154.41 71.8596C154.538 71.3472 154.922 70.4506 155.05 69.8101L155.818 67.6326L157.355 63.1494L158.123 60.9718C158.251 60.3313 158.635 59.819 159.019 59.0504C165.037 47.7783 168.878 35.7377 175.407 24.9779C178.608 19.7262 182.577 14.7306 187.699 11.4002C190.259 9.73499 193.076 8.71026 196.021 8.0698C196.789 7.9417 197.557 7.81361 198.326 7.68552C199.094 7.55743 199.862 7.55743 200.63 7.55743H201.783H202.807H203.831C204.087 7.55743 204.343 7.9417 204.599 8.0698L205.367 8.58216C205.624 8.83835 206.008 8.96644 206.264 9.22262L207.928 10.7597C208.952 11.9126 209.977 12.9373 210.745 14.2182C212.409 16.7801 213.434 19.5981 214.074 22.6723C215.226 28.8207 214.842 35.2253 213.818 41.6299C213.562 43.2951 213.306 44.8322 213.05 46.4974L212.793 47.7783C212.665 48.2907 212.665 48.675 212.665 49.0592L212.409 51.493C212.025 54.8234 211.641 58.0257 211.257 61.3561C210.489 68.0169 209.721 74.6776 208.952 81.3384C207.416 94.66 206.136 108.238 205.367 121.944C204.599 135.649 204.215 149.483 204.855 163.445C205.239 170.49 205.624 177.407 206.52 184.452L207.16 189.704L207.928 194.956C208.44 198.415 208.952 201.873 209.593 205.46C213.434 228.004 218.811 250.804 226.877 272.964L226.749 273.092V273.22C227.005 273.605 227.261 274.117 227.645 274.757C228.286 276.551 228.926 278.344 229.694 280.009C229.95 280.778 230.334 281.674 230.718 282.443L231.487 284.364C231.615 284.749 231.615 285.133 231.743 285.389C231.743 285.645 231.743 285.901 231.743 286.029H232.127L232.895 287.951H233.023C233.151 288.207 233.151 288.335 233.279 288.591L235.584 293.971L238.144 290C238.4 289.872 238.656 289.744 238.784 289.616C239.937 288.847 241.089 287.823 241.473 286.67C241.857 285.901 242.241 285.261 242.626 284.364C242.754 283.98 242.882 283.468 243.01 283.083L243.522 281.802L243.906 280.778L244.29 280.009L245.058 278.344L245.954 276.679C246.21 276.294 246.339 275.91 246.467 275.398L246.723 274.501L247.875 270.915L249.027 267.328L249.667 265.535C249.795 265.022 250.18 263.998 250.308 263.229C250.692 260.795 251.204 258.233 251.588 255.8C253.38 245.809 255.173 235.817 257.221 225.698C261.191 205.588 265.8 185.349 272.073 165.495C278.347 145.641 286.285 126.043 296.784 107.597C297.936 105.292 299.473 102.986 300.881 100.808C302.29 98.5027 303.698 96.3252 305.106 94.0195C306.643 91.842 308.179 89.6644 309.716 87.4868L312.02 84.2845L313.173 82.6193L314.453 81.0822C316.117 79.0328 317.782 76.9833 319.574 74.9338L322.135 71.8596L324.952 68.9135C326.744 66.9921 328.665 65.0707 330.457 63.0213L332.25 61.228C333.018 60.4594 333.53 59.4347 333.914 58.538L334.554 56.7448C334.682 56.4886 334.81 56.2324 335.066 55.9762L336.603 54.311C337.115 53.6706 337.755 53.1582 338.267 52.5177C339.42 51.3649 340.572 50.2121 341.852 49.0592C343.005 47.9064 344.285 46.8817 345.437 45.7288C346.718 44.7041 347.87 43.5513 349.278 42.6546C351.839 40.6052 354.528 38.8119 357.216 37.0186C360.033 35.3534 362.85 33.8163 365.795 32.6635C368.74 31.5106 371.684 30.3578 374.885 29.7173C376.422 29.3331 377.958 29.205 379.494 28.8207L381.927 28.5645L383.079 28.4364H384.104C386.792 28.3083 389.225 28.9488 391.402 30.3578C393.578 31.7668 395.371 33.6882 396.523 36.25C397.675 38.6838 398.316 41.5018 398.444 44.3198C398.444 44.9603 398.316 45.6007 398.316 46.2412L397.931 48.675C397.675 50.3402 397.291 52.0054 396.907 53.5425C396.139 56.7448 395.243 59.6909 393.834 62.5089C393.45 63.1494 393.066 63.9179 392.682 64.5584C392.298 65.1988 392.042 65.9674 391.786 66.2236L391.274 67.3764L389.097 72.2439C383.336 85.1812 377.574 98.2466 371.812 111.44C360.161 137.827 348.382 164.47 336.475 191.498C333.53 198.286 330.457 205.075 327.512 211.864L325.208 216.988C324.44 218.653 323.671 220.446 322.903 221.983C321.367 225.186 319.702 228.388 317.91 231.59C314.325 238.123 310.612 244.912 307.795 252.597C306.515 256.44 305.234 260.411 304.85 264.766C304.338 269.121 304.594 273.605 305.491 277.96L306.771 283.724L312.66 282.187C314.837 281.674 316.886 280.393 318.422 278.984C319.958 277.575 320.983 276.038 321.879 274.501C323.543 271.555 324.312 268.993 325.336 266.816C326.36 264.51 327.256 262.204 328.281 260.027C329.433 257.849 330.457 255.544 331.61 253.366C336.219 244.528 341.724 236.074 347.998 228.26C360.417 212.505 376.038 199.055 393.962 189.192C402.925 184.324 412.399 180.225 422.13 177.407C431.989 174.461 442.103 172.668 452.474 171.899C473.088 170.362 494.213 173.052 513.803 180.354C533.136 187.783 551.701 199.695 561.56 217.116C562.712 219.294 563.736 221.343 564.504 223.521C565.145 225.57 565.529 227.619 565.401 228.9C565.273 230.309 564.889 230.95 564.12 231.718C563.864 231.847 563.608 232.103 563.352 232.359C563.096 232.487 562.712 232.743 562.456 232.871C561.816 233.127 561.048 233.384 560.279 233.512C558.615 233.768 556.566 233.768 554.262 233.384C552.085 232.999 549.652 232.359 547.22 231.462C542.226 229.797 536.977 227.619 531.215 225.826C525.582 223.905 519.308 222.496 512.779 222.112C511.114 221.983 509.706 221.983 508.169 221.983C506.633 221.983 505.096 221.983 503.688 221.983C502.152 221.983 500.743 222.112 499.207 222.24C497.67 222.368 496.262 222.496 494.726 222.624C482.818 223.777 471.167 226.339 459.772 229.797C448.377 233.256 437.366 237.611 426.611 243.119C415.856 248.627 405.614 255.159 396.139 262.845C386.536 270.658 378.342 279.369 371.556 288.335C364.642 297.302 359.137 306.524 354.528 315.875C345.437 334.32 341.596 351.356 340.7 365.062C339.932 378.768 341.852 388.887 343.645 394.908C344.157 396.445 344.541 397.726 344.925 398.75C345.053 399.135 345.181 399.391 345.309 399.647C322.647 416.683 298.961 434.488 274.506 453.061C270.281 456.264 266.568 459.21 263.111 461.9C257.606 466.383 253.765 469.585 251.588 471.891C248.515 472.788 247.619 473.684 248.771 474.325C246.979 477.143 245.57 483.803 244.546 494.435C243.906 500.712 243.266 507.244 242.626 514.161C242.369 517.62 241.985 521.078 241.729 524.665C241.601 526.458 241.473 528.251 241.345 530.173C241.217 532.094 241.217 534.144 242.113 536.193C243.01 538.115 244.418 539.395 245.57 540.676C246.851 541.957 248.131 543.238 249.411 544.519C251.972 547.081 254.661 549.771 257.221 552.461C259.91 555.151 262.599 557.969 265.416 560.787C268.232 563.605 271.561 566.551 276.043 568.344C278.347 569.113 280.78 569.497 283.084 569.497C285.389 569.497 287.566 569.113 289.742 568.857C293.839 568.344 298.065 567.832 302.29 567.576C306.515 567.319 310.868 567.191 315.221 567.191C316.373 567.191 317.398 567.191 318.55 567.191C319.83 567.191 321.111 567.319 322.391 567.319C325.848 567.448 329.433 567.704 333.146 567.96C333.146 566.679 333.274 565.398 333.274 563.989C339.804 561.299 350.175 554.51 364.386 543.494C380.647 530.941 405.998 511.343 440.695 484.316C443.512 482.138 446.329 479.961 449.017 477.783C450.554 479.32 453.114 480.857 456.827 482.138C465.662 485.084 476.289 486.237 487.684 483.932C498.951 481.754 510.73 476.374 521.741 468.176C527.246 464.077 532.496 459.338 537.361 453.83C542.226 448.45 546.964 442.046 550.805 435.257C558.743 421.679 564.376 406.18 571.93 391.705C572.827 390.04 573.595 388.503 574.235 387.094C575.515 384.276 576.284 382.355 576.284 381.202C576.284 380.049 575.515 379.793 573.979 380.433C570.906 381.586 567.577 385.301 564.376 391.449C562.456 394.908 560.279 399.519 557.591 405.283C554.902 410.919 551.829 417.708 547.86 425.265C543.891 432.695 539.794 439.099 535.569 444.095C531.344 449.219 527.374 453.189 523.789 456.392C520.205 459.594 515.979 462.924 511.114 465.999C506.121 469.073 500.487 472.019 494.085 474.197C492.549 474.837 490.885 475.093 489.348 475.606C487.812 475.99 486.147 476.374 484.611 476.63C481.538 477.143 478.465 477.527 475.52 477.527C469.631 477.655 464.125 476.758 459.132 475.221C457.724 474.837 456.699 474.453 455.803 474.197C455.163 474.069 454.651 473.812 454.139 473.684C482.434 451.524 505.224 433.591 522.765 420.014C542.867 404.258 567.577 384.66 597.025 361.348C606.756 353.534 616.23 346.105 625.321 338.803C625.449 339.316 625.449 339.828 625.577 339.956C627.113 342.774 629.162 345.72 630.954 349.051C630.954 349.179 631.082 349.179 631.21 349.051C631.467 348.923 631.851 347.898 632.235 345.977C632.363 346.233 632.491 346.361 632.491 346.617C633.515 349.051 634.283 351.869 634.667 355.071C635.564 361.476 635.308 369.161 634.283 378.256C633.771 382.739 633.003 387.734 632.235 392.858C631.467 398.11 630.442 403.746 629.162 409.638C626.473 421.551 622.12 434.616 615.462 448.322C606.5 466.639 594.08 483.932 578.716 498.918C563.352 513.905 545.171 526.586 524.814 536.065C514.699 540.804 504.072 544.775 492.933 547.849C487.428 549.259 481.794 550.668 476.161 551.692C470.527 552.717 464.637 553.742 458.876 555.151C453.114 556.56 447.353 558.353 441.975 561.171L439.927 562.196C439.287 562.58 438.646 562.964 438.006 563.349C436.726 564.117 435.446 564.886 434.165 565.782L430.58 568.6L429.684 569.369L428.916 570.138L427.251 571.675C422.898 575.902 419.057 580.897 416.112 586.277C413.168 591.657 410.607 597.421 408.942 603.441C407.15 609.462 405.87 615.482 405.101 621.759C404.333 628.035 403.821 634.312 403.693 640.588C403.693 641.357 403.693 641.997 403.693 642.766C402.413 642.125 400.62 641.613 398.188 641.1C397.931 640.972 397.547 640.844 397.291 640.716C396.395 640.46 395.371 640.204 394.475 640.076L392.426 639.82C391.146 639.691 389.993 639.563 388.713 639.435C388.457 639.435 388.073 639.435 387.817 639.307C386.408 638.923 384.872 638.667 383.592 638.539C381.031 638.411 378.726 638.539 376.422 638.923C376.166 638.923 375.91 639.051 375.525 639.051C349.022 637.642 318.422 636.233 283.597 634.568C278.219 632.006 272.586 629.572 266.568 628.163C262.599 627.138 258.63 626.626 254.661 626.498C250.692 626.37 246.851 626.498 243.01 626.882C239.169 627.267 235.456 627.651 231.743 628.163C228.03 628.676 224.445 629.06 220.732 629.444C218.171 629.7 215.61 629.956 213.05 630.213H211.257C202.295 629.956 193.46 630.213 185.65 630.725C161.196 629.7 135.333 628.804 108.061 627.779C104.604 627.651 101.403 627.651 98.5866 627.651C97.8184 627.651 96.9222 627.651 96.282 627.651L90.3924 621.63C90.5204 615.994 90.6485 610.358 90.7765 604.722C91.5447 571.931 92.441 538.499 93.2092 504.682C93.7213 487.774 94.3615 470.61 94.3615 453.189C94.2335 439.356 93.7213 425.265 92.0569 411.175C93.7213 411.56 95.8979 412.072 98.4586 412.841C102.428 413.865 105.5 414.634 107.805 415.146C110.11 415.659 112.927 416.427 116.255 417.196C119.584 417.964 122.657 418.605 125.474 419.117C125.858 419.245 126.114 419.245 126.37 419.245C128.035 419.117 128.803 417.964 128.419 415.787C128.163 413.737 127.138 412.328 125.602 411.944C117.408 409.382 105.885 406.82 91.1606 404.002C91.0326 402.849 90.9046 401.697 90.6485 400.544C89.4962 393.242 87.7037 386.069 85.271 379.152C87.3196 379.409 90.1363 379.921 93.5933 380.433C98.0745 381.074 101.531 381.586 104.092 381.97C106.653 382.355 109.854 382.867 113.695 383.251C117.536 383.764 120.865 384.148 124.066 384.404C124.45 384.404 124.834 384.532 125.09 384.404C127.01 384.148 127.65 382.867 127.138 380.818C126.626 378.768 125.474 377.487 123.681 377.103C113.951 375.053 100.251 373.26 82.5823 371.723C79.5095 363.781 75.7965 356.224 71.8274 348.923C63.3771 333.039 54.0306 317.924 46.9887 302.041C43.5318 294.227 40.587 285.773 37.5141 277.319C34.5693 268.865 31.7526 260.283 29.0639 251.701C23.6864 234.408 19.0772 216.86 14.98 199.055C14.0838 194.828 13.1876 190.729 12.2913 186.758C11.3951 182.659 10.4988 178.816 9.73063 174.846C8.06618 167.16 6.6578 159.987 6.01763 153.326C5.37745 146.665 5.50549 140.773 6.40173 136.034C6.91387 133.6 7.55404 131.422 8.45028 129.501C9.34653 127.58 10.2428 125.914 11.3951 124.377C15.7483 118.485 21.1257 115.539 24.4546 113.746C26.1191 112.849 27.3994 112.209 28.0396 111.696C28.8078 111.184 28.9358 110.928 28.5517 110.928C27.7835 110.8 24.7107 111.312 19.8454 113.361C14.98 115.411 9.47456 118.997 5.50549 125.274C3.45694 128.348 2.04856 132.191 1.02428 136.546C0.128037 140.901 -0.256067 145.641 -0.128032 150.764C0.128037 161.012 2.56069 172.412 5.12139 184.965C7.68208 197.518 10.7549 211.096 14.5959 225.826C18.9491 242.606 24.5826 261.564 32.0086 282.571C33.9292 287.823 35.7216 293.203 38.0263 298.711C38.5384 300.12 39.1786 301.4 39.6907 302.809C40.3309 304.219 40.843 305.499 41.4832 306.908C42.6355 309.726 44.0439 312.416 45.4523 315.234C50.9578 326.378 57.6156 337.522 64.0173 349.563C70.419 361.476 76.8208 374.413 80.6618 388.759C82.7103 395.932 83.7346 403.362 84.7589 411.047C85.6551 418.733 86.2953 426.546 86.6794 434.616C87.4476 450.628 87.0635 467.408 86.5514 484.7C86.2953 493.41 86.0392 502.249 85.6551 511.215C85.3991 520.182 85.271 529.276 85.015 538.627C84.1187 575.774 82.9664 610.999 82.3262 644.303C82.1982 652.629 82.0702 660.827 81.9421 668.896C81.9421 672.995 81.8141 676.966 81.8141 680.937C81.8141 684.908 81.8141 688.879 81.6861 692.722C81.43 700.407 80.7898 708.221 80.4057 715.778C80.0216 723.336 79.7655 730.893 79.7655 738.322C79.7655 753.181 80.6618 767.655 85.015 781.489C85.5271 783.154 86.1673 784.82 86.8075 786.613L87.9598 789.047L88.4719 790.328L89.1121 791.481L90.3924 793.786L91.9288 796.092C92.569 797.373 93.3372 798.526 94.1054 799.678C94.6176 800.447 95.2577 801.344 95.8979 802.112L94.1054 802.753L96.5381 802.881C98.7147 805.314 101.403 807.62 104.476 809.285C106.653 810.438 109.085 811.335 111.39 811.847C113.695 812.359 115.999 812.488 118.048 812.616C120.224 812.744 122.145 812.744 124.066 812.744L129.955 812.872C133.924 813 137.765 812.872 141.734 812.872C157.483 812.872 173.231 812.359 188.979 811.591C198.198 811.207 207.416 810.566 216.635 810.054C251.716 810.31 289.742 810.566 330.713 810.95C334.042 810.95 337.371 810.951 340.828 811.079C344.157 811.079 347.614 811.207 351.071 811.079C356.32 810.951 361.826 810.694 367.203 809.926V811.591C368.74 811.335 369.892 811.079 371.044 810.95C374.117 810.438 376.422 810.054 378.598 809.541C382.439 808.645 386.664 806.98 389.737 803.905C391.274 802.368 392.426 800.703 393.066 799.038C393.322 798.782 393.578 798.654 393.706 798.397C396.779 795.579 399.212 792.121 401.26 788.662C403.181 785.076 404.717 781.361 405.87 777.647C408.174 770.089 409.327 762.532 410.095 754.846C410.863 747.289 411.375 739.603 411.759 731.918C412.399 716.419 412.015 700.791 411.631 684.908C411.247 653.269 408.302 621.63 420.081 595.756C422.898 589.351 426.739 583.587 431.348 578.848C432.501 577.695 433.781 576.542 434.933 575.389L438.903 572.315L443.128 569.753C444.536 568.857 446.072 568.344 447.609 567.576C459.644 561.94 474.24 561.043 488.836 557.328C517.9 550.155 544.531 536.962 566.937 519.541C572.571 515.186 577.82 510.447 582.941 505.579C587.935 500.584 592.8 495.588 597.153 490.208C601.634 484.956 605.604 479.32 609.573 473.556C613.286 467.792 616.871 461.9 619.815 455.879C626.729 442.43 630.698 431.03 633.003 422.319C633.643 420.27 634.027 418.348 634.539 416.427C635.052 414.506 635.436 412.584 635.82 410.663C636.204 408.742 636.588 406.948 636.844 405.155C637.1 403.362 637.356 401.568 637.612 399.775C637.868 397.982 638.124 396.317 638.252 394.78C638.38 393.114 638.636 391.577 638.765 390.04C639.149 386.966 639.405 383.892 639.661 380.946C640.557 369.289 640.045 359.554 637.612 352.125C636.46 348.41 634.667 345.208 632.747 342.902C632.491 342.646 632.235 342.39 631.979 342.134C631.723 341.621 631.467 340.981 630.954 340.212C630.314 339.06 629.802 338.291 629.418 337.651C629.162 337.266 628.906 336.882 628.65 336.498C645.678 322.92 661.683 309.983 676.663 297.942C679.992 295.252 682.68 293.075 684.601 291.537C696.124 281.802 701.63 276.166 701.373 274.629C702.398 273.733 703.55 272.58 704.702 271.043C708.928 265.535 713.409 259.386 718.146 252.469C722.755 245.552 727.621 237.867 732.614 229.541C737.607 221.215 742.729 211.992 748.106 202.257C753.484 192.522 759.117 182.147 765.007 171.131C765.647 169.85 766.287 168.697 766.671 167.544C767.951 164.47 768.208 162.677 767.311 162.164C767.311 162.164 767.311 162.164 767.439 162.164C768.464 162.421 769.104 162.805 769.744 163.061C769.872 163.061 769.872 163.189 769.872 163.061C770.128 162.293 769.872 161.14 769.104 159.218ZM350.303 792.121C349.022 791.993 347.614 791.865 346.077 791.737C347.102 791.609 348.126 791.48 349.15 791.352C349.919 791.224 350.687 791.096 351.455 790.84L350.943 791.993C350.687 792.249 350.559 792.121 350.303 792.121ZM327.897 790.456C327.641 790.328 327.384 790.2 327 790.071C327.897 790.071 328.921 790.2 329.817 790.2C330.201 790.328 330.585 790.328 330.841 790.456C332.122 790.712 333.274 790.712 334.554 790.84C334.682 790.84 334.938 790.968 335.066 790.968C332.89 790.84 330.457 790.584 327.897 790.456ZM390.249 651.604C390.505 652.116 390.634 652.757 390.762 653.397V653.525C390.634 653.269 390.377 653.141 390.249 652.885C389.481 652.629 388.713 652.373 387.945 652.116C387.177 651.86 386.408 651.604 385.64 651.348C384.744 651.092 383.976 650.835 383.079 650.579C382.567 650.195 382.183 649.683 381.671 649.298C383.207 649.683 384.744 649.939 386.28 650.323C387.689 650.579 389.353 651.22 390.249 651.604ZM395.371 745.239C395.371 745.367 395.499 745.367 395.627 745.624L396.011 746.392C395.755 746.648 395.627 746.776 395.371 747.033C394.859 747.545 394.475 748.185 394.09 748.698C394.218 748.057 394.218 747.545 394.346 746.904C394.731 746.264 394.987 745.752 395.243 745.111L395.371 745.239ZM125.346 777.006C125.858 776.622 126.242 776.109 126.626 775.725C127.779 775.981 128.931 775.981 130.339 775.981C129.699 777.006 129.059 777.903 128.291 778.671C127.266 778.159 126.37 777.647 125.346 777.006ZM308.435 655.447C309.716 655.959 311.124 656.472 312.532 656.984C312.404 656.984 312.276 657.112 312.02 657.112C311.38 657.24 310.74 657.496 310.1 657.624C309.716 657.624 309.46 657.496 309.075 657.496L308.563 656.984C308.307 656.728 308.051 656.6 307.795 656.343L307.155 655.831C307.027 655.831 307.027 655.703 306.899 655.703C307.539 655.703 308.051 655.575 308.435 655.447ZM383.079 751.516C383.079 751.644 382.951 751.644 382.951 751.772C382.823 752.028 382.567 752.284 382.439 752.541V752.412C382.311 751.644 382.311 750.875 382.183 750.235C382.567 749.979 383.079 749.594 383.592 749.338C383.336 749.851 383.208 750.619 383.079 751.516ZM178.608 656.215C178.096 656.471 177.712 656.728 177.328 656.984C176.816 656.856 176.432 656.728 175.919 656.6C175.663 656.6 175.535 656.471 175.279 656.471C174.895 656.343 174.511 656.343 174.127 656.215C173.615 656.087 173.103 655.959 172.463 655.831C172.335 655.831 172.206 655.831 172.206 655.703C172.975 655.575 173.743 655.447 174.511 655.319C175.663 655.191 176.944 654.934 178.352 654.55C178.48 654.55 178.608 654.422 178.736 654.422C178.992 654.55 179.248 654.678 179.504 654.678L178.864 655.703C178.736 655.959 178.736 656.087 178.608 656.215ZM373.349 732.686C373.349 732.43 373.221 732.174 373.221 732.046C373.733 731.661 374.117 731.277 374.629 730.893C374.245 731.405 373.861 732.046 373.349 732.686ZM376.166 686.317C376.166 686.445 376.166 686.573 376.294 686.701C375.781 687.47 375.269 688.366 374.885 689.135C374.757 689.263 374.629 689.519 374.501 689.647C372.965 687.854 371.172 686.317 369.38 684.908C369.892 684.652 370.532 684.267 371.044 684.011C371.428 683.755 371.812 683.627 372.068 683.499C373.605 684.396 375.013 685.292 376.166 686.317ZM375.141 712.32C375.269 712.832 375.525 713.344 375.653 713.857C375.653 713.985 375.653 714.241 375.525 714.369C375.269 715.65 374.885 716.931 374.373 718.084C374.373 717.956 374.373 717.828 374.373 717.699C374.501 715.394 374.629 713.088 374.373 710.783C374.373 710.783 374.373 710.783 374.501 710.783C374.757 711.423 375.013 711.807 375.141 712.32ZM301.265 749.594C301.521 748.954 301.906 748.313 302.162 747.545C303.57 747.289 304.85 746.904 306.259 746.648C306.003 746.904 305.875 747.289 305.619 747.545C304.21 748.313 302.802 748.954 301.265 749.594ZM259.142 680.169C259.526 680.553 259.91 680.809 260.294 681.065C259.91 680.937 259.398 680.681 259.014 680.553C259.014 680.425 259.142 680.297 259.142 680.169ZM280.78 728.075C281.164 728.075 281.548 728.075 281.804 728.075C281.164 728.203 280.396 728.459 279.756 728.587C280.012 728.459 280.396 728.203 280.78 728.075ZM174.383 743.062C173.615 743.446 172.847 743.83 171.95 744.215C172.078 743.958 172.078 743.83 172.206 743.574C172.975 743.446 173.743 743.19 174.383 743.062ZM236.352 736.657C236.608 736.913 236.864 737.169 236.992 737.426C236.48 738.578 235.968 739.603 235.456 740.756C233.407 741.268 231.358 741.909 229.182 742.549C231.615 740.628 234.047 738.707 236.352 736.657ZM335.323 729.996C335.195 729.996 335.066 729.996 334.938 729.996C334.042 729.868 333.146 729.868 332.25 729.74C331.994 728.203 331.866 726.666 331.738 725.257C331.866 725.257 331.994 725.257 332.122 725.257C332.506 726.154 333.146 726.922 333.53 727.563C334.042 728.075 334.426 728.587 334.81 728.972C335.066 729.356 335.195 729.74 335.323 729.996ZM142.246 734.992L142.631 735.632C141.222 735.504 139.814 735.376 138.405 734.992L138.661 734.736C139.942 734.864 141.094 734.992 142.246 734.992ZM137.765 742.165C138.149 742.293 138.661 742.293 139.046 742.421C138.661 742.677 138.405 742.934 138.021 743.19C138.021 742.806 137.893 742.549 137.765 742.165ZM349.79 732.174C349.662 730.893 349.406 729.74 349.15 728.459C349.79 728.587 350.303 728.844 350.943 729.1C351.455 729.228 351.839 729.484 352.351 729.612C351.455 730.381 350.687 731.277 349.79 732.174ZM359.649 701.944C359.649 701.688 359.521 701.56 359.521 701.304C359.521 701.176 359.521 701.176 359.521 701.048C360.289 700.791 361.057 700.663 361.698 700.791C362.338 700.791 362.85 701.047 363.49 701.432C362.21 701.56 360.929 701.816 359.649 701.944ZM342.492 684.396C342.621 683.627 342.621 682.73 342.621 681.962C342.877 682.09 343.133 682.346 343.261 682.474L344.541 683.755C343.901 683.883 343.261 684.139 342.492 684.396ZM239.297 684.78C238.4 685.933 237.632 687.086 236.864 688.238C235.712 687.598 234.559 686.829 233.407 686.189C235.712 685.548 237.632 685.164 239.297 684.652C239.169 684.652 239.169 684.78 239.297 684.78ZM149.928 751.516L150.569 750.875C150.569 751.003 150.569 751.132 150.569 751.26L150.697 751.772H149.928C149.928 751.644 149.928 751.516 149.928 751.516ZM293.711 749.979C293.455 750.491 293.199 751.003 292.815 751.516C291.919 751.516 291.023 751.388 289.998 751.388C291.279 751.003 292.559 750.491 293.711 749.979ZM359.137 714.753C359.521 714.625 360.033 714.369 360.417 714.241C360.801 714.113 361.314 713.857 361.698 713.729C361.442 714.497 361.186 715.394 360.929 716.162C360.289 715.65 359.777 715.138 359.137 714.753ZM234.303 682.987C233.151 683.115 231.999 683.243 230.846 683.371C230.718 683.371 230.462 683.371 230.334 683.499C230.206 683.115 229.95 682.858 229.822 682.474C230.078 682.346 230.334 682.218 230.462 682.09C231.743 682.346 233.023 682.602 234.303 682.987ZM193.588 691.441C193.46 691.569 193.204 691.825 193.076 691.953C192.948 691.825 192.948 691.569 192.82 691.441C192.82 691.184 192.948 691.056 192.948 690.8C193.204 691.056 193.332 691.184 193.588 691.441ZM213.69 687.214C213.562 687.342 213.562 687.342 213.434 687.342C213.562 687.214 213.562 687.086 213.69 686.957C213.69 687.086 213.69 687.214 213.69 687.214ZM131.62 712.832C130.851 711.167 130.083 709.502 129.315 707.708C129.955 707.836 130.467 707.964 131.235 708.093L131.363 708.221C131.235 708.605 131.107 708.989 131.107 709.373C130.979 710.398 131.363 711.679 132.132 712.832C132.132 712.96 132.26 713.088 132.388 713.088C132.004 713.088 131.876 712.96 131.62 712.832ZM261.959 665.31C261.703 665.566 261.319 665.822 261.062 666.078C260.422 665.566 259.654 665.182 259.014 664.926C259.91 665.054 260.806 665.182 261.703 665.182C261.703 665.182 261.831 665.31 261.959 665.31ZM181.937 691.825C181.937 692.081 181.809 692.465 181.809 692.722L181.553 692.85C181.681 692.081 181.937 691.312 182.065 690.544C181.937 690.928 181.937 691.441 181.937 691.825ZM161.452 716.675C161.068 716.547 160.811 716.547 160.427 716.419C159.787 716.29 159.019 716.162 158.379 716.034C160.683 715.266 162.86 713.857 164.652 712.192C163.756 713.729 162.732 715.266 161.452 716.675ZM208.312 679.912C207.672 680.297 206.904 680.681 206.264 681.065C206.008 680.169 205.88 679.272 205.624 678.247C206.392 678.888 207.288 679.4 208.312 679.912ZM183.089 671.458C183.089 671.202 183.089 670.946 183.089 670.69C183.474 671.074 183.858 671.586 184.242 671.971C184.37 672.227 184.498 672.483 184.498 672.739C184.37 673.38 184.242 674.148 184.114 674.917C184.114 675.173 183.986 675.429 183.986 675.557C183.858 676.582 183.602 677.479 183.474 678.503C183.346 678.375 183.346 678.247 183.217 678.247V677.479C183.346 675.429 183.217 673.508 183.089 671.458ZM169.262 688.623C168.493 692.465 166.829 696.308 164.524 699.895C162.348 703.609 159.531 707.068 156.202 708.349C152.873 709.758 148.648 709.245 144.935 707.452C143.015 706.555 141.478 705.275 139.942 703.737C138.533 702.2 137.253 700.407 136.485 698.358C135.589 696.436 135.076 694.259 134.948 692.209C134.82 690.16 135.076 688.11 135.845 686.317C136.485 684.652 137.637 682.987 139.046 681.706C140.454 680.425 142.246 679.4 144.039 678.888C144.935 678.631 145.575 678.503 146.215 678.247C147.496 677.991 148.392 677.735 148.904 677.222C149.416 676.71 149.544 675.941 149.032 674.789C148.776 674.276 148.392 673.764 147.752 673.38C147.24 672.995 146.472 672.611 145.703 672.483C145.319 672.355 144.807 672.355 144.423 672.355C145.703 671.202 147.112 670.177 148.52 669.153C149.032 668.768 149.416 668.512 149.672 668.128C150.057 667.615 150.313 667.231 150.441 666.719H150.569C151.593 666.463 152.489 666.207 153.513 665.95C155.69 666.719 158.507 667.359 161.708 669.281C164.781 671.074 167.213 674.02 168.622 677.479C170.03 680.937 170.03 684.908 169.262 688.623ZM383.464 709.502C383.336 708.349 383.207 707.324 382.951 706.171C382.951 705.915 382.823 705.659 382.823 705.403C382.951 705.275 383.079 705.275 383.079 705.146C383.72 704.506 384.488 703.225 384.616 701.816C384.616 701.688 384.616 701.56 384.616 701.432C384.872 701.304 385.128 701.176 385.384 701.048C385.512 701.048 385.64 700.919 385.768 700.919C385 703.866 384.232 706.684 383.464 709.502ZM171.95 664.029C171.566 665.182 171.182 666.463 171.054 667.616C169.646 666.078 167.981 664.797 166.317 663.645C167.597 663.517 168.75 663.517 170.03 663.517C170.67 663.517 171.438 663.517 172.078 663.645C172.078 663.773 171.95 663.901 171.95 664.029ZM121.633 666.975L121.889 666.591C122.017 666.335 122.145 666.078 122.401 665.822C123.169 666.078 123.937 666.335 124.578 666.591C125.218 666.719 125.858 666.847 126.498 666.975C125.73 668.256 124.962 669.537 124.194 670.818C124.066 670.946 123.937 670.946 123.809 671.074L121.633 667.231C121.633 667.103 121.633 667.103 121.633 666.975ZM377.958 739.859C378.086 739.731 378.214 739.475 378.342 739.347L378.214 740.116C378.086 739.987 378.086 739.859 377.958 739.859ZM379.494 742.293C379.366 742.037 379.238 741.781 379.11 741.653L381.543 736.913V737.041C382.055 738.066 382.951 738.963 383.848 739.859C382.311 740.5 380.903 741.396 379.494 742.293ZM391.274 677.479C391.402 677.351 391.53 677.479 391.658 677.222L391.914 676.71L392.426 675.685L392.682 675.045C392.81 675.942 392.81 676.71 392.938 677.735V677.863L392.554 676.966V678.76C392.426 679.144 392.298 679.528 392.17 679.912L389.481 680.169C389.481 680.297 389.481 680.297 389.481 680.425H388.969C389.225 680.04 389.481 679.528 389.737 679.144C390.121 678.503 390.505 677.735 391.018 677.094C391.146 677.479 391.146 677.479 391.274 677.479ZM276.171 653.91C276.043 653.91 276.043 653.91 275.915 653.91C276.043 653.91 276.171 653.91 276.299 653.91C276.299 653.782 276.299 653.91 276.171 653.91ZM112.542 678.888C112.414 679.528 112.414 680.169 112.414 680.937L110.878 681.065C111.006 680.553 111.006 680.04 111.134 679.528C111.518 679.4 112.03 679.144 112.542 678.888ZM117.792 768.296C118.176 768.424 118.432 768.552 118.816 768.808L119.968 769.321C120.353 769.449 120.737 769.577 121.121 769.705C121.249 769.833 121.249 769.833 121.377 769.961C120.737 770.73 119.968 771.498 119.2 772.01C118.944 771.754 118.816 771.626 118.56 771.37C118.432 770.345 118.048 769.321 117.792 768.296ZM380.263 663.645C380.135 663.901 380.007 664.157 379.879 664.413C379.11 664.157 378.47 664.029 377.702 663.773C377.574 663.517 377.446 663.388 377.19 663.132C378.214 662.876 379.366 662.492 380.391 662.108C380.519 662.62 380.391 663.132 380.263 663.645ZM194.869 650.835C193.716 650.835 192.82 650.964 191.412 651.604C191.156 651.732 190.9 651.86 190.643 651.988C189.875 651.092 188.979 650.323 187.955 649.555L194.997 650.964L194.869 650.835ZM106.269 711.167C106.781 712.576 107.293 713.857 107.805 715.266C107.677 715.394 107.677 715.394 107.549 715.522C106.909 715.01 106.397 714.497 105.757 713.985C106.013 712.96 106.141 712.063 106.269 711.167ZM389.225 659.674L389.097 659.802L388.201 660.314C388.201 660.186 388.201 660.186 388.201 660.058C388.329 660.058 388.585 659.93 388.713 659.93C388.841 659.93 388.969 659.802 389.225 659.674ZM372.581 656.343C371.556 656.6 370.404 656.856 369.252 656.984C367.331 656.215 365.411 655.703 363.618 655.191C365.795 655.319 368.227 655.447 370.66 655.703C371.3 655.959 371.94 656.087 372.581 656.343ZM188.083 649.426C187.699 649.17 187.315 648.786 186.93 648.53C188.211 648.658 189.619 648.658 190.9 648.786L188.083 649.426ZM106.141 768.168C106.141 768.296 106.141 768.424 106.141 768.552C106.013 768.552 105.885 768.552 105.757 768.68C105.629 768.68 105.501 768.808 105.501 768.808C105.372 768.68 105.372 768.552 105.244 768.424C105.244 766.503 105.244 764.581 105.501 762.532C105.757 763.172 106.141 763.813 106.397 764.453C106.269 765.734 106.141 766.887 106.141 768.168ZM339.42 783.411C341.724 782.77 343.901 781.874 346.077 780.849C346.334 780.721 346.462 780.593 346.718 780.593C347.87 781.105 349.15 781.361 350.303 781.489C350.175 781.617 350.047 781.745 349.79 781.745C349.15 781.874 348.51 782.13 347.87 782.258C345.181 782.898 342.492 783.283 339.804 783.539C339.676 783.539 339.548 783.539 339.42 783.411ZM102.3 651.476C102.556 652.629 102.812 653.782 103.068 655.062C102.684 654.678 102.428 654.038 102.3 653.525C102.172 653.141 102.044 652.885 102.044 652.501C102.044 652.116 102.172 651.86 102.3 651.476ZM97.0502 718.468C97.0502 718.852 97.0502 719.237 97.1783 719.749C96.7942 722.183 96.41 724.873 96.154 727.691C96.282 725.129 96.5381 722.439 96.9222 719.877C96.9222 719.365 96.9222 718.98 97.0502 718.468ZM109.854 781.617C110.366 781.745 111.006 781.874 111.518 781.874C112.414 782.898 113.311 783.923 114.335 784.82C114.207 784.82 114.207 784.82 114.079 784.82C113.439 784.692 112.926 784.563 112.286 784.307C111.518 783.411 110.622 782.514 109.854 781.617ZM124.45 791.352C124.834 791.224 125.346 790.968 125.73 790.712C126.114 790.84 126.498 790.968 126.882 790.968C126.37 791.352 125.986 791.609 125.73 791.865C125.218 791.737 124.706 791.48 124.194 791.352C124.322 791.352 124.45 791.352 124.45 791.352ZM116.768 643.15C116.511 643.406 116.255 643.662 115.999 643.919C115.615 644.431 115.231 644.943 114.847 645.456C114.463 643.79 113.439 643.534 112.03 644.687C111.006 645.456 110.238 646.608 109.47 648.017C109.47 647.889 109.47 647.761 109.598 647.633C109.854 646.48 110.11 645.584 110.11 644.815C111.646 644.175 113.183 643.534 114.719 643.022C115.487 643.022 116.127 643.15 116.768 643.15ZM356.064 792.761C357.345 791.737 358.753 790.84 360.417 789.943C360.673 790.071 360.801 790.2 361.057 790.2C361.698 790.456 362.466 790.712 363.106 790.84C362.594 791.224 362.082 791.737 361.57 792.121C361.314 792.377 360.929 792.505 360.417 792.89L359.905 793.274C358.753 793.146 357.473 792.89 356.064 792.761ZM107.677 798.269L106.269 798.782C104.22 797.629 102.172 796.22 100.507 794.427C102.812 796.22 105.244 797.501 107.677 798.269ZM243.778 800.831C243.138 800.447 242.369 800.191 241.601 799.935C244.418 800.063 247.363 800.191 250.436 800.319C248.259 800.447 245.954 800.703 243.778 800.831ZM296.656 797.245C296.528 797.117 296.528 797.117 296.4 796.988C299.345 796.86 302.162 796.86 304.85 796.732C302.162 796.86 299.473 796.988 296.656 797.245ZM397.419 761.891C397.675 760.61 397.931 759.457 398.316 758.305C398.444 757.792 398.572 757.28 398.828 756.768C398.828 757.152 398.828 757.408 398.828 757.792C398.444 759.201 397.931 760.482 397.419 761.891ZM401.901 740.756C401.644 740.372 401.516 740.116 401.26 739.731C401.132 739.603 401.132 739.475 401.004 739.347C401.388 738.963 401.773 738.707 402.157 738.322C402.285 738.066 402.541 737.938 402.669 737.682L404.077 737.81C404.077 738.194 404.077 738.45 404.077 738.835L401.901 740.756ZM103.836 635.208C103.58 635.208 103.324 635.208 103.068 635.208C102.812 634.824 102.556 634.44 102.3 634.184C103.196 634.312 104.22 634.44 105.244 634.44C104.732 634.696 104.22 634.952 103.836 635.208ZM88.856 702.072C89.1121 698.101 89.2401 694.002 89.3681 689.904C89.3681 685.933 89.3681 681.962 89.4962 677.863C89.4962 677.735 89.4962 677.607 89.4962 677.479C89.6242 677.735 89.7522 678.119 89.8803 678.375L91.4167 682.09C90.7765 689.775 90.1364 697.589 89.4962 705.403C88.984 711.935 88.3439 718.596 87.8317 725.257C87.9598 717.571 88.4719 709.758 88.856 702.072ZM389.097 792.249C388.713 792.633 388.457 792.89 388.073 793.146C389.737 790.84 391.146 788.278 392.17 785.588C392.426 785.076 392.682 784.435 392.81 783.795C394.09 782.898 395.371 782.002 396.523 780.977C394.603 785.332 392.298 789.175 389.097 792.249ZM403.693 646.608C403.693 646.48 403.565 646.352 403.565 646.352H403.693C403.693 646.352 403.693 646.48 403.693 646.608ZM331.866 803.137C329.817 803.137 327.769 803.137 325.72 803.137C327.769 803.009 329.817 803.009 331.738 802.881C335.579 802.753 339.42 802.881 343.133 803.137C343.261 803.137 343.389 803.137 343.517 803.137C343.133 803.137 342.749 803.137 342.236 803.137C338.908 803.137 335.451 803.137 331.866 803.137ZM735.943 207.893C735.815 207.381 735.687 206.869 735.687 206.356C736.071 206.228 736.327 206.1 736.455 205.972C736.583 205.844 736.839 205.588 737.095 205.331C737.095 205.46 737.223 205.588 737.223 205.588C736.711 206.484 736.327 207.125 735.943 207.893ZM740.808 177.536C740.552 177.664 740.424 177.664 740.168 177.792C740.168 177.536 740.168 177.279 740.168 177.151C740.168 176.511 740.04 175.87 740.04 175.23C741.064 175.102 741.96 175.102 742.729 174.974C742.088 175.87 741.448 176.767 740.808 177.536ZM737.479 183.428C737.479 183.3 737.479 183.3 737.479 183.172C737.607 183.3 737.479 183.3 737.479 183.428ZM725.828 181.763C726.084 180.994 726.596 180.225 727.493 179.329C727.877 178.945 728.517 178.432 729.029 178.048C728.389 181.122 727.749 184.068 727.108 187.014C726.724 186.246 726.34 185.349 725.828 184.581C725.828 184.452 725.7 184.324 725.7 184.196C725.572 183.172 725.572 182.403 725.828 181.763ZM737.095 165.879C736.967 166.007 736.839 166.007 736.711 166.135C736.071 166.52 735.431 166.904 734.919 167.288C734.79 167.288 734.79 167.416 734.662 167.416C733.51 166.648 732.358 166.007 731.206 165.495C733.766 164.982 736.199 164.47 738.632 163.958C737.991 164.598 737.607 165.239 737.095 165.879ZM718.53 172.668C717.634 171.387 716.61 170.106 715.585 168.825C715.841 168.825 716.097 168.697 716.354 168.697L718.53 172.668ZM344.925 388.503C344.029 380.305 344.029 370.314 345.949 359.17C347.87 348.026 351.711 335.601 357.985 322.664C364.258 309.726 372.965 296.149 384.744 283.211C396.523 270.274 412.015 258.49 430.452 249.139C440.951 243.887 452.858 239.276 465.79 235.561C472.32 233.768 478.977 232.103 486.147 231.078C493.189 229.925 500.615 229.157 508.169 229.285C512.01 229.285 515.851 229.541 519.692 230.181C523.533 230.95 527.374 231.975 531.087 233.256C534.928 234.536 538.641 236.074 542.483 237.354C546.324 238.764 550.293 240.044 554.39 240.685C555.798 240.941 557.206 240.941 558.615 240.941C554.006 244.528 549.268 248.242 544.403 251.829C520.461 269.506 494.47 288.719 466.43 309.47C438.39 330.221 408.43 352.509 376.55 376.59C366.819 383.892 356.96 391.321 346.846 399.007C346.077 396.701 345.309 393.242 344.925 388.503ZM285.133 453.958C302.034 441.405 328.537 421.551 364.771 394.651C382.823 381.202 399.084 369.033 413.424 358.401C427.764 347.77 440.311 338.547 450.81 330.734C471.935 315.106 498.055 295.764 529.039 272.836C536.849 267.072 544.403 261.436 551.829 255.928C559.255 250.292 566.297 244.656 573.211 239.02C586.782 227.876 599.586 217.244 611.749 207.253C615.078 204.563 617.767 202.257 619.815 200.72C625.321 196.109 629.674 192.394 632.619 189.704C632.491 190.729 632.363 191.754 632.491 192.907C632.747 195.596 633.771 199.183 636.204 202.898C637.484 204.819 639.021 206.74 641.069 208.406C642.093 209.302 643.246 210.071 644.526 210.839C645.166 211.224 645.934 211.48 646.575 211.864C646.959 211.992 647.343 212.12 647.727 212.248C647.855 212.248 647.983 212.377 648.239 212.377C643.502 214.682 636.716 219.037 627.882 225.186C553.109 277.703 448.633 352.253 314.453 449.091C310.484 451.909 307.027 454.599 303.826 457.032C298.705 461.003 295.12 463.949 293.071 465.999C292.559 465.999 292.047 465.871 291.663 465.999C291.279 465.999 291.023 465.999 290.638 465.999H289.87L288.462 466.127L286.285 466.383C280.652 467.152 274.89 467.92 269.001 468.689C266.44 469.073 264.135 469.329 261.959 469.713C267.976 466.255 275.786 460.875 285.133 453.958ZM331.225 508.781C329.817 506.22 328.281 503.914 326.744 501.864C320.214 493.282 313.429 484.828 306.387 475.862C305.491 474.709 304.594 473.684 303.826 472.531C303.442 472.019 302.93 471.379 302.162 470.61C301.265 469.585 300.241 468.689 299.089 468.048C298.577 467.664 297.936 467.408 297.296 467.023C303.698 464.077 312.66 458.569 324.312 450.243C340.06 438.971 364.899 421.423 398.828 397.341C432.757 373.26 459.516 354.174 479.233 340.084C498.951 325.994 523.277 308.702 552.213 288.079C581.149 267.456 607.396 248.627 630.954 231.59C634.283 229.285 636.844 227.363 638.765 225.954C644.398 221.727 648.623 218.269 651.312 215.707C651.312 216.091 651.312 216.347 651.312 216.732V216.988V217.244L651.44 218.141C651.568 218.653 651.568 219.294 651.824 219.806C652.208 220.959 652.464 222.112 652.848 223.136C654.513 227.491 657.33 231.334 660.915 234.536C663.219 236.458 665.908 238.379 669.365 239.788C669.877 239.916 670.389 240.173 670.901 240.301C666.804 242.991 661.683 246.833 655.665 251.573C619.687 280.521 576.028 315.362 524.942 355.968C473.856 396.573 415.344 443.07 348.766 494.435C344.925 497.509 341.34 500.199 338.139 502.889C335.451 505.195 333.146 507.116 331.225 508.781ZM327 526.842L326.744 534.144L326.104 548.746L325.848 555.791C325.72 557.2 325.72 558.609 325.592 559.762L322.903 559.506L321.623 559.378H321.367H320.727H319.574C310.996 559.122 301.521 559.378 290.895 560.787C288.206 561.171 285.645 561.555 283.469 561.555C282.316 561.555 281.42 561.555 280.524 561.299C279.628 561.171 278.731 560.787 277.835 560.403C276.043 559.506 274.25 558.097 272.202 556.175C270.281 554.382 268.104 552.077 265.928 549.899C262.471 546.44 259.142 543.11 256.069 539.908C254.533 538.371 252.996 536.834 251.46 535.296C250.692 534.528 250.052 533.887 249.667 533.503C249.539 533.247 249.411 533.119 249.283 532.991C249.283 532.863 249.283 532.863 249.155 532.735C249.155 532.607 249.155 532.607 249.155 532.478C249.155 532.35 249.155 532.222 249.155 531.966C249.155 531.582 249.155 530.813 249.155 530.045C249.283 528.251 249.411 526.458 249.411 524.793C249.667 521.334 249.923 517.876 250.18 514.546C250.692 507.885 251.204 501.608 251.716 495.588C251.972 492.77 252.1 490.592 252.228 488.927C252.484 482.266 252.228 477.783 251.716 475.221C256.581 476.246 264.263 475.99 275.018 474.709C278.347 474.325 282.188 473.812 286.413 473.3C287.438 473.172 288.59 473.044 289.742 472.916C290.895 472.788 292.047 472.66 293.199 472.916C294.352 473.172 295.504 473.684 296.4 474.581C297.296 475.478 298.064 476.502 298.833 477.527C302.034 481.754 305.619 486.237 309.332 491.105C311.252 493.538 313.173 496.1 315.221 498.79C317.27 501.48 319.446 504.17 321.495 506.988C322.903 508.91 324.184 510.959 325.08 513.008C325.336 513.393 325.464 513.777 325.592 514.289C325.336 514.802 325.464 515.058 325.848 515.058C326.36 516.467 326.616 517.876 326.744 519.413C327.128 522.103 327.128 524.409 327 526.842ZM673.078 291.153C597.409 350.844 491.397 435.129 353.888 542.854C349.918 546.056 346.206 549.002 343.005 551.692C338.779 555.279 335.579 558.097 333.402 560.146C333.402 559.122 333.402 558.097 333.53 557.072C333.658 554.51 333.658 551.948 333.786 549.387C333.914 544.519 334.17 539.652 334.298 534.656C334.426 532.222 334.426 529.66 334.554 527.099C334.682 524.537 334.682 521.719 334.298 518.645C334.042 516.723 333.53 514.674 332.89 512.752C339.164 509.55 347.87 503.786 358.881 495.332C374.629 483.419 399.212 464.59 432.629 438.587C466.046 412.584 492.293 391.833 511.626 376.59C530.959 361.348 554.774 342.39 582.941 319.846C611.109 297.302 636.716 276.679 659.762 258.105C662.963 255.544 665.524 253.494 667.444 251.829C669.749 249.908 671.797 248.114 673.59 246.449C673.59 246.961 673.59 247.474 673.718 247.986C673.846 248.755 673.974 249.651 674.102 250.42C674.23 251.188 674.486 251.957 674.742 252.726C675.126 254.263 675.767 255.672 676.407 257.081C676.663 257.721 677.047 258.362 677.431 259.002C677.815 259.642 678.071 260.283 678.583 260.923C681.784 265.663 685.625 269.506 689.85 272.324C691.003 273.22 692.027 273.733 692.795 274.117C693.819 274.629 694.716 275.014 695.612 275.27L695.74 275.398C690.619 278.088 683.193 283.34 673.078 291.153ZM715.073 242.478C709.312 251.445 703.934 259.386 698.941 266.431C698.301 267.456 697.66 268.225 697.276 268.737C697.148 268.865 697.148 268.993 697.02 269.121C696.124 268.353 694.972 267.456 693.691 266.559C691.643 265.022 689.722 263.229 687.93 261.18C686.137 259.13 684.473 256.824 683.321 254.263C682.168 251.701 681.272 248.883 681.144 246.065V245.04V244.528V244.271L681.272 243.887C681.528 242.862 681.784 241.838 682.04 240.813C682.552 239.66 683.065 238.507 683.449 237.354C684.089 236.202 684.601 235.049 685.241 233.896C685.241 233.896 685.241 233.768 685.113 233.768H684.729H683.961L682.296 233.896C681.144 233.896 679.864 233.896 678.711 233.896H677.815C677.559 233.896 677.175 233.768 676.919 233.768C676.279 233.64 675.638 233.64 675.126 233.512L674.23 233.384C674.102 233.384 673.974 233.384 673.846 233.256L673.59 233.127L672.566 232.743C669.749 231.59 667.188 229.797 664.884 227.619C662.707 225.314 660.915 222.624 659.89 219.678C659.634 218.909 659.506 218.141 659.25 217.5C659.122 217.116 659.122 216.732 659.122 216.347V216.091V215.963V215.835V215.579C659.122 215.066 658.994 214.682 658.994 214.17C658.994 212.377 658.994 210.455 659.122 208.662C659.122 207.765 659.25 206.74 659.25 205.844C659.25 205.331 659.378 204.819 659.25 204.435L659.122 203.41C656.689 203.922 653.488 204.691 651.056 205.075L650.032 205.203C649.904 205.203 649.647 205.203 649.391 205.203C649.263 205.203 649.263 205.203 649.263 205.203C649.135 205.075 648.879 205.075 648.751 204.947C648.367 204.819 647.983 204.563 647.727 204.435C646.19 203.538 644.782 202.385 643.502 200.848C642.221 199.311 641.069 197.646 640.429 195.853C639.661 194.059 639.277 192.266 639.405 190.601C639.405 189.832 639.405 189.064 639.533 188.423C639.533 188.295 639.533 188.295 639.533 188.167C641.069 188.039 642.734 187.655 644.526 187.142C650.032 185.477 658.738 183.043 670.645 179.841C682.552 176.639 692.027 174.461 698.941 172.796C701.886 172.156 705.086 171.387 708.543 170.619C709.824 172.284 711.616 174.974 714.049 178.688C716.354 182.403 718.018 185.349 719.17 187.655C719.81 190.089 720.835 192.266 721.731 194.059C721.859 194.444 722.115 194.7 722.243 195.084C722.499 195.468 722.627 195.725 722.883 196.109C723.267 196.749 723.651 197.262 724.036 197.902C725.188 200.464 726.084 202.898 726.98 205.075C727.108 205.46 727.236 205.716 727.364 205.972C727.877 206.74 728.517 207.125 729.285 206.997C729.413 208.15 729.669 209.559 730.181 211.224C730.693 212.761 731.334 214.17 732.102 215.451C731.206 216.988 730.309 218.397 729.541 219.806C725.444 225.826 720.707 233.512 715.073 242.478ZM765.903 161.524C765.775 161.396 765.775 161.268 765.775 161.268C766.031 161.268 766.415 161.396 766.799 161.524C766.415 161.396 766.159 161.524 765.903 161.524Z" fill="black"/>
</g>
<defs>
<clipPath id="clip0_192_442">
<rect width="770" height="813" fill="white"/>
</clipPath>
</defs>
</svg>
