<svg width="103" height="143" viewBox="0 0 103 143" fill="none" xmlns="http://www.w3.org/2000/svg">
<g clip-path="url(#clip0_113_69)">
<path d="M51.5 0C23.1224 0 0 23.2845 0 51.861C0 79.7319 47.6463 138.296 49.6899 140.766L51.5 143L53.3101 140.766C55.3537 138.296 103 79.7319 103 51.861C103 23.2845 79.8776 0 51.5 0ZM51.5 135.474C42.6831 124.361 4.72959 75.0868 4.72959 51.861C4.72959 25.8717 25.6916 4.76275 51.5 4.76275C77.3084 4.76275 98.2704 25.8717 98.2704 51.861C98.2704 75.0868 60.3169 124.361 51.5 135.474Z" fill="black"/>
<path d="M51.5 27.8711C39.0629 27.8711 28.9615 38.0434 28.9615 50.5676C28.9615 63.0919 39.0629 73.2642 51.5 73.2642C63.9371 73.2642 74.0386 63.0919 74.0386 50.5676C74.0386 38.1022 63.9371 27.8711 51.5 27.8711ZM51.5 68.5602C41.6905 68.5602 33.691 60.5047 33.691 50.6264C33.691 40.7481 41.6905 32.6926 51.5 32.6926C61.3095 32.6926 69.309 40.7481 69.309 50.6264C69.309 60.5047 61.3095 68.5602 51.5 68.5602Z" fill="black"/>
</g>
<defs>
<clipPath id="clip0_113_69">
<rect width="103" height="143" fill="white"/>
</clipPath>
</defs>
</svg>
