<svg width="874" height="669" viewBox="0 0 874 669" fill="none" xmlns="http://www.w3.org/2000/svg">
<mask id="mask0_89_1623" style="mask-type:alpha" maskUnits="userSpaceOnUse" x="0" y="0" width="874" height="669">
<rect width="874" height="669" fill="#D9D9D9"/>
</mask>
<g mask="url(#mask0_89_1623)">
<path d="M434.331 242.83C419.618 259.12 407.073 277.427 397.16 297.053C404.672 299.768 411.642 304.035 417.45 309.542C428.214 292.942 438.9 276.341 449.664 259.741C450.439 258.5 451.291 257.026 450.749 255.63C450.439 254.854 449.742 254.388 449.045 253.845C444.321 250.432 439.597 247.097 434.874 243.683" fill="white"/>
<path d="M605.55 -1.75415C607.099 8.64055 614.223 17.1735 619.334 26.3271C630.408 45.9529 633.041 69.69 644.889 88.928C645.819 90.4794 646.826 91.9533 648.297 93.0393C653.176 96.7628 660.145 93.8926 665.643 91.1C689.572 79.2314 715.514 72.1724 740.992 64.26C779.634 52.3138 817.58 38.1956 855.448 24.155C849.098 20.897 844.916 14.5361 842.205 7.9424C839.495 1.34875 838.024 -5.71034 835.546 -12.3816C834.694 -14.7087 833.532 -17.1911 831.519 -18.5874C830.047 -19.6734 828.189 -20.0612 826.408 -20.4491C804.492 -25.181 782.035 -26.8876 759.655 -25.5689C743.47 -24.638 727.363 -22.1557 711.333 -19.5958C677.027 -14.2433 642.721 -8.89081 608.415 -3.53831" fill="#F5F5F5"/>
<path d="M431.311 246.865C421.244 261.294 411.332 275.8 401.497 290.383C407.615 293.797 413.733 297.132 419.773 300.545C430.459 287.203 440.294 273.085 449.045 258.346C442.927 254.7 437.197 250.279 432.163 245.236" fill="#F5F5F5"/>
<path d="M1117.66 577.32C1066.86 579.027 1015.98 580.966 965.644 588.258C915.928 595.472 867.683 609.668 818.432 619.442C815.179 620.063 811.772 620.761 808.442 620.14C805.112 619.52 801.937 617.425 801.008 614.167C798.22 604.16 817.038 586.164 824.085 580.811C836.243 571.658 851.188 567.158 865.825 562.814C908.416 550.17 951.085 537.526 994.142 526.743C1002.43 524.649 1011.8 522.787 1019.08 527.364C1025.27 531.242 1028.06 538.612 1030.23 545.516C1032.4 552.497 1034.41 559.944 1039.83 564.754C1045.25 569.563 1055.24 570.029 1058.73 563.59C1060.04 561.108 1060.2 558.238 1060.28 555.367C1060.59 544.74 1060.89 534.113 1061.28 523.485C1061.36 522.166 1061.44 520.615 1062.44 519.762C1063.99 518.521 1066.32 519.607 1068.25 519.296C1072.05 518.753 1072.98 513.866 1073.05 510.065C1073.44 488.965 1073.36 466.082 1060.66 449.326C1059.5 447.774 1058.26 445.602 1059.5 444.206C1060.04 443.508 1060.97 443.353 1061.82 443.12C1069.41 441.491 1077.16 440.25 1084.9 439.474C1088 439.164 1091.41 438.931 1093.96 440.715C1095.97 442.034 1097.14 444.284 1097.99 446.533C1106.27 467.4 1097.76 490.905 1098.22 513.401C1098.3 515.34 1098.38 517.435 1099.46 519.064C1102.09 523.33 1108.37 522.632 1113.32 521.623C1118.2 520.537 1124.7 520.46 1126.72 525.037C1127.49 526.743 1127.34 528.683 1127.18 530.544C1126.02 544.818 1124.47 559.091 1122.61 573.287C1122.46 574.295 1122.3 575.304 1121.68 576.079C1120.76 577.165 1119.13 577.243 1117.66 577.32Z" fill="#F5F5F5"/>
<path d="M880.306 157.348C924.137 144.394 971.917 134.697 1012.88 115.382C1014.12 114.761 1015.67 114.296 1016.91 114.916C1018.15 115.459 1018.77 116.855 1019.23 118.097C1037.66 163.942 1049.28 212.502 1059.27 261.14C1059.58 262.536 1059.81 264.01 1059.5 265.407C1058.96 267.423 1057.18 268.742 1055.47 269.906C1043.63 277.896 1029.76 282.24 1016.06 286.429C983.765 296.436 951.395 306.21 918.948 315.751C917.554 316.139 916.006 316.527 914.689 315.984C913.45 315.441 912.753 314.122 912.133 312.958C889.211 267.889 874.111 218.786 867.683 168.596C867.528 167.2 867.373 165.726 867.838 164.485C868.613 162.546 870.703 161.537 872.639 160.684C877.208 158.667 881.7 156.65 886.269 154.633" fill="#F5F5F5"/>
<path d="M165.152 520.543C174.444 517.13 183.737 513.794 193.03 510.381C193.572 510.148 194.191 509.993 194.733 510.148C195.353 510.381 195.663 511.002 195.973 511.545C201.393 522.87 206.814 534.273 212.235 545.599C201.781 551.184 191.094 556.304 180.175 560.958C179.478 561.269 178.549 561.579 177.852 561.191C177.387 560.958 177.077 560.493 176.845 560.027C169.875 548.469 162.983 536.988 156.014 525.43C160.428 523.258 164.764 521.086 169.178 518.914" fill="#F5F5F5"/>
<path d="M832.293 574.995C861.643 565.22 891.225 555.989 920.962 547.379C935.675 543.112 950.466 539.001 965.257 535.045C980.28 531.011 995.458 526.512 1010.71 523.331C1013.58 522.711 1015.9 522.866 1016.75 526.124C1017.3 528.218 1017.45 530.468 1017.76 532.562C1018.38 537.139 1019 541.716 1019.54 546.293C1020.78 555.446 1021.94 564.6 1023.18 573.753C1023.57 576.701 1028.22 576.701 1027.83 573.753C1026.67 565.143 1025.5 556.455 1024.42 547.844C1023.88 543.5 1023.26 539.234 1022.72 534.89C1022.25 531.321 1022.17 527.365 1021.01 523.952C1018.77 517.358 1012.96 518.056 1007.31 519.453C998.866 521.547 990.347 523.719 981.906 525.891C949.846 534.191 917.941 543.19 886.269 552.886C867.838 558.549 849.407 564.445 831.054 570.573C828.189 571.426 829.428 575.925 832.293 574.995Z" fill="#E5E5E5"/>
<path d="M602.608 1.19562C617.321 32.9227 630.873 65.2704 643.109 98.0836C644.115 100.876 648.607 99.635 647.6 96.8424C635.21 63.6414 621.58 30.9834 606.635 -1.13155C605.318 -3.84659 601.369 -1.51941 602.608 1.19562Z" fill="#E5E5E5"/>
<path d="M621.813 2.19939C625.297 11.1202 628.859 20.041 632.344 28.9619C635.21 36.2537 637.842 43.7782 641.637 50.6821C644.657 56.1122 648.684 61.3871 654.182 64.3349C660.997 67.9808 668.431 67.0499 675.633 65.033C711.333 55.1813 746.723 42.6146 780.719 27.9534C795.355 21.6701 810.3 13.4474 818.044 -1.2138C819.438 -3.85126 815.411 -6.17843 814.018 -3.54097C807.435 8.94819 795.122 16.3176 782.654 22.0579C767.631 28.9619 752.066 34.7022 736.5 40.365C720.393 46.2605 704.208 51.613 687.791 56.6552C679.892 59.06 670.599 63.1713 662.236 62.1629C655.421 61.3096 650.465 56.3449 646.98 50.7597C642.799 44.0885 640.243 36.4864 637.3 29.1946C633.583 19.8083 629.866 10.4221 626.227 1.0358C625.22 -1.83437 620.728 -0.593216 621.813 2.19939Z" fill="#E5E5E5"/>
<path d="M639.004 32.843C658.751 27.0251 678.343 20.8969 697.781 14.3032C711.72 9.5713 730.847 5.53754 738.127 -8.9685C739.443 -11.606 735.494 -14.0107 734.1 -11.2957C730.692 -4.4693 724.265 -0.513109 717.45 2.35707C709.242 5.84783 700.646 8.48529 692.205 11.2779C674.162 17.3285 656.041 23.0689 637.765 28.4214C634.9 29.1195 636.139 33.6188 639.004 32.843Z" fill="#E5E5E5"/>
<path d="M723.491 0.184602C731.932 21.1292 735.881 44.3233 749.123 63.0958C750.827 65.5006 754.854 63.1734 753.15 60.7687C740.14 42.3064 736.268 19.5777 727.982 -0.978984C726.898 -3.77159 722.406 -2.608 723.491 0.184602Z" fill="#E5E5E5"/>
<path d="M656.118 63.2528C654.182 69.6913 652.246 76.285 649.381 82.4132C647.058 87.533 643.263 92.1097 642.334 97.7725C641.869 100.72 646.361 101.961 646.826 99.0137C647.832 93.0406 652.169 87.7657 654.492 82.258C656.893 76.5177 658.751 70.5446 660.532 64.494C661.462 61.6238 656.97 60.3826 656.118 63.2528Z" fill="#E5E5E5"/>
<path d="M616.159 20.6632C636.061 13.9144 655.963 7.16562 675.865 0.494398C678.653 -0.436471 677.492 -4.93567 674.626 -4.0048C654.724 2.744 634.822 9.4928 614.92 16.164C612.055 17.1725 613.294 21.6717 616.159 20.6632Z" fill="#E5E5E5"/>
<path d="M810.146 509.367C837.404 498.43 864.818 487.725 892.231 477.175C895.019 476.089 893.78 471.59 890.992 472.676C863.579 483.148 836.165 493.93 808.906 504.868C806.196 506.032 807.358 510.531 810.146 509.367Z" fill="#E5E5E5"/>
<path d="M545.535 550.563C554.285 542.263 562.184 533.342 563.423 520.853C564.507 509.993 560.48 498.978 552.659 491.298C550.491 489.204 547.238 492.462 549.407 494.556C556.376 501.383 559.784 511.079 558.777 520.776C557.615 531.946 549.949 539.858 542.282 547.228C540.036 549.322 543.366 552.58 545.535 550.563Z" fill="#E5E5E5"/>
<path d="M570.16 419.234C584.254 422.725 597.961 428.077 608.803 438.006C618.25 446.617 624.291 457.477 630.176 468.725C631.57 471.363 635.597 469.035 634.203 466.398C627.93 454.452 621.348 442.971 611.126 433.895C599.897 423.966 585.803 418.381 571.399 414.812C568.534 414.036 567.295 418.536 570.16 419.234Z" fill="#E5E5E5"/>
<path d="M562.416 512.319C581.079 499.83 599.742 487.418 619.489 476.713C628.937 471.593 638.927 467.404 648.452 462.362C657.202 457.785 664.327 451.347 671.451 444.52C678.808 437.539 686.32 430.402 695.922 426.834C705.834 423.11 716.521 422.567 726.511 419.309C736.733 415.974 745.716 409.923 755.318 405.114C765.076 400.149 775.375 396.348 785.675 392.78C807.745 385.178 830.435 378.817 850.646 366.793C853.202 365.241 850.879 361.208 848.323 362.759C829.583 373.852 808.752 380.058 788.308 386.962C778.782 390.142 769.412 393.555 760.274 397.667C750.285 402.088 741.147 408.217 731.235 412.638C720.858 417.215 709.474 417.913 698.633 421.094C689.727 423.731 682.215 428.541 675.246 434.669C667.889 441.185 661.307 448.709 653.098 454.217C643.96 460.423 633.196 464.301 623.361 469.421C601.368 480.824 580.692 494.555 560.093 508.363C557.615 509.992 559.938 514.025 562.416 512.319Z" fill="#E5E5E5"/>
<path d="M561.1 529.774C614.301 497.194 672.303 473.689 727.75 445.298C743.315 437.308 758.571 428.93 773.517 419.932C776.072 418.38 773.749 414.346 771.194 415.898C717.76 448.168 659.758 471.595 604.466 500.219C588.978 508.209 573.723 516.664 558.777 525.818C556.221 527.369 558.545 531.403 561.1 529.774Z" fill="#E5E5E5"/>
<path d="M698.478 456.541C703.898 480.666 713.036 503.627 722.639 526.356C732.783 550.248 743.238 574.063 753.46 597.878C754.621 600.593 758.648 598.266 757.487 595.551C747.419 572.124 737.197 548.774 727.208 525.348C717.528 502.619 708.313 479.502 702.892 455.3C702.272 452.43 697.781 453.671 698.478 456.541Z" fill="#E5E5E5"/>
<path d="M611.668 668.932C660.068 645.738 708.777 623.086 756.635 598.729C759.268 597.41 756.944 593.376 754.312 594.695C706.454 619.053 657.744 641.704 609.345 664.898C606.634 666.217 609.035 670.25 611.668 668.932Z" fill="#E5E5E5"/>
<path d="M611.281 550.097C645.122 535.126 679.428 521.395 714.198 508.751C716.986 507.743 715.747 503.243 712.959 504.252C677.801 517.051 643.108 531.014 608.958 546.063C606.17 547.304 608.493 551.261 611.281 550.097Z" fill="#E5E5E5"/>
<path d="M630.176 468.724C636.062 477.024 640.785 486.255 645.354 495.331C647.6 499.675 649.768 504.097 651.782 508.518C653.098 511.466 654.647 514.647 654.879 517.905C655.189 521.395 653.485 524.188 652.401 527.291C650.156 533.807 654.26 538.461 657.512 543.736C661.462 550.252 665.256 556.846 668.896 563.517C676.33 577.17 682.99 591.133 688.953 605.484C690.114 608.199 694.606 607.035 693.444 604.243C684.384 582.522 673.775 561.5 661.539 541.409C660.068 539.004 658.364 536.677 657.125 534.195C655.421 530.937 657.048 528.222 658.287 525.119C660.3 520.077 659.603 515.267 657.59 510.303C654.725 503.166 651.162 496.339 647.6 489.591C643.496 481.678 639.314 473.611 634.126 466.319C632.499 463.914 628.472 466.241 630.176 468.724Z" fill="#E5E5E5"/>
<path d="M804.493 493.077C795.664 500.601 786.372 507.583 776.769 514.099C774.291 515.728 776.614 519.839 779.092 518.132C789.005 511.384 798.607 504.169 807.745 496.412C810.068 494.395 806.738 491.137 804.493 493.077Z" fill="#E5E5E5"/>
<path d="M763.837 494.011C775.065 522.092 786.759 550.018 798.839 577.789C800.001 580.504 804.028 578.177 802.866 575.462C790.863 548.079 779.325 520.541 768.328 492.848C767.244 489.977 762.753 491.218 763.837 494.011Z" fill="#E5E5E5"/>
<path d="M111.951 541.872C152.374 514.334 192.875 486.718 233.376 459.102C253.433 445.449 273.412 431.797 293.469 418.144C297.418 415.429 302.452 410.697 307.563 410.775C311.28 410.775 313.138 414.265 314.92 416.903C316.623 419.385 318.249 421.945 319.953 424.505C326.613 434.667 333.04 444.906 339.313 455.301C342.488 460.498 347.754 466.937 344.734 473.22C342.643 477.564 342.953 479.969 346.05 483.77C354.956 494.398 364.326 504.715 373.464 515.187C375.4 517.437 378.73 514.179 376.716 511.929C368.275 502.232 359.757 492.536 351.316 482.839C350.387 481.753 348.838 480.435 348.219 479.193C347.212 477.021 348.373 476.323 349.148 474.694C350.077 472.832 350.464 470.893 350.309 468.799C350 463.679 346.902 459.18 344.347 454.913C337.997 444.286 331.414 433.814 324.677 423.419C319.798 415.894 314.455 403.25 303.381 406.896C298.812 408.37 294.94 411.55 291.068 414.188C285.493 417.989 279.994 421.712 274.419 425.513C263.732 432.805 253.123 440.019 242.436 447.311C221.528 461.507 200.696 475.78 179.788 489.976C156.323 505.956 132.937 521.936 109.472 537.916C107.149 539.545 109.472 543.578 111.951 541.872Z" fill="#E5E5E5"/>
<path d="M288.203 520.616C308.957 509.058 329.788 496.879 346.205 479.27C348.219 477.098 344.966 473.762 342.953 476.012C326.845 493.311 306.401 505.257 285.957 516.582C283.247 518.056 285.57 522.09 288.203 520.616Z" fill="#E5E5E5"/>
<path d="M329.865 435.215C351.161 420.088 372.147 404.418 392.746 388.361C395.07 386.499 391.817 383.241 389.494 385.103C369.205 400.928 348.528 416.364 327.542 431.258C325.142 432.887 327.387 436.921 329.865 435.215Z" fill="#E5E5E5"/>
<path d="M207.356 369.976C221.295 394.256 235.234 418.614 251.497 441.42C253.2 443.825 257.227 441.498 255.523 439.093C239.261 416.287 225.322 391.929 211.383 367.649C209.912 365.011 205.885 367.416 207.356 369.976Z" fill="#E5E5E5"/>
<path d="M215.41 467.632C215.952 469.881 216.959 470.812 218.507 472.364C221.14 474.924 223.386 478.026 225.787 480.897C230.588 486.715 235.234 492.61 239.803 498.583C248.786 510.529 257.305 522.863 265.281 535.508C266.907 538.067 270.934 535.663 269.308 533.18C261.564 520.924 253.355 508.978 244.682 497.42C240.5 491.834 236.241 486.327 231.827 480.974C229.736 478.337 227.568 475.777 225.399 473.139C223.851 471.278 220.443 468.795 219.901 466.391C219.204 463.443 214.79 464.684 215.41 467.632Z" fill="#E5E5E5"/>
<path d="M267.991 599.043C286.344 622.237 304.775 645.354 323.128 668.548C324.987 670.875 328.239 667.617 326.381 665.29C308.027 642.096 289.597 618.979 271.244 595.785C269.385 593.458 266.133 596.716 267.991 599.043Z" fill="#E5E5E5"/>
<path d="M235.234 615.41C241.197 627.976 251.497 637.44 260.944 647.292C272.173 659.005 282.395 671.65 292.462 684.372C294.321 686.699 297.573 683.363 295.715 681.114C285.88 668.857 276.045 656.523 265.203 645.12C255.678 635.113 245.147 625.804 239.184 613.083C237.945 610.29 233.995 612.695 235.234 615.41Z" fill="#E5E5E5"/>
<path d="M156.091 598.266C143.314 605.946 134.95 618.9 122.482 626.89C107.614 636.432 89.1059 633.174 72.7661 637.905C69.9009 638.759 71.1399 643.258 74.0052 642.405C90.4998 637.595 108.698 640.776 123.876 631.545C136.886 623.632 145.404 610.135 158.492 602.3C160.97 600.826 158.647 596.792 156.091 598.266Z" fill="#E5E5E5"/>
<path d="M-15.0503 573.446C-3.97647 573.679 6.78761 571.119 17.5517 568.87C29.2451 566.465 40.5513 565.999 52.477 565.767C63.0862 565.612 73.5405 564.603 83.2205 559.871C93.8297 554.751 103.587 547.537 113.499 541.254C116.055 539.625 113.654 535.591 111.176 537.22C101.806 543.193 92.5906 549.709 82.7558 554.907C72.3789 560.337 61.1502 561.035 49.6891 561.112C39.0799 561.19 28.8579 561.81 18.4035 563.905C7.32969 566.155 -3.66671 568.947 -15.0503 568.714C-18.0705 568.714 -18.0705 573.369 -15.0503 573.446Z" fill="#E5E5E5"/>
<path d="M57.3557 562.119C58.9045 584.925 65.6417 607.033 69.9009 629.374C74.3924 652.723 77.2577 676.305 78.729 700.042C78.8839 702.99 83.5303 703.068 83.3754 700.042C81.9815 676.926 79.1937 653.887 74.9345 631.08C70.6753 608.119 63.5509 585.468 62.0021 562.041C61.8472 559.093 57.2008 559.093 57.3557 562.119Z" fill="#E5E5E5"/>
<path d="M-8.08073 624.877C17.1646 620.688 42.1001 614.947 66.6484 607.733C69.5137 606.88 68.2747 602.381 65.4094 603.234C40.8611 610.526 15.9255 616.189 -9.31977 620.378C-12.2625 620.921 -11.0234 625.42 -8.08073 624.877Z" fill="#E5E5E5"/>
<path d="M-24.4979 398.055C-16.2119 398.442 -7.69354 398.83 0.360167 396.426C8.33644 394.098 14.5316 388.901 20.417 383.316C27.0768 376.955 33.814 370.594 40.6287 364.388C44.0361 361.285 47.5208 358.182 51.0056 355.079C53.4837 352.907 58.5947 350.037 59.0593 346.546C59.2142 345.538 58.9819 344.452 57.9752 343.909C56.7361 343.211 55.8843 343.288 54.6453 343.909C54.0258 344.219 53.4063 345.228 53.4837 345.926C53.4837 346.081 53.4837 346.236 53.5611 346.314C53.9483 349.262 58.5947 349.262 58.2075 346.314C58.2075 346.159 58.2075 346.003 58.1301 345.926C57.7429 346.624 57.3557 347.245 56.9685 347.943C57.1234 347.865 57.3557 347.788 57.5105 347.71C56.7361 347.71 55.9617 347.71 55.1874 347.71C55.3422 347.788 55.4971 347.865 55.652 347.943C55.2648 347.089 54.955 346.159 54.5678 345.305C54.413 346.624 52.0123 348.02 51.0056 348.874C49.3794 350.348 47.6757 351.821 46.0495 353.218C42.9519 356.01 39.8543 358.803 36.7568 361.596C30.5616 367.181 24.5213 372.921 18.481 378.661C12.9054 384.014 7.25227 389.444 -0.259363 391.771C-8.08076 394.176 -16.4442 393.788 -24.4979 393.4C-27.4406 393.245 -27.4406 397.899 -24.4979 398.055Z" fill="#E5E5E5"/>
<path d="M20.3396 378.971C41.016 411.008 64.9448 440.796 91.7389 467.869C93.8298 469.963 97.1597 466.705 94.9913 464.611C68.4296 437.848 44.7331 408.371 24.289 376.644C22.7403 374.084 18.7134 376.411 20.3396 378.971Z" fill="#E5E5E5"/>
<path d="M29.4774 442.425C33.8915 450.337 37.1439 458.715 40.1641 467.248C41.558 471.204 42.9519 475.16 44.4233 479.039C45.5074 481.832 46.669 487.494 49.0696 489.356C51.1605 490.985 53.8709 489.046 52.7093 486.564C52.5544 486.176 52.3221 485.865 52.0898 485.478C50.8507 482.763 46.9013 485.09 48.0629 487.805C48.2178 488.193 48.4501 488.503 48.6824 488.891C49.9215 487.96 51.0831 487.029 52.3221 486.098C50.9282 485.012 50.2312 481.444 49.6117 479.737C48.8373 477.798 48.1404 475.859 47.366 473.842C45.8946 469.886 44.5781 466.007 43.1068 462.051C40.319 454.526 37.2988 447.079 33.3494 440.098C32.0329 437.46 28.0061 439.787 29.4774 442.425Z" fill="#E5E5E5"/>
<path d="M87.7894 167.744C97.5468 189.853 111.021 210.72 127.903 228.096C136.034 236.474 145.172 242.524 155.239 248.42C160.04 251.212 164.687 254.315 168.249 258.737C171.192 262.305 173.438 266.339 176.458 269.907C179.4 273.398 183.117 276.423 187.764 277.044C190.939 277.432 194.501 276.268 197.444 277.742C200.464 279.294 202.555 282.396 204.413 285.112C206.117 287.594 210.144 285.267 208.44 282.784C205.885 278.983 202.942 274.95 198.528 273.165C193.727 271.304 188.616 273.786 184.124 270.838C180.175 268.278 177.619 263.857 174.986 260.056C172.198 256.022 169.178 252.454 165.306 249.428C161.125 246.17 156.401 243.688 151.832 241.05C146.566 237.947 141.61 234.457 137.041 230.345C127.826 222.123 119.849 212.349 112.802 202.264C104.671 190.706 97.7016 178.372 91.9711 165.417C90.5772 162.702 86.5504 165.029 87.7894 167.744Z" fill="#E5E5E5"/>
<path d="M216.107 277.893C232.059 293.097 245.456 310.706 255.833 330.099C257.227 332.736 261.254 330.409 259.86 327.772C249.251 308.068 235.544 290.149 219.359 274.635C217.191 272.54 213.938 275.876 216.107 277.893Z" fill="#E5E5E5"/>
<path d="M285.338 288.131C315.462 262.532 335.596 227.779 362.545 199.233C364.636 197.061 361.306 193.725 359.292 195.975C332.343 224.521 312.209 259.274 282.085 284.95C279.839 286.812 283.092 290.07 285.338 288.131Z" fill="#E5E5E5"/>
<path d="M322.354 247.483C341.714 259.429 361.228 271.143 380.976 282.546C390.655 288.131 400.335 293.639 410.093 299.146C414.972 301.939 419.928 304.654 424.884 307.369C427.517 308.843 430.072 310.239 432.705 311.636C435.028 312.877 438.281 314.04 440.217 315.669C440.759 314.351 441.301 313.032 441.843 311.713C441.766 311.713 441.611 311.713 441.533 311.713C440.604 311.636 439.442 312.489 439.288 313.42C439.288 313.497 439.288 313.575 439.21 313.652C438.668 316.6 443.16 317.841 443.702 314.894C443.702 314.816 443.702 314.738 443.779 314.661C443.005 315.204 442.308 315.824 441.533 316.367C441.611 316.367 441.766 316.367 441.843 316.367C443.779 316.523 445.018 313.652 443.469 312.411C439.675 309.231 434.099 307.136 429.84 304.809C424.651 301.939 419.54 299.069 414.352 296.199C404.362 290.613 394.45 284.951 384.615 279.288C364.481 267.652 344.579 255.706 324.754 243.527C322.122 241.898 319.798 245.932 322.354 247.483Z" fill="#E5E5E5"/>
<path d="M404.207 225.378C398.787 234.454 393.676 243.762 388.952 253.226C386.706 257.726 384.538 262.302 382.524 266.957C381.595 269.051 380.821 271.611 379.427 273.473C377.723 275.722 375.013 275.877 372.457 276.498C368.895 277.351 366.494 279.135 364.326 282.161C361.074 286.66 357.976 291.237 354.801 295.814C348.296 305.122 341.791 314.431 335.364 323.74C333.66 326.222 337.687 328.549 339.391 326.067C345.895 316.758 352.4 307.449 358.828 298.141C361.848 293.797 364.791 289.297 368.043 284.953C371.296 280.609 375.322 281.54 379.736 279.291C383.376 277.351 384.693 273.55 386.319 269.982C388.487 265.172 390.733 260.363 393.056 255.631C397.78 246.167 402.891 236.859 408.312 227.783C409.783 225.145 405.756 222.818 404.207 225.378Z" fill="#E5E5E5"/>
<path d="M503.02 169.216C489.313 185.661 476.381 202.727 464.455 220.491C463.836 221.422 463.216 222.741 462.442 223.517C462.055 224.68 461.203 225.146 459.964 224.836C458.957 225.223 458.028 225.068 457.253 224.37C455.085 223.439 452.917 221.267 450.981 219.948C446.489 216.69 442.075 213.277 437.739 209.786C429.375 203.038 421.244 195.823 413.5 188.376C411.332 186.282 408.079 189.618 410.248 191.635C418.921 199.935 427.904 207.847 437.274 215.294C441.92 219.018 446.722 222.586 451.523 226.077C454.853 228.481 458.957 231.739 463.139 229.335C464.997 228.326 466.082 226.387 467.166 224.68C468.792 222.276 470.418 219.871 472.122 217.389C475.607 212.346 479.091 207.382 482.731 202.495C490.243 192.255 498.142 182.248 506.273 172.474C508.209 170.225 504.956 166.889 503.02 169.216Z" fill="#E5E5E5"/>
<path d="M482.421 194.346C471.967 194.811 461.823 190.7 451.988 187.597C442.153 184.417 432.318 181.159 422.483 177.668C419.618 176.659 418.456 181.159 421.244 182.167C431.466 185.735 441.766 189.226 452.143 192.484C461.9 195.587 471.967 199.466 482.344 198.923C485.442 198.845 485.442 194.191 482.421 194.346Z" fill="#E5E5E5"/>
<path d="M446.954 187.752C441.92 194.19 436.887 200.629 431.776 207.145C429.917 209.472 433.247 212.808 435.028 210.403C440.062 203.964 445.095 197.526 450.206 191.01C452.065 188.683 448.735 185.425 446.954 187.752Z" fill="#E5E5E5"/>
<path d="M537.636 52.8566C515.411 58.4418 498.297 74.4217 483.66 91.2549C465.54 112.044 448.425 133.687 430.924 154.942C429.066 157.269 432.318 160.527 434.177 158.2C451.136 137.566 467.863 116.621 485.287 96.3747C499.845 79.4639 516.572 62.8634 538.797 57.2782C541.74 56.6576 540.579 52.1584 537.636 52.8566Z" fill="#E5E5E5"/>
<path d="M668.509 190.003C693.986 197.45 720.161 203.811 744.941 213.43C756.015 217.697 766.47 218.395 777.389 213.12C787.998 208 795.897 198.924 803.254 189.926C812.933 178.135 822.613 166.344 832.293 154.553C834.152 152.226 830.899 148.968 829.041 151.295C820.91 161.224 812.779 171.153 804.647 181.083C797.445 189.848 790.399 199.39 780.873 205.828C775.917 209.164 770.264 211.724 764.379 212.422C758.029 213.198 752.143 211.258 746.335 209.009C735.107 204.665 723.646 201.251 712.107 197.838C698.013 193.727 683.997 189.616 669.903 185.504C666.882 184.728 665.643 189.15 668.509 190.003Z" fill="#E5E5E5"/>
<path d="M777.931 229.72C788.695 238.563 799.381 247.406 810.146 256.249C815.257 260.438 820.29 264.705 825.401 268.816C829.196 271.919 833.222 274.556 838.256 274.634C840.889 274.634 843.522 274.013 846.155 273.781C850.182 273.393 852.66 274.556 855.138 277.892C858.545 282.546 861.565 287.511 864.353 292.631C870.161 303.491 874.188 315.127 876.744 327.15C877.363 330.098 881.855 328.857 881.235 325.909C878.757 313.886 874.653 302.327 869 291.467C866.134 285.96 862.882 280.607 859.165 275.565C856.299 271.609 853.124 269.049 848.013 269.049C845.38 269.049 842.748 269.747 840.115 269.98C836.707 270.29 833.919 269.281 831.132 267.42C825.324 263.464 820.058 258.421 814.637 254C803.486 244.846 792.412 235.615 781.261 226.461C778.937 224.522 775.607 227.858 777.931 229.72Z" fill="#E5E5E5"/>
<path d="M737.275 210.016C731.08 219.325 725.117 228.866 719.464 238.563C714.12 247.794 708.312 257.18 704.286 267.11C700.181 277.039 702.427 287.821 703.434 298.216C704.595 309.774 705.679 321.41 706.841 332.969C707.151 335.916 711.797 335.916 711.487 332.969C710.403 321.876 709.319 310.783 708.235 299.69C707.151 288.83 704.673 277.504 709.242 267.187C717.837 248.027 729.608 229.797 741.224 212.343C742.928 209.861 738.901 207.534 737.275 210.016Z" fill="#E5E5E5"/>
<path d="M706.841 268.665C713.578 269.596 720.161 271.225 726.511 273.63C729.299 274.639 730.538 270.139 727.75 269.131C721.322 266.804 714.817 265.175 708.08 264.166C705.138 263.778 703.898 268.278 706.841 268.665Z" fill="#E5E5E5"/>
<path d="M643.496 97.3826C645.199 107.234 647.135 117.086 649.381 126.86C650.155 130.118 650.388 134.54 652.711 137.177C655.189 140.047 660.145 140.668 663.63 141.521C680.125 145.71 699.484 144.547 713.888 154.786C716.366 156.493 718.689 152.459 716.211 150.752C703.279 141.599 686.939 141.599 671.993 138.651C667.734 137.798 663.398 136.789 659.216 135.471C656.273 134.54 655.576 132.988 654.879 130.041C654.337 127.869 653.873 125.619 653.408 123.447C651.394 114.371 649.613 105.295 648.065 96.1415C647.445 93.2713 642.954 94.5125 643.496 97.3826Z" fill="#E5E5E5"/>
<path d="M721.477 149.665C729.376 157.189 737.585 164.326 746.18 171.075C750.052 174.1 754.002 177.125 758.029 179.996C762.675 183.331 767.786 186.434 771.271 191.166C773.052 193.493 777.079 191.244 775.298 188.839C768.948 180.383 758.803 175.108 750.595 168.67C741.612 161.688 733.016 154.241 724.807 146.329C722.561 144.312 719.232 147.57 721.477 149.665Z" fill="#E5E5E5"/>
<path d="M698.245 175.577C726.898 186.67 755.86 196.677 785.21 205.753C788.075 206.606 789.314 202.107 786.449 201.254C757.099 192.178 728.137 182.171 699.484 171.078C696.697 170.07 695.458 174.569 698.245 175.577Z" fill="#E5E5E5"/>
<path d="M101.419 399.763C109.705 413.959 117.991 428.232 126.122 442.505C127.593 445.143 131.62 442.738 130.149 440.178C122.018 425.905 113.809 411.631 105.446 397.436C103.897 394.798 99.87 397.125 101.419 399.763Z" fill="#E5E5E5"/>
<path d="M136.963 372.224C145.172 384.636 153.071 397.28 160.66 410.157C162.209 412.717 166.158 410.39 164.687 407.83C157.175 394.953 149.276 382.309 140.99 369.897C139.364 367.415 135.337 369.742 136.963 372.224Z" fill="#E5E5E5"/>
<path d="M-6.45447 170.378C-1.96298 170.688 4.15475 166.111 7.87185 169.524C11.2017 172.627 13.6024 177.049 16.7774 180.462C23.6695 187.831 31.6458 194.115 38.0733 201.872C40.0093 204.199 43.2617 200.864 41.3257 198.614C34.0464 189.771 24.8311 182.944 17.3969 174.334C14.5317 170.998 12.0536 165.646 7.63954 164.017C2.6834 162.233 -1.6532 166.111 -6.53189 165.723C-9.39715 165.491 -9.39717 170.145 -6.45447 170.378Z" fill="#E5E5E5"/>
<path d="M-9.00995 210.947C-5.52517 212.731 -1.96295 213.507 1.90903 213.119C3.14806 212.964 4.23222 212.188 4.23222 210.792C4.15478 208.465 3.61269 204.043 6.78771 203.19C8.02674 202.802 9.80786 203.5 11.2018 203.422C13.2926 203.267 15.0737 202.336 16.3902 200.707C17.939 198.691 18.636 195.976 19.875 193.803C21.5787 190.468 23.747 187.52 26.3025 184.805C28.3159 182.633 25.0634 179.297 23.05 181.547C20.572 184.262 18.3262 187.132 16.5451 190.313C15.6158 191.942 14.9189 193.571 14.1445 195.277C12.9829 197.915 11.9762 198.846 9.1109 198.691C6.47795 198.535 3.76757 198.303 1.83159 200.32C-0.64648 202.802 -0.336731 207.534 -0.259292 210.792C0.515104 210.016 1.2895 209.24 2.0639 208.465C-1.03369 208.775 -3.74405 208.387 -6.53188 206.913C-9.24226 205.517 -11.6429 209.551 -9.00995 210.947Z" fill="#E5E5E5"/>
<path d="M119.617 256.873C125.89 259.511 130.846 265.561 135.492 270.293C140.139 275.025 144.708 279.912 149.199 284.799C158.492 295.039 167.475 305.589 176.613 315.983C178.549 318.233 181.879 314.975 179.865 312.725C170.108 301.555 160.505 290.307 150.438 279.369C145.637 274.094 140.681 268.897 135.647 263.855C131.156 259.433 126.742 254.856 120.856 252.374C118.068 251.211 116.907 255.71 119.617 256.873Z" fill="#E5E5E5"/>
<path d="M274.651 236.238C286.577 243.375 295.947 253.537 305.162 263.699C307.176 265.948 310.428 262.613 308.415 260.441C298.89 249.968 289.21 239.574 276.897 232.282C274.419 230.73 272.096 234.687 274.651 236.238Z" fill="#E5E5E5"/>
<path d="M-5.98984 667.773C20.8042 662.963 47.7532 659.162 74.857 656.292C77.7997 655.982 77.7997 651.328 74.857 651.638C47.366 654.508 20.0298 658.387 -7.22887 663.274C-10.0941 663.817 -8.8551 668.316 -5.98984 667.773Z" fill="#E5E5E5"/>
<path d="M141.223 570.341C161.202 557.775 180.872 544.665 199.999 530.857C198.915 530.547 197.908 530.314 196.824 530.004C198.76 532.951 200.541 536.287 202.71 539.08C203.716 540.398 204.568 541.407 206.349 541.64C208.518 541.872 210.376 540.476 212.157 539.39C214.868 537.761 217.656 536.132 220.366 534.425C230.975 527.987 241.662 521.626 252.271 515.187C254.827 513.636 252.503 509.602 249.948 511.154C241.352 516.351 232.756 521.548 224.083 526.746C219.979 529.228 215.874 531.71 211.77 534.193C210.996 534.658 208.75 536.442 207.898 536.52C206.349 536.753 206.349 536.132 205.498 534.813C203.949 532.408 202.4 530.081 200.851 527.677C200.232 526.668 198.76 526.048 197.676 526.823C178.471 540.631 158.879 553.818 138.9 566.308C136.344 567.859 138.667 571.893 141.223 570.341Z" fill="#E5E5E5"/>
<path d="M-11.2558 256.946C48.1404 203.809 109.24 152.611 171.889 103.43C189.468 89.6224 207.201 75.9696 225.09 62.472C229.814 58.9037 225.167 50.8362 220.366 54.4045C156.478 102.655 94.1394 152.999 33.5043 205.283C16.2353 220.177 -0.878876 235.148 -17.8381 250.352C-22.2522 254.386 -15.6698 260.902 -11.2558 256.946Z" fill="#E5E5E5"/>
<path d="M173.592 -6.56759C199.767 25.3922 226.019 57.3521 252.194 89.3119C276.819 119.332 301.445 149.275 331.647 173.866C360.841 197.603 391.43 219.866 421.864 241.897C452.065 263.772 482.886 284.794 515.101 303.567C550.8 324.434 588.126 342.508 627.233 355.851C632.886 357.79 635.365 348.792 629.711 346.852C560.016 323.038 496.903 284.019 437.197 241.431C406.995 219.944 377.258 197.681 347.986 174.952C332.808 163.161 318.482 150.594 305.24 136.631C291.997 122.823 279.685 108.084 267.527 93.3456C238.332 57.8951 209.292 22.2893 180.097 -13.2388C176.38 -17.8156 169.875 -11.2219 173.592 -6.56759Z" fill="#E5E5E5"/>
<path d="M-19.929 107.075C-8.93255 155.48 -16.7539 204.351 -26.1241 252.213C-27.2857 258.031 -18.3027 260.591 -17.1411 254.695C-7.38375 205.049 0.515081 154.704 -10.946 104.593C-12.2624 98.7746 -21.2454 101.257 -19.929 107.075Z" fill="#E5E5E5"/>
<path d="M-15.1277 117.393C-4.05385 125.694 3.22547 138.028 11.8987 148.578C21.4238 160.291 31.8781 171.074 42.4873 181.779C63.9381 203.499 86.1632 224.366 107.614 246.008C111.873 250.275 118.378 243.681 114.196 239.415C92.3584 217.462 69.8235 196.207 48.063 174.176C37.5312 163.471 27.0768 152.611 17.6292 140.898C8.72367 129.883 1.13459 117.936 -10.3265 109.403C-15.2052 105.758 -19.8515 113.825 -15.1277 117.393Z" fill="#E5E5E5"/>
<path d="M-5.91239 271.216C33.4269 263.226 72.7662 255.236 112.028 247.247C117.913 246.083 115.435 237.085 109.55 238.248C70.2107 246.238 30.8714 254.228 -8.39047 262.218C-14.1984 263.459 -11.7204 272.38 -5.91239 271.216Z" fill="#E5E5E5"/>
<path d="M-26.0467 269.899C-33.4034 320.942 -32.6291 372.993 -29.2217 424.346C-25.3497 481.982 -20.7034 539.541 -16.3667 597.177C-13.8887 630.145 -11.4881 663.113 -9.00998 696.004C-8.54535 701.977 0.747398 701.977 0.282761 696.004C-4.05385 638.058 -8.31304 580.189 -12.6497 522.242C-16.6765 467.941 -22.0973 413.641 -22.2522 359.185C-22.3296 330.25 -21.168 301.083 -17.0637 272.381C-16.6765 269.899 -17.6832 267.417 -20.3162 266.641C-22.4845 266.02 -25.6595 267.417 -26.0467 269.899Z" fill="#E5E5E5"/>
<path d="M-25.1173 380.902C1.13466 353.907 29.3227 328.773 58.7497 305.346C72.7662 294.176 87.2474 283.781 101.419 272.921C114.816 262.604 127.671 251.666 140.294 240.418C154.31 227.852 167.939 214.819 180.949 201.244C185.131 196.9 178.549 190.307 174.367 194.651C150.98 219.008 125.812 242.047 99.2505 262.914C85.4663 273.774 71.0626 283.859 57.2783 294.719C42.6423 306.277 28.3159 318.146 14.2994 330.48C-1.57572 344.52 -16.9862 359.104 -31.6997 374.308C-35.804 378.652 -29.2991 385.246 -25.1173 380.902Z" fill="#E5E5E5"/>
<path d="M34.3561 39.9751C45.43 65.1861 63.5508 86.2858 82.1363 106.222C103.665 129.183 125.502 151.912 147.186 174.718C158.182 186.277 169.178 197.913 180.175 209.471C190.784 220.641 201.006 232.277 212.157 242.905C221.14 251.515 232.292 259.97 245.147 260.824C257.769 261.677 267.294 253.299 273.489 243.06C277.052 237.164 279.994 230.803 283.479 224.83C287.351 218.159 291.533 211.798 296.102 205.592C305.395 193.025 316.159 181.622 327.929 171.383C332.498 167.427 325.839 160.91 321.347 164.789C301.6 181.777 284.95 202.412 272.483 225.296C267.449 234.527 262.803 247.636 251.574 250.894C239.881 254.308 228.032 245.077 219.979 237.707C209.215 227.778 199.457 216.452 189.313 205.825C178.858 194.81 168.404 183.794 157.872 172.779C136.886 150.671 115.9 128.64 94.9913 106.532C74.6247 85.0446 54.3355 62.7814 42.255 35.3983C39.9318 29.8131 31.9555 34.545 34.3561 39.9751Z" fill="#E5E5E5"/>
<path d="M327.929 171.305C339.081 162.384 344.347 147.723 349.535 134.846C352.788 126.933 356.814 120.96 362.932 114.987C368.275 109.712 373.619 104.36 378.575 98.7746C398.322 76.6665 414.972 51.9209 433.944 29.1146C444.631 16.2376 456.169 4.05871 469.179 -6.56871C473.826 -10.3698 467.166 -16.8858 462.597 -13.1624C439.52 5.7653 421.322 29.58 403.356 53.162C394.295 65.1082 385.157 76.9768 375.4 88.3023C370.676 93.7324 365.72 99.0849 360.609 104.205C355.111 109.635 349.225 114.91 345.353 121.658C337.222 135.854 334.744 153.929 321.347 164.711C316.701 168.435 323.283 175.028 327.929 171.305Z" fill="#E5E5E5"/>
<path d="M297.96 127.553C336.603 79.7687 374.703 31.5962 412.261 -17.1193C413.81 -19.1362 414.197 -21.7736 412.261 -23.7129C410.712 -25.3419 407.228 -25.7298 405.679 -23.7129C368.121 25.0025 330.02 73.175 291.378 120.96C287.584 125.614 294.166 132.208 297.96 127.553Z" fill="#E5E5E5"/>
<path d="M245.069 66.5858C261.719 51.8471 278.755 37.5738 296.257 23.8434C304.93 17.0171 313.758 10.2683 322.664 3.67462C330.795 -2.29846 339.39 -7.96124 345.818 -15.8736C349.535 -20.4504 343.03 -27.1216 339.236 -22.4673C332.653 -14.3997 323.825 -8.81454 315.617 -2.68632C306.866 3.82977 298.193 10.4234 289.674 17.1722C272.173 31.0577 255.136 45.331 238.487 60.0698C233.995 64.026 240.578 70.542 245.069 66.5858Z" fill="#E5E5E5"/>
<path d="M153.768 174.02C183.814 141.982 216.339 112.117 250.8 84.889C255.523 81.1656 248.864 74.6495 244.217 78.2954C209.757 105.523 177.232 135.389 147.186 167.426C143.081 171.77 149.664 178.364 153.768 174.02Z" fill="#E5E5E5"/>
<path d="M180.949 201.249C212.622 173.555 242.901 144.311 271.631 113.592C275.735 109.248 269.153 102.654 265.049 106.998C236.319 137.717 206.04 166.962 174.367 194.655C169.875 198.611 176.458 205.205 180.949 201.249Z" fill="#E5E5E5"/>
<path d="M226.871 152.921C246.773 171.771 266.597 190.698 286.499 209.549C290.836 213.66 297.418 207.066 293.082 202.955C273.18 184.105 253.355 165.177 233.453 146.327C229.117 142.216 222.534 148.809 226.871 152.921Z" fill="#E5E5E5"/>
<path d="M267.062 183.409C279.994 170.92 293.856 159.439 308.57 149.045C313.448 145.631 308.802 137.564 303.846 140.977C288.513 151.76 273.954 163.706 260.48 176.815C256.143 181.004 262.725 187.598 267.062 183.409Z" fill="#E5E5E5"/>
<path d="M233.608 252.138C226.484 260.594 218.198 268.041 210.454 275.875C202.245 284.176 195.276 293.407 188.151 302.56C173.902 320.712 160.35 339.873 144.553 356.783C130.226 372.22 113.035 384.399 95.3012 395.57C76.5608 407.438 57.5881 418.841 39.1575 431.175C18.0939 445.138 -2.65988 459.567 -23.9558 473.065C-22.407 475.78 -20.8582 478.417 -19.2319 481.132C-16.2118 479.193 -12.9593 477.098 -10.4813 474.383C-9.86175 473.685 -9.24224 472.909 -8.70016 472.134C-7.77089 470.737 -8.93249 472.444 -9.552 472.754C-4.28611 469.884 -9.00991 461.894 -14.2758 464.687C-15.36 465.307 -16.5216 467.169 -16.7539 467.479C-18.0703 469.031 -21.6326 471.591 -23.9558 473.065C-28.9893 476.323 -24.3429 484.312 -19.2319 481.132C0.0505123 468.876 18.9458 455.921 37.9959 443.199C56.5814 430.788 75.4766 419.074 94.4493 407.206C112.106 396.19 129.529 384.554 144.553 370.126C161.28 354.068 174.832 334.52 189.08 316.291C197.289 305.896 205.033 294.958 214.171 285.339C222.767 276.341 232.214 268.196 240.268 258.654C243.985 254.155 237.48 247.562 233.608 252.138Z" fill="#E5E5E5"/>
<path d="M65.7966 297.207C78.6516 308.3 90.6547 320.402 102.348 332.813C113.964 345.147 125.503 357.869 135.802 371.444C139.364 376.176 147.418 371.522 143.856 366.712C133.324 352.827 121.708 339.795 109.782 327.15C97.8566 314.506 85.6212 302.017 72.379 290.691C67.8101 286.735 61.2277 293.329 65.7966 297.207Z" fill="#E5E5E5"/>
<path d="M-15.9021 276.645C13.9121 309.381 44.0361 341.883 74.2375 374.231C82.3687 382.919 90.4998 391.53 98.631 400.14C102.735 404.484 109.318 397.891 105.213 393.547C74.7796 361.354 44.6556 328.929 14.6865 296.348C6.63281 287.583 -1.34347 278.817 -9.39718 270.051C-13.424 265.63 -19.929 272.223 -15.9021 276.645Z" fill="#E5E5E5"/>
<path d="M-20.3162 497.65C2.37356 506.028 25.0633 514.328 47.7531 522.706C58.827 526.818 69.9783 530.851 81.0521 534.963C91.2742 538.686 102.425 541.712 111.796 547.219C121.166 552.649 126.354 562.191 131.93 571.034C137.506 579.955 143.314 588.643 149.354 597.253C161.434 614.397 174.289 630.842 188.074 646.667C203.949 664.896 220.908 682.118 238.874 698.33C243.288 702.364 249.87 695.77 245.456 691.737C213.241 662.647 184.124 630.144 158.956 594.771C152.606 585.85 146.489 576.774 140.681 567.466C135.415 559.088 130.459 550.012 122.792 543.573C114.429 536.592 103.665 533.411 93.5974 529.688C81.9814 525.421 70.4429 521.155 58.827 516.888C33.272 507.502 7.63946 498.038 -17.9156 488.652C-23.4912 486.635 -25.8919 495.633 -20.3162 497.65Z" fill="#E5E5E5"/>
<path d="M110.479 695.078C165.694 662.42 220.831 629.685 276.045 597.027C291.92 587.64 307.795 578.254 323.67 568.868C328.781 565.842 324.135 557.775 318.946 560.8C263.732 593.458 208.595 626.194 153.381 658.852C137.506 668.238 121.631 677.624 105.755 687.011C100.644 690.113 105.368 698.181 110.479 695.078Z" fill="#E5E5E5"/>
<path d="M160.041 605.092C182.653 592.06 205.033 578.562 227.103 564.599C238.642 557.307 250.103 549.938 261.486 542.413C271.786 535.587 281.698 528.373 291.765 521.236C296.644 517.823 291.997 509.755 287.041 513.168C276.974 520.305 267.062 527.519 256.763 534.346C245.379 541.87 233.918 549.24 222.379 556.531C200.309 570.494 177.929 583.992 155.317 597.024C150.206 599.972 154.852 608.039 160.041 605.092Z" fill="#E5E5E5"/>
<path d="M285.415 521.544C313.138 560.33 339.7 599.969 365.255 640.307C368.43 645.349 376.484 640.695 373.309 635.575C347.754 595.237 321.27 555.598 293.469 516.812C289.984 512.002 281.93 516.657 285.415 521.544Z" fill="#E5E5E5"/>
<path d="M364.404 560.099C376.871 580.733 389.339 601.367 401.884 622.079C404.982 627.199 413.036 622.544 409.938 617.347C397.47 596.713 385.002 576.079 372.457 555.367C369.282 550.325 361.229 554.979 364.404 560.099Z" fill="#E5E5E5"/>
<path d="M372.38 560.874C420.625 526.277 469.334 492.222 518.431 458.866C532.292 449.48 546.154 440.094 560.093 430.707C565.049 427.372 560.403 419.304 555.369 422.64C506.04 455.686 457.099 489.352 408.621 523.639C394.915 533.336 381.285 543.032 367.656 552.806C362.855 556.297 367.501 564.365 372.38 560.874Z" fill="#E5E5E5"/>
<path d="M319.489 559.09C364.404 528.76 407.77 496.257 449.742 461.892C454.388 458.091 447.729 451.575 443.16 455.299C401.807 489.198 359.138 521.158 314.842 551.1C309.886 554.436 314.532 562.504 319.489 559.09Z" fill="#E5E5E5"/>
<path d="M247.547 261.601C265.668 277.348 283.789 293.095 301.987 308.842C319.334 323.891 336.99 338.708 353.949 354.145C362.158 361.592 369.979 369.426 376.407 378.425C382.369 386.725 387.403 395.646 392.514 404.489C402.426 421.71 412.881 438.466 428.291 451.343C445.018 465.306 465.23 474.77 486.758 478.26C492.643 479.191 495.121 470.27 489.236 469.262C470.496 466.237 452.762 458.712 437.739 447.076C421.786 434.742 411.099 418.297 401.187 400.998C396.076 392.155 391.12 383.234 385.157 374.856C379.117 366.323 372.147 358.566 364.558 351.352C348.373 336.07 331.104 321.874 314.3 307.291C294.243 289.837 274.186 272.383 254.13 255.007C249.638 251.051 243.056 257.644 247.547 261.601Z" fill="#E5E5E5"/>
<path d="M393.521 389.674C408.467 377.961 420.16 362.756 430.459 346.932C441.766 329.555 452.065 311.481 462.752 293.717C474.213 274.557 485.751 255.396 497.212 236.158C506.66 220.411 515.643 204.121 527.336 189.847C538.565 176.195 553.046 163.783 571.167 161.534C577.053 160.835 577.13 151.527 571.167 152.225C535.777 156.646 514.714 188.761 497.832 216.92C474.755 255.396 452.143 294.105 428.678 332.348C417.14 351.121 404.362 369.35 386.861 383.08C382.215 386.804 388.874 393.32 393.521 389.674Z" fill="#E5E5E5"/>
<path d="M344.501 139.737C359.06 141.288 372.999 147.572 386.938 151.605C402.039 155.949 417.372 159.673 432.705 163.086C463.758 169.912 495.044 175.187 526.407 180.385C532.292 181.393 534.77 172.395 528.885 171.386C479.401 163.086 429.685 154.708 381.518 140.28C369.205 136.556 357.356 131.747 344.501 130.428C338.539 129.808 338.616 139.116 344.501 139.737Z" fill="#E5E5E5"/>
<path d="M508.518 213.584C519.979 217.928 531.441 222.272 542.979 226.538C545.225 227.392 547.78 228.09 549.561 229.719C551.73 231.581 552.736 234.683 553.821 237.243C556.221 243.139 558.622 249.034 561.1 254.852C563.5 260.748 565.901 266.643 568.379 272.461C570.702 278.201 573.8 284.252 574.265 290.536C574.652 296.819 570.857 301.473 567.605 306.438C564.662 310.937 561.642 315.359 558.699 319.858C555.369 324.9 563.423 329.554 566.753 324.59C570.238 319.392 573.645 314.118 577.13 308.92C580.615 303.645 583.635 298.448 583.635 291.932C583.635 284.718 580.692 277.969 577.982 271.453C575.194 264.626 572.406 257.8 569.541 250.974C566.83 244.38 564.197 237.709 561.332 231.115C558.854 225.452 555.447 221.574 549.639 219.169C537.016 213.894 523.929 209.395 511.074 204.585C505.421 202.491 502.943 211.489 508.518 213.584Z" fill="#E5E5E5"/>
<path d="M760.894 330.096C749.046 341.577 746.413 358.255 748.813 373.925C751.524 392.077 761.823 407.436 771.735 422.408C776.924 430.242 782.19 438.155 786.294 446.61C790.786 455.919 793.651 466.003 795.974 476.01C800.62 496.179 804.415 516.27 811.152 535.896C818.896 558.47 828.576 580.267 838.333 601.988C840.734 607.418 848.788 602.686 846.387 597.256C838.101 578.716 829.815 560.099 822.846 540.938C815.953 522.011 811.23 502.85 807.125 483.147C803.176 464.374 797.987 446.533 787.92 430.01C778.705 414.883 766.702 400.687 760.894 383.777C755.551 368.185 754.854 348.791 767.554 336.457C771.735 332.501 765.23 325.985 760.894 330.096Z" fill="#E5E5E5"/>
<path d="M862.882 376.869C874.188 405.028 881.467 434.118 887.508 463.828C893.238 492.064 899.356 520.533 912.83 546.21C915.618 551.485 923.672 546.83 920.884 541.478C907.564 516.112 901.911 487.798 896.181 459.949C890.218 430.705 882.939 402.08 871.787 374.309C869.619 368.957 860.636 371.362 862.882 376.869Z" fill="#E5E5E5"/>
<path d="M824.394 566.224C808.519 580.807 797.678 600.278 785.597 617.887C782.19 622.851 790.243 627.506 793.651 622.619C805.344 605.63 815.721 586.935 830.977 572.895C835.391 568.783 828.808 562.19 824.394 566.224Z" fill="#E5E5E5"/>
<path d="M582.086 128.796C659.448 99.163 737.275 70.6939 815.566 43.5436C837.637 35.8639 859.784 28.2618 881.932 20.8148C887.585 18.8755 885.185 9.95471 879.454 11.8164C800.93 38.2686 722.871 66.0396 645.277 94.9741C623.361 103.119 601.523 111.419 579.685 119.797C574.11 121.969 576.511 130.968 582.086 128.796Z" fill="#E5E5E5"/>
<path d="M830.822 0.258532C855.68 36.097 864.353 79.46 882.164 118.712C887.275 129.882 893.161 140.665 900.208 150.749C903.615 155.636 911.669 150.982 908.261 146.017C883.248 110.256 874.575 66.8932 856.764 27.6416C851.653 16.4712 845.845 5.61103 838.798 -4.47339C835.468 -9.28288 827.414 -4.62853 830.822 0.258532Z" fill="#E5E5E5"/>
<path d="M616.857 218.699C635.287 210.088 653.718 201.4 672.226 192.79C680.279 188.989 688.72 185.498 696.31 180.766C703.666 176.189 709.242 170.449 713.733 163.079C718.535 155.245 724.033 149.504 731.777 144.462C739.443 139.42 747.574 135.076 755.783 131.12C773.362 122.664 791.715 115.683 809.681 108.236C830.202 99.7803 850.801 91.2474 871.323 82.792C876.744 80.5424 874.42 71.544 868.845 73.7936C832.371 88.8426 795.432 103.116 759.423 119.173C750.827 123.052 742.309 127.163 734.1 131.973C726.511 136.395 718.689 141.359 712.882 148.03C707.074 154.624 703.899 163.002 697.084 168.742C690.424 174.327 682.216 177.818 674.394 181.464C653.64 191.161 632.887 200.935 612.133 210.631C606.789 213.191 611.513 221.181 616.857 218.699Z" fill="#E5E5E5"/>
<path d="M777.853 119.406C795.664 126.931 810.92 138.489 823.31 153.305C828.808 159.977 834.384 166.881 842.67 170.139C852.737 174.172 863.114 170.527 872.639 166.725C913.45 150.358 954.957 135.774 997.162 123.363C1021.32 116.226 1045.72 109.787 1070.26 104.047C1076.07 102.651 1073.59 93.7299 1067.79 95.0486C1025.74 104.978 984.075 116.846 943.109 130.732C922.743 137.636 902.531 145.005 882.551 152.84C877.518 154.779 872.562 156.874 867.451 158.813C862.572 160.675 857.384 162.692 852.118 162.614C842.825 162.537 836.785 155.09 831.364 148.496C818.044 132.361 801.859 119.484 782.577 111.339C780.254 110.33 777.621 110.641 776.227 113.045C775.065 114.985 775.53 118.398 777.853 119.406Z" fill="#E5E5E5"/>
<path d="M34.7433 515.492C45.43 498.271 60.9179 484.463 79.1162 475.775C88.951 471.043 99.6377 468.871 109.705 464.837C119.617 460.881 127.671 454.83 135.105 447.228C151.212 430.783 166.933 414.105 183.892 398.435C200.619 382.998 217.888 368.182 235.776 354.141C256.298 338.006 277.516 322.957 299.432 308.761C304.465 305.503 299.819 297.436 294.708 300.694C255.601 325.983 218.507 354.452 183.969 385.713C166.623 401.46 149.896 417.906 133.866 434.972C126.354 442.962 118.765 450.797 108.543 455.218C98.5535 459.562 87.712 461.734 77.6448 466.156C56.5813 475.387 38.7702 491.212 26.6122 510.76C23.5146 515.88 31.5683 520.612 34.7433 515.492Z" fill="#E5E5E5"/>
<path d="M392.824 506.419C401.265 509.832 409.783 513.013 418.147 516.581C426.82 520.304 432.705 525.191 436.5 533.957C440.294 542.645 443.314 551.644 447.186 560.254C451.446 569.718 456.247 578.949 461.513 587.948C464.533 593.145 472.587 588.413 469.566 583.216C464.068 573.829 459.112 564.133 454.698 554.204C450.516 544.895 447.651 534.888 442.927 525.812C438.513 517.434 431.389 512.159 422.87 508.513C413.81 504.557 404.517 501.066 395.379 497.421C389.804 495.171 387.403 504.169 392.824 506.419Z" fill="#E5E5E5"/>
<path d="M493.573 576.853C522.69 615.716 539.959 661.717 566.443 702.21C569.696 707.174 577.749 702.52 574.497 697.478C547.935 656.985 530.666 611.062 501.626 572.121C497.987 567.389 489.933 572.043 493.573 576.853Z" fill="#E5E5E5"/>
<path d="M409.086 374.16C447.806 399.371 486.293 424.892 524.626 450.646C529.582 453.982 534.229 445.914 529.35 442.579C491.017 416.825 452.53 391.303 413.81 366.092C408.776 362.834 404.13 370.902 409.086 374.16Z" fill="#E5E5E5"/>
<path d="M438.978 454.754C451.678 447.54 464.765 440.093 476.149 430.94C487.687 421.631 492.179 408.831 497.677 395.567C509.37 367.33 522.69 339.792 537.326 313.03C540.191 307.755 532.215 303.1 529.272 308.298C515.178 334.052 502.323 360.504 490.94 387.577C485.519 400.454 481.647 414.184 470.573 423.415C459.654 432.491 446.567 439.705 434.254 446.687C429.066 449.635 433.712 457.702 438.978 454.754Z" fill="#E5E5E5"/>
<path d="M555.912 81.3243C536.319 82.5654 520.909 95.1322 507.744 108.63C491.637 125.075 476.226 142.296 460.506 159.052C456.402 163.396 462.984 169.99 467.088 165.646C481.957 149.743 496.67 133.608 511.771 117.861C523.619 105.372 537.791 91.7966 555.912 90.633C561.874 90.2451 561.952 80.9364 555.912 81.3243Z" fill="#E5E5E5"/>
<path d="M530.047 628.285C521.528 633.405 512.7 638.059 503.562 642.171C496.515 645.351 488.229 647.756 483.041 653.884C477.156 660.711 478.162 669.554 481.415 677.311C485.287 686.62 490.088 695.618 494.502 704.617C497.135 709.969 505.111 705.315 502.556 699.885C498.839 692.205 495.044 684.448 491.404 676.768C488.307 670.252 485.674 662.65 492.566 657.685C498.219 653.652 505.343 651.557 511.539 648.687C519.437 644.963 527.181 640.852 534.693 636.353C539.882 633.25 535.158 625.26 530.047 628.285Z" fill="#E5E5E5"/>
<path d="M1192.23 678.171C1192.15 689.729 1195.48 696.711 1182.63 698.029C1172.18 699.038 1161.64 699.581 1151.11 699.969C1130.05 700.745 1108.98 700.744 1087.92 700.667C959.217 700.434 830.589 700.124 701.885 699.891C697.084 699.891 684.848 698.185 685.468 690.97C686.01 685.23 699.174 683.136 703.589 681.119C714.12 676.309 724.652 671.655 735.339 667.156C756.79 658.157 778.627 649.857 800.698 642.41C844.064 627.826 888.592 616.578 933.971 610.45C991.199 602.693 1048.89 598.892 1106.58 598.349C1121.14 598.194 1135.78 598.271 1150.34 598.504C1160.02 598.659 1181.47 595.168 1189.83 600.211C1197.81 605.02 1193.01 625.965 1192.85 634.343C1192.54 649.004 1192.31 663.587 1192.23 678.171Z" fill="#A3A3A3"/>
<path d="M262.493 67.0558C262.493 89.3967 222.147 138.5 222.147 138.5C222.147 138.5 181.801 89.3967 181.801 67.0558C181.801 44.715 199.844 26.6406 222.147 26.6406C244.45 26.6406 262.493 44.715 262.493 67.0558Z" fill="#FCD34D"/>
<path d="M222.147 82.6463C231.3 82.6463 238.719 75.214 238.719 66.0458C238.719 56.8776 231.3 49.4453 222.147 49.4453C212.995 49.4453 205.575 56.8776 205.575 66.0458C205.575 75.214 212.995 82.6463 222.147 82.6463Z" fill="#FAFAFA"/>
<path d="M17.5518 -17.8059C4.77425 7.24996 -5.98984 33.3143 -14.4307 60.0768C-18.4576 72.9538 -21.6326 86.0635 -25.8143 98.863C-29.9961 111.507 -36.1138 122.91 -43.6254 133.848C-60.1201 157.74 -77.6989 181.012 -94.813 204.517C-111.85 228.021 -128.267 252.146 -146.697 274.564C-165.36 297.371 -186.734 318.005 -210.43 335.459C-214.457 338.407 -216.471 343.526 -213.76 348.181C-211.437 352.137 -205.087 354.542 -201.06 351.516C-179.3 335.459 -159.088 317.229 -141.277 296.828C-121.917 274.642 -105.19 250.207 -87.9209 226.392C-70.2646 202.034 -52.6084 177.754 -34.9522 153.396C-26.8985 142.304 -18.9997 131.133 -13.5789 118.489C-8.00327 105.612 -4.51848 92.1917 -0.723938 78.6941C7.79442 48.596 19.2555 19.4288 33.5818 -8.41966C35.905 -12.9189 34.7434 -18.5041 30.2519 -21.1415C26.1476 -23.5463 19.875 -22.2276 17.5518 -17.8059Z" fill="#D4D4D4"/>
<path d="M-183.094 98.3964C-173.492 90.7168 -163.889 82.9595 -154.287 75.2799C-145.923 68.6086 -137.095 63.1786 -126.176 62.4028C-114.328 61.472 -102.479 63.0234 -90.6312 63.101C-78.1635 63.101 -65.6957 62.3253 -53.2279 60.929C-27.6729 58.1364 -2.50504 53.0942 22.5854 47.8968C44.2685 43.3976 65.9515 38.8984 87.0925 32.4599C110.944 25.0905 134.253 15.0837 154.233 -0.12051C158.259 -3.14583 160.35 -8.11047 157.563 -12.8424C155.239 -16.7986 148.889 -19.2809 144.862 -16.178C109.473 10.7396 65.332 20.0483 22.8177 28.9691C-1.65318 34.0889 -26.1241 39.2863 -50.9822 42.1565C-63.6048 43.6303 -76.3823 44.5612 -89.0824 44.5612C-100.931 44.6388 -112.934 43.0873 -124.782 43.7855C-139.031 44.6388 -151.034 49.681 -162.34 58.2915C-173.801 67.0572 -184.953 76.2883 -196.259 85.3643C-200.208 88.5448 -199.511 95.216 -196.259 98.5516C-192.309 102.275 -186.966 101.577 -183.094 98.3964Z" fill="#D4D4D4"/>
<path d="M283.169 704.933C351.936 670.336 418.301 630.929 481.492 586.868C496.438 576.473 511.694 566.156 525.555 554.365C538.952 543.04 550.181 529.387 555.602 512.476C561.1 495.255 561.72 476.56 565.901 458.951C570.16 441.187 576.201 423.888 585.029 407.908C600.052 380.525 623.749 356.4 653.795 346.238C671.684 340.188 690.501 339.102 709.242 338.791C727.208 338.481 745.561 338.016 763.295 341.429C772.045 343.136 780.719 345.618 788.772 349.652C797.291 353.918 805.267 359.193 813.63 363.615C828.886 371.682 845.536 376.259 862.805 376.957C879.299 377.655 896.181 374.863 911.514 368.579C927.776 361.908 940.631 352.056 952.092 338.791C957.358 332.663 962.547 326.302 968.819 321.105C974.859 316.063 981.984 312.029 988.953 308.306C1004.21 300.238 1020.39 293.877 1036.35 287.283C1071.89 272.622 1108.83 261.529 1146.54 254.315C1155.84 252.531 1165.21 250.979 1174.5 249.661C1179.45 248.963 1182.17 242.602 1181 238.18C1179.53 232.828 1174.58 230.966 1169.54 231.664C1131.21 237.172 1093.5 246.403 1057.1 259.435C1039.68 265.641 1022.64 272.855 1005.6 280.069C989.65 286.818 973.62 294.11 959.759 304.66C946.517 314.744 937.998 329.25 925.143 339.722C913.14 349.496 897.343 355.159 882.164 357.409C866.599 359.736 850.492 358.185 835.623 352.987C818.199 346.937 803.718 334.835 786.449 328.397C769.335 322.036 750.749 320.329 732.629 320.019C713.269 319.631 693.676 319.864 674.471 322.501C639.856 327.233 609.422 344.842 587.197 371.76C563.81 400.074 550.801 435.214 544.528 471.052C541.508 488.429 540.733 506.581 530.744 521.707C521.993 534.895 508.673 544.591 495.973 553.745C433.402 599.047 367.501 639.85 299.122 675.766C290.759 680.188 282.318 684.454 273.877 688.721C269.385 690.97 268.146 697.331 270.547 701.442C273.102 706.174 278.6 707.183 283.169 704.933Z" fill="#D4D4D4"/>
<path d="M814.095 359.819C865.05 341.279 916.548 324.213 968.509 308.776C983.455 304.355 998.401 300.011 1013.35 295.822C1024.89 292.641 1019.93 274.644 1008.39 277.902C956.197 292.486 904.39 308.621 853.125 326.23C838.411 331.272 823.775 336.547 809.139 341.822C804.415 343.529 801.24 348.183 802.634 353.303C803.873 357.88 809.294 361.525 814.095 359.819Z" fill="#D4D4D4"/>
<path d="M499.381 -11.5214C538.333 78.3075 576.588 168.524 614.146 259.051C624.755 284.573 635.21 310.171 645.664 335.693C647.6 340.347 651.859 343.605 657.125 342.209C661.539 340.968 665.566 335.46 663.63 330.728C626.149 239.037 587.894 147.657 548.865 56.5872C537.791 30.678 526.639 4.84639 515.411 -20.9852C513.397 -25.562 506.66 -26.648 502.711 -24.3208C497.909 -21.5282 497.367 -16.1757 499.381 -11.5214Z" fill="#D4D4D4"/>
<path d="M525.246 543.12C531.751 551.42 535.39 561.738 539.34 571.357C543.831 582.449 548.555 593.387 553.666 604.17C563.733 625.347 575.194 645.826 587.894 665.452C595.096 676.545 602.685 687.327 610.661 697.877C613.682 701.911 618.715 704.005 623.361 701.213C627.311 698.886 629.712 692.525 626.691 688.491C598.426 651.101 574.729 609.988 557.228 566.47C552.04 553.592 547.084 540.948 538.41 530.01C535.313 526.054 528.498 526.752 525.246 530.01C521.374 533.812 522.148 539.164 525.246 543.12Z" fill="#D4D4D4"/>
<path d="M619.877 711.528C679.273 673.595 744.09 645.203 811.54 625.19C882.861 604.012 956.584 592.144 1030.69 587.179C1073.67 584.309 1116.81 583.689 1159.94 584.697C1171.87 585.007 1171.87 566.39 1159.94 566.08C1081.96 564.218 1003.82 567.941 926.77 580.198C854.751 591.601 784.126 610.916 716.986 639.463C680.047 655.21 644.348 673.828 610.429 695.393C606.17 698.108 604.466 703.693 607.099 708.115C609.655 712.381 615.618 714.243 619.877 711.528Z" fill="#D4D4D4"/>
</g>
<path d="M565.629 138.143L581.366 137.268L582.697 140.527L570.846 150.919L569.727 148.179L572.289 145.988L570.111 140.655L566.74 140.865L565.629 138.143ZM572.628 140.47L574.216 144.358L580.147 139.257L580.435 139.96L572.628 140.47ZM573.787 158.12L576.824 156.88L574.238 150.548L576.348 149.686L587.521 152.338L588.594 154.968L579.948 158.499L580.772 160.517L578.661 161.379L577.837 159.361L574.8 160.601L573.787 158.12ZM576.197 151.908L576.923 151.093L578.934 156.018L585.6 153.296L585.661 154.027L576.197 151.908ZM576.224 164.087L578.131 163.309L583.566 165.453C584.646 165.876 585.495 166.192 586.113 166.4C586.748 166.616 587.265 166.736 587.664 166.761C588.063 166.785 588.435 166.727 588.781 166.585C589.361 166.349 589.742 165.977 589.924 165.47C590.111 164.976 590.089 164.445 589.857 163.878C589.615 163.285 589.233 162.843 588.711 162.553C588.201 162.257 587.579 162.144 586.844 162.213L586.629 159.73C587.418 159.581 588.171 159.626 588.888 159.866C589.618 160.101 590.258 160.488 590.809 161.026C591.378 161.571 591.813 162.214 592.116 162.955C592.479 163.844 592.636 164.687 592.587 165.485C592.543 166.295 592.307 167.003 591.878 167.61C591.454 168.23 590.854 168.699 590.076 169.016C589.582 169.218 589.057 169.324 588.5 169.336C587.943 169.347 587.336 169.271 586.678 169.108C586.033 168.939 585.281 168.684 584.422 168.344L579.692 166.495L582.134 172.476L580.005 173.345L576.224 164.087ZM582.843 180.929C582.394 179.83 582.297 178.746 582.552 177.677C582.807 176.608 583.375 175.62 584.258 174.712C585.145 173.817 586.298 173.08 587.718 172.5C589.15 171.915 590.49 171.634 591.738 171.658C592.986 171.681 594.075 171.985 595.005 172.57C595.936 173.155 596.625 173.997 597.074 175.095C597.532 176.219 597.632 177.309 597.372 178.365C597.117 179.434 596.549 180.423 595.667 181.33C594.797 182.233 593.652 182.974 592.232 183.554C590.813 184.133 589.47 184.408 588.205 184.377C586.957 184.354 585.861 184.053 584.919 183.473C583.989 182.888 583.297 182.04 582.843 180.929ZM585.146 180.01C585.403 180.639 585.814 181.098 586.378 181.386C586.955 181.669 587.649 181.782 588.46 181.724C589.29 181.673 590.204 181.444 591.204 181.036C592.204 180.627 593.011 180.153 593.626 179.614C594.259 179.082 594.673 178.51 594.869 177.897C595.07 177.296 595.04 176.675 594.778 176.033C594.526 175.416 594.118 174.963 593.553 174.675C592.989 174.387 592.293 174.268 591.464 174.319C590.652 174.377 589.746 174.61 588.746 175.018C587.759 175.421 586.949 175.889 586.316 176.421C585.701 176.96 585.287 177.533 585.073 178.138C584.865 178.756 584.889 179.38 585.146 180.01ZM588.197 194.038C587.748 192.939 587.651 191.855 587.906 190.786C588.16 189.717 588.729 188.729 589.611 187.821C590.499 186.926 591.652 186.189 593.072 185.609C594.504 185.024 595.843 184.743 597.092 184.767C598.34 184.79 599.429 185.094 600.359 185.679C601.289 186.264 601.979 187.106 602.427 188.204C602.886 189.328 602.986 190.418 602.726 191.474C602.471 192.543 601.903 193.532 601.02 194.439C600.15 195.342 599.005 196.083 597.586 196.663C596.166 197.242 594.824 197.517 593.558 197.487C592.31 197.463 591.215 197.162 590.272 196.582C589.342 195.997 588.65 195.149 588.197 194.038ZM590.5 193.119C590.757 193.748 591.168 194.207 591.732 194.495C592.308 194.778 593.002 194.891 593.814 194.833C594.643 194.782 595.558 194.553 596.558 194.145C597.557 193.736 598.365 193.262 598.98 192.723C599.612 192.191 600.027 191.619 600.223 191.006C600.424 190.405 600.394 189.784 600.131 189.142C599.879 188.525 599.471 188.072 598.907 187.784C598.343 187.496 597.646 187.377 596.817 187.428C596.006 187.486 595.1 187.719 594.1 188.127C593.113 188.53 592.303 188.998 591.67 189.53C591.055 190.069 590.641 190.642 590.427 191.247C590.219 191.865 590.243 192.489 590.5 193.119Z" fill="#737373"/>
<path d="M624.235 358.971L621.624 343.427L624.716 341.744L636.355 352.373L633.755 353.788L631.294 351.484L626.235 354.239L626.817 357.565L624.235 358.971ZM625.773 351.758L629.461 349.749L623.735 344.419L624.403 344.055L625.773 351.758ZM643.186 348.653L641.618 345.772L635.611 349.043L634.52 347.041L635.921 335.644L638.415 334.286L642.881 342.489L644.796 341.446L645.886 343.449L643.972 344.491L645.54 347.372L643.186 348.653ZM636.745 346.945L635.855 346.314L640.528 343.77L637.085 337.446L637.805 337.305L636.745 346.945Z" fill="#737373"/>
<path d="M747.729 644.449L747.989 628.689L751.335 627.596L760.847 640.164L758.033 641.083L756.032 638.371L750.557 640.159L750.524 643.536L747.729 644.449ZM750.553 637.635L754.546 636.331L749.884 630.048L750.607 629.812L750.553 637.635ZM766.699 638.505C765.926 638.758 765.146 638.859 764.357 638.807C763.578 638.739 762.856 638.526 762.192 638.168C761.536 637.793 761.002 637.273 760.589 636.609L762.59 635.071C763.029 635.643 763.539 636.024 764.12 636.213C764.697 636.389 765.302 636.374 765.936 636.167C766.443 636.001 766.849 635.764 767.154 635.453C767.472 635.139 767.681 634.769 767.781 634.344C767.876 633.906 767.843 633.44 767.682 632.946C767.52 632.451 767.276 632.068 766.949 631.796C766.63 631.508 766.25 631.33 765.807 631.265C765.365 631.199 764.884 631.251 764.364 631.42C764.123 631.499 763.878 631.607 763.629 631.745C763.392 631.878 763.188 632.029 763.019 632.196L762.026 631.153L764.329 625.772L758.549 627.66L757.835 625.473L766.524 622.636L767.188 624.67L764.909 630.19L764.631 629.208C765.484 628.944 766.286 628.885 767.035 629.033C767.785 629.181 768.438 629.508 768.996 630.013C769.554 630.518 769.969 631.189 770.243 632.025C770.541 632.938 770.588 633.834 770.384 634.714C770.177 635.581 769.755 636.35 769.118 637.021C768.482 637.692 767.675 638.187 766.699 638.505ZM773.551 636.015L772.912 634.057L775.442 628.791C775.942 627.744 776.318 626.92 776.57 626.319C776.831 625.7 776.988 625.193 777.041 624.797C777.094 624.401 777.063 624.026 776.947 623.671C776.752 623.075 776.409 622.668 775.917 622.45C775.438 622.228 774.906 622.212 774.323 622.403C773.715 622.601 773.247 622.951 772.919 623.45C772.587 623.938 772.43 624.55 772.446 625.288L769.954 625.324C769.862 624.526 769.962 623.778 770.253 623.08C770.539 622.369 770.971 621.758 771.548 621.247C772.133 620.72 772.805 620.332 773.566 620.083C774.478 619.785 775.331 619.689 776.123 619.795C776.928 619.897 777.617 620.184 778.192 620.655C778.78 621.123 779.204 621.756 779.464 622.554C779.63 623.061 779.698 623.593 779.67 624.149C779.641 624.706 779.522 625.306 779.311 625.95C779.096 626.581 778.788 627.313 778.387 628.145L776.202 632.73L782.343 630.724L783.057 632.91L773.551 636.015ZM787.31 631.522L783.404 619.563L780.666 620.457L779.946 618.252L785.269 616.513L789.895 630.677L787.31 631.522ZM794.978 629.017L791.072 617.059L788.334 617.953L787.614 615.748L792.937 614.009L797.563 628.173L794.978 629.017Z" fill="#737373"/>
<path d="M841.305 347.916L836.377 333.854L845.757 330.566L846.551 332.831L839.737 335.22L841.1 339.108L847.065 337.017L847.858 339.282L841.894 341.373L843.872 347.016L841.305 347.916ZM852.157 344.112L847.149 329.824L849.621 328.958L854.629 343.245L852.157 344.112ZM861.861 340.965C860.804 341.335 859.796 341.42 858.835 341.22C857.875 341.02 857.031 340.588 856.304 339.924C855.577 339.261 855.039 338.432 854.691 337.438C854.329 336.406 854.23 335.417 854.392 334.47C854.563 333.506 854.951 332.656 855.555 331.922C856.172 331.183 856.958 330.646 857.915 330.311C858.72 330.028 859.471 329.913 860.168 329.966C860.877 330.014 861.527 330.196 862.118 330.512C862.709 330.827 863.223 331.247 863.662 331.772C864.095 332.284 864.434 332.886 864.676 333.578C864.738 333.754 864.789 333.941 864.83 334.138C864.884 334.332 864.91 334.506 864.908 334.662L856.981 337.441L856.319 335.553L862.85 333.264L861.99 334.562C861.901 333.943 861.688 333.438 861.354 333.047C861.031 332.651 860.629 332.39 860.146 332.262C859.676 332.13 859.17 332.159 858.629 332.349C858.113 332.53 857.7 332.823 857.39 333.228C857.076 333.621 856.9 334.107 856.862 334.685C856.833 335.246 856.967 335.87 857.264 336.557C857.435 337.204 857.713 337.735 858.099 338.151C858.493 338.55 858.95 338.806 859.47 338.921C860.003 339.031 860.553 338.986 861.119 338.788C861.685 338.589 862.122 338.302 862.428 337.926C862.747 337.546 862.949 337.115 863.034 336.633L865.379 336.913C865.35 337.474 865.187 338.019 864.892 338.546C864.596 339.074 864.19 339.548 863.674 339.969C863.17 340.386 862.566 340.718 861.861 340.965ZM873.418 336.914C872.361 337.285 871.352 337.37 870.392 337.169C869.432 336.969 868.588 336.537 867.861 335.874C867.134 335.21 866.596 334.381 866.248 333.387C865.886 332.356 865.786 331.366 865.949 330.419C866.12 329.455 866.507 328.606 867.112 327.871C867.729 327.132 868.515 326.595 869.471 326.26C870.277 325.977 871.028 325.863 871.724 325.915C872.433 325.963 873.084 326.145 873.675 326.461C874.266 326.776 874.78 327.196 875.218 327.721C875.652 328.233 875.99 328.835 876.233 329.527C876.295 329.703 876.346 329.89 876.387 330.088C876.441 330.281 876.466 330.455 876.465 330.611L868.537 333.39L867.876 331.503L874.406 329.214L873.547 330.511C873.457 329.892 873.245 329.387 872.91 328.996C872.588 328.601 872.185 328.339 871.703 328.212C871.233 328.08 870.727 328.108 870.186 328.298C869.67 328.479 869.257 328.772 868.947 329.177C868.633 329.57 868.457 330.056 868.419 330.634C868.39 331.195 868.524 331.819 868.821 332.506C868.991 333.153 869.269 333.685 869.655 334.1C870.049 334.499 870.507 334.756 871.027 334.87C871.56 334.98 872.11 334.935 872.676 334.737C873.242 334.538 873.678 334.251 873.985 333.876C874.304 333.495 874.506 333.064 874.591 332.582L876.936 332.862C876.906 333.424 876.744 333.968 876.448 334.495C876.153 335.023 875.747 335.497 875.231 335.918C874.727 336.335 874.123 336.667 873.418 336.914ZM884.746 332.816C883.589 333.222 882.579 333.223 881.716 332.818C880.862 332.397 880.232 331.608 879.827 330.45L878.239 325.92L876.465 326.542L875.691 324.334L875.879 324.268C876.383 324.092 876.726 323.823 876.911 323.461C877.095 323.1 877.099 322.668 876.922 322.165L876.644 321.372L879.117 320.505L879.937 322.846L882.297 322.019L883.071 324.227L880.711 325.054L882.253 329.451C882.372 329.791 882.53 330.061 882.727 330.26C882.937 330.455 883.189 330.571 883.485 330.609C883.793 330.642 884.149 330.588 884.552 330.447C884.64 330.416 884.738 330.375 884.847 330.322C884.968 330.266 885.083 330.211 885.192 330.159L885.933 332.273C885.766 332.36 885.573 332.456 885.356 332.56C885.138 332.665 884.935 332.75 884.746 332.816ZM896.484 328.829C895.591 329.142 894.703 329.269 893.821 329.211C892.951 329.149 892.138 328.925 891.382 328.54C890.633 328.139 889.997 327.592 889.472 326.9L891.28 325.228C891.902 325.914 892.616 326.377 893.421 326.618C894.221 326.846 895.024 326.819 895.829 326.537C896.282 326.378 896.648 326.172 896.927 325.919C897.214 325.649 897.401 325.357 897.489 325.043C897.589 324.726 897.578 324.391 897.454 324.038C897.309 323.623 897.064 323.327 896.72 323.151C896.384 322.958 895.944 322.872 895.4 322.893L892.397 322.971C891.183 323.015 890.18 322.795 889.388 322.309C888.597 321.824 888.04 321.122 887.718 320.203C887.435 319.398 887.381 318.619 887.555 317.865C887.742 317.108 888.128 316.435 888.713 315.849C889.307 315.245 890.063 314.782 890.982 314.46C891.825 314.165 892.652 314.044 893.462 314.099C894.268 314.142 895.015 314.339 895.704 314.691C896.401 315.026 896.998 315.502 897.497 316.118L895.714 317.803C895.19 317.195 894.585 316.8 893.899 316.616C893.209 316.42 892.499 316.45 891.769 316.706C891.341 316.856 890.99 317.064 890.716 317.33C890.437 317.583 890.25 317.874 890.154 318.205C890.066 318.518 890.084 318.851 890.207 319.203C890.344 319.593 890.591 319.895 890.948 320.109C891.302 320.31 891.765 320.402 892.338 320.385L895.208 320.29C896.456 320.263 897.469 320.473 898.248 320.92C899.039 321.364 899.6 322.057 899.931 323.001C900.213 323.806 900.254 324.59 900.055 325.352C899.856 326.114 899.453 326.799 898.847 327.407C898.241 328.015 897.453 328.489 896.484 328.829ZM908.118 324.624C906.96 325.03 905.95 325.031 905.088 324.626C904.234 324.205 903.604 323.416 903.198 322.258L901.61 317.728L899.836 318.35L899.062 316.142L899.251 316.076C899.754 315.899 900.098 315.631 900.282 315.269C900.466 314.908 900.47 314.476 900.294 313.972L900.016 313.18L902.488 312.313L903.309 314.653L905.668 313.826L906.442 316.035L904.083 316.862L905.624 321.259C905.743 321.599 905.901 321.869 906.098 322.068C906.308 322.263 906.561 322.379 906.857 322.417C907.165 322.45 907.52 322.396 907.923 322.255C908.011 322.224 908.11 322.183 908.218 322.13C908.34 322.074 908.455 322.019 908.564 321.967L909.305 324.081C909.137 324.168 908.945 324.263 908.727 324.368C908.51 324.473 908.306 324.558 908.118 324.624ZM912.364 323.008L911.438 320.366L913.929 319.493L914.855 322.135L912.364 323.008Z" fill="#737373"/>
<path d="M61.1113 39.6001L61.858 23.8561L65.2362 22.8672L74.3555 35.7228L71.5147 36.5545L69.5983 33.7812L64.0703 35.3995L63.9329 38.7741L61.1113 39.6001ZM64.1446 32.8771L68.1754 31.697L63.7106 25.2727L64.44 25.0592L64.1446 32.8771ZM81.8204 33.5374L80.8989 30.3896L74.3344 32.3113L73.6938 30.1232L77.4805 19.2826L80.2061 18.4846L82.8303 27.4484L84.9225 26.8359L85.5631 29.0241L83.4709 29.6366L84.3925 32.7845L81.8204 33.5374ZM75.8886 30.5018L75.1526 29.6961L80.2583 28.2014L78.2353 21.2914L78.969 21.3059L75.8886 30.5018ZM93.986 30.226C92.8471 30.5594 91.7591 30.5445 90.722 30.1813C89.6848 29.818 88.7601 29.151 87.948 28.18C87.1486 27.2054 86.5335 25.9823 86.1027 24.5107C85.6681 23.0263 85.5265 21.6646 85.6778 20.4255C85.8291 19.1864 86.2435 18.1343 86.921 17.2691C87.5986 16.4038 88.5068 15.8045 89.6456 15.4711C90.8101 15.1302 91.9045 15.1433 92.9289 15.5102C93.966 15.8735 94.8907 16.5405 95.7029 17.5115C96.5113 18.4696 97.1309 19.6844 97.5617 21.156C97.9925 22.6276 98.1278 23.9912 97.9674 25.2468C97.8161 26.4859 97.4036 27.5444 96.7298 28.4224C96.0523 29.2877 95.1377 29.8888 93.986 30.226ZM93.3084 27.8403C93.961 27.6492 94.4596 27.2879 94.8041 26.7564C95.1449 26.212 95.3282 25.5332 95.3541 24.7198C95.389 23.8899 95.2547 22.9567 94.9513 21.9202C94.6478 20.8837 94.2595 20.0318 93.7863 19.3646C93.3222 18.6808 92.7953 18.2098 92.2057 17.9518C91.6289 17.6899 91.0078 17.6564 90.3424 17.8512C89.7026 18.0385 89.2104 18.398 88.8659 18.9295C88.5214 19.4611 88.3316 20.1418 88.2967 20.9717C88.2709 21.785 88.4097 22.71 88.7131 23.7465C89.0128 24.7702 89.3947 25.6239 89.8589 26.3077C90.3321 26.975 90.859 27.4459 91.4395 27.7205C92.0328 27.9914 92.6558 28.0313 93.3084 27.8403Z" fill="#737373"/>
<path d="M552.671 600.092L568.235 597.602L569.894 600.707L559.175 612.263L557.78 609.653L560.103 607.209L557.388 602.129L554.057 602.685L552.671 600.092ZM559.872 601.686L561.852 605.39L567.227 599.706L567.585 600.376L559.872 601.686ZM561.829 617.737C561.445 617.02 561.21 616.268 561.123 615.483C561.054 614.704 561.138 613.956 561.375 613.24C561.63 612.529 562.049 611.912 562.631 611.389L564.494 613.092C564.007 613.625 563.722 614.193 563.637 614.798C563.563 615.396 563.684 615.99 563.998 616.577C564.25 617.048 564.555 617.406 564.913 617.653C565.278 617.912 565.679 618.053 566.115 618.077C566.563 618.095 567.016 617.981 567.474 617.736C567.933 617.491 568.268 617.183 568.478 616.814C568.707 616.45 568.815 616.044 568.803 615.597C568.791 615.15 568.656 614.685 568.399 614.203C568.279 613.98 568.13 613.757 567.951 613.535C567.778 613.325 567.594 613.151 567.4 613.013L568.254 611.854L573.954 613.184L571.088 607.822L573.117 606.738L577.425 614.799L575.538 615.808L569.705 614.526L570.623 614.08C571.032 614.874 571.23 615.653 571.215 616.417C571.199 617.181 570.992 617.882 570.592 618.519C570.191 619.156 569.603 619.682 568.827 620.097C567.98 620.549 567.106 620.752 566.204 620.705C565.314 620.652 564.483 620.37 563.712 619.86C562.94 619.35 562.312 618.642 561.829 617.737ZM568.166 629.596C567.607 628.55 567.399 627.482 567.543 626.392C567.686 625.302 568.15 624.261 568.934 623.267C569.725 622.285 570.796 621.433 572.148 620.71C573.512 619.981 574.816 619.564 576.06 619.459C577.304 619.354 578.419 619.544 579.404 620.03C580.39 620.516 581.162 621.283 581.721 622.329C582.293 623.399 582.504 624.473 582.355 625.551C582.211 626.641 581.748 627.682 580.963 628.676C580.191 629.663 579.128 630.518 577.776 631.241C576.424 631.964 575.117 632.375 573.855 632.475C572.611 632.58 571.49 632.393 570.493 631.913C569.508 631.427 568.732 630.655 568.166 629.596ZM570.363 628.445C570.684 629.045 571.139 629.459 571.73 629.687C572.333 629.91 573.035 629.95 573.836 629.809C574.656 629.673 575.542 629.351 576.494 628.842C577.447 628.333 578.201 627.779 578.757 627.179C579.332 626.585 579.685 625.973 579.817 625.343C579.955 624.725 579.861 624.11 579.534 623.498C579.22 622.91 578.767 622.502 578.177 622.274C577.586 622.045 576.881 621.999 576.061 622.134C575.26 622.275 574.383 622.6 573.43 623.109C572.49 623.612 571.732 624.161 571.158 624.755C570.601 625.355 570.248 625.967 570.098 626.591C569.954 627.227 570.043 627.845 570.363 628.445ZM573.346 638.779L584.441 632.85L583.084 630.31L585.13 629.216L587.769 634.155L574.628 641.178L573.346 638.779Z" fill="#737373"/>
<path d="M407.425 633.489C406.638 634.015 405.81 634.36 404.942 634.524C404.084 634.681 403.241 634.667 402.412 634.483C401.587 634.281 400.834 633.91 400.153 633.371L401.487 631.301C402.261 631.81 403.067 632.081 403.907 632.113C404.739 632.134 405.509 631.907 406.219 631.433C406.618 631.166 406.921 630.875 407.127 630.561C407.338 630.228 407.446 629.898 407.453 629.573C407.471 629.24 407.377 628.919 407.169 628.608C406.925 628.242 406.614 628.017 406.236 627.933C405.863 627.83 405.415 627.856 404.894 628.012L402.005 628.837C400.841 629.183 399.815 629.219 398.927 628.947C398.039 628.674 397.324 628.133 396.783 627.324C396.309 626.615 396.062 625.874 396.043 625.101C396.034 624.321 396.24 623.573 396.661 622.859C397.085 622.126 397.702 621.489 398.511 620.948C399.254 620.452 400.024 620.129 400.823 619.98C401.614 619.82 402.387 619.825 403.141 619.994C403.9 620.144 404.597 620.456 405.234 620.928L403.928 623.005C403.269 622.547 402.584 622.315 401.874 622.308C401.157 622.291 400.477 622.497 399.834 622.927C399.457 623.179 399.169 623.468 398.97 623.793C398.763 624.108 398.654 624.437 398.644 624.781C398.637 625.107 398.737 625.425 398.945 625.735C399.174 626.079 399.489 626.309 399.888 626.427C400.281 626.534 400.752 626.507 401.303 626.347L404.059 625.539C405.26 625.201 406.294 625.152 407.159 625.391C408.036 625.623 408.752 626.154 409.308 626.986C409.782 627.695 410.018 628.443 410.016 629.231C410.013 630.019 409.794 630.783 409.359 631.523C408.923 632.263 408.279 632.919 407.425 633.489ZM417.641 626.514C416.621 627.196 415.644 627.449 414.708 627.273C413.776 627.078 412.969 626.471 412.287 625.451L409.619 621.461L408.056 622.506L406.755 620.56L406.922 620.449C407.365 620.153 407.631 619.807 407.719 619.411C407.807 619.015 407.703 618.596 407.407 618.152L406.94 617.454L409.118 615.998L410.496 618.059L412.574 616.67L413.875 618.615L411.797 620.004L414.387 623.878C414.587 624.178 414.807 624.399 415.048 624.543C415.3 624.68 415.573 624.729 415.869 624.692C416.176 624.647 416.507 624.506 416.862 624.269C416.939 624.217 417.024 624.152 417.116 624.074C417.22 623.989 417.318 623.908 417.41 623.83L418.655 625.692C418.515 625.818 418.352 625.959 418.168 626.114C417.983 626.27 417.807 626.403 417.641 626.514ZM420.319 624.579L414.272 615.535L416.317 614.168L417.662 616.179L417.295 615.991C417.054 615.174 417.066 614.485 417.332 613.922C417.608 613.352 418.062 612.856 418.694 612.434L419.226 612.078L420.516 614.007L419.734 614.529C419.113 614.944 418.744 615.471 418.627 616.111C418.502 616.74 418.669 617.398 419.129 618.085L422.497 623.123L420.319 624.579ZM429.414 618.787C428.783 619.209 428.163 619.471 427.557 619.571C426.951 619.672 426.39 619.614 425.876 619.396C425.354 619.168 424.919 618.793 424.571 618.272C424.238 617.773 424.052 617.256 424.014 616.72C423.969 616.172 424.09 615.61 424.378 615.033C424.666 614.455 425.127 613.874 425.763 613.289L428.4 610.828L429.511 612.491L427.256 614.624C426.876 614.991 426.647 615.344 426.57 615.684C426.493 616.025 426.562 616.356 426.777 616.677C426.984 616.987 427.267 617.159 427.626 617.192C427.988 617.206 428.347 617.095 428.702 616.857C429.156 616.554 429.492 616.193 429.71 615.774C429.931 615.338 430.021 614.885 429.98 614.415C429.95 613.938 429.797 613.494 429.523 613.084L427.967 610.757C427.707 610.369 427.337 610.151 426.856 610.104C426.379 610.038 425.891 610.172 425.393 610.505C424.927 610.816 424.597 611.222 424.401 611.721C424.21 612.202 424.168 612.703 424.276 613.225L421.919 613.549C421.777 612.954 421.78 612.359 421.927 611.763C422.078 611.149 422.347 610.568 422.735 610.02C423.123 609.473 423.621 608.995 424.231 608.587C424.973 608.091 425.72 607.792 426.47 607.691C427.214 607.579 427.903 607.663 428.54 607.944C429.18 608.205 429.715 608.658 430.145 609.3L434.169 615.319L432.107 616.697L431.074 615.151L431.517 614.807C431.543 615.35 431.485 615.863 431.341 616.344C431.19 616.813 430.958 617.257 430.644 617.676C430.323 618.083 429.913 618.453 429.414 618.787ZM436.182 613.973L430.135 604.929L432.18 603.561L433.369 605.34L432.992 605.135C432.839 604.452 432.908 603.812 433.2 603.216C433.495 602.602 433.964 602.08 434.607 601.65C435.272 601.205 435.955 600.956 436.658 600.904C437.372 600.844 438.047 600.978 438.683 601.306C439.312 601.623 439.853 602.12 440.305 602.796L444.196 608.615L442.018 610.071L438.472 604.767C438.205 604.368 437.897 604.077 437.55 603.892C437.202 603.708 436.837 603.631 436.456 603.661C436.079 603.672 435.708 603.8 435.342 604.045C434.987 604.282 434.727 604.577 434.561 604.928C434.388 605.269 434.32 605.635 434.357 606.027C434.395 606.419 434.547 606.814 434.814 607.213L438.36 612.517L436.182 613.973ZM450.377 604.77C449.502 605.356 448.583 605.673 447.622 605.723C446.653 605.761 445.728 605.553 444.847 605.1C443.967 604.646 443.233 603.981 442.648 603.106C442.055 602.219 441.721 601.288 441.646 600.311C441.57 599.335 441.736 598.407 442.141 597.526C442.558 596.638 443.193 595.909 444.046 595.338C444.734 594.879 445.436 594.61 446.153 594.531C446.874 594.434 447.553 594.525 448.189 594.805L448.157 595.477L444.588 590.14L446.766 588.684L455.182 601.269L453.12 602.648L451.953 600.902L452.475 601.179C452.49 601.874 452.31 602.54 451.934 603.176C451.55 603.802 451.031 604.333 450.377 604.77ZM449.276 602.62C449.775 602.286 450.135 601.877 450.356 601.392C450.577 600.908 450.656 600.39 450.592 599.839C450.54 599.281 450.336 598.735 449.98 598.203C449.632 597.682 449.21 597.291 448.714 597.029C448.221 596.749 447.709 596.618 447.177 596.637C446.644 596.657 446.129 596.833 445.63 597.166C445.142 597.493 444.786 597.907 444.561 598.41C444.329 598.903 444.239 599.428 444.291 599.986C444.347 600.526 444.553 601.062 444.909 601.594C445.265 602.126 445.685 602.527 446.17 602.796C446.666 603.058 447.186 603.175 447.729 603.149C448.273 603.122 448.788 602.946 449.276 602.62Z" fill="#737373"/>
</svg>
