<svg width="568" height="676" viewBox="0 0 568 676" fill="none" xmlns="http://www.w3.org/2000/svg">
<path d="M373.013 136.9C368.613 136.1 362.813 135.8 355.313 135.8C355.113 135.8 354.913 135.9 354.813 136C354.213 136.4 354.313 137.3 355.013 138.7C355.713 140.1 356.513 140.9 357.313 140.9C358.213 141 359.613 141.1 361.513 141.3C363.413 141.5 365.013 141.6 366.113 141.7C367.213 141.8 368.613 141.9 370.213 142C371.813 142.1 373.313 142.1 374.613 142.1C374.813 142.1 374.913 142.1 375.013 142.1C375.713 141.7 375.713 140.8 375.113 139.3C374.613 137.9 373.813 137 373.013 136.9Z" fill="black"/>
<path d="M284.713 108.7C285.913 108.3 287.713 107.5 290.213 106.7C292.713 105.8 294.713 105.3 296.113 104.9C297.613 104.5 299.313 104 301.413 103.5C303.513 103 305.713 102.4 307.813 101.3C308.113 101.2 308.313 101 308.513 100.9C309.613 99.8 309.413 98.7 308.113 97.7C306.813 96.7 305.613 96.4 304.613 96.7C303.113 97.1 301.613 97.4 299.913 97.8C298.213 98.2 296.313 98.6 294.313 99.2C290.313 100.4 285.813 102.1 281.013 104.6C280.713 104.7 280.513 104.9 280.313 105.1C279.613 105.9 280.013 106.8 281.313 107.7C282.513 108.8 283.713 109.1 284.713 108.7Z" fill="black"/>
<path d="M566.313 323C565.213 305.8 563.513 288.1 560.713 269.8C557.913 251.5 554.313 232.8 550.013 213.6C547.813 204 545.313 193.8 540.313 184.2C535.413 174.6 528.413 165.9 519.813 158.8C511.213 151.7 501.113 146.2 489.913 143.1C478.713 140 467.013 139.5 455.513 140.3C450.113 140.7 445.313 141.4 440.913 142.1C434.313 143.3 429.513 144.4 426.613 145.3C426.413 145 426.313 144.6 426.213 144.4C425.013 142.2 423.513 140.7 422.213 139.7C420.813 138.7 419.613 138.2 418.613 137.9C417.613 137.7 417.013 137.7 416.613 137.9C416.313 138.1 416.213 138.5 416.413 139C416.813 140 417.913 141.2 419.113 142.9C420.313 144.6 421.713 146.9 422.213 149.9C422.613 152 422.413 154.1 421.913 156.1C421.413 158.2 420.613 160.2 419.713 162.2C418.813 164.2 417.713 166.2 416.713 168.3C415.613 170.4 414.513 172.5 413.413 174.6C408.913 183.2 403.913 192.3 397.913 201.8C394.913 206.5 391.713 211.4 388.113 216.2C386.313 218.6 384.513 221.1 382.613 223.2C381.713 224.2 380.713 225.2 379.713 225.9C379.213 226.3 378.713 226.6 378.213 226.9C377.713 227.2 377.213 227.4 376.713 227.5C375.813 227.8 374.713 227.9 373.813 227.7C373.313 227.6 372.913 227.5 372.513 227.4C372.113 227.2 371.913 227 371.613 226.9C371.413 226.7 371.313 226.5 371.113 226.3C371.013 226.1 370.813 225.7 370.713 225.2C370.613 224.7 370.513 224.1 370.413 223.3C370.313 222.5 370.213 221.7 370.113 220.9C369.413 214.4 369.313 207.6 369.913 200.7C370.013 199.1 370.113 197.6 370.213 196.3C370.313 193.6 370.313 191.8 370.013 191C369.813 190.6 369.613 190.4 369.313 190.4C369.313 190.3 369.313 190.2 369.213 190.1C369.113 189.6 369.013 189.2 369.013 188.9V188.8C369.113 188.4 369.213 187.9 369.313 187.4C369.313 187.2 369.313 187.1 369.313 187C369.313 186.9 369.113 186.8 368.913 186.8C368.613 186.8 368.213 186.9 367.813 186.9C367.413 187 367.013 187 366.613 187.1C366.013 187.2 365.413 187.3 364.913 187.4C364.513 187.4 364.213 187.4 363.813 187.4V187.5C363.813 187.5 363.813 187.5 363.813 187.6C362.413 187.9 360.913 188.3 359.513 189C358.713 189.4 358.013 189.8 357.213 190.4C356.813 190.7 356.513 191 356.213 191.3C355.913 191.6 355.613 191.9 355.313 192.2C354.113 193.5 352.813 194.8 351.613 196.2C350.413 197.6 349.113 198.9 347.813 200.2C346.513 201.5 345.013 202.8 343.613 204.1C340.713 206.7 337.513 208.9 333.913 210.6C330.313 212.2 326.213 213.3 322.113 213.5C320.013 213.6 317.913 213.6 315.813 213.3C313.713 213 311.713 212.6 310.013 211.8C308.313 211 307.113 210 306.413 208.8C305.713 207.6 305.313 205.9 305.213 203.9C305.113 201.9 305.413 199.5 305.813 197C306.313 194.4 306.713 191.8 307.213 189.1C307.413 187.8 307.613 186.7 307.613 185.6C307.713 184.2 307.713 183.1 307.613 182.3C308.813 182.1 309.813 182 310.813 181.8C312.613 181.5 314.613 181 316.813 180.3C319.013 179.6 321.413 178.6 323.813 177.2C328.713 174.5 332.613 171.5 335.913 168.2C336.413 167.8 336.713 167.4 337.013 167.1C337.813 165.9 338.213 164.9 338.213 164.2C338.213 163.5 337.713 163 336.913 162.7C335.213 162.2 333.613 162.9 331.813 164.5C329.313 166.7 326.413 168.8 323.113 170.7C319.813 172.6 316.113 174.3 312.013 175.3C309.913 175.8 307.713 176.2 305.413 176.6C304.213 176.8 303.113 176.9 301.813 177L300.913 177.1H300.413H300.213H300.113C299.913 177.1 299.713 177 299.513 177C299.213 176.9 298.913 176.9 298.713 176.6C298.513 176.3 298.713 175.9 298.813 175.6C298.913 175.5 298.913 175.4 299.013 175.3L299.113 175.2L299.213 174.2C299.313 172.8 299.513 171.3 299.613 169.9C299.613 169.5 299.613 169.1 299.613 168.7C299.813 168.6 299.913 168.5 300.113 168.4C301.213 167.5 302.113 166.5 302.713 165.4C303.313 164.3 303.713 163.3 303.913 162.2C304.213 160.9 304.113 160 304.113 159.4C303.813 157 302.913 155.8 302.213 155.2C301.513 154.7 300.813 154.8 300.213 155.4C299.613 156 299.213 156.8 299.013 157.8C298.813 158.7 298.713 159.9 298.313 161.2C298.013 162.3 297.313 163.4 296.313 164C295.813 164.3 295.313 164.5 294.713 164.5C294.113 164.6 293.413 164.6 292.713 164.8C291.913 165 291.113 165.5 290.413 166C289.713 166.5 289.113 167 288.413 167.5C287.113 168.5 285.813 169.6 284.413 170.6C283.013 171.6 281.613 172.3 280.113 172.8L279.513 173C279.313 173 279.213 173 279.113 173.1C278.813 173.1 278.613 173.1 278.313 173.1C277.813 173.1 277.313 173 276.913 172.8C276.513 172.6 276.113 172.3 276.013 171.8C275.913 171.4 275.913 170.9 276.013 170.5L276.113 170.2V170.1C276.113 170.1 276.113 170.1 276.113 170V169.8C276.113 169.3 276.113 168.7 276.213 168.2C276.213 167.1 276.313 166 276.313 164.9C276.513 160.5 276.813 155.8 277.213 150.9C277.313 150.2 277.213 149.6 277.213 149C277.113 148 276.913 147.4 276.613 147C276.813 146.6 277.013 146.1 277.213 145.6C278.513 142.3 278.813 139.2 278.913 136.6C278.913 135.9 278.913 135.3 278.913 134.9C278.513 131.8 277.513 130.9 275.913 131.6C274.313 132.3 273.613 134 273.313 136.7C273.113 138.5 272.813 140.4 272.213 142.3C271.613 144.2 270.613 145.9 269.113 147.2C267.713 148.5 265.813 149.5 264.113 149.4C263.313 149.4 262.413 149.2 261.713 148.7C261.013 148.3 260.413 147.7 259.913 146.9C258.913 145.4 258.413 143.3 258.413 141.1C258.413 140 258.513 139 258.813 137.9C259.113 136.8 259.513 135.8 260.013 134.9C260.513 134 261.113 133.4 261.613 133C261.913 132.8 262.213 132.7 262.413 132.7C262.613 132.7 262.913 132.6 263.113 132.7C263.613 132.7 264.213 133 264.413 133.3C264.513 133.4 264.613 133.6 264.713 133.7C264.813 133.9 264.813 134.1 264.913 134.3C264.913 134.5 265.013 134.6 265.113 134.8C265.213 135 265.513 135.2 265.913 135.3C266.313 135.4 266.913 135.6 267.713 135.4C268.513 135.2 269.213 134.7 269.513 133.9C269.813 133.1 269.813 132 269.113 130.9C268.413 129.7 267.113 128.1 264.613 127.5C263.913 127.3 263.113 127.2 262.313 127.3C263.713 126.7 264.613 125.1 265.013 122.6C265.213 121.4 265.413 120.2 265.613 118.9C266.413 119.1 267.413 119.3 268.413 119.6C270.013 120 271.413 120.4 272.713 120.6C272.913 120.6 273.013 120.7 273.113 120.7C273.813 120.5 274.113 119.6 273.813 118C273.513 116.4 273.013 115.4 272.213 115.1C270.613 114.4 268.713 113.8 266.513 113.3C267.513 108.3 268.713 102.8 270.313 96.9C270.613 95.7 271.013 94.4 271.413 93.2C271.613 92.6 271.813 92 272.013 91.4C272.213 90.8 272.413 90.2 272.713 89.6C273.613 87.2 274.713 84.7 276.013 82.2C278.513 77.2 281.613 72 285.313 67C285.713 66.4 286.113 65.9 286.413 65.3C286.713 64.8 286.913 64.3 287.013 63.9C294.213 64.1 301.613 64.2 309.313 64.4C316.413 64.5 323.713 64.7 331.213 64.8C330.413 66 329.613 67.6 329.013 69.6C328.413 71.6 327.613 74.1 326.613 77.2C326.113 78.7 325.613 80.4 325.113 82.3C324.813 83.3 324.613 84.1 324.413 85.3C324.213 86.5 323.913 87.7 324.113 89C324.213 89.8 324.613 90.6 325.113 91.2C325.713 91.8 326.413 92.2 327.113 92.5C327.513 92.6 327.913 92.8 328.313 92.9C328.713 93 329.113 93.1 329.613 93.2C330.013 93.3 330.513 93.3 330.913 93.3C331.313 93.3 331.813 93.4 332.213 93.4C332.913 93.4 333.713 93.4 334.413 93.4C335.013 93.4 335.413 93.4 335.813 93.4C336.613 93.4 337.413 93.6 338.113 93.8C338.813 94.1 339.413 94.5 339.613 95.3C339.713 95.6 339.513 96 339.313 96.3C339.113 96.6 338.813 96.9 338.513 97.1C338.313 97.4 338.013 97.6 337.813 97.9L337.513 98.3L337.313 98.5V98.6L337.213 98.7L337.013 99C336.513 99.7 336.113 100.4 335.613 101.2C335.413 101.6 335.113 102 334.913 102.4L334.613 103L334.213 103.7L334.013 104.1L333.813 104.6C333.713 104.9 333.513 105.3 333.413 105.6C333.213 106.3 333.013 107 332.913 107.8C332.713 108.8 332.713 109.9 332.913 111C325.913 112.7 318.313 114.8 310.013 116.9C309.413 117.1 308.813 117.3 308.313 117.5C308.113 117.6 307.913 117.7 307.813 117.8C307.513 117.3 307.213 116.8 306.813 116.4C305.613 115.1 304.213 114 302.613 113.3C301.013 112.6 299.313 112.3 297.613 112.2C296.713 112.2 295.813 112.3 295.013 112.4C294.113 112.6 293.213 112.8 292.413 113.2C289.113 114.6 286.413 117.1 284.613 120.1C283.713 121.6 283.013 123.3 282.613 124.9C282.113 126.6 281.913 128.3 281.813 129.9C281.813 131 281.813 132.1 282.013 133C282.313 134.8 282.913 135.8 283.413 136.2C284.013 136.6 284.513 136.3 285.113 135.5C285.213 135.4 285.313 135.2 285.413 135.1C285.913 136 286.413 136.8 286.813 137.4C287.513 138.5 288.413 139.7 289.713 141.2C290.113 141.7 290.513 142.1 290.913 142.6C291.413 143.4 292.113 144.1 292.913 144.7C294.113 145.6 295.713 146.3 297.413 146.5C299.113 146.7 301.213 146.4 302.913 145.1C304.713 143.7 305.713 141.8 306.513 140C307.313 138.2 308.013 136.5 308.713 134.5C309.413 132.5 309.913 130.3 310.013 127.9C310.113 125.9 309.913 123.8 309.413 121.7C310.413 122 311.613 122 312.913 121.7C315.513 121.1 319.713 120.2 325.313 118.9C329.713 117.9 333.413 117 336.413 116.4C336.913 116.8 337.513 117.2 338.113 117.5C338.813 117.8 339.513 118.1 340.213 118.4C340.613 118.6 341.013 118.7 341.313 118.9C342.713 119.5 344.113 120.1 345.313 120.8C347.613 122 349.813 123.3 351.813 124.5C351.713 125 351.813 125.7 352.213 126.6C352.813 128.1 353.613 128.9 354.413 129C355.413 129.2 356.913 129.4 359.013 129.7C361.113 130 362.713 130.3 363.913 130.5C365.113 130.7 366.613 130.9 368.313 131.1C370.113 131.3 371.613 131.5 373.113 131.6C373.313 131.6 373.513 131.6 373.613 131.6C374.413 131.3 374.513 130.4 374.013 128.8C373.513 127.2 372.813 126.3 372.013 126.1C368.213 125.2 363.113 124.5 356.913 124C357.113 123.9 357.313 123.7 357.413 123.3C357.613 122.4 356.813 121.1 355.413 120.1C353.113 118.4 350.613 116.8 347.813 115.3C347.213 115 346.513 114.6 345.913 114.3C347.413 114 349.013 113.6 350.713 113.3C354.713 112.5 358.313 111.8 361.713 111.1C361.613 111.5 361.613 111.9 361.613 112.2C361.813 112.9 362.413 113 363.413 112.8C365.413 112.2 367.413 110.5 369.613 107.9C370.913 106.4 372.713 104.6 375.113 102.6C376.313 101.7 377.713 100.7 379.213 99.8C380.713 98.9 382.513 98 384.413 97.4C388.213 96.1 391.813 95.9 394.713 96.4C397.613 96.9 399.713 98.1 400.913 99.4C402.113 100.7 403.013 102.6 403.413 104.9C403.613 106.1 403.613 107.4 403.513 108.7C403.513 109.4 403.313 110.1 403.213 110.8C403.013 111.5 402.913 112.2 402.713 113C401.013 118.8 397.513 123.3 393.813 126.2C393.313 126.6 392.913 126.9 392.613 127.1C391.513 128 390.813 128.8 390.613 129.5C390.313 130.2 390.513 130.8 391.113 131.4C392.413 132.5 394.713 132.5 397.513 130.5C399.013 129.4 400.513 128.1 401.913 126.6C402.613 127.5 403.513 128.7 404.113 130.2C404.613 131.4 404.813 132.5 404.913 133.4C405.013 134.3 405.013 135.1 405.013 135.9C405.013 136.7 405.113 137.8 405.613 139.2C406.013 140.5 406.813 141.9 407.813 143.3C410.013 145.9 413.013 147.6 416.113 148.1C416.513 148.2 416.913 148.2 417.213 148.2C418.213 148.1 418.813 147.8 419.113 147.3C419.413 146.8 419.413 146.2 419.113 145.4C418.513 143.8 417.613 143 416.513 142.6C416.313 142.5 416.213 142.5 416.013 142.4C415.913 142.1 415.713 141.6 415.613 141.2C415.513 140.6 415.413 140 415.513 139.4C415.713 138.2 416.213 137.4 416.913 136.7C417.513 136 418.313 135.4 419.113 134.8C419.913 134.3 420.813 133.7 421.713 133C423.013 132 424.413 130.9 425.813 129.8C427.213 128.7 428.713 127.6 429.913 126C430.513 125.2 431.113 124.3 431.413 123.3C431.713 122.3 431.713 121.1 431.413 120.1C431.113 119 430.413 118 429.613 117.2C429.213 116.8 428.713 116.4 428.213 116.1C427.913 115.9 427.713 115.8 427.413 115.7C427.113 115.5 426.813 115.5 426.713 115.4C426.013 115.1 425.213 114.9 424.513 114.8C423.813 114.7 423.013 114.6 422.413 114.2C422.113 114 421.913 113.6 421.913 113.2C421.913 112.8 422.113 112.4 422.413 112.1C422.913 111.4 423.513 110.9 424.113 110.3C424.613 109.8 425.113 109.2 425.713 108.7C426.513 107.8 427.313 107 428.113 106.1C428.913 105.2 429.713 104.4 430.613 103.3C430.813 103 431.013 102.7 431.313 102.4C431.613 102 431.813 101.6 432.013 101.2C432.413 100.4 432.713 99.5 432.913 98.6C433.313 96.2 432.513 93.7 430.913 91.7C430.013 90.7 429.213 90 428.313 89.3C427.413 88.6 426.413 88.1 425.313 87.7C424.213 87.3 423.213 87 422.213 86.8C421.713 86.7 421.213 86.6 420.713 86.5L420.313 86.4H420.113H420.013L419.813 86.3C419.213 86.1 418.713 86 418.213 85.8C418.013 85.7 417.713 85.6 417.713 85.3C417.713 85 417.913 84.7 418.113 84.5C418.513 84.1 418.913 83.7 419.213 83.4C419.813 82.6 420.513 81.6 421.113 80.4C421.813 79.2 422.313 77.9 422.613 76.4C422.813 75.7 422.913 74.9 422.913 74.1C422.913 73.3 422.913 72.3 422.813 71.4C422.513 69.6 421.713 67.8 420.613 66.3C420.013 65.6 419.413 65 418.613 64.4C418.213 64.1 417.813 63.9 417.413 63.6C416.913 63.3 416.613 63.2 416.313 63C414.913 62.3 413.613 61.9 412.513 61.6C410.613 61 408.613 60.3 406.313 59.6C404.913 59.2 403.613 58.8 402.313 58.7C402.113 58.7 402.013 58.7 401.913 58.6C401.913 58.3 402.013 57.9 402.013 57.6C402.113 55.4 401.713 53.4 401.213 51.5C400.713 49.6 400.013 47.9 399.313 46.2C398.513 44.5 397.713 42.9 396.713 41.2C396.213 40.4 395.713 39.6 395.113 38.8C394.813 38.4 394.513 38 394.213 37.6L393.313 36.5C388.413 30.7 382.113 26.2 375.513 22.6C368.913 19 361.913 16.1 354.713 13.5C347.513 10.9 340.213 8.7 332.813 6.4C325.413 4.1 317.613 1.9 309.313 0.6C307.213 0.3 305.113 0 302.613 0C300.213 0 297.513 0.2 294.813 1.2C294.613 1.3 294.413 1.3 294.213 1.4C293.913 1.5 293.713 1.5 293.413 1.6C292.313 2 291.513 2.5 290.813 3.2C289.713 3.9 288.713 4.7 287.813 5.6C285.813 7.4 284.313 9.5 283.113 11.6C280.613 15.8 279.113 20.1 277.813 24.1C277.313 25.7 276.813 27.3 276.313 28.8C276.013 29.4 275.813 30 275.513 30.5C274.713 32.1 273.913 33.7 273.113 35.3C271.513 38.7 269.813 42.6 269.913 47.2C269.913 48.5 270.113 49.7 270.413 51C269.713 54 269.213 56.3 269.013 57.9C268.613 57.9 268.113 57.9 267.713 57.9C261.513 57.9 255.413 57.8 249.413 57.8C246.113 57.8 243.513 57.8 241.513 57.8C227.013 58.1 221.113 59.1 223.813 60.7C226.413 62.3 234.713 63.2 248.513 63.4C259.013 63.5 270.113 63.8 281.813 64C281.413 64.4 281.013 64.8 280.613 65.3C278.713 67.7 275.813 71.7 272.513 77.6C269.213 83.5 267.113 88.6 266.013 92.5C264.913 96.3 263.613 101 262.413 106.7C262.013 108.6 261.613 110.5 261.313 112.4C259.113 112.1 256.813 111.9 254.213 111.8C254.013 111.8 253.813 111.8 253.613 112C252.913 112.4 252.913 113.3 253.613 114.7C254.313 116.2 255.013 116.9 255.913 117.1C256.813 117.3 258.313 117.5 260.313 117.9C260.413 117.9 260.413 117.9 260.513 117.9C260.313 119.5 260.113 121 259.913 122.5C259.813 123.2 259.813 123.7 259.813 124.1C259.913 126.2 260.413 127.4 261.313 127.7C261.213 127.7 261.113 127.7 261.013 127.8C259.513 128.2 258.013 129.1 256.713 130.5C255.513 131.9 254.713 133.4 254.113 134.9C253.513 136.4 253.113 137.9 253.013 139.4C252.813 140.9 252.813 142.3 252.913 143.6C253.013 144.9 253.313 146.1 253.613 147.2C253.913 148.3 254.513 149.5 255.213 150.7C256.013 151.9 257.113 153.1 258.613 154.1C260.113 155.1 262.013 155.7 264.013 155.8C266.013 155.9 268.213 155.4 270.013 154.4C270.713 154 271.413 153.6 272.013 153.2C271.713 156 271.213 160.1 270.813 165.5C270.713 167 270.613 168.4 270.513 169.8C270.513 170.1 270.513 170.5 270.413 170.8C270.413 171.2 270.413 171.6 270.413 172.1C270.413 172.9 270.413 173.8 270.613 174.6C270.813 176.2 271.713 177.5 272.813 178.3C273.913 179.1 275.213 179.5 276.413 179.7C277.613 179.9 279.013 179.8 280.513 179.5C282.113 179.1 283.213 178.7 284.413 178.2C286.813 177.1 289.113 175.4 291.113 173.7C292.113 172.8 293.113 172 294.013 171.3C294.013 171.3 294.013 171.3 294.113 171.3C294.113 171.3 294.113 171.3 294.113 171.4C293.913 172.8 293.613 174.5 293.413 176.7C293.313 177.8 293.113 179.2 293.113 180.6C293.113 181.3 293.213 182.1 293.713 182.7C294.213 183.3 295.013 183.6 295.713 183.7C296.513 183.8 297.213 183.8 298.113 183.8C298.913 183.8 299.713 183.7 300.613 183.6C301.913 183.5 303.113 183.4 304.313 183.2C303.113 184.9 302.213 187.4 301.513 190.8C301.313 192.1 301.013 193.5 300.713 195.2C300.413 196.8 300.013 198.7 299.813 200.7C299.613 202.7 299.513 205 299.913 207.5C300.313 209.9 301.313 212.7 303.513 214.9C305.713 217 308.513 218.2 311.013 218.9C313.613 219.6 316.013 219.9 318.413 220C323.113 220.2 327.213 219.6 330.613 218.7C332.313 218.3 334.113 217.7 335.913 216.9C337.713 216.1 339.613 215.2 341.513 214C343.413 212.8 345.313 211.4 347.013 209.9C347.913 209.1 348.813 208.3 349.613 207.5C350.013 207.1 350.513 206.7 350.913 206.3C351.313 205.9 351.813 205.5 352.213 205C354.013 203.2 355.713 201.4 357.213 199.7C357.913 198.9 358.713 198.1 359.413 197.3C359.813 196.9 360.113 196.6 360.513 196.2L361.013 195.7L361.313 195.4C362.213 194.7 363.313 194.2 364.913 193.8C365.613 193.6 366.313 193.4 367.113 193.3C366.013 195.3 365.213 198.1 364.813 201.8C363.213 202.4 361.413 203.5 359.413 205.1C357.513 206.7 355.013 208.7 352.013 211.2C351.313 211.8 350.513 212.5 349.713 213.2C348.913 213.9 348.113 214.7 347.213 215.4C346.313 216.2 345.413 217 344.513 217.8C343.613 218.7 342.713 219.6 341.713 220.5C334.013 228 328.413 234.5 324.513 239.5C320.613 244.5 316.113 250.9 311.413 259.1C306.813 267.3 303.213 275.1 300.413 282.2C300.013 283.2 299.713 284 299.513 284.6C299.213 285.8 298.913 286.9 298.813 287.7C297.213 287.1 295.413 286.5 293.313 285.9C291.113 285.3 288.713 284.7 285.613 284.5C284.013 284.5 282.313 284.6 280.413 285.2C278.513 285.8 276.313 287.4 275.113 289.5C273.913 291.6 273.513 293.8 273.613 295.8C273.713 297.8 274.413 299.7 275.313 301.3C275.513 301.6 275.613 301.8 275.813 302.1C274.313 302.6 272.713 303.3 271.013 304.4C269.213 305.6 267.613 307.1 266.413 308.8C265.213 310.4 264.313 312.2 263.613 313.8C263.413 314.3 263.313 314.6 263.213 314.9C262.913 317.1 263.713 318 265.413 317.8C267.113 317.7 268.213 316.8 269.013 315.4C270.113 313.4 271.613 311.5 273.513 310C275.413 308.5 277.813 307.6 280.413 307.1C283.013 306.7 285.913 306.8 288.913 307.3C291.913 307.8 295.113 308.8 298.213 310.2C298.613 310.4 298.913 310.5 299.213 310.5C300.513 310.7 301.213 310 301.213 308.3C301.213 306.6 300.413 305.4 299.013 304.7C297.313 303.9 294.713 302.7 290.713 301.7C287.213 300.9 284.213 300.7 281.713 300.8C281.213 300 280.713 299.2 280.213 298.2C279.413 296.7 279.213 294.9 279.813 293.3C280.113 292.5 280.513 291.8 281.113 291.3C281.713 290.8 282.413 290.5 283.213 290.4C284.813 290.1 286.713 290.3 288.613 290.7C290.513 291.1 292.513 291.7 294.613 292.4C296.713 293.1 298.813 293.9 301.313 294.7C303.513 295.4 305.713 296.2 307.913 297.2C312.313 299.1 316.813 301.6 321.113 304.7C321.613 305.1 322.113 305.4 322.613 305.6C323.713 306.1 324.513 306.2 325.013 305.8C325.413 306.3 325.813 306.9 326.213 307.6C327.913 310.3 329.213 313.3 330.213 316.5C330.713 318.1 331.213 319.7 331.613 321.4C332.113 323.1 332.613 324.8 333.213 326.5C334.313 330 335.513 333.5 336.713 337.2C337.313 339 337.913 340.9 338.513 342.8C339.313 345.2 340.113 347.8 340.913 350.5C342.413 350 343.913 349.5 345.513 348.9C346.313 348.6 347.113 348.4 347.913 348.1C348.613 347.9 349.213 347.7 349.913 347.5C351.113 347.2 352.413 346.8 353.613 346.5C354.913 346.2 356.113 345.9 357.413 345.5C362.513 344.3 367.913 343.2 373.413 342.4C379.013 341.6 384.713 341 390.713 340.8C393.713 340.7 396.713 340.6 399.813 340.7C401.213 340.7 403.113 340.9 406.113 340.2C408.813 339.5 411.213 337.8 412.413 335.2C412.813 334.2 413.113 333.2 413.213 332.1C413.313 331.6 413.313 331 413.313 330.4V329.1C413.313 327.8 413.313 326.6 413.313 325.3C413.313 322.8 413.313 320.2 413.513 317.7C413.613 315.2 413.813 312.7 414.213 310.2C414.613 307.8 415.213 305.4 416.013 303.3C416.313 302.6 416.513 301.9 416.813 301.4C417.113 300.8 417.313 300.2 417.513 299.7C418.013 298.6 418.513 297.8 418.813 297.1C418.913 296.8 419.013 296.6 419.113 296.4C419.213 296.4 419.313 296.4 419.413 296.4C424.913 295.8 431.013 295.3 437.713 294.9C444.413 294.6 451.713 294.5 459.613 295.1C463.513 295.4 467.413 295.8 470.913 296.5C474.513 297.1 477.813 298 480.713 299.3C483.613 300.6 486.013 302.2 487.713 304.1C489.213 305.8 490.413 308 490.813 310.3C490.913 310.9 491.013 311.5 491.013 311.9C491.013 312.4 491.013 312.8 491.013 313.1C491.013 314.4 490.913 315.3 490.713 316.1C490.713 316.5 490.513 316.8 490.513 317.1C490.413 317.4 490.313 317.6 490.313 317.9C490.113 318.8 490.213 319.6 491.113 319.8C491.213 319.8 491.313 319.8 491.413 319.8C489.113 323.6 486.213 330 482.313 338.9C474.513 356.3 464.813 375 452.713 394.4C449.613 399.2 446.513 404.1 443.113 409.1C441.413 411.5 439.813 414.2 437.913 416C436.013 417.8 433.613 418.3 430.813 417.9C428.113 417.5 425.313 416.3 422.413 415C421.013 414.4 419.513 413.7 418.113 413.1C416.713 412.4 415.213 411.7 413.813 411.1C408.013 408.3 402.213 405.4 396.313 402.2C384.613 395.8 372.813 388.7 361.113 380.6C355.213 376.5 349.413 372.2 343.613 367.7L341.413 366C341.013 365.7 340.513 365.4 340.113 365C339.713 364.7 339.213 364.4 338.713 364.1C336.813 362.9 334.713 362.1 332.713 361.4C328.513 360.1 324.313 359.7 320.313 359.5C316.313 359.3 312.513 359.4 308.813 359.2C306.913 359.1 305.113 358.9 303.513 358.6C301.913 358.3 300.613 357.8 299.613 357.2C299.413 357 299.113 356.9 298.913 356.7C298.813 356.6 298.713 356.5 298.613 356.4L298.513 356.3L298.413 356.2C298.213 356 297.913 355.4 297.513 354.8C296.913 353.5 296.313 351.7 295.613 349.8C294.913 347.9 294.213 345.8 293.113 343.5C292.513 342.4 291.813 341.1 290.713 339.9C289.713 338.7 288.013 337.4 286.213 336.8C284.513 336.1 282.413 335.9 280.813 336.1C280.413 336.2 280.013 336.2 279.613 336.3C279.213 336.4 278.713 336.5 278.313 336.6C277.913 336.7 277.413 336.9 277.013 337.1C276.613 337.3 276.113 337.5 275.713 337.8C274.013 338.8 272.713 340.4 271.813 341.7L271.213 342.7C271.113 342.9 271.013 343 271.013 343.2L270.913 343.5L270.813 343.6C270.713 343.8 270.613 344 270.513 344.1C270.413 344.2 270.113 344.2 270.113 344C270.013 343.8 270.013 343.6 270.013 343.5C270.013 343.4 270.013 343.4 270.013 343.3L269.813 342.1L269.613 340.6C269.413 338.7 269.313 336.5 269.413 335.2C269.513 334.5 269.613 334 269.713 333.8C269.813 333.5 269.813 333.6 270.013 333.5C270.313 333.3 271.313 332.7 272.613 332.4C274.013 332 275.313 331.8 276.613 331.7C279.213 331.5 281.413 331.7 283.113 332C284.813 332.3 286.113 332.6 286.913 332.7C288.513 333 288.713 332.3 286.813 330.7C284.913 329.1 281.613 327.5 276.913 327.2C274.613 327.1 271.913 327.2 269.213 328.1C267.913 328.5 266.513 329.2 265.613 330.3C264.613 331.4 264.113 333 263.913 334.6C263.813 336 263.813 337.6 263.913 339.2C261.913 338.7 259.713 338.1 257.413 337.4C254.213 336.5 250.813 335.2 248.113 333.1C247.913 333 247.813 332.9 247.613 332.9C247.213 332.9 246.813 333.2 246.413 334C245.413 332 243.713 329.8 241.313 327.2C239.213 324.9 236.513 322 233.213 318.4C229.813 314.9 226.113 310.5 221.113 306C216.213 301.5 211.013 298 205.713 296.1C206.213 294.7 206.613 293.2 207.113 291.7C207.813 288.9 208.513 285.9 208.913 282.8C209.313 279.7 209.613 276.5 209.713 273.3C209.713 272.5 209.713 271.7 209.713 270.9C209.713 270.2 209.613 269.4 209.613 268.7C209.513 268 209.413 267.4 209.313 266.7C209.213 266 209.113 265.5 209.013 264.9C208.913 264.3 208.713 263.8 208.613 263.2C208.413 262.7 208.313 262.1 208.113 261.6C207.913 261.1 207.213 260.6 206.513 260.4C205.713 260.3 205.113 260.5 204.513 260.7C204.013 261 203.513 261.3 203.213 261.6L202.213 262.7C202.013 262.9 201.913 263 201.713 263.2L201.213 263.8C200.913 264.2 200.513 264.6 200.213 265.1L199.913 265.4C199.813 265.5 199.713 265.7 199.613 265.9L199.013 266.9C198.613 267.6 198.213 268.2 197.813 268.9C197.613 269.2 197.413 269.5 197.213 269.9L196.613 271.3C196.213 272.3 195.813 273.2 195.413 274.2C195.013 275.2 194.613 276.1 194.113 277.2C193.713 278.3 193.313 279.4 192.913 280.6C192.513 281.7 192.013 282.9 191.613 284.1L190.913 285.9L190.313 287.5C189.513 289.7 188.713 291.9 187.913 294.1C184.713 294.4 181.213 295.1 177.613 296.2C175.213 297 172.713 297.9 170.113 299.1C168.813 299.7 167.513 300.4 166.113 301.3C164.713 302.2 163.313 303.3 162.113 304.7C159.613 307.4 158.013 310.9 157.313 314.2C156.613 317.5 156.513 320.7 156.713 323.7C156.913 326 157.313 328.2 157.713 330.3C157.213 330.2 156.813 330.3 156.313 330.5C155.613 330.8 154.713 331.4 153.813 332.4C152.913 333.4 152.013 334.8 151.413 336.7C150.813 338.6 150.813 340.5 151.013 342.2C151.213 343.8 151.713 345.2 152.113 346.4C153.013 348.7 154.613 351.4 157.113 354C159.613 356.6 162.113 358.4 164.313 359.9C164.613 360.1 164.813 360.3 165.013 360.4C166.513 361 167.413 360.4 167.813 358.8C168.313 357.2 167.913 355.9 166.813 354.9C165.313 353.6 163.613 352.1 162.013 350.5C160.413 348.8 158.913 346.9 157.913 344.8C156.913 342.7 156.413 340.3 156.913 338.3C157.113 337.4 157.613 336.6 158.213 335.9C158.513 335.6 158.813 335.3 159.113 335.1C159.213 335.4 159.313 335.7 159.413 336C159.813 337.2 160.313 338.5 161.013 340C161.813 341.7 162.913 343.1 163.913 344C166.513 346.3 169.313 347.1 171.713 347C171.113 347.6 170.713 348.3 170.413 349.2C170.113 350.2 169.813 351.5 169.413 353.1C169.013 354.7 168.513 356.9 168.213 359.8C168.013 361.2 168.013 362.6 168.013 363.7C168.013 364.9 168.113 365.9 168.513 366.8C168.813 367.7 169.413 368.5 170.113 369C170.913 369.5 171.713 369.7 172.413 369.7C173.413 369.7 174.413 369.5 175.513 369.1C176.013 369.6 176.613 370.2 177.213 370.9C177.913 371.7 178.513 372.7 178.913 373.7C178.413 373.7 178.013 373.8 177.513 373.9C174.313 374.4 173.413 375.3 174.813 376.8C175.913 377.9 177.513 378.6 179.813 378.9C179.713 381.1 179.113 383.4 178.113 385.5C176.913 387.9 175.113 390.1 172.813 391.6C171.713 392.3 170.413 392.9 169.213 393.1C167.913 393.4 166.613 393.3 165.313 393.1C162.713 392.5 160.213 390.9 158.613 388.8C157.013 386.6 156.413 384.1 157.113 381.6C157.713 379.1 159.513 376.6 161.813 375.2C162.913 374.5 164.213 374.1 165.313 374C166.413 373.9 167.713 374.1 168.613 374.5C169.013 374.7 169.413 374.9 169.713 375C170.313 375.3 170.613 375.3 171.113 375.2C171.613 375.1 172.113 374.8 172.513 374C172.913 373.2 172.913 372.2 172.313 371.3C171.713 370.3 170.513 369.4 168.913 369C167.013 368.5 164.413 368.2 161.313 369.3C158.313 370.4 154.913 372.8 152.713 376.9C151.613 379 151.013 381.2 150.913 383.4C150.813 385.6 151.313 387.8 152.113 389.6C152.213 389.8 152.313 390 152.413 390.2C151.313 390.3 150.113 390.4 148.913 390.2C147.413 390 146.013 389.6 144.813 388.8C143.613 388 142.913 386.9 142.513 385.5C142.113 384.2 142.113 382.6 142.313 381C142.513 379.4 142.913 377.7 143.613 376.3C144.313 374.8 145.313 373.6 146.413 372.8C146.713 372.6 147.013 372.4 147.213 372.3C147.513 372.2 147.813 372 148.013 372C148.513 371.9 149.013 371.9 149.613 371.9C150.113 372 150.713 372.1 151.213 372.4C151.613 372.6 152.013 373 152.013 373.2C152.013 373.3 152.013 373.3 152.113 373.3C152.113 373.3 152.113 373.3 152.213 373.3C152.313 373.3 152.313 373.3 152.513 373.2C152.713 373.2 152.813 373.1 153.013 373.1C153.413 373 154.013 372.8 154.713 372.3C155.413 371.8 155.813 371.2 155.813 370.5C155.813 369.8 155.513 369 154.813 368.4C154.013 367.7 152.713 366.9 150.913 366.5C149.113 366.1 146.713 366.1 144.213 367.4C141.813 368.7 140.013 370.7 138.913 372.7C137.813 374.6 137.113 376.5 136.713 378.2C136.313 379.8 136.113 381.7 136.213 383.9C136.313 385 136.413 386.2 136.913 387.6C137.213 388.6 137.713 389.7 138.413 390.7C138.013 390.7 137.513 390.7 137.113 390.8C134.413 390.9 131.613 389.7 130.113 387.4C128.513 385.2 127.813 382.2 128.013 379.2C128.213 376.2 129.613 373.2 131.613 372.1C132.113 371.8 132.513 371.7 133.013 371.6C133.513 371.5 134.013 371.5 134.513 371.6C135.013 371.7 135.413 371.9 135.713 372.1C136.013 372.3 136.013 372.6 135.913 372.7V372.8L137.713 371.4H137.813C137.913 371.4 138.013 371.3 138.113 371.2C138.513 371 139.013 370.8 139.413 370.8H139.313C139.413 370.8 139.413 370.8 139.513 370.7C139.613 370.6 139.713 370.5 139.813 370.4C140.113 369.9 139.913 369 139.313 368.4C138.713 367.6 137.513 366.8 135.913 366.3C134.213 365.8 132.013 365.7 129.513 366.7C127.513 367.5 126.013 368.9 124.913 370.3C124.813 369.6 124.413 369 123.813 368.4C123.013 367.7 121.913 366.9 120.313 366.4C119.513 366.2 118.513 366.1 117.413 366.2C116.313 366.4 115.213 366.7 114.113 367.4C111.913 368.7 110.213 370.6 109.213 372.4C108.213 374.3 107.613 376.1 107.413 377.8C107.213 379.4 107.213 381.4 107.713 383.5C107.913 384 108.013 384.6 108.213 385.1C108.313 385.4 108.413 385.6 108.513 385.9C108.613 386.2 108.813 386.5 109.013 386.8C109.313 387.4 109.713 387.9 110.113 388.4C110.513 388.9 110.913 389.4 111.413 389.9C111.613 390.1 111.813 390.2 111.913 390.4C111.013 390.5 110.113 390.5 109.213 390.4C107.813 390.1 106.513 389.5 105.313 388.7C102.913 387 100.913 384.3 100.013 381.4C99.6126 379.9 99.4126 378.4 99.7126 377C99.9126 375.7 100.613 374.3 101.513 373.4C102.413 372.5 103.513 371.9 104.313 372C105.213 372 106.313 372.4 106.613 373C106.713 373.1 106.813 373.2 106.913 373.2C107.113 373.2 107.313 373.1 107.713 372.9C108.113 372.7 108.613 372.4 109.213 371.8C109.713 371.2 110.013 370.5 109.913 369.8C109.813 369.1 109.313 368.4 108.513 367.9C107.613 367.3 106.313 366.7 104.413 366.6C102.613 366.5 100.213 367 98.1126 368.8C96.0126 370.6 94.7126 372.9 94.1126 375.1C93.5126 377.3 93.5126 379.5 93.7126 381.2C94.2126 384.6 96.0126 388.8 99.9126 392.4C101.913 394.2 104.313 395.6 107.213 396.3C108.613 396.6 110.213 396.7 111.713 396.6C113.213 396.4 114.713 396 116.013 395.4C116.613 395.1 117.013 394.9 117.413 394.6C119.413 395.6 121.613 396.3 123.913 396.5C124.513 396.6 125.113 396.6 125.513 396.6C127.013 396.4 128.113 395.9 128.613 395.3C128.713 395.2 128.813 395 128.913 394.9C129.113 395 129.413 395.2 129.613 395.3C132.213 396.6 135.113 397.1 138.013 396.7C138.813 396.6 139.513 396.4 139.913 396.2C140.913 395.8 141.613 395.3 142.113 394.7C142.413 394.9 142.613 395 142.913 395.1C144.413 395.8 145.913 396.2 147.313 396.4C150.113 396.8 152.613 396.5 154.913 395.9C155.413 395.8 155.813 395.7 156.113 395.5C157.113 396.4 158.113 397.1 159.113 397.7C159.713 398.1 160.513 398.4 161.213 398.8C162.013 399.1 162.813 399.4 163.613 399.6C164.413 399.8 165.413 399.9 166.313 400C167.313 400 168.213 400.1 169.313 399.9C173.513 399.4 177.513 397 180.613 393.4C182.113 391.6 183.313 389.6 184.113 387.5C184.113 387.4 184.213 387.3 184.213 387.2C185.313 387.7 186.613 388.1 188.213 388.2C191.613 388.6 197.013 389.1 204.313 389.9C211.613 390.7 217.413 391.3 221.613 391.7C225.913 392.1 231.113 392.6 237.313 393.3C243.513 393.9 249.213 394.4 254.313 394.8C255.013 394.9 255.613 394.9 256.013 394.9C259.113 394.8 260.413 393.9 259.813 392.2C259.213 390.6 257.513 389.5 254.513 389.2C238.513 387.1 215.913 385 186.913 382.8C186.413 382.8 185.913 382.8 185.513 382.8C185.613 382.2 185.713 381.6 185.713 381C185.713 380.6 185.713 380.2 185.713 379.8C189.413 379.9 194.413 380 200.513 380.1C208.913 380.3 215.513 380.6 220.313 380.8C225.213 381 231.213 381.3 238.313 381.6C245.413 381.9 251.913 382.2 257.713 382.5C258.513 382.5 259.213 382.6 259.613 382.6C263.113 382.4 264.613 381.5 263.913 379.9C263.213 378.3 261.213 377.3 257.813 377C240.313 375.4 216.013 374.2 184.913 374.5C184.913 374.4 184.913 374.4 184.913 374.3C184.613 373.2 184.113 372 183.513 371C183.413 370.9 183.313 370.8 183.313 370.6C184.013 370.7 184.713 370.8 185.513 370.8C189.413 370.9 195.513 371.1 203.813 371.4C212.113 371.7 218.713 371.8 223.513 372C228.313 372.1 234.313 372.3 241.413 372.5C248.513 372.7 254.913 372.8 260.713 372.8C261.513 372.8 262.113 372.8 262.613 372.8C266.113 372.5 267.513 371.5 266.813 369.9C266.113 368.3 264.013 367.4 260.613 367.2C242.313 366.2 216.713 365.7 183.613 365.5C182.813 365.5 182.113 365.5 181.513 365.6C181.613 365.5 181.613 365.5 181.713 365.4C182.213 364.8 182.613 364.3 183.113 363.6C183.513 363 184.013 362.3 184.413 361.7C184.813 361 185.313 360.3 185.713 359.7L186.013 359.2L186.213 358.9L186.613 358.3C187.313 357.3 187.913 356.3 188.413 355.3C188.813 355.2 189.313 355 189.713 354.8C190.813 354.3 191.913 353.7 193.013 353C193.613 352.6 194.113 352.2 194.713 351.7C195.213 351.3 195.713 350.9 196.213 350.4C196.913 349.8 197.613 349.2 198.413 348.5C198.813 348.2 199.113 347.9 199.513 347.5L199.813 347.3L199.913 347.2H200.013L200.213 347.1C200.813 346.7 201.213 346.5 201.613 346.3C201.713 346.2 201.713 346.5 201.713 346.6C201.713 346.8 201.713 346.9 201.813 347C201.913 347.3 202.013 347.5 202.013 347.7L202.113 347.8C202.113 347.8 202.113 347.8 202.213 347.9L202.613 348.3C203.113 348.8 203.713 349.2 204.313 349.6C205.513 350.4 206.913 351 208.313 351.4C209.013 351.6 209.813 351.7 210.613 351.8C211.313 351.9 212.013 351.8 212.713 351.8C215.613 351.6 218.113 350.6 220.013 349.6C222.013 348.5 223.513 347.4 224.913 346.4C225.813 345.8 226.413 345.3 226.813 344.9C228.413 343.5 229.213 342.6 229.513 341.8C229.813 341.1 229.713 340.4 229.013 339.9C228.313 339.4 227.313 339.2 226.013 339.5C224.713 339.8 223.213 340.6 221.513 341.9C220.213 342.8 218.713 343.8 217.213 344.6C215.713 345.4 214.013 345.9 212.213 346C210.513 346.1 208.813 345.5 207.313 344.5C206.913 344.3 206.613 344 206.313 343.7C206.013 343.4 205.613 343 205.313 342.4C204.713 341.2 204.213 339.5 203.813 337.6C203.413 337.4 203.113 337.1 202.913 336.7L202.813 336.4C202.813 336.3 202.713 336.4 202.713 336.5L202.513 336.7L201.713 337.4C200.613 338.3 199.613 339.3 198.513 340.2C197.413 341.2 196.213 342.2 195.113 343.2C194.213 344 193.313 344.8 192.313 345.6C191.813 346 191.313 346.5 191.113 346.6C190.813 346.8 190.513 347 190.213 347.2C189.613 347.6 189.013 347.9 188.413 348.1C187.813 348.3 187.213 348.3 186.613 348.2C186.313 348.1 186.013 348 185.813 347.8C185.613 347.6 185.413 347.3 185.413 346.9C185.413 346.5 185.613 346.1 185.713 345.7C185.813 345.3 186.013 345 186.113 344.6C186.213 344.3 186.413 344 186.513 343.7L186.713 343.2C186.713 343.1 186.913 342.7 187.113 342.3C188.413 339.3 189.913 336.2 191.713 333.3C192.213 332.6 192.613 331.8 193.113 331.1C193.613 330.4 194.113 329.6 194.613 329C195.013 328.4 195.413 328.1 195.713 328C195.813 327.9 195.913 327.9 196.013 327.9L196.513 327.8C197.013 327.7 197.813 327.6 198.813 327.5C199.813 327.4 200.713 327.3 201.713 327.2C203.613 327 205.613 326.8 207.613 326.7C208.813 326.6 209.813 326.5 210.813 326.3C214.713 325.7 215.813 324.8 214.113 323.3C212.413 321.9 209.413 321.2 205.213 321.4C203.213 321.5 200.713 321.7 197.813 322C198.313 320.9 198.813 319.7 199.213 318.2C200.413 314.4 201.313 310.3 202.613 306C202.913 304.9 203.313 304 203.813 302.9C207.113 304.1 210.313 305.9 213.413 308.2C217.713 311.4 221.813 315.6 226.113 320C230.413 324.5 234.913 329.1 239.513 333.9C240.613 335 241.613 336 242.613 336.8C245.013 338.9 246.613 339.9 247.313 339.7C248.113 340.3 249.413 341.2 251.313 342.1C253.413 343.1 255.313 343.7 256.613 344.2C257.913 344.6 259.613 345.1 261.613 345.5C262.713 345.7 263.813 345.9 264.713 346.1C264.913 347.1 265.013 348.1 265.313 349.2C265.613 350.4 266.013 351.7 266.513 353C266.813 353.6 267.113 354.2 267.613 354.8C268.113 355.3 268.713 355.8 269.413 355.8C270.113 355.9 270.813 355.6 271.413 355.2C271.713 355 272.013 354.8 272.213 354.5C272.313 354.4 272.513 354.2 272.613 354.1L272.913 353.6C273.813 352.4 274.313 350.9 274.913 349.4C275.213 348.6 275.513 347.9 275.913 347.1C276.213 346.4 276.713 345.7 277.213 345.1C278.213 343.8 279.813 343.1 281.413 343C282.213 342.9 283.113 343 283.813 343.2C284.613 343.4 285.313 343.9 285.913 344.4C287.113 345.5 288.013 347.2 288.713 348.8C289.413 350.5 290.013 352.3 290.613 354.2C291.213 356.1 291.913 358 293.013 359.9C293.513 360.8 294.313 361.7 295.213 362.4C296.113 363.1 297.013 363.7 298.113 364.2C300.213 365.1 302.413 365.6 304.613 365.9C309.013 366.4 313.313 366.4 317.413 366.6C321.513 366.7 325.413 366.9 329.013 367.8C330.813 368.2 332.513 368.8 334.013 369.6C334.413 369.8 334.813 370 335.113 370.2C335.513 370.4 335.813 370.6 336.213 370.9C336.913 371.4 337.513 371.9 338.313 372.5C339.713 373.6 341.213 374.8 342.613 375.9C344.013 377 345.413 378 346.813 379.1C352.313 383.3 357.613 387 362.613 390.4C362.913 390.6 363.113 390.7 363.413 390.9C362.113 391 360.613 391.2 358.813 391.4C356.713 391.7 354.413 392.2 351.613 392.8C348.913 393.4 345.913 394.2 342.513 394.9C337.913 395.9 333.313 397 328.513 398.1C323.713 399.3 318.813 400.2 313.813 401.3C308.813 402.3 303.613 403.4 298.313 404.4C293.013 405.4 287.613 406.3 282.113 407.3C260.013 411.1 235.913 414.5 209.813 417C183.713 419.5 155.713 421.1 125.713 421.3C95.8126 421.5 64.0126 420.3 30.5126 417.1C26.6126 416.8 23.0126 416.3 19.7126 416.1C6.61262 415 2.61262 415.5 7.71262 417.6C10.2126 418.6 13.9126 419.6 18.6126 420.6C21.0126 421.1 23.6126 421.5 26.5126 422C29.4126 422.4 32.6126 422.7 36.0126 423.1C39.9126 423.5 44.5126 423.9 49.5126 424.4C54.6126 424.8 60.2126 425.1 66.5126 425.6C72.7126 426.1 79.5126 426.3 86.9126 426.6C90.6126 426.7 94.4126 427 98.4126 427C102.413 427.1 106.513 427.1 110.713 427.2C144.813 427.7 171.813 426.2 191.613 424.8C196.613 424.4 201.813 424 207.313 423.5C210.113 423.3 212.913 423 215.813 422.7C218.713 422.4 221.713 422.1 224.713 421.7C227.813 421.4 230.913 421 234.113 420.7C237.313 420.3 240.513 419.8 243.913 419.4C247.213 419 250.613 418.5 254.113 418C257.613 417.6 261.113 416.9 264.713 416.4C271.913 415.2 279.013 414.2 285.813 412.9C289.213 412.3 292.613 411.6 296.013 411C297.713 410.7 299.313 410.4 301.013 410.1C302.713 409.8 304.313 409.4 305.913 409.1C312.413 407.7 318.713 406.3 324.913 405C331.013 403.5 337.013 402.1 342.813 400.7C346.113 400 348.613 399.2 350.513 398.7C358.713 396.3 364.013 394.4 366.413 393.1C369.913 395.4 373.313 397.6 376.513 399.5C380.613 402 384.913 404.5 389.613 407.1C389.613 407.7 389.613 408.5 389.713 409.3C389.813 411 389.913 413.1 389.513 415.6C389.313 416.8 389.113 418.2 388.613 419.6C388.113 421 387.513 422.4 386.713 423.8C385.013 426.6 382.513 429.2 379.213 431.5C374.813 434.5 369.813 436.6 364.613 438.3C359.313 440 353.813 441.2 348.213 442.3C342.513 443.3 336.713 444.1 330.713 444.8C324.713 445.5 318.513 446.1 312.213 446.8C309.013 447.2 305.913 447.7 302.713 448.1C299.513 448.5 296.313 449 293.013 449.4C286.513 450.2 279.813 450.9 273.013 451.6C259.413 452.9 245.213 454.1 230.513 455.1C215.813 456.1 200.513 457.1 184.713 457.9C168.913 458.7 152.613 459.2 135.713 459.5C102.013 460.1 66.1126 459.6 28.1126 458.6C23.6126 458.5 19.6126 458.4 15.9126 458.5C1.11262 458.5 -3.38738 459.3 2.51262 461C8.41262 462.7 19.2126 463.8 34.8126 464.2C43.7126 464.5 55.2126 464.8 69.2126 465.1C83.2126 465.4 99.8126 465.6 119.013 465.6C138.213 465.5 155.313 465.2 170.513 464.6C184.413 464.1 196.713 463.4 207.213 462.8C207.013 463.3 206.813 463.9 206.513 464.5C206.113 465.6 205.813 466.8 205.513 468.2C205.213 469.5 204.813 471 204.513 472.6C204.113 474.4 203.713 476.5 203.213 478.9C202.613 481.2 202.013 483.8 201.313 486.7C200.713 489.6 199.813 492.6 198.913 496C198.013 499.3 197.013 502.9 195.813 506.7C191.213 522 187.013 533.8 183.913 542.6C180.813 551.4 176.913 562.2 172.413 575.1C167.913 588.1 164.113 600 161.213 610.9C160.813 612.4 160.513 613.6 160.313 614.5C158.913 621.3 159.213 624.2 161.113 623.3C163.013 622.4 164.813 618.8 166.613 612.6C169.213 604.2 172.113 595 175.513 585.1C178.913 575.1 182.813 564.4 186.913 552.7C191.013 541.1 195.313 528.5 199.513 514.9C203.613 501.3 207.513 486.6 210.413 470.6C210.813 468.7 210.913 467 211.013 465.4C211.113 464.3 211.113 463.4 211.213 462.5C222.013 461.9 234.013 461.1 247.313 460.1C261.013 459 276.113 457.7 292.413 455.7C296.513 455.2 300.513 454.7 304.513 454.1C306.513 453.8 308.513 453.5 310.413 453.2C312.313 452.9 314.213 452.7 316.113 452.5C323.813 451.6 331.513 450.9 338.913 449.8C346.413 448.7 353.713 447.4 360.913 445.5C362.313 445.1 363.713 444.7 365.013 444.3C365.413 445.3 365.913 446.5 366.613 447.8C368.113 450.3 370.113 453.4 373.313 456.2C374.213 457.1 375.213 457.8 376.313 458.7C376.813 459.2 377.413 459.6 378.013 460C378.613 460.4 379.213 460.9 379.913 461.3C382.613 462.9 385.713 464.5 389.413 465.9C396.813 468.5 406.013 469.9 416.713 470.1C422.113 470.1 427.113 469.7 431.913 469.2C436.613 468.7 441.013 468.3 445.213 468.1C449.313 467.9 453.113 467.9 456.613 468.2C460.113 468.5 463.213 469.2 465.913 470C468.713 470.8 471.513 472 474.113 473.6C476.813 475.2 479.213 477.3 481.213 479.9C483.213 482.5 484.613 485.6 485.613 489.3C486.713 493 487.413 497.2 488.613 501.9C489.213 504.2 490.013 506.6 490.913 508.9L491.613 510.6L492.413 512.2C492.913 513.3 493.613 514.3 494.213 515.4C496.713 519.5 499.713 523.1 503.113 526.2C506.413 529.3 510.213 531.9 514.113 533.9C515.113 534.4 516.113 534.9 517.113 535.3C517.613 535.5 518.113 535.7 518.613 535.9C519.113 536.1 519.613 536.3 520.113 536.5C522.113 537.3 524.313 537.9 526.713 538.2C527.013 538.2 527.313 538.3 527.513 538.3C527.313 538.6 527.113 538.9 526.913 539.1C524.713 542 521.913 545.7 517.813 549.9C515.013 552.7 511.913 555.2 508.513 557.6C505.113 559.9 501.513 562.1 497.713 564C493.913 565.9 489.913 567.7 485.713 569.2C481.513 570.7 477.113 572.1 472.613 573.3C454.613 578.1 434.213 580.3 412.613 578.6C401.813 577.7 390.713 575.8 379.613 572.7C368.513 569.6 357.413 565.1 345.813 560.2C340.013 557.7 334.213 555.2 328.113 552.7C322.013 550.2 315.813 547.8 309.413 545.5C296.713 540.9 283.313 536.8 269.413 533.2C266.213 532.4 262.913 531.6 259.713 531.3C256.513 531 253.613 531 250.713 531.9C250.313 532 250.013 532.1 249.613 532.3C249.313 532.4 248.913 532.6 248.613 532.8C247.913 533.1 247.313 533.6 246.813 534C245.813 534.8 245.313 535.7 244.913 536.4C244.713 536.8 244.613 537.1 244.513 537.3C244.413 537.6 244.413 537.8 244.413 538C244.413 538.4 244.513 538.5 244.713 538.5C245.113 538.5 245.713 537.5 247.213 536.6C247.913 536.1 248.813 535.7 249.813 535.4C250.813 535.1 251.713 535 252.713 535C254.613 535 256.513 535.3 258.613 535.7C262.713 536.6 267.413 538.1 273.013 539.6C285.113 543 303.813 548.6 328.013 558.8C327.813 559 327.713 559.3 327.513 559.6C324.813 564.2 321.613 573 319.613 586.4C319.013 590.2 318.513 594.6 317.913 599.5C317.813 600.7 317.613 602 317.513 603.3C317.413 604.6 317.213 605.9 317.313 607.3C317.313 608 317.413 608.8 317.613 609.5C317.013 609.2 316.213 609.1 315.313 609.4C314.613 609.6 313.913 609.9 313.113 610.4C312.313 611 311.613 611.7 310.913 612.7C309.513 614.7 308.613 617.5 307.513 620.5C305.313 626.6 303.513 631.4 302.213 634.9C300.913 638.5 299.313 642.8 297.413 648C295.513 653.2 293.913 657.9 292.513 662.2C292.313 662.8 292.113 663.3 292.113 663.6C291.613 666.3 292.213 667.6 293.913 667.5C295.613 667.4 297.013 666.1 297.913 663.7C300.613 657.1 303.613 649.1 306.913 639.7C308.613 635 310.313 630 312.213 624.6C312.713 623.3 313.113 621.9 313.613 620.5C314.113 619.1 314.513 617.8 315.013 616.8C315.513 615.8 316.013 615 316.513 614.6C316.613 614.6 316.613 614.5 316.713 614.5H316.813L317.013 614.4C317.213 614.4 317.413 614.4 317.513 614.4C317.513 614.4 317.513 614.3 317.613 614.3C317.613 614.4 317.613 614.5 317.613 614.5V614.4V614.3C317.713 614.2 317.813 614 317.913 613.8C318.113 613.4 318.513 613 318.713 612.2C318.713 612.1 318.713 612 318.713 612C319.513 613 320.613 613.8 321.713 614.4C323.113 615.1 324.613 615.6 326.113 616C327.613 616.5 329.213 616.9 330.813 617.4C334.013 618.4 337.313 619.4 340.813 620.3C342.513 620.8 344.313 621.2 346.113 621.7C347.913 622.2 349.713 622.7 351.613 623.1C355.413 624 359.313 624.9 363.413 625.8C379.613 629.2 394.413 631.1 407.613 632.2C407.613 632.3 407.613 632.4 407.513 632.5C407.113 634.3 406.613 637.2 405.813 641.2C405.013 645.1 404.413 648.3 404.013 650.6C403.613 652.9 403.013 655.7 402.413 659.1C401.813 662.5 401.313 665.5 400.913 668.3C400.813 668.7 400.813 669 400.813 669.2C400.913 670.9 401.813 671.6 403.513 671.3C405.113 671 406.213 670 406.513 668.4C408.513 659.9 410.713 648 412.813 632.8C417.513 633.1 421.913 633.3 426.113 633.5C429.013 633.6 431.713 633.6 434.413 633.7C437.113 633.7 439.613 633.8 442.013 633.7C444.213 633.7 446.413 633.6 448.713 633.6C448.513 634.1 448.413 634.6 448.313 635.2C448.213 637.1 448.013 640.2 448.113 644.4C448.213 648.6 448.513 652 448.713 654.4C449.013 656.9 449.413 659.9 450.113 663.5C450.813 667.1 451.613 670.4 452.613 673.3C452.713 673.7 452.813 674 452.913 674.2C453.813 675.8 454.913 676.1 456.313 675.1C457.613 674.1 458.113 672.7 457.713 671.1C456.813 666.6 455.713 661.2 454.913 655C454.113 648.8 453.513 641.7 453.713 633.9C453.713 633.8 453.713 633.7 453.713 633.5C470.913 632.8 491.013 631 513.813 626.3C514.713 626.1 515.613 626 516.413 625.8C517.313 625.6 518.113 625.4 519.013 625.2C520.713 624.8 522.413 624.4 524.213 624C525.913 623.6 527.613 623.2 529.313 622.8C531.013 622.4 533.113 621.9 535.313 620.6C536.413 620 537.613 619.1 538.613 618C539.613 616.9 540.313 615.6 540.813 614.5C541.313 613.3 541.613 612.3 541.813 611.3C542.013 610.5 542.213 609.6 542.413 608.8C543.113 605.6 543.813 602.4 544.613 599.3C546.013 593 547.413 586.9 548.713 580.9C549.413 577.9 550.013 575 550.713 572.1C550.913 571.4 551.013 570.6 551.213 569.9C551.413 569.1 551.613 568.3 551.713 567.3C551.813 566.3 551.913 565.2 551.813 563.8C551.713 562.4 551.313 560.9 550.713 559.7C550.413 559 549.913 558.3 549.513 557.7C549.113 557.1 548.513 556.5 548.113 556.1C547.213 555.2 546.313 554.6 545.613 554.1C544.113 553.1 542.913 552.6 542.113 552.2C539.013 550.7 536.213 549.3 533.613 548.3C531.313 547.4 529.313 546.9 527.713 546.6C529.913 543.3 531.213 540.5 532.013 538.3C532.713 538.2 533.313 538.1 533.913 537.9C535.613 537.5 537.513 536.5 538.713 535.5C540.013 534.4 541.013 533.3 541.713 532.1C543.213 529.7 543.613 527.2 543.413 525.3C543.313 524.2 543.013 523.3 542.713 522.8C543.013 522.1 543.313 521.3 543.713 520.5C544.213 519.2 544.713 517.9 545.313 516.4C545.813 514.9 546.313 513.3 546.913 511.6C547.413 509.9 548.013 508 548.613 506.1C549.213 504.2 549.813 502.1 550.313 499.9C551.013 497 551.813 494 552.613 490.9C553.013 489.4 553.413 487.9 553.713 486.3C554.013 484.8 554.413 483.2 554.713 481.6C555.413 478.5 556.113 475.3 556.813 472.1C557.413 468.9 558.013 465.6 558.713 462.3C559.013 460.7 559.313 459 559.613 457.3C559.913 455.6 560.113 453.9 560.413 452.2C560.913 448.8 561.513 445.4 562.013 441.9C562.513 438.4 562.913 434.9 563.413 431.3C563.613 429.5 563.913 427.7 564.113 425.9C564.313 424.1 564.513 422.3 564.613 420.5C566.213 405.9 567.013 390.6 567.413 374.7C567.813 356.8 567.313 340.2 566.313 323ZM304.413 128.8C304.213 130.6 303.513 132.6 302.613 134.9C302.113 136 301.613 137.5 301.013 138.5C300.513 139.6 299.813 140.4 299.513 140.4C299.313 140.5 299.113 140.5 298.913 140.5C298.713 140.5 298.513 140.5 298.213 140.4C297.713 140.3 297.113 140 296.613 139.6C295.913 139 295.313 137.7 295.013 136.1C294.913 135.6 294.913 135.3 294.813 135C294.313 132.9 293.513 131.7 291.813 132.2C291.513 132.3 291.313 132.4 291.013 132.6C289.913 131 288.913 129.3 287.913 127.4C288.313 125.8 288.913 124 290.213 122.2C291.013 121.1 292.013 120 293.313 119.2C294.613 118.4 296.113 117.9 297.813 117.9C299.413 117.9 300.913 118.5 301.913 119.3C302.913 120.1 303.513 121.1 303.813 122.2C304.213 123.3 304.413 124.6 304.413 125.7C304.613 126.9 304.613 127.9 304.413 128.8ZM287.813 14.7C288.313 14.1 288.913 13.4 289.513 12.4C289.613 12.2 289.713 12.1 289.913 11.8C290.113 11.5 290.213 11.2 290.413 10.9C291.313 9.9 292.313 8.9 293.413 8.1C293.513 8.2 293.613 8.4 293.813 8.6C293.613 8.7 293.413 8.8 293.213 8.9L292.813 9.1C292.713 9.2 292.613 9.3 292.513 9.4L291.913 10C290.113 11.4 289.113 13.1 288.613 15C288.513 15.4 288.413 15.8 288.413 16.1C288.113 16.3 287.813 16.6 287.513 16.8L286.713 16.5C287.113 16 287.513 15.4 287.813 14.7ZM368.513 59.5C367.713 59.5 366.913 59.5 366.213 59.4C365.513 59.3 364.713 59.1 364.013 58.8L363.113 58.4C363.213 58.3 363.413 58.3 363.513 58.2C364.113 57.9 364.613 57.5 365.113 57.2C365.513 57.6 366.013 58 366.413 58.2C366.613 58.3 366.813 58.4 367.113 58.5V58.8C367.213 58.8 367.313 58.7 367.413 58.7C368.113 59 368.813 59.2 369.513 59.4C369.213 59.5 369.013 59.5 368.713 59.5C368.613 59.5 368.613 59.5 368.513 59.5ZM308.513 53.5C308.413 53.3 308.313 53 308.313 52.8C309.813 52.6 311.213 52.3 312.713 52.1L312.613 53.9C312.013 54.2 311.313 54.4 310.713 54.7C310.413 54.8 310.113 54.9 309.713 55C309.213 54.6 308.813 54.1 308.513 53.5ZM344.413 22.8C344.513 22.9 344.613 23 344.613 23.2C344.513 23.1 344.313 23 344.113 23C344.213 22.9 344.313 22.9 344.413 22.8ZM293.413 45.4C293.913 44.7 294.413 44.1 294.913 43.5C295.313 43.4 295.813 43.2 296.213 43.1C295.713 43.8 295.213 44.4 294.813 45.1C294.313 45.2 293.813 45.3 293.413 45.4ZM330.613 44L330.213 43.2C330.113 42.9 329.913 42.6 329.813 42.3C330.413 42.3 330.913 42.4 331.413 42.5C332.013 42.8 332.513 43.2 333.013 43.6L332.613 44L332.513 44.1C331.813 44 331.213 44 330.613 44ZM368.413 45.4C368.513 45.4 368.513 45.4 368.613 45.4C368.513 45.5 368.513 45.5 368.413 45.4C368.413 45.5 368.413 45.5 368.413 45.4ZM329.113 29.1C329.013 29.2 329.013 29.2 328.913 29.3C328.613 29.4 328.313 29.5 328.013 29.5C328.313 29.3 328.713 29.2 329.113 29.1C329.013 29 329.013 29 329.113 29.1ZM291.613 45.8H291.513C292.313 45.1 293.113 44.4 294.013 43.7H294.113C293.413 44.3 292.813 45 292.113 45.5C292.013 45.6 291.913 45.6 291.913 45.7C291.813 45.8 291.713 45.8 291.613 45.8ZM318.813 48.2C318.913 48.2 318.913 48.2 319.013 48.2C319.013 48.1 318.913 48 318.913 47.9C318.813 47.7 318.813 47.5 318.713 47.3C318.913 47.2 319.213 47 319.413 46.9C319.713 47.3 320.113 47.6 320.413 47.9V48C320.413 48 320.413 48 320.413 48.1C320.313 48.2 320.313 48.2 320.213 48.3C319.813 48.3 319.413 48.3 319.113 48.2C319.013 48.3 318.913 48.3 318.813 48.2ZM371.813 37.4C371.513 37.3 371.213 37.3 370.813 37.2C370.813 36.9 370.813 36.6 370.813 36.3C371.113 36.6 371.413 37 371.713 37.3C371.713 37.4 371.813 37.4 371.813 37.4ZM377.413 53C377.713 52.9 378.013 52.9 378.213 52.8C378.313 52.8 378.313 52.9 378.413 52.9C378.213 53 378.013 53 377.813 53.1C377.713 53.1 377.613 53.1 377.413 53.1C377.413 53.1 377.413 53.1 377.413 53ZM317.013 17.2C316.913 17.3 316.813 17.3 316.713 17.4C315.313 18.2 313.813 19 312.213 19.8C311.713 19.6 311.313 19.5 310.813 19.4C312.313 18.7 313.613 18 314.813 17.3C315.513 17.2 316.313 17.2 317.013 17.2ZM286.213 51.9C286.313 51.9 286.313 51.9 286.413 51.9L286.813 52.7C286.613 52.9 286.313 53.1 286.113 53.3L286.513 54C286.113 54 285.813 54 285.413 53.9C285.613 53.3 285.913 52.6 286.213 51.9ZM382.913 58.1V58C382.913 57.9 382.913 57.7 382.913 57.5V57.4C382.913 57.4 382.913 57.4 383.013 57.4C383.113 57.7 383.213 57.9 383.313 58.2C383.213 58.2 383.113 58.2 383.013 58.2C383.013 58.1 383.013 58.1 382.913 58.1ZM302.713 55.1C302.713 55.1 302.813 55.1 302.813 55C302.913 55.3 303.013 55.6 303.113 55.8C303.113 55.9 303.213 56 303.313 56.1C303.013 56 302.613 55.9 302.213 55.7C302.113 55.6 302.013 55.5 301.913 55.4C302.113 55.3 302.413 55.2 302.713 55.1ZM334.913 57.5C335.013 57.5 335.113 57.6 335.113 57.6C335.013 57.6 334.813 57.6 334.713 57.6C334.813 57.6 334.813 57.6 334.913 57.5ZM394.313 51.9C394.113 51.1 393.913 50.2 393.713 49.3C393.813 49.4 394.013 49.6 394.113 49.7C394.313 50 394.513 50.3 394.613 50.6C394.713 51 394.613 51.5 394.313 51.9ZM297.913 6.5C296.913 7 295.913 7.4 294.913 8.1C294.613 8.3 294.213 8.5 293.913 8.7C293.813 8.6 293.813 8.5 293.713 8.4C293.713 8.3 293.613 8.3 293.613 8.2C294.513 7.6 295.413 7 296.513 6.6C296.813 6.5 297.213 6.3 297.513 6.2C297.613 6.3 297.713 6.4 297.913 6.5ZM294.013 8.8C294.113 8.8 294.113 8.9 294.013 8.8V8.8ZM295.213 12.6C297.013 11.3 299.113 10.3 301.113 9.5C301.413 9.8 301.713 10 302.013 10.2C302.113 10.3 302.213 10.3 302.213 10.3C300.913 10.7 299.713 11.1 298.513 11.5C297.313 11.9 296.213 12.3 295.113 12.7C294.913 12.8 294.713 12.9 294.513 12.9C294.813 12.9 295.013 12.7 295.213 12.6ZM295.813 57.8C295.913 57.9 295.913 58 296.013 58.1C295.613 58.1 295.213 58.1 294.813 58.1C295.113 58 295.513 57.9 295.813 57.8ZM332.813 58.1C332.913 58.3 333.013 58.5 333.113 58.7C332.013 58.7 330.913 58.7 329.813 58.6C330.913 58.6 331.913 58.4 332.813 58.1ZM370.613 26.6C370.613 26.5 370.513 26.4 370.513 26.3C370.613 26.4 370.713 26.4 370.813 26.5C370.713 26.5 370.613 26.6 370.613 26.6ZM407.113 65.3C408.213 65.7 409.313 66.1 410.913 66.6C411.713 66.9 412.613 67.1 413.613 67.6C414.613 68 415.713 68.6 416.613 69.7C416.913 70.2 417.313 70.9 417.513 71.8C417.713 72.7 417.713 73.8 417.413 74.9C417.113 76.1 416.613 77.3 415.813 78.4C415.613 78.7 415.413 79 415.213 79.3C415.013 79.6 414.713 79.9 414.513 80.3C413.913 81 413.313 81.8 412.713 82.6C411.613 84 410.813 85.4 410.313 86.8C410.113 87.5 410.013 88.3 410.413 89C410.813 89.7 411.413 89.9 412.013 90.3C413.213 90.9 414.613 91.3 416.113 91.6C416.913 91.7 417.613 91.9 418.413 92C418.813 92.1 419.213 92.1 419.613 92.2C420.013 92.3 420.213 92.3 420.513 92.4C424.713 93 427.013 95.4 427.013 97C427.013 97.3 427.013 97.5 426.913 97.9C426.813 98.3 426.613 98.6 426.413 98.9C426.213 99.1 426.113 99.3 425.913 99.5C425.713 99.8 425.413 100 425.213 100.3C424.013 101.6 422.813 102.9 421.513 104.3C421.313 104.5 420.613 105.3 420.113 105.9C419.613 106.5 419.013 107.1 418.513 107.8C417.413 109 416.313 110.4 415.813 111.7C415.313 112.9 414.913 114.1 415.313 115.7C415.513 116.5 415.913 117.2 416.313 117.7C416.713 118.2 417.213 118.6 417.813 119C418.413 119.4 419.113 119.7 419.913 120.1C420.813 120.4 421.813 120.7 423.013 120.8C423.613 120.9 424.113 120.9 424.713 121.1C425.413 121.3 425.313 121.3 425.413 121.4C425.513 121.5 425.613 121.6 425.613 121.7C425.913 122.1 425.813 122.5 425.613 122.7C425.513 122.8 425.513 122.8 425.413 122.8L425.113 123.2C424.613 123.7 424.013 124.2 423.313 124.8C421.713 126.1 420.113 127.4 418.613 128.7C417.713 129.4 417.113 130 416.613 130.4C416.413 130.6 416.213 130.8 416.013 131C415.813 131.2 415.713 131.4 415.513 131.5C415.313 131.7 415.213 131.9 415.013 132.1C414.413 132.9 413.913 133.6 413.613 134.5C413.213 135.3 413.013 136.3 412.813 137.3C412.713 137.8 412.713 138.4 412.813 138.9C412.813 139.1 412.913 139.2 412.913 139.4C412.013 138.2 411.513 136.8 411.513 135.4C411.513 134.6 411.513 133.5 411.213 132.1C411.013 130.7 410.513 129.3 409.913 127.8C409.013 125.8 407.713 123.9 405.913 122.2C406.613 121.1 407.313 119.9 407.913 118.6C409.113 116 410.013 113 410.313 109.8C410.613 106.6 410.413 103 408.913 99.4C408.113 97.6 406.913 95.9 405.313 94.4C403.713 93 401.713 91.9 399.713 91.2C395.613 89.9 391.213 89.9 387.013 90.8C382.713 91.7 378.513 93.7 374.913 96.3C373.013 97.6 371.313 99.1 369.713 100.7C368.213 102.1 366.913 103.7 365.613 105.3C364.913 105.1 364.113 105.1 363.113 105.2C360.013 105.6 356.513 106.1 352.713 106.8C348.913 107.5 344.913 108.3 340.513 109.3C340.313 109.3 340.113 109.4 340.013 109.4C340.013 109.2 340.013 109 340.013 108.8C340.013 108.1 340.313 107.4 340.513 106.8C340.713 106.3 341.213 105.4 341.713 104.6C342.213 103.8 342.713 102.9 343.313 102.1C343.713 101.6 344.013 101.1 344.413 100.5C344.813 99.9 345.313 99.3 345.813 98.6C346.813 97.3 347.513 96 347.913 94.9C348.113 94.3 348.213 93.7 348.213 93C348.113 92.3 347.813 91.6 347.413 91C346.613 89.8 345.413 88.9 344.013 88.3C342.313 87.6 340.313 87.2 338.113 87.2C337.513 87.2 337.013 87.2 336.413 87.2L335.613 87.3H335.213H334.913C334.213 87.3 333.513 87.3 332.913 87.3C332.713 87.3 332.713 87.3 332.713 87.3H332.513C332.413 87.3 332.313 87.2 332.213 87.2C332.013 87.1 331.813 87 331.613 86.9C331.313 86.7 331.213 86.2 331.313 85.8C331.413 85.6 331.413 85.4 331.513 85.3C331.513 85.3 331.513 85.2 331.613 85.2L331.713 84.7L332.013 83.6C332.413 82.1 332.813 80.6 333.213 79C334.113 75.9 335.013 72.6 336.013 69.2C336.313 68.2 336.513 67.2 336.613 66.3C336.713 65.8 336.713 65.3 336.713 64.8C339.613 64.9 342.513 64.9 345.513 65C348.513 65.1 351.613 65.1 354.713 65.2C357.813 65.3 360.913 65.4 364.013 65.5C367.113 65.6 370.313 65.7 373.513 65.8C375.113 65.9 376.813 65.9 378.313 66C379.813 66.1 381.413 66.2 383.113 66.4C386.413 66.7 389.813 67 393.513 66.7C394.413 66.6 395.613 66.4 396.613 66C397.813 65.6 398.913 64.9 399.813 64.1C400.313 63.6 400.713 63.1 401.113 62.5C402.313 63.4 404.513 64.3 407.113 65.3ZM272.813 55.7C273.313 56.4 273.813 57.1 274.413 57.7C273.513 57.7 272.613 57.7 271.713 57.7C272.013 57.1 272.413 56.5 272.813 55.7ZM123.813 389.5C121.213 389 118.713 387.6 116.613 385.8C115.513 384.9 114.613 383.8 113.913 382.6C113.313 381.5 113.013 380.1 113.013 378.7C113.013 377.3 113.313 375.9 113.813 374.7C114.413 373.4 115.213 372.3 116.213 371.6C116.713 371.3 117.213 370.9 117.813 370.8C118.313 370.6 118.713 370.7 119.013 370.8C119.313 370.9 119.613 371.1 119.913 371.3C120.213 371.5 120.613 371.9 120.913 372.3C121.113 372.5 121.213 372.6 121.413 372.7C121.813 372.9 122.113 372.9 122.613 372.8C122.213 373.8 121.913 374.8 121.713 375.7C121.413 377.3 121.213 379.1 121.413 381.2C121.613 383.2 122.113 385.5 123.313 387.9C123.613 388.6 124.013 389.2 124.513 389.8C124.313 389.6 124.113 389.5 123.813 389.5ZM185.513 317.3L185.713 317.4C186.013 317.2 186.313 317.1 186.613 316.9C186.513 317.2 186.313 317.4 186.213 317.7L185.713 317.4C185.613 317.5 185.513 317.5 185.413 317.6C185.513 317.5 185.513 317.4 185.513 317.3ZM178.913 347.1C178.913 347.1 178.813 347.1 178.813 347.2C178.913 347 178.913 346.8 179.013 346.6C178.913 346.7 178.913 346.9 178.913 347.1ZM180.913 353.2C181.013 353.3 181.213 353.4 181.313 353.4C181.013 353.7 180.813 354.1 180.513 354.5C180.713 354.1 180.813 353.6 180.913 353.2ZM184.913 319.1L185.213 319.3C184.913 319.9 184.513 320.5 184.213 321C184.413 320.4 184.713 319.7 184.913 319.1ZM166.013 336.9C165.213 335.2 164.713 333.4 164.213 331.5C163.713 329.6 163.313 327.7 163.013 325.8C162.413 321.9 162.313 317.6 163.513 313.7C164.113 311.7 165.113 309.9 166.513 308.4C167.813 306.8 169.613 305.7 171.613 304.6C175.713 302.6 180.213 300.9 185.013 300.1C185.213 300.1 185.513 300 185.713 300C184.113 304.7 182.413 309.5 180.713 314.4C178.413 321 176.113 327.8 173.613 334.8C173.013 336.4 172.613 337.8 172.213 339.2C171.913 340.3 171.613 341.3 171.413 342.1H171.313C170.313 341.7 169.313 341.2 168.413 340.3C167.413 339.3 166.613 338.2 166.013 336.9ZM317.613 612.3V612.2C317.613 611.9 317.613 612.1 317.613 612.3ZM537.613 553.7C538.813 554.4 540.013 555.1 541.413 555.8C542.713 556.6 544.213 557.5 545.213 559C545.913 560 546.213 561.2 546.313 562.4C546.313 563.6 546.113 564.8 545.913 565.9C545.413 568.2 544.813 570.5 544.313 572.8C543.213 577.5 542.113 582.2 541.013 587.1C539.913 592 538.713 597 537.513 602.1C537.213 603.4 536.913 604.7 536.613 606C536.313 607.3 536.013 608.6 535.613 609.7C535.213 610.9 534.513 611.8 533.613 612.5C532.713 613.2 531.513 613.7 530.313 614.1C529.113 614.5 527.713 614.8 526.413 615.1C525.113 615.4 523.713 615.7 522.313 616C519.613 616.6 516.913 617.3 514.113 617.8C508.513 618.9 502.813 620 497.013 620.9C495.513 621.1 494.113 621.4 492.613 621.6C491.913 621.7 491.113 621.8 490.413 621.9C489.713 622 488.913 622.1 488.213 622.2C485.213 622.6 482.213 622.9 479.113 623.3C476.113 623.7 473.013 623.9 469.913 624.1C468.313 624.2 466.813 624.4 465.213 624.5C463.613 624.6 462.013 624.7 460.513 624.8C447.813 625.6 434.613 625.6 421.013 625C407.413 624.3 393.413 623 379.113 620.6C364.813 618.3 350.213 615 335.413 610.7C333.613 610.2 331.713 609.6 329.913 609C329.013 608.7 328.013 608.4 327.113 608.2C326.213 607.9 325.413 607.7 324.813 607.4C324.213 607.1 323.713 606.9 323.513 606.6C323.313 606.4 323.313 606.3 323.213 606.2C323.113 606 322.913 604.8 323.113 603.1C323.313 601.2 323.513 599.2 323.713 597.2C323.913 595.2 324.113 593.2 324.413 591.2C324.913 587.2 325.413 583.2 326.013 579.3C326.613 575.6 327.213 572.2 327.713 569.1C328.813 563.3 329.513 559.4 329.613 557.3C330.413 557.7 331.213 558 332.113 558.4C345.213 564 356.813 569.3 367.613 573C378.413 576.7 388.113 579 396.413 580.5C404.713 581.9 414.113 583 424.613 583.1C435.013 583.3 446.513 582.5 458.813 580.4C464.913 579.2 470.913 578 476.613 576.3C482.413 574.7 488.013 572.7 493.313 570.4C503.913 565.8 513.613 559.8 521.313 552.1C522.413 551.1 523.313 550 524.113 549.1C524.513 548.6 524.913 548.2 525.213 547.8C525.513 547.4 525.813 547 526.113 546.7C527.513 547.5 529.313 548.5 531.613 549.8C533.213 551.1 535.213 552.3 537.613 553.7ZM560.413 394.1C559.413 412.9 557.313 430.7 554.713 447.6C554.413 449.7 554.113 451.8 553.713 453.9C553.313 456 552.913 458 552.613 460.1C551.813 464.2 551.213 468.2 550.313 472.2C549.513 476.2 548.613 480.1 547.813 483.9C546.913 487.7 545.913 491.5 545.013 495.2C544.513 497.3 544.013 499.1 543.613 500.8C543.213 502.4 542.813 503.9 542.413 505.1C540.213 514.2 538.413 520.5 537.713 524.4C537.413 526.2 537.313 527.4 537.413 528.1C536.513 529 535.313 529.7 533.913 530.2C532.113 530.8 530.013 531 527.813 530.7C524.813 530.3 522.013 529.2 519.213 528C516.413 526.7 513.713 525.2 511.213 523.3C506.113 519.5 501.613 514.5 498.313 508.6C496.713 505.6 495.413 502.4 494.513 499C493.613 495.6 492.913 491.9 492.013 488.2C491.113 484.5 489.913 480.5 487.713 476.8C485.513 473.1 482.313 469.9 478.613 467.4C474.913 465 470.713 463.1 466.413 462C462.013 460.8 457.513 460.2 452.913 460C443.713 459.7 434.513 461.2 425.413 461.9C423.113 462.1 420.913 462.2 418.613 462.3C416.313 462.3 414.113 462.3 411.813 462.2C407.213 462 402.513 461.5 398.013 460.6C393.513 459.7 389.113 458.3 385.113 456.2C381.113 454.1 377.513 451.4 374.313 448C373.613 447.2 372.813 446.5 372.213 445.7C371.613 444.9 370.913 444.2 370.313 443.5C369.713 442.7 369.113 442 368.513 441.3C369.413 441 370.413 440.6 371.313 440.2C374.813 438.8 378.213 437.1 381.413 435C385.013 432.6 387.713 429.9 389.413 427.6C391.013 425.4 392.113 423.1 392.813 420.9C393.513 418.6 393.813 416.5 393.813 414.6C393.813 411.4 393.313 409 392.713 407.2C397.013 409.6 401.613 411.9 406.513 414.3C409.313 415.7 412.313 417.1 415.213 418.5C416.713 419.2 418.213 419.9 419.813 420.6C421.313 421.3 423.013 422 424.813 422.7C426.613 423.3 428.613 423.9 430.813 424.1C433.013 424.3 435.613 424.1 438.113 423C439.313 422.5 440.513 421.7 441.413 420.9C442.413 420.1 443.213 419.2 443.913 418.4C444.613 417.5 445.213 416.7 445.813 415.9C446.313 415.1 446.913 414.4 447.413 413.6C464.413 388.8 477.213 364.5 487.113 342C488.413 338.8 489.513 336.3 490.313 334.4C491.013 332.6 491.613 331 492.113 329.5C492.613 328 493.113 326.6 493.513 325.3C494.313 322.8 494.813 320.7 495.113 319.2C495.313 318.2 495.413 317.4 495.413 316.9C495.813 316.2 496.113 315.4 496.313 314.5C496.613 313.1 496.713 311.3 496.413 309.5C496.013 307 495.113 304.4 493.513 302.2C492.013 299.9 489.913 298 487.413 296.3C482.513 293.1 476.513 291.3 470.213 290.3C457.713 288.3 443.813 288.2 429.013 289.5C425.313 289.8 421.613 290.2 417.813 290.6C416.013 290.8 414.213 291 412.413 291.2C411.613 291.3 410.813 291.3 410.013 291.4H409.513C409.513 291.2 409.613 291 409.613 290.8C409.713 290.4 409.713 290 409.813 289.6L410.013 288.5C410.013 288.5 410.113 287.8 410.213 287.3L410.413 285.8C410.713 283.8 411.113 281.8 411.413 279.8C411.813 277.8 412.113 275.8 412.513 273.7C415.713 257.5 420.313 240.4 426.913 223.1C427.713 221.1 428.313 219.2 428.913 217.5C431.213 210.7 431.313 208.3 428.713 210.4C426.213 212.5 423.313 217.2 420.613 224.4C417.513 232.7 412.713 245.8 408.513 264.4C407.413 269 406.513 273.5 405.713 277.7C405.313 279.8 405.013 281.9 404.613 283.8C404.413 284.8 404.313 285.8 404.113 286.7C404.013 287.3 403.913 287.8 403.813 288.4C403.713 289 403.613 289.7 403.513 290.3C403.213 292.9 402.913 295.5 402.613 297.9L402.513 298.4C402.613 298.5 402.813 298.4 402.913 298.4L403.813 298.3C404.413 298.2 405.013 298.2 405.513 298.1C406.713 298 407.813 297.8 408.913 297.7C410.013 297.6 411.213 297.4 412.313 297.3C412.813 297.2 413.313 297.2 413.813 297.1C413.713 297.2 413.613 297.3 413.513 297.4C412.113 299 410.813 301.3 409.913 304.3C409.013 307.2 408.313 311 408.013 315.8C407.813 318.2 407.713 320.8 407.713 323.7C407.713 325.1 407.713 326.7 407.713 328.2C407.713 329 407.713 329.7 407.713 330.5C407.713 331.2 407.713 332 407.413 332.6C407.313 332.8 407.013 333.3 406.413 333.8C405.813 334.3 404.913 334.6 404.013 334.8C403.613 334.9 403.213 334.9 402.813 334.9C402.413 334.9 401.913 334.9 401.513 334.9C400.613 334.9 399.613 334.9 398.713 334.9C396.813 334.9 395.013 334.9 393.313 334.9C389.813 335 386.513 335.1 383.413 335.4C377.213 335.9 371.813 336.6 367.313 337.4C363.713 338 359.713 338.8 355.313 339.9C354.213 340.2 353.113 340.5 351.913 340.8C350.813 341.1 349.613 341.5 348.413 341.8C347.813 342 347.313 342.1 346.713 342.3C346.513 342.3 346.313 342.4 346.013 342.4C345.613 342.5 345.213 342.6 344.813 342.7C344.813 342.4 344.713 342 344.613 341.7C344.613 341.5 344.513 341.3 344.513 341.2C344.413 341 344.513 341.1 344.213 340.2C342.113 333.8 339.913 327.8 338.113 322.2C337.613 320.8 337.213 319.4 336.813 318.1C336.413 316.6 335.913 315.1 335.313 313.6C334.213 310.6 332.913 307.7 331.013 304.9C330.513 304.1 330.013 303.4 329.513 302.8C329.013 302.2 328.613 301.7 328.213 301.3C326.713 299.8 325.113 298.7 323.713 297.9C322.313 297.1 321.113 296.8 320.213 296.6C319.513 296.5 319.113 296.5 318.713 296.6C316.913 295.4 314.713 294.1 312.013 292.8C309.313 291.5 306.913 290.5 304.613 289.7C304.013 289.5 303.413 289.3 302.813 289.1C303.713 288 304.713 286.4 305.513 284.2C307.913 278.8 310.513 272.9 313.913 266.8C317.313 260.6 321.213 254.2 325.913 247.6C330.713 241 336.213 234.4 342.613 227.7C349.013 221.1 356.213 214.5 364.213 207.8C364.113 210.3 364.113 213.2 364.213 216.4C364.313 219.1 364.513 222 364.913 225.2C365.113 226.8 365.513 228.6 366.613 230.2C367.713 231.8 369.513 232.9 371.513 233.5C373.513 234 375.513 234.1 377.413 233.6C378.313 233.4 379.313 233.1 380.113 232.7C380.913 232.3 381.813 231.8 382.513 231.3C385.513 229.2 387.613 226.7 389.413 224.3C393.013 219.7 396.013 215.5 398.413 211.9C403.313 204.7 408.913 195.6 414.913 184.5C417.913 178.9 420.613 173.5 423.213 168.4C424.513 165.8 425.813 163 426.713 159.9C427.613 156.8 428.213 153.3 427.613 149.5C427.513 148.9 427.413 148.3 427.213 147.8C430.613 147.8 435.013 147.5 440.513 147C446.813 146.5 454.413 145.6 463.513 145.5C468.713 145.5 474.713 145.8 481.213 146.9C487.713 148.2 494.913 150.3 502.113 154.1C505.713 155.9 509.313 158.3 512.813 160.9C516.413 163.5 519.813 166.6 523.013 170.1C526.213 173.6 529.313 177.5 532.013 181.9C534.713 186.3 536.913 191.1 538.813 196.2C540.613 201.4 542.013 206.6 543.213 211.7C544.413 216.8 545.413 221.8 546.413 226.7C548.413 236.4 550.213 245.6 551.713 254.2C553.213 262.8 554.413 270.9 555.513 278.4C556.513 285.9 557.213 292.9 558.013 299.3C560.713 324.8 562.513 356.5 560.413 394.1Z" fill="black"/>
<path d="M263.013 330.6C263.613 330.8 264.213 330.6 264.813 330.1C266.113 329 266.613 327.8 266.813 326.5C266.913 325.6 267.413 324.7 268.013 324.1C268.613 323.5 269.413 323 270.213 322.7C271.913 322 273.913 321.7 276.113 321.5C278.313 321.3 280.713 321.3 283.213 321.3C285.713 321.4 288.513 321.6 291.113 322C291.413 322 291.613 322 291.913 322C292.113 322 292.313 321.9 292.413 321.7C292.513 321.6 292.613 321.4 292.613 321.2C292.713 320.8 292.813 320.1 292.713 319.4C292.513 317.8 291.613 316.8 290.413 316.6C289.013 316.3 286.713 315.9 283.613 315.7C280.413 315.5 277.913 315.5 275.913 315.6C274.013 315.8 271.613 315.9 268.413 317.1C266.813 317.7 265.213 318.6 263.713 320.3C263.313 320.7 263.013 321.1 262.613 321.7C262.313 322.2 262.013 322.8 261.813 323.4C261.713 323.7 261.613 324 261.513 324.3C261.413 324.6 261.413 324.9 261.313 325.3C261.213 325.6 261.213 325.9 261.213 326.3C261.213 326.6 261.213 326.9 261.213 327.2C261.213 327.5 261.213 327.8 261.213 328.1C261.213 328.4 261.313 328.6 261.313 328.7C261.813 329.7 262.413 330.3 263.013 330.6Z" fill="black"/>
<path d="M255.513 535C253.713 536.5 252.213 539.4 251.213 543.9C250.013 549 248.213 557 245.613 567.9C243.113 578.8 241.113 587.4 239.613 593.8C238.113 600.2 236.413 608 234.213 617.3C232.113 626.6 230.113 635 228.313 642.5C228.013 643.5 227.813 644.4 227.713 645C226.913 649.6 227.413 651.7 229.113 651.2C230.913 650.7 232.413 648.3 233.713 643.9C237.113 632.1 240.413 617.6 244.213 600.8C248.013 583.9 252.213 564.6 256.813 542.9C257.113 541.6 257.313 540.5 257.413 539.4C258.013 534.9 257.413 533.5 255.513 535Z" fill="black"/>
<path d="M23.8126 360.1C24.5126 362.4 25.2126 364.8 26.3126 367.2C27.4126 369.5 29.0126 371.9 31.5126 373.6C34.0126 375.3 36.8126 375.9 39.2126 376.4C41.8126 376.9 44.3126 377.3 47.0126 377.6C52.2126 378.1 57.6126 378.3 63.2126 377.7C66.0126 377.4 68.8126 376.9 71.7126 375.9C73.2126 375.4 74.6126 374.7 76.1126 373.6C77.5126 372.6 78.9126 371 79.7126 369C80.3126 367.5 80.7126 366.1 81.0126 364.7C81.4126 363.3 81.7126 361.9 82.0126 360.4C82.6126 357.7 83.0126 354.9 83.4126 352.2C88.2126 350.5 93.4126 348.4 98.7126 345.2C104.113 342 109.713 337.5 114.213 331.2C116.413 328 118.413 324.4 119.813 320.3C120.513 318.3 121.013 316.1 121.313 313.8C121.613 311.6 121.813 309.1 121.313 306.4C121.013 305 120.613 303.6 119.913 302.2C119.213 300.8 118.213 299.5 117.113 298.5C115.013 296.4 112.813 295.1 110.413 293.8C105.613 291.4 100.013 290.2 94.2126 290.7C93.5126 290.8 92.9126 290.8 92.3126 290.9C92.3126 289.9 92.2126 288.8 92.1126 287.6C91.9126 285.6 91.3126 283.4 90.1126 281.3C89.6126 280.2 88.8126 279.3 88.0126 278.3C87.2126 277.5 86.3126 276.6 85.3126 276C84.4126 275.3 83.4126 274.8 82.4126 274.3L81.0126 273.8L80.3126 273.5L79.6126 273.3L78.2126 272.9C77.7126 272.8 77.3126 272.7 76.8126 272.6L75.4126 272.3L74.0126 272.1C70.3126 271.5 66.7126 271.3 63.1126 271.4C56.0126 271.5 49.1126 272.5 42.5126 273.1C41.3126 273.2 40.2126 273.3 39.1126 273.4C38.7126 266.3 38.5126 258.4 38.7126 249.7C38.7126 249.1 38.7126 248.6 38.6126 248.1C38.2126 246.2 37.3126 245.7 35.8126 246.6C34.3126 247.5 33.5126 249 33.4126 251.1C33.2126 253.5 33.1126 257.3 33.0126 262.5C33.0126 267.1 33.1126 270.9 33.2126 273.9C28.0126 274.5 24.4126 275.5 22.9126 276.4C21.3126 277.3 21.8126 277.8 24.2126 278C26.6126 278.2 29.6126 278.3 33.4126 278.5C33.5126 280.8 33.7126 283.5 34.0126 286.4C34.1126 287.5 34.2126 288.6 34.3126 289.7C31.5126 289.4 28.5126 289.2 25.5126 288.9C25.3126 288.9 25.2126 288.9 25.0126 288.9C25.0126 286.9 25.0126 285.2 25.0126 283.7C25.0126 283.4 25.0126 283.2 25.0126 283C25.0126 282.9 25.0126 282.8 25.0126 282.7C25.0126 282.5 25.0126 282.3 25.0126 282.2C25.0126 282 25.0126 282 24.9126 281.9C24.9126 281.9 25.0126 281.9 24.7126 281.8C24.5126 281.7 24.4126 281.6 24.2126 281.5C23.9126 281.3 23.6126 281.1 23.4126 281C23.0126 280.7 22.8126 280.5 22.6126 280.3H22.5126C22.4126 280.3 22.3126 280.3 22.1126 280.4C21.8126 280.6 21.5126 280.9 21.2126 281.4C21.1126 281.6 20.9126 281.9 20.8126 282.2C20.7126 282.5 20.6126 282.8 20.5126 283.3C19.8126 286.6 19.3126 291.1 19.1126 296.7C18.5126 311.8 19.0126 328.5 21.2126 346.7C21.8126 350.7 22.5126 355.4 23.8126 360.1ZM36.2126 359.8C36.1126 359.8 36.0126 359.9 36.0126 359.9C36.0126 359.2 36.0126 358.4 36.1126 357.7C36.9126 357.5 37.5126 357 38.1126 356.5C38.8126 355.8 39.5126 354.9 40.1126 353.9C40.0126 354.2 40.0126 354.5 39.9126 354.9C39.8126 355.1 39.7126 355.2 39.7126 355.4C39.3126 356.1 38.8126 357 38.4126 357.6C38.0126 358.2 37.5126 358.8 37.1126 359.2C37.0126 359.3 36.9126 359.4 36.8126 359.5L36.7126 359.6C36.7126 359.6 36.6126 359.6 36.6126 359.7C36.4126 359.6 36.3126 359.7 36.2126 359.8ZM64.1126 325C63.9126 324.7 63.7126 324.4 63.5126 324C63.9126 324 64.3126 324 64.7126 324C64.5126 324.4 64.3126 324.7 64.1126 325ZM48.0126 340.5C49.4126 339.7 50.8126 338.9 52.2126 338C51.6126 339 51.0126 339.9 50.3126 340.8C50.2126 340.8 50.2126 340.8 50.1126 340.8C49.5126 340.8 49.0126 340.9 48.4126 341.1C48.3126 340.9 48.1126 340.7 48.0126 340.5ZM60.7126 346.6H60.8126C61.0126 346.9 61.1126 347.3 61.2126 347.6C61.0126 347.9 60.7126 348.1 60.5126 348.4C60.4126 348.5 60.3126 348.7 60.1126 348.8C60.3126 348.2 60.5126 347.4 60.7126 346.6ZM60.6126 356.6C60.3126 357.2 60.0126 357.9 59.7126 358.5C59.7126 358.1 59.7126 357.7 59.6126 357.3C59.9126 357.2 60.3126 356.9 60.6126 356.6ZM36.5126 305.4C36.4126 305.4 36.4126 305.3 36.3126 305.3C36.2126 305.2 36.0126 305.2 35.9126 305.1C36.3126 305 36.7126 304.9 37.1126 304.8C36.8126 305 36.7126 305.2 36.5126 305.4ZM81.8126 311.9C81.7126 312 81.7126 312.1 81.6126 312.3C81.1126 313.1 80.3126 313.9 79.5126 314.6C79.5126 314.5 79.4126 314.4 79.4126 314.3C79.5126 314.2 79.6126 314.2 79.7126 314.1C80.2126 313.6 80.7126 313 81.1126 312.4C81.3126 312.2 81.5126 312.1 81.8126 311.9ZM77.0126 325.2C76.8126 325.4 76.5126 325.7 76.2126 326L72.9126 325.4C72.9126 325.3 72.9126 325.2 72.9126 325.1C72.9126 324.9 72.9126 324.7 72.9126 324.5H73.0126C74.2126 324.6 75.5126 324.5 76.8126 324.1C76.9126 324.5 76.9126 324.8 77.0126 325.2ZM36.7126 365.8L36.4126 366.3C36.4126 366.2 36.4126 366 36.3126 365.9C36.5126 365.8 36.6126 365.8 36.7126 365.8ZM81.4126 303.9C81.3126 303.9 81.1126 303.9 81.0126 304C81.4126 303.6 81.7126 303.3 82.2126 303C82.5126 302.8 82.8126 302.6 83.2126 302.4L83.5126 302.3C83.6126 302.2 83.6126 302.3 83.6126 302.4V302.6C83.6126 302.8 83.6126 303.1 83.6126 303.3C83.6126 303.8 83.7126 304.2 83.7126 304.7V304.8C82.8126 304 82.1126 303.7 81.4126 303.9ZM88.7126 316.9C89.3126 313.2 89.9126 309.4 90.5126 305.6C90.9126 305.7 91.3126 305.7 91.7126 305.7C93.0126 305.8 94.8126 305.9 96.7126 306.6C98.6126 307.3 100.713 308.7 101.613 311C102.613 313.3 102.513 315.6 102.113 317.4C101.713 319.3 100.913 320.8 100.213 321.9C98.6126 324.2 96.2126 326.7 92.5126 328.8C90.4126 330 88.3126 330.9 86.3126 331.7C87.1126 326.9 87.9126 321.9 88.7126 316.9ZM85.1126 302.1C85.0126 302 84.9126 301.9 84.8126 301.9C84.9126 301.8 85.1126 301.8 85.2126 301.7C85.2126 301.8 85.2126 301.9 85.1126 302.1ZM73.9126 366.8L73.8126 367C73.7126 367.1 73.7126 367.2 73.6126 367.3C73.1126 368.2 71.8126 369.1 70.2126 369.8C70.1126 369.8 70.1126 369.9 70.0126 369.9C70.6126 369.5 71.1126 369 71.7126 368.5C72.8126 367.5 73.7126 366.3 74.5126 365.1C74.3126 365.6 74.2126 366 74.0126 366.4L73.9126 366.8ZM96.5126 296C98.7126 296.1 101.613 296.4 104.913 297.6C106.513 298.2 108.213 299 109.913 300.1C111.613 301.2 113.313 302.5 114.413 304.3C115.513 306.1 115.713 308.1 115.713 310C115.713 311 115.613 311.9 115.413 312.8C115.313 313.7 115.113 314.6 114.913 315.5C114.113 318.9 112.813 321.6 111.613 323.9C109.113 328.3 105.113 333.3 99.1126 337.6C94.2126 341.2 89.1126 343.7 84.2126 345.8C84.3126 345 84.4126 344.1 84.5126 343.3C84.7126 341.6 85.0126 340 85.2126 338.3C87.8126 337.5 90.5126 336.6 93.4126 335.2C96.8126 333.5 100.513 331.2 103.713 327.4C104.113 326.9 104.513 326.4 104.813 325.9C105.213 325.4 105.513 324.9 105.813 324.3C106.513 323.1 107.013 321.8 107.413 320.5C108.213 317.8 108.613 314.7 107.713 311.3C107.313 309.6 106.513 307.9 105.313 306.3C104.113 304.7 102.513 303.3 100.713 302.4C98.9126 301.5 97.0126 300.9 95.1126 300.6C93.7126 300.4 92.4126 300.3 91.1126 300.3C91.2126 299.7 91.3126 299.2 91.4126 298.6C91.5126 297.7 91.7126 296.8 91.8126 295.9C93.3126 295.9 94.8126 296 96.5126 296ZM39.3126 278.3C39.5126 278.3 39.8126 278.3 40.0126 278.3C42.4126 278.3 44.9126 278.1 47.7126 277.8C50.9126 277.5 54.6126 277.1 58.7126 276.9C62.8126 276.7 67.5126 276.6 72.4126 277.4C74.9126 277.8 77.5126 278.4 79.9126 279.5C81.1126 280.1 82.3126 280.8 83.2126 281.8C83.7126 282.2 84.1126 282.8 84.5126 283.4C84.8126 284 85.2126 284.6 85.4126 285.3C86.4126 287.9 86.4126 291 86.1126 294.2C85.9126 295.7 85.7126 297.3 85.4126 298.9C84.8126 297.7 83.5126 296.8 81.5126 296.4C71.1126 294.2 57.3126 291.9 40.0126 290C39.9126 286.4 39.6126 282.5 39.3126 278.3Z" fill="black"/>
<path d="M22.4125 279.8C22.3125 279.7 22.2125 279.6 22.2125 279.5C22.1125 279.4 22.1125 279.3 22.1125 279.3C22.1125 279.4 22.1125 279.6 22.4125 279.8Z" fill="black"/>
</svg>
