<svg width="580" height="472" viewBox="0 0 580 472" fill="none" xmlns="http://www.w3.org/2000/svg">
<g clip-path="url(#clip0_61_833)">
<path d="M176.6 396.1H176.5C176.5 396.4 176.5 396.7 176.5 397L177 396.9C176.9 396.6 176.8 396.3 176.6 396.1Z" fill="black"/>
<path d="M13 381.1C13.3 380.8 13.6 380.4 13.9 380.1L13.6 379.7C13.2 379.9 12.7 380 12.3 380.2L13 381.1Z" fill="black"/>
<path d="M579 305.7C578.4 303.5 577.4 301.3 576 299.3C574.6 297.3 572.8 295.6 570.6 294.4C568.5 293.2 566.1 292.4 563.8 292C561.5 291.5 559.2 291.3 556.9 291.1C538.8 289.4 519.9 288.6 500.3 288.7C490.5 288.8 480.5 289.1 470.4 289.6C465.3 289.9 460.2 290.2 455 290.7C453.3 290.8 451.7 291 450 291.1L448.5 291.2H448.1C448 291.2 448 291.2 448 291.3L447.9 291.5L447.5 292.2L446 294.9C445.4 296 445.2 296.4 444.9 297L444 298.9C443.4 300.1 442.8 301.4 442.4 302.7C440.9 306.3 439.7 310 438.7 313.8C437.3 313.3 435.6 312.8 433.7 312.3C428.3 310.8 421.2 308.6 412.8 304.8C407.5 302.4 402.4 299.5 397.5 295.9C392.7 292.3 388.1 288.1 384.4 283C384 282.3 383.5 281.7 383.1 281C382.7 280.3 382.2 279.7 381.9 279C381.5 278.3 381.2 277.6 380.8 276.9L380.2 275.8L379.8 274.7C378.5 271.8 377.6 268.6 376.9 265.5C375.5 259.1 375.1 252.4 375.6 245.6C376.2 238.8 377.7 232 380.3 225.5C382.9 219 386.8 213 392 207.8C397.1 202.6 403.2 198 409.3 193.1C410.8 191.9 412.3 190.7 413.9 189.3C415.4 187.9 417 186.3 418.2 184.3C418.8 183.3 419.3 182.2 419.7 181C420 179.8 420.2 178.5 420.1 177.3C420 176 419.7 174.7 419.1 173.5C418.5 172.2 417.6 171.1 416.4 170.2C415.8 169.7 415 169.4 414.3 169.1C413.6 168.8 412.9 168.7 412.2 168.5C410.8 168.2 409.6 168.3 408.3 168.2C405.7 168.2 403.1 168.7 400.7 169.5C395.8 171 391.5 173.6 387.4 176.4C385.4 177.8 383.4 179.2 381.4 180.7C379.4 182.2 377.5 183.7 375.6 185.3C374 186.6 372.5 187.9 370.9 189.2C370.1 189.9 369.2 190.6 368.4 191.2L367.5 191.9C367.3 191.6 367.1 191.2 367 190.9C366.7 190.1 366.7 189.3 366.8 188.5C366.9 187.7 367.1 187 367.4 186.3L367.6 185.8L367.9 185.1C368.2 184.3 368.6 183.6 369 182.8C372.4 176.4 376.2 169.8 380.1 163.4C388.1 150.5 397.2 137.7 407.4 125.3C412.5 119 418 112.3 422.3 104.4C423.4 102.4 424.3 100.4 425.3 98.2C426.2 95.9 427 93.3 427.1 90.1C427.1 88.5 426.8 86.8 426.2 85.1C425.6 83.4 424.5 81.9 423.3 80.6C420.8 78.1 417.7 76.8 414.7 76.3C413.2 76 411.7 76 410.1 76.1C409.3 76.2 408.6 76.3 407.8 76.4C407 76.6 406.2 76.8 405.6 77.1C402.8 78.1 400.4 79.6 398.4 81.2C397.1 82.2 395.9 83.4 394.8 84.5C394.4 84 393.9 83.5 393.2 83.1C391.7 82.1 389.5 81.1 386.6 80.7C383.7 80.3 380 80.5 376.1 82.1C373 83.4 370.4 85.2 368.2 87C368.1 85.6 367.3 84.1 366 82.6C365.4 81.9 364.8 81.2 364 80.4C363.2 79.6 362.3 78.7 361 78.1C359.7 77.4 358.1 77.2 356.4 77.3C354.7 77.4 352.9 77.9 351 78.6C349.2 79.3 347.5 80.1 346 81.1C345.9 80.8 345.7 80.6 345.5 80.3C344.6 79.1 342.8 77.9 340.1 77.6C336.5 77.3 332.6 78.3 328.9 80.1C325.2 81.9 321.6 84.2 318 87C314.4 89.8 311 92.9 307.5 96.4C305.8 98.1 304.1 100 302.4 101.9C300.7 103.8 299.1 105.9 297.5 108C294.3 112.2 291.1 116.7 288.1 121.5C286.6 123.9 285.1 126.3 283.6 128.9C283.2 129.5 282.9 130.2 282.5 130.8C282.1 131.5 281.7 132.2 281.4 132.9C280.7 134.3 280 135.8 279.4 137.3C278.2 140.3 277.4 143.5 276.6 146.5C276 148.9 275.4 151.3 274.8 153.7C274.5 149.3 274.1 144.8 273.7 140.4C273.4 137 272.9 133.5 272.5 130.1C272.1 126.7 271.7 123.2 271.3 119.8C270.5 112.9 269.6 105.8 268.4 98.7C267.2 91.6 265.6 84.4 263.4 77.3C262.3 73.7 260.9 70.1 259.4 66.6C259 65.7 258.5 64.8 258.1 64C257.6 63.1 257.3 62.2 256.7 61.4L255.1 58.8L254.7 58.2C254.6 58 254.4 57.7 254.2 57.5C253.9 57 253.5 56.6 253.2 56.1C250.3 52.6 246.7 49.8 242.6 48C240.5 47.1 238.3 46.4 235.9 46C233.5 45.6 230.9 45.6 228.2 46.3C225.5 47 222.8 48.5 220.8 50.7C218.8 52.9 217.6 55.4 216.9 57.9C215.7 56.3 214.3 54.7 212.5 53.4C209.4 51 204.9 49.8 200.5 51.3C196.2 52.7 192.5 56.2 190.3 60.7C189.7 61.9 189.3 63.2 189 64.5C188.9 64.2 188.8 63.8 188.5 63.5C187.8 62.5 186.4 61.5 184.4 60.9C181.7 60.2 178.5 60.3 175.4 61.5C173.9 62.1 172.4 63 171.2 64.3C169.9 65.6 168.9 67.1 168.2 68.8C167.3 70.8 166.9 73 166.7 75.3C166.4 75.2 166.2 75.2 165.8 75.1C165.4 75.1 164.9 75.1 164.3 75.1C163.7 75.1 163.2 75.3 162.5 75.5C161.2 75.9 159.8 76.7 158.4 77.8C157 79 155.5 80.5 154.3 82.5C150.9 87.8 149.1 94.7 149.8 101.8C150.4 108.9 153.1 116.1 156.3 123.1C157.9 126.6 159.6 130.2 161.2 133.9C162 135.7 162.7 137.6 163.5 139.5C164.2 141.4 164.9 143.3 165.6 145.3C168.2 153.1 170.3 161.5 171.6 170.2C174.2 187.7 173.8 206.9 169.4 226.5C165 246.1 156.4 266 142.9 283.7C142.1 284.7 141.3 285.7 140.6 286.7C139.9 287.7 139.2 288.6 138.5 289.4C138.4 289.2 138.3 289.1 138.2 288.9C136.2 286.1 133.9 283.4 131.4 280.9C130.7 280.2 130 279.5 129.1 278.9C128.6 278.6 128.2 278.2 127.6 277.9C127.3 277.7 127 277.6 126.8 277.4C126.5 277.3 126.1 277.1 125.8 276.9C123.2 275.8 120.2 275.8 117.5 276.9C117.3 276.6 117.1 276.2 116.9 275.9L116.8 275.8V275.7C117.2 277.6 116.2 272.7 117.1 277.2C117.1 277.2 117.1 277.2 117 277.2C116.3 277.6 115.8 277.8 115.2 278.2C114.7 278.5 114.2 278.9 113.8 279.2C113 279.8 112.3 280.4 111.7 280.9C111.5 281.1 111.3 281.3 111.1 281.4C110.1 281.6 109.1 281.9 108.1 282.2C105.4 283.2 102.8 284.4 100.4 286C98 287.6 95.9 289.6 94 291.8C92.9 293.2 92 294.6 91.1 296.2C88.7 297.8 86.3 299.4 83.9 300.9C78.2 304.3 72.5 307.7 66.5 310.7C64.7 311.6 62.9 312.5 61 313.4L60.7 312.6C53.5 315.4 47.2 318 41.6 320.2L41.4 319.7C41.3 320 41.2 320.2 41.1 320.4C40.4 320.7 39.7 321 39 321.2C38.6 321.3 38.1 321.4 37.7 321.5C34.4 322.4 31.3 323.8 28.2 325.5C28.1 325.6 27.9 325.7 27.8 325.7C24.1 327.2 21 328.5 18.5 329.5C18 329.7 17.4 329.8 17 330C16.3 330.2 15.6 330.4 15 330.6C13.8 331 12.8 331.3 12.1 331.6C9.09998 332.8 9.69998 333.3 14.1 333C15.2 332.9 16.4 332.8 17.7 332.7C17 333.3 16.3 334 15.6 334.6C14.4 335.9 13.3 337.3 12.4 338.8C12.3 338.9 12.2 339.1 12.1 339.2C13.3 336.1 13.3 335.1 11.8 336.3C11.4 336.6 10.9 337.1 10.3 337.7C9.99998 338 9.69998 338.3 9.39998 338.7C9.09998 339.1 8.79998 339.5 8.49998 339.9C7.89998 340.8 7.19998 341.8 6.59998 343C6.49998 343.3 6.29998 343.5 6.19998 343.8C4.69998 344 3.19998 344.2 1.59998 344.3L2.79998 348.6C3.19998 348.6 3.69998 348.5 4.09998 348.5C3.79998 349.2 3.59998 349.9 3.39998 350.7L2.79998 348.7C2.49998 348.7 2.29998 348.8 1.99998 348.8L2.89998 351.9C2.89998 351.9 2.99998 351.9 2.99998 351.8C2.39998 353.9 1.79998 356.3 1.39998 358.8L0.499983 359C0.599983 359.3 0.699983 359.6 0.799983 360C0.799983 360 0.799983 360 0.699983 360L0.799983 360.2C0.899983 360.5 0.999983 360.8 0.999983 361.1C0.499983 364.9 0.199983 369.1 0.299983 373.8C0.399983 381.5 1.29998 389.3 2.69998 397.2C4.09998 405.2 5.89998 413.2 7.59998 421.5C8.39998 425.6 9.19998 429.8 9.89998 434.1C10.6 438.4 11.1 442.7 11.4 447.1C11.7 451.5 11.7 455.9 11.4 460.4C11.3 461.6 11.2 462.8 11.1 464C10.9 465.3 10.8 466.7 10.6 468L10.5 469V469.1V469.2H10.7L11.2 469.3L13.2 469.6C14.5 469.8 15.9 470 17.3 470.2C18.5 470.4 19.6 470.5 20.8 470.7C22 470.9 23.1 471.1 24.3 471.1C26.6 471.3 29 471.5 31.4 471.7C32.6 471.8 33.8 471.9 35 472C36.2 472 37.4 472.1 38.6 472.1C41 472.2 43.4 472.2 45.8 472.3C55.5 472.1 65.4 471.6 75.4 470C76.7 469.8 77.9 469.6 79.2 469.4L81.1 469.1L83 468.7C85.5 468.2 88 467.6 90.5 467.1L92.4 466.7C93 466.6 93.7 466.4 94.3 466.2C95.6 465.9 96.8 465.5 98.1 465.2C99.4 464.9 100.6 464.5 101.9 464.2L103.8 463.7C104.4 463.5 105 463.3 105.7 463.1C108.2 462.3 110.7 461.4 113.2 460.6L115.1 460L117 459.3C118.2 458.8 119.5 458.3 120.7 457.8C125.8 455.9 130.6 453.5 135.6 451.3C136.9 450.8 138 450 139.3 449.4C140.4 448.8 141.5 448.2 142.7 447.6C142.8 447.6 142.9 447.5 143 447.5C144.2 446.8 145.4 446.2 146.7 445.5C147.9 444.8 149.1 444.1 150.3 443.3C152.7 441.8 155.1 440.4 157.5 438.9C159.8 437.3 162.1 435.7 164.5 434C166.9 432.4 169.1 430.6 171.3 428.8C173.5 427 175.9 425.3 178 423.3C180.2 421.4 182.3 419.4 184.5 417.5C185.6 416.5 186.7 415.4 187.8 414.2C188.9 412.9 189.9 411.5 190.7 409.7C191.5 407.9 191.9 405.9 191.8 404C191.8 402.1 191.4 400.3 190.9 398.7C190.4 397.1 189.8 395.6 189.2 394.1C188.6 392.7 188 391.4 187.3 390C186.9 389.2 186.6 388.4 186.2 387.6C190.3 382.2 197.3 370.3 207.1 351.8C211 344.4 215.1 336.8 219.2 329.1C220.3 327.2 221.4 325.3 222.9 323.6C224.3 321.9 226 320.4 227.8 319.1C231.5 316.6 235.8 314.9 240.1 313.3C241.2 312.9 242.3 312.5 243.3 312.1C244.4 311.6 245.4 311.2 246.5 310.7C248.6 309.8 250.8 308.9 253 307.9C255.1 306.8 257.2 305.7 259.4 304.6C260.5 304 261.6 303.5 262.6 302.9C263.6 302.3 264.7 301.6 265.7 301C273.1 296.7 280 291.5 286.7 285.7C286.3 289.1 286.8 294.1 288.9 300.5C289.1 301.1 289.2 301.6 289.4 302.2C289.6 302.8 289.8 303.4 290.1 304C290.6 305.2 291 306.6 291.5 308C292 309.4 292.7 310.8 293.3 312.3C293.6 313.1 294 313.8 294.3 314.6C294.7 315.4 295.1 316.2 295.5 317C298.6 323.6 302.9 331.1 308.8 339.2C314.7 347.3 320.7 354 326.4 359.6C327.8 361 329.2 362.3 330.6 363.6C332 364.8 333.3 366 334.6 367.2C335.9 368.3 337.2 369.4 338.5 370.4C339.1 370.9 339.7 371.4 340.3 371.9C340.9 372.4 341.5 372.8 342.1 373.3C351.4 380.4 363.7 388.4 379.4 395.6C387.3 399.2 394.9 402.3 402.4 404.8C409.8 407.4 417 409.5 423.9 411.2C425.8 411.7 427.3 412.1 428.5 412.3C431.8 413 434.4 413.3 436.2 413.3C436.3 415.7 436.4 418 436.6 420.4C436.8 423.3 437 426.3 437.2 429.2C437.3 430.7 437.4 432.2 437.5 433.6C437.6 435 437.7 436.8 438.1 438.8C438.3 439.8 438.7 440.9 439.2 442C439.7 443.1 440.5 444.3 441.5 445.2C443.4 447.2 445.8 448.2 447.7 448.7C449.7 449.3 451.5 449.4 453.1 449.6C454.6 449.7 456.1 449.9 457.6 450C463.6 450.5 469.7 451 475.9 451.3C488.2 452.1 500.6 452.7 513.3 453.1C519.2 453.3 524.6 453.4 529.6 453.3C539.5 453.3 545.9 452.9 548.8 452.4C551.8 451.9 551.3 451.3 547.3 450.6C539.4 449.1 525.1 448.3 504.5 447.4C492.7 446.9 477.6 446 459.1 444.5C456.8 444.3 454.4 444.1 452 443.9C449.7 443.6 447.1 443 445.4 441.3C443.7 439.6 443.3 436.9 443.1 434.4C442.9 431.8 442.8 429.1 442.6 426.4C442.5 424.7 442.4 423 442.3 421.3C443.8 421.7 445.6 421.9 447.8 421.9C452.6 422 460.1 422 470.3 422.3C480.5 422.6 488.6 423.1 494.5 423.6C500.4 424.1 507.7 424.8 516.2 426.1C524.7 427.4 532.3 428.9 539.1 430.5C540 430.7 540.8 430.9 541.3 431C545.5 431.7 547.4 431.2 547 429.5C546.6 427.8 544.4 426.2 540.4 425C535 423.5 529 422 522.3 420.8C515.6 419.6 508.3 418.6 500.3 417.9C492.4 417.2 483.8 416.7 474.7 416.5C465.6 416.3 455.9 416.3 445.7 416.5C444.5 416.5 443.4 416.6 442.4 416.7C442.3 416.7 442.2 416.7 442.1 416.7C441.7 408.5 441.3 399.9 441 390.9C440.9 388.9 440.9 386.8 440.8 384.8C441 384.9 441.3 385 441.5 385.1C443.1 385.7 444.9 386.3 447.1 386.9C452.1 388.1 460 390 470.8 392.5C481.6 395 490.1 397 496.4 398.5C502.7 400 510.4 401.8 519.6 403.9C528.8 406 537.2 407.9 544.8 409.5C545.9 409.7 546.7 409.9 547.3 410C548.1 410.1 548.7 410.2 549.3 410.2C548.8 413 548.4 415.8 548 418.6C547.3 423.6 547 427.6 546.8 430.6C546.7 433.4 546.6 436 546.5 438.3C546.5 440.6 546.4 442.3 546.2 443.4C546 444.5 545.7 445.2 545.6 445.3C545.4 445.6 545.1 445.9 544.9 446C544.8 446.1 544.8 446.1 544.8 446.2V446.3C544.8 446.4 544.8 446.5 544.8 446.5C544.8 446.6 544.8 446.7 544.7 446.8C544.7 446.9 544.6 447.1 544.6 447L544.5 447.1C544.4 447.2 544.3 447.4 544.3 447.6C544.3 447.8 544.4 448.1 544.7 448.3C545 448.5 545.6 448.6 546.3 448.5C547 448.4 547.8 448.1 548.6 447.5C549.3 447 550 445.9 550.5 444.6C551.5 442 551.5 438.3 552 434.2C552.1 433.2 552.2 432.1 552.3 431C552.4 429.9 552.5 428.8 552.7 427.6C552.8 426.4 552.9 425.3 553.1 424C553.3 422.8 553.4 421.5 553.6 420.3C554.5 413.4 555.7 406.4 557.3 399.3C558.8 392.2 560.6 384.9 562.6 377.6C563.7 373.5 564.9 369.4 566.1 365.2C567.4 364.8 567.8 364.2 567.3 363.3C567.2 363.1 567 362.9 566.9 362.7C569.9 352.6 573.1 342.3 576.4 331.7C577.6 327.7 578.9 323.7 579.7 319.3C580.1 317.1 580.3 314.9 580.3 312.7C579.9 310.2 579.6 307.9 579 305.7ZM179.3 395.8C179.6 396.5 179.6 397.2 179.5 397.9C179.4 398.6 179.1 399.3 178.8 399.9C178.4 400.6 178 401.2 177.5 401.8C176.9 402.6 176.2 403.4 175.5 404.1C175.9 402.5 176.3 401 176.4 399.3C176.5 398.5 176.5 397.7 176.5 396.9L175.5 397.2C175.5 396.9 175.5 396.7 175.4 396.4L176.4 396V395.9H176.5C176.5 395.9 176.5 396 176.6 396L177.7 395.6L179 395.3C179.2 395.5 179.2 395.6 179.3 395.8ZM9.19998 352.9C9.29998 353.1 9.29998 353.4 9.39998 353.6C9.59998 354.2 9.79998 354.7 9.99998 355.3C8.89998 355.8 7.69998 356.3 6.59998 356.8C6.69998 355.8 6.89998 354.9 7.09998 354C7.79998 353.6 8.49998 353.3 9.19998 352.9ZM19.2 338.3C19.4 338.1 19.7 337.8 19.9 337.6C20.2 337.5 20.5 337.4 20.8 337.3C20.5 337.8 20.2 338.4 19.9 339C19.7 338.9 19.5 338.9 19.3 338.9C19.2 338.7 19.2 338.5 19.2 338.3ZM108.8 449.8L108.4 449.2C109.1 448.9 109.8 448.7 110.8 448.2C114.2 446.7 117.7 445.1 121.1 443.6L121.7 444.3C121.6 444.4 121.4 444.5 121.3 444.6C117.2 446.5 113 448.2 108.8 449.8ZM118.7 286.1C119.7 286.2 120.7 286.3 121.7 286.5C122.6 287.7 123.6 289.2 124.8 291.1C124.4 291.2 123.9 291.3 123.5 291.3L122.3 290C120.9 290.8 119.5 291.7 118.1 292.5C117.8 292.6 117.5 292.7 117.1 292.7L117 292.3C117.3 292.2 117.5 292 117.8 291.9L116.9 289.3C116.9 289.3 116.9 289.2 117 289.2C117.2 288.9 117.4 288.7 117.7 288.1C118 287.7 118.4 287.1 118.7 286.1ZM122 444.2L121.4 443.5C123.5 442.6 125.5 441.7 127.6 440.7C125.8 441.9 123.9 443 122 444.2ZM130.7 307.9C130.6 307.9 130.6 307.9 130.5 307.9C130.3 307.9 130.1 308 129.8 308V307.9C130 307.7 130.1 307.6 130.3 307.4C130.4 307.6 130.6 307.8 130.7 307.9ZM44.3 346.3C44.6 346.2 44.8 346.1 45.1 346C45.2 346 45.4 346.1 45.5 346.1L45.6 346.3C45.1 346.4 44.6 346.5 44 346.6C44.1 346.5 44.2 346.4 44.3 346.3ZM140.2 343.5C141.5 346.4 142.7 349.3 144 352.1C142.8 349.9 141.6 347.7 140.4 345.4C139.8 344.3 139.3 343.3 138.8 342.2C138.9 342.1 138.9 341.9 139 341.8C139.3 342.4 139.7 343 140.2 343.5ZM45.3 426.7L45.1 426.2L47.8 423.3C48.3 423.3 48.9 423.3 49.4 423.3C49.8 423.3 50.1 423.3 50.5 423.3C50.6 423.3 50.6 423.3 50.7 423.3L49.6 424L47.9 425L46.3 426C45.9 426.3 45.6 426.5 45.3 426.7ZM59.2 355.2C59.3 355.2 59.4 355.3 59.5 355.3C58.8 355.6 58 356 57.3 356.3C57.8 355.9 58.4 355.6 59.2 355.2ZM147.6 403.4C147.9 403.1 148.2 402.8 148.5 402.4C148.5 402.5 148.5 402.6 148.5 402.7C148.3 403 148 403.2 147.6 403.4ZM87.9 418.4C88 418.7 88 419 88 419.3C86.9 419.9 85.7 420.5 84.3 421.2C84 420.5 83.7 419.7 83.4 419C83.3 418.9 83.3 418.8 83.2 418.7C84.8 418.5 86.3 418.4 87.9 418.4ZM81.4 362.5L81.5 362.9C81.3 362.8 81.1 362.7 80.9 362.7C81 362.5 81.2 362.5 81.4 362.5ZM63.6 381.7C63.4 382.7 63.2 383.8 63 384.8C60.9 385.8 58.8 386.9 56.8 388.1C57.1 387.1 57.4 386.1 57.7 385C57.8 384.5 57.9 384.1 58 383.7C59.9 383.1 61.8 382.4 63.6 381.7ZM83.7 403.7C84 403.6 84.4 403.5 84.7 403.5C84.4 403.6 84.1 403.7 83.8 403.8C83.8 403.8 83.8 403.8 83.7 403.7ZM66.3 408.1C66.3 408 66.3 408 66.3 407.9C67 407.7 67.8 407.4 68.5 407.2L67.8 407.5L67.2 407.9C66.9 408.1 66.6 408.1 66.3 408.1ZM136 381.9C134.6 382.2 133.2 382.6 131.8 382.9C132.8 381.9 133.7 380.9 134.7 379.9C135.3 379.5 136 379.2 136.6 378.8C136.8 379.7 137.1 380.6 137.3 381.6C136.8 381.7 136.4 381.8 136 381.9ZM79.8 394.9C79.7 394.6 79.6 394.3 79.5 394C80.1 393.9 80.6 393.8 81.2 393.7H81.4C81.1 394 80.7 394.3 80.4 394.6L79.8 394.9ZM78 386.8C78 386.5 77.9 386.2 77.9 385.9C78.4 385.8 78.8 385.7 79.3 385.6C79.3 385.7 79.4 385.8 79.4 385.9C79 386.2 78.6 386.5 78.2 386.7C78.1 386.7 78 386.7 78 386.8ZM101.2 377.8C101.1 378 100.9 378.2 100.8 378.3C100.7 378.2 100.6 378.2 100.5 378.1C100.7 378 101 377.9 101.2 377.8ZM97 382.6C97.1 382.7 97.2 382.8 97.3 382.9C96.9 383.5 96.4 384.1 96 384.7C96.1 383.8 96.1 382.9 96.2 382C96.5 382.2 96.7 382.4 97 382.6ZM111.5 378.4L111.6 378.3C111.6 378.4 111.7 378.4 111.7 378.5C111.6 378.5 111.6 378.6 111.5 378.6C111.5 378.6 111.5 378.5 111.5 378.4ZM97.7 394.7C97.8 394.5 97.9 394.3 98 394.1C98.1 393.9 98.2 393.7 98.4 393.4C98.5 393.2 98.6 393.1 98.7 392.9C99.5 392.9 100.3 393 101.1 393.1C99.9 393.8 98.7 394.5 97.5 395.2C97.6 395 97.7 394.9 97.7 394.7ZM72.3 389.5C70.9 389.8 69.5 390.2 68.1 390.5C68.1 390.4 68.1 390.4 68.1 390.3C69.5 389.6 70.8 388.9 72.1 388.1C72.1 388.6 72.2 389 72.3 389.5ZM88.5 394.1C88.7 393.8 88.9 393.5 89 393.2C89.1 393.2 89.3 393.2 89.4 393.2L89.9 393.1C89.9 393.3 89.9 393.4 89.9 393.6C89.7 393.9 89.5 394.2 89.3 394.5L90 395.2C90 395.4 90 395.7 90.1 395.9C89.9 396.3 89.7 396.8 89.5 397.2C89.4 397.2 89.3 397.2 89.2 397.2C89.1 396.3 88.8 395.2 88.5 394.1ZM71.2 379.3C71.2 380 71.3 380.8 71.4 381.6C70.8 381.8 70.1 382 69.5 382.2C69.7 381.3 69.9 380.5 70.1 379.6C70.4 379.6 70.8 379.5 71.2 379.3ZM73.4 396.1C73.5 396 73.7 396 73.8 395.9C73.9 396.2 73.9 396.4 74 396.7C74.2 397.2 74.3 397.7 74.5 398.3C73.8 398.7 73.2 399 72.5 399.3C71.8 399.7 71.1 400 70.3 400.3C69.2 400.6 68 400.8 66.9 401.1C67 400.4 67 399.7 67.1 399C69.3 398.1 71.4 397.2 73.4 396.1ZM132.2 389.1C131.7 389.6 131.2 390 130.8 390.5C130.7 390.2 130.6 389.9 130.5 389.7C131.1 389.5 131.7 389.3 132.2 389.1ZM131.5 367.7C131.3 367.9 131.1 368.1 130.9 368.3C131 368.1 131.1 367.9 131.3 367.8L131.5 367.7ZM125.6 363.2C124 363.8 122.5 364.5 121 365.1V365C122.7 363.5 124.4 361.9 126 360.2C126.5 360.9 127.1 361.5 127.6 362.2L127.4 362.6C126.8 362.8 126.2 363 125.6 363.2ZM112.2 349C112.7 348.8 113.1 348.5 113.6 348.3C113.7 349.4 113.8 350.6 113.9 351.9C113.4 350.9 112.8 350 112.2 349ZM96.1 361.2C95.8 361.8 95.5 362.4 95.3 363C94.4 363.4 93.5 363.9 92.5 364.4L92.6 364.3C92.9 364 93.2 363.6 93.5 363.3C93.7 363.1 93.8 363 94 362.8C94.4 362.4 94.8 362 95.3 361.6C95.7 361.2 96.2 360.7 96.6 360.3L96.7 360.2C96.5 360.4 96.3 360.8 96.1 361.2ZM59.3 401.8C59.9 401.6 60.5 401.4 61.2 401.2C61.2 401.7 61.1 402.3 61.1 402.8C60.9 402.9 60.6 402.9 60.4 403C59.9 402.6 59.6 402.2 59.3 401.8ZM146.2 380.4C146 380.4 145.8 380.4 145.7 380.4C145.7 380.3 145.8 380.2 145.8 380.1C145.9 380.2 146 380.3 146.2 380.4ZM70.3 413.4C71.5 413.2 72.7 413 73.9 412.7C74.1 413 74.3 413.2 74.5 413.5C73.5 413.8 72.4 414.1 71.3 414.4C71 414 70.7 413.7 70.3 413.4ZM74.2 405.3C74.9 405.1 75.7 405 76.4 404.9C76.7 404.8 77 404.8 77.3 404.7C77.5 405 77.7 405.4 77.9 405.7C77 406 76 406.2 75.1 406.4C74.8 406 74.5 405.7 74.2 405.3ZM49.1 403.9C49.1 403.9 49.2 403.9 49.2 403.8C49.6 403.8 50.1 403.8 50.5 403.8C51.3 403.7 52.1 403.6 52.8 403.5C53 403.8 53.3 404.1 53.5 404.4C52.7 404.5 52 404.5 51.2 404.5C50.4 404.5 49.7 404.5 48.9 404.5C49.1 404.2 49.1 404.1 49.1 403.9ZM79.4 411.9C79.3 411.7 79.1 411.6 79 411.4C79.8 411.2 80.5 411 81.3 410.8C81.4 410.9 81.5 411 81.6 411.2C81.6 411.2 81.6 411.2 81.6 411.3C80.9 411.4 80.1 411.7 79.4 411.9ZM91.8 407C91.9 406.9 92.1 406.9 92.2 406.8C92.1 406.9 92 406.9 91.8 407ZM68.1 368.4C66.1 369 64.1 369.7 62.2 370.5C62.1 370.5 62 370.5 61.8 370.5C61.3 370.5 60.8 370.5 60.3 370.5C60 370.5 59.7 370.4 59.4 370.4C62.5 369.7 65.6 368.8 68.6 367.6C68.4 367.9 68.3 368.2 68.1 368.4ZM77.6 419.5C77.5 419.5 77.5 419.5 77.6 419.5C77.8 419.4 78 419.4 78.3 419.3C78.5 419.7 78.7 420.1 78.9 420.5C78.4 420.2 78 419.9 77.6 419.5ZM98 347.9C97.9 347.9 97.8 347.9 97.8 348C97.9 347.9 97.9 347.9 98 347.8C98 347.8 98 347.8 98 347.9ZM53 375C53 375.1 53 375.2 53 375.4C52.8 375.6 52.5 375.7 52.3 375.9C51.2 376.6 50.2 377.3 49.2 378.1C48.8 378.4 48.5 378.7 48.1 378.9C47.8 377.6 47.6 376.3 47.5 375.1C48 374.8 48.5 374.5 49 374.2L48 372.2C48.6 372.7 49.1 373.1 49.7 373.5C50.8 374 51.9 374.5 53 375ZM42.7 409.5C42.8 409.5 42.9 409.6 43.1 409.6C43 409.7 42.9 409.7 42.8 409.8L42.7 409.5ZM67.7 426.7C67.6 426.9 67.5 427.1 67.4 427.3C67.3 427.3 67.2 427.3 67.2 427.4C67.1 427.1 67 426.9 66.9 426.6C67.1 426.7 67.4 426.7 67.7 426.7ZM77.2 430.5C78.3 430.2 79.4 429.9 80.6 429.6C80.9 429.8 81.2 430 81.6 430.2C80.2 430.4 78.7 430.7 77.3 431L77.2 430.5ZM103 344.8C102.9 344.9 102.9 345 102.8 345.1C102.7 345 102.7 344.8 102.6 344.7C102.7 344.7 102.7 344.6 102.8 344.6C102.9 344.6 103 344.7 103 344.8ZM40.6 410.6L40.7 410.5L41 410.9C40.8 411 40.6 411.2 40.4 411.3C40.4 411.1 40.5 410.8 40.6 410.6ZM45 415.1C46 414.5 47 414 48.1 413.5C48.5 413.7 48.9 413.9 49.3 414.1L48.7 414.3C48.7 414.4 48.8 414.5 48.8 414.6L45.7 415.5C45.5 415.3 45.3 415.2 45 415.1ZM54.8 415.7L55.6 414.9C55.8 414.9 56 414.9 56.3 414.9C56.6 415.6 56.8 416.3 57.1 417C56.5 417.1 55.9 417.2 55.3 417.2C55.1 416.7 55 416.2 54.8 415.7ZM57.8 363.6C57.7 363.3 57.7 363 57.6 362.7C58.4 362.3 59.2 361.9 60.1 361.5C59.2 362.2 58.5 362.9 57.8 363.6ZM112.7 401.8L114.4 400.8C114.5 400.9 114.5 401 114.6 401.1C114.4 401.2 114.3 401.3 114.1 401.3C113.6 401.5 113.2 401.7 112.7 401.9C112.6 401.9 112.7 401.9 112.7 401.8ZM101.4 412.8C101.8 412.7 102.1 412.5 102.5 412.4L102.3 413H101.5C101.5 412.9 101.4 412.9 101.4 412.8ZM128.7 336.5C127.8 336.7 126.9 336.9 125.9 337.2L125.2 337.4C125.2 337.4 125.2 337.4 125.1 337.4C125 337.3 124.9 337.2 124.8 337.1C124.9 337.1 124.9 337 125 337C126 336.1 127 335.1 128 334.2C128.5 334.8 128.8 335.6 128.8 336.6C128.8 336.5 128.7 336.5 128.7 336.5ZM72.7 347.7C73.7 347.3 74.8 347 75.9 346.7C76.2 346.6 76.4 346.5 76.7 346.5L77.4 346.3L78.5 346C79.2 345.9 79.8 345.8 80.5 345.7C79 346.6 77.4 347.4 75.7 348.1C73.1 349.1 70.4 349.7 67.7 350C68.2 349.7 68.7 349.4 69.2 349C70.2 348.5 71.4 348 72.7 347.7ZM42.5 359.1C40.6 360 38.6 361.1 36.8 362.1C36.5 361.4 36.2 360.7 35.9 360C38.3 359.1 40.8 358.2 43.2 357.2C42.8 357.8 42.6 358.4 42.5 359.1ZM33.5 418.5C33.8 418.3 33.9 418.2 34.1 418L34.2 417.9C34.5 417.6 34.8 417.3 35.1 417V417.1C34.8 417.6 34.6 418.1 34.4 418.6C34.3 418.6 34.2 418.6 34 418.6C33.9 418.6 33.7 418.6 33.6 418.6L33.5 418.5C33.4 418.6 33.4 418.6 33.5 418.5ZM106.4 417.7C108.3 416.3 110.1 415.1 112 413.9C112.5 413.6 113 413.3 113.5 413C113.4 413.6 113.4 414.3 113.3 414.9C112.7 415.5 112 416 111.1 416.4C109.8 417.2 108.2 417.6 106.4 417.7ZM118.2 324C117.4 325.2 116.6 326.4 115.6 327.6C115 327.8 114.3 328 113.7 328.2C110.4 329.3 107.2 330.7 104.1 332.3C104.1 331.5 104.1 330.7 104.1 329.8C104.2 329.7 104.3 329.7 104.5 329.6C105.4 329 106.4 328.5 107.3 328C110.3 326.4 113.7 324.8 117.4 323.5C117.7 323.7 117.9 323.8 118.2 324ZM84.5 338.5C84.3 338.7 84 339 83.8 339.3C83.6 339.3 83.5 339.3 83.3 339.3C82.5 339.4 81.6 339.5 80.8 339.7C80.3 339.8 79.7 339.9 79.2 339.9L79.1 339.8C80.9 339.3 82.7 338.8 84.5 338.5C84.5 338.4 84.5 338.4 84.5 338.5ZM45.9 346.1C46 346.1 46.1 346.1 46.1 346.1C46.1 346.2 46 346.2 45.9 346.1ZM44.2 354.7C44 355.1 43.7 355.6 43.5 356L43.2 355.3C43.6 355.1 43.9 354.9 44.2 354.7ZM32.4 410.6C32.5 411 32.7 411.3 32.8 411.7C32.1 412.4 31.3 413.2 30.4 414.1L30.5 412.5C30.5 412.4 30.5 412.3 30.5 412.3C31.1 411.6 31.8 411.1 32.4 410.6ZM30.7 431.5L31.2 431.4C31 431.1 30.8 430.7 30.6 430.4C30.6 429.9 30.5 429.4 30.5 428.9C30.4 427.5 30.4 426 30.4 424.6C30.5 424.6 30.6 424.6 30.8 424.6C31.6 424.5 32.5 424.4 33.5 424.2C33.6 425.9 33.9 427.6 34.9 429.3C33.7 430.6 32.4 432 30.9 433.6C30.8 433 30.7 432.3 30.7 431.5ZM51.9 429.1C52.4 428.8 52.9 428.5 53.4 428.2C53.6 428.6 53.7 429 53.9 429.4C53.3 429.4 52.7 429.5 52 429.5C51.7 429.5 51.4 429.5 51.1 429.5C51.4 429.4 51.7 429.3 51.9 429.1ZM98.7 423.8L99.1 423.4L98.8 424.4L98.7 423.8ZM130.3 421.1L131.4 420.6C131.6 420.7 131.8 420.9 132 421C131.2 421.6 130.3 422.3 129.5 422.9C129.4 422.5 129.2 422.2 128.9 421.8C129.4 421.6 129.9 421.4 130.3 421.1ZM33.5 355.1C33.4 354.7 33.2 354.2 33.1 353.8L36.2 353.5C35.3 354 34.4 354.6 33.5 355.1ZM39.6 438.7C40 438.3 40.5 437.9 41 437.4C41.6 436.9 42.2 436.3 42.8 435.7C43.1 436.5 43.5 437.4 43.8 438.2C42.6 438.9 41.5 439.5 40.3 440.2L39.3 438.8C39.4 438.8 39.5 438.8 39.6 438.7ZM48.9 435.3C49 435.3 49.1 435.3 49.2 435.3C49.1 435.3 49 435.4 48.9 435.4V435.3ZM99.1 426.5C99.6 426.4 100.1 426.3 100.5 426.2C100.1 426.5 99.6 426.7 99.1 427V426.5ZM77 329.1C77.3 329.1 77.5 329.1 77.9 329C77.2 329.7 76.4 330.3 75.6 330.9L74.7 331C75 330.8 75.3 330.6 75.5 330.3L77 329.1ZM21.7 408.8C21.3 408.9 20.9 409 20.5 409.1C20 407.8 19.5 406.6 19 405.3C19.6 404.8 20.2 404.3 20.8 403.9C21.1 405.5 21.4 407.2 21.7 408.8ZM118.8 427.1C119 426.8 119.3 426.6 119.5 426.3C119.8 426.2 120 426.1 120.3 426C120.9 425.8 121.5 425.6 121.9 425.5L122.3 425.4L122.6 425.3C122.7 425.3 122.7 425.3 122.8 425.3C123.2 425.2 123.7 425.5 123.8 425.9C123.8 426.1 123.8 426.4 123.8 426.5V426.6C123.8 426.7 123.7 426.8 123.7 426.9V427C123 427.5 122.2 428 121.5 428.5C120.4 428.4 119.4 428.2 118.3 428C118.3 427.7 118.6 427.4 118.8 427.1ZM164.1 387.4C164.1 387.3 164 387.1 164 387C164.1 386.9 164.2 386.8 164.2 386.6C164.2 386.8 164.2 387 164.1 387.1C164.2 387.2 164.1 387.3 164.1 387.4ZM118.2 304.3C117.7 304.9 117.1 305.5 116.6 306.1C116 306.7 115.5 307.3 114.9 307.9C114.8 307.9 114.7 307.9 114.6 308C114.3 308.1 114 308.2 113.7 308.3C115.6 306.7 117.5 304.9 119.3 303.1C119.3 303.1 119.3 303.2 119.2 303.2C118.8 303.5 118.5 303.9 118.2 304.3ZM135.7 430.1C136.2 429.7 136.7 429.3 137.2 429C136.6 429.7 136 430.4 135.2 431C134.6 431.5 133.9 431.9 133.2 432.3C134.1 431.5 134.9 430.8 135.7 430.1ZM37.2 340.7L36.1 341.7C34.4 342.6 32.6 343.6 31 344.7C30.8 344.8 30.7 344.9 30.6 345C30.5 344.6 30.3 344.1 30.1 343.7C32.4 342.6 34.8 341.7 37.2 340.7ZM18.9 395.3C18.9 395.5 19 395.7 19 395.9C18.1 396.1 17.2 396.4 16.4 396.6C16.2 396 16.1 395.3 15.9 394.7C16.7 394.2 17.5 393.7 18.3 393.2C18.6 393.9 18.8 394.6 18.9 395.3ZM95.2 441.8C96 441.3 96.8 440.8 97.5 440.3C100.4 438.2 102.8 435.8 104.7 433.2C105.8 432.7 106.9 432.2 108 431.7C106.8 433.3 105.6 434.9 104.3 436.6C103.8 437.2 103.4 437.9 102.9 438.6C100.5 439.7 97.9 440.8 95.2 441.8ZM145.8 426.7C145.6 426.8 145.3 426.9 145.1 427C145.7 425.4 146.2 423.8 146.5 422.2C146.8 422 147.1 421.8 147.5 421.5C147.7 421.6 147.9 421.7 148.1 421.8C148.9 422.2 149.7 422.4 150.5 422.6C148.9 424 147.4 425.3 145.8 426.7ZM11.6 368.3C10.9 368.7 10.1 369.2 9.39998 369.6C9.29998 369.3 9.19998 369 9.19998 368.7C9.99998 368.5 10.8 368.2 11.6 368C11.6 368.1 11.6 368.2 11.6 368.3ZM13.2 373.5C13.3 373.7 13.3 373.9 13.4 374.1C12.6 374.4 11.8 374.7 10.9 375V374.9C11.6 374.4 12.4 374 13.2 373.5ZM115.3 293.3C115.4 293.2 115.6 293.1 115.7 293C116 292.9 116.4 292.9 116.7 292.8C116.2 293 115.8 293.2 115.3 293.3ZM36.3 333.3L29.3 336.7L32.1 337C30.8 337.4 29.6 337.9 28.3 338.3C28.1 337.7 27.9 337.2 27.7 336.6L27.2 335.1C30.1 334.1 33 333.1 36 332.1L36.3 333.3ZM14.7 379.3C14.4 379.6 14.2 379.8 13.9 380.1L15.8 383V383.1C15 383.5 14.1 383.8 13.3 384.2C12.6 381.5 11.9 378.8 11.1 376L13.5 379.6C14 379.6 14.3 379.5 14.7 379.3ZM165.2 405C165.9 404 166.6 403 167.1 401.9C168.2 401.3 169.2 400.7 170.3 400.1C170.2 400.9 170 401.8 169.7 402.6C168.2 403.5 166.7 404.2 165.2 405ZM170.5 398.7C170.5 398.6 170.5 398.6 170.5 398.7V398.7ZM111.5 287.7C111.4 287.8 111.4 287.9 111.3 288C111.1 288.1 110.9 288.1 110.7 288.2C111 287.9 111.4 287.7 111.7 287.4C111.7 287.4 111.6 287.5 111.5 287.7ZM31.7 329.4C32.5 329.2 33.4 328.9 34.3 328.7L34.4 328.9C34 329 33.6 329.2 33.3 329.3C32.9 329.4 32.6 329.5 32.2 329.6C31.5 329.8 30.8 330 30 330.3C30.5 330 30.9 329.8 31.4 329.5C31.5 329.4 31.6 329.4 31.7 329.4ZM9.49998 361C9.49998 361.1 9.59998 361.2 9.59998 361.3C9.09998 361.7 8.59998 362.1 7.99998 362.4C7.99998 362.1 7.89998 361.9 7.89998 361.6C8.49998 361.4 8.99998 361.2 9.49998 361ZM62.3 463.6C64.1 463.6 65.8 463.6 67.7 463.6C67.6 463.6 67.6 463.6 67.5 463.7C65.4 464.4 63.3 464.6 61.1 464.6C60 464.6 59 464.5 57.9 464.4H57.7C59.2 464.1 60.7 463.8 62.3 463.6ZM105.2 450.4L107.2 449.7C107.5 449.6 107.8 449.5 108.1 449.3L108.5 449.9C107.5 450.3 106.6 450.6 105.6 451C104.2 451.5 102.9 451.9 101.5 452.3C102.8 451.7 104 451.1 105.2 450.4ZM173.7 398.1L173.1 398.3C173 398 173 397.7 172.9 397.4L173.2 397.3C173.4 397.6 173.6 397.9 173.7 398.1ZM6.89998 387C6.79998 387 6.79998 387 6.89998 387C6.79998 386.8 6.79998 386.5 6.69998 386.3C6.69998 386.5 6.79998 386.8 6.89998 387ZM43.1 465V465.6C42.2 465.6 41.3 465.6 40.4 465.5C41.3 465.4 42.2 465.2 43.1 465ZM142.2 440C142.4 439.9 142.6 439.8 142.8 439.6C142.7 439.7 142.7 439.7 142.6 439.8C142.5 439.9 142.4 440 142.2 440ZM175.3 381C172.6 375.3 169.9 369.6 167.2 364.1C166.5 362.6 165.8 361.1 165 359.6C163.9 357.2 162.7 354.8 161.5 352.5L161.4 352.3L162.8 351.8C168 363.1 172.9 373.7 177.5 383.8C176.8 382.9 176.1 381.9 175.3 381ZM137 298.3C137.1 298.1 137.1 297.9 137.2 297.7C137.6 298.4 138 299.1 138.4 299.8C137.9 299.3 137.4 298.8 137 298.3ZM78.8 309.6C79.7 309.1 80.7 308.5 81.6 308C77.9 310.9 74.2 314 70.6 317.2C68.1 317.9 65.7 318.8 63.2 319.6L63.4 320.1C63.4 320.1 63.4 320.1 63.3 320.1L63.1 319.6C61 320.4 58.9 321.2 56.7 322.1C53.9 323 50.9 323.8 47.9 324.7L47.7 324.1C51.2 322.8 54.9 321.3 58.7 319.6C59.9 319.1 61.1 318.5 62.4 317.9L63 319.6C63 319.6 63 319.6 63.1 319.6L62.5 317.9C67.6 315.6 73 312.9 78.8 309.6ZM8.79998 347.4C8.79998 347.7 8.69998 348 8.69998 348.4C8.69998 348.4 8.69998 348.4 8.69998 348.5C8.59998 348.6 8.39998 348.6 8.29998 348.7C8.39998 348.3 8.49998 347.9 8.59998 347.6C8.69998 347.4 8.69998 347.4 8.79998 347.4ZM21.8 464.2C20.5 464 19.2 463.8 17.8 463.6L17 463.4C16.8 463.4 16.8 463.3 16.8 463.1H16.9L17.5 463.2C17.7 463.2 18 463.2 18.2 463.2C20 463.2 21.8 463.2 23.7 463.2C25.4 463.2 27.2 463.2 29.1 463.2L29.8 464.8C28.6 464.7 27.3 464.6 26.1 464.5C24.6 464.6 23.2 464.5 21.8 464.2ZM34.6 465.4C33.8 465.3 33.1 465.3 32.4 465.2C33 464.6 33.7 464 34.4 463.4C35.1 463.4 35.9 463.4 36.6 463.4L37.3 465.5C36.3 465.4 35.4 465.4 34.6 465.4ZM82.4 462C82.7 461.1 83.1 460.2 83.4 459.2C84.5 458.9 85.6 458.6 86.7 458.2L87.4 460.9C85.8 461.3 84.1 461.6 82.4 462ZM183.7 408.2C182.5 409.9 180.9 411.5 179.1 413.1C177.3 414.7 175.6 416.2 173.9 417.7C173.1 418.4 172.3 419.1 171.5 419.8L171.3 419.5C173.7 416.8 176.1 414.1 178.3 411.4L177.7 410.6C178.4 409.8 179.2 408.9 179.9 408.1L180.7 407.2C181 406.9 181.2 406.6 181.5 406.2C182.1 405.5 182.7 404.7 183.3 403.8C183.6 403.3 183.9 402.9 184.2 402.2C184.4 401.7 184.6 401.2 184.8 400.7C184.9 401.3 185 401.9 185.1 402.5C185.4 404.7 184.9 406.5 183.7 408.2ZM277.9 284.2C276.7 285.1 275.6 286.2 274.4 287C272 288.7 269.6 290.5 267.2 292.2C264.7 293.7 262.2 295.3 259.8 296.8C258.6 297.6 257.3 298.2 256 298.9C254.7 299.6 253.5 300.2 252.2 300.9C249.7 302.3 247.1 303.3 244.5 304.4C243.2 305 241.9 305.5 240.6 306.1C239.3 306.6 237.9 307.1 236.6 307.6C233.8 308.7 231 309.8 228.1 311.3C225.2 312.8 222.3 314.7 219.8 317.3C217.3 319.8 215.5 322.7 214 325.3C212.5 328 211.3 330.3 210 332.8C207.5 337.7 205 342.5 202.5 347.2C199.8 352.5 197.6 356.7 195.9 359.8C190.3 371 186.4 379.1 184.3 384.1C182.7 380.6 181 377 179.4 373.4C174.4 362.5 169.2 351.5 164 340.2C161.4 334.6 158.8 328.9 156.1 323.2C153.4 317.5 150.8 311.8 148 305.9C145.9 301.5 143.6 297.1 140.8 292.8C141 292.6 141.2 292.4 141.4 292.2C142.6 291.1 143.9 289.8 145.2 288.3C146.6 286.8 147.9 285.1 149.3 283.2C152.5 278.8 156.4 273 160.5 265.5C162.6 261.7 164.6 257.5 166.6 252.8C168.6 248.1 170.4 243 172.2 237.3C173.9 231.7 175.2 226.2 176.2 221C176.6 218.4 177.1 215.9 177.4 213.4C177.6 212.2 177.7 210.9 177.9 209.7C178 208.5 178.1 207.3 178.3 206.1C179.2 196.8 179.2 188.6 178.7 181.6C178.3 174.7 177.4 166.9 175.5 158.5C173.6 150.1 170.9 141 166.8 131.5C164.7 126.8 162.6 122.4 160.7 118.2C158.8 114 157.3 109.9 156.3 105.9C155.8 103.9 155.5 102 155.3 100.1C155.2 99.1 155.2 98.3 155.2 97.4C155.3 96.5 155.2 95.6 155.4 94.8C155.8 91.3 157 88 158.6 85.2C159.5 83.7 160.4 82.6 161 81.9C163.2 79.4 165.1 78.3 166.3 77.5C166.3 78.2 166.4 78.9 166.5 79.6C166.7 81.6 167.1 83.6 167.7 85.6C168 86.6 168.3 87.6 168.6 88.5C168.8 89 168.9 89.5 169.1 90C169.3 90.5 169.5 91 169.7 91.5C172.7 99.4 177.3 107.2 182 115.2C184.3 119.2 186.7 123.3 188.6 127.5C190.6 131.7 192.3 136.1 193.2 140.6C193.4 141.7 193.6 142.6 193.9 143.4C194.5 146.8 195.6 147.9 197 146.3C197.7 145.5 198.2 144.3 198.5 142.8C198.6 142.1 198.6 141.2 198.6 140.3C198.5 139.4 198.5 138.4 198.2 137.4C197.2 132.7 194.6 125.3 189.4 116C186.8 111.4 184.5 107.3 182.5 103.6C180.5 100 178.9 96.8 177.7 94.1C177.1 92.7 176.4 91.3 175.9 89.8C175.6 89 175.3 88.3 175 87.4C174.8 86.6 174.5 85.8 174.2 84.9C173.6 83.2 173.2 81.5 173 79.7C172.8 77.9 172.6 76 172.8 74.2C173 72.4 173.4 70.8 174.1 69.6C174.4 69 174.8 68.4 175.2 67.9C175.4 67.7 175.6 67.5 175.8 67.3C176 67.1 176.3 67 176.5 66.8C178.4 65.5 181.1 65.2 183.2 65.7C183.8 65.8 184.2 66 184.5 66.1C185.7 66.4 186.4 66.7 187.1 66.7C187.6 66.7 188 66.5 188.4 66.1C187.9 69 187.9 72 188.2 75C189.4 85.2 193.2 95.5 197.8 105.7C200.1 110.8 202.5 116 204.7 121.3C206.9 126.6 208.8 132.1 209.9 137.7C210.2 139 210.4 140.2 210.7 141.3C211.2 143.4 211.6 144.8 212.1 145.4C212.6 146 213.2 145.9 213.9 144.9C214.5 143.9 215.1 142.5 215.2 140.7C215.3 138.9 215.2 136.7 214.6 134.3C214 131.4 213 127.8 211.4 123.5C209.9 119.1 207.7 114.1 205.2 108.3C200.1 96.8 196.6 87.6 195.2 80.7C194.4 77.3 193.8 73.4 194.1 69.4C194.2 67.4 194.6 65.4 195.3 63.6C196 61.8 197.1 60.1 198.5 58.8C199.9 57.4 201.6 56.6 203.1 56.3C203.9 56.2 204.5 56.1 205.3 56.2C205.7 56.2 206 56.3 206.4 56.4C206.7 56.4 207.1 56.7 207.4 56.8C210 57.9 212.4 60.9 214.3 64.1C214.8 65 215.2 65.8 215.5 66.3C215.7 66.6 215.9 67 216.1 67.3C216.1 67.6 216.2 67.9 216.2 68.2C216.4 69.3 216.6 70.4 216.8 71.4C217.8 75.5 219.2 79.2 220.6 82.9C222 86.5 223.4 90 224.7 93.4C225 94.2 225.2 95 225.5 95.7C225.7 96.4 226 97.2 226.2 97.9C226.5 99.2 226.9 100.8 227.3 102.4C228 105.5 228.6 108.5 229.1 111.3C231.2 122.6 232 130.1 232.7 133.6C233.4 137 234 136.4 234.4 131.7C234.8 127 234.8 120.3 233.8 111.8C233.3 107.6 232.6 102.8 231.5 97.7C230.4 92.7 228.1 87.4 225.9 81.5C224.6 78.2 223.3 74.6 222.3 70.6C221.8 68.6 221.4 66.5 221.4 64.3C221.4 62.1 221.7 59.8 222.5 57.7C222.9 56.6 223.5 55.6 224.2 54.6C224.9 53.7 225.9 52.9 226.9 52.2C229 50.9 231.6 50.6 234.1 50.9C239.2 51.5 244.2 54.1 247.9 58.2C248.8 59.2 249.7 60.3 250.4 61.6C250.8 62.2 251.1 62.8 251.5 63.4L252.1 64.3L252.6 65.3C253.9 67.9 255.1 70.6 256.2 73.5C258.3 79.2 259.9 85.3 261.3 91.8C264 104.7 265.4 118.9 267.1 134.1C268.6 146.8 269.4 159.1 269.6 170.7C269.3 171.9 269 173.1 268.8 174.4C268.5 176.1 268.3 177.6 268.2 179C268 181.8 268.3 183.7 268.7 184.6C268.9 185.1 269.2 185.2 269.5 185.1C269.4 189.1 269.3 193.1 269 197C268.8 200.2 268.6 203.3 268.3 206.4C268.2 208 268 209.5 267.9 211C267.8 212.6 267.7 214.2 267.7 215.8C267.7 219 268.1 222.3 269.8 225.5C270.7 227.1 272 228.5 273.5 229.4C275 230.3 276.8 231.1 278.6 231.1C280.4 231.2 282.2 230.9 283.7 230.2C285.2 229.6 286.6 228.8 287.8 227.8C290.3 225.9 292.2 223.8 293.8 221.4C294.6 220.2 295.3 219 296 217.8C296.6 216.6 297.2 215.5 297.7 214.3C298.8 212 299.8 209.7 300.8 207.5C302.8 203.1 304.7 198.9 306.7 195C308.7 191.2 310.9 187.4 313.7 184C316.5 180.6 319.8 177.6 323.7 175.6C325.5 174.7 327.6 174.1 329.3 174.1C330.2 174.1 330.9 174.3 331.4 174.6C331.9 174.9 332.3 175.3 332.6 175.9C333.2 177.1 333.3 179.3 333.1 181.8C332.8 184.4 332.5 187 332.1 189.7C330.5 200.3 327.7 211.1 323.4 222C319.1 232.8 313.2 243.6 305.9 253.9C298.5 264.2 290.1 273.4 280.9 281.2C280.2 282.3 279.1 283.2 277.9 284.2ZM425.3 405.2C414.8 402.3 403.3 398.6 391.3 393.6C379.2 388.6 366.6 382.2 354 373.9C341.5 365.5 329.1 355 318.2 341.8C307.4 328.7 298 312.9 292.5 294.9C292.1 293.9 291.9 292.8 291.6 291.9C291.3 290.9 291 290 290.7 289.1C290.1 287.4 289.8 285.9 289.3 284.8C289 284.1 288.8 283.5 288.6 283C288.7 282.9 288.9 282.8 289 282.6C290.8 280.9 292.7 279.1 294.6 277.3C296.4 275.5 298.1 273.5 299.9 271.6C300.8 270.6 301.7 269.7 302.5 268.7C303.3 267.7 304.1 266.7 305 265.6C305.8 264.6 306.7 263.6 307.5 262.5C308.3 261.5 309.2 260.5 309.9 259.3C311.4 257.1 313 254.9 314.5 252.8L315.1 252L315.6 251.1L316.6 249.4C317.3 248.2 318 247.1 318.7 245.9C319.4 244.7 320.1 243.6 320.8 242.4C321.4 241.2 322.1 240 322.7 238.8C323.3 237.6 324 236.4 324.6 235.1C324.9 234.5 325.2 233.9 325.5 233.3L326.3 231.4C327.4 228.9 328.5 226.3 329.6 223.7C330.5 221.1 331.5 218.4 332.4 215.8L333.1 213.8C333.3 213.1 333.5 212.4 333.7 211.8C334.1 210.4 334.5 209.1 334.8 207.7C335.2 206.3 335.6 204.9 335.9 203.6C336.2 202.2 336.5 200.8 336.8 199.4C337.1 198 337.4 196.6 337.7 195.1L338.1 193L338.4 190.8C338.8 187.9 339.1 185 339.5 182.1C339.6 180.6 339.7 179 339.5 177.3C339.3 175.6 338.8 173.7 337.6 172C336.4 170.3 334.6 169 332.7 168.5C330.8 167.9 328.9 167.9 327.1 168.2C325.3 168.5 323.7 169 322.1 169.7C321.7 169.9 321.3 170.1 320.9 170.3L319.9 170.9L317.8 172.1C315.1 173.9 312.6 176 310.5 178.5C308.4 180.9 306.4 183.5 304.8 186.2C303.9 187.5 303.2 188.9 302.4 190.3C301.7 191.7 300.9 193.1 300.2 194.5C297.4 200.1 295.1 205.8 292.5 211.3C291.9 212.7 291.2 214.1 290.5 215.3C289.9 216.5 289.1 217.7 288.3 218.8C287.5 219.9 286.5 220.9 285.6 221.9C284.6 222.8 283.6 223.6 282.5 224.2C281.4 224.8 280.4 225.1 279.5 225.2C278.6 225.2 277.8 225.1 276.9 224.6C276.1 224.2 275.5 223.5 274.9 222.7C274.4 221.8 274 220.7 273.8 219.4C273.3 216.8 273.4 213.9 273.7 210.8C273.8 209.2 274 207.5 274.1 205.9C274.2 204.3 274.3 202.6 274.4 201C275.1 190.7 275.3 180.3 275 169.7C275.7 167.3 276.6 164.5 277.7 161.4C278.6 159.1 279.4 156.5 280.1 153.7C280.9 150.9 281.6 147.8 282.5 144.6C283.4 141.4 284.5 138.5 285.8 135.9C287.1 133.4 288.6 130.9 290 128.7C292.8 124.2 295.3 120.4 297.6 117.3C299.8 114.2 302.4 110.7 305.4 107.1C308.4 103.6 312 99.8 316.1 96.1C320.2 92.4 324.3 89.1 328.3 86.8C330.3 85.6 332.3 84.7 334.2 84C336.1 83.4 337.8 83.1 339.1 83.2C339.5 83.2 339.8 83.3 340 83.3C340.3 83.4 340.5 83.4 340.7 83.5C341.1 83.6 341.5 83.7 341.9 83.8C341.7 84 341.5 84.1 341.3 84.3C338.9 86.5 337.2 88.7 335.9 90.5C334.6 92.3 333.1 94.3 331.5 96.5C329.9 98.7 328.1 101.1 326.2 103.8C322.4 109.1 319.1 114.1 316.3 118.6C315.9 119.2 315.6 119.7 315.4 120.1C314 123.1 314.2 124.7 315.9 124.9C317.6 125.1 319.4 123.9 321.1 121.4C323.5 118 326.1 114.2 329 110.2C330.5 108.2 332 106.1 333.6 103.9C335.2 101.7 336.9 99.5 338.6 97.1C340.3 94.7 342 92.3 343.9 90.2C344.8 89.2 345.8 88.2 346.9 87.3C348 86.5 349.1 85.7 350.4 85.1C351.6 84.5 353 83.9 354.3 83.5C355.6 83.1 356.8 83 357.6 83.1C357.8 83.1 357.9 83.2 358.1 83.2C358.2 83.2 358.2 83.3 358.3 83.3C358.4 83.3 358.3 83.3 358.4 83.4C358.4 83.5 358.8 83.8 359.3 84.2C360.3 85.1 361.4 86.3 362.4 87.5C362.9 88.1 363.4 88.6 363.8 89C364.1 89.3 364.4 89.5 364.6 89.7C362.8 91.5 361.3 93.1 360 94.6C356.9 98.2 353.3 102.8 349.3 108.6C345.3 114.4 342.1 119.9 339.5 125C339.1 125.7 338.8 126.3 338.7 126.7C337.5 130 337.8 131.7 339.6 131.7C341.4 131.7 343 130.3 344.6 127.4C349 119.8 354.7 110.9 362.3 101.5C364.2 99.1 366.2 96.7 368.4 94.5C370.6 92.3 372.9 90.2 375.5 88.7C376.8 88 378.1 87.3 379.5 86.9C380.8 86.5 382.1 86.3 383.5 86.3C386.2 86.3 388.9 87.1 390.6 88.5C389.7 89.6 388.8 90.6 387.9 91.6C382.1 98.4 376.4 105.5 370.9 112.9C367.7 117.2 365 121.2 362.5 125C357.7 132.5 354.9 137.6 353.9 140.1C352.9 142.6 353.7 142.5 356.2 139.9C361.2 134.7 368.7 124.3 380 109.7C383.2 105.5 387.1 100.9 391.5 95.7C393.7 93.2 396 90.4 398.7 87.8C400.1 86.5 401.5 85.2 403.2 84.2C404 83.7 404.9 83.2 405.8 82.8C406.7 82.4 407.7 82.1 408.7 81.9C410.7 81.5 412.9 81.7 414.9 82.4C416.9 83.1 418.8 84.4 419.8 86.3C420.9 88.2 420.9 90.5 420.4 92.7C419.9 94.9 418.9 97.1 417.9 99.3C415.8 103.7 413 107.9 409.9 112.1C406.8 116.3 403.3 120.5 399.7 124.9C390.4 136.3 381.8 148.4 374.1 160.9C370.2 167.2 366.5 173.6 363 180.1C362.6 180.9 362.1 181.8 361.7 182.7C361.6 182.9 361.5 183.1 361.4 183.4L361 184.3C360.8 184.9 360.6 185.5 360.4 186.1C359.6 188.5 359.2 190.9 359.2 193.2C359.2 195.4 359.7 197.5 360.7 199.4C360.9 199.9 361.2 200.3 361.5 200.8C361.8 201.3 362.1 201.8 362.4 202.2H363.3C363.6 202.2 363.9 202.3 364.3 202.3L369.5 198.1L374.7 193.7L378.5 190.5C379.7 189.5 380.9 188.5 382.2 187.6C384.2 186 386.3 184.5 388.5 182.9C390.7 181.3 393 179.8 395.6 178.4C398.1 177 400.9 175.7 403.9 175.1C405.4 174.7 407 174.6 408.6 174.6C410.2 174.6 411.8 174.9 412.3 175.4C412.6 175.6 412.8 176 413 176.3C413.2 176.7 413.3 177.2 413.4 177.8C413.4 178.4 413.4 179 413.2 179.6C413.1 179.9 413 180.2 412.9 180.5C412.8 180.8 412.6 181.2 412.4 181.5C411.6 182.8 410.2 184.2 408.6 185.6C407.8 186.3 406.8 187.1 405.9 187.8C405 188.6 404 189.3 403 190.1C399.1 193.2 394.9 196.5 390.6 200.4C388.5 202.3 386.4 204.5 384.4 206.8C382.4 209.1 380.5 211.6 378.8 214.3C376 218.8 374 223.6 372.5 228.3C371 233.1 369.9 238 369.4 242.9C368.3 252.7 369.1 262.5 371.9 271.6L372.4 273.3L372.7 274.1L373 275C373.5 276.1 373.9 277.3 374.4 278.4C374.9 279.5 375.5 280.6 376.1 281.6C376.4 282.1 376.7 282.7 377 283.2L378 284.7L379 286.2L379.5 286.9L380.1 287.6C380.8 288.5 381.6 289.4 382.3 290.3C383.1 291.2 383.9 292 384.7 292.8L385.9 294C386.3 294.4 386.7 294.8 387.2 295.2C388 296 388.9 296.7 389.7 297.5C390.6 298.2 391.5 298.9 392.3 299.6L393.6 300.6L395 301.5C395.9 302.1 396.8 302.7 397.7 303.3C401.4 305.6 405.1 307.7 408.9 309.4C411 310.4 413 311.2 414.7 311.9C416.4 312.6 418 313.1 419.3 313.6C424.2 315.1 428.5 316.1 432.1 316.6C433 316.8 433.8 316.9 434.6 317C435.4 317.1 436.1 317.2 436.7 317.3C436.8 317.3 436.8 317.3 436.9 317.3C436.9 317.4 436.9 317.5 436.9 317.7C436.9 317.8 436.9 317.9 436.9 317.9C436.9 318 436.9 318.1 436.9 318.2C437 318.3 437.1 318.5 437.3 318.7C436.1 324.1 435.4 329.5 434.9 335C433.9 346 433.9 357.2 434 368.4C434.2 379.6 434.5 391 435 402.6C435.1 404.7 435.2 406.9 435.3 409C433.2 407.5 429.8 406.4 425.3 405.2ZM549.9 404.9C548.8 404.4 547.4 403.9 545.7 403.5C533.9 400.5 519.7 397.1 503 393.3C494.7 391.4 485.7 389.4 476.2 387.3C466.6 385.2 456.5 383 445.7 380.6C444.4 380.3 443.1 380.1 441.8 380.1C441.3 380.1 440.8 380.1 440.3 380.1C440.1 371.6 440 363.5 440.1 355.7C442.1 356.7 445 357.2 448.8 357.4C454.4 357.7 463.3 358.2 475.3 358.9C487.3 359.7 496.8 360.4 503.8 360.9C510.8 361.5 519.4 362.2 529.7 363C540 363.9 549.3 364.7 557.6 365.4C558.2 365.5 558.8 365.5 559.3 365.5C555.5 378.9 552.2 392 549.9 404.9ZM560.9 360.2C560.1 360 559.2 359.9 558.2 359.8C545 358.3 529.2 356.7 510.6 355.2C492 353.8 470.7 352.5 446.6 351.8C445.2 351.8 443.9 351.8 442.7 351.9C441.7 352 440.8 352.1 440.1 352.2C440.3 341.8 441 332 442.7 323C442.9 322.2 443 321.4 443.2 320.5C444.7 320.8 446.5 320.9 448.4 321C454.4 321.2 463.7 321.5 476.5 322.1C489.3 322.7 499.3 323.3 506.8 323.8C514.2 324.3 523.3 325 534.1 326C544.9 327 554.7 328.2 563.3 329.5C564.5 329.7 565.5 329.8 566.2 329.9C567.7 330 569 330.1 570 330.1C569.6 331.3 569.2 332.6 568.9 333.8C566.2 342.7 563.5 351.5 560.9 360.2ZM573.1 319.1C572.6 321.4 572 323.7 571.3 326.1C569.8 325.2 567.5 324.4 564.4 323.8C550.6 321.2 533.8 319.3 514 318C494.3 316.6 471.6 315.8 446.1 315.5C445.5 315.5 445 315.5 444.5 315.5C445.1 313.3 445.7 311.2 446.4 309.2C447.1 307 448 305 448.8 303C449.3 302 449.7 301 450.2 300.1C450.4 299.6 450.7 299.1 450.9 298.7L451.4 297.8L451.8 297L451.9 296.9H452H452.2H452.7C453.5 296.8 454.3 296.8 455 296.7C457.1 296.5 459.1 296.4 461.1 296.2C465.1 295.9 468.9 295.7 472.6 295.5C487.2 294.7 503.6 294.4 521.7 295C530.7 295.3 540.2 295.8 550 296.6C552.5 296.8 554.9 297 557.4 297.2C559.8 297.4 562.2 297.7 564.2 298.3C566.3 298.9 568 299.7 569.4 301C570.8 302.2 571.9 303.9 572.6 305.9C573.3 307.9 573.7 310.1 573.8 312.2C573.8 314.5 573.6 316.8 573.1 319.1Z" fill="black"/>
<path d="M278.9 388.1C278.8 387.2 278.7 386.3 278.5 385.5C277.9 382.4 276.9 381.6 275.5 383.1C274.1 384.6 273.5 387 273.7 390.3C273.9 394.1 274.2 400.1 274.7 408.4C275.3 416.6 275.8 423.1 276.2 427.9C276.6 432.7 277.1 438.6 277.8 445.6C278.5 452.6 279.3 459 280.1 464.7C280.2 465.5 280.3 466.1 280.4 466.6C281.2 470 282.4 471.2 283.9 470.3C285.4 469.3 286 467.2 285.7 463.8C284.1 445.7 281.4 420.5 278.9 388.1Z" fill="black"/>
<path d="M257 395.9C255.3 396.5 254.1 398 253.4 400.3C252.6 402.9 251.2 407 249.4 412.6C247.5 418.2 245.9 422.5 244.8 425.7C243.6 428.9 242.2 432.8 240.4 437.5C238.6 442.2 237 446.4 235.6 450.1C235.4 450.6 235.2 451 235.1 451.4C234.6 453.8 235.1 455 236.8 455C238.5 455 239.9 453.9 240.9 451.7C246.3 439.9 252.8 422.9 259.1 400.2C259.3 399.5 259.4 398.9 259.4 398.3C259.5 396.1 258.7 395.3 257 395.9Z" fill="black"/>
<path d="M419.2 120.3C417 122.3 416.9 123.6 418.8 124C420.7 124.5 423 123.9 425.6 122.2C428.6 120.3 433.4 117.2 439.8 113C446.3 108.8 451.4 105.5 455.1 103.1C458.9 100.6 463.5 97.6 469 94C474.5 90.4 479.4 87.1 483.9 84C484.5 83.6 485 83.2 485.4 83C487.9 80.9 488.4 79.3 486.9 78.4C485.4 77.5 483.3 77.9 480.7 79.5C466.3 88.3 446.5 101.4 421.3 118.7C420.4 119.3 419.8 119.8 419.2 120.3Z" fill="black"/>
<path d="M480 131C481.7 130.5 482.2 129.4 481.5 127.9C480.8 126.4 479.6 125.6 477.9 125.6C468.6 125.8 455.5 127.1 438.9 131.3C438.4 131.4 438 131.6 437.6 131.8C436.1 132.6 436 133.6 437.2 134.8C438.4 136 439.8 136.5 441.5 136.1C443.4 135.7 446.5 135.2 450.7 134.5C454.9 133.8 458.1 133.4 460.6 133.1C463 132.8 466 132.4 469.5 132.1C473 131.7 476.2 131.4 479.1 131.1C479.4 131.1 479.7 131.1 480 131Z" fill="black"/>
<path d="M74.1 18.6C77.4 22.8 81 27.3 84.7 32.3C92 42.3 99.9 54.1 107.5 67.9C108 68.7 108.4 69.4 108.9 70C110.7 72.5 112 72.8 112.6 70.9C113.3 69 112.9 66.6 111.3 63.7C109.6 60.3 106.7 55.1 102.5 48.1C98.3 41.1 94.6 35.8 91.9 31.9C89.2 28 85.7 23.2 81.2 17.8C76.8 12.3 72.5 7.50001 68.6 3.30001C68.1 2.70001 67.6 2.30001 67.2 1.90001C64.5 -0.39999 62.8 -0.69999 62.2 1.00001C61.6 2.70001 62.4 4.70001 64.6 7.20001C67.6 10.7 70.7 14.4 74.1 18.6Z" fill="black"/>
<path d="M96.5 77.2C93.3 75.1 90.5 73.8 88.4 72.9C86.3 72 83.5 71.1 80.1 70.5C76.7 69.9 73.4 69.7 70.5 69.8C70.1 69.8 69.8 69.8 69.5 69.9C67.8 70.4 67.3 71.4 68 73C68.7 74.5 69.8 75.3 71.4 75.4C73.5 75.6 75.7 75.8 78.1 76.3C80.5 76.8 82.9 77.4 85.5 78.3C90.5 80.1 95.9 83 100.5 87.4C100.8 87.6 101 87.9 101.3 88C102.4 88.5 103.2 88.1 103.8 86.5C104.3 85 104.1 83.5 103 82.5C101.6 81.1 99.6 79.3 96.5 77.2Z" fill="black"/>
<path d="M62.7 179.5C65.3 182 68.5 183.4 71.5 184.1C74.5 184.8 77.3 185 79.9 185C82.5 185 84.8 184.8 87 184.6C89.1 184.3 91.3 184.1 93.8 183.6C96.3 183.1 99.2 182.2 101.9 180.2C104.5 178.2 106.6 175.4 107.9 172.3C108.6 170.7 109.1 169.1 109.4 167.4C109.8 165.7 109.9 163.9 109.9 162.1C109.9 154.8 107.1 147.9 102.3 142.9C100 140.4 97.1 138.4 94.2 137C91.2 135.6 88.1 134.7 85.1 134.4C84.2 134.3 83.5 134.2 82.8 134.2C82.1 134.2 81.5 134.2 81 134.2C77.2 134.5 74.6 135.6 73.3 136.5C72 137.5 71.9 138.2 72.8 138.7C73.3 139 73.8 139.1 74.5 139.2C75.2 139.3 76 139.4 77 139.4C78.9 139.5 81.3 139.5 84.3 139.9C88.2 140.4 92.2 142 95.6 144.6C99 147.2 101.5 150.9 102.9 155.2C104.3 159.4 104.4 164.3 102.9 168.6C102.1 170.8 101 172.8 99.4 174.4C97.8 176 95.9 176.9 93.5 177.5C92.3 177.8 91.1 178 89.7 178.2C88.4 178.4 87 178.6 85.6 178.7C82.9 179 80.1 179.2 77.5 179C76.2 179 74.9 178.8 73.6 178.5C72.4 178.2 71.2 177.9 70.1 177.4C69 176.9 68 176.3 67.2 175.6C66.4 174.9 65.6 174.1 65.1 173.1C63.9 171.2 63.2 168.6 63 166C62.8 163.4 63.1 160.7 64 158.3C64.8 155.9 66.2 153.6 68 152C69.8 150.4 72.1 149.2 74.5 148.6C75.6 148.3 76.6 148.2 77.6 148.1C78.1 148 78.5 148.1 78.9 148C79.3 148 79.6 148 79.9 148C80.2 148 80.5 148 80.7 147.9C80.9 147.9 81.1 147.8 81.3 147.8C82 147.5 82.1 146.9 81.5 145.9C80.9 144.9 79.6 144 77.8 143.6C76 143.2 73.5 143.2 70.8 144.1C69.3 144.6 67.6 145.4 65.9 146.7C64.2 147.9 62.5 149.6 61 151.8C58.1 156.2 56.3 162.7 57.8 170.1C58.4 173.6 60.1 177.1 62.7 179.5Z" fill="black"/>
<path d="M414.2 17.4C416 17.4 417.5 16.2 419.7 14.8C421.2 13.9 422.9 13.2 424.7 13C426.5 12.8 428.4 13 430 13.8C431.6 14.6 432.9 15.8 433.5 17.4C433.8 18.2 433.9 19 433.9 19.9C433.9 20.8 433.8 21.7 433.5 22.5C433.2 23.3 432.8 24.1 432.3 24.8C431.8 25.4 431.2 25.9 430.6 26.2C430.3 26.3 430 26.4 429.7 26.4C429.4 26.5 429 26.5 428.6 26.5C427.8 26.5 426.9 26.3 425.9 26C424 25.4 422.3 24.3 421.6 23.1C421.4 22.8 421.3 22.5 421.2 22.3C421.1 22.1 421.2 22.1 421.2 22C421.2 21.9 421.2 21.8 421.2 21.7C421.2 21.3 421.4 20.8 421.6 20.7C421.7 20.6 421.7 20.6 421.7 20.6C421.6 20.6 421.5 20.3 421.3 19.9C421.1 19.5 420.9 18.9 420.3 18.4C419.7 17.8 418.9 17.6 418.2 17.8C417.4 18 416.6 18.7 416.3 19.8C415.9 21 415.5 22.9 416.4 25.1C417.2 27.2 419.3 29.4 422.2 30.9C423.7 31.6 425.2 32.1 426.7 32.4C428.2 32.7 429.8 32.7 431.3 32.4C432.8 32.1 434.2 31.4 435.3 30.5C436.4 29.6 437.3 28.7 437.9 27.7C439.2 25.8 440.1 23.3 440.2 20.3C440.3 18.8 440 17.2 439.4 15.5C438.8 13.8 437.7 12.1 436.2 10.7C434.7 9.29999 432.9 8.3 431.1 7.8C429.3 7.2 427.5 6.99999 425.7 7.09999C424 7.19999 422.3 7.5 420.7 8.1C419.1 8.6 417.7 9.49999 416.3 10.5C415.6 11.1 415 11.6 414.6 12C414.3 12.4 414 12.8 413.7 13.2C413.5 13.6 413.3 14 413.1 14.3C412.8 15 412.7 15.6 412.7 16.1C412.8 17 413.3 17.4 414.2 17.4Z" fill="black"/>
<path d="M447 231.1C447.4 230.4 447.5 229.9 447.4 229.4C447.3 228.9 446.9 228.4 446.1 228.1C445.7 227.9 445.2 227.9 444.8 227.9C444.3 227.9 443.8 228.1 443.4 228.3C442.5 228.8 441.5 229.8 440.9 231.2C440.2 232.8 439.5 235.1 439.8 238C440 239.5 440.4 241.1 441.3 242.6C442.2 244.1 443.5 245.7 445.3 246.9C447.1 248.1 449.1 248.8 451 249.2C452.9 249.6 454.8 249.6 456.5 249.5C460 249.2 462.9 248 465.2 246.6C465.8 246.3 466.3 245.8 466.9 245.4C467.5 245 468 244.4 468.6 243.9C469.7 242.8 470.7 241.5 471.6 239.9C472.5 238.2 473.1 236 473 233.7C472.9 231.4 472.2 229.1 471 227.1C469.8 225.1 468.3 223.4 466.6 222.1C465.7 221.4 464.8 220.8 463.9 220.3C462.9 219.8 461.9 219.4 461 219.1C457.2 217.8 453.6 217.7 450.5 217.7C449.6 217.7 449 217.8 448.5 217.8C444.9 218.4 443.8 219.5 444.6 221C445.5 222.5 447.5 223.2 450.8 223.2C453 223.3 455.3 223.5 457.6 224.1C459.9 224.7 462.1 225.7 463.8 227.4C465.5 229 466.9 231.2 467.1 233.4C467.3 235.6 466.3 237.6 464.5 239.4C462.8 241.2 460.4 242.4 457.9 243.1C456.6 243.4 455.3 243.6 454 243.5C452.7 243.4 451.4 243.3 450.3 242.8C449.2 242.4 448.2 241.8 447.4 241C446.7 240.2 446.1 239.3 445.8 238.4C445.1 236.5 445.4 233.9 446.6 232.1C446.6 231.9 446.8 231.5 447 231.1Z" fill="black"/>
<path d="M354.7 417.2C354.6 416.6 354.5 416 354.3 415.4C353.6 413.1 352.3 411.1 350.9 409.6C349.4 408 347.7 406.8 345.9 405.9C345 405.4 344 405.1 343 404.8C342 404.6 341 404.3 339.9 404.3C338.7 404.2 337.7 404.4 337 404.5C335.6 404.8 334.5 405.3 333.7 405.9C333.3 406.2 333 406.4 332.7 406.6C331.4 407.1 330 408 328.7 409.4C327.7 410.4 326.9 411.8 326.4 413.4C325.8 415 325.5 416.8 325.6 418.8C325.7 422.8 327.3 426.4 329.6 429C330.8 430.3 332.1 431.3 333.5 432C334.9 432.7 336.4 433.1 337.8 433.3C339.2 433.5 340.6 433.4 342.1 433.2C343.6 432.9 345.2 432.4 346.7 431.6C348.2 430.8 349.7 429.7 351.1 428.3C352.4 426.8 353.6 424.9 354.3 422.6C354.5 422 354.6 421.5 354.7 420.9C354.8 420.3 354.9 419.7 354.8 419.1C354.8 418.5 354.8 417.8 354.7 417.2ZM346.9 423.9C345.5 425.5 343.4 426.8 341.2 427.2C340.1 427.4 339 427.5 337.9 427.2C336.9 427 336 426.6 335.1 426C333.4 424.8 332.2 422.8 331.6 420.5C331 418.2 331.3 415.7 332.3 413.9C332.4 413.6 332.5 413.5 332.6 413.4C332.7 413.2 332.9 413.1 333 412.9C333.3 412.6 333.7 412.3 334.1 412C334.9 411.5 335.8 411.2 336.3 411.3C336.4 411.3 336.5 411.3 336.5 411.3C336.5 411.3 336.5 411.3 336.6 411.1C336.6 411.3 336.5 411.4 336.6 411.2C336.6 411.2 336.6 411.2 336.6 411.1C336.6 411 336.6 411 336.7 411C336.7 411 336.7 411 336.7 411.1C336.8 411 336.9 410.9 337.1 410.7C337.3 410.5 337.5 410.3 337.8 410C338.4 410 339.1 410 339.8 410.1C341.9 410.3 344 411.2 345.6 412.7C347.2 414.1 348.6 416 348.8 418.2C349 420 348.3 422.2 346.9 423.9Z" fill="black"/>
</g>
<defs>
<clipPath id="clip0_61_833">
<rect width="579.9" height="471.8" fill="white"/>
</clipPath>
</defs>
</svg>
