<svg width="137" height="137" viewBox="0 0 137 137" fill="none" xmlns="http://www.w3.org/2000/svg">
<path d="M51.7482 131.481L56.2283 135.247C57.5918 136.351 59.3449 137 61.0331 137H75.1876C76.8757 137 78.6288 136.351 79.9923 135.247L84.4724 131.481C86.2255 129.988 87.1345 127.975 87.1345 125.702V107.912C87.1345 105.315 88.2383 103.107 90.1861 101.809C101.484 94.3417 108.236 81.7455 108.236 68.1104C108.366 56.7478 103.497 45.9047 94.926 38.308C87.6539 31.8151 78.1094 28.1142 68.1103 28.1142C66.617 28.1142 65.1236 28.1791 63.6302 28.3739C45.2553 30.3867 30.3866 45.0606 28.244 63.3057C26.361 78.499 33.0487 93.2379 45.7098 101.744C47.7876 103.172 49.0861 105.445 49.0861 107.847V125.767C49.0861 128.04 49.9951 129.988 51.7482 131.481ZM80.9662 122.975V125.767C80.9662 126.417 80.7065 126.676 80.5117 126.806L76.0966 130.507C75.7719 130.832 75.3824 130.832 75.2525 130.832H61.098C60.9032 130.832 60.5786 130.832 60.2539 130.507L55.7738 126.741C55.4492 126.417 55.4492 126.027 55.4492 125.832V123.04V122.391H56.0985H80.3819H81.0312V122.975H80.9662ZM81.0961 108.691V115.379V116.028H80.4468H56.1634H55.5141V115.379V108.691V108.042H56.1634H80.4468H81.0961V108.691ZM34.3473 64.0848C36.2952 48.7616 48.8264 36.2952 64.2146 34.5422C65.7079 34.4123 67.0715 34.4123 68.2402 34.4123C76.7459 34.4123 84.6023 37.399 90.8354 43.0478C97.9776 49.4758 102.133 58.6957 102.133 68.4351C102.263 79.8625 96.6141 90.446 87.0046 96.809C85.2515 98.0426 83.8231 99.536 82.7193 101.419L82.5245 101.744H82.135H54.2155H53.8909L53.6961 101.419C52.5274 99.4061 51.1639 97.9128 49.2809 96.6791C38.5677 89.472 32.9188 77.0057 34.3473 64.0848Z" fill="#0A0A0A"/>
<path d="M68.2401 0C66.552 0 65.1235 1.49337 65.1235 3.11659V15.518C65.1235 17.2711 66.487 18.6346 68.2401 18.6346C69.9283 18.6346 71.3567 17.1412 71.3567 15.518V3.11659C71.3567 1.49337 69.8633 0 68.2401 0Z" fill="#0A0A0A"/>
<path d="M44.6711 21.037L38.4379 10.2588C37.8535 9.28485 36.7497 8.63556 35.581 8.63556C35.0616 8.63556 34.5421 8.76542 34.0227 9.02513C32.5294 9.86921 32.0099 11.8171 32.854 13.3754L39.0872 24.1536C39.6715 25.1275 40.7753 25.7119 41.8791 25.7119C42.3985 25.7119 42.9829 25.582 43.4374 25.3223C44.9308 24.5431 45.4502 22.5953 44.6711 21.037Z" fill="#0A0A0A"/>
<path d="M24.2184 39.0872L13.4402 32.854C12.9857 32.5943 12.4662 32.4645 11.9468 32.4645C10.7781 32.4645 9.73921 33.0488 9.08992 34.0877C8.70034 34.8668 8.57049 35.7109 8.76527 36.555C8.96006 37.3991 9.54442 38.0484 10.2586 38.4379L21.0368 44.6711C21.4913 44.8659 22.0757 45.0607 22.5951 45.0607C23.6989 45.0607 24.8027 44.4114 25.3871 43.5024C26.2961 41.9441 25.7766 40.0612 24.2184 39.0872Z" fill="#0A0A0A"/>
<path d="M15.518 65.0588H3.11659C1.42844 65.0588 0 66.5521 0 68.1754C0 69.7986 1.49337 71.292 3.11659 71.292H15.518C17.2711 71.292 18.6346 69.9284 18.6346 68.1754C18.6346 66.5521 17.2062 65.0588 15.518 65.0588Z" fill="#0A0A0A"/>
<path d="M22.66 91.5497C22.1406 91.5497 21.5562 91.6796 21.1017 91.9393L10.3235 98.0426C8.83018 98.8867 8.31075 100.835 9.0899 102.393C9.67426 103.367 10.778 103.951 11.8818 103.951C12.4013 103.951 12.9856 103.821 13.4401 103.562L24.2183 97.3284C25.7117 96.4843 26.2311 94.5365 25.452 92.9782C24.8027 92.0692 23.7638 91.5497 22.66 91.5497Z" fill="#0A0A0A"/>
<path d="M126.157 98.0427L115.379 91.7446C114.924 91.4848 114.405 91.355 113.885 91.355C112.716 91.355 111.678 91.9393 111.028 92.9782C110.184 94.4716 110.704 96.3545 112.262 97.3284L122.975 103.562C123.43 103.756 124.014 103.951 124.534 103.951C125.637 103.951 126.741 103.367 127.325 102.393C128.234 100.77 127.715 98.8867 126.157 98.0427Z" fill="#0A0A0A"/>
<path d="M133.299 65.0588H120.897C119.209 65.0588 117.781 66.5521 117.781 68.1754C117.781 69.7986 119.274 71.292 120.897 71.292H133.299C134.987 71.292 136.415 69.7986 136.415 68.1754C136.415 66.5521 134.987 65.0588 133.299 65.0588Z" fill="#0A0A0A"/>
<path d="M127.326 34.0228C126.741 33.0488 125.702 32.4645 124.534 32.4645C124.014 32.4645 123.495 32.5943 122.975 32.854L112.197 39.0872C110.704 39.9313 110.184 41.8792 110.963 43.4375C111.743 44.4763 112.717 45.0607 113.755 45.0607C114.275 45.0607 114.859 44.9308 115.314 44.6711L126.092 38.4379C127.65 37.5289 128.17 35.5811 127.326 34.0228Z" fill="#0A0A0A"/>
<path d="M102.393 8.96019C101.938 8.70048 101.419 8.57062 100.899 8.57062C99.7307 8.57062 98.6919 9.15498 98.0426 10.1938L91.8094 20.972C91.4198 21.7512 91.29 22.5953 91.4848 23.4393C91.6795 24.2834 92.2639 24.9327 92.9781 25.3223C93.4326 25.5171 94.017 25.7118 94.5364 25.7118C95.6402 25.7118 96.744 25.0626 97.3284 24.1536L103.562 13.3754C104.471 11.8171 103.951 9.8692 102.393 8.96019Z" fill="#0A0A0A"/>
</svg>
