<svg width="137" height="137" viewBox="0 0 137 137" fill="none" xmlns="http://www.w3.org/2000/svg">
<path fill-rule="evenodd" clip-rule="evenodd" d="M68.3788 56.5894C61.8802 56.5894 56.5894 61.8802 56.5894 68.3788C56.5894 74.8774 61.8802 80.1682 68.3788 80.1682C74.8774 80.1682 80.1682 74.8774 80.1682 68.3788C80.1682 61.8802 74.8774 56.5894 68.3788 56.5894ZM68.3788 61.3051C72.2894 61.3051 75.4525 64.4682 75.4525 68.3788C75.4525 72.2894 72.2894 75.4525 68.3788 75.4525C64.4682 75.4525 61.3051 72.2894 61.3051 68.3788C61.3051 64.4682 64.4682 61.3051 68.3788 61.3051Z" fill="#0A0A0A"/>
<path fill-rule="evenodd" clip-rule="evenodd" d="M47.8479 18.7481C39.739 11.962 27.6621 12.422 20.0708 20.0133C12.4796 27.6045 12.0195 39.6815 18.8056 47.7904C8.28136 48.768 0 57.6245 0 68.3788C0 79.133 8.28136 87.9895 18.7481 88.9096C11.962 97.0185 12.422 109.095 20.0133 116.687C27.6045 124.278 39.6815 124.738 47.7904 117.952C48.7105 128.476 57.567 136.7 68.3212 136.7C79.0755 136.7 87.932 128.419 88.8521 117.952C96.961 124.738 109.038 124.278 116.629 116.687C124.22 109.095 124.681 97.0185 117.894 88.9096C128.419 87.9895 136.642 79.133 136.642 68.3788C136.642 57.6245 128.361 48.768 117.894 47.8479C124.681 39.739 124.22 27.6621 116.629 20.0708C109.038 12.4796 96.961 12.0195 88.8521 18.8056C87.9895 8.28136 79.133 0 68.3788 0C57.6245 0 48.768 8.28136 47.8479 18.7481ZM55.6692 105.185L53.6563 110.016C52.8512 111.971 52.4486 114.041 52.4486 116.112C52.4486 124.911 59.5798 132.042 68.3788 132.042C77.1777 132.042 84.3089 124.911 84.3089 116.112C84.3089 114.041 83.9063 111.971 83.1012 110.016L81.0883 105.185C78.788 109.901 73.9572 113.179 68.3788 113.179C62.8003 113.179 57.9695 109.901 55.6692 105.185ZM33.3555 85.4016L28.5247 87.4144C26.5694 88.2195 24.8441 89.3697 23.3488 90.865C17.1378 97.076 17.1378 107.14 23.3488 113.351C29.5599 119.562 39.624 119.562 45.835 113.351C47.3303 111.856 48.4805 110.131 49.2856 108.175L51.2984 103.345C46.3526 105.07 40.6592 103.92 36.691 100.009C32.7229 96.0983 31.6302 90.3474 33.3555 85.4016ZM103.402 85.4016C105.127 90.3474 103.977 96.0408 100.066 100.009C96.0983 103.977 90.4049 105.07 85.4591 103.345L87.4719 108.175C88.277 110.131 89.4272 111.856 90.9225 113.351C97.1335 119.562 107.198 119.562 113.409 113.351C119.62 107.14 119.62 97.076 113.409 90.865C111.913 89.3697 110.188 88.2195 108.233 87.4144L103.402 85.4016ZM62.4553 88.7371L59.6948 95.4657C59.2347 96.6159 59.0047 97.8236 59.0047 99.0313C59.0047 104.207 63.2029 108.405 68.3788 108.405C73.5546 108.405 77.7528 104.207 77.7528 99.0313C77.7528 97.8236 77.5228 96.5584 77.0627 95.4657L74.3022 88.7371C72.4044 89.2547 70.4491 89.5422 68.4363 89.5422C66.3084 89.5997 64.3531 89.3122 62.4553 88.7371ZM49.8032 78.6154L43.0746 81.3759C41.9244 81.836 40.8892 82.5261 40.0266 83.3887C36.346 87.0693 36.346 92.9928 40.0266 96.6734C43.7072 100.354 49.6307 100.354 53.3113 96.6734C54.1739 95.8108 54.864 94.7756 55.3241 93.6254L58.0846 86.8968C54.634 84.999 51.701 82.1235 49.8032 78.6154ZM86.9543 78.6154C84.999 82.1235 82.1235 84.999 78.6154 86.9543L81.3759 93.6829C81.836 94.8331 82.5261 95.8683 83.3887 96.7309C87.0693 100.412 92.9928 100.412 96.6734 96.7309C100.354 93.0503 100.354 87.1268 96.6734 83.4462C95.8108 82.5836 94.7756 81.8935 93.6254 81.4334L86.9543 78.6154ZM68.3788 51.8735C77.4652 51.8735 84.884 59.2923 84.884 68.3788C84.884 77.4652 77.4652 84.884 68.3788 84.884C59.2923 84.884 51.8735 77.4652 51.8735 68.3788C51.8735 59.2923 59.2347 51.8735 68.3788 51.8735ZM31.5152 55.6692L26.6844 53.6563C24.7291 52.8512 22.6587 52.4486 20.5884 52.4486C11.7894 52.4486 4.65827 59.5798 4.65827 68.3788C4.65827 77.1777 11.7894 84.3089 20.5884 84.3089C22.6587 84.3089 24.7291 83.9063 26.6844 83.1012L31.5152 81.0883C26.7994 78.788 23.5214 73.9572 23.5214 68.3788C23.5214 62.8003 26.8569 57.9695 31.5152 55.6692ZM105.185 81.0883L110.016 83.1012C111.971 83.9063 114.041 84.3089 116.112 84.3089C124.911 84.3089 132.042 77.1777 132.042 68.3788C132.042 59.5798 124.911 52.4486 116.112 52.4486C114.156 52.4486 112.201 52.7937 110.361 53.5413L105.185 55.6692C109.901 57.9695 113.179 62.8003 113.179 68.3788C113.179 73.9572 109.901 78.788 105.185 81.0883ZM47.9629 62.4553L41.2343 59.6948C40.0841 59.2347 38.8764 59.0047 37.6687 59.0047C32.4928 59.0047 28.2947 63.2029 28.2947 68.3788C28.2947 73.5546 32.4928 77.7528 37.6687 77.7528C38.8764 77.7528 40.1416 77.5228 41.2343 77.0627L47.9629 74.3022C47.4453 72.4044 47.1578 70.4491 47.1578 68.4363C47.1578 66.3084 47.4453 64.3531 47.9629 62.4553ZM88.7371 74.2447L95.4657 77.0627C96.6159 77.5228 97.8236 77.7528 99.0313 77.7528C104.207 77.7528 108.405 73.5546 108.405 68.3788C108.405 63.2029 104.207 59.0047 99.0313 59.0047C97.8811 59.0047 96.7309 59.2347 95.6382 59.6373L95.4082 59.6948L88.6796 62.4553C89.1972 64.3531 89.4847 66.3084 89.4847 68.3212C89.5997 70.3916 89.3122 72.4044 88.7371 74.2447ZM86.9543 58.1421L93.6829 55.3816C94.8331 54.9215 95.8683 54.2314 96.7309 53.3688C100.412 49.6882 100.412 43.7647 96.7309 40.0841C93.0503 36.4035 87.1268 36.4035 83.4462 40.0841C82.5836 40.9467 81.8935 41.9819 81.4334 43.1321L78.673 49.8607C82.1235 51.701 84.999 54.634 86.9543 58.1421ZM58.1421 49.8032L55.3816 43.0746C54.9215 41.9244 54.2314 40.8892 53.3688 40.0266C49.6882 36.346 43.7647 36.346 40.0841 40.0266C36.4035 43.7072 36.4035 49.6307 40.0841 53.3113C40.8892 54.1164 41.8669 54.8065 42.9021 55.2666L43.1321 55.3816L49.8607 58.1421C51.701 54.634 54.634 51.701 58.1421 49.8032ZM103.402 51.2984L108.233 49.2856C110.188 48.4805 111.913 47.3303 113.409 45.835C119.62 39.624 119.62 29.5599 113.409 23.3488C107.198 17.1378 97.1335 17.1378 90.9225 23.3488C89.5422 24.7291 88.392 26.3393 87.6444 28.1796L87.4719 28.5247L85.4591 33.3555C90.4049 31.6302 96.0983 32.7804 100.066 36.691C103.977 40.6592 105.127 46.3526 103.402 51.2984ZM51.2984 33.3555L49.2856 28.5247C48.4805 26.5694 47.3303 24.8441 45.835 23.3488C39.624 17.1378 29.5599 17.1378 23.3488 23.3488C17.1378 29.5599 17.1378 39.624 23.3488 45.835C24.8441 47.3303 26.5694 48.4805 28.5247 49.2856L33.3555 51.2984C31.6302 46.3526 32.7804 40.6592 36.691 36.691C40.6592 32.7229 46.3526 31.6302 51.2984 33.3555ZM74.2447 47.9629L77.0052 41.2343C77.4652 40.0841 77.6953 38.8764 77.6953 37.6687C77.6953 32.4928 73.4971 28.2947 68.3212 28.2947C63.1454 28.2947 58.9472 32.4928 58.9472 37.6687C58.9472 38.8764 59.1772 40.1416 59.6373 41.2343L62.3978 47.9629C64.2956 47.4453 66.2509 47.1578 68.2637 47.1578C70.3916 47.1578 72.4044 47.4453 74.2447 47.9629ZM81.0883 31.5152L83.1012 26.6844C83.9063 24.7291 84.3089 22.6587 84.3089 20.5884C84.3089 11.7894 77.1777 4.65827 68.3788 4.65827C59.5798 4.65827 52.4486 11.847 52.4486 20.6459C52.4486 22.7162 52.8512 24.7866 53.6563 26.7419L55.6692 31.5727C57.9695 26.8569 62.8003 23.5789 68.3788 23.5789C73.9572 23.5789 78.788 26.7994 81.0883 31.5152Z" fill="#0A0A0A"/>
</svg>
