<svg width="535" height="138" viewBox="0 0 535 138" fill="none" xmlns="http://www.w3.org/2000/svg">
<path d="M179.519 67.1893H169.714V5.58432H177.607L208.598 48.1633V5.58432H218.318V67.1893H210.424L179.519 24.1213V67.1893ZM273.435 32.7455C275.513 36.248 276.549 40.2594 276.549 44.7797C276.549 49.3 275.5 53.3246 273.395 56.8535C271.291 60.3825 268.463 63.1515 264.924 65.1671C261.379 67.1827 257.448 68.1872 253.126 68.1872C248.804 68.1872 244.861 67.1695 241.289 65.1275C237.717 63.092 234.876 60.3032 232.771 56.7742C230.667 53.2453 229.611 49.2471 229.611 44.7863C229.611 40.3255 230.66 36.2547 232.771 32.7521C234.876 29.2496 237.697 26.4938 241.243 24.4848C244.788 22.4758 248.745 21.4647 253.12 21.4647C257.495 21.4647 261.525 22.4692 265.044 24.4848C268.556 26.5004 271.357 29.2562 273.435 32.7521V32.7455ZM266.836 44.7797C266.836 41.9711 266.239 39.4598 265.05 37.2526C263.855 35.0519 262.235 33.3138 260.19 32.045C258.139 30.7762 255.789 30.1417 253.126 30.1417C250.464 30.1417 248.18 30.7762 246.109 32.045C244.031 33.3138 242.398 35.0519 241.209 37.2526C240.014 39.4598 239.423 41.9645 239.423 44.7797C239.423 47.595 240.021 50.1128 241.209 52.3465C242.398 54.5802 244.031 56.3315 246.109 57.6003C248.187 58.8692 250.524 59.5036 253.126 59.5036C255.729 59.5036 258.139 58.8692 260.19 57.6003C262.235 56.3315 263.862 54.5802 265.05 52.3465C266.239 50.1128 266.836 47.5883 266.836 44.7797ZM303.43 53.8863L291.759 22.456H281.542L299.155 67.1959H307.713L325.406 22.456H315.102L303.43 53.8863ZM366.149 28.9456C367.67 31.2916 368.433 34.0011 368.433 37.0873V67.1893H359.464V61.995C358.82 62.7352 358.116 63.4158 357.346 64.0437C355.713 65.3654 353.854 66.3897 351.783 67.1034C349.704 67.8172 347.394 68.1806 344.845 68.1806C341.797 68.1806 339.129 67.6453 336.831 66.5681C334.534 65.4909 332.748 64.004 331.474 62.1007C330.199 60.1975 329.562 57.9506 329.562 55.36C329.562 52.9347 330.099 50.7604 331.182 48.8241C332.264 46.8944 333.937 45.2687 336.207 43.947C338.478 42.6253 341.333 41.6869 344.765 41.1384L359.052 38.7923V37.0873C359.052 34.8867 358.236 33.0759 356.602 31.6683C354.969 30.2607 352.792 29.5602 350.083 29.5602C347.593 29.5602 345.416 30.2078 343.563 31.5031C341.704 32.7984 340.337 34.4703 339.454 36.5058L331.646 32.6199C332.476 30.4127 333.831 28.4698 335.716 26.7912C337.595 25.1126 339.799 23.7975 342.322 22.8657C344.845 21.9273 347.514 21.4581 350.335 21.4581C353.88 21.4581 357.021 22.1189 359.763 23.4407C362.505 24.7624 364.636 26.5995 366.163 28.939L366.149 28.9456ZM359.046 48.5862V46.1675L346.584 48.3351C344.088 48.7779 342.262 49.5643 341.1 50.6944C339.938 51.8244 339.354 53.2717 339.354 55.0362C339.354 56.8007 340.005 58.1356 341.306 59.2128C342.607 60.29 344.28 60.8253 346.332 60.8253C348.881 60.8253 351.112 60.2768 353.017 59.1732C354.929 58.0695 356.41 56.5958 357.459 54.752C358.508 52.9082 359.039 50.853 359.039 48.5928L359.046 48.5862ZM401.25 59.4177C399.477 59.4177 398.037 59.1269 396.928 58.5453C395.819 57.9704 395.016 57.1377 394.518 56.0671C394.02 54.9899 393.768 53.6814 393.768 52.1416V30.8885H403.985V22.456H393.768V12.1995H384.38V15.6756C384.38 17.7705 383.796 19.4226 382.634 20.6386C381.472 21.8546 379.839 22.456 377.735 22.456H376.486V30.8885H384.38V52.5514C384.38 57.3492 385.681 61.0698 388.284 63.7132C390.886 66.3567 394.538 67.685 399.252 67.685C399.969 67.685 400.805 67.6321 401.741 67.5198C402.684 67.4074 403.54 67.3017 404.317 67.1893V59.1665C403.819 59.2194 403.295 59.2789 402.737 59.3318C402.186 59.3846 401.688 59.4177 401.243 59.4177H401.25ZM414.707 67.1893H424.095V22.4494H414.707V67.1893ZM414.707 16.3298H424.095V5.58432H414.707V16.3364V16.3298ZM471.697 4.58643H481.005V67.1893H472.115V61.4267C470.668 63.3498 468.822 64.8962 466.551 66.0328C463.67 67.4669 460.517 68.1806 457.078 68.1806C452.756 68.1806 448.898 67.1497 445.486 65.0812C442.08 63.0127 439.391 60.2173 437.426 56.6883C435.461 53.1594 434.478 49.1942 434.478 44.7797C434.478 40.3652 435.474 36.4 437.466 32.8711C439.458 29.3421 442.146 26.5599 445.526 24.5178C448.905 22.4758 452.722 21.4581 456.991 21.4581C460.59 21.4581 463.776 22.1784 466.545 23.6059C468.576 24.6566 470.289 26.0114 471.697 27.6569V4.58643ZM471.697 44.7797C471.697 41.9711 471.099 39.4598 469.911 37.2526C468.716 35.0519 467.089 33.3138 465.011 32.045C462.933 30.7762 460.59 30.1417 457.994 30.1417C455.398 30.1417 453.034 30.7762 450.93 32.045C448.825 33.3138 447.192 35.0519 446.03 37.2526C444.868 39.4598 444.284 41.9645 444.284 44.7797C444.284 47.595 444.862 50.1128 446.03 52.3465C447.192 54.5802 448.812 56.3315 450.89 57.6003C452.968 58.8692 455.332 59.5036 457.994 59.5036C460.656 59.5036 462.94 58.8692 465.011 57.6003C467.089 56.3315 468.722 54.5802 469.911 52.3465C471.099 50.1128 471.697 47.5883 471.697 44.7797ZM535 43.1276C535 43.8479 534.973 44.5881 534.914 45.3613C534.861 46.1345 534.748 46.8482 534.582 47.509H501.161C501.274 49.4255 501.699 51.1702 502.475 52.7166C503.611 54.9767 505.217 56.7412 507.295 58.01C509.373 59.2789 511.737 59.9133 514.399 59.9133C517.061 59.9133 519.425 59.3053 521.337 58.096C523.249 56.8866 524.756 55.3137 525.865 53.384L533.506 57.1047C532.617 59.1996 531.249 61.0896 529.397 62.7682C527.538 64.4534 525.327 65.7751 522.751 66.74C520.175 67.7048 517.36 68.1872 514.319 68.1872C509.831 68.1872 505.861 67.1563 502.396 65.0878C498.937 63.0193 496.235 60.2107 494.296 56.6553C492.357 53.0999 491.388 49.1149 491.388 44.707C491.388 40.2991 492.371 36.1886 494.336 32.7191C496.301 29.243 498.943 26.507 502.269 24.4914C505.596 22.4824 509.36 21.4713 513.569 21.4713C516.948 21.4713 519.969 22.0529 522.625 23.2094C525.28 24.3659 527.524 25.9519 529.357 27.9675C531.183 29.9831 532.583 32.2829 533.553 34.8735C534.522 37.464 535.007 40.2198 535.007 43.1408L535 43.1276ZM501.38 40.0678H525.068C525.015 38.6998 524.763 37.4112 524.251 36.2216C523.335 34.1003 521.954 32.4151 520.095 31.1793C518.236 29.9369 516.065 29.3223 513.576 29.3223C511.086 29.3223 508.869 29.9435 506.93 31.1793C504.992 32.4217 503.498 34.1862 502.442 36.4727C501.944 37.5632 501.599 38.7659 501.387 40.0678H501.38Z" fill="#A3A3A3"/>
<path d="M36.0101 110.052C23.9869 100.364 16.2789 85.561 16.2789 68.9999C16.2789 39.8892 40.0732 16.2041 69.3182 16.2041C76.0369 16.2041 82.4701 17.4597 88.3921 19.7397L83.8975 27.4915C79.3298 25.8989 74.4236 25.0265 69.3182 25.0265C44.9596 25.0265 25.1487 44.7531 25.1487 68.9933C25.1487 82.2897 31.1105 94.2248 40.5114 102.294L36.0168 110.046L36.0101 110.052ZM102.626 27.9475L98.1316 35.6994C107.532 43.7684 113.494 55.7035 113.494 68.9999C113.494 93.2467 93.6768 112.967 69.3248 112.967C64.2194 112.967 59.3132 112.094 54.7455 110.502L50.2509 118.254C56.1729 120.533 62.6061 121.789 69.3248 121.789C98.5698 121.789 122.364 98.104 122.364 68.9933C122.364 52.4322 114.663 37.6291 102.633 27.9409L102.626 27.9475Z" fill="#F59E0B"/>
<path d="M138.636 69C138.636 107.045 107.539 138 69.3182 138C31.0972 138 0 107.045 0 69C0 40.0082 18.0582 15.1402 43.5587 4.9432L44.8533 9.74763C21.464 19.3499 4.95272 42.2882 4.95272 69C4.95272 104.329 33.8259 133.063 69.3115 133.063C104.797 133.063 133.67 104.323 133.67 69C133.67 33.6772 104.804 4.92999 69.3182 4.92999C66.4103 4.92999 63.5488 5.12824 60.7405 5.49832L59.4459 0.700508C62.6725 0.237908 65.9655 0 69.3115 0C107.532 0 138.63 30.9545 138.63 69H138.636ZM69.3182 37.3516C51.7845 37.3516 37.5238 51.5468 37.5238 69C37.5238 86.4532 51.7845 100.648 69.3182 100.648L68.0236 95.844C53.7364 95.1699 42.3172 83.3934 42.3172 69C42.3172 54.6065 54.4268 42.123 69.3182 42.123C84.2095 42.123 96.3191 54.177 96.3191 69C96.3191 78.4701 91.373 86.8035 83.9174 91.5881L85.212 96.3925C94.7125 90.914 101.119 80.6905 101.119 69C101.119 51.5468 86.8585 37.3516 69.3248 37.3516H69.3182ZM82.5697 69C82.5697 61.724 76.6211 55.8093 69.3182 55.8093C62.0152 55.8093 56.0667 61.7306 56.0667 69C56.0667 76.2694 62.0152 82.1907 69.3182 82.1907C76.6211 82.1907 82.5697 76.2694 82.5697 69ZM78.0751 69C78.0751 73.8044 74.1447 77.7167 69.3182 77.7167C64.4916 77.7167 60.5613 73.8044 60.5613 69C60.5613 64.1956 64.4916 60.2833 69.3182 60.2833C74.1447 60.2833 78.0751 64.1956 78.0751 69Z" fill="#A3A3A3"/>
<path d="M173.677 128.986H194.019V133.586H168.744V87.8742H173.677V128.986ZM225.92 105.275C226.969 106.933 227.493 108.843 227.493 111.011V133.592H222.872V128.86C222.348 129.64 221.684 130.367 220.867 131.041C219.653 132.046 218.238 132.839 216.612 133.434C214.985 134.028 213.213 134.326 211.281 134.326C209.183 134.326 207.317 133.929 205.671 133.13C204.024 132.33 202.73 131.24 201.787 129.845C200.837 128.457 200.366 126.858 200.366 125.061C200.366 123.263 200.738 121.776 201.475 120.368C202.212 118.954 203.367 117.758 204.927 116.78C206.487 115.795 208.479 115.101 210.909 114.692L222.866 112.709V111.011C222.866 109.048 222.149 107.449 220.708 106.226C219.267 104.997 217.402 104.389 215.098 104.389C213.086 104.389 211.314 104.891 209.794 105.889C208.273 106.894 207.145 108.189 206.401 109.782L202.212 107.515C202.829 106.127 203.805 104.858 205.14 103.708C206.474 102.565 208.008 101.653 209.734 100.979C211.46 100.305 213.246 99.9678 215.098 99.9678C217.521 99.9678 219.666 100.437 221.538 101.382C223.41 102.32 224.864 103.622 225.913 105.275H225.92ZM222.866 119.357V116.879L212.018 118.677C209.634 119.086 207.921 119.84 206.872 120.95C205.823 122.054 205.299 123.362 205.299 124.876C205.299 126.389 205.883 127.598 207.058 128.616C208.227 129.64 209.74 130.149 211.586 130.149C213.843 130.149 215.815 129.667 217.501 128.708C219.188 127.75 220.502 126.448 221.445 124.816C222.388 123.177 222.859 121.36 222.859 119.357H222.866ZM268.755 108.308C270.176 110.885 270.879 113.833 270.879 117.143C270.879 120.454 270.169 123.349 268.755 125.946C267.341 128.543 265.409 130.592 262.959 132.079C260.516 133.572 257.727 134.319 254.607 134.319C251.772 134.319 249.216 133.678 246.932 132.389C245.087 131.345 243.633 129.931 242.524 128.18V133.586H237.903V87.1406H242.524V105.75C243.739 104.151 245.239 102.823 247.052 101.812C249.249 100.582 251.766 99.9678 254.6 99.9678C257.721 99.9678 260.509 100.715 262.952 102.208C265.395 103.702 267.327 105.737 268.748 108.314L268.755 108.308ZM265.953 117.143C265.953 114.731 265.449 112.584 264.446 110.7C263.437 108.823 262.063 107.33 260.317 106.22C258.571 105.116 256.585 104.561 254.368 104.561C252.151 104.561 250.146 105.116 248.36 106.22C246.574 107.323 245.153 108.83 244.104 110.727C243.055 112.63 242.531 114.764 242.531 117.137C242.531 119.509 243.055 121.644 244.104 123.547C245.153 125.45 246.567 126.951 248.36 128.054C250.146 129.158 252.151 129.713 254.368 129.713C256.585 129.713 258.571 129.158 260.317 128.054C262.063 126.951 263.437 125.444 264.446 123.547C265.449 121.644 265.953 119.509 265.953 117.137V117.143ZM294.674 115.551L289.19 113.958C288.612 113.793 287.948 113.548 287.185 113.225C286.428 112.901 285.757 112.405 285.18 111.751C284.602 111.097 284.317 110.218 284.317 109.114C284.317 107.68 284.874 106.497 285.983 105.552C287.092 104.614 288.572 104.138 290.425 104.138C292.277 104.138 294.03 104.66 295.57 105.704C297.11 106.748 298.292 108.189 299.115 110.033L303.059 108.189C302.116 105.612 300.503 103.596 298.219 102.149C295.942 100.695 293.399 99.9678 290.604 99.9678C288.546 99.9678 286.68 100.358 284.994 101.131C283.308 101.904 281.973 103.014 280.991 104.442C280.001 105.876 279.51 107.554 279.51 109.471C279.51 111.52 280.187 113.317 281.548 114.87C282.903 116.423 285.1 117.633 288.141 118.492L292.888 119.84C293.545 120.005 294.308 120.269 295.165 120.639C296.028 121.01 296.791 121.532 297.449 122.206C298.106 122.88 298.438 123.792 298.438 124.935C298.438 126.488 297.761 127.75 296.406 128.708C295.052 129.667 293.386 130.149 291.414 130.149C289.442 130.149 287.477 129.554 285.777 128.371C284.071 127.182 282.743 125.589 281.801 123.587L277.917 125.424C278.986 128.167 280.712 130.334 283.095 131.927C285.479 133.52 288.254 134.319 291.414 134.319C293.718 134.319 295.749 133.923 297.515 133.123C299.281 132.323 300.669 131.213 301.678 129.779C302.687 128.345 303.191 126.733 303.191 124.928C303.191 122.721 302.441 120.798 300.941 119.159C299.44 117.527 297.356 116.317 294.687 115.538L294.674 115.551Z" fill="#F59E0B"/>
</svg>
