<svg width="52" height="52" viewBox="0 0 52 52" fill="none" xmlns="http://www.w3.org/2000/svg">
<rect width="51.0742" height="51.0742" rx="5" fill="#FCD34D"/>
<path d="M27.4914 22.8092C27.5246 22.77 27.5598 22.7327 27.5891 22.6915C28.64 21.1544 30.0717 20.1918 31.9059 19.8761C33.5955 19.584 35.2558 19.7251 36.8418 20.3976C38.381 21.0485 39.3225 22.2602 39.8616 23.813C40.1878 24.7541 40.391 25.7226 40.4203 26.7225C40.4593 28.0146 40.5257 29.3086 40.5355 30.6006C40.557 33.5572 40.5531 36.5138 40.5589 39.4704C40.5589 39.7606 40.5336 39.7841 40.2445 39.7861C38.6311 39.7881 37.0176 39.79 35.4042 39.7939C35.1913 39.7939 34.9764 39.8096 34.7635 39.8096C34.5057 39.8096 34.453 39.7567 34.453 39.4959C34.453 38.3803 34.4588 37.2628 34.4588 36.1472C34.4588 33.8709 34.4549 31.5966 34.4471 29.3204C34.4451 28.4655 34.3631 27.6225 34.035 26.8167C33.6013 25.7579 32.8044 25.2188 31.6871 25.1364C31.1753 25.0992 30.6616 25.1168 30.1596 25.2521C29.1342 25.5285 28.4642 26.1873 28.1028 27.1735C27.8645 27.8225 27.7356 28.4989 27.7317 29.187C27.7122 32.5907 27.7063 35.9943 27.6965 39.3999C27.6965 39.6574 27.5663 39.7861 27.3059 39.7861C25.7413 39.7861 24.1767 39.79 22.6121 39.792C22.3933 39.792 22.1726 39.8077 21.9539 39.8077C21.6667 39.8077 21.6003 39.741 21.6003 39.4469C21.6003 37.7726 21.5984 36.0982 21.6003 34.4238C21.6042 31.9711 21.6159 29.5164 21.6159 27.0637C21.6159 24.9168 21.6042 22.77 21.5984 20.6231C21.5984 20.2663 21.6413 20.2231 21.9988 20.2231C23.6981 20.2231 25.3975 20.2231 27.0949 20.2231C27.4172 20.2231 27.4387 20.2447 27.4387 20.5662C27.4387 21.2348 27.4387 21.9034 27.4387 22.5719C27.4387 22.6445 27.4387 22.717 27.4387 22.7876C27.4582 22.7954 27.4758 22.8013 27.4953 22.8092H27.4914Z" fill="white"/>
<path d="M11.7538 30.0135C11.7538 26.8902 11.7538 23.7689 11.7538 20.6457C11.7538 20.5653 11.7577 20.4869 11.7538 20.4065C11.7519 20.283 11.8183 20.23 11.9335 20.2222C11.9824 20.2202 12.0312 20.2202 12.08 20.2202C13.8829 20.2202 15.6858 20.2202 17.4887 20.2202C17.809 20.2202 17.8598 20.2712 17.8598 20.5927C17.8598 26.8686 17.8598 33.1426 17.8598 39.4185C17.8598 39.7577 17.811 39.8067 17.4633 39.8048C15.8928 39.7989 14.3224 39.793 12.7519 39.7871C12.5566 39.7871 12.3613 39.8008 12.166 39.8028C11.7655 39.8087 11.748 39.7891 11.748 39.397C11.748 36.2678 11.748 33.1406 11.748 30.0115H11.7519L11.7538 30.0135Z" fill="white"/>
<path d="M18.309 14.0447C18.309 16.0308 16.7464 17.5817 14.7423 17.5758C12.9414 17.5719 11.2557 16.1602 11.2655 14.031C11.2753 12.0351 12.7676 10.5156 14.7834 10.5137C17.0179 10.5117 18.3364 12.3331 18.3071 14.0447H18.309Z" fill="white"/>
</svg>
