<svg width="81" height="79" viewBox="0 0 81 79" fill="none" xmlns="http://www.w3.org/2000/svg">
<path d="M20.9858 62.9951C13.9776 57.4333 9.48621 48.9582 9.48621 39.4994C9.48621 22.8519 23.3477 9.26904 40.4229 9.26904C44.3336 9.26904 48.0893 9.98791 51.5354 11.2743L48.9024 15.701C46.2308 14.793 43.3656 14.3011 40.3842 14.3011C26.1742 14.3011 14.6359 25.576 14.6359 39.4616C14.6359 47.0665 18.1206 53.9146 23.58 58.5305L20.9858 62.9951ZM59.86 16.0037L57.2271 20.4304C62.7252 25.0463 66.1712 31.8945 66.1712 39.4994C66.1712 53.3849 54.6329 64.6598 40.4229 64.6598C37.4415 64.6598 34.5763 64.168 31.9047 63.2599L29.2718 67.6867C32.7178 68.9731 36.4735 69.6919 40.3842 69.6919C57.4207 69.6919 71.3209 56.1469 71.3209 39.4616C71.3596 30.0028 66.8682 21.5277 59.86 16.0037Z" fill="#F59E0B"/>
<path d="M80.8459 39.5C80.8459 61.2931 62.7252 79 40.4229 79C18.1206 79 0 61.2931 0 39.5C0 22.8903 10.5316 8.66427 25.3999 2.83764L26.1355 5.59962C12.5063 11.0857 2.90395 24.2146 2.90395 39.5C2.90395 59.7419 19.7468 76.1624 40.4229 76.1624C61.099 76.1624 77.9419 59.704 77.9419 39.5C77.9419 19.296 61.1378 2.83764 40.4229 2.83764C38.7193 2.83764 37.0544 2.95115 35.4281 3.17816L34.6925 0.416188C36.551 0.151341 38.487 0 40.4229 0C62.7252 0 80.8459 17.7069 80.8459 39.5ZM40.4229 21.3769C30.201 21.3769 21.8764 29.5115 21.8764 39.5C21.8764 49.4885 30.201 57.6231 40.4229 57.6231L39.6873 54.8611C31.3626 54.4828 24.7029 47.7481 24.7029 39.5C24.7029 31.0249 31.7498 24.1011 40.4617 24.1011C49.1735 24.1011 56.2204 30.9871 56.2204 39.5C56.2204 44.9104 53.3165 49.6777 48.9799 52.4397L49.7156 55.2016C55.2524 52.0613 59.0082 46.1968 59.0082 39.5C58.9695 29.5115 50.6448 21.3769 40.4229 21.3769ZM48.1668 39.5C48.1668 35.3381 44.6821 31.933 40.4229 31.933C36.1638 31.933 32.6791 35.3381 32.6791 39.5C32.6791 43.6619 36.1638 47.0671 40.4229 47.0671C44.6821 47.0671 48.1668 43.6619 48.1668 39.5ZM45.5339 39.5C45.5339 42.262 43.2494 44.4943 40.4229 44.4943C37.5964 44.4943 35.312 42.262 35.312 39.5C35.312 36.738 37.5964 34.5057 40.4229 34.5057C43.2494 34.5057 45.5339 36.738 45.5339 39.5Z" fill="#A3A3A3"/>
</svg>
