<svg width="580" height="472" viewBox="0 0 580 472" fill="none" xmlns="http://www.w3.org/2000/svg">
<g clip-path="url(#clip0_561_638)">
<path d="M176.6 396.1H176.5C176.5 396.4 176.5 396.7 176.5 397L177 396.9C176.9 396.6 176.8 396.3 176.6 396.1Z" fill="black"/>
<path d="M13.0008 381.1C13.3008 380.8 13.6008 380.4 13.9008 380.1L13.6008 379.7C13.2008 379.9 12.7008 380 12.3008 380.2L13.0008 381.1Z" fill="black"/>
<path d="M579 305.7C578.4 303.5 577.4 301.3 576 299.3C574.6 297.3 572.8 295.6 570.6 294.4C568.5 293.2 566.1 292.4 563.8 292C561.5 291.5 559.2 291.3 556.9 291.1C538.8 289.4 519.9 288.6 500.3 288.7C490.5 288.8 480.5 289.1 470.4 289.6C465.3 289.9 460.2 290.2 455 290.7C453.3 290.8 451.7 291 450 291.1L448.5 291.2H448.1C448 291.2 448 291.2 448 291.3L447.9 291.5L447.5 292.2L446 294.9C445.4 296 445.2 296.4 444.9 297L444 298.9C443.4 300.1 442.8 301.4 442.4 302.7C440.9 306.3 439.7 310 438.7 313.8C437.3 313.3 435.6 312.8 433.7 312.3C428.3 310.8 421.2 308.6 412.8 304.8C407.5 302.4 402.4 299.5 397.5 295.9C392.7 292.3 388.1 288.1 384.4 283C384 282.3 383.5 281.7 383.1 281C382.7 280.3 382.2 279.7 381.9 279C381.5 278.3 381.2 277.6 380.8 276.9L380.2 275.8L379.8 274.7C378.5 271.8 377.6 268.6 376.9 265.5C375.5 259.1 375.1 252.4 375.6 245.6C376.2 238.8 377.7 232 380.3 225.5C382.9 219 386.8 213 392 207.8C397.1 202.6 403.2 198 409.3 193.1C410.8 191.9 412.3 190.7 413.9 189.3C415.4 187.9 417 186.3 418.2 184.3C418.8 183.3 419.3 182.2 419.7 181C420 179.8 420.2 178.5 420.1 177.3C420 176 419.7 174.7 419.1 173.5C418.5 172.2 417.6 171.1 416.4 170.2C415.8 169.7 415 169.4 414.3 169.1C413.6 168.8 412.9 168.7 412.2 168.5C410.8 168.2 409.6 168.3 408.3 168.2C405.7 168.2 403.1 168.7 400.7 169.5C395.8 171 391.5 173.6 387.4 176.4C385.4 177.8 383.4 179.2 381.4 180.7C379.4 182.2 377.5 183.7 375.6 185.3C374 186.6 372.5 187.9 370.9 189.2C370.1 189.9 369.2 190.6 368.4 191.2L367.5 191.9C367.3 191.6 367.1 191.2 367 190.9C366.7 190.1 366.7 189.3 366.8 188.5C366.9 187.7 367.1 187 367.4 186.3L367.6 185.8L367.9 185.1C368.2 184.3 368.6 183.6 369 182.8C372.4 176.4 376.2 169.8 380.1 163.4C388.1 150.5 397.2 137.7 407.4 125.3C412.5 119 418 112.3 422.3 104.4C423.4 102.4 424.3 100.4 425.3 98.1998C426.2 95.8998 427 93.2998 427.1 90.0998C427.1 88.4998 426.8 86.7998 426.2 85.0998C425.6 83.3998 424.5 81.8998 423.3 80.5998C420.8 78.0998 417.7 76.7998 414.7 76.2998C413.2 75.9998 411.7 75.9998 410.1 76.0998C409.3 76.1998 408.6 76.2998 407.8 76.3998C407 76.5998 406.2 76.7998 405.6 77.0998C402.8 78.0998 400.4 79.5998 398.4 81.1998C397.1 82.1998 395.9 83.3998 394.8 84.4998C394.4 83.9998 393.9 83.4998 393.2 83.0998C391.7 82.0998 389.5 81.0998 386.6 80.6998C383.7 80.2998 380 80.4998 376.1 82.0998C373 83.3998 370.4 85.1998 368.2 86.9998C368.1 85.5998 367.3 84.0998 366 82.5998C365.4 81.8998 364.8 81.1998 364 80.3998C363.2 79.5998 362.3 78.6998 361 78.0998C359.7 77.3998 358.1 77.1998 356.4 77.2998C354.7 77.3998 352.9 77.8998 351 78.5998C349.2 79.2998 347.5 80.0998 346 81.0998C345.9 80.7998 345.7 80.5998 345.5 80.2998C344.6 79.0998 342.8 77.8998 340.1 77.5998C336.5 77.2998 332.6 78.2998 328.9 80.0998C325.2 81.8998 321.6 84.1998 318 86.9998C314.4 89.7998 311 92.8998 307.5 96.3998C305.8 98.0998 304.1 99.9998 302.4 101.9C300.7 103.8 299.1 105.9 297.5 108C294.3 112.2 291.1 116.7 288.1 121.5C286.6 123.9 285.1 126.3 283.6 128.9C283.2 129.5 282.9 130.2 282.5 130.8C282.1 131.5 281.7 132.2 281.4 132.9C280.7 134.3 280 135.8 279.4 137.3C278.2 140.3 277.4 143.5 276.6 146.5C276 148.9 275.4 151.3 274.8 153.7C274.5 149.3 274.1 144.8 273.7 140.4C273.4 137 272.9 133.5 272.5 130.1C272.1 126.7 271.7 123.2 271.3 119.8C270.5 112.9 269.6 105.8 268.4 98.6998C267.2 91.5998 265.6 84.3998 263.4 77.2998C262.3 73.6998 260.9 70.0998 259.4 66.5998C259 65.6998 258.5 64.7998 258.1 63.9998C257.6 63.0998 257.3 62.1998 256.7 61.3998L255.1 58.7998L254.7 58.1998C254.6 57.9998 254.4 57.6998 254.2 57.4998C253.9 56.9998 253.5 56.5998 253.2 56.0998C250.3 52.5998 246.7 49.7998 242.6 47.9998C240.5 47.0998 238.3 46.3998 235.9 45.9998C233.5 45.5998 230.9 45.5998 228.2 46.2998C225.5 46.9998 222.8 48.4998 220.8 50.6998C218.8 52.8998 217.6 55.3998 216.9 57.8998C215.7 56.2998 214.3 54.6998 212.5 53.3998C209.4 50.9998 204.9 49.7998 200.5 51.2998C196.2 52.6998 192.5 56.1998 190.3 60.6998C189.7 61.8998 189.3 63.1998 189 64.4998C188.9 64.1998 188.8 63.7998 188.5 63.4998C187.8 62.4998 186.4 61.4998 184.4 60.8998C181.7 60.1998 178.5 60.2998 175.4 61.4998C173.9 62.0998 172.4 62.9998 171.2 64.2998C169.9 65.5998 168.9 67.0998 168.2 68.7998C167.3 70.7998 166.9 72.9998 166.7 75.2998C166.4 75.1998 166.2 75.1998 165.8 75.0998C165.4 75.0998 164.9 75.0998 164.3 75.0998C163.7 75.0998 163.2 75.2998 162.5 75.4998C161.2 75.8998 159.8 76.6998 158.4 77.7998C157 78.9998 155.5 80.4998 154.3 82.4998C150.9 87.7998 149.1 94.6998 149.8 101.8C150.4 108.9 153.1 116.1 156.3 123.1C157.9 126.6 159.6 130.2 161.2 133.9C162 135.7 162.7 137.6 163.5 139.5C164.2 141.4 164.9 143.3 165.6 145.3C168.2 153.1 170.3 161.5 171.6 170.2C174.2 187.7 173.8 206.9 169.4 226.5C165 246.1 156.4 266 142.9 283.7C142.1 284.7 141.3 285.7 140.6 286.7C139.9 287.7 139.2 288.6 138.5 289.4C138.4 289.2 138.3 289.1 138.2 288.9C136.2 286.1 133.9 283.4 131.4 280.9C130.7 280.2 130 279.5 129.1 278.9C128.6 278.6 128.2 278.2 127.6 277.9C127.3 277.7 127 277.6 126.8 277.4C126.5 277.3 126.1 277.1 125.8 276.9C123.2 275.8 120.2 275.8 117.5 276.9C117.3 276.6 117.1 276.2 116.9 275.9L116.8 275.8V275.7C117.2 277.6 116.2 272.7 117.1 277.2C117.1 277.2 117.1 277.2 117 277.2C116.3 277.6 115.8 277.8 115.2 278.2C114.7 278.5 114.2 278.9 113.8 279.2C113 279.8 112.3 280.4 111.7 280.9C111.5 281.1 111.3 281.3 111.1 281.4C110.1 281.6 109.1 281.9 108.1 282.2C105.4 283.2 102.8 284.4 100.4 286C98.0004 287.6 95.9004 289.6 94.0004 291.8C92.9004 293.2 92.0004 294.6 91.1004 296.2C88.7004 297.8 86.3004 299.4 83.9004 300.9C78.2004 304.3 72.5004 307.7 66.5004 310.7C64.7004 311.6 62.9004 312.5 61.0004 313.4L60.7004 312.6C53.5004 315.4 47.2004 318 41.6004 320.2L41.4004 319.7C41.3004 320 41.2004 320.2 41.1004 320.4C40.4004 320.7 39.7004 321 39.0004 321.2C38.6004 321.3 38.1004 321.4 37.7004 321.5C34.4004 322.4 31.3004 323.8 28.2004 325.5C28.1004 325.6 27.9004 325.7 27.8004 325.7C24.1004 327.2 21.0004 328.5 18.5004 329.5C18.0004 329.7 17.4004 329.8 17.0004 330C16.3004 330.2 15.6004 330.4 15.0004 330.6C13.8004 331 12.8004 331.3 12.1004 331.6C9.10041 332.8 9.70041 333.3 14.1004 333C15.2004 332.9 16.4004 332.8 17.7004 332.7C17.0004 333.3 16.3004 334 15.6004 334.6C14.4004 335.9 13.3004 337.3 12.4004 338.8C12.3004 338.9 12.2004 339.1 12.1004 339.2C13.3004 336.1 13.3004 335.1 11.8004 336.3C11.4004 336.6 10.9004 337.1 10.3004 337.7C10.0004 338 9.70041 338.3 9.40041 338.7C9.10041 339.1 8.80041 339.5 8.50041 339.9C7.90041 340.8 7.20041 341.8 6.60041 343C6.50041 343.3 6.30041 343.5 6.20041 343.8C4.70041 344 3.20041 344.2 1.60041 344.3L2.80041 348.6C3.20041 348.6 3.70041 348.5 4.10041 348.5C3.80041 349.2 3.60041 349.9 3.40041 350.7L2.80041 348.7C2.50041 348.7 2.30041 348.8 2.00041 348.8L2.90041 351.9C2.90041 351.9 3.00041 351.9 3.00041 351.8C2.40041 353.9 1.80041 356.3 1.40041 358.8L0.50041 359C0.60041 359.3 0.70041 359.6 0.80041 360C0.80041 360 0.80041 360 0.70041 360L0.80041 360.2C0.90041 360.5 1.00041 360.8 1.00041 361.1C0.50041 364.9 0.20041 369.1 0.30041 373.8C0.40041 381.5 1.30041 389.3 2.70041 397.2C4.10041 405.2 5.90041 413.2 7.60041 421.5C8.40041 425.6 9.20041 429.8 9.90041 434.1C10.6004 438.4 11.1004 442.7 11.4004 447.1C11.7004 451.5 11.7004 455.9 11.4004 460.4C11.3004 461.6 11.2004 462.8 11.1004 464C10.9004 465.3 10.8004 466.7 10.6004 468L10.5004 469V469.1V469.2H10.7004L11.2004 469.3L13.2004 469.6C14.5004 469.8 15.9004 470 17.3004 470.2C18.5004 470.4 19.6004 470.5 20.8004 470.7C22.0004 470.9 23.1004 471.1 24.3004 471.1C26.6004 471.3 29.0004 471.5 31.4004 471.7C32.6004 471.8 33.8004 471.9 35.0004 472C36.2004 472 37.4004 472.1 38.6004 472.1C41.0004 472.2 43.4004 472.2 45.8004 472.3C55.5004 472.1 65.4004 471.6 75.4004 470C76.7004 469.8 77.9004 469.6 79.2004 469.4L81.1004 469.1L83.0004 468.7C85.5004 468.2 88.0004 467.6 90.5004 467.1L92.4004 466.7C93.0004 466.6 93.7004 466.4 94.3004 466.2C95.6004 465.9 96.8004 465.5 98.1004 465.2C99.4004 464.9 100.6 464.5 101.9 464.2L103.8 463.7C104.4 463.5 105 463.3 105.7 463.1C108.2 462.3 110.7 461.4 113.2 460.6L115.1 460L117 459.3C118.2 458.8 119.5 458.3 120.7 457.8C125.8 455.9 130.6 453.5 135.6 451.3C136.9 450.8 138 450 139.3 449.4C140.4 448.8 141.5 448.2 142.7 447.6C142.8 447.6 142.9 447.5 143 447.5C144.2 446.8 145.4 446.2 146.7 445.5C147.9 444.8 149.1 444.1 150.3 443.3C152.7 441.8 155.1 440.4 157.5 438.9C159.8 437.3 162.1 435.7 164.5 434C166.9 432.4 169.1 430.6 171.3 428.8C173.5 427 175.9 425.3 178 423.3C180.2 421.4 182.3 419.4 184.5 417.5C185.6 416.5 186.7 415.4 187.8 414.2C188.9 412.9 189.9 411.5 190.7 409.7C191.5 407.9 191.9 405.9 191.8 404C191.8 402.1 191.4 400.3 190.9 398.7C190.4 397.1 189.8 395.6 189.2 394.1C188.6 392.7 188 391.4 187.3 390C186.9 389.2 186.6 388.4 186.2 387.6C190.3 382.2 197.3 370.3 207.1 351.8C211 344.4 215.1 336.8 219.2 329.1C220.3 327.2 221.4 325.3 222.9 323.6C224.3 321.9 226 320.4 227.8 319.1C231.5 316.6 235.8 314.9 240.1 313.3C241.2 312.9 242.3 312.5 243.3 312.1C244.4 311.6 245.4 311.2 246.5 310.7C248.6 309.8 250.8 308.9 253 307.9C255.1 306.8 257.2 305.7 259.4 304.6C260.5 304 261.6 303.5 262.6 302.9C263.6 302.3 264.7 301.6 265.7 301C273.1 296.7 280 291.5 286.7 285.7C286.3 289.1 286.8 294.1 288.9 300.5C289.1 301.1 289.2 301.6 289.4 302.2C289.6 302.8 289.8 303.4 290.1 304C290.6 305.2 291 306.6 291.5 308C292 309.4 292.7 310.8 293.3 312.3C293.6 313.1 294 313.8 294.3 314.6C294.7 315.4 295.1 316.2 295.5 317C298.6 323.6 302.9 331.1 308.8 339.2C314.7 347.3 320.7 354 326.4 359.6C327.8 361 329.2 362.3 330.6 363.6C332 364.8 333.3 366 334.6 367.2C335.9 368.3 337.2 369.4 338.5 370.4C339.1 370.9 339.7 371.4 340.3 371.9C340.9 372.4 341.5 372.8 342.1 373.3C351.4 380.4 363.7 388.4 379.4 395.6C387.3 399.2 394.9 402.3 402.4 404.8C409.8 407.4 417 409.5 423.9 411.2C425.8 411.7 427.3 412.1 428.5 412.3C431.8 413 434.4 413.3 436.2 413.3C436.3 415.7 436.4 418 436.6 420.4C436.8 423.3 437 426.3 437.2 429.2C437.3 430.7 437.4 432.2 437.5 433.6C437.6 435 437.7 436.8 438.1 438.8C438.3 439.8 438.7 440.9 439.2 442C439.7 443.1 440.5 444.3 441.5 445.2C443.4 447.2 445.8 448.2 447.7 448.7C449.7 449.3 451.5 449.4 453.1 449.6C454.6 449.7 456.1 449.9 457.6 450C463.6 450.5 469.7 451 475.9 451.3C488.2 452.1 500.6 452.7 513.3 453.1C519.2 453.3 524.6 453.4 529.6 453.3C539.5 453.3 545.9 452.9 548.8 452.4C551.8 451.9 551.3 451.3 547.3 450.6C539.4 449.1 525.1 448.3 504.5 447.4C492.7 446.9 477.6 446 459.1 444.5C456.8 444.3 454.4 444.1 452 443.9C449.7 443.6 447.1 443 445.4 441.3C443.7 439.6 443.3 436.9 443.1 434.4C442.9 431.8 442.8 429.1 442.6 426.4C442.5 424.7 442.4 423 442.3 421.3C443.8 421.7 445.6 421.9 447.8 421.9C452.6 422 460.1 422 470.3 422.3C480.5 422.6 488.6 423.1 494.5 423.6C500.4 424.1 507.7 424.8 516.2 426.1C524.7 427.4 532.3 428.9 539.1 430.5C540 430.7 540.8 430.9 541.3 431C545.5 431.7 547.4 431.2 547 429.5C546.6 427.8 544.4 426.2 540.4 425C535 423.5 529 422 522.3 420.8C515.6 419.6 508.3 418.6 500.3 417.9C492.4 417.2 483.8 416.7 474.7 416.5C465.6 416.3 455.9 416.3 445.7 416.5C444.5 416.5 443.4 416.6 442.4 416.7C442.3 416.7 442.2 416.7 442.1 416.7C441.7 408.5 441.3 399.9 441 390.9C440.9 388.9 440.9 386.8 440.8 384.8C441 384.9 441.3 385 441.5 385.1C443.1 385.7 444.9 386.3 447.1 386.9C452.1 388.1 460 390 470.8 392.5C481.6 395 490.1 397 496.4 398.5C502.7 400 510.4 401.8 519.6 403.9C528.8 406 537.2 407.9 544.8 409.5C545.9 409.7 546.7 409.9 547.3 410C548.1 410.1 548.7 410.2 549.3 410.2C548.8 413 548.4 415.8 548 418.6C547.3 423.6 547 427.6 546.8 430.6C546.7 433.4 546.6 436 546.5 438.3C546.5 440.6 546.4 442.3 546.2 443.4C546 444.5 545.7 445.2 545.6 445.3C545.4 445.6 545.1 445.9 544.9 446C544.8 446.1 544.8 446.1 544.8 446.2V446.3C544.8 446.4 544.8 446.5 544.8 446.5C544.8 446.6 544.8 446.7 544.7 446.8C544.7 446.9 544.6 447.1 544.6 447L544.5 447.1C544.4 447.2 544.3 447.4 544.3 447.6C544.3 447.8 544.4 448.1 544.7 448.3C545 448.5 545.6 448.6 546.3 448.5C547 448.4 547.8 448.1 548.6 447.5C549.3 447 550 445.9 550.5 444.6C551.5 442 551.5 438.3 552 434.2C552.1 433.2 552.2 432.1 552.3 431C552.4 429.9 552.5 428.8 552.7 427.6C552.8 426.4 552.9 425.3 553.1 424C553.3 422.8 553.4 421.5 553.6 420.3C554.5 413.4 555.7 406.4 557.3 399.3C558.8 392.2 560.6 384.9 562.6 377.6C563.7 373.5 564.9 369.4 566.1 365.2C567.4 364.8 567.8 364.2 567.3 363.3C567.2 363.1 567 362.9 566.9 362.7C569.9 352.6 573.1 342.3 576.4 331.7C577.6 327.7 578.9 323.7 579.7 319.3C580.1 317.1 580.3 314.9 580.3 312.7C579.9 310.2 579.6 307.9 579 305.7ZM179.3 395.8C179.6 396.5 179.6 397.2 179.5 397.9C179.4 398.6 179.1 399.3 178.8 399.9C178.4 400.6 178 401.2 177.5 401.8C176.9 402.6 176.2 403.4 175.5 404.1C175.9 402.5 176.3 401 176.4 399.3C176.5 398.5 176.5 397.7 176.5 396.9L175.5 397.2C175.5 396.9 175.5 396.7 175.4 396.4L176.4 396V395.9H176.5C176.5 395.9 176.5 396 176.6 396L177.7 395.6L179 395.3C179.2 395.5 179.2 395.6 179.3 395.8ZM9.20041 352.9C9.30041 353.1 9.30041 353.4 9.40041 353.6C9.60041 354.2 9.80041 354.7 10.0004 355.3C8.90041 355.8 7.70041 356.3 6.60041 356.8C6.70041 355.8 6.90041 354.9 7.10041 354C7.80041 353.6 8.50041 353.3 9.20041 352.9ZM19.2004 338.3C19.4004 338.1 19.7004 337.8 19.9004 337.6C20.2004 337.5 20.5004 337.4 20.8004 337.3C20.5004 337.8 20.2004 338.4 19.9004 339C19.7004 338.9 19.5004 338.9 19.3004 338.9C19.2004 338.7 19.2004 338.5 19.2004 338.3ZM108.8 449.8L108.4 449.2C109.1 448.9 109.8 448.7 110.8 448.2C114.2 446.7 117.7 445.1 121.1 443.6L121.7 444.3C121.6 444.4 121.4 444.5 121.3 444.6C117.2 446.5 113 448.2 108.8 449.8ZM118.7 286.1C119.7 286.2 120.7 286.3 121.7 286.5C122.6 287.7 123.6 289.2 124.8 291.1C124.4 291.2 123.9 291.3 123.5 291.3L122.3 290C120.9 290.8 119.5 291.7 118.1 292.5C117.8 292.6 117.5 292.7 117.1 292.7L117 292.3C117.3 292.2 117.5 292 117.8 291.9L116.9 289.3C116.9 289.3 116.9 289.2 117 289.2C117.2 288.9 117.4 288.7 117.7 288.1C118 287.7 118.4 287.1 118.7 286.1ZM122 444.2L121.4 443.5C123.5 442.6 125.5 441.7 127.6 440.7C125.8 441.9 123.9 443 122 444.2ZM130.7 307.9C130.6 307.9 130.6 307.9 130.5 307.9C130.3 307.9 130.1 308 129.8 308V307.9C130 307.7 130.1 307.6 130.3 307.4C130.4 307.6 130.6 307.8 130.7 307.9ZM44.3004 346.3C44.6004 346.2 44.8004 346.1 45.1004 346C45.2004 346 45.4004 346.1 45.5004 346.1L45.6004 346.3C45.1004 346.4 44.6004 346.5 44.0004 346.6C44.1004 346.5 44.2004 346.4 44.3004 346.3ZM140.2 343.5C141.5 346.4 142.7 349.3 144 352.1C142.8 349.9 141.6 347.7 140.4 345.4C139.8 344.3 139.3 343.3 138.8 342.2C138.9 342.1 138.9 341.9 139 341.8C139.3 342.4 139.7 343 140.2 343.5ZM45.3004 426.7L45.1004 426.2L47.8004 423.3C48.3004 423.3 48.9004 423.3 49.4004 423.3C49.8004 423.3 50.1004 423.3 50.5004 423.3C50.6004 423.3 50.6004 423.3 50.7004 423.3L49.6004 424L47.9004 425L46.3004 426C45.9004 426.3 45.6004 426.5 45.3004 426.7ZM59.2004 355.2C59.3004 355.2 59.4004 355.3 59.5004 355.3C58.8004 355.6 58.0004 356 57.3004 356.3C57.8004 355.9 58.4004 355.6 59.2004 355.2ZM147.6 403.4C147.9 403.1 148.2 402.8 148.5 402.4C148.5 402.5 148.5 402.6 148.5 402.7C148.3 403 148 403.2 147.6 403.4ZM87.9004 418.4C88.0004 418.7 88.0004 419 88.0004 419.3C86.9004 419.9 85.7004 420.5 84.3004 421.2C84.0004 420.5 83.7004 419.7 83.4004 419C83.3004 418.9 83.3004 418.8 83.2004 418.7C84.8004 418.5 86.3004 418.4 87.9004 418.4ZM81.4004 362.5L81.5004 362.9C81.3004 362.8 81.1004 362.7 80.9004 362.7C81.0004 362.5 81.2004 362.5 81.4004 362.5ZM63.6004 381.7C63.4004 382.7 63.2004 383.8 63.0004 384.8C60.9004 385.8 58.8004 386.9 56.8004 388.1C57.1004 387.1 57.4004 386.1 57.7004 385C57.8004 384.5 57.9004 384.1 58.0004 383.7C59.9004 383.1 61.8004 382.4 63.6004 381.7ZM83.7004 403.7C84.0004 403.6 84.4004 403.5 84.7004 403.5C84.4004 403.6 84.1004 403.7 83.8004 403.8C83.8004 403.8 83.8004 403.8 83.7004 403.7ZM66.3004 408.1C66.3004 408 66.3004 408 66.3004 407.9C67.0004 407.7 67.8004 407.4 68.5004 407.2L67.8004 407.5L67.2004 407.9C66.9004 408.1 66.6004 408.1 66.3004 408.1ZM136 381.9C134.6 382.2 133.2 382.6 131.8 382.9C132.8 381.9 133.7 380.9 134.7 379.9C135.3 379.5 136 379.2 136.6 378.8C136.8 379.7 137.1 380.6 137.3 381.6C136.8 381.7 136.4 381.8 136 381.9ZM79.8004 394.9C79.7004 394.6 79.6004 394.3 79.5004 394C80.1004 393.9 80.6004 393.8 81.2004 393.7H81.4004C81.1004 394 80.7004 394.3 80.4004 394.6L79.8004 394.9ZM78.0004 386.8C78.0004 386.5 77.9004 386.2 77.9004 385.9C78.4004 385.8 78.8004 385.7 79.3004 385.6C79.3004 385.7 79.4004 385.8 79.4004 385.9C79.0004 386.2 78.6004 386.5 78.2004 386.7C78.1004 386.7 78.0004 386.7 78.0004 386.8ZM101.2 377.8C101.1 378 100.9 378.2 100.8 378.3C100.7 378.2 100.6 378.2 100.5 378.1C100.7 378 101 377.9 101.2 377.8ZM97.0004 382.6C97.1004 382.7 97.2004 382.8 97.3004 382.9C96.9004 383.5 96.4004 384.1 96.0004 384.7C96.1004 383.8 96.1004 382.9 96.2004 382C96.5004 382.2 96.7004 382.4 97.0004 382.6ZM111.5 378.4L111.6 378.3C111.6 378.4 111.7 378.4 111.7 378.5C111.6 378.5 111.6 378.6 111.5 378.6C111.5 378.6 111.5 378.5 111.5 378.4ZM97.7004 394.7C97.8004 394.5 97.9004 394.3 98.0004 394.1C98.1004 393.9 98.2004 393.7 98.4004 393.4C98.5004 393.2 98.6004 393.1 98.7004 392.9C99.5004 392.9 100.3 393 101.1 393.1C99.9004 393.8 98.7004 394.5 97.5004 395.2C97.6004 395 97.7004 394.9 97.7004 394.7ZM72.3004 389.5C70.9004 389.8 69.5004 390.2 68.1004 390.5C68.1004 390.4 68.1004 390.4 68.1004 390.3C69.5004 389.6 70.8004 388.9 72.1004 388.1C72.1004 388.6 72.2004 389 72.3004 389.5ZM88.5004 394.1C88.7004 393.8 88.9004 393.5 89.0004 393.2C89.1004 393.2 89.3004 393.2 89.4004 393.2L89.9004 393.1C89.9004 393.3 89.9004 393.4 89.9004 393.6C89.7004 393.9 89.5004 394.2 89.3004 394.5L90.0004 395.2C90.0004 395.4 90.0004 395.7 90.1004 395.9C89.9004 396.3 89.7004 396.8 89.5004 397.2C89.4004 397.2 89.3004 397.2 89.2004 397.2C89.1004 396.3 88.8004 395.2 88.5004 394.1ZM71.2004 379.3C71.2004 380 71.3004 380.8 71.4004 381.6C70.8004 381.8 70.1004 382 69.5004 382.2C69.7004 381.3 69.9004 380.5 70.1004 379.6C70.4004 379.6 70.8004 379.5 71.2004 379.3ZM73.4004 396.1C73.5004 396 73.7004 396 73.8004 395.9C73.9004 396.2 73.9004 396.4 74.0004 396.7C74.2004 397.2 74.3004 397.7 74.5004 398.3C73.8004 398.7 73.2004 399 72.5004 399.3C71.8004 399.7 71.1004 400 70.3004 400.3C69.2004 400.6 68.0004 400.8 66.9004 401.1C67.0004 400.4 67.0004 399.7 67.1004 399C69.3004 398.1 71.4004 397.2 73.4004 396.1ZM132.2 389.1C131.7 389.6 131.2 390 130.8 390.5C130.7 390.2 130.6 389.9 130.5 389.7C131.1 389.5 131.7 389.3 132.2 389.1ZM131.5 367.7C131.3 367.9 131.1 368.1 130.9 368.3C131 368.1 131.1 367.9 131.3 367.8L131.5 367.7ZM125.6 363.2C124 363.8 122.5 364.5 121 365.1V365C122.7 363.5 124.4 361.9 126 360.2C126.5 360.9 127.1 361.5 127.6 362.2L127.4 362.6C126.8 362.8 126.2 363 125.6 363.2ZM112.2 349C112.7 348.8 113.1 348.5 113.6 348.3C113.7 349.4 113.8 350.6 113.9 351.9C113.4 350.9 112.8 350 112.2 349ZM96.1004 361.2C95.8004 361.8 95.5004 362.4 95.3004 363C94.4004 363.4 93.5004 363.9 92.5004 364.4L92.6004 364.3C92.9004 364 93.2004 363.6 93.5004 363.3C93.7004 363.1 93.8004 363 94.0004 362.8C94.4004 362.4 94.8004 362 95.3004 361.6C95.7004 361.2 96.2004 360.7 96.6004 360.3L96.7004 360.2C96.5004 360.4 96.3004 360.8 96.1004 361.2ZM59.3004 401.8C59.9004 401.6 60.5004 401.4 61.2004 401.2C61.2004 401.7 61.1004 402.3 61.1004 402.8C60.9004 402.9 60.6004 402.9 60.4004 403C59.9004 402.6 59.6004 402.2 59.3004 401.8ZM146.2 380.4C146 380.4 145.8 380.4 145.7 380.4C145.7 380.3 145.8 380.2 145.8 380.1C145.9 380.2 146 380.3 146.2 380.4ZM70.3004 413.4C71.5004 413.2 72.7004 413 73.9004 412.7C74.1004 413 74.3004 413.2 74.5004 413.5C73.5004 413.8 72.4004 414.1 71.3004 414.4C71.0004 414 70.7004 413.7 70.3004 413.4ZM74.2004 405.3C74.9004 405.1 75.7004 405 76.4004 404.9C76.7004 404.8 77.0004 404.8 77.3004 404.7C77.5004 405 77.7004 405.4 77.9004 405.7C77.0004 406 76.0004 406.2 75.1004 406.4C74.8004 406 74.5004 405.7 74.2004 405.3ZM49.1004 403.9C49.1004 403.9 49.2004 403.9 49.2004 403.8C49.6004 403.8 50.1004 403.8 50.5004 403.8C51.3004 403.7 52.1004 403.6 52.8004 403.5C53.0004 403.8 53.3004 404.1 53.5004 404.4C52.7004 404.5 52.0004 404.5 51.2004 404.5C50.4004 404.5 49.7004 404.5 48.9004 404.5C49.1004 404.2 49.1004 404.1 49.1004 403.9ZM79.4004 411.9C79.3004 411.7 79.1004 411.6 79.0004 411.4C79.8004 411.2 80.5004 411 81.3004 410.8C81.4004 410.9 81.5004 411 81.6004 411.2C81.6004 411.2 81.6004 411.2 81.6004 411.3C80.9004 411.4 80.1004 411.7 79.4004 411.9ZM91.8004 407C91.9004 406.9 92.1004 406.9 92.2004 406.8C92.1004 406.9 92.0004 406.9 91.8004 407ZM68.1004 368.4C66.1004 369 64.1004 369.7 62.2004 370.5C62.1004 370.5 62.0004 370.5 61.8004 370.5C61.3004 370.5 60.8004 370.5 60.3004 370.5C60.0004 370.5 59.7004 370.4 59.4004 370.4C62.5004 369.7 65.6004 368.8 68.6004 367.6C68.4004 367.9 68.3004 368.2 68.1004 368.4ZM77.6004 419.5C77.5004 419.5 77.5004 419.5 77.6004 419.5C77.8004 419.4 78.0004 419.4 78.3004 419.3C78.5004 419.7 78.7004 420.1 78.9004 420.5C78.4004 420.2 78.0004 419.9 77.6004 419.5ZM98.0004 347.9C97.9004 347.9 97.8004 347.9 97.8004 348C97.9004 347.9 97.9004 347.9 98.0004 347.8C98.0004 347.8 98.0004 347.8 98.0004 347.9ZM53.0004 375C53.0004 375.1 53.0004 375.2 53.0004 375.4C52.8004 375.6 52.5004 375.7 52.3004 375.9C51.2004 376.6 50.2004 377.3 49.2004 378.1C48.8004 378.4 48.5004 378.7 48.1004 378.9C47.8004 377.6 47.6004 376.3 47.5004 375.1C48.0004 374.8 48.5004 374.5 49.0004 374.2L48.0004 372.2C48.6004 372.7 49.1004 373.1 49.7004 373.5C50.8004 374 51.9004 374.5 53.0004 375ZM42.7004 409.5C42.8004 409.5 42.9004 409.6 43.1004 409.6C43.0004 409.7 42.9004 409.7 42.8004 409.8L42.7004 409.5ZM67.7004 426.7C67.6004 426.9 67.5004 427.1 67.4004 427.3C67.3004 427.3 67.2004 427.3 67.2004 427.4C67.1004 427.1 67.0004 426.9 66.9004 426.6C67.1004 426.7 67.4004 426.7 67.7004 426.7ZM77.2004 430.5C78.3004 430.2 79.4004 429.9 80.6004 429.6C80.9004 429.8 81.2004 430 81.6004 430.2C80.2004 430.4 78.7004 430.7 77.3004 431L77.2004 430.5ZM103 344.8C102.9 344.9 102.9 345 102.8 345.1C102.7 345 102.7 344.8 102.6 344.7C102.7 344.7 102.7 344.6 102.8 344.6C102.9 344.6 103 344.7 103 344.8ZM40.6004 410.6L40.7004 410.5L41.0004 410.9C40.8004 411 40.6004 411.2 40.4004 411.3C40.4004 411.1 40.5004 410.8 40.6004 410.6ZM45.0004 415.1C46.0004 414.5 47.0004 414 48.1004 413.5C48.5004 413.7 48.9004 413.9 49.3004 414.1L48.7004 414.3C48.7004 414.4 48.8004 414.5 48.8004 414.6L45.7004 415.5C45.5004 415.3 45.3004 415.2 45.0004 415.1ZM54.8004 415.7L55.6004 414.9C55.8004 414.9 56.0004 414.9 56.3004 414.9C56.6004 415.6 56.8004 416.3 57.1004 417C56.5004 417.1 55.9004 417.2 55.3004 417.2C55.1004 416.7 55.0004 416.2 54.8004 415.7ZM57.8004 363.6C57.7004 363.3 57.7004 363 57.6004 362.7C58.4004 362.3 59.2004 361.9 60.1004 361.5C59.2004 362.2 58.5004 362.9 57.8004 363.6ZM112.7 401.8L114.4 400.8C114.5 400.9 114.5 401 114.6 401.1C114.4 401.2 114.3 401.3 114.1 401.3C113.6 401.5 113.2 401.7 112.7 401.9C112.6 401.9 112.7 401.9 112.7 401.8ZM101.4 412.8C101.8 412.7 102.1 412.5 102.5 412.4L102.3 413H101.5C101.5 412.9 101.4 412.9 101.4 412.8ZM128.7 336.5C127.8 336.7 126.9 336.9 125.9 337.2L125.2 337.4C125.2 337.4 125.2 337.4 125.1 337.4C125 337.3 124.9 337.2 124.8 337.1C124.9 337.1 124.9 337 125 337C126 336.1 127 335.1 128 334.2C128.5 334.8 128.8 335.6 128.8 336.6C128.8 336.5 128.7 336.5 128.7 336.5ZM72.7004 347.7C73.7004 347.3 74.8004 347 75.9004 346.7C76.2004 346.6 76.4004 346.5 76.7004 346.5L77.4004 346.3L78.5004 346C79.2004 345.9 79.8004 345.8 80.5004 345.7C79.0004 346.6 77.4004 347.4 75.7004 348.1C73.1004 349.1 70.4004 349.7 67.7004 350C68.2004 349.7 68.7004 349.4 69.2004 349C70.2004 348.5 71.4004 348 72.7004 347.7ZM42.5004 359.1C40.6004 360 38.6004 361.1 36.8004 362.1C36.5004 361.4 36.2004 360.7 35.9004 360C38.3004 359.1 40.8004 358.2 43.2004 357.2C42.8004 357.8 42.6004 358.4 42.5004 359.1ZM33.5004 418.5C33.8004 418.3 33.9004 418.2 34.1004 418L34.2004 417.9C34.5004 417.6 34.8004 417.3 35.1004 417V417.1C34.8004 417.6 34.6004 418.1 34.4004 418.6C34.3004 418.6 34.2004 418.6 34.0004 418.6C33.9004 418.6 33.7004 418.6 33.6004 418.6L33.5004 418.5C33.4004 418.6 33.4004 418.6 33.5004 418.5ZM106.4 417.7C108.3 416.3 110.1 415.1 112 413.9C112.5 413.6 113 413.3 113.5 413C113.4 413.6 113.4 414.3 113.3 414.9C112.7 415.5 112 416 111.1 416.4C109.8 417.2 108.2 417.6 106.4 417.7ZM118.2 324C117.4 325.2 116.6 326.4 115.6 327.6C115 327.8 114.3 328 113.7 328.2C110.4 329.3 107.2 330.7 104.1 332.3C104.1 331.5 104.1 330.7 104.1 329.8C104.2 329.7 104.3 329.7 104.5 329.6C105.4 329 106.4 328.5 107.3 328C110.3 326.4 113.7 324.8 117.4 323.5C117.7 323.7 117.9 323.8 118.2 324ZM84.5004 338.5C84.3004 338.7 84.0004 339 83.8004 339.3C83.6004 339.3 83.5004 339.3 83.3004 339.3C82.5004 339.4 81.6004 339.5 80.8004 339.7C80.3004 339.8 79.7004 339.9 79.2004 339.9L79.1004 339.8C80.9004 339.3 82.7004 338.8 84.5004 338.5C84.5004 338.4 84.5004 338.4 84.5004 338.5ZM45.9004 346.1C46.0004 346.1 46.1004 346.1 46.1004 346.1C46.1004 346.2 46.0004 346.2 45.9004 346.1ZM44.2004 354.7C44.0004 355.1 43.7004 355.6 43.5004 356L43.2004 355.3C43.6004 355.1 43.9004 354.9 44.2004 354.7ZM32.4004 410.6C32.5004 411 32.7004 411.3 32.8004 411.7C32.1004 412.4 31.3004 413.2 30.4004 414.1L30.5004 412.5C30.5004 412.4 30.5004 412.3 30.5004 412.3C31.1004 411.6 31.8004 411.1 32.4004 410.6ZM30.7004 431.5L31.2004 431.4C31.0004 431.1 30.8004 430.7 30.6004 430.4C30.6004 429.9 30.5004 429.4 30.5004 428.9C30.4004 427.5 30.4004 426 30.4004 424.6C30.5004 424.6 30.6004 424.6 30.8004 424.6C31.6004 424.5 32.5004 424.4 33.5004 424.2C33.6004 425.9 33.9004 427.6 34.9004 429.3C33.7004 430.6 32.4004 432 30.9004 433.6C30.8004 433 30.7004 432.3 30.7004 431.5ZM51.9004 429.1C52.4004 428.8 52.9004 428.5 53.4004 428.2C53.6004 428.6 53.7004 429 53.9004 429.4C53.3004 429.4 52.7004 429.5 52.0004 429.5C51.7004 429.5 51.4004 429.5 51.1004 429.5C51.4004 429.4 51.7004 429.3 51.9004 429.1ZM98.7004 423.8L99.1004 423.4L98.8004 424.4L98.7004 423.8ZM130.3 421.1L131.4 420.6C131.6 420.7 131.8 420.9 132 421C131.2 421.6 130.3 422.3 129.5 422.9C129.4 422.5 129.2 422.2 128.9 421.8C129.4 421.6 129.9 421.4 130.3 421.1ZM33.5004 355.1C33.4004 354.7 33.2004 354.2 33.1004 353.8L36.2004 353.5C35.3004 354 34.4004 354.6 33.5004 355.1ZM39.6004 438.7C40.0004 438.3 40.5004 437.9 41.0004 437.4C41.6004 436.9 42.2004 436.3 42.8004 435.7C43.1004 436.5 43.5004 437.4 43.8004 438.2C42.6004 438.9 41.5004 439.5 40.3004 440.2L39.3004 438.8C39.4004 438.8 39.5004 438.8 39.6004 438.7ZM48.9004 435.3C49.0004 435.3 49.1004 435.3 49.2004 435.3C49.1004 435.3 49.0004 435.4 48.9004 435.4V435.3ZM99.1004 426.5C99.6004 426.4 100.1 426.3 100.5 426.2C100.1 426.5 99.6004 426.7 99.1004 427V426.5ZM77.0004 329.1C77.3004 329.1 77.5004 329.1 77.9004 329C77.2004 329.7 76.4004 330.3 75.6004 330.9L74.7004 331C75.0004 330.8 75.3004 330.6 75.5004 330.3L77.0004 329.1ZM21.7004 408.8C21.3004 408.9 20.9004 409 20.5004 409.1C20.0004 407.8 19.5004 406.6 19.0004 405.3C19.6004 404.8 20.2004 404.3 20.8004 403.9C21.1004 405.5 21.4004 407.2 21.7004 408.8ZM118.8 427.1C119 426.8 119.3 426.6 119.5 426.3C119.8 426.2 120 426.1 120.3 426C120.9 425.8 121.5 425.6 121.9 425.5L122.3 425.4L122.6 425.3C122.7 425.3 122.7 425.3 122.8 425.3C123.2 425.2 123.7 425.5 123.8 425.9C123.8 426.1 123.8 426.4 123.8 426.5V426.6C123.8 426.7 123.7 426.8 123.7 426.9V427C123 427.5 122.2 428 121.5 428.5C120.4 428.4 119.4 428.2 118.3 428C118.3 427.7 118.6 427.4 118.8 427.1ZM164.1 387.4C164.1 387.3 164 387.1 164 387C164.1 386.9 164.2 386.8 164.2 386.6C164.2 386.8 164.2 387 164.1 387.1C164.2 387.2 164.1 387.3 164.1 387.4ZM118.2 304.3C117.7 304.9 117.1 305.5 116.6 306.1C116 306.7 115.5 307.3 114.9 307.9C114.8 307.9 114.7 307.9 114.6 308C114.3 308.1 114 308.2 113.7 308.3C115.6 306.7 117.5 304.9 119.3 303.1C119.3 303.1 119.3 303.2 119.2 303.2C118.8 303.5 118.5 303.9 118.2 304.3ZM135.7 430.1C136.2 429.7 136.7 429.3 137.2 429C136.6 429.7 136 430.4 135.2 431C134.6 431.5 133.9 431.9 133.2 432.3C134.1 431.5 134.9 430.8 135.7 430.1ZM37.2004 340.7L36.1004 341.7C34.4004 342.6 32.6004 343.6 31.0004 344.7C30.8004 344.8 30.7004 344.9 30.6004 345C30.5004 344.6 30.3004 344.1 30.1004 343.7C32.4004 342.6 34.8004 341.7 37.2004 340.7ZM18.9004 395.3C18.9004 395.5 19.0004 395.7 19.0004 395.9C18.1004 396.1 17.2004 396.4 16.4004 396.6C16.2004 396 16.1004 395.3 15.9004 394.7C16.7004 394.2 17.5004 393.7 18.3004 393.2C18.6004 393.9 18.8004 394.6 18.9004 395.3ZM95.2004 441.8C96.0004 441.3 96.8004 440.8 97.5004 440.3C100.4 438.2 102.8 435.8 104.7 433.2C105.8 432.7 106.9 432.2 108 431.7C106.8 433.3 105.6 434.9 104.3 436.6C103.8 437.2 103.4 437.9 102.9 438.6C100.5 439.7 97.9004 440.8 95.2004 441.8ZM145.8 426.7C145.6 426.8 145.3 426.9 145.1 427C145.7 425.4 146.2 423.8 146.5 422.2C146.8 422 147.1 421.8 147.5 421.5C147.7 421.6 147.9 421.7 148.1 421.8C148.9 422.2 149.7 422.4 150.5 422.6C148.9 424 147.4 425.3 145.8 426.7ZM11.6004 368.3C10.9004 368.7 10.1004 369.2 9.40041 369.6C9.30041 369.3 9.20041 369 9.20041 368.7C10.0004 368.5 10.8004 368.2 11.6004 368C11.6004 368.1 11.6004 368.2 11.6004 368.3ZM13.2004 373.5C13.3004 373.7 13.3004 373.9 13.4004 374.1C12.6004 374.4 11.8004 374.7 10.9004 375V374.9C11.6004 374.4 12.4004 374 13.2004 373.5ZM115.3 293.3C115.4 293.2 115.6 293.1 115.7 293C116 292.9 116.4 292.9 116.7 292.8C116.2 293 115.8 293.2 115.3 293.3ZM36.3004 333.3L29.3004 336.7L32.1004 337C30.8004 337.4 29.6004 337.9 28.3004 338.3C28.1004 337.7 27.9004 337.2 27.7004 336.6L27.2004 335.1C30.1004 334.1 33.0004 333.1 36.0004 332.1L36.3004 333.3ZM14.7004 379.3C14.4004 379.6 14.2004 379.8 13.9004 380.1L15.8004 383V383.1C15.0004 383.5 14.1004 383.8 13.3004 384.2C12.6004 381.5 11.9004 378.8 11.1004 376L13.5004 379.6C14.0004 379.6 14.3004 379.5 14.7004 379.3ZM165.2 405C165.9 404 166.6 403 167.1 401.9C168.2 401.3 169.2 400.7 170.3 400.1C170.2 400.9 170 401.8 169.7 402.6C168.2 403.5 166.7 404.2 165.2 405ZM170.5 398.7C170.5 398.6 170.5 398.6 170.5 398.7V398.7ZM111.5 287.7C111.4 287.8 111.4 287.9 111.3 288C111.1 288.1 110.9 288.1 110.7 288.2C111 287.9 111.4 287.7 111.7 287.4C111.7 287.4 111.6 287.5 111.5 287.7ZM31.7004 329.4C32.5004 329.2 33.4004 328.9 34.3004 328.7L34.4004 328.9C34.0004 329 33.6004 329.2 33.3004 329.3C32.9004 329.4 32.6004 329.5 32.2004 329.6C31.5004 329.8 30.8004 330 30.0004 330.3C30.5004 330 30.9004 329.8 31.4004 329.5C31.5004 329.4 31.6004 329.4 31.7004 329.4ZM9.50041 361C9.50041 361.1 9.60041 361.2 9.60041 361.3C9.10041 361.7 8.60041 362.1 8.00041 362.4C8.00041 362.1 7.90041 361.9 7.90041 361.6C8.50041 361.4 9.00041 361.2 9.50041 361ZM62.3004 463.6C64.1004 463.6 65.8004 463.6 67.7004 463.6C67.6004 463.6 67.6004 463.6 67.5004 463.7C65.4004 464.4 63.3004 464.6 61.1004 464.6C60.0004 464.6 59.0004 464.5 57.9004 464.4H57.7004C59.2004 464.1 60.7004 463.8 62.3004 463.6ZM105.2 450.4L107.2 449.7C107.5 449.6 107.8 449.5 108.1 449.3L108.5 449.9C107.5 450.3 106.6 450.6 105.6 451C104.2 451.5 102.9 451.9 101.5 452.3C102.8 451.7 104 451.1 105.2 450.4ZM173.7 398.1L173.1 398.3C173 398 173 397.7 172.9 397.4L173.2 397.3C173.4 397.6 173.6 397.9 173.7 398.1ZM6.90041 387C6.80041 387 6.80041 387 6.90041 387C6.80041 386.8 6.80041 386.5 6.70041 386.3C6.70041 386.5 6.80041 386.8 6.90041 387ZM43.1004 465V465.6C42.2004 465.6 41.3004 465.6 40.4004 465.5C41.3004 465.4 42.2004 465.2 43.1004 465ZM142.2 440C142.4 439.9 142.6 439.8 142.8 439.6C142.7 439.7 142.7 439.7 142.6 439.8C142.5 439.9 142.4 440 142.2 440ZM175.3 381C172.6 375.3 169.9 369.6 167.2 364.1C166.5 362.6 165.8 361.1 165 359.6C163.9 357.2 162.7 354.8 161.5 352.5L161.4 352.3L162.8 351.8C168 363.1 172.9 373.7 177.5 383.8C176.8 382.9 176.1 381.9 175.3 381ZM137 298.3C137.1 298.1 137.1 297.9 137.2 297.7C137.6 298.4 138 299.1 138.4 299.8C137.9 299.3 137.4 298.8 137 298.3ZM78.8004 309.6C79.7004 309.1 80.7004 308.5 81.6004 308C77.9004 310.9 74.2004 314 70.6004 317.2C68.1004 317.9 65.7004 318.8 63.2004 319.6L63.4004 320.1C63.4004 320.1 63.4004 320.1 63.3004 320.1L63.1004 319.6C61.0004 320.4 58.9004 321.2 56.7004 322.1C53.9004 323 50.9004 323.8 47.9004 324.7L47.7004 324.1C51.2004 322.8 54.9004 321.3 58.7004 319.6C59.9004 319.1 61.1004 318.5 62.4004 317.9L63.0004 319.6C63.0004 319.6 63.0004 319.6 63.1004 319.6L62.5004 317.9C67.6004 315.6 73.0004 312.9 78.8004 309.6ZM8.80041 347.4C8.80041 347.7 8.70041 348 8.70041 348.4C8.70041 348.4 8.70041 348.4 8.70041 348.5C8.60041 348.6 8.40041 348.6 8.30041 348.7C8.40041 348.3 8.50041 347.9 8.60041 347.6C8.70041 347.4 8.70041 347.4 8.80041 347.4ZM21.8004 464.2C20.5004 464 19.2004 463.8 17.8004 463.6L17.0004 463.4C16.8004 463.4 16.8004 463.3 16.8004 463.1H16.9004L17.5004 463.2C17.7004 463.2 18.0004 463.2 18.2004 463.2C20.0004 463.2 21.8004 463.2 23.7004 463.2C25.4004 463.2 27.2004 463.2 29.1004 463.2L29.8004 464.8C28.6004 464.7 27.3004 464.6 26.1004 464.5C24.6004 464.6 23.2004 464.5 21.8004 464.2ZM34.6004 465.4C33.8004 465.3 33.1004 465.3 32.4004 465.2C33.0004 464.6 33.7004 464 34.4004 463.4C35.1004 463.4 35.9004 463.4 36.6004 463.4L37.3004 465.5C36.3004 465.4 35.4004 465.4 34.6004 465.4ZM82.4004 462C82.7004 461.1 83.1004 460.2 83.4004 459.2C84.5004 458.9 85.6004 458.6 86.7004 458.2L87.4004 460.9C85.8004 461.3 84.1004 461.6 82.4004 462ZM183.7 408.2C182.5 409.9 180.9 411.5 179.1 413.1C177.3 414.7 175.6 416.2 173.9 417.7C173.1 418.4 172.3 419.1 171.5 419.8L171.3 419.5C173.7 416.8 176.1 414.1 178.3 411.4L177.7 410.6C178.4 409.8 179.2 408.9 179.9 408.1L180.7 407.2C181 406.9 181.2 406.6 181.5 406.2C182.1 405.5 182.7 404.7 183.3 403.8C183.6 403.3 183.9 402.9 184.2 402.2C184.4 401.7 184.6 401.2 184.8 400.7C184.9 401.3 185 401.9 185.1 402.5C185.4 404.7 184.9 406.5 183.7 408.2ZM277.9 284.2C276.7 285.1 275.6 286.2 274.4 287C272 288.7 269.6 290.5 267.2 292.2C264.7 293.7 262.2 295.3 259.8 296.8C258.6 297.6 257.3 298.2 256 298.9C254.7 299.6 253.5 300.2 252.2 300.9C249.7 302.3 247.1 303.3 244.5 304.4C243.2 305 241.9 305.5 240.6 306.1C239.3 306.6 237.9 307.1 236.6 307.6C233.8 308.7 231 309.8 228.1 311.3C225.2 312.8 222.3 314.7 219.8 317.3C217.3 319.8 215.5 322.7 214 325.3C212.5 328 211.3 330.3 210 332.8C207.5 337.7 205 342.5 202.5 347.2C199.8 352.5 197.6 356.7 195.9 359.8C190.3 371 186.4 379.1 184.3 384.1C182.7 380.6 181 377 179.4 373.4C174.4 362.5 169.2 351.5 164 340.2C161.4 334.6 158.8 328.9 156.1 323.2C153.4 317.5 150.8 311.8 148 305.9C145.9 301.5 143.6 297.1 140.8 292.8C141 292.6 141.2 292.4 141.4 292.2C142.6 291.1 143.9 289.8 145.2 288.3C146.6 286.8 147.9 285.1 149.3 283.2C152.5 278.8 156.4 273 160.5 265.5C162.6 261.7 164.6 257.5 166.6 252.8C168.6 248.1 170.4 243 172.2 237.3C173.9 231.7 175.2 226.2 176.2 221C176.6 218.4 177.1 215.9 177.4 213.4C177.6 212.2 177.7 210.9 177.9 209.7C178 208.5 178.1 207.3 178.3 206.1C179.2 196.8 179.2 188.6 178.7 181.6C178.3 174.7 177.4 166.9 175.5 158.5C173.6 150.1 170.9 141 166.8 131.5C164.7 126.8 162.6 122.4 160.7 118.2C158.8 114 157.3 109.9 156.3 105.9C155.8 103.9 155.5 102 155.3 100.1C155.2 99.0998 155.2 98.2998 155.2 97.3998C155.3 96.4998 155.2 95.5998 155.4 94.7998C155.8 91.2998 157 87.9998 158.6 85.1998C159.5 83.6998 160.4 82.5998 161 81.8998C163.2 79.3998 165.1 78.2998 166.3 77.4998C166.3 78.1998 166.4 78.8998 166.5 79.5998C166.7 81.5998 167.1 83.5998 167.7 85.5998C168 86.5998 168.3 87.5998 168.6 88.4998C168.8 88.9998 168.9 89.4998 169.1 89.9998C169.3 90.4998 169.5 90.9998 169.7 91.4998C172.7 99.3998 177.3 107.2 182 115.2C184.3 119.2 186.7 123.3 188.6 127.5C190.6 131.7 192.3 136.1 193.2 140.6C193.4 141.7 193.6 142.6 193.9 143.4C194.5 146.8 195.6 147.9 197 146.3C197.7 145.5 198.2 144.3 198.5 142.8C198.6 142.1 198.6 141.2 198.6 140.3C198.5 139.4 198.5 138.4 198.2 137.4C197.2 132.7 194.6 125.3 189.4 116C186.8 111.4 184.5 107.3 182.5 103.6C180.5 99.9998 178.9 96.7998 177.7 94.0998C177.1 92.6998 176.4 91.2998 175.9 89.7998C175.6 88.9998 175.3 88.2998 175 87.3998C174.8 86.5998 174.5 85.7998 174.2 84.8998C173.6 83.1998 173.2 81.4998 173 79.6998C172.8 77.8998 172.6 75.9998 172.8 74.1998C173 72.3998 173.4 70.7998 174.1 69.5998C174.4 68.9998 174.8 68.3998 175.2 67.8998C175.4 67.6998 175.6 67.4998 175.8 67.2998C176 67.0998 176.3 66.9998 176.5 66.7998C178.4 65.4998 181.1 65.1998 183.2 65.6998C183.8 65.7998 184.2 65.9998 184.5 66.0998C185.7 66.3998 186.4 66.6998 187.1 66.6998C187.6 66.6998 188 66.4998 188.4 66.0998C187.9 68.9998 187.9 71.9998 188.2 74.9998C189.4 85.1998 193.2 95.4998 197.8 105.7C200.1 110.8 202.5 116 204.7 121.3C206.9 126.6 208.8 132.1 209.9 137.7C210.2 139 210.4 140.2 210.7 141.3C211.2 143.4 211.6 144.8 212.1 145.4C212.6 146 213.2 145.9 213.9 144.9C214.5 143.9 215.1 142.5 215.2 140.7C215.3 138.9 215.2 136.7 214.6 134.3C214 131.4 213 127.8 211.4 123.5C209.9 119.1 207.7 114.1 205.2 108.3C200.1 96.7998 196.6 87.5998 195.2 80.6998C194.4 77.2998 193.8 73.3998 194.1 69.3998C194.2 67.3998 194.6 65.3998 195.3 63.5998C196 61.7998 197.1 60.0998 198.5 58.7998C199.9 57.3998 201.6 56.5998 203.1 56.2998C203.9 56.1998 204.5 56.0998 205.3 56.1998C205.7 56.1998 206 56.2998 206.4 56.3998C206.7 56.3998 207.1 56.6998 207.4 56.7998C210 57.8998 212.4 60.8998 214.3 64.0998C214.8 64.9998 215.2 65.7998 215.5 66.2998C215.7 66.5998 215.9 66.9998 216.1 67.2998C216.1 67.5998 216.2 67.8998 216.2 68.1998C216.4 69.2998 216.6 70.3998 216.8 71.3998C217.8 75.4998 219.2 79.1998 220.6 82.8998C222 86.4998 223.4 89.9998 224.7 93.3998C225 94.1998 225.2 94.9998 225.5 95.6998C225.7 96.3998 226 97.1998 226.2 97.8998C226.5 99.1998 226.9 100.8 227.3 102.4C228 105.5 228.6 108.5 229.1 111.3C231.2 122.6 232 130.1 232.7 133.6C233.4 137 234 136.4 234.4 131.7C234.8 127 234.8 120.3 233.8 111.8C233.3 107.6 232.6 102.8 231.5 97.6998C230.4 92.6998 228.1 87.3998 225.9 81.4998C224.6 78.1998 223.3 74.5998 222.3 70.5998C221.8 68.5998 221.4 66.4998 221.4 64.2998C221.4 62.0998 221.7 59.7998 222.5 57.6998C222.9 56.5998 223.5 55.5998 224.2 54.5998C224.9 53.6998 225.9 52.8998 226.9 52.1998C229 50.8998 231.6 50.5998 234.1 50.8998C239.2 51.4998 244.2 54.0998 247.9 58.1998C248.8 59.1998 249.7 60.2998 250.4 61.5998C250.8 62.1998 251.1 62.7998 251.5 63.3998L252.1 64.2998L252.6 65.2998C253.9 67.8998 255.1 70.5998 256.2 73.4998C258.3 79.1998 259.9 85.2998 261.3 91.7998C264 104.7 265.4 118.9 267.1 134.1C268.6 146.8 269.4 159.1 269.6 170.7C269.3 171.9 269 173.1 268.8 174.4C268.5 176.1 268.3 177.6 268.2 179C268 181.8 268.3 183.7 268.7 184.6C268.9 185.1 269.2 185.2 269.5 185.1C269.4 189.1 269.3 193.1 269 197C268.8 200.2 268.6 203.3 268.3 206.4C268.2 208 268 209.5 267.9 211C267.8 212.6 267.7 214.2 267.7 215.8C267.7 219 268.1 222.3 269.8 225.5C270.7 227.1 272 228.5 273.5 229.4C275 230.3 276.8 231.1 278.6 231.1C280.4 231.2 282.2 230.9 283.7 230.2C285.2 229.6 286.6 228.8 287.8 227.8C290.3 225.9 292.2 223.8 293.8 221.4C294.6 220.2 295.3 219 296 217.8C296.6 216.6 297.2 215.5 297.7 214.3C298.8 212 299.8 209.7 300.8 207.5C302.8 203.1 304.7 198.9 306.7 195C308.7 191.2 310.9 187.4 313.7 184C316.5 180.6 319.8 177.6 323.7 175.6C325.5 174.7 327.6 174.1 329.3 174.1C330.2 174.1 330.9 174.3 331.4 174.6C331.9 174.9 332.3 175.3 332.6 175.9C333.2 177.1 333.3 179.3 333.1 181.8C332.8 184.4 332.5 187 332.1 189.7C330.5 200.3 327.7 211.1 323.4 222C319.1 232.8 313.2 243.6 305.9 253.9C298.5 264.2 290.1 273.4 280.9 281.2C280.2 282.3 279.1 283.2 277.9 284.2ZM425.3 405.2C414.8 402.3 403.3 398.6 391.3 393.6C379.2 388.6 366.6 382.2 354 373.9C341.5 365.5 329.1 355 318.2 341.8C307.4 328.7 298 312.9 292.5 294.9C292.1 293.9 291.9 292.8 291.6 291.9C291.3 290.9 291 290 290.7 289.1C290.1 287.4 289.8 285.9 289.3 284.8C289 284.1 288.8 283.5 288.6 283C288.7 282.9 288.9 282.8 289 282.6C290.8 280.9 292.7 279.1 294.6 277.3C296.4 275.5 298.1 273.5 299.9 271.6C300.8 270.6 301.7 269.7 302.5 268.7C303.3 267.7 304.1 266.7 305 265.6C305.8 264.6 306.7 263.6 307.5 262.5C308.3 261.5 309.2 260.5 309.9 259.3C311.4 257.1 313 254.9 314.5 252.8L315.1 252L315.6 251.1L316.6 249.4C317.3 248.2 318 247.1 318.7 245.9C319.4 244.7 320.1 243.6 320.8 242.4C321.4 241.2 322.1 240 322.7 238.8C323.3 237.6 324 236.4 324.6 235.1C324.9 234.5 325.2 233.9 325.5 233.3L326.3 231.4C327.4 228.9 328.5 226.3 329.6 223.7C330.5 221.1 331.5 218.4 332.4 215.8L333.1 213.8C333.3 213.1 333.5 212.4 333.7 211.8C334.1 210.4 334.5 209.1 334.8 207.7C335.2 206.3 335.6 204.9 335.9 203.6C336.2 202.2 336.5 200.8 336.8 199.4C337.1 198 337.4 196.6 337.7 195.1L338.1 193L338.4 190.8C338.8 187.9 339.1 185 339.5 182.1C339.6 180.6 339.7 179 339.5 177.3C339.3 175.6 338.8 173.7 337.6 172C336.4 170.3 334.6 169 332.7 168.5C330.8 167.9 328.9 167.9 327.1 168.2C325.3 168.5 323.7 169 322.1 169.7C321.7 169.9 321.3 170.1 320.9 170.3L319.9 170.9L317.8 172.1C315.1 173.9 312.6 176 310.5 178.5C308.4 180.9 306.4 183.5 304.8 186.2C303.9 187.5 303.2 188.9 302.4 190.3C301.7 191.7 300.9 193.1 300.2 194.5C297.4 200.1 295.1 205.8 292.5 211.3C291.9 212.7 291.2 214.1 290.5 215.3C289.9 216.5 289.1 217.7 288.3 218.8C287.5 219.9 286.5 220.9 285.6 221.9C284.6 222.8 283.6 223.6 282.5 224.2C281.4 224.8 280.4 225.1 279.5 225.2C278.6 225.2 277.8 225.1 276.9 224.6C276.1 224.2 275.5 223.5 274.9 222.7C274.4 221.8 274 220.7 273.8 219.4C273.3 216.8 273.4 213.9 273.7 210.8C273.8 209.2 274 207.5 274.1 205.9C274.2 204.3 274.3 202.6 274.4 201C275.1 190.7 275.3 180.3 275 169.7C275.7 167.3 276.6 164.5 277.7 161.4C278.6 159.1 279.4 156.5 280.1 153.7C280.9 150.9 281.6 147.8 282.5 144.6C283.4 141.4 284.5 138.5 285.8 135.9C287.1 133.4 288.6 130.9 290 128.7C292.8 124.2 295.3 120.4 297.6 117.3C299.8 114.2 302.4 110.7 305.4 107.1C308.4 103.6 312 99.7998 316.1 96.0998C320.2 92.3998 324.3 89.0998 328.3 86.7998C330.3 85.5998 332.3 84.6998 334.2 83.9998C336.1 83.3998 337.8 83.0998 339.1 83.1998C339.5 83.1998 339.8 83.2998 340 83.2998C340.3 83.3998 340.5 83.3998 340.7 83.4998C341.1 83.5998 341.5 83.6998 341.9 83.7998C341.7 83.9998 341.5 84.0998 341.3 84.2998C338.9 86.4998 337.2 88.6998 335.9 90.4998C334.6 92.2998 333.1 94.2998 331.5 96.4998C329.9 98.6998 328.1 101.1 326.2 103.8C322.4 109.1 319.1 114.1 316.3 118.6C315.9 119.2 315.6 119.7 315.4 120.1C314 123.1 314.2 124.7 315.9 124.9C317.6 125.1 319.4 123.9 321.1 121.4C323.5 118 326.1 114.2 329 110.2C330.5 108.2 332 106.1 333.6 103.9C335.2 101.7 336.9 99.4998 338.6 97.0998C340.3 94.6998 342 92.2998 343.9 90.1998C344.8 89.1998 345.8 88.1998 346.9 87.2998C348 86.4998 349.1 85.6998 350.4 85.0998C351.6 84.4998 353 83.8998 354.3 83.4998C355.6 83.0998 356.8 82.9998 357.6 83.0998C357.8 83.0998 357.9 83.1998 358.1 83.1998C358.2 83.1998 358.2 83.2998 358.3 83.2998C358.4 83.2998 358.3 83.2998 358.4 83.3998C358.4 83.4998 358.8 83.7998 359.3 84.1998C360.3 85.0998 361.4 86.2998 362.4 87.4998C362.9 88.0998 363.4 88.5998 363.8 88.9998C364.1 89.2998 364.4 89.4998 364.6 89.6998C362.8 91.4998 361.3 93.0998 360 94.5998C356.9 98.1998 353.3 102.8 349.3 108.6C345.3 114.4 342.1 119.9 339.5 125C339.1 125.7 338.8 126.3 338.7 126.7C337.5 130 337.8 131.7 339.6 131.7C341.4 131.7 343 130.3 344.6 127.4C349 119.8 354.7 110.9 362.3 101.5C364.2 99.0998 366.2 96.6998 368.4 94.4998C370.6 92.2998 372.9 90.1998 375.5 88.6998C376.8 87.9998 378.1 87.2998 379.5 86.8998C380.8 86.4998 382.1 86.2998 383.5 86.2998C386.2 86.2998 388.9 87.0998 390.6 88.4998C389.7 89.5998 388.8 90.5998 387.9 91.5998C382.1 98.3998 376.4 105.5 370.9 112.9C367.7 117.2 365 121.2 362.5 125C357.7 132.5 354.9 137.6 353.9 140.1C352.9 142.6 353.7 142.5 356.2 139.9C361.2 134.7 368.7 124.3 380 109.7C383.2 105.5 387.1 100.9 391.5 95.6998C393.7 93.1998 396 90.3998 398.7 87.7998C400.1 86.4998 401.5 85.1998 403.2 84.1998C404 83.6998 404.9 83.1998 405.8 82.7998C406.7 82.3998 407.7 82.0998 408.7 81.8998C410.7 81.4998 412.9 81.6998 414.9 82.3998C416.9 83.0998 418.8 84.3998 419.8 86.2998C420.9 88.1998 420.9 90.4998 420.4 92.6998C419.9 94.8998 418.9 97.0998 417.9 99.2998C415.8 103.7 413 107.9 409.9 112.1C406.8 116.3 403.3 120.5 399.7 124.9C390.4 136.3 381.8 148.4 374.1 160.9C370.2 167.2 366.5 173.6 363 180.1C362.6 180.9 362.1 181.8 361.7 182.7C361.6 182.9 361.5 183.1 361.4 183.4L361 184.3C360.8 184.9 360.6 185.5 360.4 186.1C359.6 188.5 359.2 190.9 359.2 193.2C359.2 195.4 359.7 197.5 360.7 199.4C360.9 199.9 361.2 200.3 361.5 200.8C361.8 201.3 362.1 201.8 362.4 202.2H363.3C363.6 202.2 363.9 202.3 364.3 202.3L369.5 198.1L374.7 193.7L378.5 190.5C379.7 189.5 380.9 188.5 382.2 187.6C384.2 186 386.3 184.5 388.5 182.9C390.7 181.3 393 179.8 395.6 178.4C398.1 177 400.9 175.7 403.9 175.1C405.4 174.7 407 174.6 408.6 174.6C410.2 174.6 411.8 174.9 412.3 175.4C412.6 175.6 412.8 176 413 176.3C413.2 176.7 413.3 177.2 413.4 177.8C413.4 178.4 413.4 179 413.2 179.6C413.1 179.9 413 180.2 412.9 180.5C412.8 180.8 412.6 181.2 412.4 181.5C411.6 182.8 410.2 184.2 408.6 185.6C407.8 186.3 406.8 187.1 405.9 187.8C405 188.6 404 189.3 403 190.1C399.1 193.2 394.9 196.5 390.6 200.4C388.5 202.3 386.4 204.5 384.4 206.8C382.4 209.1 380.5 211.6 378.8 214.3C376 218.8 374 223.6 372.5 228.3C371 233.1 369.9 238 369.4 242.9C368.3 252.7 369.1 262.5 371.9 271.6L372.4 273.3L372.7 274.1L373 275C373.5 276.1 373.9 277.3 374.4 278.4C374.9 279.5 375.5 280.6 376.1 281.6C376.4 282.1 376.7 282.7 377 283.2L378 284.7L379 286.2L379.5 286.9L380.1 287.6C380.8 288.5 381.6 289.4 382.3 290.3C383.1 291.2 383.9 292 384.7 292.8L385.9 294C386.3 294.4 386.7 294.8 387.2 295.2C388 296 388.9 296.7 389.7 297.5C390.6 298.2 391.5 298.9 392.3 299.6L393.6 300.6L395 301.5C395.9 302.1 396.8 302.7 397.7 303.3C401.4 305.6 405.1 307.7 408.9 309.4C411 310.4 413 311.2 414.7 311.9C416.4 312.6 418 313.1 419.3 313.6C424.2 315.1 428.5 316.1 432.1 316.6C433 316.8 433.8 316.9 434.6 317C435.4 317.1 436.1 317.2 436.7 317.3C436.8 317.3 436.8 317.3 436.9 317.3C436.9 317.4 436.9 317.5 436.9 317.7C436.9 317.8 436.9 317.9 436.9 317.9C436.9 318 436.9 318.1 436.9 318.2C437 318.3 437.1 318.5 437.3 318.7C436.1 324.1 435.4 329.5 434.9 335C433.9 346 433.9 357.2 434 368.4C434.2 379.6 434.5 391 435 402.6C435.1 404.7 435.2 406.9 435.3 409C433.2 407.5 429.8 406.4 425.3 405.2ZM549.9 404.9C548.8 404.4 547.4 403.9 545.7 403.5C533.9 400.5 519.7 397.1 503 393.3C494.7 391.4 485.7 389.4 476.2 387.3C466.6 385.2 456.5 383 445.7 380.6C444.4 380.3 443.1 380.1 441.8 380.1C441.3 380.1 440.8 380.1 440.3 380.1C440.1 371.6 440 363.5 440.1 355.7C442.1 356.7 445 357.2 448.8 357.4C454.4 357.7 463.3 358.2 475.3 358.9C487.3 359.7 496.8 360.4 503.8 360.9C510.8 361.5 519.4 362.2 529.7 363C540 363.9 549.3 364.7 557.6 365.4C558.2 365.5 558.8 365.5 559.3 365.5C555.5 378.9 552.2 392 549.9 404.9ZM560.9 360.2C560.1 360 559.2 359.9 558.2 359.8C545 358.3 529.2 356.7 510.6 355.2C492 353.8 470.7 352.5 446.6 351.8C445.2 351.8 443.9 351.8 442.7 351.9C441.7 352 440.8 352.1 440.1 352.2C440.3 341.8 441 332 442.7 323C442.9 322.2 443 321.4 443.2 320.5C444.7 320.8 446.5 320.9 448.4 321C454.4 321.2 463.7 321.5 476.5 322.1C489.3 322.7 499.3 323.3 506.8 323.8C514.2 324.3 523.3 325 534.1 326C544.9 327 554.7 328.2 563.3 329.5C564.5 329.7 565.5 329.8 566.2 329.9C567.7 330 569 330.1 570 330.1C569.6 331.3 569.2 332.6 568.9 333.8C566.2 342.7 563.5 351.5 560.9 360.2ZM573.1 319.1C572.6 321.4 572 323.7 571.3 326.1C569.8 325.2 567.5 324.4 564.4 323.8C550.6 321.2 533.8 319.3 514 318C494.3 316.6 471.6 315.8 446.1 315.5C445.5 315.5 445 315.5 444.5 315.5C445.1 313.3 445.7 311.2 446.4 309.2C447.1 307 448 305 448.8 303C449.3 302 449.7 301 450.2 300.1C450.4 299.6 450.7 299.1 450.9 298.7L451.4 297.8L451.8 297L451.9 296.9H452H452.2H452.7C453.5 296.8 454.3 296.8 455 296.7C457.1 296.5 459.1 296.4 461.1 296.2C465.1 295.9 468.9 295.7 472.6 295.5C487.2 294.7 503.6 294.4 521.7 295C530.7 295.3 540.2 295.8 550 296.6C552.5 296.8 554.9 297 557.4 297.2C559.8 297.4 562.2 297.7 564.2 298.3C566.3 298.9 568 299.7 569.4 301C570.8 302.2 571.9 303.9 572.6 305.9C573.3 307.9 573.7 310.1 573.8 312.2C573.8 314.5 573.6 316.8 573.1 319.1Z" fill="black"/>
<path d="M278.9 388.1C278.8 387.2 278.7 386.3 278.5 385.5C277.9 382.4 276.9 381.6 275.5 383.1C274.1 384.6 273.5 387 273.7 390.3C273.9 394.1 274.2 400.1 274.7 408.4C275.3 416.6 275.8 423.1 276.2 427.9C276.6 432.7 277.1 438.6 277.8 445.6C278.5 452.6 279.3 459 280.1 464.7C280.2 465.5 280.3 466.1 280.4 466.6C281.2 470 282.4 471.2 283.9 470.3C285.4 469.3 286 467.2 285.7 463.8C284.1 445.7 281.4 420.5 278.9 388.1Z" fill="black"/>
<path d="M257 395.9C255.3 396.5 254.1 398 253.4 400.3C252.6 402.9 251.2 407 249.4 412.6C247.5 418.2 245.901 422.5 244.8 425.7C243.601 428.9 242.2 432.8 240.4 437.5C238.6 442.2 237.001 446.4 235.601 450.1C235.401 450.6 235.201 451 235.101 451.4C234.601 453.8 235.1 455 236.8 455C238.5 455 239.9 453.9 240.9 451.7C246.3 439.9 252.801 422.9 259.101 400.2C259.301 399.5 259.4 398.9 259.4 398.3C259.5 396.1 258.7 395.3 257 395.9Z" fill="black"/>
<path d="M419.2 120.3C417 122.3 416.9 123.6 418.8 124C420.7 124.5 423 123.9 425.6 122.2C428.6 120.3 433.4 117.2 439.8 113C446.3 108.8 451.4 105.5 455.1 103.1C458.9 100.6 463.5 97.5998 469 93.9998C474.5 90.3998 479.4 87.0998 483.9 83.9998C484.5 83.5998 485 83.1998 485.4 82.9998C487.9 80.8998 488.4 79.2998 486.9 78.3998C485.4 77.4998 483.3 77.8998 480.7 79.4998C466.3 88.2998 446.5 101.4 421.3 118.7C420.4 119.3 419.8 119.8 419.2 120.3Z" fill="black"/>
<path d="M480 131C481.7 130.5 482.2 129.4 481.5 127.9C480.8 126.4 479.6 125.6 477.9 125.6C468.6 125.8 455.5 127.1 438.9 131.3C438.4 131.4 438 131.6 437.6 131.8C436.1 132.6 436 133.6 437.2 134.8C438.4 136 439.8 136.5 441.5 136.1C443.4 135.7 446.5 135.2 450.7 134.5C454.9 133.8 458.1 133.4 460.6 133.1C463 132.8 466 132.4 469.5 132.1C473 131.7 476.2 131.4 479.1 131.1C479.4 131.1 479.7 131.1 480 131Z" fill="black"/>
<path d="M74.1007 18.5998C77.4007 22.7998 81.0007 27.2998 84.7007 32.2998C92.0007 42.2998 99.9007 54.0998 107.501 67.8998C108.001 68.6998 108.401 69.3998 108.901 69.9998C110.701 72.4998 112.001 72.7998 112.601 70.8998C113.301 68.9998 112.901 66.5998 111.301 63.6998C109.601 60.2998 106.701 55.0998 102.501 48.0998C98.3007 41.0998 94.6007 35.7998 91.9007 31.8998C89.2007 27.9998 85.7007 23.1998 81.2007 17.7998C76.8007 12.2998 72.5007 7.49977 68.6007 3.29977C68.1007 2.69977 67.6007 2.29977 67.2007 1.89977C64.5007 -0.400234 62.8007 -0.700234 62.2007 0.999766C61.6007 2.69977 62.4007 4.69977 64.6007 7.19977C67.6007 10.6998 70.7007 14.3998 74.1007 18.5998Z" fill="black"/>
<path d="M96.5006 77.1999C93.3006 75.0999 90.5006 73.7999 88.4006 72.8999C86.3006 71.9999 83.5006 71.0999 80.1006 70.4999C76.7006 69.8999 73.4006 69.6999 70.5006 69.7999C70.1006 69.7999 69.8006 69.7999 69.5006 69.8999C67.8006 70.3999 67.3006 71.3999 68.0006 72.9999C68.7006 74.4999 69.8006 75.2999 71.4006 75.3999C73.5006 75.5999 75.7006 75.7999 78.1006 76.2999C80.5006 76.7999 82.9006 77.3999 85.5006 78.2999C90.5006 80.0999 95.9006 82.9999 100.501 87.3999C100.801 87.5999 101.001 87.8999 101.301 87.9999C102.401 88.4999 103.201 88.0999 103.801 86.4999C104.301 84.9999 104.101 83.4999 103.001 82.4999C101.601 81.0999 99.6006 79.2999 96.5006 77.1999Z" fill="black"/>
<path d="M62.7004 179.5C65.3004 182 68.5004 183.4 71.5004 184.1C74.5004 184.8 77.3004 185 79.9004 185C82.5004 185 84.8004 184.8 87.0004 184.6C89.1004 184.3 91.3004 184.1 93.8004 183.6C96.3004 183.1 99.2004 182.2 101.9 180.2C104.5 178.2 106.6 175.4 107.9 172.3C108.6 170.7 109.1 169.1 109.4 167.4C109.8 165.7 109.9 163.9 109.9 162.1C109.9 154.8 107.1 147.9 102.3 142.9C100 140.4 97.1004 138.4 94.2004 137C91.2004 135.6 88.1004 134.7 85.1004 134.4C84.2004 134.3 83.5004 134.2 82.8004 134.2C82.1004 134.2 81.5004 134.2 81.0004 134.2C77.2004 134.5 74.6004 135.6 73.3004 136.5C72.0004 137.5 71.9004 138.2 72.8004 138.7C73.3004 139 73.8004 139.1 74.5004 139.2C75.2004 139.3 76.0004 139.4 77.0004 139.4C78.9004 139.5 81.3004 139.5 84.3004 139.9C88.2004 140.4 92.2004 142 95.6004 144.6C99.0004 147.2 101.5 150.9 102.9 155.2C104.3 159.4 104.4 164.3 102.9 168.6C102.1 170.8 101 172.8 99.4004 174.4C97.8004 176 95.9004 176.9 93.5004 177.5C92.3004 177.8 91.1004 178 89.7004 178.2C88.4004 178.4 87.0004 178.6 85.6004 178.7C82.9004 179 80.1004 179.2 77.5004 179C76.2004 179 74.9004 178.8 73.6004 178.5C72.4004 178.2 71.2004 177.9 70.1004 177.4C69.0004 176.9 68.0004 176.3 67.2004 175.6C66.4004 174.9 65.6004 174.1 65.1004 173.1C63.9004 171.2 63.2004 168.6 63.0004 166C62.8004 163.4 63.1004 160.7 64.0004 158.3C64.8004 155.9 66.2004 153.6 68.0004 152C69.8004 150.4 72.1004 149.2 74.5004 148.6C75.6004 148.3 76.6004 148.2 77.6004 148.1C78.1004 148 78.5004 148.1 78.9004 148C79.3004 148 79.6004 148 79.9004 148C80.2004 148 80.5004 148 80.7004 147.9C80.9004 147.9 81.1004 147.8 81.3004 147.8C82.0004 147.5 82.1004 146.9 81.5004 145.9C80.9004 144.9 79.6004 144 77.8004 143.6C76.0004 143.2 73.5004 143.2 70.8004 144.1C69.3004 144.6 67.6004 145.4 65.9004 146.7C64.2004 147.9 62.5004 149.6 61.0004 151.8C58.1004 156.2 56.3004 162.7 57.8004 170.1C58.4004 173.6 60.1004 177.1 62.7004 179.5Z" fill="black"/>
<path d="M414.201 17.3998C416.001 17.3998 417.501 16.1998 419.701 14.7998C421.201 13.8998 422.901 13.1998 424.701 12.9998C426.501 12.7998 428.401 12.9998 430.001 13.7998C431.601 14.5998 432.901 15.7998 433.501 17.3998C433.801 18.1998 433.901 18.9998 433.901 19.8998C433.901 20.7998 433.801 21.6998 433.501 22.4998C433.201 23.2998 432.801 24.0997 432.301 24.7997C431.801 25.3997 431.201 25.8998 430.601 26.1998C430.301 26.2998 430.001 26.3997 429.701 26.3997C429.401 26.4998 429.001 26.4998 428.601 26.4998C427.801 26.4998 426.901 26.2997 425.901 25.9998C424.001 25.3997 422.301 24.2998 421.601 23.0998C421.401 22.7998 421.301 22.4998 421.201 22.2998C421.101 22.0998 421.201 22.0998 421.201 21.9998C421.201 21.8998 421.201 21.7998 421.201 21.6998C421.201 21.2998 421.401 20.7998 421.601 20.6998C421.701 20.5998 421.701 20.5998 421.701 20.5998C421.601 20.5998 421.501 20.2998 421.301 19.8998C421.101 19.4998 420.901 18.8998 420.301 18.3998C419.701 17.7998 418.901 17.5998 418.201 17.7998C417.401 17.9998 416.601 18.6997 416.301 19.7998C415.901 20.9998 415.501 22.8998 416.401 25.0998C417.201 27.1998 419.301 29.3997 422.201 30.8997C423.701 31.5998 425.201 32.0998 426.701 32.3998C428.201 32.6998 429.801 32.6998 431.301 32.3998C432.801 32.0998 434.201 31.3997 435.301 30.4998C436.401 29.5998 437.301 28.6998 437.901 27.6998C439.201 25.7998 440.101 23.2998 440.201 20.2998C440.301 18.7998 440.001 17.1998 439.401 15.4998C438.801 13.7998 437.701 12.0998 436.201 10.6998C434.701 9.29975 432.901 8.29975 431.101 7.79975C429.301 7.19975 427.501 6.99975 425.701 7.09975C424.001 7.19975 422.301 7.49975 420.701 8.09975C419.101 8.59975 417.701 9.49975 416.301 10.4998C415.601 11.0998 415.001 11.5998 414.601 11.9998C414.301 12.3998 414.001 12.7998 413.701 13.1998C413.501 13.5998 413.301 13.9998 413.101 14.2998C412.801 14.9998 412.701 15.5998 412.701 16.0998C412.801 16.9998 413.301 17.3998 414.201 17.3998Z" fill="black"/>
<path d="M447 231.1C447.4 230.4 447.5 229.9 447.4 229.4C447.3 228.9 446.9 228.4 446.1 228.1C445.7 227.9 445.2 227.9 444.8 227.9C444.3 227.9 443.8 228.1 443.4 228.3C442.5 228.8 441.5 229.8 440.9 231.2C440.2 232.8 439.5 235.1 439.8 238C440 239.5 440.4 241.1 441.3 242.6C442.2 244.1 443.5 245.7 445.3 246.9C447.1 248.1 449.1 248.8 451 249.2C452.9 249.6 454.8 249.6 456.5 249.5C460 249.2 462.9 248 465.2 246.6C465.8 246.3 466.3 245.8 466.9 245.4C467.5 245 468 244.4 468.6 243.9C469.7 242.8 470.7 241.5 471.6 239.9C472.5 238.2 473.1 236 473 233.7C472.9 231.4 472.2 229.1 471 227.1C469.8 225.1 468.3 223.4 466.6 222.1C465.7 221.4 464.8 220.8 463.9 220.3C462.9 219.8 461.9 219.4 461 219.1C457.2 217.8 453.6 217.7 450.5 217.7C449.6 217.7 449 217.8 448.5 217.8C444.9 218.4 443.8 219.5 444.6 221C445.5 222.5 447.5 223.2 450.8 223.2C453 223.3 455.3 223.5 457.6 224.1C459.9 224.7 462.1 225.7 463.8 227.4C465.5 229 466.9 231.2 467.1 233.4C467.3 235.6 466.3 237.6 464.5 239.4C462.8 241.2 460.4 242.4 457.9 243.1C456.6 243.4 455.3 243.6 454 243.5C452.7 243.4 451.4 243.3 450.3 242.8C449.2 242.4 448.2 241.8 447.4 241C446.7 240.2 446.1 239.3 445.8 238.4C445.1 236.5 445.4 233.9 446.6 232.1C446.6 231.9 446.8 231.5 447 231.1Z" fill="black"/>
<path d="M354.701 417.2C354.601 416.6 354.501 416 354.301 415.4C353.601 413.1 352.301 411.1 350.901 409.6C349.401 408 347.701 406.8 345.901 405.9C345.001 405.4 344.001 405.1 343.001 404.8C342.001 404.6 341.001 404.3 339.901 404.3C338.701 404.2 337.701 404.4 337.001 404.5C335.601 404.8 334.501 405.3 333.701 405.9C333.301 406.2 333.001 406.4 332.701 406.6C331.401 407.1 330.001 408 328.701 409.4C327.701 410.4 326.901 411.8 326.401 413.4C325.801 415 325.501 416.8 325.601 418.8C325.701 422.8 327.301 426.4 329.601 429C330.801 430.3 332.101 431.3 333.501 432C334.901 432.7 336.401 433.1 337.801 433.3C339.201 433.5 340.601 433.4 342.101 433.2C343.601 432.9 345.201 432.4 346.701 431.6C348.201 430.8 349.701 429.7 351.101 428.3C352.401 426.8 353.601 424.9 354.301 422.6C354.501 422 354.601 421.5 354.701 420.9C354.801 420.3 354.901 419.7 354.801 419.1C354.801 418.5 354.801 417.8 354.701 417.2ZM346.901 423.9C345.501 425.5 343.401 426.8 341.201 427.2C340.101 427.4 339.001 427.5 337.901 427.2C336.901 427 336.001 426.6 335.101 426C333.401 424.8 332.201 422.8 331.601 420.5C331.001 418.2 331.301 415.7 332.301 413.9C332.401 413.6 332.501 413.5 332.601 413.4C332.701 413.2 332.901 413.1 333.001 412.9C333.301 412.6 333.701 412.3 334.101 412C334.901 411.5 335.801 411.2 336.301 411.3C336.401 411.3 336.501 411.3 336.501 411.3C336.501 411.3 336.501 411.3 336.601 411.1C336.601 411.3 336.501 411.4 336.601 411.2C336.601 411.2 336.601 411.2 336.601 411.1C336.601 411 336.601 411 336.701 411C336.701 411 336.701 411 336.701 411.1C336.801 411 336.901 410.9 337.101 410.7C337.301 410.5 337.501 410.3 337.801 410C338.401 410 339.101 410 339.801 410.1C341.901 410.3 344.001 411.2 345.601 412.7C347.201 414.1 348.601 416 348.801 418.2C349.001 420 348.301 422.2 346.901 423.9Z" fill="black"/>
</g>
<defs>
<clipPath id="clip0_561_638">
<rect width="579.9" height="471.8" fill="white"/>
</clipPath>
</defs>
</svg>
