<svg width="137" height="137" viewBox="0 0 137 137" fill="none" xmlns="http://www.w3.org/2000/svg">
<path d="M123.632 70.027L78.4467 63.1943C76.0617 62.8076 74.1924 60.8738 73.8056 58.5533L67.0374 13.3675C66.7796 11.4982 65.297 10.209 63.4277 10.209C61.5584 10.209 60.0758 11.5626 59.818 13.3675L52.9853 58.5533C52.5986 60.9383 50.6648 62.8076 48.3443 63.1943L3.15849 70.027C1.28918 70.2848 0 71.7674 0 73.6367C0 75.506 1.35364 76.9886 3.15849 77.2464L48.3443 84.0146C50.7293 84.4014 52.5986 86.3351 52.9853 88.6556L59.7535 133.841C60.0114 135.711 61.4939 137 63.3632 137C65.2326 137 66.7151 135.646 66.973 133.841L73.7412 88.6556C74.1279 86.2707 76.0617 84.4014 78.3822 84.0146L123.568 77.2464C125.437 76.9886 126.726 75.506 126.726 73.6367C126.791 71.7674 125.502 70.2204 123.632 70.027ZM77.6732 78.9223C73.0966 79.6314 69.4224 83.3055 68.7133 87.8821L63.4277 123.077L58.1421 87.8177C57.433 83.3055 53.7589 79.6314 49.1823 78.8579L13.9876 73.5722L49.2467 68.2866C53.7589 67.5775 57.433 63.9034 58.2065 59.3268L63.4922 24.1321L68.7778 59.3912C69.4869 63.9034 73.161 67.5775 77.7376 68.351L112.932 73.6367L77.6732 78.9223Z" fill="#F5F5F5"/>
<path d="M136.976 30.9649C136.782 29.5468 135.686 28.451 134.268 28.322L113.061 25.1635C112.481 25.0991 112.094 24.6479 111.965 24.1322L108.614 2.60288L108.549 2.34504C108.162 0.798027 106.68 -0.168858 105.133 0.0245188C103.715 0.217896 102.619 1.3137 102.49 2.7318L99.3315 23.9388C99.267 24.519 98.8158 24.9057 98.3002 25.0346L76.8998 28.2576L76.6419 28.322C75.0949 28.7088 74.128 30.1914 74.3214 31.7384C74.5148 33.1565 75.6106 34.2523 77.0287 34.3812L98.2357 37.5397C98.8158 37.6041 99.2026 38.0554 99.3315 38.571L102.554 59.9714L102.619 60.2293C103.006 61.6474 104.23 62.6143 105.648 62.6143C105.777 62.6143 105.906 62.6143 106.035 62.6143C107.453 62.4209 108.549 61.3251 108.678 59.907L111.837 38.6999C111.901 38.3132 112.417 37.862 113.061 37.7331L134.397 34.5746L134.655 34.5101C136.138 33.9944 137.169 32.5119 136.976 30.9649ZM112.223 32.5119C109.452 32.9631 107.196 35.0902 106.744 37.6686L105.584 45.2748L104.424 37.6686C103.973 34.8969 101.91 32.8342 99.0737 32.3185L91.532 31.2872L99.1381 30.1269C101.91 29.6757 103.973 27.613 104.488 24.7768L105.648 16.9772L106.873 24.9702C107.324 27.7419 109.452 29.8046 112.223 30.3203L119.765 31.4805L112.223 32.5119Z" fill="#F5F5F5"/>
<path d="M50.1486 104.835L34.6784 102.514H34.5495C34.4851 102.514 34.4851 102.514 34.4851 102.45L32.1001 86.9153C31.9712 85.4327 30.7464 84.2725 29.1994 84.2725C27.6524 84.2725 26.4277 85.3683 26.2988 86.9153L23.9782 102.385V102.514C23.9782 102.579 23.9782 102.579 23.9138 102.579L8.37915 104.835C6.89659 104.964 5.73633 106.189 5.73633 107.736C5.73633 109.283 6.83213 110.507 8.37915 110.636L23.8493 112.957H23.9782C24.0427 112.957 24.0427 112.957 24.0427 113.021L26.4277 128.556C26.5566 130.038 27.7813 131.199 29.3283 131.199C30.8754 131.199 32.1001 130.103 32.229 128.556L34.5495 113.086V112.957C34.5495 112.892 34.5495 112.892 34.614 112.892L50.2131 110.507C51.6956 110.378 52.8559 109.154 52.8559 107.607C52.8559 106.06 51.6312 104.964 50.1486 104.835ZM34.0339 107.864C31.5844 108.122 29.7151 109.992 29.4573 112.441L29.3283 113.408L29.1994 112.441C28.8771 110.056 27.0723 108.187 24.6228 107.864L23.5915 107.736L24.6228 107.607C27.0078 107.284 28.8771 105.479 29.1994 103.03L29.3283 102.063L29.4573 103.03C29.7151 105.415 31.5844 107.284 34.0339 107.607L35.0007 107.736L34.0339 107.864Z" fill="#F5F5F5"/>
</svg>
