<svg width="736" height="370" viewBox="0 0 736 370" fill="none" xmlns="http://www.w3.org/2000/svg">
<path d="M350.4 129.1C348.5 130.7 346.8 133.9 345.5 138.8C344 144.4 341.6 153.2 339 165.4C337.7 171.5 336.8 177 336.1 182C335.4 186.9 335 191.2 334.6 194.8C334.2 198.4 333.8 202.4 333.1 206.6C332.7 209.3 332.1 212 331.3 214.8C331.3 214.6 331.3 214.5 331.3 214.3C331.3 210.2 330.6 207 329.9 204.7C329.9 204.6 329.9 204.6 329.8 204.5C330 203.1 330.1 201.8 330.3 200.4C330.4 199.5 330.5 198.6 330.6 197.8L330.7 196C330.9 193.6 331 191.2 331.2 188.8C331.4 184 331.3 179 331.1 174C330.5 164 328.9 153.6 326 143.2C324.5 138 322.8 132.8 320.6 127.7C318.4 122.6 315.9 117.5 313 112.5C307.2 102.6 299.9 92.9996 291.1 84.5996C288.7 82.3996 286.4 80.3996 284.2 78.7996C283.7 78.3996 283.1 77.9996 282.6 77.5996C282.1 77.2996 281.6 76.8996 281.1 76.5996C280.2 75.9996 279.3 75.3996 278.6 74.9996C277.9 74.5996 277.3 74.2996 276.8 73.9996C277.1 73.7996 277.3 73.4996 277.6 73.2996C279.8 71.1996 282 68.8996 284 66.2996C286 63.6996 288 60.5996 289.3 57.0996C290.6 53.5996 291.2 49.6996 291.1 46.0996C291 42.4996 290.3 38.9996 289.3 35.6996C287.2 29.1996 283.8 23.4996 279.6 18.5996C275.4 13.6996 270.4 9.79961 264.9 6.89961C262.2 5.39961 259.3 4.29961 256.4 3.39961C253.5 2.49961 250.6 1.89961 247.6 1.49961C244.3 1.09961 241.6 1.19961 239.6 1.39961C236 1.69961 232.9 2.49961 230.5 3.29961C228.1 4.09961 226.3 4.99961 225.1 5.79961C224.8 5.99961 224.6 6.09961 224.3 6.29961C223.4 6.69961 222.5 7.09961 221.5 7.59961C217.8 9.39961 213.5 12.1996 208.9 16.0996C206.2 18.2996 203.3 20.8996 200.1 23.9996C199.3 24.7996 198.5 25.5996 197.7 26.3996C197.3 26.7996 196.9 27.2996 196.5 27.6996C196.1 28.1996 195.7 28.5996 195.3 29.0996C194.9 29.5996 194.5 30.0996 194.1 30.5996C193.7 31.0996 193.3 31.5996 192.9 32.1996C192.1 33.1996 191.3 34.3996 190.5 35.5996C190.1 36.1996 189.8 36.8996 189.4 37.4996L189.1 37.9996C189.1 38.0996 189 38.1996 189 38.1996H189.3C189.6 38.1996 190 38.0996 190.3 38.0996C191.7 37.8996 193.1 37.6996 194.6 37.4996C197.5 37.0996 200.8 36.5996 204.3 36.0996C207.4 35.5996 210.7 35.1996 214 34.6996C213.2 35.5996 212.4 36.6996 211.5 37.8996C210 40.0996 208 42.8996 205.6 46.2996C203.2 49.7996 200.4 53.8996 198 59.1996C197.7 59.8996 197.4 60.4996 197.1 61.1996C196.8 61.9996 196.5 62.7996 196.3 63.4996C196 64.2996 195.8 65.0996 195.6 65.8996C195.4 66.6996 195.2 67.4996 195 68.2996C192.7 72.8996 197.5 71.5996 200.1 72.1996C201.6 72.2996 203 72.3996 204.4 72.4996C205.6 72.5996 206 72.6996 206.6 72.7996C207.1 72.8996 207.6 72.9996 208.1 72.9996C208.2 72.9996 208.3 73.1996 208.3 73.2996C208.3 73.3996 208.3 73.5996 208.4 73.6996C208.4 73.8996 208.4 74.1996 208.4 74.3996C208.4 75.3996 208.3 75.7996 208.2 77.9996C208.2 79.8996 208.1 81.7996 208.1 83.9996C208.1 86.0996 208.1 88.3996 208.4 90.7996C208.5 91.3996 208.5 91.9996 208.6 92.6996C208.8 93.6996 209 94.5996 209.3 95.5996C209.9 97.4996 210.8 99.2996 212.3 100.5C213.4 101.4 214.7 101.9 215.7 102.1C217.5 102.4 219.3 102 221.2 101.3L222.5 100.9L223.3 100.7C223.8 100.5 224.3 100.4 224.8 100.2C226.8 99.5996 228.8 98.9996 230.7 98.3996C231.7 98.0996 232.6 97.7996 233.6 97.4996C234.1 97.3996 234.5 97.1996 235 97.0996C235.3 96.9996 235.2 96.9996 235.3 96.9996H235.4C235.5 96.9996 235.5 97.0996 235.5 97.0996V97.1996L235.6 97.2996L235.9 97.4996C236.8 98.1996 237.5 98.7996 238 99.1996C239.2 99.9996 240.1 100.6 241 101C240.4 101.5 239.8 102.1 239.2 102.6C236.4 105.1 233.2 108.2 229.7 112C227.6 111.3 224 111.1 218.9 111.4C209.7 111.9 199.6 112.5 188.5 113.1C177.4 113.7 165.4 114.3 152.5 114.8C147.3 115 141.9 115.2 136.4 115.4C135.9 113.1 135.1 110.5 134.1 107.7C135.7 107.2 136.3 106.5 135.8 105.4C135.3 104.3 134.2 103.5 132.4 103C132.4 102.9 132.3 102.8 132.3 102.7C132.2 102.5 132.1 102.4 132 102.3C131.7 102.1 131.2 102.2 130.6 102.6C130.2 102.5 129.8 102.5 129.4 102.5C110.1 101 82.9 99.5996 47.9 98.3996C47.3 98.3996 46.7 98.3996 46.1 98.3996C44.6 96.0996 43.5 95.7996 42.7 97.4996C42.5 97.9996 42.3 98.4996 42.3 99.0996C41.4 99.5996 41.3 100.3 42.2 101.2L42.3 101.3C42.4 102.3 42.7 103.3 43.2 104.5C43.8 106.2 44.7 108.3 45.6 110.9C45.7 111.3 45.9 111.7 46.1 112.2C46.2 112.5 46.3 112.8 46.4 113.1C46.4 113.2 46.5 113.3 46.6 113.5C47.3 115.5 48.1 117.8 48.9 120.3C51.1 127.5 52.6 133.3 53.7 137.5C54.8 141.7 56 147 57.4 153.2C58.7 159.3 59.8 164.9 60.7 169.9C60.6 170.2 60.7 170.6 60.9 171.1C61 171.5 61 171.8 61.1 172C62 175 63.2 176.1 64.6 175.1C65.2 174.7 65.6 174.2 65.9 173.5C66 173.5 66.2 173.5 66.3 173.5C68.9 173.4 73 173.1 78.6 172.8C84.2 172.5 88.6 172.2 91.8 172C95 171.8 99 171.6 103.7 171.4C105.5 171.3 107.3 171.2 108.9 171.2C108.6 171.6 108.2 171.9 107.8 172.3C107.6 172.5 107.4 172.7 107.2 172.9L107 173.1C107 173.2 107 173.2 106.9 173.2C106.9 173.3 106.8 173.4 106.8 173.5C108.7 174.2 111 175 113.8 175.9C115.2 176.4 116.8 176.8 118.5 177.3C119.3 177.5 120.2 177.7 121 177.9C111.9 177.6 102.2 177.5 91.9 177.4C79.9 177.3 67.1 177.3 53.4 177.3C46.6 177.3 39.5 177.3 32.2 177.4C24.9 177.4 17.4 177.4 9.9 177.3C8.1 177.3 6.5 177.3 5.1 177.3C3.7 177.3 2.5 177.4 1.7 177.5C0.9 177.6 0.4 177.7 0.6 177.9C0.5 178.1 0.4 178.3 0.3 178.6C0 178.6 0 178.8 0 179C0 179.1 0 179.2 0 179.3C0 179.4 0 179.5 0 179.6C0.2 180 0.9 180.5 1.7 180.8C2.5 181.2 3.4 181.5 4.5 181.7C6.6 182.2 9.3 182.5 12.5 182.6C19.7 182.8 31.1 183 46.6 183.1C62.1 183.2 74.4 183.3 83.4 183.4C92.4 183.5 103.6 183.6 116.8 183.9C130 184.2 142 184.5 152.7 185.1C154.2 185.2 155.4 185.2 156.3 185.3C161.1 185.3 163.9 184.9 164.5 184C168.9 184.6 173.6 185.1 178.4 185.7C183.9 186.3 189.5 187.2 195.9 187.6C199.1 187.8 202.3 187.8 205.7 187.3C209 186.9 212.4 186 215.5 184.5C218.6 183.1 221.3 181.2 223.7 179.1C226.1 177.1 228.2 174.9 230.1 172.7C232 170.5 233.7 168.3 235.4 166.2C237.1 164 238.7 161.9 240.2 159.7C243.3 155.4 246.2 151.1 248.9 146.8C250.4 144.4 251.5 142.5 252.4 141.1C255.4 135.7 257.1 131.7 257.9 129.3C258.6 126.9 258.4 126 257.1 126.6C254.6 127.8 250.8 133.6 244.6 143.3C239.4 151.3 233.5 159.5 226.6 167.7C223.1 171.7 219.3 175.7 214.4 178.3C209.6 181 204 181.8 198.1 181.6C192.3 181.4 186.2 180.5 179.9 179.7C173.7 178.9 167.3 178.1 160.7 177.3C157.6 176.9 154.5 176.5 151.3 176.1C150.8 176 150.4 176 150 175.8C149.6 175.6 149.2 175.3 149.1 174.9C149 174.5 149.1 174 149.1 173.5L149.2 172.8L149.3 171.9C149.8 168.5 150.3 165 150.9 161.5C151.2 159.7 151.4 158 151.7 156.2L151.8 155.7L151.9 155.4L152 154.8L152.2 153.7C152.7 153.7 153.1 153.7 153.6 153.7H154.3L155.8 153.6C158 153.5 160.2 153.4 162.4 153.3C166.9 153.1 171.4 152.9 176 152.7C180.6 152.5 185.3 152.3 190 152.1C192.4 152 194.8 151.9 197.2 151.8C198.4 151.7 199.6 151.7 200.8 151.6C202 151.5 203.2 151.6 205.4 151.1C207.5 150.6 209.5 149.4 210.9 147.7C212.2 146.2 212.9 144.8 213.5 143.8C214.7 141.7 215.9 139.7 217.2 137.6C219.8 133.5 222.6 129.5 225.7 125.6C231.8 117.7 238.8 110.3 246.6 103.5C249 101.4 251.4 99.2996 253.5 97.0996C255.6 94.7996 257.2 92.5996 258.3 90.5996C259.4 88.5996 259.8 86.9996 260 85.8996C260.1 84.8996 260 84.3996 259.7 84.3996C260.7 84.1996 261.6 83.9996 262.6 83.5996C267.4 81.8996 271.5 78.9996 275.3 75.7996C278.1 79.3996 283.7 84.3996 291 91.9996C295.3 96.4996 300.5 102.7 305.7 110.9C310.9 119.1 316.1 129.5 319.9 142.2C321.3 147.1 322.5 152 323.4 157C324.3 162 324.9 167.1 325.2 172.1C325.6 177.2 325.7 182.2 325.5 187.3C325.5 188.6 325.4 189.8 325.3 191.1C325.2 192.4 325.2 193.6 325 194.9L324.8 196.8L324.7 197.6L324.6 198.1L324.3 200.1L324.2 200.8C324.1 201.2 324.1 201.5 324 202V202.2C324 202.3 324 202.3 324 202.2C324 202.1 323.9 201.9 323.8 201.8C323.7 201.5 323.5 201.3 323.2 201.1C322.7 200.7 322.2 200.4 321.2 200.1L320.9 200L320.3 199.9L319.6 199.8L319 199.7C318.2 199.6 317.3 199.5 316.5 199.4C314.8 199.2 313 199.1 311.2 199C309.4 198.9 307.5 198.9 305.5 198.9C303.6 199 301.6 199 299.6 199.1C291.5 199.5 282.8 200.5 273.7 200.8C268.2 200.9 262.9 200.7 258 199.8C257.4 199.7 256.8 199.5 256.2 199.4L255.3 199.2C255.2 199.2 255.1 199.1 255 199.1L254.4 198.8C254.3 198.8 254.4 198.7 254.4 198.7V198.5L254.5 198.2V198.1C254.5 198.1 254.5 198.1 254.5 198V197.5C254.5 196.8 254.6 196.2 254.6 195.5C255.3 184.9 255.3 174.9 254.7 165.3C254.6 162.6 254.4 160.5 254.2 159C253.5 153.2 252.6 149.2 251.8 146.9C251 144.6 250.3 144.1 249.6 145.3C248.3 147.6 248.5 154.2 249 165.1C249.4 172.6 249.4 180.5 249 188.8C248.9 190.9 248.8 193 248.6 195.1C248.5 196.2 248.4 197.3 248.3 198.4C248.2 199.6 248.1 200.8 248 202.1V202.3C242.2 202.7 234.7 203.8 225.6 205.7C225.5 201.6 225.3 197.4 225.2 193.2C225.1 191.2 225 189.4 224.8 187.7C224.2 181 223.1 179.1 221.7 181.9C220.3 184.7 219.7 189.6 219.8 196.6C219.9 199.5 219.9 202.9 220 206.9C219.2 207.1 218.4 207.3 217.6 207.5C212.4 208.8 206.3 210.3 199.8 212.5C193.3 214.7 186 217.8 179.5 223.5C177.8 225 176.1 226.6 174.5 228.4C174.4 228.5 174.3 228.6 174.2 228.7C172.8 230 171.7 231.5 170.7 233.1C167.8 237 165.2 241.3 162.9 245.9C160.6 250.4 158.6 255.3 156.6 260.3C154.6 265.4 152.7 270.7 150.9 276.2C147.4 286.7 144.6 296.9 142.4 306.7C142 307.6 141.6 308.6 141.4 309.7C141.2 310.7 141.1 311.7 141.1 312.7C140.4 316.2 139.7 319.7 139.1 323.1C138.9 324.3 138.7 325.5 138.5 326.7C138.4 327.3 138.3 327.9 138.2 328.5L138.1 329.4L137.9 330.5C137.7 332 137.5 333.6 137.2 335.1L137.1 335.7V335.8L137.2 335.9L137.5 336.1L138.5 336.7C139.2 337.1 139.8 337.5 140.5 337.9C141.1 338.3 141.7 338.6 142.4 339C142.9 339.3 143.4 339.6 143.9 339.9C144.8 340.4 145.7 340.9 146.5 341.3C146.2 341.3 145.7 341.6 145.1 342.2C143.9 343.3 142.4 344.6 140.5 345.6C138.6 346.7 136.4 347.6 133.9 348.4C130.9 349.4 127.1 350.1 122.4 351.4C121.2 351.7 120 352.1 118.8 352.5C117.5 352.9 116 353.4 114.5 353.9C113 354.4 111.3 355 109.6 355.7C107.9 356.4 106.1 357.1 104.4 357.9C102.7 358.7 101.2 359.5 99.9 360.2C98.5 360.9 97.3 361.7 96.4 362.8C95.9 363.3 95.5 363.9 95.3 364.6C95 365.3 95 366 95.1 366.8V366.9H95.2H95.4H95.7L96.3 367C96.7 367.1 97.1 367.1 97.5 367.2C98.2 367.4 98.9 367.7 99.5 367.9L100 368.1C100 368.1 100.3 368.1 100.4 368.1H100.9C101.5 368.1 102.2 368.2 102.8 368.2C103.4 368.2 104.1 368.3 104.7 368.3C105.3 368.3 106.1 368.3 106.8 368.3C108.3 368.3 109.7 368.2 111.1 368.2C113.9 368.1 116.9 368.1 120.1 368C120.5 368 120.9 368 121.3 368C121.6 368 122 368 122.3 368C122.8 368 123.4 368 124 368C125.1 368 126.3 368 127.4 368C132.1 368.1 137.2 368.2 142.8 368.4C148.4 368.6 153.7 368.9 158.7 369.2C159.3 369.2 160 369.3 160.6 369.3H161.1H161.9C162.5 369.3 163.1 369.3 163.7 369.4C166 369.3 168.2 369.3 170.4 369.2H171.2H171.6C171.7 369.1 171.7 368.9 171.7 368.8C171.8 368.3 172 367.7 172.1 367.2C172.3 366.2 172.6 365.1 172.8 364.1C173.2 362 173.4 359.7 173.4 357.5C173.4 357 173.3 356.5 173.3 356.1C173.3 355.7 173.2 355.4 173.2 355.1C173.1 354.5 173 353.9 172.9 353.4C172.8 353 172.7 352.7 172.6 352.3C172.9 352.4 173.3 352.5 173.6 352.6C174.9 353 176.2 353.4 177.5 353.7C178.2 353.9 178.8 354.1 179.4 354.2L179.9 354.3C180 354.2 180 354 180.1 353.9L180.4 353C180.8 351.7 181.1 350.5 181.5 349.3C182.1 347.2 182.7 345.2 183.3 343.2C186.6 331.6 190 318.6 193.4 304.1C195.1 296.9 196.7 289.2 198.3 281.2C199.1 277.2 199.9 273 200.7 268.8C201.1 266.7 201.5 264.5 201.9 262.4L202.2 260.8L202.3 260.3L202.4 260.1C202.5 259.8 202.5 259.5 202.6 259.2C202.8 259.2 203 259.2 203.2 259.2C203.3 259.2 203.4 259.2 203.6 259.2H203.8H203.9H204.1C206 259 208.1 258.7 210.3 258.5C214.1 258.1 217.8 257.7 221.6 257.2C221.8 264.4 221.9 270.6 222 275.9C222.2 286 222.6 298.3 222.9 313.1C223.3 327.8 223.7 341.2 224.1 353.3C224.1 355 224.2 356.3 224.3 357.3C224.9 364.6 226 367.6 227.6 366.1C229.2 364.7 229.9 360.4 229.8 353.4C229.5 328 228.8 295.8 227.6 256.6C238 255.4 248.2 254.3 258.1 253.2C256.6 254.7 255.5 257.4 254.7 261.2C253.8 266 252.3 273.6 250.3 283.9C248.2 294.2 246.6 302.3 245.4 308.3C244.2 314.3 242.7 321.7 240.9 330.4C239.1 339.2 237.5 347.1 236.1 354.3C235.9 355.3 235.7 356.1 235.7 356.7C235.2 361.1 235.8 363.1 237.5 362.5C239.2 361.9 240.6 359.6 241.6 355.4C246.9 333 253.4 301.2 260.4 260C260.6 258.8 260.7 257.7 260.8 256.7C260.9 254.9 260.8 253.6 260.6 252.9C262.7 252.7 264.9 252.4 267 252.2C267.8 252.1 268.6 252 269.3 251.9C269.6 251.9 269.9 251.9 270.1 251.9C270.5 251.9 270.8 251.8 271 251.7C274.1 251.3 277.2 251 280.2 250.7C284.6 250.2 289 249.7 293.4 248.9C299.7 247.8 306.1 246.3 312.1 243.6C312.5 243.7 312.9 243.8 313.4 243.8C313.6 243.8 313.9 243.9 314.2 243.9C314.5 243.9 314.7 243.9 315 243.9C315.2 243.9 315.4 243.9 315.5 243.9C314.7 245.7 314.4 248.3 314.4 251.6C314.5 256.7 314.7 264.7 315.2 275.7C315.8 286.7 316.4 295.3 317 301.7C317.5 308.1 318.3 315.9 319.4 325.3C320.5 334.6 321.7 343.1 323 350.7C323.2 351.8 323.3 352.6 323.5 353.2C324.7 357.8 325.9 359.4 327.3 358.2C328.7 357 329.1 354.2 328.5 349.8C327 337.9 325.2 323.5 323.6 306.8C322 290 320.5 270.9 319.7 249.3C319.6 248 319.6 246.9 319.4 245.8C319.3 244.7 319.1 243.7 318.9 243C319 243 319 242.9 319.1 242.9L319.7 242.7L320.3 242.4C320.7 242.2 321.1 242 321.5 241.8C323 240.8 324.5 239.7 325.8 238.3C328.5 235.6 330.7 232.2 332.7 228.6C334.8 225 336.5 220.8 337.7 216.4C338.9 212 339.7 207.3 340.3 202.4C340.9 197.6 341.3 192.6 341.8 187.5C342.3 182.5 343.1 177.3 344 172C345.9 161.4 348.5 150.1 351.5 138.2C351.8 136.8 352.1 135.5 352.3 134.3C352.9 129.1 352.3 127.5 350.4 129.1ZM54.1 118.2C53.9 117.7 53.7 117.1 53.6 116.6H53.7C60 116.6 66.5 116.7 73.2 116.7C80.9 116.7 89 116.8 97.2 116.8C86.5 117.1 75.4 117.3 63.8 117.4C61.8 117.4 60.1 117.5 58.4 117.6C56.6 117.8 55.2 118 54.1 118.2ZM55 109.8C56 109.7 57 109.7 58.1 109.8C59.8 109.9 61.7 110.3 63.7 110.7C62.2 110.7 60.7 110.7 59.3 110.6C57.8 110.6 56.3 110.6 54.9 110.5C54.2 110.5 53.5 110.5 52.8 110.5C52.6 110.5 52.3 110.5 52.1 110.5C52.2 110.4 52.4 110.3 52.6 110.3C53.1 110 54 109.9 55 109.8ZM126.7 114.3C126.5 114.2 126.3 114 126.1 113.9C126 113.8 125.8 113.7 125.6 113.6C125.6 113.5 125.7 113.4 125.7 113.4C125.8 113.3 125.8 113.2 125.9 113.1C126.3 113.2 126.7 113.3 126.8 113.4L126.9 113.5V113.4V113.3C126.9 113.4 127 113 126.8 113.5V113.6C126.8 113.6 126.9 113.5 127.1 113.5C127 113.8 126.9 114.1 126.7 114.3ZM128.5 108.2C128.5 108.3 128.5 108.3 128.5 108.2C128.4 108.3 128.4 108.3 128.5 108.2C128.4 108.2 128.4 108.2 128.5 108.2ZM51.6 110.4C51.7 110.5 51.7 110.5 51.6 110.4V110.4ZM128.9 115.2C129.2 114.9 129.7 114.4 130.2 113.6C130.3 113.8 130.3 114.1 130.4 114.3C130.5 114.8 130.7 115.3 130.9 115.9C129.7 115.9 128.6 116 127.4 116C128.2 115.7 128.7 115.4 128.9 115.2ZM74.7 105.5C74.7 105.6 74.8 105.7 74.8 105.9C75 106.3 75.2 106.6 75.4 106.9C73.1 106.5 70.8 106.1 68.5 105.6C67.9 105.5 67.2 105.3 66.6 105.2C67.3 105.2 68.1 105.3 68.8 105.3C70.9 105.3 72.9 105.4 74.7 105.5ZM49.5 104C50.2 104 50.9 104.1 51.8 104.1C51 104.3 50.1 104.6 49.2 105.1C49 104.7 48.8 104.3 48.7 103.8C48.9 103.9 49.2 104 49.5 104ZM65.9 168.1C65.9 168 65.9 167.9 65.9 167.8H66C66.2 167.9 66.3 167.9 66.5 168C66.3 168 66.1 168.1 65.9 168.1ZM65.4 156.5C65.4 156.6 65.4 156.6 65.4 156.7C65.4 156.7 65.4 156.6 65.4 156.5ZM79.1 158.3C78.4 158.2 77.7 158.1 77 158C76.5 157.9 76 157.8 75.6 157.7C76.5 157.5 77.3 157.3 78.2 157C79.9 157.2 81.7 157.4 83.5 157.6C83.3 157.6 83.2 157.7 83 157.7C82.2 157.9 81.4 158.1 80.6 158.3C80.2 158.4 79.6 158.4 79.1 158.3ZM101.9 153.7C100.5 154 99.1 154.2 97.8 154.5C97.8 154.3 97.7 154 97.6 153.7C99.5 153.5 101.3 153.3 103.2 153.1C104.1 153 105.1 153 106 152.9C104.6 153.2 103.2 153.4 101.9 153.7ZM129 157.6C129 157.5 129.1 157.5 129.2 157.5C129.1 157.6 129.1 157.6 129 157.6ZM64.7 152.9C64.5 152.8 64.4 152.8 64.3 152.8C64.1 152.8 63.7 152.8 63.4 152.8C63.3 152.2 63.2 151.7 63.1 151.1L64.2 152.4C64.3 152.5 64.4 152.6 64.4 152.7C64.4 152.7 64.4 152.5 64.4 152.4C64.4 152.3 64.4 152.3 64.4 152.3C64.4 152.2 64.4 152.1 64.4 152.1C64.4 152 64.4 151.9 64.4 151.8V151.7C64.5 151.9 64.5 152 64.7 152.2C64.7 152.3 64.8 152.3 64.8 152.4C64.7 152.5 64.7 152.7 64.7 152.9ZM108.3 158.4C108.6 158.3 108.9 158.3 109.3 158.3C109.2 158.4 109.2 158.4 109.1 158.5C109 158.7 108.9 159 108.8 159.3C107.8 159.1 106.7 159 105.5 158.9C106.4 158.7 107.3 158.6 108.3 158.4ZM117.9 162.2C119.1 161.7 120.2 160.9 121.3 160C121.3 160 121.3 160 121.4 159.9C122.2 159.9 123 159.8 123.8 159.7C123.7 159.7 123.6 159.8 123.5 159.8C122.7 160.2 122 160.6 121.3 160.9C120.4 161.4 119.6 161.9 118.8 162.4C118.2 162.7 117.7 163.1 117.2 163.5C117.2 163.4 117.1 163.3 117.1 163.2C117 163 116.9 162.8 116.7 162.5C117 162.6 117.4 162.4 117.9 162.2ZM120.2 168.4C120.3 168.3 120.4 168.3 120.4 168.2C121.1 167.7 121.8 167.3 122.4 166.9C122.7 166.7 123 166.6 123.3 166.4C123.6 166.2 124 166.1 124.3 165.9C124.4 165.9 124.8 165.7 125.1 165.5L126.1 165C126.7 164.6 127.4 164.4 128.1 164C130.8 162.8 133.7 161.7 136.7 161C139.3 160.3 142.1 159.9 144.8 159.7L143.8 166.4C143.5 168.6 143.1 170.9 142.8 173.3C142.7 174.1 142.6 174.8 142.6 175.5C142.3 175.5 142 175.4 141.7 175.4C137.6 174.9 133.2 174.3 128.5 173.2C127.3 172.9 126.1 172.6 124.9 172.3C124.6 172.2 124.4 172.2 124.1 172.1L123.4 171.9C123 171.8 122.6 171.6 122.2 171.5C120.9 171 119.8 170.5 118.9 170.1C119.9 169.8 120.3 169.2 120.2 168.4ZM146.4 150.5C146.3 150.3 146.1 150.2 146 150C145.6 149.6 145.4 149.4 145.1 149.2L144.8 148.8C145.4 148.8 146 148.8 146.6 148.8L146.4 150.5ZM139 148.8C139 148.9 139 148.9 139 148.8C139.3 149.3 139.5 149.7 139.8 150C139.5 150 139.2 149.9 138.9 149.9C138.8 149.8 138.8 149.7 138.7 149.6C138.4 149.3 138.1 149 137.8 148.8C138.2 148.8 138.6 148.8 139 148.8ZM96.9 165.5C96.7 165.1 96.5 164.8 96.2 164.5C99 164.4 101.6 164.4 104.1 164.5C105.8 164.5 107.1 164.7 108 164.7C111.5 164.8 113.9 165.1 115.3 165C115.3 165 115.3 165 115.4 165C115.3 165 115.3 165.1 115.2 165.1C115.1 165.1 115.1 165.2 115 165.2C109.9 165 103.8 165.1 96.9 165.5ZM221.9 121.1C218.7 125.1 215.4 129.7 212.1 134.9C211.3 136.2 210.5 137.5 209.6 138.9C208.8 140.2 208 141.7 207.1 143C206.8 143.4 206.5 143.8 206.2 144.2C204.4 143.6 201.9 143.2 198.5 143.2C183.4 142.9 165.2 142.7 143.9 142.8C122.6 142.9 98.2 143.2 70.8 144.1C69.2 144.2 67.7 144.3 66.4 144.4C66 144.4 65.6 144.5 65.2 144.5C64.7 144.3 64.2 144.1 63.6 144C63 143.9 62.3 143.9 61.5 144C61.2 142.5 60.8 141 60.4 139.5C59 133.9 57.3 127.9 55.3 121.6C58.1 122.4 62 122.8 67.1 122.8C74.9 122.8 87.2 122.7 104 122.5C115.3 122.3 124.9 122.1 133 121.8C133 121.8 133 121.8 133 121.9C133.3 122.1 133.7 122.1 134.2 121.8C137.7 121.7 140.9 121.6 143.8 121.5C153.6 121.2 165.7 120.6 180 119.9C194.4 119.1 207.4 118.2 219.1 117.2C220.7 117.1 222 117 223 116.8C224.1 116.7 225 116.5 225.9 116.3C224.6 117.8 223.3 119.4 221.9 121.1ZM257.7 86.0996C256 88.1996 253.6 90.6996 250.5 93.3996C248.6 94.9996 246.4 96.6996 244 98.5996C243.3 97.0996 241.8 95.2996 239.5 93.2996C238.8 92.6996 238.2 92.0996 237.4 91.4996C237 91.1996 236.6 90.9996 236.1 90.8996C235.6 90.7996 235.2 90.8996 234.7 91.0996C232.8 91.5996 230.9 92.1996 228.9 92.6996C226.9 93.2996 224.9 93.8996 222.8 94.4996C221.8 94.7996 220.8 95.0996 219.7 95.3996C218.8 95.5996 218 95.8996 217.2 95.8996C216.7 95.8996 216.2 95.6996 215.8 95.2996C215.4 94.8996 215.2 94.3996 215 93.8996C214.8 93.3996 214.7 92.8996 214.6 92.3996C214.5 91.8996 214.5 91.4996 214.4 90.7996C214.2 88.5996 214.1 86.1996 214.1 83.7996C214.9 84.1996 216.3 84.6996 218.3 84.8996C220.4 85.1996 222.1 85.0996 223.4 84.8996C224.7 84.6996 226.3 84.3996 228.2 83.5996C230.1 82.7996 231.7 81.7996 233.1 80.6996C233.3 80.5996 233.4 80.3996 233.5 80.2996C234 79.2996 233.5 78.4996 232 77.7996C230.5 77.0996 229.4 76.8996 228.7 77.2996C227.7 77.7996 226.6 78.1996 225.4 78.5996C224.2 78.9996 222.9 79.1996 221.6 79.3996C219.1 79.6996 216.5 79.3996 214.2 78.3996C214.2 78.0996 214.2 77.7996 214.2 77.3996V76.1996V75.4996V74.5996C214.2 73.3996 214.1 72.1996 214 70.9996C213.8 69.7996 213.5 68.7996 212.8 67.8996C212.6 67.5996 212.4 67.4996 212.2 67.3996L211.5 67.0996C211.3 66.9996 211 66.8996 210.7 66.8996L209.8 66.6996C209.2 66.4996 208.6 66.5996 207.9 66.4996C207.2 66.4996 206.6 66.3996 205.9 66.3996L205.1 66.2996L204.5 66.1996L203.9 66.0996H203.7C203.1 65.9996 202.5 65.8996 202 65.7996L201.6 65.6996H201.5V65.5996L201.6 65.3996C201.7 65.0996 201.8 64.7996 201.9 64.4996C202 64.1996 202.1 63.9996 202.3 63.6996L202.5 63.1996L202.6 62.9996L202.8 62.4996C203.1 61.6996 203.5 60.9996 203.8 60.1996C204.2 59.3996 204.6 58.6996 205 57.8996C208.3 51.6996 212.8 45.6996 217.3 38.6996C218 37.4996 218.7 36.4996 219.2 35.3996C219.5 34.6996 219.8 34.0996 220 33.5996C221.6 33.3996 223.2 33.0996 224.8 32.8996L227.9 32.4996C228.8 32.3996 229.9 32.1996 230.7 32.7996C231.2 33.1996 231.5 33.8996 231.5 34.4996C231.5 35.1996 231.4 35.7996 231.3 36.3996C231.2 36.9996 231 37.5996 230.9 38.2996C230.8 39.0996 230.6 39.9996 230.6 40.8996L230.5 41.4996L230.4 42.1996C230.4 42.6996 230.3 43.2996 230.3 43.7996C230.3 44.8996 230.3 45.8996 230.4 46.9996C230.5 47.9996 230.6 49.0996 230.7 50.0996L230.9 51.6996L231 52.4996C231 52.5996 231 52.5996 231.1 52.5996H231.2L231.4 52.6996C233.5 51.9996 235.8 51.1996 238 50.5996C238.6 50.4996 239.1 50.2996 239.7 50.1996C240.2 50.0996 240.5 50.0996 240.9 49.9996C241.7 49.8996 242.5 49.7996 243.2 49.8996C244.8 49.8996 246.1 50.1996 247.4 50.7996C248.7 51.3996 249.8 52.2996 250.6 53.2996C251.3 54.2996 251.8 55.4996 251.6 56.5996C251.6 57.1996 251.4 57.6996 251.2 58.1996C250.9 58.6996 250.6 59.1996 250.2 59.6996C249.3 60.5996 248.1 61.3996 246.8 61.9996C246.5 62.1996 246.1 62.2996 245.8 62.3996C245.6 62.4996 245.5 62.4996 245.3 62.5996C245.1 62.6996 244.7 62.7996 244.4 62.8996C243.1 63.1996 241.7 63.3996 240.4 63.5996C240.2 63.8996 239.9 64.0996 239.7 64.3996C239.2 65.7996 238.6 67.2996 238.5 68.8996C238.5 69.2996 238.4 69.6996 238.4 70.0996L238.5 71.2996L238.6 71.8996L238.8 72.4996L239.1 73.6996C239.2 74.0996 239.4 74.4996 239.6 74.9996C239.8 75.3996 239.9 75.6996 240.1 75.9996C240.5 76.5996 240.8 77.2996 241.3 77.7996C242.2 78.9996 243.2 79.9996 244.3 80.9996C246.6 82.7996 249.4 84.1996 252.7 84.6996C254.4 84.8996 255.9 84.8996 257.5 84.6996C258 84.5996 258.5 84.4996 259.1 84.3996C259.1 84.5996 258.5 85.1996 257.7 86.0996ZM259.9 77.9996C258.6 78.3996 257.2 78.5996 255.9 78.6996C255.6 78.6996 255.2 78.6996 254.9 78.6996L254 78.5996C253.4 78.4996 252.8 78.3996 252.2 78.0996C249.8 77.2996 247.5 75.4996 246.2 73.3996C246.1 73.0996 245.9 72.8996 245.8 72.5996C245.7 72.2996 245.7 72.2996 245.6 71.9996L245.4 71.3996L245.3 70.7996V70.1996C245.3 69.9996 245.4 69.7996 245.4 69.5996C245.5 69.1996 245.6 68.6996 246.1 68.7996C246.5 68.7996 246.9 68.6996 247.3 68.5996L247.6 68.4996L247.9 68.3996C248 68.3996 248.1 68.2996 248.2 68.2996C248.7 68.0996 249.1 67.9996 249.6 67.7996C251.4 66.9996 253.2 65.8996 254.9 64.2996C256.5 62.6996 257.9 60.3996 258.2 57.7996C258.3 56.4996 258.3 55.1996 258 53.8996C257.7 52.5996 257.1 51.3996 256.4 50.3996C255 48.2996 253.1 46.7996 251 45.7996C249.9 45.2996 248.8 44.8996 247.7 44.5996C246.5 44.2996 245.4 44.1996 244.3 44.1996C243.2 44.1996 242.1 44.1996 241 44.3996C240.5 44.4996 239.9 44.5996 239.4 44.5996L238.8 44.6996C238.2 44.7996 237.6 44.9996 237.1 45.0996H236.9V44.8996V44.4996C236.9 44.1996 236.9 43.9996 236.9 43.6996C236.9 43.3996 236.9 43.1996 236.9 42.8996C236.9 42.4996 237 42.1996 237 41.7996C237.1 41.0996 237.2 40.2996 237.3 39.5996L237.4 38.7996L237.6 37.6996C237.8 36.9996 237.8 36.2996 237.9 35.4996C238 34.0996 238 32.7996 237.6 31.4996C237.3 30.2996 236.5 29.0996 235.5 28.2996C233.6 26.7996 231.5 26.4996 228.9 26.6996C226.8 26.9996 224.8 27.2996 222.7 27.5996C219.6 28.0996 216.6 28.4996 213.4 28.9996C210.3 29.4996 207.1 29.8996 204 30.3996H203.7H203.6H203.4H203.1H202.5C202.3 30.3996 202.2 30.3996 202.1 30.3996L202.2 30.2996L202.3 30.0996C202.4 29.9996 202.5 29.8996 202.5 29.7996C202.6 29.5996 202.8 29.4996 202.9 29.3996L203.1 29.1996L203.2 29.0996L203.4 28.8996L203.6 28.6996L204.1 28.1996L205.8 26.4996C206.9 25.3996 208.1 24.2996 209.3 23.1996C211.7 21.0996 214.2 18.8996 216.8 16.8996C219.4 14.8996 221.8 13.1996 224 11.5996C226.4 9.99961 228.3 8.79961 229.7 7.89961C230.4 7.79961 231.1 7.69961 231.9 7.59961C235.6 6.99961 240.5 6.39961 246.6 6.99961C255.7 7.99961 265 12.0996 272.2 19.0996C275.8 22.5996 278.9 26.6996 281.3 31.3996C283.6 36.0996 285.3 41.2996 285.3 46.5996C285.3 49.2996 284.9 51.8996 284 54.3996C283.1 56.8996 281.7 59.2996 280 61.5996C278.3 63.8996 276.4 65.9996 274.3 67.9996C272.2 70.0996 270 71.9996 267.6 73.6996C265.1 75.7996 262.5 77.1996 259.9 77.9996ZM191.2 285.1C191.1 284.7 191.1 284.3 190.9 283.8C190.8 283.6 190.8 283.4 190.7 283.1C190.7 283.1 190.7 283 190.8 283C190.9 282.9 191 282.8 191.1 282.7C191.4 282.6 191.6 282.4 191.8 282.2C191.6 283.2 191.4 284.2 191.2 285.1ZM195.7 220.2L195.8 220.8C196.3 220.8 196.7 220.8 197.1 220.8C197.3 220.8 197.6 220.9 197.8 221L197.2 221.5C196.9 221.7 196.5 221.8 196.2 222L195.9 220.8C195.1 220.8 194.3 221 193.3 221.4C194.1 220.9 194.9 220.6 195.7 220.2ZM176.3 342.1C176.7 342 177.1 341.7 177.4 341.4L177 343L176.3 342.1ZM153.4 304.8C153.4 304.7 153.4 304.6 153.4 304.5C153.5 304.6 153.7 304.8 153.8 304.9C154 305.1 154.3 305.3 154.6 305.5C154.4 305.8 154.2 306.1 153.9 306.3C153.7 305.7 153.5 305.2 153.4 304.8ZM231.8 242.1L230.3 242.4C230.5 242.2 230.7 242.1 230.9 241.9C231.5 241.3 232.1 240.7 232.5 240C233.9 239.7 235.4 239.3 236.9 239C236.9 239 236.9 239.1 237 239.1C236.9 239.4 236.4 240.1 235.7 240.7C235.5 240.9 235.3 241 235.1 241.1L234.8 241.3L234.6 241.4C233.6 241.7 232.7 241.9 231.8 242.1ZM283.9 218.2C284 218.2 284 218.2 284.1 218.1C284.8 217.9 285.5 217.7 286.1 217.5C286.8 217.7 287.5 218 288.2 218.2C286.8 218.1 285.4 218.1 283.9 218.2ZM246.4 221.7L247.4 220.7C247.7 220.7 247.9 220.8 248.2 220.8C247.6 221 247 221.3 246.4 221.7ZM246.9 237C249 236.6 251 236.2 253.1 235.9C252.1 236.2 251.2 236.5 250.2 236.7C248.7 237.1 247.2 237.3 245.9 237.2C246.3 237.1 246.6 237 246.9 237ZM173.8 281.5C173.9 281.7 174 282 174 282.2C174 282.3 173.9 282.3 173.9 282.4C173.7 282.1 173.5 281.8 173.2 281.5C173.3 281.3 173.4 281.1 173.5 281C173.6 281.2 173.7 281.3 173.8 281.5ZM170.9 318.3C171 318.1 171 317.9 171.1 317.6C171.2 317.6 171.3 317.6 171.3 317.5C171.3 317.8 171.1 318 170.9 318.3ZM175.7 315.5C175.5 315.4 175.2 315.3 174.9 315.3C175.3 314.9 175.7 314.4 176 313.9C176 314.5 175.9 315 175.7 315.5ZM187.8 263.2C188 263.2 188.2 263.2 188.4 263.1V263.2C188 263.4 187.6 263.7 187.2 264C187.3 263.7 187.5 263.5 187.8 263.2ZM195.2 236.8C195.3 236.8 195.3 236.8 195.3 236.8C195.4 236.9 195.4 237.1 195.5 237.3C195.4 237.3 195.2 237.3 195.2 237.2C195.1 237.1 195.2 236.9 195.2 236.8ZM272.3 227.1C272.7 226.9 273.2 226.8 273.6 226.7C274.3 227 275 227.3 275.7 227.7C275.4 227.6 275.1 227.5 274.8 227.4C274 227.1 273.2 227.1 272.3 227.1ZM181.4 289.4C181.2 290.7 180.7 291.9 180 292.9C180.5 290.9 180.8 288.8 180.8 286.7C180.8 285.6 180.7 284.5 180.5 283.4C180.5 283.4 180.5 283.4 180.6 283.5C180.6 283.6 180.7 283.7 180.7 283.8C181.3 285.6 181.7 287.5 181.4 289.4ZM288.5 231.9C288.5 231.4 289 231.1 289.3 230.8L289.6 230.6C289.7 230.5 289.9 230.4 290 230.4L290.2 230.3L290.8 230C291.2 229.8 291.6 229.5 292.1 229.4C292.3 229.3 292.5 229.3 292.7 229.2V229.3C292.8 229.6 292.8 229.9 292.9 230.2C293.1 230.6 293.2 231.1 293.4 231.5C293.1 231.7 292.6 231.9 291.8 232.1C291 232.3 289.9 232.3 288.6 232.3C288.6 232.2 288.5 232 288.5 231.9ZM167.4 264.3C167.7 264.2 168.2 264.2 168.5 264.3C168.9 264.5 169.1 264.8 169.2 265.2C169.5 266 169.5 266.8 169.3 267.6C169.3 267.8 169.2 267.9 169.2 268.1C168.8 268.1 168.5 268 168.2 267.8C167.5 267.4 167 266.7 166.8 265.9C166.7 265.5 166.6 265.1 166.6 264.7C166.8 264.7 167.1 264.5 167.4 264.3ZM242.8 211.4C242.7 211.3 242.6 211.3 242.5 211.2C242.9 211 243.3 210.8 243.7 210.7L242.8 211.4ZM175.2 242.8C175 243.2 174.8 243.5 174.7 243.9C174.7 244 174.8 244 174.8 244.1C174.8 244.2 174.7 244.4 174.7 244.5C174.4 245.6 174.1 246.7 174 247.8C173.9 248.2 173.9 248.6 173.9 249.1C173.3 248.8 172.6 248.6 171.9 248.6C171.6 248.6 171.4 248.5 171.1 248.5C171.3 248.2 171.4 247.8 171.6 247.5C172.7 245.5 174.1 243.5 175.7 241.6C175.5 242 175.4 242.4 175.2 242.8ZM157.6 294.3C157.6 294.3 157.6 294.4 157.5 294.4C157.3 294.4 157.1 294.4 157 294.3C157.3 294.3 157.5 294.3 157.6 294.3ZM151.7 317.1L152 316.8C152.1 317.1 152.2 317.4 152.4 317.7C152.1 317.7 151.7 317.6 151.4 317.5C151.4 317.4 151.6 317.2 151.7 317.1ZM184 297.4C184.5 296.8 185.1 296.1 185.5 295.4C185.4 296 185.2 296.6 185 297.1C184.9 297.3 184.8 297.5 184.8 297.7C184.5 297.6 184.2 297.5 184 297.4ZM279.8 237.5C280 237.4 280.2 237.3 280.4 237.2C280.5 237.2 280.5 237.3 280.6 237.3C280.7 237.4 280.9 237.4 281.1 237.4C281.1 237.4 281.2 237.4 281.2 237.5C280.7 237.6 280.1 237.6 279.5 237.7C279.6 237.6 279.7 237.5 279.8 237.5ZM183.4 308.7C183.3 308 183.2 307.3 183.2 306.6C183.5 306.5 183.8 306.4 184 306.3C184 306.5 184 306.8 184 307C184 307.1 184 307.2 183.9 307.4C183.9 307.6 183.8 307.8 183.8 307.9C183.7 308.1 183.6 308.4 183.6 308.6C183.5 308.7 183.5 308.7 183.4 308.7ZM262.6 244.9C264.7 244.8 266.9 244.7 269 244.5C273.1 244.2 277.3 243.9 281.6 243.4C276.7 244.3 271.6 245 266.5 245.6C265.5 245.4 264.1 245.2 262.6 244.9ZM155 294C155.1 294.1 155.3 294.1 155.4 294.2C155.7 294.3 155.9 294.3 156.2 294.4C155.8 294.4 155.4 294.4 155 294.5C155 294.3 155 294.2 155 294ZM148 309.7C148.1 309.4 148.2 309.2 148.4 308.9C148.7 309.6 149.1 310.3 149.7 310.9C149 311.3 148.4 311.8 147.8 312.4C147.7 312.5 147.6 312.6 147.4 312.8C147.6 311.7 147.8 310.7 148 309.7ZM147.3 324.3C147.4 323.8 147.6 323.3 147.9 322.8C148.1 322.9 148.3 322.9 148.4 323C148.3 323.2 148.3 323.3 148.2 323.5L148.1 323.8V324V324.1C148.1 324.1 148 324.2 147.9 324.2C147.1 324.6 147.3 324.8 147.2 325C147.2 325.2 147.2 325.5 147.2 325.7C147.4 325.8 147.6 325.9 147.7 326C147.5 326.6 147.2 327.3 147.1 328C147 327.7 147 327.3 146.9 327C146.9 326.1 147 325.2 147.3 324.3ZM306 237.3C306.3 237.2 306.5 237.1 306.8 236.9C307.2 237 307.5 237.1 307.9 237.2C305.9 237.8 303.8 238.4 301.6 239C303.1 238.5 304.5 237.9 306 237.3ZM158.7 273.7C158.3 274.3 157.9 274.8 157.6 275.4C157.9 274.5 158.2 273.7 158.5 272.8C158.5 273.1 158.6 273.4 158.7 273.7ZM155.7 281.2C155.7 281.3 155.7 281.3 155.7 281.2V281.2ZM175.1 343.3C174.3 343.2 173.5 343.1 172.6 343C172.7 342.8 172.9 342.7 173 342.5C173.3 342.4 173.5 342.3 173.8 342.2C174 342.2 174.1 342.3 174.3 342.3L175.1 343.3C175.7 343.4 176.3 343.5 176.8 343.7L176.7 344.2L176.6 344.5L176.4 345L175.1 343.3ZM200.9 218.2L198.6 220.3L198.5 220C197.6 220.3 196.8 220.4 195.9 220.3C195.8 220.3 195.8 220.3 195.7 220.3C197.5 219.4 199.2 218.8 200.9 218.2ZM167.1 362.8C167.1 363 167 363.2 166.9 363.5L166.8 363.8C166.8 363.8 166.8 363.9 166.7 363.9H166.5C166 363.9 165.5 363.8 165 363.8C164.1 363.7 163.1 363.6 162.1 363.6C160.1 363.5 158.1 363.3 156.1 363.2C154 363.1 151.9 362.9 149.7 362.8C141 362.3 131.6 362 121.4 362C118.6 361.9 116.4 361.7 114.8 361.6C114 361.5 113.4 361.4 113 361.4C112.8 361.5 113 361.1 113.2 360.8C113.4 360.5 113.6 360.3 113.9 360.1C114.5 359.7 115.1 359.5 115.6 359.2C117.9 358.4 119.6 358 120.6 357.9H120.8C120.8 357.9 120.8 357.9 120.9 357.9L121.2 357.8L121.7 357.6C122.4 357.4 123.1 357.2 123.9 356.9C125.4 356.5 126.8 356.1 128.3 355.7C129 355.5 129.8 355.3 130.5 355.1C131.3 354.9 132.1 354.7 133 354.4C134.7 353.9 136.5 353.3 138.4 352.5C140.2 351.7 141.8 350.7 143.2 349.3C144.6 348 145.6 346.5 146.2 345.3C146.8 344 147 343 146.9 342.3C146.9 341.9 146.8 341.7 146.7 341.5C148.7 342.6 150.7 343.6 152.6 344.5C156.5 346.4 160.4 348 164.2 349.4C165.1 349.7 166 350 166.8 350.4C166.8 350.4 166.8 350.4 166.8 350.5C167 352.3 167.3 354.5 167.4 357.2C167.8 359.1 167.6 361 167.1 362.8ZM202.2 253C202.2 252.6 202.2 252.2 202.2 251.8L203.7 251.9C204.7 252.2 205.7 252.4 206.7 252.6C205.2 252.6 203.7 252.8 202.2 253Z" fill="black"/>
<path d="M223 50.5994C221.9 49.6994 220.4 48.9994 218.4 49.0994C217.9 49.0994 217.5 49.2994 217.1 49.4994C216.4 49.8994 216.1 50.3994 216.1 50.7994C216.1 51.1994 216.5 51.4994 217.1 51.8994C217.1 51.8994 217.2 51.8994 217.2 51.9994C217.1 52.1994 217 52.3994 217 52.5994C216.9 53.0994 216.9 53.6994 216.9 54.2994C217 55.2994 217.3 56.2994 217.6 57.1994V57.2994C217.7 57.7994 218.1 58.4994 218.8 58.8994C219.5 59.2994 220.4 59.4994 221.3 59.2994C222.2 59.0994 223 58.6994 223.7 57.9994C224.4 57.2994 225 56.0994 225 54.5994C225 53.8994 224.7 53.0994 224.4 52.3994C224 51.6994 223.6 51.0994 223 50.5994ZM220.7 55.1994C220.6 55.4994 220.4 55.5994 220.2 55.5994C220.3 55.5994 220.4 55.4994 220.4 55.4994C220.5 55.4994 220.3 55.4994 220.1 55.4994C220.5 54.8994 220.6 54.4994 220.7 54.1994C220.7 54.4994 220.8 54.8994 220.7 55.1994Z" fill="black"/>
<path d="M543.9 49.3009C544 50.3009 544.3 51.3009 544.6 52.2009V52.3009C544.7 52.8009 545.1 53.5009 545.8 53.9009C546.5 54.3009 547.4 54.5009 548.3 54.3009C549.2 54.1009 550 53.7009 550.7 53.0009C551.4 52.3009 552 51.1009 552 49.6009C552 48.9009 551.7 48.1009 551.4 47.4009C551 46.7009 550.6 46.1009 550 45.7009C548.9 44.8009 547.4 44.1009 545.4 44.2009C544.9 44.2009 544.5 44.4009 544.1 44.6009C543.4 45.0009 543.1 45.5009 543.1 45.9009C543.1 46.3009 543.5 46.6009 544.1 47.0009C544.1 47.0009 544.2 47.0009 544.2 47.1009C544.1 47.3009 544 47.5009 544 47.7009C543.9 48.2009 543.8 48.8009 543.9 49.3009ZM547.7 50.2009C547.6 50.5009 547.4 50.6009 547.2 50.6009C547.3 50.6009 547.4 50.5009 547.4 50.5009C547.5 50.5009 547.3 50.5009 547.1 50.5009C547.5 49.9009 547.6 49.5009 547.7 49.2009C547.7 49.6009 547.8 49.9009 547.7 50.2009Z" fill="black"/>
<path d="M734.8 195.1C733.4 193.4 728.8 192.3 721.2 191.9C715.2 191.5 708.8 191.2 702.1 190.9C702.5 190.3 702.9 189.4 703.4 188.1C703.9 186.7 704.3 185.5 704.6 184.6C704.9 183.8 705.2 182.7 705.5 181.5C705.8 180.3 706.1 179.2 706.3 178.3C706.3 178.2 706.4 178.1 706.3 178C706.2 177.8 706 177.8 705.7 177.7C711.8 163.7 719.7 143.9 729.3 118.3C729.6 117.5 729.8 116.8 729.9 116.2C730.5 113.6 729.8 112.5 728 113.1C727.3 113.3 726.7 113.7 726.1 114.2C725.1 113.9 723.8 113.8 722.3 113.7C712.2 113.4 700.1 113.1 685.9 113C671.7 112.9 655.4 112.9 637.1 113.6C636 113.6 635 113.7 634.2 113.9C631.5 114.3 630.3 115 630.6 115.9C630.5 116.1 630.4 116.3 630.4 116.5C630.2 117.5 630 119 629.8 121.1C629.6 123.2 629.5 124.9 629.4 126.1C629.3 127.3 629.2 128.8 629.1 130.6C629.1 131.1 629 131.6 629 132C625.3 132 621.4 132.1 617.5 132.2C616.3 132.2 615.2 132.3 614.2 132.5C610.4 133 609.2 133.9 610.6 135.3C609.8 136.3 608.8 137.7 607.8 139.6C607.2 140.8 606.7 142 606.3 143.1V143C606.1 141.5 605.6 139.8 604.5 138.5C603.4 137.2 601.8 136.5 600.1 136.1C598.9 135.8 597.7 135.4 596.4 135C595.2 134.7 594 134.3 592.8 134C587.9 132.7 582.6 131.6 577 130.8C576.3 130.7 575.7 130.7 575.2 130.7C574.8 130.7 574.5 130.8 574.2 130.8C573.7 130.5 573.2 130.2 572.5 130C571.7 129.8 571 129.7 570.2 129.5C569.8 129.4 569.5 129.3 569 129.3L567.6 129.2C566.7 129.1 565.7 129.1 564.8 129C564.2 129 564 128.9 563.7 128.9L562.9 128.8C562.3 128.7 561.8 128.7 561.2 128.6C560.1 128.5 558.9 128.4 557.8 128.2C555.5 127.9 553.1 127.7 550.7 127.4C545.9 126.9 540.8 126.3 535.5 125.8C534.4 125.7 533.4 125.7 532.5 125.7C532.1 125.7 531.7 125.7 531.4 125.8C530.4 120.5 529.1 115 526.8 109.5C525.5 106.2 523.7 102.9 521.5 99.8003C521 99.0003 520.3 98.3003 519.7 97.5003C519 96.8003 518.4 96.0003 517.7 95.3003C516.3 94.0003 514.7 92.7003 513.1 91.6003C509.6 89.2003 505.8 87.7003 502.2 87.1003C500.6 86.8003 499.1 86.7003 497.7 86.7003C498.9 86.0003 500 85.2003 500.9 84.3003C502.2 83.1003 503.2 82.1003 504.2 81.2003C504.5 80.9003 504.6 80.9003 504.8 80.7003C505 80.6003 505.1 80.4003 505.3 80.3003L505.9 79.9003L506.6 79.5003C507.6 78.9003 508.8 78.4003 510.1 77.8003C511.4 77.2003 512.8 76.6003 514.3 75.8003C515.8 75.1003 517.4 74.1003 519 72.9003C519.4 72.6003 519.8 72.3003 520.2 71.9003L520.9 71.2003C521.2 70.9003 521.4 70.7003 521.6 70.4003C522 69.8003 522.4 69.3003 522.8 68.7003C523 68.4003 523.2 68.1003 523.3 67.8003L523.7 66.9003C524.8 64.5003 525.5 61.8003 524.3 59.4003C523.8 58.3003 523.1 57.3003 521.9 56.4003C521.4 55.9003 520.8 55.6003 520.2 55.1003C520 55.0003 519.9 54.9003 519.8 54.8003L519.5 54.5003C519.4 54.4003 519.3 54.3003 519.2 54.2003C517.7 52.8003 516.7 51.1003 516.4 49.7003C516.3 49.0003 516.3 48.4003 516.5 47.7003C516.7 47.0003 517 46.4003 517.3 46.0003C517.6 45.6003 518 45.4003 518.2 45.4003C518.3 45.4003 518.3 45.4003 518.3 45.5003C518.3 45.5003 518.3 45.5003 518.4 45.6003C518.4 45.6003 518.5 45.7003 518.6 45.8003C518.7 45.9003 518.8 46.0003 518.9 46.1003L520.5 47.6003L521 48.1003L521.3 48.3003C521.3 48.3003 521.3 48.3003 521.5 48.6003L521.6 48.8003L521.7 49.0003L521.9 49.2003C522 49.4003 522.1 49.5003 522.5 49.8003C522.6 49.9003 522.8 50.1003 523 50.2003C523.2 50.3003 523.3 50.4003 523.6 50.6003C524.1 50.9003 524.7 51.2003 525.3 51.4003C525.8 51.6003 526.4 51.7003 527 51.7003C527.3 51.7003 527.5 51.7003 527.6 51.7003C527.8 51.7003 527.9 51.7003 528.1 51.6003C528.4 51.6003 528.9 51.5003 529 51.4003L529.5 51.2003C529.7 51.1003 529.9 51.1003 529.9 51.0003L530.5 50.7003C531.5 50.2003 531.9 50.0003 532.5 49.6003C533 49.3003 533.4 49.1003 533.8 48.7003C534.2 48.4003 534.5 48.1003 534.8 47.8003C535.4 47.2003 535.9 46.7003 536.4 46.1003C536.9 45.5003 537.3 44.9003 537.7 44.2003C538.1 43.5003 538.6 42.6003 538.8 41.8003C539.4 40.1003 539.6 38.4003 539.6 37.0003C539.6 35.6003 539.4 34.4003 539.3 33.5003C539.1 32.4003 539 31.7003 539 31.1003C538.9 30.3003 538.9 29.6003 538.9 28.8003C538.9 27.2003 538.8 25.8003 538.8 24.5003C538.8 21.9003 538.6 19.7003 538.3 18.3003C538 16.9003 537.7 16.4003 537.4 16.6003C537.1 16.9003 536.9 17.9003 536.5 19.6003C536 22.4003 535.1 25.9003 534.8 30.0003C534.7 31.1003 534.7 32.1003 534.8 33.3003C534.9 34.5003 535 35.8003 534.9 37.3003C534.8 38.7003 534.3 40.3003 533.4 41.6003C532.5 42.9003 531.5 44.0003 529.9 44.9003C529.3 45.2003 528.7 45.6003 527.9 45.9003C527.7 46.0003 527.4 46.1003 527 46.0003C526.8 46.0003 526.6 45.9003 526.4 45.8003C526.3 45.7003 526.1 45.6003 526.1 45.5003C525.8 45.1003 525.7 44.9003 525.5 44.6003C525.3 44.3003 525.1 44.1003 524.8 43.9003C524.5 43.6003 524.2 43.4003 523.9 43.1003C523.3 42.6003 522.8 42.0003 522.2 41.5003C521.3 40.7003 520.4 40.1003 519.2 39.8003C518 39.6003 516.8 39.8003 515.6 40.4003C513.2 41.5003 511.4 44.1003 510.9 47.1003C510.3 50.1003 511.4 53.5003 513.5 56.2003C514.5 57.6003 515.9 58.8003 517.3 59.8003C518 60.3003 518.9 60.8003 519.2 61.6003C519.5 62.5003 519 63.4003 518.7 64.3003C518 66.0003 516.7 67.5003 515.2 68.6003C513.6 69.8003 511.8 70.7003 509.9 71.5003C508 72.4003 506.1 73.2003 504.1 74.2003C503.6 74.5003 503.1 74.8003 502.7 75.0003C502.2 75.3003 501.8 75.6003 501.3 76.0003C500.4 76.7003 499.6 77.5003 498.8 78.3003C497.2 79.9003 495.6 81.3003 493.6 82.3003C491.6 83.3003 489.3 83.9003 487 84.8003C484.7 85.7003 482.2 86.9003 480.5 89.1003C478.8 91.4003 478.2 94.0003 477 96.1003C475.5 98.8003 473.4 101.1 470.9 103.2C468.4 105.2 465.7 107 463 108.7C460.2 110.4 457.4 112.2 454.7 114.1C454 114.6 453.3 115.1 452.7 115.7C452.4 116 452 116.3 451.7 116.5L451.3 116.8L451 117.1C450.2 117.9 449.4 118.7 448.8 119.6C448.4 120.3 448 121 447.7 121.7C447.5 122.1 447.5 122.5 447.4 122.8C447.4 123 447.3 123.2 447.3 123.4C447.3 123.5 447.3 124 447.1 123.6C446.2 122.1 445.6 120.5 445.2 118.9C444.8 117.3 444.7 115.7 444.7 114.2L444.8 113L445 111.3C445.2 110.2 445.4 109.1 445.8 108C446.5 105.9 447.4 103.8 448.6 102C449.8 100.1 451.3 98.7003 453.1 97.0003C454.9 95.4003 456.9 93.6003 458.5 91.1003C460.1 88.6003 461 85.7003 461.4 83.1003C461.9 79.8003 461.9 76.6003 462.1 73.5003C462.3 70.5003 462.7 67.4003 463.5 64.3003C465 58.1003 467.7 51.9003 471.7 46.2003C473.7 43.4003 476 40.6003 478.7 38.2003C479.4 37.6003 480.1 37.0003 480.7 36.4003C481.4 35.8003 482.1 35.3003 482.9 34.7003C484.4 33.6003 486 32.5003 487.8 31.2003C489.5 29.9003 491.4 28.4003 493 26.6003C494.6 24.9003 496 23.1003 497.3 21.4003C497.9 20.6003 498.6 19.8003 499.2 19.0003C499.8 18.2003 500.5 17.6003 501.1 16.9003C501.7 16.2003 502.5 15.6003 503.2 14.9003C503.9 14.2003 504.7 13.7003 505.5 13.1003C511.3 8.80032 518.3 6.30032 525.1 5.70032C532 5.10032 538.7 6.30032 544.4 9.30032C550.2 12.2003 554.9 16.7003 558.4 21.7003C560.1 24.2003 561.6 26.9003 562.6 29.6003L562.8 30.1003L562.9 30.3003V30.4003C562.9 30.5003 562.9 30.6003 562.9 30.6003C562.9 30.7003 562.9 30.7003 562.9 30.7003C562.8 30.7003 562.7 30.6003 562.6 30.6003H562.5L562.2 30.5003C561.8 30.4003 561.4 30.3003 561 30.2003C560.3 30.0003 559.5 29.8003 558.9 29.6003C557.6 29.2003 556.5 28.8003 555.5 28.4003C552 27.0003 549.2 25.3003 547.1 23.7003C544.9 22.1003 543.3 20.8003 542.2 19.7003C541.6 19.2003 541.1 18.8003 540.7 18.4003C540.3 18.1003 540 17.9003 539.7 17.8003C539.2 17.6003 539 17.9003 539.1 18.8003C539.2 19.2003 539.3 19.7003 539.5 20.3003C539.7 20.9003 540 21.5003 540.4 22.2003C540.8 22.9003 541.3 23.6003 541.9 24.4003C542.5 25.2003 543.2 26.0003 544.1 26.9003C545.8 28.6003 548.1 30.4003 551 32.1003C553.4 33.4003 556.2 34.7003 559.4 35.5003C558.8 36.6003 558.4 38.0003 558.1 39.7003C557.4 43.8003 556.6 50.6003 557.7 59.8003L558.3 63.7003C558.5 64.8003 558.7 65.7003 558.8 66.6003V66.7003H558.7H558.5L558.2 66.6003L557.6 66.5003L557 67.0003H556.9H556.4H554.2C553.4 67.0003 552.8 67.0003 552 67.0003H550.9C550.6 67.1003 550 66.9003 550 67.4003C549.5 68.7003 549.1 70.1003 548.7 71.5003C548.6 72.0003 548.5 72.5003 548.4 72.9003C548.4 73.1003 548.3 73.4003 548.3 73.6003C547.6 72.4003 546.8 71.7003 546.1 71.5003C543.9 71.1003 541.6 70.0003 539.8 68.4003C538.9 67.6003 538.3 66.6003 537.8 65.6003C537.3 64.5003 537.1 63.4003 537.1 62.4003C537.1 62.3003 537.1 62.2003 537 62.1003C536.7 61.9003 535.8 62.1003 534.4 62.9003C533 63.7003 532.4 64.5003 532.4 65.3003C532.5 66.2003 532.7 67.6003 533.7 69.5003C534.7 71.4003 535.9 72.7003 537 73.6003C538 74.5003 539.5 75.5003 541.5 76.2003C543.5 76.9003 545.6 77.2003 547.5 77.0003C547.6 77.0003 547.6 77.0003 547.7 77.0003C547.5 78.3003 547.2 79.6003 546.8 80.7003C546.4 81.9003 545.8 82.9003 545.1 83.6003C544.4 84.2003 543.5 84.7003 542.3 84.9003C541.1 85.1003 539.7 85.1003 538.4 84.9003C537 84.7003 535.5 84.3003 534 83.8003C532.4 83.3003 530.8 82.7003 529 82.2003C527.2 81.7003 524.9 81.1003 522.1 81.4003C520.6 81.5003 519.1 82.0003 518.1 82.5003C514.6 84.3003 513.1 87.6003 513.1 89.7003C513.1 90.7003 513.3 91.3003 513.7 91.6003C514 91.9003 514.4 91.8003 514.8 91.4003C515.6 90.7003 516.5 89.6003 517.8 88.7003C519 87.8003 520.6 87.1003 522.6 86.9003C524.4 86.8003 526.2 87.3003 527.9 87.9003C529.7 88.5003 531.4 89.2003 533.3 89.8003C535.2 90.4003 537.3 91.0003 539.5 91.1003C541.8 91.2003 544.2 91.0003 546.6 89.8003C549 88.7003 551.1 86.4003 552.1 83.8003C553.2 81.2003 553.5 78.6003 553.9 76.2003L554.1 75.3003L554.2 74.7003C554.3 74.4003 554.4 74.1003 554.5 73.8003C554.6 73.5003 554.7 73.3003 554.8 73.0003C554.9 72.9003 554.9 72.7003 555 72.7003L555.5 72.8003C555.8 72.8003 556.1 72.9003 556.4 72.9003L556.8 73.0003H557H557.1H557.2H557.5C559 73.0003 560.5 73.0003 562 73.0003C562.8 73.0003 563.6 73.0003 564.3 73.0003H565.5C565.9 73.0003 566.4 73.0003 566.5 72.9003C565.5 69.3003 564.2 65.4003 563.3 61.2003C563.2 60.6003 563.1 60.0003 563 59.4003C562.9 58.8003 562.9 58.2003 562.8 57.7003C562.7 56.5003 562.6 55.4003 562.5 54.2003C562.2 49.4003 562.5 44.5003 563.3 39.4003C563.4 38.6003 563.5 37.9003 563.6 37.2003C564.1 37.3003 564.7 37.4003 565.3 37.4003C566 37.4003 566.8 37.5003 567.6 37.5003C568 37.5003 568.4 37.5003 568.8 37.5003C569 37.5003 569.2 37.5003 569.4 37.5003H569.7H569.9H570C568.5 22.8003 557.1 6.70032 539.6 1.70032C531 -0.799681 521.2 -0.399681 512.2 3.10032C507.7 4.80032 503.4 7.30032 499.6 10.5003C498.6 11.3003 497.7 12.2003 496.8 13.0003C496 13.9003 495.1 14.8003 494.2 15.8003C492.6 17.7003 491.2 19.7003 489.6 21.6003C488.1 23.5003 486.5 25.0003 484.6 26.5003C482.7 28.0003 480.6 29.3003 478.5 30.9003C474.3 34.1003 470.5 37.9003 467.3 42.3003C460.8 51.0003 456.6 61.8003 455.7 73.3003C455.5 76.2003 455.5 78.9003 455.2 81.4003C454.9 83.9003 454.4 86.3003 453.3 88.1003C452.3 89.9003 450.4 91.6003 448.3 93.6003C447.2 94.6003 446.1 95.7003 445 97.0003C444.7 97.3003 444.5 97.6003 444.2 97.9003L443.5 98.9003C443 99.6003 442.6 100.3 442.2 101C440.6 103.8 439.4 107 438.8 110.2C438.6 111 438.5 111.8 438.4 112.6L438.3 113.2V114.1V115.8C438.3 116.4 438.3 117 438.4 117.5L438.5 119.2C438.5 119.8 438.7 120.3 438.8 120.8L439.1 122.4C439.3 123.5 439.7 124.4 440 125.4C440.3 126.3 440.7 127.2 441.1 128.2L442.4 130.8L443.8 133.4L444.6 134.8L445 135.5L445.1 135.7C445.1 135.8 445.2 135.8 445.2 135.8V135.7L445.3 135.4L445.6 135.3C445.9 135.4 446.4 135.7 447.6 137C447.6 137 447.6 137 447.6 137.1C444.2 144.8 440.8 154.2 437.9 165.3C435 176.5 433.1 186.6 431.6 195.6C431.2 197.8 430.9 200 430.6 202.1C430.3 204.2 430 206.2 429.7 208.2C429.1 212.1 428.7 215.7 428.2 219.1C428.2 219.3 428.2 219.4 428.1 219.6C427.8 217.9 427.5 216.2 427.3 214.5C426.7 210.2 426.1 205.8 425.6 201.3C423.5 183.4 422.1 164.2 421.7 144C421.7 141.6 421.6 139.5 421.5 137.5C421.1 129.6 420.2 127.2 418.7 130.4C417.2 133.6 416.4 139.4 416.5 147.8C416.6 157.4 417 172.5 418.9 193C419.4 198.1 419.9 203 420.5 207.6C421.1 212.2 421.6 216.5 422.3 220.6C423 224.7 423.9 228.5 425.2 232.1C426.5 235.6 428.1 238.8 430.2 241.5C432.2 244.2 435.1 246.7 438.6 248.4C439.5 248.8 440.4 249.1 441.3 249.5C442.2 249.8 443.2 250 444.2 250.3L444.9 250.5L445.6 250.6C446.1 250.7 446.6 250.7 447.1 250.8C447.6 250.9 448.1 250.9 448.6 251C449.1 251 449.5 251.1 450 251.1C450.5 251.1 451 251.2 451.6 251.2C451.4 251.3 451.3 251.5 451.1 251.7C450.3 252.6 449.7 253.8 449.3 255.3C449.1 256.1 448.9 256.9 448.8 257.8C448.7 258.7 448.5 259.7 448.4 260.8C448.3 262 448.1 263.4 447.9 265C447.7 266.6 447.4 268.3 447.1 270.2C446.8 272.1 446.3 274.2 445.9 276.4C445.5 278.6 444.8 281 444.2 283.6C441.6 293.8 438.9 301.7 437 307.6C435.1 313.5 432.7 320.7 430 329.5C427.4 338.3 425.3 346.5 424.1 354.1C423.9 355.1 423.8 356 423.7 356.6C423.4 361.3 424.2 363.3 425.9 362.5C427.6 361.8 428.8 359.2 429.6 355C430.8 349.3 432.3 343.1 434.3 336.4C436.3 329.7 438.6 322.5 441.1 314.7C443.6 306.9 446.3 298.5 448.7 289.3C451.1 280.1 453.2 270 453.9 258.9C454 257.6 453.9 256.4 453.9 255.3C453.7 253.1 453.4 251.7 453 251.1C459.6 251.6 466.7 252.1 474.3 252.7C481.5 253.2 488.5 253.8 495.2 254.3C495.1 256.3 495.6 258.8 496.5 261.8C498.1 267 500.8 275.2 504.7 286.2C508.7 297.2 512.1 305.9 514.6 312.3C517.2 318.7 520.4 326.5 524.6 335.6C527 341 529.4 346 531.7 350.8C531.7 352.2 531.8 353.4 531.8 354.2C532.3 360.9 533.3 363.6 534.9 362.3C535.4 361.8 535.9 361.1 536.3 360C536.4 360.1 536.4 360.2 536.5 360.4C537 361.4 537.4 362.2 537.8 362.8C540.4 367.1 542.2 368.4 543.2 366.8C544.2 365.2 543.6 362.2 541.5 357.9C540.2 355 538.7 352 537.3 348.8C537.2 340.6 537 331.5 536.7 321.7C536.3 311.2 535.9 299.8 535.5 287.5C535.2 277.6 534.9 267.2 534.8 256.2C537.8 255.9 538.8 255.2 537.8 254.2C537.2 253.6 536.2 253 534.8 252.5C534.8 251.9 534.8 251.2 534.8 250.5C537 250.4 539.1 250.4 541.3 250.4H542.3H543H544.5H545.9H546.6H546.9H547.1C547.1 250.4 547.2 250.4 547.2 250.5C547.1 251.4 546.9 252.2 546.8 253L546.6 254.2C546.6 254.4 546.5 254.6 546.5 254.8L546.4 255.8C546.3 257.1 546.2 258.4 546.1 259.7C546 261 546 262.3 546 263.6C545.9 268.9 546.2 274.1 546.9 279.4C547.4 283.4 548.2 287.7 549.3 292.1C550.4 296.5 551.9 301.1 553.7 305.7C555.4 310.3 557.3 315 558.8 319.8C559.5 322.2 560.1 324.7 560.5 327.2C560.9 329.7 561 332.2 560.8 334.6C560.7 335.8 560.5 337 560.2 338.2C559.9 339.5 559.5 340.8 559.2 342.2C558.8 343.6 558.5 345.1 558.2 346.8C558 348.4 557.8 350.2 558.1 352.3C558.3 354.3 559.1 356.6 560.6 358.5C561 358.9 561.4 359.4 561.7 359.8C562.1 360.2 562.6 360.6 563 360.9C563.9 361.6 564.9 362.1 565.8 362.5C567.6 363.3 569.2 363.7 570.7 364C572.1 364.3 573.5 364.5 574.9 364.8C580.5 365.7 586 366 591.2 365.9C596.4 365.8 601.4 365.4 606.1 365C608.7 364.8 610.7 364.7 612.3 364.6C617.9 364.1 621.7 363.8 624 363.4C624.2 363.4 624.4 363.3 624.6 363.3C624.6 363.3 624.6 363.3 624.6 363.4C624.7 363.6 624.8 363.7 624.9 363.8C625.2 364 625.5 364.1 626 364C626.8 363.8 627.8 362.5 628.2 360.3C628.4 359.2 628.5 357.8 628.3 356.4C628.2 355.7 628 354.9 627.7 354.1C627.4 353.4 626.9 352.6 626.2 352.1C625.6 351.7 625 351.3 624.3 350.8C619 347.4 612.9 344.8 606.6 341.9C603.5 340.4 600.3 338.8 597.3 337C594.3 335.1 591.4 332.9 589 330.1C587.9 328.7 586.8 327.2 586 325.6C585.1 324 584.5 322.2 583.9 320.4C582.8 316.8 582.3 312.9 582.1 308.9C581.9 304.9 582.1 300.8 582.5 296.6C582.8 292.4 583.3 288.1 583.9 283.7C585 274.9 586.3 265.7 586.4 255.9C586.5 251 586.2 245.9 585.3 240.8C584.4 235.7 583 230.2 579.6 225.2C578.2 223.2 576.6 221.3 574.8 219.7C574.6 219.4 574.4 219 574.1 218.7C573.8 218.3 573.4 217.9 573.1 217.7C572.5 217.2 571.9 217 571.4 217.1C570.4 216.4 569.4 215.8 568.4 215.2L569.1 214.1L564.8 213.3C560.1 211.1 555.2 209.5 550.6 208C546.4 206.5 541.9 204.9 537.3 203.2C537.4 201.7 537.6 200.3 537.6 199C537.7 197.5 537.7 196.2 537.7 195.2C540.8 195.8 545.1 196 550.7 195.9C559.5 195.6 573.3 195.2 592.1 195C610.9 194.8 625.8 194.8 636.8 194.9C647.8 195 661.3 195.2 677.3 195.6C693.4 196 707.9 196.5 721 197.1C722.8 197.2 724.3 197.2 725.4 197.2C733 197.6 736.3 196.7 734.8 195.1ZM719.3 128.7H719.2C719.2 128.7 719.2 128.7 719.3 128.7ZM646.3 122.1C646.1 122.1 646 122.1 645.8 122.1C645.6 121.8 645.3 121.5 644.9 121.2C645.2 121.2 645.4 121.3 645.7 121.3C645.9 121.6 646.1 121.8 646.3 122.1ZM713.1 133.3L713.2 133.4C713.4 133.5 713.5 133.5 713.7 133.6C713.4 133.6 713.1 133.6 712.8 133.5C712.9 133.4 713 133.4 713.1 133.3ZM715.8 129.7C715.2 129.8 714.7 129.8 714.3 129.7C714.2 129.5 714.1 129.2 714 129C714.3 129 714.7 129 715 129H715.1C715.3 129 715.4 129 715.5 129C716.4 129.1 717.3 129.1 718.2 129.2H718.1C717.5 129.4 716.8 129.6 715.8 129.7ZM719 129.3C718.9 129.3 718.9 129.3 718.8 129.3C718.9 129.3 719 129.3 719 129.3ZM635.1 123.6C635.1 123.4 635.1 123.2 635.1 123C635.6 123.2 636.2 123.5 636.7 123.8C636.4 123.9 636.1 124.1 635.7 124.2L635.1 123.6ZM665.6 131.7C666.4 131.7 667.3 131.6 668.1 131.6C669 131.8 670.1 132.2 671.7 132.6C666.6 132.4 661.2 132.3 655.6 132.2C658.8 132 662.2 131.9 665.6 131.7ZM702.5 170.4C702.4 170 702.2 169.6 702 169.3C702.3 169.4 702.5 169.4 702.8 169.5C702.7 169.8 702.6 170.1 702.5 170.4ZM626.4 167.9C626.5 167.8 626.6 167.6 626.7 167.5C627 167.7 627.3 167.8 627.6 167.9C629.2 168.3 631 168.8 632.8 169.4C630.4 169.3 628 169.2 625.5 169.1C625.8 168.6 626.1 168.3 626.4 167.9ZM626.3 179.1C625.6 177.6 624.8 176 623.9 174.4C627.5 174.6 632 174.9 637.4 175.3C646.1 176 653 176.6 658 177.1C663.1 177.6 669.3 178.2 676.7 179.1C684.1 180 690.8 180.7 696.8 181.4C697.6 181.5 698.3 181.6 698.8 181.6C699.1 181.6 699.4 181.6 699.7 181.6C699.7 181.7 699.8 181.7 699.8 181.8C699.6 182.4 699.4 183.1 699.2 183.8C698 182.9 696.3 182.4 694.2 182.2C690.8 181.9 685.3 181.4 677.9 181C670.5 180.6 664.6 180.3 660.3 180.2C656 180.1 650.6 180 644.2 179.9C637.8 179.9 632 180 626.8 180.3C626.7 179.9 626.5 179.5 626.3 179.1ZM706 161.5C705.9 161.7 705.8 161.9 705.8 162.1C705.2 161.9 704.4 161.8 703.6 161.7C695.9 161 686.5 160.7 675.5 160.8C664.8 160.9 652.6 161.4 639.1 162C639.4 161.3 639.7 160.5 640 159.7C640.6 157.7 641.1 155.4 641.3 152.9C641.8 148.4 641.5 143.4 640.9 138C641.4 138 641.8 138 642.3 138C652.6 138.2 660.7 138.5 666.7 138.7C672.7 138.9 680.1 139.2 688.8 139.5C697.6 139.9 705.5 140.2 712.7 140.5C713.4 140.5 714 140.6 714.5 140.6C713.4 143.3 712.4 145.7 711.6 147.7C710.1 151.3 708.2 155.9 706 161.5ZM634.6 131.3H634.7C635.9 131.6 637 131.8 638.2 132C637 132 635.7 132 634.4 132C634.5 131.8 634.5 131.6 634.6 131.3ZM619.6 137.7C623.3 137.7 628.6 137.7 635.5 137.8C635.5 137.9 635.5 138 635.5 138C635.6 139.4 635.7 141.7 635.7 144.8C635.7 147.9 635.5 150.2 635.4 151.9C635.2 153.6 634.9 155.7 634.3 157.9C634 158.8 633.8 159.7 633.5 160.5C632.6 160.3 631.4 160.1 629.8 159.8C628 159.5 626.5 159.2 625.4 159C624.3 158.8 623 158.6 621.4 158.4C619.8 158.2 618.4 158 617.2 157.9C617.2 157.9 617.2 157.9 617.1 157.9C617.4 157.6 617.8 157.3 618.1 156.9C619.4 155.7 620.4 154.9 621.2 154.2C622 153.6 622.9 152.8 624 152C625.1 151.2 626.1 150.4 626.9 149.7C627 149.6 627.1 149.5 627.2 149.5C627.4 148.9 626.8 148.2 625.3 147.5C623.8 146.7 622.8 146.5 622.1 146.9C619.2 148.5 615.8 151.2 612.3 155.3C612 154.6 611.7 153.8 611.4 153C610.9 151.3 610.7 149.4 610.9 147.6C611.1 145.9 611.8 143.9 612.6 142C613 141 613.6 140.1 614.1 139.2C614.5 138.6 614.9 138 615.4 137.5C616.9 137.6 618.2 137.7 619.6 137.7ZM572.3 142.9L572.8 141.9C573.2 141.2 573.6 140.6 574.1 139.9C574.4 139.6 574.5 139.2 574.7 138.9C574.9 138.5 575.1 138.2 575.2 137.9C575.4 137.6 575.5 137.3 575.6 137C575.7 136.7 575.8 136.4 575.9 136.1C575.9 136.1 575.9 136.1 575.9 136C576.4 136.2 576.9 136.3 577.5 136.5C580.1 137 584.1 137.9 589.4 139.3C592.1 140 594.5 140.8 596.5 141.4C597 141.6 597.5 141.7 598 141.9C598.1 141.9 598.2 142 598.3 142L598.5 142.1C598.6 142.2 598.8 142.2 598.9 142.3C599.4 142.5 599.8 142.8 599.9 143.3C600.1 143.7 600.1 144.2 600.1 144.6V144.9C600.1 145 600.1 145.3 600.2 145.5C600.2 146 600.3 146.4 600.3 146.9C600.4 148.8 600.5 150.8 600.2 152.6C599.9 154.4 599.3 155.7 598.6 156.4C598.4 156.6 598.2 156.7 598.1 156.9C598 156.9 597.9 157 597.7 157C597.4 157.1 597.1 157.1 597 157C597 157 596.9 157 596.9 156.9V157C596.9 157.1 596.9 157.1 596.9 157.2C596.9 158.2 596.7 158.4 596.7 158.4C596.5 158.7 596.3 159 596.1 159.3C595.7 160 595.6 160.7 595.9 161.4C596.2 162 597 162.5 598.1 162.4C599.5 162.3 601.2 161.8 602.5 160.6C603.8 159.4 604.9 157.8 605.5 155.9C605.6 155.6 605.7 155.2 605.8 154.9C606.7 157.7 608.2 160.1 610 161.9C610.3 162.2 610.5 162.4 610.7 162.5C612.2 163.4 613.2 162.9 613.8 161.3C614 160.8 614.1 160.4 614.1 160C614.6 159.9 615.1 159.8 615.3 159.5C615.5 159.3 615.8 159 616.1 158.7C616.1 159.2 616.2 159.8 616.4 160.6C616.9 162.2 617.6 163 618.3 163.2C619.6 163.5 621 163.9 622.6 164.2L622.5 164.3C621.7 165.3 621 166.1 620.5 166.8C620.1 167.3 619.7 167.9 619.2 168.7C618.5 168.7 617.9 168.7 617.2 168.6C617 168.5 616.8 168.4 616.5 168.3C615.8 168 615.1 167.8 614.3 167.5C612.8 167 611.3 166.7 609.8 166.4C608.3 166.1 606.7 165.9 605.2 165.7C603.7 165.5 602.2 165.2 600.6 165C600.1 164.9 599.7 164.9 599.4 165C599 165 598.7 165.1 598.4 165.3C598.3 165.1 598.3 165 598.2 164.8C598 164.4 597.8 164 597.5 163.6C597 162.8 596.4 162.1 595.8 161.5C594.4 160.3 592.6 159.6 590.8 159.5C590.4 159.5 590.1 159.5 589.8 159.5C589.8 159.5 589.8 159.5 589.8 159.4C590.9 156.9 592.4 154 594.6 151.8C594.7 151.7 594.7 151.7 594.6 151.6C594.4 151.4 593.5 151.3 592 151.3C590.4 151.3 589.5 151.5 589.1 151.9C588.7 152.3 588.2 152.9 587.5 153.9C586.8 154.9 586.4 155.7 586.1 156.4C585.8 157 585.5 157.9 585.2 158.9C585.1 159.3 585 159.7 584.9 160.1C583 160.3 581.1 160.6 579.2 160.8C579.1 160.8 579 160.8 578.8 160.8C578.8 160.5 578.8 160.2 578.7 160C577.8 157.9 576.5 155.6 575.2 153C574.5 151.7 573.8 150.3 573.1 148.9C572.4 147.5 571.8 146 571.4 144.5C571.4 144.4 571.3 144.3 571.3 144.2C571.4 143.9 571.5 143.7 571.7 143.4L572.3 142.9ZM568.9 151.9C568.9 152 569 152.1 569 152.2C569.8 154.1 570.5 155.5 571 156.6C571.5 157.7 572.2 158.9 573.1 160.4C573.3 160.7 573.4 161 573.6 161.3C570.7 161.5 567.8 161.7 564.9 161.9C560 162.2 554.9 162.3 549.9 162.3C547.4 162.3 544.8 162.3 542.2 162.2C541 162.2 539.4 162.2 538.9 162.1C538.6 162 538.2 161.9 538 161.7C537.9 161.6 537.8 161.4 537.8 161.2C537.7 161 537.8 161.1 537.6 160.3C537.3 158.9 537.1 157.4 536.8 156C536.7 155.4 536.6 154.7 536.4 154.1C537.1 154.1 537.9 154.1 538.8 154.1C543 153.8 547.5 153.5 552.4 153.2C554.9 153 557.4 152.9 560.1 152.7C560.8 152.7 561.4 152.6 562.1 152.6C562.8 152.6 563.4 152.5 564.4 152.4C565.3 152.3 566.3 152.2 567.2 152.2C567.9 152 568.4 152 568.9 151.9ZM536.9 131.7C541.1 132.2 547.7 133.1 556.7 134.3C559 134.6 561.1 134.8 563.1 135.1C564.2 135.2 564.8 135.3 565.4 135.4C566 135.5 566.5 135.6 567.1 135.7C567.6 135.8 568.1 135.9 568.5 136.1C568.9 136.3 569.2 136.7 569.2 137.2C569.1 137.7 568.8 138.1 568.5 138.4C568.2 138.7 567.9 139 567.7 139.3C567.4 139.6 567.2 140 566.9 140.3L566.7 140.6C566.7 140.6 566.6 140.8 566.6 140.9L566.4 141.2C566.2 141.7 566 142.1 565.8 142.6C565.6 143.1 565.4 143.6 565.3 144.1C565.2 144.4 565.1 144.6 565.1 144.9C565.1 145.1 565 145.1 565 145.2L564.9 145.3C564.8 145.7 564.7 146.1 564.6 146.5C564.6 146.6 564.4 146.5 564.3 146.5C564.2 146.5 564.1 146.5 563.9 146.5C563.7 146.5 563.4 146.5 563.2 146.4C563.1 146.4 563 146.4 562.8 146.4C562.8 146.4 562.8 146.4 562.7 146.4H562.4C562.2 146.4 562 146.4 561.8 146.4C561 146.5 560.2 146.5 559.4 146.6C551.6 147.2 544.6 147.8 538.3 148.5C537.4 148.6 536.7 148.7 536.2 148.8C536 148.8 535.8 148.9 535.6 148.9C535.5 148.3 535.4 147.8 535.3 147.2C534.3 141.8 533.3 136.2 532.3 130.6C533.5 131.1 535 131.5 536.9 131.7ZM451.2 129L451.6 127.2L451.7 126.7C451.7 126.6 451.8 126.3 451.8 126.3L452 125.8L453 124C453.1 123.7 453.4 123.5 453.5 123.3L454.1 122.7C454.5 122.3 454.8 121.9 455.3 121.5C455.7 121.1 456.2 120.7 456.6 120.4C456.7 120.3 456.8 120.2 456.9 120.1C456.4 120.9 455.8 121.8 455.2 122.7C454.4 124 453.6 125.4 452.8 126.9C452.4 127.6 451.9 128.4 451.5 129.2C451.2 129.7 451 130.3 450.7 130.8L451.2 129ZM433.6 224.4V224.1L433.8 223.1C434 221.7 434.2 220.3 434.4 218.9C435 214.4 435.6 209.8 436.3 205.1C437.7 195.8 439.2 186.2 441.3 176.4C443.4 166.6 446 156.7 449.7 147C453.4 137.2 458.1 127.6 464.3 118.8C465.8 116.8 467.2 114.9 468.3 113.2C468.5 112.8 468.8 112.5 469 112.2C471.6 110.5 474.2 108.6 476.7 106.2C479 104 481.1 101.3 482.5 98.2003C483.2 96.6003 483.7 95.3003 484.1 94.4003C484.6 93.5003 484.9 93.1003 485.5 92.6003C486 92.1003 486.8 91.7003 487.8 91.3003C488.2 91.3003 488.7 91.2003 489.3 91.1003C492.2 90.8003 496.1 90.8003 500.4 92.0003C504.8 93.2003 509.6 95.7003 514.1 100.1C515.3 101.4 516.6 102.9 517.7 104.5C518.8 106.2 519.9 108.1 520.8 110.1C522.7 114.2 524.1 119 525.2 124.4C526.3 129.8 527.3 135.7 528.4 142.1C529 145.3 529.6 148.6 530.2 152.1C530.5 153.8 530.8 155.6 531.1 157.4C531.3 158.3 531.4 159.2 531.6 160.1C531.8 161 531.9 161.9 532.1 162.9C532.4 164.1 532.9 165.4 533.8 166.3C535 167.5 536.7 168 538.4 168.2C540 168.3 541.3 168.3 542.8 168.4C545.6 168.5 548.5 168.5 551.3 168.5C557 168.5 562.7 168.3 568.4 167.9C574.1 167.6 579.8 167 585.4 166.4L587.5 166.1C588.2 166 588.9 165.9 589.5 165.9C589.8 165.9 590 165.9 590.2 165.9C590.4 165.9 590.6 165.9 590.8 166C591.2 166.1 591.6 166.2 591.9 166.4C592.2 166.6 592.5 166.9 592.7 167.3C592.9 167.7 593 167.9 593.3 168.5C593.5 169 593.7 169.7 593.9 170.3C594.1 170.9 594.3 171.6 594.4 172.2C594.9 174.2 595.2 176.3 595.4 178.4C595.5 179.5 595.5 180.6 595.6 181.7V182.1V182.3V182.7C595.6 183 595.6 183.2 595.5 183.5C595.5 183.8 595.4 184 595.4 184.3C595.4 184.4 595.4 184.6 595.3 184.7H594.9C594.3 184.7 593.8 184.7 593.2 184.7C590.8 184.8 588.2 184.9 585.7 185C574.9 185.5 563.2 186.1 550.4 186.7C544 187 537.8 187.3 531.7 187.6C530.9 187.6 530.1 187.7 530.2 187.6C530.1 187.6 529.9 187.5 529.8 187.5C529.7 187.4 529.6 187.3 529.6 187.2L528.4 185.7C526.7 183.4 525 181.1 523.3 178.8C520.1 174.1 517 169.5 514.6 164.9C514.3 164.3 514 163.8 513.7 163.2C513.4 162.6 513.1 162.1 512.9 161.5C512.7 161 512.4 160.4 512.2 159.9L511.7 158.4C510.9 155.8 510.1 153.3 509.3 150.7C508.5 147.9 507.8 145.8 507.4 144.3C505.7 138.5 505.2 134.8 504.8 132.7C504.4 130.6 503.9 129.8 503 130.8C502.1 131.7 501.3 133.9 501.2 137.5C501.1 141.1 502 145.9 503.7 151.7C504.2 153.2 504.6 154.8 505.1 156.4C505.6 158 506 159.6 506.5 161.1C507.6 164.2 509.2 167.3 510.9 170.3C511 170.4 511.1 170.6 511.1 170.7C510.5 170.8 509.8 171 509 171.3C506.6 172.3 503.6 174.6 501.4 178.7C500.7 180.1 500.1 181.5 499.6 183.1C499.2 184.6 498.9 186.2 498.8 187.9C498.7 189.5 498.8 191.2 498.7 192.9C498.6 194.6 498 196.2 496.9 197.5C495.9 198.8 494.5 199.9 493.2 201.1C492.5 201.7 491.9 202.3 491.2 202.8C490.5 203.3 489.8 203.9 489.1 204.5C486.3 206.7 483.2 208.8 480.1 210.8C478.5 211.7 476.9 212.7 475.2 213.6C474.4 214 473.5 214.5 472.7 214.9C471.8 215.3 471 215.7 470.1 216.1C468.4 217 466.5 217.6 464.7 218.4C463.8 218.7 462.8 219.1 461.9 219.4L460.5 219.9L459.1 220.3C455.3 221.6 451.3 222.5 447.2 223.3C445.1 223.6 443.1 224 441 224.2C440.7 224.2 440.4 224.3 440.2 224.3C439.9 224.2 439.5 224.2 439.2 224.2C438.2 224.2 437.3 224.3 436.6 224.6C436.4 224.6 436.2 224.6 436 224.6C435.4 224.6 434.9 224.6 434.3 224.6H433.9H433.8L433.6 224.4ZM570.8 224.6C571 225.1 571.2 225.6 571.4 226.1C571.7 226.7 571.9 227.4 572.1 228.1C572.3 228.8 572.5 229.6 572.7 230.5C572.8 230.8 572.8 231 572.8 231.3C572.2 229.1 571.5 226.8 570.6 224.4C570.6 224.5 570.7 224.5 570.8 224.6ZM562.1 311.5C561.6 310.2 561.1 308.9 560.6 307.7C561.5 308.1 562.7 308.6 564.4 309.1C566.5 309.7 568.2 309.9 569.5 310.1C570.8 310.2 572.4 310.3 574.4 310.2C574.8 310.2 575.2 310.1 575.6 310.1C575.8 313.3 576.2 316.6 577 319.9C575.4 319.7 573.7 319.7 571.7 319.9C570 320.1 568.3 320.5 566.5 321C566.1 321.1 565.7 321.2 565.3 321.4C564.5 318 563.3 314.7 562.1 311.5ZM573.5 304.4C573.6 304.2 573.7 304 573.8 303.7C574.1 302.9 574.2 302.3 574.3 301.7C574.4 301.6 574.6 301.5 574.7 301.4C575.1 301 575.5 300.5 575.9 300C575.8 301.4 575.8 302.9 575.7 304.4C574.9 304.4 574.2 304.4 573.5 304.4ZM523.8 239.9C524.4 239.5 525.1 239.1 525.7 238.6C526.2 238.2 526.7 237.8 527.1 237.3C527.2 237.4 527.2 237.4 527.3 237.5C527.8 238 528.4 238.2 529 238.3C529 238.5 529 238.7 529 238.8C527.3 239.4 525.6 239.7 523.8 239.9ZM573.4 290.2C573.4 290.1 573.4 290 573.4 289.9L573.6 290C573.5 290 573.4 290.1 573.4 290.2ZM559.4 272.4C559.5 272.4 559.5 272.4 559.4 272.4V272.4ZM551.9 228.4C551.8 228.5 551.7 228.5 551.6 228.6C551.6 228.5 551.6 228.4 551.6 228.3C551.8 228.2 551.9 228 552.1 227.9C552.1 227.9 552.2 227.9 552.2 227.8C552.1 228 552 228.1 551.9 228.4ZM561.5 259.6C560.8 259.2 560.1 258.7 559.5 258.1C559.9 257.8 560.3 257.5 560.7 257.2C560.9 257.1 561.2 257 561.4 256.8C561.5 257.8 561.5 258.7 561.5 259.6ZM566.3 286C566.3 285.9 566.2 285.9 566.2 285.8C566.5 284.9 566.8 284 567 283C567.1 283.9 567.2 284.8 567.2 285.8C566.9 285.9 566.6 286 566.3 286ZM542.2 228.3C542.3 228.6 542.2 228.9 542 229.1C541.8 229.3 541.6 229.4 541.3 229.5L541.1 229.6C541 229.6 541.1 229.6 540.8 229.7C540.4 229.9 539.9 230.1 539.4 230.3C538.9 230.5 538.3 230.7 537.8 230.9C538.6 230.4 539.4 229.8 540 229C540.1 228.9 540.1 228.8 540.2 228.7C541 228.5 541.6 228.3 542.2 228.3ZM489.3 228.1C489.4 228.1 489.4 228.2 489.4 228.2C489.4 228.2 489.4 228.2 489.3 228.1ZM485.6 228.8C486.1 228.7 486.7 228.6 487.2 228.5L488.5 230.5C488.4 230.6 488.4 230.7 488.3 230.8C487.6 230.5 487 230.2 486.2 229.9C485.8 229.7 485.4 229.6 485 229.4C485.2 229.1 485.4 228.9 485.6 228.8ZM523.2 217C523.3 216.9 523.5 216.8 523.6 216.7C523.6 216.8 523.5 217 523.5 217.1C523.4 217.1 523.3 217.1 523.2 217ZM479.6 233.8C479.8 234 480.1 234.1 480.3 234.3C479.8 234.3 479.3 234.3 478.9 234.3C479.1 234.1 479.3 233.9 479.6 233.8ZM529.2 218C529.2 217.9 529.2 217.8 529.3 217.8C529.5 217.8 529.6 217.9 529.8 217.9C529.5 217.9 529.4 217.9 529.2 218ZM489.4 237.3C489.6 237.4 489.8 237.5 490 237.6C489.7 237.5 489.4 237.5 489.1 237.4C489.2 237.4 489.3 237.4 489.4 237.3ZM554 236.7C553.9 237 553.9 237.3 553.8 237.6H553.7C553.7 237.3 553.8 237 554 236.7ZM561.2 270.6C561.2 271.1 561.1 271.6 561.1 272.1C560.9 272.2 560.7 272.3 560.5 272.3C560.4 272.3 560.3 272.3 560.2 272.4C560.3 272.2 560.3 271.9 560.4 271.7C560.6 271.3 560.8 271 561 270.7C561.1 270.7 561.1 270.6 561.2 270.6ZM573.4 269C573.4 269.1 573.4 269.2 573.3 269.3C573.2 269 573.1 268.6 572.9 268.3C573.4 267.2 573.9 266.1 574.3 264.9H574.4C574 266.4 573.7 267.8 573.4 269ZM496.7 208.5C496.8 208.3 496.9 208.1 497 207.8C497.2 207.8 497.3 207.8 497.5 207.8C497.2 208 496.9 208.3 496.7 208.5ZM478 224.2C477.9 224.2 477.9 224.3 477.8 224.3C476.6 224.4 475.4 224.8 474.3 225.4C474.1 225.3 474 225.3 473.8 225.2C475.1 224.8 476.5 224.4 478 224.1V224.2ZM558.7 225.9C558.7 225.7 558.6 225.4 558.6 225.2C559.1 225.2 559.5 225.2 559.9 225.3C560.4 225.4 560.8 225.5 561.2 225.8C560.4 225.8 559.6 225.8 558.7 225.9ZM552.2 258C552.2 258 552.2 258.1 552.1 258.1C552.1 258 552.1 258 552.2 258C552.2 257.9 552.1 257.9 552.2 258ZM555 276.3C555.1 276.4 555.2 276.6 555.3 276.7C555.2 276.9 555.1 277 555 277.2C555 277 555 276.7 555 276.3ZM573 298.3C572.9 298.4 572.9 298.4 572.8 298.5C572.8 298.5 572.8 298.5 572.8 298.4C573.4 297.8 573.7 297.1 573.8 296.3C574 296.2 574.3 296 574.5 295.9C574 296.9 573.6 297.7 573 298.3ZM450.2 239.5C450.2 239.4 450.3 239.3 450.3 239.3C450.7 239.6 451.1 239.9 451.6 240.1C451.3 240 451.1 239.9 450.8 239.8C450.7 239.7 450.4 239.6 450.2 239.5ZM536.7 242.2C537.1 242.5 537.6 242.7 538 242.9C537.8 242.9 537.6 242.9 537.4 243C536.6 243.1 535.7 243.1 534.8 243.2C535.5 242.9 536.1 242.6 536.7 242.2ZM578.2 276.3C578.1 276 578 275.6 577.9 275.3C578.2 274.5 578.4 273.7 578.6 272.8C578.5 273.9 578.4 275.1 578.2 276.3ZM445 244.2C444.5 244.1 444 243.9 443.6 243.8C443.3 243.6 443 243.4 442.8 243.1C442.7 242.9 442.5 242.8 442.4 242.6L442.2 242.4L442.1 242.3C442 242.2 441.9 242.1 441.9 242C443.3 242.8 444.6 243.4 445.8 244C445.7 244.1 445.6 244.1 445.4 244.2C445.4 244.2 445.3 244.2 445.3 244.3C445.1 244.3 445 244.3 445 244.2ZM446.5 244.4C446.6 244.5 446.7 244.5 446.8 244.6C446.6 244.6 446.4 244.5 446.2 244.5C446.3 244.5 446.4 244.5 446.5 244.4ZM503.7 197.4C503.8 197.2 503.9 197 503.9 196.8C504.2 197 504.5 197.2 504.8 197.5C504.5 197.4 504.1 197.4 503.7 197.4ZM432.6 230.9C432.6 231 432.5 231 432.5 231.1C432.3 231.6 432.2 232 432.2 232.5C432.1 232.6 432.1 232.7 432 232.7C432 232.7 432 232.8 431.9 232.8C431.6 232.2 431.3 231.6 431.1 230.9C431.6 230.9 432.1 230.9 432.6 230.9ZM522.5 315.8C515.6 299.2 508.1 280 500.7 258.1C500.3 256.9 499.9 255.8 499.4 254.8C507.3 255.4 514.8 255.9 521.9 256.4C523.9 256.5 525.5 256.6 526.7 256.7C527.4 256.7 528 256.7 528.6 256.7C528.6 265.7 528.8 273.3 528.9 279.4C529.1 288.7 529.5 300.2 530.1 313.7C530.4 321.4 530.7 328.6 531 335.4C528.3 329.4 525.5 322.9 522.5 315.8ZM525.9 251.2L528.7 251.1C528.7 251.3 528.7 251.4 528.7 251.6C527.9 251.4 526.9 251.3 525.9 251.2ZM558.5 301.9C558.4 301.5 558.2 301.1 558.1 300.7C558.5 301.2 558.9 301.6 559.4 302C559.2 302.2 559 302.5 559 303C558.8 302.7 558.6 302.3 558.5 301.9ZM585.6 336C589.5 340 593.9 342.6 598.1 344.8C602.3 347 606.4 348.7 610.2 350.4C614 352.1 617.5 353.8 620.6 355.6C621.5 356.2 622.2 356.6 622.7 356.9C622.7 356.9 622.8 357.1 622.9 357.3C623 357.5 623.1 357.8 623.2 358.1C623.4 358.7 623.5 359.4 623.7 360C623.8 360.3 623.8 360.6 623.8 360.8C622.7 360.4 621.2 360 619.3 359.8C616 359.4 611.6 359.3 606.1 359.6C596.2 360.2 585.4 361.1 574.4 358.9C573 358.6 571.6 358.4 570.3 358C569 357.6 567.7 357.2 566.6 356.4C565.6 355.7 564.8 354.6 564.4 353.4C564 352.2 563.9 350.8 564 349.4C564.2 346.6 565.1 343.7 565.9 340.7C566.7 337.6 567.1 334.2 566.9 330.9C566.8 329.4 566.7 327.9 566.5 326.5C567.2 326.4 568 326.2 569 326C570.9 325.6 572.4 325.4 573.5 325.3C574.6 325.2 575.8 325.2 577.3 325.3C577.9 325.4 578.4 325.4 579 325.5C579.5 326.7 580 327.9 580.7 329.1C581.1 329.7 581.4 330.4 581.8 331C582.2 331.6 582.6 332.1 583 332.7C583.6 334 584.6 335 585.6 336ZM532.8 198.6C532.5 199.6 532.2 200.6 532 201.8C525.7 199.6 519.1 197.3 512.2 194.9C511.2 194.6 510.3 194.3 509.5 194.1C507.2 193.6 505.9 193.7 505.6 194.4C505.2 194.3 504.9 194.3 504.6 194.2C504.8 193 504.8 191.9 504.8 191C504.8 189.8 504.8 188.8 504.8 188L504.9 186.8L505.1 185.7C505.4 184.2 505.9 182.8 506.5 181.4C507.2 179.9 507.9 178.9 508.6 178.1C510.3 175.8 512 174.5 513.2 173.6C516.1 178.5 519.4 183.3 523 188.1C523.6 188.8 524.1 189.6 524.7 190.3C525 190.7 525.3 191.1 525.7 191.5C526.1 191.9 526.4 192.3 526.9 192.6C527.9 193.1 529 193.3 530.1 193.3C531.2 193.3 532.1 193.3 533 193.2C532.9 193.6 533.4 194 534.3 194.4C534.4 194.4 534.4 194.4 534.5 194.5C533.8 195.7 533.3 197 532.8 198.6ZM601.2 189.3C601.4 188 601.5 186.6 601.6 185.3C601.7 184.5 601.7 183.6 601.7 182.8V181.6V180.7C601.7 179.5 601.6 178.3 601.5 177C601.3 174.7 600.8 172.4 600.3 170.1C600.7 170.3 601.2 170.5 601.7 170.6C603.5 171 606.4 171.5 610.2 172.4C611.5 172.7 612.7 173.1 613.8 173.5C614.4 173.7 614.9 174 615.5 174.2C615.8 174.3 616 174.5 616.3 174.6C616.5 174.7 616.9 174.9 617 175C617.2 175.2 617.4 175.4 617.6 175.6C618 176.2 618.7 177.1 619.3 178.2C619.9 179.3 620.6 180.6 621.2 182C621.3 182.2 621.4 182.4 621.4 182.6C621.4 182.9 621.4 183.2 621.6 183.5C621.7 183.8 621.9 184 622.1 184.2C622.8 186 623.4 187.6 623.9 189C616.5 189.1 609 189.2 601.2 189.3ZM646.6 189.2C640.9 189.1 635.1 189.1 629.1 189.1C629.3 188.6 629.3 188.1 629.2 187.5C629.1 187 629 186.5 628.8 185.9C645 186 667.3 186 695.6 187.7C696.5 187.7 697.2 187.7 697.9 187.7H698C697.9 187.9 697.9 188.1 697.8 188.3C697.6 188.9 697.4 189.4 697.2 189.9C697.1 190.1 697 190.3 696.9 190.5C693.7 190.4 690.4 190.2 687.1 190.1C674.6 189.7 661.2 189.4 646.6 189.2Z" fill="black"/>
</svg>
