<svg width="134" height="158" viewBox="0 0 134 158" fill="none" xmlns="http://www.w3.org/2000/svg">
<path d="M82.1683 88.4C82.1683 82.5333 82.1683 76.56 82.1683 70.6933C82.1683 66.4267 74.4 66.4267 74.4 70.6933V88.4C74.4 92.9867 82.1683 92.9867 82.1683 88.4ZM61.8432 85.3067H65.3548C67.3767 85.3067 68.8665 85.84 70.1435 86.8C70.1435 80.5067 70.1435 74.2133 70.1435 68.1333C70.1435 62.5867 61.8432 62.5867 61.8432 68.1333C61.8432 74 61.8432 79.5467 61.8432 85.3067ZM48.9671 85.3067H57.2674C57.2674 80.72 57.2674 76.24 57.2674 71.6533C57.2674 66.32 48.9671 66.32 48.9671 71.6533V85.3067ZM53.7557 131.813H80.9977C85.5735 125.733 93.5546 119.653 93.5546 106.747V95.9733C90.575 97.2533 86.5312 96.72 83.9773 94.16C80.6785 96.9333 75.1449 96.9333 72.1653 93.6267C70.6755 99.7067 65.142 103.973 59.0764 103.973C59.8213 104.72 60.5662 105.787 61.0983 106.747C62.3752 109.307 63.333 112.293 63.333 115.6C63.1201 118.587 58.7572 118.587 58.7572 115.6C58.7572 113.04 58.2251 110.8 56.9481 108.773C55.884 106.747 54.3942 105.04 52.6915 103.44C50.8825 102.16 51.6274 99.3867 53.9685 99.3867H59.8213C63.5458 99.3867 69.1857 94.0533 67.5895 90.7467C67.5895 90 66.8446 89.68 65.3548 89.68H47.158C43.1143 89.68 40.3475 91.7067 40.3475 95.9733C39.8154 107.387 41.0924 114.213 48.6478 122.533C51.2018 125.84 53.2236 127.547 53.7557 131.813ZM48.2222 131.813H49.2863C48.7542 129.573 47.0516 127.227 45.5618 125.733C40.986 120.72 35.2396 114.107 35.9845 96.1867C36.1974 90.64 39.2834 86.8 44.8169 85.52V71.6533C44.8169 64.6133 52.5851 60.9867 58.2251 64.6133C60.9918 58 70.7819 57.7867 73.868 64.08C78.4438 61.3067 85.4671 63.3333 86.7441 68.88C91.7455 66.64 98.3432 69.6267 98.3432 75.7067C98.3432 86.0533 98.3432 96.4 98.3432 106.853C98.3432 117.947 93.7674 123.813 86.9569 131.92C88.021 131.92 88.9788 132.987 88.9788 133.947V147.6C88.9788 148.88 87.9146 149.84 86.7441 149.84H48.435C47.158 149.84 46.2003 148.773 46.2003 147.6V133.947C45.881 132.667 46.9452 131.813 48.2222 131.813ZM65.5676 32.2933L56.7353 35.8133L57.2674 26.4267C57.2674 25.36 57.0545 24.6133 56.2032 23.6533L50.3504 16.2933L59.1828 14.0533C60.2469 13.84 60.9918 12.9867 61.4175 12.24L66.7382 4.45333L72.2718 12.24C72.8038 12.9867 73.5487 13.7333 74.5064 14.0533L83.3388 16.2933L77.486 23.6533C76.7411 24.72 76.4219 25.4667 76.4219 26.4267L76.954 35.8133L68.1216 32.2933C67.3767 31.9733 66.3125 31.9733 65.5676 32.2933ZM66.8446 36.3467L75.8898 39.8667C78.6566 40.9333 81.7426 38.8 81.4234 35.8133L80.8913 26.4267L86.9569 18.8533C88.7659 16.6133 87.7018 12.9867 84.935 12.24L75.5706 10L70.2499 1.68C68.4408 -0.56 64.9292 -0.56 63.4394 1.68L57.9058 10L48.9671 12.3467C46.2003 13.0933 45.2426 16.6133 46.9452 18.96L53.0108 26.5333L52.4787 35.92C52.2659 38.9067 55.2455 40.9333 57.7994 39.9733L66.8446 36.3467ZM115.795 53.52L109.73 55.76L109.942 49.4667C109.942 48.4 109.73 47.6533 109.197 46.9067L104.941 41.5733L111.219 40.08C112.283 39.8667 112.709 39.3333 113.241 38.5867L116.966 32.72L120.69 38.5867C121.222 39.3333 121.967 39.8667 122.712 40.08L128.99 41.5733L124.947 46.9067C124.415 47.6533 123.883 48.4 124.202 49.4667L124.415 55.76L118.136 53.52C117.498 53.2 116.753 53.2 115.795 53.52ZM117.072 57.5733L124.095 60.1333C126.33 61.2 129.097 59.3867 128.884 56.6133L128.671 49.5733L133.247 43.7067C134.737 41.68 133.992 38.6933 131.225 37.84L124.415 36.0267L120.158 29.7333C118.349 27.4933 116.114 27.4933 114.092 29.7333L110.049 36.0267L103.025 37.84C100.471 38.5867 99.5138 41.5733 101.216 43.7067L105.792 49.5733L105.367 56.5067C105.154 59.28 107.601 61.0933 110.155 60.0267L117.072 57.5733ZM18.2134 53.52L24.279 55.76L24.0662 49.4667C24.0662 48.4 24.279 47.6533 24.8111 46.9067L28.8548 41.5733L22.7892 40.08C21.725 39.8667 20.9801 39.3333 20.5545 38.5867L16.83 32.72L13.1055 38.5867C12.5734 39.3333 12.0414 39.8667 11.0836 40.08L5.01803 41.5733L9.06177 46.9067C9.38101 47.6533 9.59384 48.4 9.59384 49.4667L9.38101 55.76L15.4466 53.52C16.4043 53.2 17.1492 53.2 18.2134 53.52ZM16.6172 57.5733L9.80666 60.1333C7.25273 61.2 4.8052 59.3867 5.01803 56.6133L5.33727 49.4667L0.761466 43.6C-0.728332 41.5733 0.0165672 38.5867 2.57051 37.84L9.59384 36.0267L13.8504 29.7333C15.6594 27.4933 17.8941 27.4933 19.7032 29.7333L23.9597 36.0267L30.9831 37.84C33.537 38.5867 34.2819 41.5733 32.7921 43.7067L28.2163 49.5733L28.4291 56.6133C28.642 59.3867 25.8752 61.2 23.6405 60.1333L16.6172 57.5733ZM28.7484 155.92C28.7484 158.693 24.4918 158.693 24.4918 155.92V117.947C24.4918 114.96 28.7484 114.96 28.7484 117.947V155.92ZM104.941 155.92C104.941 158.693 109.517 158.693 109.517 155.92V117.947C109.517 114.96 104.941 114.96 104.941 117.947V155.92ZM8.31687 109.307C8.31687 112.293 3.74106 112.293 3.74106 109.307V70.16C3.74106 67.1733 8.31687 67.1733 8.31687 70.16V109.307ZM125.585 109.307C125.585 112.293 130.161 112.293 130.161 109.307V70.16C130.161 67.1733 125.585 67.1733 125.585 70.16V109.307ZM18.639 134.16C18.639 137.147 14.3825 137.147 14.3825 134.16V93.9467C14.3825 90.96 18.639 90.96 18.639 93.9467V134.16ZM115.263 134.16C115.263 137.147 119.52 137.147 119.52 134.16V93.9467C119.52 90.96 115.263 90.96 115.263 93.9467V134.16ZM75.677 145.573V136.187H50.4569V145.573H75.677ZM79.9336 136.187V145.573H84.1901V136.187C84.2965 136.187 79.9336 136.187 79.9336 136.187ZM93.7674 75.7067C93.7674 71.6533 86.7441 71.6533 86.4248 75.7067V88.2933C86.4248 93.3067 93.2353 93.0933 93.4482 89.04L93.7674 75.7067Z" fill="white"/>
</svg>
