<svg width="419" height="747" viewBox="0 0 419 747" fill="none" xmlns="http://www.w3.org/2000/svg">
<path d="M417.829 516.944C416.666 512.29 414.106 508.218 411.081 505.193C410.266 504.262 409.452 503.68 408.87 503.215C407.008 501.935 405.379 501.353 404.216 501.237C406.31 497.164 407.59 493.324 408.056 490.183C408.521 486.925 408.172 484.598 407.707 483.667C407.357 482.736 406.892 483.085 406.427 484.482C405.961 485.878 405.379 487.972 404.332 490.416C403.518 492.277 402.471 494.255 401.191 496.466L400.958 496.35C401.54 494.721 402.005 492.975 402.238 491.23C402.354 489.717 402.354 487.739 401.772 486.227C402.121 486.576 402.587 486.925 402.82 487.39C403.052 487.623 403.169 487.856 403.285 488.089C403.285 487.972 403.169 487.856 403.052 487.739C402.936 487.507 402.703 487.274 402.587 487.041L402.703 487.158C402.82 487.158 403.052 487.158 403.169 487.041C403.285 486.925 403.518 486.809 403.634 486.576C403.75 486.46 403.75 486.46 403.867 486.343L403.983 486.227L404.099 485.994C404.332 485.18 404.565 484.249 404.914 483.202C405.961 479.129 406.892 473.544 407.474 466.563C409.335 447.713 409.917 426.653 409.568 403.731C409.219 380.81 407.939 356.026 406.659 329.381C405.961 316 405.379 302.27 404.681 287.842C403.867 273.414 402.587 258.521 399.794 243.162C397.002 227.803 392.464 211.979 384.552 196.737C382.574 192.897 380.363 189.174 377.92 185.567C376.756 183.705 375.36 181.96 374.08 180.214L371.986 177.654L369.891 175.095C364.19 168.462 357.79 161.947 349.878 156.594C346.155 154.151 342.432 152.173 338.941 150.893C335.45 149.497 332.425 148.682 329.982 148.333C329.516 148.217 329.051 148.217 328.585 148.1C328.702 147.519 328.818 146.937 328.818 146.355C329.4 140.421 328.236 134.138 325.211 128.553C323.815 125.76 322.07 123.084 320.557 120.292C319.044 117.499 317.648 114.59 317.183 111.565C316.601 108.54 316.95 105.282 317.532 102.14C318.23 98.9988 319.161 95.7408 320.208 92.4829C322.302 85.8507 323.582 78.7531 323.582 71.4227C323.582 64.0924 322.419 56.5293 319.393 49.4317C317.881 45.8247 316.019 42.4504 313.692 39.1925C311.365 36.0509 308.689 33.0257 305.78 30.3495C302.871 27.6734 299.846 25.1136 296.704 22.6701C293.563 20.2267 290.421 17.7833 287.163 15.4562C280.531 10.6856 273.317 6.26415 265.056 3.35528C256.795 0.446417 247.603 -0.600774 238.527 0.330062C229.451 1.14454 220.492 3.8207 212.114 8.00947C203.737 12.1982 195.941 17.8996 189.193 24.6482C182.328 31.3967 176.394 39.1925 171.274 47.57C168.714 51.7588 166.387 56.0639 164.176 60.6017C162.082 65.1396 160.22 70.1428 158.94 75.3788C157.777 80.6147 157.195 86.3161 157.893 92.0175C158.591 97.7189 160.22 102.955 161.966 107.842C163.827 112.729 165.805 117.383 167.551 121.921C169.296 126.458 170.576 130.88 171.158 135.069C171.39 137.047 171.507 138.908 171.39 140.537C171.274 142.166 171.041 143.795 170.692 145.308C169.878 148.217 168.831 150.311 167.783 151.824C167.783 151.824 167.783 151.94 167.667 151.94C167.318 151.824 167.085 151.707 166.736 151.591C166.387 151.475 166.038 151.358 165.805 151.358C164.642 151.242 163.827 152.056 163.827 153.918C163.711 155.78 164.525 157.292 166.038 157.991C167.783 158.805 170.692 159.969 175.114 160.318C175.812 160.434 176.51 160.434 177.208 160.434C177.557 160.434 177.79 160.434 178.023 160.434H178.721C179.535 160.55 180.233 160.55 180.815 160.55C180.931 160.55 181.164 160.667 181.28 160.899C181.397 161.132 181.397 161.365 181.513 161.598C181.513 162.412 181.513 163.343 181.28 164.041C181.164 164.39 181.048 164.739 180.931 165.088C180.931 165.205 180.815 165.205 180.815 165.321C180.815 165.554 180.815 165.67 180.815 165.903C180.815 166.252 180.699 166.717 180.699 167.183C180.35 170.557 179.884 173.698 179.419 176.491C179.302 176.84 179.302 177.189 179.302 177.422C179.302 177.771 179.419 178.12 179.535 178.469C176.743 182.541 173.834 187.545 170.809 193.479C167.551 199.878 164.758 205.58 162.198 210.583C159.639 215.586 157.428 219.891 155.566 223.615C151.843 230.945 147.189 240.137 141.604 250.842C136.368 261.197 131.597 270.622 127.408 279.232C122.405 261.197 116.238 240.253 108.442 216.633C108.326 216.168 108.093 215.819 107.977 215.353C108.326 214.888 108.326 214.306 108.093 213.724C107.744 212.91 107.163 212.212 106.348 211.746C104.952 209.187 103.788 208.721 102.857 210.583C102.392 210.466 101.81 210.466 101.345 210.35C99.7159 210.234 98.0869 210.117 96.3416 210.001C96.458 209.885 96.5743 209.768 96.6907 209.652C97.7379 208.139 98.3196 205.929 97.8542 203.136C97.6215 201.74 96.9234 200.227 95.8762 198.715C94.7126 197.202 92.851 195.689 90.6402 194.875C90.4075 194.759 90.0585 194.759 89.8257 194.875C89.1276 194.991 88.8949 195.573 88.8949 196.504C86.5678 196.155 84.008 195.922 81.2155 195.806C77.2595 195.573 72.838 195.573 68.0674 195.806C66.5548 195.922 64.9259 196.038 63.2969 196.155C62.3661 189.639 61.0862 181.494 60.7371 171.604C60.7371 171.255 60.6207 171.022 60.5044 170.79C60.039 169.975 58.9918 169.859 57.4792 170.557C57.0138 169.859 56.0829 169.859 54.803 170.324C52.9413 171.022 51.8941 172.186 51.5451 173.815C51.0797 175.676 50.2652 178.585 48.7526 182.192C47.24 185.799 45.7274 188.475 44.5638 190.337C43.4003 192.199 41.8877 194.41 39.9096 196.853C38.5134 198.482 37.2335 199.878 35.9536 201.158H35.8372C35.1391 201.391 34.5573 201.624 33.9755 201.973C31.8812 203.136 31.6485 204.3 33.1611 205.696C33.2774 205.812 33.5101 205.929 33.7428 206.045C33.9755 206.394 34.3246 206.627 34.79 206.859C36.419 207.79 37.9316 207.907 39.2115 206.859C39.3279 206.743 39.4442 206.743 39.4442 206.627C42.2367 205.929 46.4255 205.114 52.1269 204.183C58.0609 203.252 62.7151 203.02 66.0894 202.787C69.4637 202.554 73.7688 202.438 78.6557 202.554C83.3099 202.671 87.4987 202.903 91.222 203.252C91.4547 203.602 91.5711 203.951 91.6874 204.3C92.1528 205.58 92.0365 206.627 91.9201 207.325C91.8038 208.023 91.5711 208.837 91.1057 209.536L90.9893 209.652C88.7786 209.536 86.4515 209.536 84.008 209.536C77.7249 209.652 70.9763 210.001 63.646 210.816C51.4287 212.328 37.6989 215.004 22.9219 219.891C22.9219 219.891 22.9219 219.775 23.0382 219.775C25.1326 216.284 27.227 212.328 29.205 207.907C33.2774 199.18 37.0008 188.708 39.7933 176.258C39.9096 175.56 40.026 174.862 40.026 174.28C40.026 171.837 39.0951 171.022 37.1171 171.837C35.1391 172.651 33.9755 174.28 33.2774 176.724C32.4629 179.516 31.2994 183.821 29.205 189.523C27.1106 195.224 25.2489 199.645 23.7363 202.787C22.2237 205.929 20.3621 209.885 17.9186 214.306C16.0569 217.797 14.1953 220.938 12.4499 223.731C11.9845 223.964 11.5191 224.196 11.17 224.429C7.91211 226.291 7.33034 227.687 9.54108 228.734C9.65743 228.734 9.77379 228.85 9.89014 228.85C9.65743 230.247 10.3556 231.061 11.7518 231.41C12.2172 231.527 12.6827 231.527 13.0317 231.527C13.0317 232.574 13.1481 233.737 13.3808 235.017C14.1953 239.09 15.5915 245.373 17.8023 253.867C20.013 262.361 21.991 269.109 23.3873 273.996C24.7835 278.883 26.6452 284.933 28.8559 292.147C31.0667 299.245 33.0447 305.761 34.79 311.579C35.0227 312.393 35.2554 312.975 35.3718 313.557C36.419 315.884 37.4662 317.047 38.5134 317.164C38.397 317.513 38.2807 317.978 38.2807 318.327C38.1643 318.56 38.1643 318.793 38.1643 318.909C38.397 319.723 39.0951 320.072 40.2587 320.072C40.1423 320.887 40.1423 321.818 40.2587 322.749C40.4914 324.843 40.9568 327.636 41.8877 330.893C42.9348 334.151 44.5638 337.875 47.24 341.831C48.6362 343.809 50.0325 345.554 51.5451 347.183C53.0577 348.696 54.5703 350.092 56.1993 351.256C59.2245 353.699 62.2497 355.328 64.8095 356.608C69.9291 359.051 76.794 361.146 85.4043 361.378C85.1716 362.891 85.1716 364.636 85.0552 366.614C85.0552 368.592 85.1716 370.803 85.637 373.247C85.8697 374.643 86.3351 376.272 87.0332 378.017C87.1496 378.483 87.3823 378.948 87.615 379.297C87.8477 379.762 88.0804 380.228 88.4295 380.577C88.6622 381.042 89.0113 381.508 89.3603 381.857C89.7094 382.322 90.1748 382.671 90.6402 383.02C90.7566 383.02 90.7566 383.137 90.8729 383.137C88.1968 384.998 85.5206 387.093 83.0772 389.653C80.1683 392.678 77.4922 396.285 75.3978 400.474C74.816 401.521 74.4669 402.568 73.8852 403.731C73.4198 404.779 73.0707 405.942 72.7216 407.106C72.4889 407.688 72.3726 408.269 72.1398 408.851C71.9071 409.433 71.9071 410.015 71.6744 410.596C71.4417 411.76 71.0927 413.04 70.86 414.32C70.0455 419.323 70.0455 424.675 70.7436 430.144C71.4417 435.613 73.0707 441.081 75.2814 446.55C77.0267 450.855 79.2375 454.927 81.6809 458.651L81.3319 459.116C80.5174 460.047 79.9356 461.443 79.8193 462.723C79.7029 463.305 79.8193 464.003 79.8193 464.469C75.6305 466.098 70.3945 468.657 63.995 472.148C60.388 474.126 56.432 476.337 52.0105 478.896C47.7054 481.456 42.9348 484.132 37.9316 487.39C32.2302 491.114 25.8307 495.419 19.3149 501.353C16.9878 503.447 14.777 505.658 12.5663 508.218C8.9593 511.359 5.93408 514.966 3.72335 519.039C1.74532 522.879 0.814482 526.951 0.698128 530.674C0.698128 530.907 0.581773 531.256 0.581773 531.489L0 530.325L0.581773 533.118C0.349064 534.281 0.349064 535.445 0.232709 536.608C0.232709 538.005 0.116355 539.517 0.232709 541.03C0.349064 543.939 0.698128 546.964 1.39626 549.989C1.97803 553.014 2.90886 556.04 3.95606 558.948C6.05044 564.999 8.9593 570.933 11.9845 576.983C15.1261 583.034 18.2677 589.317 21.642 595.833C35.4882 623.06 47.9381 647.262 58.7591 668.555C58.7591 668.671 58.8754 668.904 58.8754 669.02C59.4572 671.114 60.1553 672.976 60.8535 674.838C61.6679 676.932 62.7151 678.91 63.995 680.888C61.2025 696.363 58.6427 710.791 56.3156 724.172C55.8502 726.965 55.3848 729.175 55.1521 730.921C53.4068 743.37 53.6395 748.49 55.8502 746.628C58.0609 744.65 60.2717 737.785 62.5988 726.034C64.8095 714.747 67.0202 702.53 69.4637 689.615C74.9324 700.436 80.052 710.326 84.5898 719.169C85.0552 720.1 85.637 721.147 86.3351 722.31C87.0332 723.474 88.1968 724.754 89.593 725.568C90.8729 726.499 92.6183 727.081 94.1309 727.197C95.0617 727.314 95.8762 727.314 96.6907 727.314L99.1341 729.873C100.647 729.059 101.694 728.244 102.625 727.314C103.09 726.848 103.556 726.383 103.788 726.034C104.486 725.801 105.068 725.685 105.766 725.452C106.348 725.219 106.93 725.103 107.512 724.87C108.093 724.637 108.675 724.405 109.257 724.172C110.421 723.707 111.584 723.125 112.748 722.543C121.823 717.889 130.201 710.209 135.437 699.97C135.553 699.738 135.669 699.388 135.786 699.156C138.811 694.734 141.022 689.498 142.069 684.03L144.396 671.58L141.138 673.092C141.138 670.533 140.905 667.856 140.556 665.297C139.16 653.312 135.32 641.444 131.364 629.576C128.572 621.315 125.896 613.053 123.22 605.141C123.103 604.327 122.87 603.629 122.754 602.814C122.172 600.487 121.591 598.276 120.776 596.182C119.845 593.506 118.798 590.946 117.634 588.503C116.704 585.826 115.889 583.15 114.958 580.59C113.213 575.354 111.468 570.235 109.839 565.115C111.817 566.861 113.911 568.722 116.355 570.468C121.358 574.075 126.245 576.867 130.666 578.961C135.088 581.172 139.044 582.685 142.418 583.965C149.283 586.525 157.893 588.968 168.249 591.062C178.604 593.157 188.145 594.437 196.639 595.367C197.803 595.484 198.734 595.6 199.432 595.6C199.548 595.6 199.664 595.6 199.781 595.6C195.127 605.258 190.007 615.613 184.422 627.016C181.63 632.834 178.721 639 176.975 645.865C176.045 649.24 175.579 652.963 175.579 656.57C175.579 657.152 175.579 657.733 175.695 658.315L175.114 658.781L175.695 659.13C175.928 661.922 176.51 664.831 177.324 667.624C179.535 674.954 183.142 681.47 186.865 687.52C190.472 693.571 194.196 699.388 197.919 704.974C200.595 709.162 203.388 713.118 206.064 717.074L206.878 723.008L207.577 719.169C207.809 719.518 208.042 719.867 208.275 720.216C208.507 720.681 208.856 721.147 209.089 721.612C210.602 724.056 211.998 726.383 213.394 728.71C214.791 731.037 216.42 733.829 219.096 736.506C220.376 737.785 222.005 739.065 223.75 739.996C225.495 740.927 227.124 741.625 228.753 741.974C232.011 742.789 234.92 743.021 237.712 743.021C243.297 743.021 248.533 741.858 253.188 739.996C255.515 739.065 257.725 738.018 259.703 736.738C261.681 735.458 263.543 734.179 265.288 732.55C266.452 731.502 267.499 730.455 268.546 729.292C272.502 726.964 275.993 724.288 279.135 721.379C281.694 719.052 284.138 716.26 286.116 713.118C288.21 709.977 289.839 706.486 291.003 702.763C292.166 699.039 292.981 694.967 292.865 690.662C292.748 686.357 291.701 681.935 289.607 677.747C288.559 675.768 287.396 674.023 286.465 672.278C285.418 670.532 284.487 668.904 283.905 667.391C283.323 665.878 283.207 664.598 283.323 663.551C283.44 662.969 283.556 662.504 284.022 661.922C284.371 661.224 284.952 660.526 285.651 659.595C286.349 658.664 287.163 657.617 287.861 656.221C288.21 655.523 288.559 654.708 288.908 653.894C289.141 652.963 289.374 652.148 289.49 651.218C289.723 647.611 288.559 644.236 286.116 641.444L286.93 638.07L283.091 639C282.858 638.884 282.742 638.768 282.509 638.651C283.556 638.302 284.603 637.953 285.534 637.371C287.047 636.673 288.559 636.092 289.956 635.277C290.654 634.928 291.468 634.463 292.166 634.114C292.865 633.764 293.563 633.299 294.261 632.834C296.704 631.321 299.031 629.808 301.242 628.063C303.453 626.9 305.547 625.271 307.293 623.293C307.409 623.176 307.525 623.06 307.642 622.827C313.343 617.824 318.463 612.239 323.233 606.77C327.305 602.116 331.029 597.346 334.752 592.691C338.476 588.037 342.083 583.499 345.69 578.961C350.344 573.144 354.882 567.326 359.419 561.625C360.001 561.508 360.699 561.392 361.281 561.276C365.47 560.228 372.102 559.065 381.061 556.505C385.599 555.225 389.555 553.713 393.046 552.316C396.536 550.687 399.445 549.175 401.889 547.546C402.471 547.197 403.052 546.731 403.75 546.266C404.332 545.8 405.03 545.335 405.612 544.753C406.194 544.288 406.892 543.706 407.59 543.124C408.172 542.542 408.87 541.961 409.452 541.263C410.848 540.099 412.012 538.47 413.408 536.957C414.106 536.259 414.688 535.096 415.27 534.049C415.619 533.467 415.735 533.001 416.084 532.42C416.317 531.838 416.666 531.256 416.782 530.674C417.597 528.347 418.062 525.787 418.178 523.344C418.644 521.715 418.411 519.272 417.829 516.944ZM47.3563 197.784C48.1708 196.62 49.1016 195.457 49.9161 194.06C51.5451 191.384 53.174 188.243 54.4539 184.868C54.5703 185.799 54.5703 186.614 54.6867 187.312C54.9194 189.057 55.1521 191.384 55.7339 193.944C55.8502 194.759 56.0829 195.457 56.1993 196.155C53.2904 196.62 50.3815 197.202 47.3563 197.784ZM210.602 589.433C211.184 588.386 211.649 587.223 212.231 586.059C212.347 586.292 212.58 586.525 212.696 586.757C211.998 587.688 211.3 588.735 210.602 589.782C209.904 590.946 209.438 592.11 208.973 593.273L208.857 593.506C208.74 593.622 208.624 593.622 208.507 593.739C209.206 592.342 209.904 590.946 210.602 589.433ZM374.778 460.745C375.127 460.978 375.36 461.211 375.593 461.56C375.942 462.258 375.825 462.956 375.709 463.654C375.593 464.352 375.36 464.934 375.011 465.516C375.011 465.632 374.895 465.748 374.895 465.865C374.662 465.516 374.545 465.167 374.313 464.818C373.964 464.003 373.498 463.305 372.916 462.607C373.033 462.374 373.266 462.141 373.382 461.792C373.615 461.327 373.731 460.978 373.847 460.512C374.08 460.512 374.429 460.512 374.778 460.745ZM227.939 564.766C228.055 565.232 228.171 565.697 228.288 566.162C228.055 566.279 227.706 566.395 227.473 566.628C227.124 566.861 226.775 567.093 226.426 567.326C227.008 566.395 227.473 565.581 227.939 564.766ZM266.103 501.935C266.336 501.818 266.568 501.586 266.917 501.469C266.917 501.586 266.917 501.586 266.917 501.702L266.336 502.051L266.103 501.935ZM367.099 469.355C367.564 469.355 368.03 469.355 368.495 469.355C368.728 469.355 368.844 469.355 369.077 469.472L369.309 469.937C369.426 470.17 369.426 470.286 369.542 470.519C369.31 470.635 369.077 470.635 368.844 470.752C368.262 470.984 367.797 471.333 367.448 471.683C367.215 471.217 366.982 470.635 366.633 470.17C366.75 469.821 366.982 469.588 367.099 469.355ZM345.457 540.099C344.293 541.728 343.013 543.357 341.733 544.986C343.828 541.844 345.922 538.586 348.133 535.212C348.249 535.096 348.366 535.096 348.482 535.096C348.482 535.212 348.366 535.445 348.366 535.561C348.249 536.027 348.133 536.376 348.017 536.841C347.202 537.888 346.388 538.935 345.457 540.099ZM286.814 491.114C287.28 490.881 287.745 490.648 288.21 490.416C288.094 490.765 287.978 491.114 287.978 491.463C287.745 492.51 287.629 493.674 287.745 494.721C287.629 494.721 287.512 494.837 287.396 494.837L287.047 494.953L286.93 494.604C286.814 493.557 286.698 492.277 286.814 491.114ZM210.835 632.717C211.3 632.252 211.649 631.67 212.231 630.972C213.045 630.972 213.976 630.972 214.791 631.205C214.791 631.321 214.791 631.321 214.791 631.437C214.791 631.554 214.791 631.67 214.907 631.786L214.442 632.717C213.743 632.834 213.162 632.95 212.464 633.183C211.882 633.066 211.3 633.066 210.718 633.066C210.718 632.95 210.718 632.95 210.718 632.834C210.718 632.95 210.718 632.834 210.835 632.717ZM228.986 589.55C228.52 589.433 228.055 589.317 227.59 589.201C227.822 588.968 227.939 588.735 228.171 588.503C228.986 588.037 229.8 587.572 230.498 587.106C230.615 587.339 230.848 587.688 230.964 587.921C230.266 588.503 229.684 589.084 228.986 589.55ZM204.319 652.032C204.319 651.916 204.202 651.799 204.202 651.683C204.551 651.45 204.9 651.101 205.249 650.869C205.249 651.334 205.366 651.683 205.366 652.148V654.127C205.366 654.359 205.366 654.592 205.366 654.941C205.366 654.825 205.249 654.708 205.249 654.476L205.017 652.847L204.784 653.079C204.551 652.73 204.435 652.381 204.319 652.032ZM362.212 491.812C362.212 492.045 362.212 492.161 362.328 492.394C362.212 492.161 362.212 491.928 362.212 491.812ZM226.775 695.665C226.891 695.549 227.008 695.432 227.124 695.316C227.124 695.432 227.124 695.549 227.124 695.781C227.008 695.781 226.891 695.665 226.775 695.665ZM253.886 703.228C254.235 702.646 254.584 701.948 254.933 701.366C254.933 701.483 254.933 701.599 254.817 701.716C254.7 702.53 254.584 703.345 254.467 704.159C254.235 703.926 254.002 703.577 253.886 703.228ZM277.04 534.63L277.389 534.863C277.157 535.096 277.04 535.445 276.808 535.678C276.808 535.561 276.691 535.445 276.691 535.445C276.808 535.096 276.924 534.863 277.04 534.63ZM241.203 607.352C241.087 607.003 240.97 606.654 240.854 606.188C241.436 607.236 242.018 608.399 242.483 609.33C242.483 609.446 242.599 609.563 242.599 609.679C242.25 610.028 242.018 610.261 241.668 610.61C241.668 610.377 241.552 610.145 241.552 609.795C241.552 608.981 241.436 608.166 241.203 607.352ZM298.45 525.438C298.566 525.438 298.682 525.555 298.799 525.555C298.45 525.904 298.1 526.253 297.751 526.602C297.635 526.369 297.519 526.136 297.402 525.904H297.519C297.868 525.671 298.217 525.555 298.45 525.438ZM269.012 581.172C269.012 581.289 269.012 581.289 269.012 581.172L268.197 581.521C268.314 580.823 268.546 580.125 268.663 579.427C268.779 580.009 268.895 580.59 269.012 581.172ZM326.142 519.504C326.375 519.388 326.724 519.272 326.956 519.272C326.724 519.388 326.375 519.504 326.142 519.504ZM293.097 558.367C293.214 557.901 293.33 557.436 293.446 556.854C294.144 556.505 294.843 556.156 295.424 555.807C294.726 556.621 293.912 557.552 293.097 558.367ZM295.308 552.2C295.075 552.316 294.843 552.433 294.726 552.549C294.726 552.433 294.726 552.433 294.843 552.316L295.308 550.804C295.424 550.687 295.424 550.571 295.541 550.338C295.541 550.687 295.541 551.036 295.541 551.269C295.541 551.502 295.541 551.734 295.541 551.967C295.424 552.2 295.424 552.2 295.308 552.2ZM258.54 584.43H258.424C258.307 584.314 258.307 584.197 258.307 584.081C258.191 583.965 258.191 583.848 258.074 583.732C258.191 583.616 258.191 583.499 258.307 583.499C258.307 583.848 258.424 584.081 258.54 584.43ZM337.079 511.243C336.963 511.127 336.963 511.127 336.847 511.01C336.963 510.894 337.079 510.778 337.079 510.661C337.196 510.545 337.196 510.429 337.312 510.312C337.545 510.312 337.777 510.312 337.894 510.429C337.661 510.661 337.428 511.01 337.079 511.243ZM286.232 541.728C287.978 538.237 289.839 534.747 292.05 531.605C292.166 532.071 292.283 532.42 292.283 532.885C290.188 535.678 288.094 538.703 286.232 541.728ZM340.454 509.381C340.104 509.381 339.639 509.498 339.174 509.73C338.825 509.847 338.476 510.08 338.126 510.312L337.777 509.614C337.894 509.265 338.126 509.032 338.359 508.567C339.174 508.683 339.988 508.916 340.803 509.032C340.686 509.149 340.57 509.265 340.454 509.381ZM285.651 586.874L285.883 587.106H285.767C285.767 586.99 285.651 586.99 285.651 586.874ZM236.782 656.803C236.665 656.337 236.433 655.755 236.316 655.29C237.014 655.988 237.712 656.803 238.411 657.617C237.829 657.384 237.363 657.152 236.782 656.803ZM262.845 557.087C262.961 556.97 263.078 556.854 263.078 556.738C262.961 556.854 262.961 556.97 262.845 557.087ZM322.419 488.205C320.79 489.019 319.044 490.067 317.299 491.114C317.299 491.114 317.299 491.114 317.183 491.114C317.299 491.114 317.299 490.997 317.415 490.997C318.346 490.299 319.277 489.717 320.091 488.903C320.673 488.554 321.139 488.321 321.72 487.972C321.953 488.089 322.186 488.089 322.419 488.205ZM278.902 531.372C278.553 531.954 278.32 532.652 278.087 533.467C277.971 533.7 277.855 533.816 277.738 534.049C277.506 534.165 277.389 534.165 277.157 534.281C277.273 534.049 277.506 533.7 277.622 533.467C277.971 532.769 278.32 531.954 278.669 531.256L278.902 531.372ZM252.839 606.887C252.839 606.77 252.955 606.654 252.955 606.537C253.304 606.537 253.537 606.421 253.886 606.421L252.839 606.887ZM310.9 557.087C311.598 556.505 312.296 555.807 312.878 555.225C313.459 554.643 313.925 554.062 314.506 553.596V553.713C314.157 554.76 313.808 555.807 313.459 556.854C313.343 557.087 313.227 557.32 313.227 557.669C312.528 557.32 311.714 557.087 310.9 557.087ZM283.207 521.133C283.207 521.482 283.207 521.715 283.207 522.064C282.974 522.297 282.742 522.413 282.509 522.646C282.393 522.762 282.276 522.762 282.276 522.879V522.762L282.974 521.017C283.091 521.017 283.091 521.017 283.207 521.133ZM265.288 535.91C265.405 535.91 265.521 535.91 265.638 535.91C264.823 537.307 263.892 538.703 262.961 540.099C263.194 539.634 263.427 539.168 263.66 538.703C264.125 537.888 264.707 536.957 265.288 535.91ZM257.958 673.907C257.842 673.907 257.842 673.79 257.725 673.79C257.725 673.674 257.609 673.558 257.609 673.441L259.122 672.394C259.122 672.86 259.122 673.325 259.238 673.79C259.238 673.907 259.122 674.023 259.122 674.14C259.122 674.14 259.122 674.256 259.005 674.256C258.656 674.14 258.307 674.023 257.958 673.907ZM287.396 604.792C287.512 604.792 287.629 604.792 287.745 604.676C288.21 604.559 288.676 604.443 289.141 604.443C289.141 604.676 289.025 604.909 289.025 605.258C288.443 605.025 287.861 604.909 287.396 604.792ZM356.394 483.434C356.161 483.551 355.812 483.551 355.58 483.667C355.114 483.318 354.649 482.969 354.3 482.736C354.416 482.504 354.532 482.271 354.765 482.038C354.882 481.689 355.114 481.456 355.231 481.107C355.812 481.573 356.394 482.038 357.092 482.387C357.092 482.387 357.092 482.387 357.092 482.503C356.743 482.736 356.51 483.085 356.394 483.434ZM225.844 699.388C225.728 699.272 225.728 699.039 225.612 698.923C226.077 699.039 226.542 699.156 227.008 699.272C227.008 699.388 227.008 699.388 227.008 699.505C226.659 699.621 226.426 699.854 226.077 699.97C226.077 699.854 225.961 699.621 225.844 699.388ZM240.156 708.697C240.738 709.279 241.203 709.977 241.668 710.675C241.436 710.558 241.203 710.442 240.97 710.326C240.389 709.977 239.807 709.628 239.225 709.162C239.574 709.046 239.923 708.93 240.156 708.697ZM343.828 526.486C343.828 526.02 343.828 525.438 343.828 524.857C343.828 524.508 343.711 524.275 343.711 523.926C344.061 523.809 344.293 523.693 344.642 523.46L345.108 523.577C345.34 523.693 345.689 523.693 345.922 523.809C346.039 523.809 346.039 523.926 346.039 523.926C345.224 524.74 344.526 525.555 343.828 526.486ZM235.734 595.949C235.967 596.298 236.083 596.764 236.316 597.113C236.2 597.229 235.967 597.345 235.851 597.462C235.385 596.996 234.92 596.415 234.338 596.066C234.804 595.949 235.269 595.949 235.734 595.949ZM226.775 604.792C226.775 604.676 226.659 604.56 226.659 604.56C226.775 604.56 226.891 604.56 227.008 604.56C226.891 604.56 226.891 604.676 226.775 604.792ZM295.308 605.49C295.308 605.258 295.424 605.141 295.424 604.909C295.424 604.676 295.424 604.443 295.424 604.21C295.89 604.327 296.239 604.443 296.588 604.56C296.355 604.792 296.122 604.909 295.89 605.141C295.657 605.141 295.424 605.258 295.308 605.49ZM265.754 707.068C265.87 706.952 265.987 706.719 266.103 706.602C266.219 707.301 266.452 707.999 266.685 708.697C266.336 709.395 265.87 709.977 265.521 710.559C265.288 710.559 264.939 710.559 264.707 710.559C265.172 709.395 265.638 708.348 265.987 707.184L265.754 707.068ZM256.678 528.115V527.882L256.911 527.998C256.678 528.58 256.329 529.162 256.096 529.86C255.864 529.278 255.747 528.58 255.515 527.998C255.398 527.765 255.398 527.533 255.398 527.3L256.446 527.765L256.678 528.115ZM300.66 478.431C300.777 478.431 300.777 478.431 300.893 478.431C300.777 478.547 300.777 478.547 300.66 478.431C300.66 478.547 300.66 478.547 300.66 478.431ZM273.084 618.522C273.201 618.638 273.317 618.755 273.433 618.987C273.201 618.987 273.084 618.987 272.852 618.987C272.968 618.755 273.084 618.638 273.084 618.522ZM316.019 580.125C316.019 580.009 315.903 579.892 315.903 579.776C317.415 578.147 318.812 576.518 320.091 574.889C320.208 574.773 320.324 574.656 320.441 574.424C320.441 574.656 320.557 575.005 320.557 575.238C319.044 576.983 317.648 578.612 316.019 580.125ZM382.458 492.045C382.458 491.928 382.458 491.812 382.341 491.579C382.458 491.695 382.458 491.812 382.458 492.045ZM262.729 630.739C262.496 630.507 262.263 630.274 262.147 630.041C262.147 630.041 262.147 630.041 262.263 630.041C262.38 630.157 262.496 630.39 262.729 630.739ZM356.045 528.58C356.045 528.347 356.045 528.115 356.045 527.882C356.045 527.649 356.045 527.533 355.929 527.3C356.161 527.067 356.394 526.835 356.51 526.602C356.394 527.3 356.161 527.998 356.045 528.58ZM369.891 472.032C369.426 472.613 368.96 473.195 368.611 473.893C368.495 473.893 368.379 473.893 368.146 473.893C368.03 473.661 368.03 473.428 367.913 473.079C367.913 473.079 367.913 473.079 367.913 472.962C368.03 472.846 368.146 472.846 368.146 472.73C368.96 472.264 369.426 471.799 369.775 471.683L369.891 471.566C369.891 471.683 370.008 471.799 370.008 471.915C370.008 471.799 369.891 471.915 369.891 472.032ZM191.869 655.988C191.985 657.152 192.101 658.315 192.218 659.479C192.218 659.595 192.218 659.595 192.218 659.712L190.472 659.479C190.589 658.432 190.822 657.501 191.287 656.454C191.287 656.337 191.403 656.221 191.52 656.105L191.869 655.988ZM228.753 729.292C228.52 728.71 228.404 727.895 228.288 727.081C228.637 727.197 228.986 727.43 229.451 727.546C229.684 727.895 229.8 728.128 230.033 728.477C230.149 728.71 230.266 728.943 230.498 729.175C230.382 729.175 230.266 729.175 230.033 729.292C229.568 729.292 229.102 729.292 228.753 729.292ZM264.241 502.982C264.241 502.982 264.241 503.098 264.125 503.098L263.427 503.447C263.427 503.447 263.427 503.331 263.543 503.331C263.892 503.215 264.125 503.098 264.241 502.982ZM388.275 505.193C387.81 505.542 387.344 505.891 386.879 506.24C386.297 505.891 385.599 505.774 385.134 505.891C385.366 505.658 385.599 505.425 385.832 505.309C386.879 504.495 388.159 503.796 389.206 503.564C389.322 503.564 389.322 503.564 389.439 503.564C389.206 504.029 388.857 504.378 388.624 504.727C388.392 504.844 388.392 504.96 388.275 505.193ZM309.852 463.305C309.852 463.305 309.736 463.305 309.736 463.189C309.736 463.189 309.852 463.189 309.852 463.305L309.969 463.421C309.852 463.305 309.852 463.305 309.852 463.305ZM247.137 514.385C246.788 514.617 246.439 514.85 246.206 515.199L246.09 515.315C246.672 514.036 247.137 512.872 247.719 511.708C247.37 512.523 247.254 513.454 247.137 514.385ZM238.76 531.372C238.992 531.954 239.225 532.536 239.574 533.118L238.76 533.932L237.596 535.212C237.247 535.678 236.898 536.143 236.549 536.608C236.433 536.841 236.2 537.074 236.083 537.307C236.898 535.212 237.829 533.234 238.76 531.372ZM188.494 635.277C188.494 635.277 188.494 635.044 188.611 634.928C188.611 634.928 188.611 635.044 188.494 635.277ZM399.678 483.434C399.213 483.085 398.747 482.736 398.282 482.503C397.816 482.271 397.235 482.038 396.769 481.922C397.235 482.038 397.584 482.038 397.933 482.154C398.631 482.387 398.98 482.504 399.329 482.62C399.445 482.736 399.678 482.736 399.794 482.736C399.678 482.969 399.678 483.202 399.678 483.434ZM287.978 469.355L288.21 469.588C287.978 469.821 287.861 469.937 287.629 470.17C287.745 469.937 287.861 469.704 287.978 469.355ZM283.44 480.409C283.207 480.525 282.974 480.642 282.742 480.758C282.509 480.875 282.276 480.991 282.044 481.107L281.113 480.875C282.044 479.595 282.974 478.315 283.905 476.918C283.556 478.082 283.44 479.246 283.44 480.409ZM250.977 504.378C250.628 504.844 250.395 505.193 250.046 505.658C250.744 503.796 251.21 502.284 251.442 501.353C251.675 501.237 251.908 501.12 252.14 501.12C251.675 502.167 251.326 503.215 250.977 504.378ZM248.533 503.098C242.948 510.661 234.804 525.322 224.099 547.08C221.888 551.502 219.445 556.505 216.885 561.857C216.536 562.439 216.303 562.905 215.954 563.486C215.023 565.115 214.209 566.744 213.394 568.49C213.045 569.42 212.58 570.235 212.231 571.166C211.998 571.631 211.882 572.097 211.649 572.678C210.02 575.936 208.391 579.194 206.762 582.685C205.366 559.879 204.202 535.328 203.737 509.149C205.948 509.149 208.158 509.032 210.369 508.916C218.863 508.451 227.706 507.636 236.898 505.658C240.97 504.727 245.043 503.68 249.232 502.284C248.999 502.516 248.766 502.749 248.533 503.098ZM280.182 709.86C280.764 709.162 281.229 708.464 281.694 707.882C281.229 708.581 280.88 709.279 280.415 709.977L280.182 709.86ZM280.415 655.872C280.298 654.941 280.182 654.127 279.833 653.312L281.927 653.777C281.578 654.359 280.996 655.174 280.415 655.872ZM326.607 593.04C327.305 592.109 328.004 591.062 328.585 590.131C328.585 590.248 328.585 590.364 328.585 590.481C328.004 591.295 327.305 592.109 326.607 593.04ZM402.587 485.994C402.471 485.994 402.471 485.994 402.587 485.994C402.703 485.994 402.82 485.994 402.82 485.994H402.703H402.587ZM90.6402 365.102C90.0585 363.356 89.3603 361.96 88.6622 361.029C92.3855 360.797 95.8762 360.098 99.2505 358.819C101.345 358.12 103.323 357.073 105.185 355.91C107.046 354.746 108.792 353.35 110.304 351.605C111.119 350.674 111.817 349.859 112.166 349.161C112.515 348.579 112.864 347.998 113.097 347.416C113.329 346.834 113.446 346.252 113.678 345.787C114.028 344.856 114.028 344.042 113.911 343.343C113.795 342.063 113.097 341.714 112.049 341.947C109.955 342.413 108.21 344.507 105.534 347.183C101.81 350.79 96.3416 353.001 90.5239 353.699C84.7061 354.397 78.1903 353.583 72.0235 351.372C65.7403 349.161 59.5736 345.438 54.9194 339.969C51.6614 336.129 49.1016 331.475 47.7054 326.356C47.8217 326.356 47.8217 326.356 47.9381 326.472C49.7998 327.054 51.0797 326.937 51.7778 326.356C55.9666 322.749 60.9698 317.629 67.3693 311.462C67.602 311.23 67.7184 311.113 67.7184 310.88C67.9511 310.066 67.1366 309.368 65.3913 308.67C63.646 308.088 62.3661 308.088 61.5516 308.67C60.6207 309.368 59.3408 310.415 57.4792 312.044C55.6175 313.673 54.2212 314.953 53.1741 315.884C52.1269 316.815 50.847 318.094 49.4507 319.607C48.4035 320.654 47.589 321.701 46.7745 322.632C46.6582 321.701 46.5418 320.887 46.4255 319.956C46.4255 319.025 46.3091 318.327 46.1928 317.629C46.0764 317.047 45.9601 316.582 45.8437 316.233C46.7746 314.604 47.9381 312.858 49.3344 311.23C51.196 309.019 53.5231 307.041 56.3156 305.645C56.432 305.528 56.5483 305.412 56.5483 305.295C56.6647 304.714 56.0829 303.899 54.5703 302.852C53.0577 301.805 51.7778 301.456 51.0797 301.921C50.1488 302.387 48.8689 303.085 47.1236 304.481C45.3783 305.877 44.0984 307.273 43.2839 308.321C42.8185 308.902 42.2367 309.717 41.6549 310.648C41.5386 310.182 41.5386 309.833 41.4222 309.368C39.0951 299.943 35.8372 288.773 31.8812 275.858C27.9251 262.942 23.2709 248.165 19.4312 231.527C19.1985 230.596 18.9658 229.665 18.6167 228.967C18.5004 228.618 18.384 228.385 18.2677 228.152H18.384C19.4312 227.803 20.5948 227.338 21.991 226.872C23.3873 226.407 24.8999 225.942 26.5288 225.476C28.1578 224.894 30.0195 224.429 31.9975 223.964C33.9755 223.382 36.0699 222.916 38.397 222.335C47.4727 220.124 54.803 219.077 60.1553 218.379C65.5076 217.68 72.1398 216.982 79.9356 216.633C87.8477 216.284 94.9454 216.284 101.229 216.633C101.578 216.633 101.927 216.633 102.276 216.633C102.508 217.913 102.741 219.193 103.207 220.589C104.719 225.709 107.046 233.737 110.304 244.675C113.446 255.612 115.889 264.339 117.634 270.738C119.38 277.138 121.591 285.05 124.15 294.358C126.71 303.783 129.037 312.277 131.132 319.956C131.364 321.003 131.713 321.818 131.83 322.516C133.459 327.054 135.088 328.566 136.6 327.17C138.113 325.774 138.346 322.749 137.298 318.211C135.32 309.484 132.761 299.478 129.852 288.308C130.783 287.028 131.83 285.399 132.877 283.421C140.091 269.575 148.818 252.936 158.824 233.388C163.827 223.615 169.063 213.026 174.532 201.74C177.208 196.155 180.117 190.453 183.375 184.985C185.004 182.309 186.749 179.632 188.611 177.073C189.542 175.793 190.589 174.513 191.52 173.466C192.451 172.419 193.265 171.72 193.498 171.72C193.498 171.604 193.73 171.371 194.079 171.255C194.429 171.139 194.894 170.906 195.243 169.975C195.592 169.044 195.476 167.415 193.963 166.368C193.265 165.903 192.334 165.554 191.287 165.786C190.24 165.903 189.076 166.484 188.029 167.415C187.796 167.648 187.447 167.881 187.215 168.23C187.331 167.764 187.331 167.299 187.447 166.717C187.447 166.252 187.564 165.786 187.564 165.321L187.68 164.623C187.68 164.39 187.68 164.157 187.68 163.808C187.68 163.227 187.68 162.528 187.68 161.83C187.68 161.132 187.564 160.434 187.564 159.736C187.447 158.34 187.215 156.827 186.633 155.663C186.4 154.965 186.051 154.384 185.586 153.918C185.12 153.336 184.422 152.987 183.84 152.871C183.491 152.755 183.142 152.755 182.677 152.638C182.211 152.638 181.862 152.522 181.397 152.522C180.931 152.522 180.35 152.638 179.884 152.638C179.302 152.755 178.837 152.871 178.255 152.987C177.673 153.104 177.208 153.22 176.626 153.22L175.812 153.336H175.346C174.765 153.336 174.183 153.22 173.601 153.22C172.903 153.104 172.321 153.104 171.623 152.871C173.019 151.475 174.299 149.613 175.23 147.286C176.277 144.726 177.092 141.701 177.208 138.327C177.324 134.836 176.859 130.996 175.695 127.04C174.532 122.386 172.438 117.266 170.11 111.565C167.783 105.864 165.224 99.3478 164.176 91.9011C163.711 88.1778 163.711 84.2217 164.409 80.1493C165.107 76.0769 166.271 72.0045 167.9 67.9321C169.529 63.8597 171.623 59.6709 173.95 55.4821C176.277 51.2934 178.953 47.1046 181.979 43.0322C188.029 34.771 194.661 27.7897 201.875 22.2047C209.089 16.6197 216.652 12.6636 224.099 10.2202C231.546 7.77676 238.992 6.72957 245.625 6.96227C247.254 6.96227 248.999 7.19498 250.511 7.31134C252.14 7.54405 253.653 7.6604 255.166 8.12582C258.191 8.70759 260.983 9.63843 263.66 10.5693C269.012 12.6636 274.248 15.5725 279.716 19.2959C282.393 21.1575 285.069 23.1356 287.861 25.2299C290.654 27.3243 293.446 29.5351 296.239 31.8622C301.707 36.5163 306.943 41.6359 310.434 48.0354C313.925 54.4349 315.903 62.1144 316.135 70.1428C316.252 74.2152 315.903 78.1713 315.205 82.1273C314.972 83.0582 314.856 84.1054 314.623 85.0362C314.39 85.967 314.157 86.8979 313.925 87.9451C313.343 89.8067 312.761 91.9011 312.179 93.8792C311.016 98.0679 309.736 102.606 309.62 107.725C309.62 110.285 309.969 112.961 310.667 115.521C311.365 117.965 312.412 120.292 313.459 122.27C315.554 126.342 317.881 129.484 319.277 132.509C319.975 134.021 320.557 135.301 321.022 136.814C321.488 138.21 321.72 139.723 321.837 141.235C322.186 144.261 321.837 147.17 321.139 150.078C320.441 152.987 319.161 155.78 317.648 158.456C315.903 161.481 314.274 163.692 312.878 165.437C310.434 168.579 308.107 171.255 306.129 173.466C304.151 175.676 302.522 177.538 301.475 178.934C299.264 181.727 299.031 183.007 300.777 182.541C302.638 182.192 305.547 180.447 309.387 177.422C311.365 175.909 313.459 173.931 315.786 171.488C318.113 169.044 320.441 166.135 322.651 162.645C324.048 160.201 325.327 157.641 326.375 154.965C326.724 153.802 327.073 152.638 327.422 151.475C329.749 152.638 332.541 153.918 335.799 155.547C340.221 157.874 345.457 161.016 351.042 165.554C354.183 168.113 357.558 171.371 361.048 175.211C364.539 179.051 368.262 183.472 371.753 188.825C378.851 199.296 385.134 213.143 389.439 229.781C391.533 238.159 393.046 246.187 394.093 253.75C395.14 261.43 395.838 268.644 396.42 275.392C397.467 289.006 397.816 300.874 398.282 310.88C398.747 321.003 399.213 332.173 399.794 344.623C400.376 357.073 401.074 370.687 401.54 385.347C402.005 400.124 402.354 414.087 402.238 427.468C402.121 440.732 401.656 453.415 400.609 465.283C400.376 468.541 400.143 471.217 399.911 473.195C399.794 474.242 399.794 475.29 399.678 476.337C399.445 476.22 399.213 476.22 398.98 476.104C396.653 475.406 393.86 475.289 391.068 475.289C389.672 475.289 388.159 475.406 386.879 475.289C385.599 475.289 384.203 475.173 383.156 474.591C382.574 474.242 381.992 473.661 381.643 473.079C381.294 472.381 381.178 471.683 381.178 470.984C381.178 470.286 381.294 469.588 381.41 468.89C381.527 468.541 381.527 468.192 381.643 467.843C381.759 467.377 381.876 467.028 381.992 466.563C382.225 465.748 382.458 464.818 382.69 463.887C382.923 462.84 383.156 461.56 383.156 460.396C383.156 459.233 383.039 457.953 382.574 456.789C382.108 455.626 381.294 454.578 380.363 453.88C378.967 452.833 377.222 452.368 375.244 452.251C374.778 452.251 374.313 452.251 373.847 452.251L372.451 452.368C371.753 452.368 371.055 452.484 370.357 452.484C367.448 452.6 364.539 452.833 361.514 452.949C355.463 453.298 349.18 453.648 342.664 454.113C334.519 454.695 325.793 455.393 316.834 456.207C314.157 455.975 311.481 455.742 308.689 455.393C307.06 455.16 305.547 454.927 303.918 454.695L301.358 454.229C300.311 454.113 299.148 453.997 298.1 453.88C296.122 453.88 294.028 453.997 291.585 454.695C292.166 450.622 292.283 446.55 291.934 442.478C291.003 432.355 287.396 423.163 282.625 415.134C277.855 407.222 271.921 400.474 265.754 394.539C262.263 391.281 259.354 388.838 257.027 387.209C252.839 384.068 249.115 381.74 245.857 379.995C242.599 378.366 240.04 377.203 238.178 376.388C236.549 375.69 235.385 375.341 234.687 375.341C251.791 369.407 267.499 363.473 281.927 357.539C284.72 356.375 286.814 355.561 288.443 354.746C300.311 349.277 304.616 346.02 301.707 345.321C298.799 344.623 291.585 346.601 280.182 351.139C264.707 357.19 247.603 363.589 228.637 369.872C223.866 371.501 219.096 373.014 214.092 374.643C209.206 376.155 204.086 377.784 198.966 379.297C193.847 380.693 188.611 381.74 183.375 381.508C180.699 381.391 178.255 381.042 175.812 380.228C173.368 379.413 171.041 378.25 169.063 376.737C167.085 375.225 165.573 373.247 164.525 371.152C163.595 369.058 163.129 366.614 163.129 363.938C163.129 361.262 163.478 358.469 163.944 355.444C164.409 352.419 164.874 349.394 165.34 346.252C166.736 336.711 168.249 327.054 169.878 317.047C170.11 316.698 170.343 316.465 170.459 316.116C173.368 311.695 173.834 309.251 171.739 308.902C171.623 308.902 171.39 308.902 171.158 308.902C171.158 308.553 171.274 308.204 171.274 307.855C175.695 281.559 180.815 253.75 186.865 224.313C187.564 220.822 188.145 217.68 188.611 214.772C189.658 208.488 190.123 204.532 189.774 202.903C192.8 203.485 196.756 203.951 201.526 204.183C206.18 204.416 212.231 204.765 219.445 205.58C223.052 205.929 227.008 206.394 231.313 206.976C233.407 207.325 235.734 207.674 237.945 208.023C238.876 208.139 239.923 208.372 240.97 208.488C241.901 208.721 242.832 208.837 243.879 209.07C243.879 209.07 243.996 209.07 243.996 209.187V209.419L243.879 209.768L243.763 210.583C243.647 211.048 243.53 211.63 243.53 212.095C243.414 213.026 243.181 213.957 243.065 214.888C242.716 217.215 242.25 219.542 241.901 221.753C241.203 226.174 240.389 230.363 239.807 234.203C238.527 241.999 237.363 248.747 236.316 254.449C235.385 260.15 234.222 266.549 233.058 273.647C232.709 275.392 232.476 277.254 232.127 279.116C232.011 279.581 232.011 280.047 231.895 280.512C231.778 281.326 231.662 282.025 231.546 282.839C231.313 284.468 231.08 286.097 230.848 287.726C230.731 288.54 230.615 289.355 230.498 290.169C230.615 290.751 230.731 291.333 230.848 291.798C231.08 292.962 231.313 294.009 231.546 295.173L231.778 295.987C231.778 296.103 231.778 296.336 231.895 296.453L232.36 296.685C232.942 297.034 233.64 297.383 234.222 297.616C235.502 298.081 236.782 298.198 238.178 298.198C239.574 298.198 240.97 297.849 242.367 297.383C243.065 297.034 243.879 296.802 244.577 296.336C245.392 295.871 246.09 295.405 246.904 294.94C247.719 294.474 248.417 294.009 249.232 293.544C249.93 293.078 250.628 292.613 251.21 292.147C252.024 291.566 252.955 290.984 253.769 290.402C257.144 288.075 260.518 285.864 263.776 283.537C270.175 278.999 276.109 274.461 281.694 270.156C283.207 268.993 284.487 267.946 285.418 267.131C291.934 261.313 293.795 258.172 291.352 257.823C288.908 257.474 284.487 259.801 277.971 264.688C269.245 271.32 259.354 278.301 248.301 285.515C247.603 285.981 247.021 286.33 246.323 286.795C245.741 287.144 245.275 287.493 244.694 287.842C243.647 288.54 242.599 289.122 241.436 289.588C240.272 290.053 238.992 290.169 237.945 289.588C237.829 289.471 237.712 289.471 237.596 289.355C237.48 289.355 237.596 289.239 237.596 289.122V288.889L237.829 287.842C237.945 287.144 238.062 286.562 238.178 285.864C238.411 284.701 238.643 283.421 238.876 282.257L238.992 281.443L239.225 280.163C239.341 279.232 239.574 278.301 239.69 277.37C240.272 273.647 240.97 269.924 241.552 266.2C244.112 250.958 246.788 234.668 249.581 217.215L249.813 215.586L250.279 212.677C250.511 210.699 250.861 208.838 251.093 206.859L251.559 203.834V203.485V203.252C251.559 203.136 251.442 203.252 251.442 203.252L250.744 203.136L249.348 202.903C247.37 202.554 245.508 202.322 243.53 201.973C240.621 201.507 237.596 201.158 234.687 200.693C232.709 200.46 230.731 200.227 228.753 199.995C228.986 198.249 229.102 196.155 229.568 193.479C230.149 190.803 231.546 188.126 233.873 186.497C236.2 184.868 238.992 184.054 242.134 183.472C248.301 182.192 255.049 182.076 262.729 181.029C266.568 180.447 270.641 179.632 274.83 177.887C275.877 177.422 276.924 176.956 277.971 176.375C279.018 175.793 280.066 175.211 280.996 174.397C281.927 173.698 282.974 173 283.905 172.069L285.301 170.79C285.767 170.324 286.116 169.859 286.581 169.393C289.956 165.67 292.515 161.016 294.028 155.896C295.424 151.126 296.122 145.89 295.424 140.537C295.657 140.654 295.773 140.654 296.006 140.77C296.821 141.119 297.402 141.352 297.984 141.468C301.591 142.399 303.336 141.817 303.22 139.839C303.104 137.861 301.475 136.116 298.217 134.72C295.075 133.323 291.817 131.811 288.559 129.833C285.301 127.855 281.811 125.644 280.182 122.27C279.367 120.641 278.786 118.663 278.669 116.801C278.553 114.939 278.902 112.961 279.716 111.565C279.833 111.216 280.182 110.867 280.531 110.518C280.531 110.402 280.88 110.285 280.996 110.052L281.578 109.587L282.858 108.54C284.603 107.144 285.883 105.864 286.814 104.7C287.745 103.537 288.443 102.373 288.792 100.86C288.908 100.511 289.025 100.046 289.025 99.5805C289.025 99.3478 289.141 99.1151 289.141 98.8824V98.766V98.6497V98.417C289.025 97.8352 288.908 97.2534 288.792 96.5553C287.28 96.0899 285.767 95.5081 284.254 95.0427C283.44 94.81 282.625 94.5773 281.811 94.3446C280.996 94.1119 280.182 93.8792 279.251 93.6465C277.389 93.181 275.528 92.7156 273.55 92.3665C272.386 92.1338 271.223 91.7848 270.059 91.5521C268.197 91.203 266.336 90.7376 264.474 90.3885C265.638 89.9231 266.685 89.4577 267.732 88.9923C268.663 88.6432 269.361 88.1778 269.943 87.9451C270.874 87.3633 271.688 86.7815 272.27 86.1998C272.852 85.618 273.317 85.0362 273.55 84.5708C274.015 83.64 273.782 82.8255 272.968 82.3601C272.037 81.7783 270.99 81.6619 269.594 81.7783C268.895 81.8946 268.197 82.011 267.383 82.2437C266.568 82.4764 265.754 82.8255 264.823 83.1745C259.936 85.1526 254.351 86.7815 248.184 88.2941C242.134 89.6904 235.385 90.8539 228.288 91.3194C224.797 91.4357 221.074 91.5521 217.699 90.9703C216.885 90.7376 216.07 90.6212 215.14 90.3885C214.209 90.1558 213.394 89.9231 212.464 89.574C211.533 89.225 210.718 88.9923 209.787 88.6432C208.857 88.2941 208.042 87.9451 207.111 87.4797C203.621 85.8507 200.246 83.7563 197.105 81.3129C193.963 78.7531 191.054 75.8442 188.611 72.5863C188.262 72.2372 188.029 71.8881 187.68 71.5391C187.447 71.19 187.098 70.841 186.865 70.6082C184.771 68.1648 183.375 67.9321 182.56 70.0265C181.862 72.2372 182.444 75.0297 184.887 78.0549C186.633 80.2657 189.193 83.2909 193.032 86.5488C192.8 88.0614 192.8 89.6904 192.916 91.7848C193.265 96.0899 193.149 102.722 191.752 111.681C190.589 120.757 189.542 127.855 188.844 133.091L188.727 133.556V133.789V134.138C188.727 134.603 188.611 135.185 188.611 135.767C188.494 136.814 188.378 137.978 188.378 139.025C188.378 141.235 188.844 143.446 190.007 145.308C190.589 146.239 191.52 147.053 192.683 147.519C193.847 147.984 194.778 148.1 195.825 147.984C196.872 147.984 198.152 147.751 199.664 147.053C200.014 146.937 200.363 146.704 200.712 146.588C200.712 146.704 200.712 146.82 200.712 146.937C200.828 147.984 200.944 149.031 201.061 149.962C201.41 151.94 201.759 153.918 202.341 155.78C202.922 157.641 203.388 159.27 204.435 161.481C205.017 162.645 205.599 163.576 206.18 164.274C206.297 164.39 206.413 164.506 206.529 164.623C206.413 164.739 206.297 164.855 206.18 164.972C205.482 165.554 204.9 166.135 204.202 166.717C203.621 167.415 203.039 167.997 202.457 168.695C200.363 171.371 198.966 174.397 197.803 177.189C196.639 180.098 195.825 182.774 194.894 185.45C194.079 188.126 193.149 190.57 192.101 192.781C191.985 193.013 191.869 193.246 191.752 193.479C191.636 193.711 191.52 193.944 191.403 194.177C191.171 194.642 191.054 195.108 190.822 195.457C190.472 196.155 190.24 196.853 190.007 197.318C189.891 197.667 189.891 198.017 189.891 198.366C183.026 198.831 181.048 199.995 184.073 201.624C185.12 202.205 186.516 202.671 188.029 203.02C187.796 203.252 187.447 203.718 187.098 204.183C184.422 208.488 181.63 216.517 179.07 228.618C176.161 242.348 171.623 264.106 166.271 293.893C164.991 301.339 163.711 308.437 162.547 315.069C158.242 320.305 153.472 326.123 148.352 332.406C143 338.806 137.182 345.787 130.434 352.535C123.685 359.4 115.889 366.033 106.93 371.85C105.766 372.548 104.603 373.247 103.439 373.945C102.857 374.294 102.276 374.643 101.694 374.992L101.345 375.225H101.229L100.181 375.69C98.9014 376.272 97.6215 376.737 96.5743 377.086C95.5271 377.435 94.4799 377.668 93.8982 377.668C93.7818 377.668 93.5491 377.668 93.5491 377.668C93.4327 377.668 93.4327 377.668 93.4327 377.552C93.3164 377.552 93.3164 377.435 93.2 377.319C93.2 377.203 93.0837 377.203 93.0837 377.086V376.97C93.0837 376.97 92.9673 376.854 92.9673 376.737C92.851 376.504 92.7346 376.388 92.6183 376.155C91.8038 374.526 91.222 372.432 90.7566 369.407C91.4547 367.894 91.1057 366.498 90.6402 365.102ZM160.686 333.686C159.755 339.62 158.94 345.089 158.126 350.325C157.428 355.444 156.497 360.331 156.613 365.218C156.73 367.429 157.079 369.872 158.01 372.316C154.519 371.501 149.865 370.803 143.931 370.57C137.531 370.338 129.503 370.57 120.311 372.199C119.962 372.316 119.613 372.316 119.263 372.432C120.078 371.85 120.776 371.268 121.591 370.803C123.569 369.174 125.43 367.778 127.176 366.265C128.805 364.753 130.434 363.473 131.83 362.193C137.415 357.073 143.814 350.325 150.912 341.831C154.752 337.293 158.242 332.871 161.5 328.683C161.267 330.195 160.918 331.941 160.686 333.686ZM210.602 170.557C212.114 169.161 213.627 168.346 215.372 167.764C215.605 167.764 215.838 167.648 215.954 167.532C218.63 166.717 221.423 166.717 224.099 166.601C228.52 166.601 232.942 166.717 236.782 165.67C238.76 165.205 240.738 164.39 242.832 162.877C244.926 161.248 246.672 159.038 247.719 156.362C248.184 154.965 248.65 153.453 248.65 151.707C248.65 149.962 248.301 148.1 247.37 146.355C246.904 145.541 246.323 144.726 245.741 143.912C245.043 143.097 244.577 142.632 244.228 142.399C244.112 142.283 244.112 142.283 243.996 142.166C243.996 142.166 243.996 142.166 244.112 142.166H244.228C244.228 142.166 244.228 142.166 244.345 142.05C244.345 142.05 244.461 141.817 244.577 141.701C244.81 141.468 244.926 141.352 245.159 141.235C245.392 141.119 245.625 141.119 245.741 141.235C245.974 141.352 245.974 141.352 246.323 141.585C247.021 141.934 247.835 142.632 248.417 143.563C248.533 143.795 248.65 144.028 248.766 144.261L248.882 144.61L248.999 145.075C249.232 145.657 249.348 146.239 249.581 146.937C249.697 147.751 249.813 148.449 249.93 148.915C250.395 150.777 250.744 152.406 251.442 153.336C252.024 154.267 252.839 154.5 253.769 153.918C254.7 153.336 255.398 152.406 255.747 151.009C256.213 149.613 256.329 147.635 255.98 145.424C255.747 143.912 255.282 142.283 254.467 140.77C253.653 139.257 252.606 137.861 251.21 136.698C249.813 135.534 248.068 134.603 245.974 134.371C244.926 134.254 243.879 134.371 242.832 134.603C241.785 134.952 240.854 135.534 239.923 136.232C238.294 137.745 236.898 139.956 237.014 142.632C237.014 144.028 237.596 145.424 238.411 146.588C239.225 147.635 240.156 148.333 240.505 148.915C240.97 149.497 241.203 150.195 241.319 150.777C241.436 151.475 241.319 152.056 241.203 152.871C240.854 154.384 239.923 155.78 238.76 156.827C238.178 157.292 237.48 157.758 236.665 158.107C235.851 158.456 235.036 158.689 234.105 158.921C232.244 159.387 230.149 159.503 227.939 159.503C225.728 159.503 223.168 159.503 220.376 159.736C218.049 159.969 215.489 160.318 212.813 161.248C212.231 160.318 211.649 159.27 211.184 158.107C210.718 157.176 210.485 156.245 210.136 155.198C210.835 155.78 211.533 156.013 212.114 155.896C213.045 155.78 214.674 155.431 216.769 154.849C218.863 154.151 220.492 153.569 221.772 152.987C222.935 152.406 224.448 151.707 226.077 150.66C227.706 149.613 229.219 148.449 230.382 147.402C230.615 147.286 230.731 147.17 230.731 147.053C231.08 146.122 230.382 145.308 228.637 144.493C226.891 143.679 225.612 143.563 224.797 144.028C222.586 145.192 220.143 146.588 217.467 147.868C214.907 149.031 212.114 150.078 209.089 150.777C209.089 150.66 209.089 150.66 209.089 150.544C208.856 149.148 208.74 147.868 208.624 146.471C208.624 145.773 208.507 145.075 208.507 144.377C208.507 143.679 208.507 142.864 208.275 141.934C208.158 141.468 208.042 141.003 207.693 140.537C207.46 140.072 206.995 139.49 206.413 139.141C205.133 138.443 203.97 138.559 203.155 138.559C202.69 138.559 202.224 138.676 201.875 138.676L200.944 138.792C200.363 138.908 199.897 139.025 199.432 139.257C198.966 139.49 198.501 139.607 198.036 139.723C197.57 139.839 196.988 139.607 196.756 139.141C196.174 138.21 196.174 136.93 196.29 136C196.407 135.534 196.523 134.952 196.523 134.487L196.639 133.789C196.639 133.672 196.639 133.672 196.639 133.556V133.207L196.756 132.509C196.988 130.764 197.221 128.902 197.454 127.04C197.919 123.317 198.385 119.477 198.85 115.521C199.083 113.543 199.315 111.449 199.548 109.354C199.781 107.26 200.014 105.049 200.13 102.722C200.363 98.8824 200.363 94.81 199.897 90.5049C200.479 90.8539 200.944 91.203 201.526 91.5521C205.831 93.9955 209.904 95.6245 213.743 96.788C214.209 96.9044 214.674 97.0207 215.14 97.1371C215.605 97.2534 216.07 97.3698 216.652 97.4862C217.118 97.6025 217.583 97.7189 218.049 97.7189C218.514 97.8352 218.979 97.8352 219.445 97.8352C220.376 97.9516 221.19 98.0679 222.005 98.0679C222.819 98.0679 223.634 98.0679 224.332 98.1843C230.266 98.3006 237.48 97.6025 245.741 95.8572C248.417 95.2754 250.977 94.6936 253.537 93.9955C254.584 94.4609 255.631 94.81 257.027 95.0427C259.005 95.5081 261.565 95.9735 264.59 96.6717C266.103 97.0207 267.848 97.4862 269.594 97.8352C270.524 98.0679 271.455 98.3006 272.386 98.5333C273.317 98.7661 274.015 98.9988 274.83 99.2315C276.575 99.8132 278.087 100.279 279.251 100.977C279.6 101.093 279.833 101.209 280.066 101.442L280.298 101.559C280.298 101.559 280.415 101.559 280.415 101.675C280.415 101.908 280.298 102.024 280.182 102.257C279.716 103.071 279.018 103.653 278.32 104.002C276.924 104.933 275.528 105.515 274.713 106.445C273.782 107.609 272.968 109.354 272.502 111.1C272.037 112.845 271.804 114.823 271.921 116.801C272.037 119.361 272.735 122.037 274.015 124.597C273.433 124.131 272.735 123.55 271.921 123.084C271.572 122.851 271.223 122.735 270.874 122.735C269.477 122.619 269.012 123.55 269.012 125.411C269.012 127.389 269.361 128.553 270.059 129.251C270.874 130.065 272.037 131.462 272.852 133.323C273.666 135.301 273.782 136.93 273.782 137.978C273.782 139.025 273.55 140.421 273.084 141.585C272.619 142.864 271.921 143.679 271.339 144.144C271.223 144.261 271.223 144.261 271.223 144.261C271.223 144.61 272.153 145.192 274.015 145.773C275.76 146.355 277.04 146.355 277.738 145.657C278.553 144.726 279.367 143.446 279.833 141.817C280.298 140.188 280.531 138.327 280.415 136.232C280.298 134.487 279.716 132.742 278.902 130.88C280.066 131.811 281.113 132.625 282.16 133.323C283.905 134.487 285.534 135.418 287.163 136.232C287.978 136.698 288.792 137.047 289.607 137.396C289.607 138.676 289.723 140.188 289.839 141.701C289.956 144.028 289.956 146.937 289.141 150.428C288.443 153.918 286.93 157.758 284.254 161.598C281.578 165.437 278.32 167.997 275.295 169.626C272.27 171.255 269.245 172.069 266.685 172.651C264.125 173.233 261.216 173.582 257.725 173.931C254.351 174.28 250.511 174.513 246.206 175.095C243.996 175.327 241.901 175.793 239.69 176.258C237.596 176.724 235.269 177.422 232.942 178.702C231.778 179.283 230.615 180.098 229.568 181.029C228.52 181.96 227.473 183.123 226.659 184.287C225.03 186.614 224.099 189.29 223.634 191.85C223.401 193.362 223.401 194.526 223.401 195.457C223.517 196.853 223.866 198.017 224.215 198.947C215.954 198.133 207.46 197.551 198.734 197.318C197.919 197.318 197.221 197.318 196.523 197.318C197.686 196.271 198.85 194.642 199.781 192.432C200.828 189.988 201.992 186.614 203.388 182.658C204.086 180.68 204.9 178.469 206.064 176.258C207.111 174.513 208.624 172.302 210.602 170.557ZM83.8917 447.713C82.7281 445.619 81.9136 443.292 80.9828 441.081C80.6337 439.918 80.1683 438.871 79.8193 437.707C79.3538 436.543 79.2375 435.38 78.8884 434.216L78.423 432.471L78.0739 430.726L77.7249 428.98L77.6085 428.05L77.4922 427.119C77.3758 425.955 77.2595 424.792 77.2595 423.628C77.2595 422.465 77.2595 421.301 77.3758 420.137C77.6085 415.367 78.5394 410.829 80.2847 406.408C82.03 401.986 84.4734 398.03 87.7314 394.539C90.9893 391.049 94.829 388.14 99.1341 385.813C107.861 381.042 118.333 378.482 129.154 377.203C134.273 376.621 138.927 376.272 143.233 375.923C150.796 375.457 156.148 375.341 159.057 374.875C160.104 376.854 161.384 378.599 163.013 380.228C167.202 384.417 172.787 387.093 178.953 388.14C185.12 389.187 191.52 388.489 197.686 387.093C200.712 386.395 203.737 385.464 206.762 384.533C209.787 383.602 212.813 382.671 215.838 381.624C222.237 379.646 228.404 377.552 234.338 375.457C234.338 375.69 234.455 376.039 234.687 376.504C235.851 378.25 238.76 380.81 243.297 384.068C247.835 387.442 254.002 391.98 260.867 398.495C265.521 402.801 269.826 407.687 273.782 413.156C277.622 418.625 280.996 424.559 283.091 431.191C285.301 437.707 286.232 444.921 285.418 452.019C284.72 459.116 282.276 466.214 278.32 472.497C276.459 475.522 274.248 478.315 271.688 480.875C271.106 480.991 270.641 481.107 270.175 481.224C267.15 482.154 264.823 483.551 262.845 485.18C260.867 486.809 259.238 488.554 257.958 490.416C257.725 490.648 257.609 490.997 257.376 491.23C252.257 493.906 246.555 495.884 240.738 497.513C232.942 499.608 224.681 500.888 216.303 501.586C212.114 501.935 207.809 502.167 203.504 502.167H203.388C203.271 491.463 203.155 480.525 203.155 469.355C203.155 466.33 203.155 463.421 203.039 460.862C202.69 450.622 201.643 447.481 199.781 451.67C198.85 453.764 198.152 456.673 197.686 460.396C197.221 464.119 196.872 468.657 196.872 474.126C196.756 481.224 196.756 490.532 196.872 502.167C194.778 502.167 192.683 502.167 190.589 501.935C178.953 501.353 166.969 499.84 155.101 496.931C154.752 496.233 154.403 495.652 154.17 495.186C154.17 495.07 154.053 495.07 154.053 495.07C153.821 495.07 153.588 495.652 153.355 496.466C148.119 495.07 142.767 493.441 137.647 491.579C128.921 488.321 120.427 484.249 112.515 479.013C111.817 478.547 111.119 478.082 110.421 477.617C110.071 476.686 109.606 475.871 109.141 475.057C108.908 474.708 108.675 474.475 108.442 474.126C109.373 469.123 110.188 464.119 111.119 459C111.7 455.626 112.166 452.6 112.515 449.691C114.028 438.405 113.562 434.914 111.002 439.103C108.442 443.292 106.115 451.32 104.021 463.072C103.556 465.399 103.09 467.959 102.625 470.635C102.159 470.519 101.81 470.403 101.345 470.403C97.7379 467.261 94.4799 463.77 91.5711 459.931C90.0585 458.069 88.7786 456.091 87.3823 454.113C87.1496 453.764 87.0332 453.415 86.8005 453.182L86.6842 453.066C85.7533 451.204 84.7061 449.459 83.8917 447.713ZM132.644 660.061C132.062 658.199 131.364 656.686 130.783 655.29C130.317 653.545 129.735 651.799 128.921 650.17L130.317 649.705C131.248 653.196 131.946 656.57 132.644 660.061ZM87.615 709.395C87.9641 709.511 88.1968 709.628 88.5458 709.628C88.6622 709.744 88.6622 709.977 88.7786 710.093C88.6622 710.326 88.5458 710.675 88.4295 710.908C88.1968 710.442 87.9641 709.977 87.615 709.395ZM154.868 506.123C154.752 506.123 154.635 506.007 154.635 505.891L154.752 505.658C154.635 505.891 154.752 506.007 154.868 506.123ZM154.053 505.658C153.821 505.542 153.704 505.425 153.472 505.309L153.937 504.262C154.17 504.727 154.403 505.193 154.635 505.774C154.403 505.658 154.17 505.658 154.053 505.658ZM109.49 703.228C109.141 703.228 108.559 703.112 108.093 702.879C107.861 702.763 107.512 702.53 107.163 702.181L110.653 700.668C110.77 700.668 110.77 700.668 110.886 700.668C110.77 701.367 110.653 701.948 110.421 702.297C110.188 702.53 109.839 702.763 109.606 702.995C109.606 703.112 109.606 703.112 109.49 703.228C109.606 703.228 109.606 703.228 109.49 703.228ZM81.9136 544.055C82.2627 545.917 82.4954 547.895 82.6118 549.873C82.6118 549.989 82.4954 550.106 82.4954 550.222C81.7973 547.546 81.2155 544.87 80.7501 542.077C80.9828 542.077 81.2155 542.077 81.4482 542.077C81.6809 542.775 81.7973 543.473 81.9136 544.055ZM42.5858 556.272C42.7021 555.691 42.8185 555.225 43.0512 554.643C43.4003 554.411 43.7493 554.294 44.0984 554.062C44.2147 554.527 44.3311 554.876 44.3311 555.341C43.8657 555.691 43.4003 556.04 42.8185 556.389L42.4694 556.621C42.5858 556.505 42.5858 556.389 42.5858 556.272ZM61.2025 570.468V569.537C61.5516 569.537 61.9006 569.653 62.1334 569.653C61.9006 570.7 61.7843 571.631 61.6679 572.678C61.4352 572.562 61.3189 572.446 61.0862 572.213C61.2025 571.747 61.2025 571.166 61.2025 570.468ZM85.5206 604.676C85.637 604.909 85.7533 605.258 85.8697 605.49C85.637 605.374 85.2879 605.258 85.0552 605.258C85.1716 604.909 85.1716 604.559 85.2879 604.21L85.5206 604.676ZM97.5052 653.079C97.1561 652.73 96.807 652.381 96.3416 652.032C96.458 651.799 96.5743 651.567 96.807 651.218C97.1561 651.334 97.5051 651.45 97.7379 651.683C97.7379 652.148 97.6215 652.614 97.5052 653.079ZM54.6867 543.241H54.5703C54.5703 543.124 54.5703 542.892 54.4539 542.775C54.5703 542.892 54.5703 543.008 54.6867 543.241ZM58.5264 551.036C58.6427 551.153 58.6427 551.385 58.7591 551.502C58.41 551.967 58.0609 552.665 57.5955 553.363C57.5955 553.48 57.4792 553.48 57.4792 553.596C57.3628 553.363 57.2465 553.131 57.1301 552.782C57.5955 552.2 58.0609 551.618 58.5264 551.036ZM78.3066 562.555C78.423 562.206 78.423 561.741 78.5394 561.392C78.7721 561.392 79.0048 561.508 79.2375 561.508C79.0048 561.974 78.6557 562.323 78.3066 562.555ZM66.4385 530.907C66.4385 530.325 66.4385 529.743 66.4385 529.162C66.6712 529.045 66.7875 528.929 67.0202 528.813C67.253 529.511 67.602 530.325 67.8347 531.023C67.3693 531.023 66.9039 531.023 66.4385 530.907ZM82.8445 627.365C82.8445 627.481 82.8445 627.481 82.7281 627.598V627.481C82.7281 627.365 82.7281 627.365 82.8445 627.365ZM52.1269 558.018C52.4759 558.599 52.7086 559.065 53.0577 559.647C52.825 559.763 52.5923 559.763 52.4759 559.879C52.3596 559.298 52.2432 558.716 52.1269 558.018ZM72.2562 523.577L71.3254 521.831C71.5581 521.831 71.9071 521.715 72.1398 521.715C72.2562 522.297 72.2562 522.879 72.2562 523.577ZM90.1748 585.594C89.8258 584.779 89.4767 584.081 89.1276 583.267C89.1276 583.034 89.244 582.918 89.244 582.685C89.4767 583.034 89.593 583.383 89.8257 583.732L90.0585 584.197C89.9421 584.546 90.0585 585.128 90.1748 585.594ZM44.9129 531.954C44.5638 532.187 44.0984 532.536 43.7493 532.769L43.633 532.885C43.2839 532.42 43.0512 532.071 42.7021 531.721C43.4003 531.838 44.2147 531.954 44.9129 531.954ZM36.6517 536.143C36.8844 536.259 37.0008 536.492 37.2335 536.725C37.0008 536.841 36.8844 536.957 36.6517 537.074C36.7681 536.725 36.7681 536.492 36.6517 536.143ZM38.2807 547.895C38.1643 548.128 37.9316 548.477 37.8152 548.709C37.8152 548.593 37.8152 548.36 37.6989 548.244C37.9316 548.128 38.1643 548.011 38.2807 547.895ZM80.9828 523.111H81.0992C81.0992 523.111 81.0992 523.111 80.9828 523.111ZM31.7648 553.713C31.8812 554.062 31.8812 554.294 31.9975 554.643C32.1139 555.341 32.3466 555.923 32.4629 556.621C32.1139 557.785 31.9975 558.948 31.9975 560.112C31.8812 560.112 31.7648 559.996 31.6485 559.996C31.2994 558.483 30.9503 556.854 30.7176 555.225C31.0667 554.643 31.4157 554.178 31.7648 553.713ZM81.2155 497.397C81.2155 497.513 81.3319 497.746 81.3319 497.862C81.4482 498.444 81.5646 499.026 81.7973 499.608C81.4482 500.306 81.2155 500.888 80.8664 501.586C80.7501 501.935 80.6337 502.284 80.5174 502.633C80.5174 501.353 80.5174 500.073 80.2847 498.677C80.5174 498.444 80.7501 498.095 80.8664 497.862C80.9828 497.746 81.0992 497.63 81.2155 497.397ZM60.388 615.729C61.0862 616.195 61.7843 616.544 62.5988 616.544C62.8315 616.544 63.0642 616.544 63.2969 616.544C63.4133 617.009 63.5296 617.475 63.5296 618.057C63.4133 618.057 63.2969 617.94 63.2969 617.94C62.7151 617.708 62.017 617.475 61.3189 617.591C60.9698 617.009 60.7371 616.311 60.388 615.729ZM89.593 535.561C89.4767 535.328 89.3603 535.212 89.1276 534.979H89.593C89.593 535.212 89.593 535.328 89.593 535.561ZM86.9169 527.416C87.4986 526.951 88.0804 526.602 88.6622 526.136C88.7786 526.253 88.7786 526.369 88.8949 526.486C88.3131 526.835 87.615 527.067 86.9169 527.416ZM122.289 503.564C121.823 503.564 121.474 503.68 121.009 503.68C120.892 503.098 120.776 502.633 120.543 502.051C120.892 502.167 121.125 502.284 121.474 502.517C121.707 502.633 121.94 502.749 122.289 502.982C122.172 503.098 122.172 503.331 122.289 503.564ZM76.6777 488.438C77.0267 488.67 77.4922 489.019 77.9576 489.136C77.7249 489.601 77.3758 490.067 77.1431 490.648C77.0267 490.648 76.9104 490.765 76.9104 490.765C76.445 490.183 76.0959 489.717 75.5141 489.252C75.3978 489.136 75.2814 489.019 75.1651 488.903C75.1651 488.903 75.1651 488.903 75.2814 488.787C75.6305 488.787 76.2123 488.554 76.6777 488.438ZM20.7111 546.964C21.4092 547.313 22.1074 547.662 22.9219 547.895C22.9219 548.36 22.9219 548.826 23.0382 549.291C23.0382 549.524 23.0382 549.873 23.0382 550.106C22.3401 549.291 21.5256 548.593 20.7111 547.778L20.4784 547.429C20.5948 547.313 20.7111 547.08 20.7111 546.964ZM122.405 696.48C122.754 696.014 122.987 695.665 123.336 695.2C123.569 694.967 123.801 694.734 124.034 694.502C124.383 694.385 124.848 694.152 125.198 694.036C124.732 694.502 124.15 694.967 123.685 695.549C123.22 696.014 122.754 696.48 122.289 696.829C122.405 696.596 122.405 696.596 122.405 696.48ZM48.5199 616.428L49.4507 615.962C51.3124 620.267 53.0577 624.573 54.803 628.994C52.3596 624.922 50.2652 620.733 48.5199 616.428ZM95.7598 714.049C96.1089 714.165 96.5743 714.282 96.9234 714.282H97.0397C96.9234 714.398 96.6907 714.631 96.5743 714.747C96.3416 714.631 95.9925 714.398 95.7598 714.049ZM71.4417 483.434C70.7436 483.667 70.0455 483.9 69.3473 484.132C68.8819 484.365 68.3001 484.482 67.8347 484.714C67.8347 484.714 67.8347 484.714 67.7184 484.714C67.7184 484.714 67.8347 484.714 67.8347 484.598L69.58 483.783C70.1618 483.551 70.7436 483.202 71.209 482.969C71.5581 482.853 71.9071 482.736 72.2562 482.62C72.0235 482.969 71.7908 483.202 71.4417 483.434ZM26.4125 573.958H26.5288C26.4125 574.307 26.1798 574.656 26.0634 575.005C26.0634 575.122 25.9471 575.122 25.9471 575.238C25.7144 574.773 25.598 574.191 25.4817 573.725C25.8307 573.842 26.0634 573.842 26.4125 573.958ZM28.2742 580.59C28.7396 581.056 28.9723 581.405 29.3214 581.87C29.6704 582.336 30.0195 582.685 30.3685 583.15C30.7176 583.616 31.0667 584.081 31.4157 584.547C31.7648 585.012 31.9975 585.594 32.3466 586.059C33.5101 587.921 34.441 589.899 35.2554 591.993C33.2774 589.55 31.5321 586.874 30.0195 584.081C29.3214 582.917 28.7396 581.638 28.1578 580.474C28.2742 580.474 28.2742 580.59 28.2742 580.59ZM7.91211 530.093C7.91211 531.372 8.14482 532.652 8.49389 533.932C8.61024 534.398 8.72659 534.863 8.9593 535.328L9.54108 536.608C9.42472 536.608 9.42472 536.608 9.30837 536.608L10.4719 538.47L6.98128 535.678C7.09763 533.932 7.33034 531.954 7.91211 530.093ZM13.0317 550.106C12.9154 550.687 12.799 551.385 12.6827 552.084C12.3336 551.036 12.1009 549.989 11.7518 548.942C12.1009 549.407 12.5663 549.756 13.0317 550.106ZM86.5678 699.97L87.0332 700.203C87.615 700.436 88.1968 700.785 88.6622 700.901C88.4295 701.134 88.1968 701.366 87.9641 701.599C87.4987 701.25 86.9169 700.552 86.5678 699.97ZM133.226 676.932C133.11 676.932 132.993 677.048 132.877 677.048L134.04 676.001C134.04 676.118 134.04 676.35 134.04 676.467L133.226 676.932ZM116.238 606.77C116.238 606.305 116.122 605.839 116.122 605.374C116.238 605.839 116.355 606.188 116.587 606.654L116.238 606.77ZM149.865 502.982C149.632 502.866 149.399 502.749 149.167 502.517C149.632 502.633 149.981 502.749 150.447 502.866C150.214 502.866 150.097 502.982 149.865 502.982ZM36.3026 606.537L35.1391 607.119C34.9064 606.654 34.6737 606.188 34.441 605.723C35.0227 606.072 35.6045 606.305 36.3026 606.537ZM102.043 719.285C102.159 719.169 102.392 718.936 102.508 718.82C102.741 718.82 102.974 718.82 103.323 718.82H103.439C102.974 719.052 102.508 719.169 102.043 719.285ZM158.475 506.24C158.591 505.658 158.591 505.193 158.591 504.844C159.289 504.96 160.104 505.193 160.802 505.309C159.988 505.542 159.289 505.891 158.475 506.24ZM197.803 588.852C191.171 587.804 183.957 586.757 176.045 585.245C168.249 583.732 159.755 581.87 151.028 579.194C142.302 576.402 133.226 572.795 124.616 567.442C117.169 562.788 110.188 556.738 104.835 549.058C104.603 548.477 104.486 547.895 104.254 547.313C103.905 546.149 103.439 544.87 103.09 543.706C102.974 542.892 102.741 542.193 102.625 541.495V541.379C102.625 541.379 102.625 541.379 102.741 541.379L102.974 541.263C104.486 540.448 105.999 539.634 107.512 538.935C110.537 537.423 113.446 535.91 116.238 534.398C121.823 531.489 126.943 528.813 132.062 526.253C137.066 523.693 141.138 521.599 144.163 519.97C155.333 513.919 163.013 509.498 167.318 506.705C173.368 507.636 179.651 508.451 186.4 508.916C189.891 509.149 193.614 509.265 197.221 509.381C197.337 516.363 197.454 524.158 197.686 532.536C198.268 555.807 199.315 574.773 200.246 589.55C199.315 589.084 198.617 588.968 197.803 588.852ZM285.418 698.574C285.883 695.665 285.767 692.989 285.418 690.545C285.534 690.429 285.534 690.313 285.651 690.196C285.651 689.498 285.651 688.684 285.534 687.986C285.418 688.335 285.301 688.568 285.185 688.917C284.952 687.869 284.72 686.939 284.487 686.008C284.72 685.775 284.952 685.659 285.185 685.426C285.069 685.077 285.069 684.728 284.952 684.379V684.262C285.069 684.611 285.185 684.96 285.301 685.31L285.185 685.426C285.418 686.24 285.534 687.171 285.534 687.986C285.534 687.869 285.651 687.753 285.651 687.753C285.651 687.637 285.767 687.637 285.767 687.52C285.767 687.637 285.767 687.753 285.883 687.869C286.465 691.244 286.232 694.967 285.418 698.574ZM333.24 584.779C331.96 586.408 330.68 588.037 329.4 589.55C329.4 589.55 329.4 589.433 329.284 589.433C329.284 589.317 329.167 589.317 329.167 589.317C330.214 587.688 331.378 586.059 332.425 584.43C332.891 583.732 333.24 583.15 333.705 582.452C334.752 581.638 335.916 580.707 337.196 579.776C335.916 581.405 334.636 583.034 333.24 584.779ZM411.197 525.089C410.848 527.882 409.801 530.674 408.172 533.001C407.823 533.583 407.125 534.165 406.659 534.747C406.078 535.328 405.612 535.91 405.03 536.492C404.449 537.074 403.867 537.656 403.285 538.121L402.354 538.935L401.423 539.75C400.725 540.215 400.143 540.797 399.445 541.263C398.747 541.728 398.049 542.193 397.351 542.659L396.304 543.357L395.14 544.055C394.326 544.521 393.628 544.986 392.813 545.335C389.672 546.964 386.181 548.36 382.574 549.64C378.851 550.804 375.011 551.967 370.938 553.014C369.426 553.363 367.797 553.829 366.284 554.178C366.517 553.829 366.75 553.596 366.982 553.247C373.847 544.637 380.48 536.143 386.763 527.765C390.253 523.111 392.929 519.272 394.908 516.363C396.769 513.687 398.282 511.127 399.794 508.8C400.609 507.403 401.423 506.123 402.238 504.727C402.936 506.356 404.332 507.869 406.31 509.963C409.917 513.803 412.012 519.388 411.197 525.089Z" fill="black"/>
<path d="M388.392 566.511C388.275 564.882 388.159 563.486 387.926 562.089C387.112 556.737 385.948 555.341 384.319 557.668C382.69 559.995 382.108 563.951 382.341 569.652C382.69 576.052 383.039 586.175 383.737 600.021C384.436 613.867 384.901 624.804 385.25 632.833C385.599 640.861 386.181 650.751 386.763 662.62C387.344 674.371 387.926 685.076 388.624 694.734C388.741 696.13 388.741 697.177 388.857 697.991C389.672 703.809 390.951 706.136 392.697 704.856C394.442 703.576 395.257 700.086 395.14 694.501C394.093 664.132 391.882 621.43 388.392 566.511Z" fill="black"/>
<path d="M260.75 137.28C262.147 138.676 262.729 140.072 263.078 141.003C263.427 141.934 263.543 143.098 263.427 144.261C263.194 145.425 262.728 146.007 262.263 146.356L262.147 146.472C262.263 146.588 263.31 146.937 265.172 147.17C267.034 147.403 268.314 147.17 268.779 146.356C269.361 145.308 269.826 143.912 269.826 142.283C269.826 140.654 269.361 138.793 268.546 136.931C267.615 135.069 266.219 133.208 264.008 131.579C261.914 130.066 258.889 128.67 255.165 128.786C254.7 128.786 254.351 128.902 254.002 129.019C252.606 129.601 252.722 130.764 253.769 132.277C254.351 133.091 254.816 133.673 255.282 134.138C255.747 134.604 256.213 134.837 256.678 134.953C257.725 135.186 259.354 136 260.75 137.28Z" fill="black"/>
<path d="M127.874 328.101C128.339 328.217 128.688 328.217 128.921 328.217C130.783 328.101 131.597 327.17 131.364 325.192C131.132 323.33 130.084 322.051 127.99 321.585C125.314 321.003 122.289 320.538 118.914 320.189C115.54 319.956 111.933 319.84 107.977 319.956C101.694 320.073 94.829 320.771 87.266 321.585C87.4987 320.422 87.615 319.025 87.615 317.745L87.4987 315.767L84.9389 313.789C84.1244 313.208 83.1936 312.626 82.2627 312.393C81.3319 312.044 80.2847 311.928 79.3539 311.928C77.8413 311.928 76.445 312.277 75.0487 312.859C74.6997 312.859 74.2343 312.975 73.6525 313.091C71.7908 313.557 70.7436 314.255 70.2782 315.186C69.8128 316.233 68.9983 317.978 67.8348 319.956C66.5549 321.934 65.3913 323.33 64.5768 324.378C63.7623 325.309 62.5988 326.472 61.2025 327.752C59.8063 328.916 58.6427 329.846 57.4792 330.661C57.3628 330.777 57.2465 330.894 57.1301 330.894C56.7811 331.592 57.3628 332.523 58.9918 333.57C60.6208 334.617 61.9007 334.966 62.7152 334.384C65.1586 332.988 67.8348 330.894 70.3946 327.752C72.2562 325.425 74.0016 322.516 75.3978 319.025C75.5142 319.025 75.7469 318.909 75.8632 318.909C76.7941 318.676 77.4922 318.56 78.074 318.444C78.5394 318.327 79.0048 318.327 79.5866 318.327C80.1683 318.444 80.7501 318.56 81.3319 319.142C81.0992 319.607 80.8665 320.771 80.4011 321.934C80.2847 322.283 80.052 322.516 79.9356 322.865C79.9356 322.865 79.9356 322.865 79.8193 322.865C78.5394 323.33 77.9576 324.145 78.3067 325.076C77.6085 325.89 77.0268 326.705 76.5614 327.287C75.9796 327.985 75.3978 328.916 74.6997 330.079C74.0015 331.243 73.4198 332.522 72.9544 333.919C71.9072 336.595 71.209 339.038 70.6273 340.784C70.5109 341.016 70.5109 341.249 70.5109 341.365C70.5109 342.529 71.5581 342.994 73.4198 342.994C75.3978 342.994 76.5614 342.413 77.1431 341.365C77.8413 339.969 78.423 338.457 79.1212 336.944C79.8193 335.431 80.5174 333.686 81.5646 332.29C82.3791 331.126 83.3099 329.963 84.4735 328.45C86.8006 328.334 90.2912 328.101 94.9454 327.752C99.9486 327.403 103.905 327.287 106.697 327.287C109.606 327.287 113.097 327.17 117.169 327.403C121.242 327.287 124.849 327.636 127.874 328.101Z" fill="black"/>
<path d="M68.8818 242.463C69.1145 242.346 69.4635 242.23 69.6963 242.23C70.0453 242.23 70.278 242.23 70.6271 242.23C70.9762 242.346 71.2089 242.463 71.3252 242.695C71.4416 242.812 71.4416 242.812 71.5579 242.928C71.6743 243.044 71.7906 243.161 71.907 243.277C72.1397 243.51 72.3724 243.742 72.7215 243.975C73.3032 244.557 73.7687 245.255 74.3504 246.07C74.5831 246.419 74.6995 246.651 74.9322 246.768C76.2121 247.931 77.6084 247.931 78.7719 246.419C79.9355 244.906 80.0518 243.161 79.0046 241.532C78.3065 240.485 77.492 239.321 76.4448 238.274C75.3976 237.227 74.0014 236.296 72.2561 235.714C70.1617 235.016 67.4855 235.365 65.2748 236.878C64.1112 237.576 63.064 238.623 62.2496 240.135C61.9005 239.903 61.4351 239.67 60.9697 239.321C60.1552 238.739 59.2243 238.157 57.7117 237.459C56.7809 237.11 55.9664 236.761 54.9192 236.529C53.9884 236.296 52.9412 236.296 52.0104 236.179C51.3122 236.296 50.4977 236.296 49.6833 236.529C49.3342 236.645 48.8688 236.761 48.5197 236.878C48.1707 236.994 47.8216 237.227 47.3562 237.343C45.8436 238.041 44.5637 239.205 43.4001 240.485C42.8183 241.183 42.2366 241.881 41.7712 242.695C41.4221 243.277 41.073 243.975 40.724 244.557C40.1422 245.837 39.6768 247.117 39.2113 248.28C38.9786 248.978 38.8623 249.677 38.8623 250.258C38.7459 252.585 39.7931 253.284 41.6548 252.585C43.5165 251.887 44.7964 250.607 45.6109 248.746C46.0763 247.699 46.7744 246.302 47.9379 245.022C48.5197 244.324 49.2178 243.742 50.0323 243.393C50.8468 242.928 51.894 242.812 52.9412 242.928H53.0575C56.5482 243.626 59.108 247.815 64.1112 247.931C64.5766 247.931 65.1584 247.931 66.0893 247.699L68.3 242.812C68.3 242.346 68.5327 242.579 68.8818 242.463Z" fill="black"/>
<path d="M225.611 109.586C224.331 108.539 222.819 107.725 220.491 107.841C220.026 107.841 219.444 108.074 219.095 108.307C218.281 108.772 217.932 109.354 217.932 109.819C217.932 110.285 218.397 110.634 219.095 111.099C219.095 111.099 219.212 111.099 219.212 111.215C219.212 111.332 219.095 111.332 219.095 111.448C218.979 111.681 218.862 112.03 218.862 112.263C218.746 112.844 218.63 113.426 218.746 114.124C218.746 115.404 219.095 116.568 219.561 117.615C219.561 117.731 219.677 117.848 219.793 117.848C219.91 117.848 220.026 117.848 220.142 117.731C220.375 118.08 220.608 118.429 221.073 118.778C221.771 119.244 222.819 119.477 223.749 119.244C224.68 119.128 225.611 118.662 226.426 117.848C227.24 117.033 227.938 115.753 227.822 114.008C227.822 113.193 227.589 112.379 227.124 111.565C226.775 110.75 226.193 110.168 225.611 109.586ZM222.819 114.706C222.702 114.822 222.586 114.939 222.469 114.939C222.353 114.939 222.353 114.939 222.237 114.939C222.586 114.357 222.819 114.008 222.819 113.775C222.935 114.008 222.935 114.473 222.819 114.706Z" fill="black"/>
<path d="M403.634 488.786L403.75 488.67C403.634 488.67 403.634 488.67 403.634 488.786Z" fill="black"/>
<path d="M403.518 488.903C403.518 488.787 403.634 488.787 403.634 488.787C403.518 488.787 403.518 488.787 403.518 488.903Z" fill="black"/>
<path d="M403.75 488.554L403.867 488.438C403.867 488.438 403.867 488.438 403.75 488.554Z" fill="black"/>
<path d="M403.286 488.09C403.286 488.09 403.402 488.206 403.402 488.322C403.286 488.322 403.286 488.206 403.286 488.09Z" fill="black"/>
<path d="M403.518 488.902C403.518 488.786 403.518 488.786 403.518 488.67C403.402 488.67 403.518 488.786 403.518 488.902Z" fill="black"/>
<path d="M403.402 488.67C403.402 488.553 403.402 488.438 403.286 488.438V488.554C403.402 488.554 403.402 488.553 403.402 488.67Z" fill="black"/>
</svg>
