<svg width="142" height="156" viewBox="0 0 142 156" fill="none" xmlns="http://www.w3.org/2000/svg">
<path d="M99.9999 112.725H78.3999C77.0999 112.725 76.0999 111.725 76.0999 110.425C76.0999 109.125 77.0999 108.125 78.3999 108.125H97.6999V67.625C97.8999 45.525 91.0999 29.425 85.2999 19.725C80.9999 12.425 76.4999 7.625 74.2999 5.525C72.0999 7.725 67.5999 12.525 63.0999 20.025C57.3999 29.625 50.5999 45.725 50.7999 67.725V108.225H96.3999C97.6999 108.225 98.6999 109.225 98.6999 110.525C98.6999 111.825 97.6999 112.825 96.3999 112.825H48.3999C47.0999 112.825 46.0999 111.825 46.0999 110.525V67.625C45.7999 44.525 52.9999 27.525 59.0999 17.325C65.8999 6.325 72.5999 0.825 72.7999 0.525C73.6999 -0.175 74.8999 -0.175 75.6999 0.525C75.9999 0.725 82.5999 6.325 89.2999 17.325C95.3999 27.525 102.6 44.425 102.3 67.625V110.325C102.4 111.725 101.3 112.725 99.9999 112.725Z" fill="black"/>
<path d="M96.5001 128.125H52.1001C51.4001 128.125 50.7001 127.825 50.2001 127.225C49.8001 126.625 49.6001 125.825 49.8001 125.125L54.5001 109.725C54.8001 108.725 55.7001 108.125 56.7001 108.125H96.4001C97.7001 108.125 98.7001 109.125 98.7001 110.425C98.7001 111.725 97.7001 112.725 96.4001 112.725H58.4001L55.1001 123.425H93.3001L90.1001 112.725H78.4001C77.1001 112.725 76.1001 111.725 76.1001 110.425C76.1001 109.125 77.1001 108.125 78.4001 108.125H91.9001C92.9001 108.125 93.8001 108.825 94.1001 109.825L98.7001 125.225C98.9001 125.925 98.8001 126.725 98.3001 127.225C97.9001 127.725 97.2001 128.125 96.5001 128.125Z" fill="black"/>
<path d="M24.5002 120.125C24.0002 120.125 23.5002 119.925 23.1002 119.625C22.5002 119.225 22.2002 118.525 22.2002 117.725V100.725C22.2002 100.225 22.3002 99.8248 22.6002 99.4248L33.0002 84.2248C34.1002 82.5248 35.0002 80.7248 35.4002 78.7248L36.4002 74.6248C37.2002 71.5248 38.6002 68.6248 40.7002 66.1248L46.8002 59.0248C47.4002 58.3248 48.5002 58.0248 49.4002 58.3248C50.3002 58.6248 50.9002 59.5248 50.9002 60.5248V110.325C50.9002 111.325 50.2002 112.225 49.3002 112.525L25.2002 120.025C25.0002 120.125 24.8002 120.125 24.5002 120.125ZM26.8002 101.525V114.725L46.3002 108.725V66.9248L44.3002 69.2248C42.7002 71.1248 41.5002 73.3248 41.0002 75.7248L40.0002 79.8248C39.4002 82.3248 38.3002 84.7248 36.9002 86.8248L26.8002 101.525Z" fill="black"/>
<path d="M124.2 120.125C124 120.125 123.7 120.125 123.5 120.025L99.3998 112.625C98.3998 112.325 97.7998 111.425 97.7998 110.425V60.6254C97.7998 59.6254 98.3998 58.8254 99.2998 58.4254C100.2 58.1254 101.2 58.3254 101.9 59.1254L108 66.2254C110.1 68.6254 111.6 71.6254 112.3 74.7254L113.3 78.8254C113.8 80.8254 114.6 82.6254 115.7 84.3254L126.1 99.6254C126.4 100.025 126.5 100.425 126.5 100.925V117.925C126.5 118.625 126.2 119.325 125.6 119.825C125.2 120.025 124.7 120.125 124.2 120.125ZM102.4 108.725L121.9 114.725V101.525L111.9 86.8254C110.4 84.7254 109.4 82.3254 108.8 79.8254L107.8 75.7254C107.2 73.3254 106.1 71.0254 104.5 69.2254L102.5 66.9254L102.4 108.725Z" fill="black"/>
<path d="M74.3 74.9242C65.6 74.9242 58.5 67.8242 58.5 59.1242C58.5 50.4242 65.6 43.3242 74.3 43.3242C83 43.3242 90.1 50.4242 90.1 59.1242C90.1 67.8242 83 74.9242 74.3 74.9242ZM74.3 47.9242C68.1 47.9242 63.1 52.9242 63.1 59.1242C63.1 65.3242 68.1 70.3242 74.3 70.3242C80.5 70.3242 85.5 65.3242 85.5 59.1242C85.5 52.9242 80.5 47.9242 74.3 47.9242Z" fill="black"/>
<path d="M74.4001 27.5257C68.7001 27.5257 63.3001 26.5257 58.3001 24.5257C57.1001 24.0257 56.5001 22.7257 57.0001 21.5257C57.5001 20.3257 58.8001 19.7257 60.0001 20.2257C64.4001 22.0257 69.4001 22.9257 74.4001 22.9257C79.4001 22.9257 84.3001 22.0257 88.7001 20.3257C89.9001 19.8257 91.2001 20.4257 91.7001 21.6257C92.2001 22.8257 91.6001 24.1257 90.4001 24.6257C85.4001 26.5257 80.0001 27.5257 74.4001 27.5257Z" fill="black"/>
<path d="M74.4001 155.824C73.1001 155.824 72.1001 154.824 72.1001 153.524V135.624C72.1001 134.324 73.1001 133.324 74.4001 133.324C75.7001 133.324 76.7001 134.324 76.7001 135.624V153.524C76.7001 154.824 75.6001 155.824 74.4001 155.824Z" fill="black"/>
<path d="M59.4001 148.726C58.1001 148.726 57.1001 147.726 57.1001 146.426V135.726C57.1001 134.426 58.1001 133.426 59.4001 133.426C60.7001 133.426 61.7001 134.426 61.7001 135.726V146.426C61.7001 147.726 60.7001 148.726 59.4001 148.726Z" fill="black"/>
<path d="M89.3 148.726C88 148.726 87 147.726 87 146.426V135.726C87 134.426 88 133.426 89.3 133.426C90.6 133.426 91.6 134.426 91.6 135.726V146.426C91.6 147.726 90.6 148.726 89.3 148.726Z" fill="black"/>
<path d="M100.1 100.625H78.4001C77.1001 100.625 76.1001 99.6254 76.1001 98.3254C76.1001 97.0254 77.1001 96.0254 78.4001 96.0254H100.1C101.4 96.0254 102.4 97.0254 102.4 98.3254C102.4 99.5254 101.4 100.625 100.1 100.625Z" fill="black"/>
<path d="M96.4998 100.625H48.5998C47.2998 100.625 46.2998 99.6254 46.2998 98.3254C46.2998 97.0254 47.2998 96.0254 48.5998 96.0254H96.4998C97.7998 96.0254 98.7998 97.0254 98.7998 98.3254C98.7998 99.5254 97.7998 100.625 96.4998 100.625Z" fill="black"/>
<path d="M124.2 51.0254C123.2 51.0254 122.4 50.4254 122 49.5254L120.4 45.3254C119 41.6254 116 38.7254 112.4 37.3254L108.2 35.7254C107.3 35.4254 106.7 34.5254 106.7 33.5254C106.7 32.5254 107.3 31.7254 108.2 31.3254L112.4 29.7254C116.1 28.3254 119 25.3254 120.4 21.7254L122 17.5254C122.3 16.6254 123.2 16.0254 124.2 16.0254C125.2 16.0254 126 16.6254 126.4 17.5254L128 21.7254C129.4 25.4254 132.4 28.3254 136 29.7254L140.2 31.3254C141.1 31.6254 141.7 32.5254 141.7 33.5254C141.7 34.5254 141.1 35.3254 140.2 35.7254L136 37.3254C132.3 38.7254 129.4 41.7254 128 45.3254L126.4 49.5254C126 50.4254 125.1 51.0254 124.2 51.0254ZM115.2 33.6254C119.1 35.5254 122.3 38.6254 124.2 42.6254C126.1 38.7254 129.2 35.5254 133.2 33.6254C129.3 31.7254 126.1 28.6254 124.2 24.6254C122.3 28.5254 119.1 31.7254 115.2 33.6254Z" fill="black"/>
<path d="M14.5 85.6258C13.5 85.6258 12.7 85.0258 12.3 84.1258L11 80.7258C9.9 77.9258 7.6 75.6258 4.8 74.5258L1.4 73.2258C0.6 72.8258 0 72.0258 0 71.0258C0 70.0258 0.6 69.2258 1.5 68.8258L4.9 67.5258C7.7 66.4258 10 64.1258 11.1 61.3258L12.4 57.9258C12.7 57.0258 13.6 56.4258 14.6 56.4258C15.6 56.4258 16.4 57.0258 16.8 57.9258L18.1 61.3258C19.2 64.1258 21.5 66.4258 24.3 67.5258L27.7 68.8258C28.6 69.1258 29.2 70.0258 29.2 71.0258C29.2 72.0258 28.6 72.8258 27.7 73.2258L24.3 74.5258C21.5 75.6258 19.2 77.9258 18.1 80.7258L16.8 84.1258C16.3 85.0258 15.5 85.6258 14.5 85.6258ZM8.3 71.0258C10.9 72.4258 13.1 74.6258 14.6 77.3258C16 74.7258 18.2 72.5258 20.9 71.0258C18.3 69.6258 16.1 67.4258 14.6 64.7258C13.1 67.4258 10.9 69.6258 8.3 71.0258Z" fill="black"/>
</svg>
