<svg width="112" height="90" viewBox="0 0 112 90" fill="none" xmlns="http://www.w3.org/2000/svg">
<path d="M108.858 0H3.14263C1.80147 0 0.775879 1.02559 0.775879 2.36675V73.6061C0.775879 74.9472 1.80147 75.9728 3.14263 75.9728H88.5825L107.517 89.3055C107.911 89.6211 108.384 89.7 108.858 89.7C109.252 89.7 109.568 89.6211 109.962 89.4633C110.751 89.0689 111.224 88.2799 111.224 87.3332V2.36675C111.224 1.02559 110.199 0 108.858 0ZM106.491 82.8364L90.7126 71.7127C90.3181 71.3971 89.8447 71.3182 89.3714 71.3182H5.50939V4.73351H106.491V82.8364Z" fill="black"/>
<path d="M51.3453 22.7214C52.6865 21.5381 54.3432 20.9069 56.2366 20.9069C57.5778 20.9069 58.7611 21.1436 59.7078 21.6958C60.6545 22.2481 61.3646 22.8792 61.8379 23.747C62.3113 24.6148 62.548 25.4826 62.548 26.5082C62.548 28.165 61.9957 29.6639 60.9701 30.8473C59.9445 32.1096 58.7611 33.3718 57.42 34.6341C56.4733 35.5019 55.5266 36.4486 54.6588 37.4742C53.791 38.4998 53.0809 39.6832 52.4498 40.9454C51.8976 42.2077 51.582 43.7067 51.582 45.3634V46.0734H56.8677V45.4423C56.8677 43.7067 57.3411 42.2077 58.2089 40.9454C59.1556 39.6832 60.1812 38.4209 61.4435 37.2375C62.4691 36.2119 63.4946 35.1863 64.4413 34.0819C65.4669 33.0563 66.3348 31.8729 66.9659 30.6895C67.597 29.4272 67.9915 28.0072 67.9915 26.3505C67.9915 24.5359 67.5181 22.8792 66.5714 21.3014C65.6247 19.7235 64.2047 18.4613 62.4691 17.5146C60.7334 16.5679 58.6034 16.0156 56.2366 16.0156C54.1065 16.0156 52.1342 16.4101 50.3986 17.2779C48.663 18.1457 47.164 19.3291 46.0596 20.9069C44.9551 22.4848 44.1662 24.2204 43.8506 26.2716L48.7419 27.376C49.1363 25.4826 50.0041 23.9048 51.3453 22.7214Z" fill="black"/>
<path d="M57.1044 51.5957H51.7397V58.3015H57.1044V51.5957Z" fill="black"/>
</svg>
