<svg width="117" height="89" viewBox="0 0 117 89" fill="none" xmlns="http://www.w3.org/2000/svg">
<g clip-path="url(#clip0_198_936)">
<path d="M62.7611 47.6423C62.7611 46.8663 62.3628 46.0904 61.646 45.6248L36.8761 31.1148C36.1593 30.6492 35.2035 30.6492 34.4867 31.1148C33.7699 31.5028 33.292 32.2787 33.292 33.1322V62.2299C33.292 63.0834 33.7699 63.8594 34.4867 64.2473C34.885 64.4801 35.2832 64.5577 35.6814 64.5577C36.0796 64.5577 36.5575 64.4801 36.9558 64.2473L61.5664 49.6597C62.2832 49.1941 62.7611 48.4182 62.7611 47.6423ZM37.9912 58.1174V37.1671L55.7522 47.6423L37.9912 58.1174Z" fill="black"/>
<path d="M116.363 30.2616L106.566 20.7175C105.611 19.7864 104.097 19.7864 103.221 20.7175L95.8938 27.8561L90.0796 33.5205V2.32781C90.0796 1.00872 89.0442 0 87.6903 0H2.38938C1.0354 0 0 1.00872 0 2.32781V76.197C0 77.5161 1.0354 78.5248 2.38938 78.5248H48.5841L46.115 85.8962C45.8761 86.7498 46.0354 87.6033 46.6726 88.2241C47.1504 88.6896 47.7876 88.9224 48.3451 88.9224C48.5841 88.9224 48.823 88.9224 49.0619 88.8448L63.4779 84.6547C63.5575 84.6547 63.5575 84.5772 63.6372 84.5772C63.6372 84.5772 63.7168 84.5772 63.7168 84.4996C64.0354 84.3444 64.354 84.1892 64.5929 83.8788L70.1681 78.4473H87.6903C89.0442 78.4473 90.0796 77.4385 90.0796 76.1194V59.0488L109.115 40.5815L116.442 33.4429C116.92 32.9773 117.159 32.4342 117.159 31.8134C117.159 31.1927 116.761 30.6495 116.363 30.2616ZM85.2212 18.9329H69.292C69.2124 18.7777 69.1327 18.6225 68.9734 18.5449L54.6372 4.65562H85.2212V18.9329ZM37.9911 18.9329C37.9115 18.7777 37.8319 18.6225 37.6726 18.5449L23.4159 4.65562H47.9469L62.6018 18.9329H37.9911ZM16.646 4.65562L31.3009 18.9329H4.77876V4.65562H16.646ZM4.77876 73.8692V23.5885H85.2212V38.1761L51.3717 71.1534C51.1327 71.3862 50.8938 71.6966 50.7345 72.007C50.7345 72.0846 50.6549 72.0846 50.6549 72.1622L50.0973 73.8692H4.77876ZM52.0089 83.1029L53.7611 77.8265C53.9204 77.6713 54 77.5161 54.0796 77.3609L58.1416 81.3182L52.0089 83.1029ZM85.2212 73.8692H74.8673L85.2212 63.782V73.8692ZM85.938 56.4882L67.4602 74.5676L62.7611 79.1456L59.5752 76.0418L56.3894 72.9381L88.8053 41.3575C89.2035 41.1247 89.5221 40.8143 89.7611 40.4263L97.5664 32.8221L100.752 35.9259L103.938 39.0296L85.938 56.4882ZM107.363 35.6931L104.177 32.5894L100.991 29.4856L104.894 25.6835L111.265 31.891L107.363 35.6931Z" fill="black"/>
</g>
<defs>
<clipPath id="clip0_198_936">
<rect width="117" height="89" fill="white"/>
</clipPath>
</defs>
</svg>
