<svg width="93" height="77" viewBox="0 0 93 77" fill="none" xmlns="http://www.w3.org/2000/svg">
<g clip-path="url(#clip0_198_963)">
<path d="M90.8169 0H2.1831C0.946009 0 0 0.959732 0 2.21477V74.7852C0 76.0403 0.946009 77 2.1831 77H90.8169C92.054 77 93 76.0403 93 74.7852V2.21477C93 0.959732 92.054 0 90.8169 0ZM88.6338 4.42953V16.0201H4.3662V4.42953H88.6338ZM4.3662 72.5705V20.4497H88.6338V72.5705H4.3662Z" fill="black"/>
<path d="M12.1526 12.033H22.5587C23.7958 12.033 24.7418 11.0733 24.7418 9.81828C24.7418 8.56325 23.7958 7.60352 22.5587 7.60352H12.1526C10.9155 7.60352 9.96948 8.56325 9.96948 9.81828C9.96948 11.0733 10.9155 12.033 12.1526 12.033Z" fill="black"/>
<path d="M34.7113 12.033H45.1174C46.3545 12.033 47.3005 11.0733 47.3005 9.81828C47.3005 8.56325 46.3545 7.60352 45.1174 7.60352H34.7113C33.4742 7.60352 32.5282 8.56325 32.5282 9.81828C32.5282 11.0733 33.4742 12.033 34.7113 12.033Z" fill="black"/>
<path d="M57.27 12.033H80.9202C82.1573 12.033 83.1033 11.0733 83.1033 9.81828C83.1033 8.56325 82.1573 7.60352 80.9202 7.60352H57.27C56.0329 7.60352 55.0869 8.56325 55.0869 9.81828C55.0869 11.0733 56.0329 12.033 57.27 12.033Z" fill="black"/>
<path d="M34.2746 31.2289C33.4014 30.343 32.0188 30.343 31.2183 31.2289L20.0117 42.3765C19.5751 42.8195 19.3568 43.3363 19.3568 43.9269C19.3568 44.5175 19.5751 45.1081 20.0117 45.4772L31.1455 56.6249C31.5822 57.0678 32.0916 57.2893 32.6737 57.2893C33.2559 57.2893 33.7653 57.0678 34.2019 56.6249C35.0751 55.7389 35.0751 54.3363 34.2019 53.5242L24.669 43.9269L34.2019 34.3296C35.0751 33.5175 35.0751 32.1148 34.2746 31.2289Z" fill="black"/>
<path d="M61.8545 31.2289C60.9812 30.343 59.5986 30.343 58.7981 31.2289C57.9249 32.1148 57.9249 33.5175 58.7981 34.3296L68.331 43.9269L58.7981 53.5242C57.9249 54.4101 57.9249 55.8128 58.7981 56.6249C59.2347 57.0678 59.8169 57.2893 60.3263 57.2893C60.9085 57.2893 61.4178 57.0678 61.8545 56.6249L72.9883 45.4772C73.4249 45.0342 73.6432 44.5175 73.6432 43.9269C73.6432 43.3363 73.4249 42.7457 72.9883 42.3765L61.8545 31.2289Z" fill="black"/>
<path d="M52.2488 25.395C51.0845 25.0259 49.8474 25.6903 49.4836 26.8715L39.3685 59.65C39.0047 60.8312 39.6596 62.0863 40.8239 62.4554C41.0423 62.5292 41.2606 62.5292 41.4789 62.5292C42.4249 62.5292 43.2981 61.9386 43.5892 60.9789L53.7042 28.2004C53.9953 27.0192 53.3404 25.7641 52.2488 25.395Z" fill="black"/>
</g>
<defs>
<clipPath id="clip0_198_963">
<rect width="93" height="77" fill="white"/>
</clipPath>
</defs>
</svg>
