<svg width="99" height="88" viewBox="0 0 99 88" fill="none" xmlns="http://www.w3.org/2000/svg">
<g clip-path="url(#clip0_479_2)">
<path d="M96.7617 30.7642H55.7784V2.23577C55.7784 1.0061 54.7787 0 53.5401 0H2.2383C0.999774 0 0 1.0061 0 2.23577V55C0 55.8645 0.492426 56.647 1.26837 57.0196C1.57427 57.1687 1.91002 57.2358 2.2383 57.2358C2.73819 57.2358 3.23061 57.0718 3.63351 56.7514L17.0111 46.0569H43.2216V74.5854C43.2216 75.8225 44.2213 76.8211 45.4599 76.8211H81.9889L95.3665 87.5156C95.7694 87.836 96.2618 88 96.7617 88C97.09 88 97.4257 87.9329 97.7316 87.7839C98.5076 87.4112 99 86.6287 99 85.7642V33C99 31.7703 98.0002 30.7642 96.7617 30.7642ZM16.2277 41.5854C15.7203 41.5854 15.2279 41.7568 14.8325 42.0772L4.4766 50.3496V4.47154H51.3018V30.7642H45.4599C44.2213 30.7642 43.2216 31.7703 43.2216 33V41.5854H16.2277ZM94.5234 81.1138L84.175 72.8415C83.7721 72.521 83.2797 72.3496 82.7723 72.3496H47.6982V46.0569V41.5854V35.2358H51.3018H55.7784H94.5234V81.1138Z" fill="black"/>
<path d="M40.1548 18.7814C41.3934 18.7814 42.3931 17.7827 42.3931 16.5456C42.3931 15.3085 41.3934 14.3098 40.1548 14.3098H36.305V10.4643C36.305 9.22716 35.3052 8.22852 34.0667 8.22852C32.8281 8.22852 31.8284 9.22716 31.8284 10.4643V14.3098H23.9495V10.4643C23.9495 9.22716 22.9498 8.22852 21.7112 8.22852C20.4727 8.22852 19.4729 9.22716 19.4729 10.4643V14.3098H15.6231C14.3845 14.3098 13.3848 15.3085 13.3848 16.5456C13.3848 17.7827 14.3845 18.7814 15.6231 18.7814H19.4729V26.6513H15.6231C14.3845 26.6513 13.3848 27.6499 13.3848 28.8871C13.3848 30.1242 14.3845 31.1228 15.6231 31.1228H19.4729V34.9684C19.4729 36.2055 20.4727 37.2041 21.7112 37.2041C22.9498 37.2041 23.9495 36.2055 23.9495 34.9684V31.1228H31.8284V34.9684C31.8284 36.2055 32.8281 37.2041 34.0667 37.2041C35.3052 37.2041 36.305 36.2055 36.305 34.9684V31.1228H40.1548C41.3934 31.1228 42.3931 30.1242 42.3931 28.8871C42.3931 27.6499 41.3934 26.6513 40.1548 26.6513H36.305V18.7814H40.1548ZM31.8284 26.6513H23.9495V18.7814H31.8284V26.6513Z" fill="black"/>
<path d="M57.6956 56.214L69.5213 68.0264C69.8123 68.3245 70.1779 68.5257 70.5808 68.6151C70.7449 68.6598 70.924 68.6822 71.103 68.6822C71.1105 68.6822 71.1105 68.6822 71.1179 68.6822C71.7148 68.6822 72.2819 68.4512 72.6997 68.0264L84.5254 56.214C86.2712 54.4701 87.1442 52.1822 87.1442 49.8943C87.1442 47.5989 86.2712 45.3109 84.5254 43.567C81.0336 40.0792 75.3558 40.0792 71.864 43.567L71.1105 44.3197L70.3569 43.567C66.8652 40.0792 61.1874 40.0792 57.6956 43.567C56.002 45.2513 55.0693 47.502 55.0693 49.8868C55.0693 52.2791 56.002 54.5298 57.6956 56.214ZM60.8591 46.7269C61.732 45.855 62.881 45.4153 64.03 45.4153C65.1715 45.4153 66.3205 45.855 67.1935 46.7269L69.5288 49.0596C70.4017 49.9315 71.8193 49.9315 72.6922 49.0596L75.0275 46.7269C76.7734 44.983 79.616 44.983 81.3619 46.7269C83.1078 48.4708 83.1078 51.3103 81.3619 53.0542L71.1105 63.294L60.8591 53.0542C60.016 52.212 59.5459 51.0867 59.5459 49.8868C59.5459 48.6944 60.016 47.5691 60.8591 46.7269Z" fill="black"/>
</g>
<defs>
<clipPath id="clip0_479_2">
<rect width="99" height="88" fill="white"/>
</clipPath>
</defs>
</svg>
