<svg width="90" height="119" viewBox="0 0 90 119" fill="none" xmlns="http://www.w3.org/2000/svg">
<g clip-path="url(#clip0_198_946)">
<path d="M45.0406 12.5645C28.2114 12.5645 14.4715 26.009 14.4715 42.6546C14.4715 59.2201 28.1301 72.7447 45.0406 72.7447C61.8699 72.7447 75.6097 59.3002 75.6097 42.6546C75.5284 26.089 61.8699 12.5645 45.0406 12.5645ZM45.0406 67.8631C30.8943 67.8631 19.3496 56.4992 19.3496 42.5745C19.3496 28.6499 30.8943 17.3661 45.0406 17.3661C59.187 17.3661 70.7317 28.7299 70.7317 42.6546C70.7317 56.5793 59.187 67.8631 45.0406 67.8631Z" fill="black"/>
<path d="M86.8293 34.0112C85.935 32.5707 85.1219 31.2103 84.7154 29.9298C84.2276 28.5694 84.065 26.9688 83.9024 25.2083C83.5772 22.2473 83.3333 19.1262 81.3821 16.5654C79.4309 14.0045 76.4228 12.644 73.7398 11.5237C72.1138 10.8034 70.6504 10.1632 69.5122 9.36293C68.374 8.56266 67.3171 7.36226 66.1789 6.08183C64.2276 3.9211 62.0325 1.44027 58.8618 0.479942C55.935 -0.480381 52.8455 0.159835 49.9187 0.80005C48.2114 1.20018 46.5854 1.52029 45.0407 1.52029C43.4959 1.52029 41.8699 1.20018 40.1626 0.80005C37.1545 0.159835 34.1463 -0.480381 31.1382 0.479942C27.9675 1.52029 25.7724 3.9211 23.8211 6.08183C22.6829 7.36226 21.626 8.56266 20.4878 9.36293C19.3496 10.1632 17.8049 10.8034 16.2602 11.5237C13.5772 12.644 10.5691 14.0045 8.61789 16.5654C6.74797 19.1262 6.42276 22.2473 6.09756 25.2083C5.93496 26.8888 5.77236 28.5694 5.28455 29.9298C4.87805 31.2103 4.06504 32.5707 3.25203 34.0112C1.70732 36.4921 0 39.373 0 42.6541C0 45.9352 1.70732 48.8162 3.25203 51.297C4.06504 52.7375 4.87805 54.0179 5.28455 55.2984C5.77236 56.6588 5.93496 58.2594 6.09756 60.02C6.42276 62.981 6.66667 66.102 8.61789 68.6629C10.5691 71.2237 13.5772 72.5842 16.2602 73.7046C16.5854 73.8646 16.9919 74.0247 17.3171 74.1847L6.74797 109.637C6.50407 110.517 6.74797 111.557 7.56098 112.117C8.29268 112.758 9.34959 112.838 10.2439 112.438L22.1951 106.596L29.0244 117.879C29.4309 118.6 30.2439 119.08 31.1382 119.08C31.2195 119.08 31.3821 119.08 31.4634 119.08C32.439 119 33.252 118.28 33.4959 117.399L43.4959 83.948C44.1463 83.868 44.7154 83.7879 45.2033 83.7879C45.6911 83.7879 46.2602 83.868 46.9106 83.948L56.9106 117.399C57.1545 118.28 57.9675 119 58.9431 119.08C59.0244 119.08 59.187 119.08 59.2683 119.08C60.0813 119.08 60.8943 118.6 61.3821 117.879L68.2114 106.596L80.1626 112.438C81.0569 112.838 82.1138 112.758 82.8455 112.117C83.5772 111.477 83.9024 110.517 83.6585 109.637L73.0894 74.1847C73.4146 74.0247 73.7398 73.8646 74.1463 73.7046C76.8293 72.5842 79.8374 71.2237 81.7886 68.6629C83.6585 66.102 83.9837 62.981 84.3089 60.02C84.4715 58.3394 84.6341 56.6588 85.1219 55.2984C85.5285 54.0179 86.3415 52.6575 87.2358 51.217C88.7805 48.7362 90.4878 45.8552 90.4878 42.5741C90 39.293 88.2927 36.4921 86.8293 34.0112ZM30.2439 110.677L25.122 102.194C24.6341 101.474 23.8211 100.994 23.0081 100.994C22.6016 100.994 22.2764 101.074 21.9512 101.234L13.0081 105.635L21.626 76.8256C21.7886 76.9857 21.9512 77.1457 22.1951 77.3058C22.439 77.5459 22.6829 77.866 22.9268 78.106C23.0081 78.1861 23.0894 78.2661 23.1707 78.3461C23.4146 78.5862 23.6585 78.8263 23.9024 79.1464C25.122 80.5069 26.4228 81.9473 28.0488 83.1477C29.0244 83.868 30.0813 84.4282 31.2195 84.8283C31.4634 84.9083 31.7886 84.9884 32.0325 85.0684C32.1138 85.0684 32.1951 85.0684 32.2764 85.1484C32.439 85.1484 32.6829 85.2284 32.8455 85.2284C32.9268 85.2284 33.0081 85.2284 33.1707 85.2284C33.3333 85.2284 33.5772 85.3085 33.7398 85.3085C33.8211 85.3085 33.9837 85.3085 34.065 85.3085C34.2276 85.3085 34.3902 85.3085 34.5528 85.3085C34.5528 85.3085 34.5528 85.3085 34.6341 85.3085C35.0406 85.3085 35.4472 85.3085 35.935 85.2284C36.0163 85.2284 36.0976 85.2284 36.1789 85.2284C36.5854 85.1484 36.9919 85.1484 37.3984 85.0684C37.4797 85.0684 37.561 85.0684 37.6423 85.0684C37.8049 85.0684 37.9675 84.9884 38.1301 84.9884L30.2439 110.677ZM68.1301 101.234C66.9919 100.674 65.6098 101.074 64.9594 102.194L59.8374 110.677L52.1138 84.9083H52.1951C52.5203 84.9884 52.8455 84.9884 53.1707 85.0684C53.252 85.0684 53.3333 85.0684 53.4959 85.1484C53.7398 85.1484 53.9837 85.2284 54.2276 85.2284C54.3089 85.2284 54.3902 85.2284 54.5528 85.2284C54.878 85.2284 55.2033 85.3085 55.6098 85.3085C55.935 85.3085 56.2602 85.3085 56.5854 85.3085C56.6667 85.3085 56.8293 85.3085 56.9106 85.3085C57.1545 85.3085 57.3984 85.2284 57.6423 85.2284C57.7236 85.2284 57.8862 85.2284 57.9675 85.1484C58.2927 85.0684 58.6179 84.9884 59.0244 84.9083C60.1626 84.5082 61.2195 83.948 62.1951 83.2278C62.8455 82.7476 63.4146 82.2674 63.9837 81.7073C64.5528 81.1471 65.0406 80.5869 65.6098 80.0267C65.8537 79.7866 66.0976 79.4665 66.3415 79.2264C66.5854 78.9863 66.8293 78.6662 67.0732 78.4262C67.1545 78.3461 67.2358 78.2661 67.3171 78.1861C67.561 77.946 67.8049 77.6259 68.0488 77.3858C68.2114 77.2257 68.4553 77.0657 68.6179 76.8256L77.2358 105.715L68.1301 101.234ZM82.6016 48.8162C81.626 50.4167 80.6504 52.0173 80.0813 53.8579C79.4309 55.6985 79.2683 57.6992 79.1057 59.5398C78.8618 62.0206 78.6179 64.3414 77.4797 65.8619C76.3415 67.3824 74.1463 68.3428 71.8699 69.3031C70.813 69.7832 69.7561 70.1834 68.6992 70.7436C67.9675 71.1437 67.3171 71.5438 66.6667 71.944C65.5285 72.8243 64.4715 73.7846 63.4959 74.905C63.1707 75.2251 62.8455 75.6252 62.5203 75.9453C60.813 77.7859 59.2683 79.6266 57.3984 80.1867C55.6098 80.7469 53.3333 80.2668 50.8943 79.7066C50.2439 79.5465 49.6748 79.4665 49.0244 79.3064C47.8862 79.0664 46.5041 78.8263 44.9594 78.8263C43.4146 78.8263 42.0325 79.0664 40.8943 79.3064C40.2439 79.3865 39.6748 79.5465 39.0244 79.7066C36.5854 80.2668 34.3089 80.7469 32.5203 80.1867C32.0325 80.0267 31.626 79.7866 31.1382 79.5465C30.0813 78.8263 29.0244 77.7859 27.9675 76.6656C27.7236 76.4255 27.561 76.1854 27.3171 75.9453C26.0976 74.5048 24.7967 73.0644 23.1707 71.944C22.6016 71.5438 21.9512 71.1437 21.2195 70.7436C20.1626 70.1834 19.1057 69.7032 18.0488 69.3031C15.6911 68.3428 13.5772 67.3824 12.3577 65.8619C11.2195 64.3414 10.9756 62.0206 10.7317 59.5398C10.5691 57.6192 10.3252 55.6985 9.7561 53.8579C9.18699 52.0973 8.21138 50.4167 7.23577 48.8162C6.09756 46.6555 4.87805 44.6548 4.87805 42.6541C4.87805 40.6535 6.09756 38.6528 7.39837 36.4921C8.37398 34.8915 9.34959 33.291 9.9187 31.4504C10.5691 29.6097 10.7317 27.6091 10.8943 25.7684C11.1382 23.2876 11.3821 20.9668 12.5203 19.4463C13.6585 17.9258 15.8537 16.9655 18.1301 16.0052C19.9187 15.2849 21.7073 14.4847 23.3333 13.3643C24.878 12.2439 26.1789 10.8034 27.4797 9.36293C29.187 7.52231 30.7317 5.68169 32.6016 5.1215C33.1707 4.88142 33.7398 4.8014 34.3902 4.8014C35.7724 4.8014 37.3984 5.1215 39.1057 5.52164C41.0569 5.92177 43.0081 6.40193 45.0407 6.40193C47.0732 6.40193 49.0244 6.0018 50.9756 5.52164C53.4146 4.96145 55.6911 4.48129 57.4797 5.04148C59.3496 5.60166 60.8943 7.44228 62.6016 9.2829C63.8211 10.7234 65.2032 12.1639 66.748 13.2842C68.374 14.4046 70.1626 15.2049 71.9512 15.9251C74.2276 16.8855 76.4228 17.8458 77.561 19.3663C78.6992 20.8868 78.9431 23.2076 79.187 25.6884C79.3496 27.6091 79.5935 29.5297 80.1626 31.3703C80.7317 33.1309 81.7073 34.8115 82.6829 36.412C83.9837 38.5728 85.2033 40.6535 85.2033 42.5741C85.122 44.6548 83.9024 46.6555 82.6016 48.8162Z" fill="black"/>
<path d="M60.7317 35.4519L51.3821 34.0915L47.2358 25.7687C46.8293 24.9684 46.0163 24.4082 45.0407 24.4082C44.1463 24.4082 43.252 24.8884 42.8455 25.7687L38.6992 34.0915L29.3496 35.4519C28.4553 35.612 27.6423 36.2522 27.3984 37.0525C27.1545 37.8527 27.3171 38.8931 28.0488 39.5333L34.7967 46.0155L33.1707 55.1385C33.0081 56.0188 33.3333 56.9792 34.1463 57.4593C34.5528 57.7794 35.0406 57.9395 35.6098 57.9395C36.0163 57.9395 36.4228 57.8594 36.748 57.6994L45.122 53.3779L53.4959 57.6994C54.3089 58.0995 55.2846 58.0195 56.0976 57.5393C56.9106 57.0592 57.2358 56.0989 57.0732 55.2186L55.4472 46.0955L62.1951 39.6133C62.8455 38.9731 63.0894 38.0128 62.8455 37.1325C62.6016 36.2522 61.626 35.5319 60.7317 35.4519ZM50.9756 43.4546C50.4065 44.0148 50.1626 44.8151 50.2439 45.6153L51.2195 51.2172L46.0976 48.5763C45.7724 48.4163 45.3659 48.3363 44.9593 48.3363C44.5528 48.3363 44.1463 48.4163 43.8211 48.5763L38.6992 51.2172L39.6748 45.6153C39.8374 44.8151 39.5122 44.0148 38.9431 43.4546L34.9593 39.4533L40.6504 38.653C41.4634 38.573 42.1138 38.0128 42.5203 37.3726L45.0407 32.2508L47.561 37.3726C47.8862 38.0928 48.6179 38.573 49.4309 38.653L55.122 39.4533L50.9756 43.4546Z" fill="black"/>
</g>
<defs>
<clipPath id="clip0_198_946">
<rect width="90" height="119" fill="white"/>
</clipPath>
</defs>
</svg>
