<svg width="99" height="110" viewBox="0 0 99 110" fill="none" xmlns="http://www.w3.org/2000/svg">
<g clip-path="url(#clip0_198_983)">
<path d="M93.4127 41.8537H87.5635C84.9445 30.8537 77.9603 21.5528 68.5317 16.0081H78.9206C80.0556 20.4797 84.0714 23.7886 88.7857 23.7886C94.373 23.7886 99 19.1382 99 13.3252C99 7.51219 94.4603 2.86179 88.7857 2.86179C84.0714 2.86179 80.1429 6.17073 78.9206 10.6423H60.9365L51.3333 0.804878C50.8968 0.268293 50.1984 0 49.5 0C48.8016 0 48.1032 0.268293 47.6667 0.804878L38.0635 10.6423H19.9921C18.8571 6.17073 14.8413 2.86179 10.127 2.86179C4.53968 2.86179 0 7.60163 0 13.3252C0 19.0488 4.53968 23.7886 10.2143 23.7886C14.9286 23.7886 18.8571 20.4797 20.0794 16.0081H29.246C19.7302 21.4634 12.746 30.8537 10.2143 41.8537H4.36508C2.88095 41.8537 1.74603 43.0163 1.74603 44.5366V59.561C1.74603 61.0813 2.88095 62.2439 4.36508 62.2439H19.0317C20.5159 62.2439 21.6508 61.0813 21.6508 59.561V44.5366C21.6508 43.0163 20.5159 41.8537 19.0317 41.8537H15.627C18.8571 30.0488 27.8492 20.748 39.373 17.3496L47.6667 25.8455C48.1905 26.3821 48.8016 26.6504 49.5 26.6504C50.1984 26.6504 50.8968 26.3821 51.3333 25.8455L59.2778 17.7073C70.3651 21.2846 79.0079 30.4959 82.1508 41.9431H78.746C77.2619 41.9431 76.127 43.1057 76.127 44.626V59.6504C76.127 61.1707 77.2619 62.3333 78.746 62.3333H93.4127C94.8968 62.3333 96.0317 61.1707 96.0317 59.6504V44.5366C96.0317 43.0163 94.8968 41.8537 93.4127 41.8537ZM16.4127 56.878H6.98413V47.2195H16.4127V56.878ZM88.7857 8.22764C91.4921 8.22764 93.7619 10.4634 93.7619 13.3252C93.7619 16.187 91.5794 18.4228 88.7857 18.4228C85.9921 18.4228 83.8095 16.187 83.8095 13.3252C83.8095 10.4634 86.0794 8.22764 88.7857 8.22764ZM10.2143 18.3333C7.42063 18.3333 5.2381 16.0976 5.2381 13.3252C5.2381 10.5528 7.42063 8.22764 10.2143 8.22764C13.0079 8.22764 15.1905 10.4634 15.1905 13.3252C15.1905 16.187 12.9206 18.3333 10.2143 18.3333ZM49.5 20.122L42.8651 13.3252L49.5 6.52846L56.1349 13.3252L49.5 20.122ZM90.7937 56.878H81.3651V47.2195H90.7937V56.878Z" fill="black"/>
<path d="M51.0714 32.106C50.9841 31.9271 50.8095 31.7482 50.6349 31.6588L50.5476 31.5694C50.4603 31.4799 50.2857 31.3905 50.1984 31.3011L50.1111 31.2117C49.9365 31.1222 49.8492 31.0328 49.6746 31.0328H49.5873C49.4127 30.9434 49.1508 30.9434 48.9762 30.9434C48.8016 30.9434 48.5397 30.9434 48.3651 31.0328H48.2778C48.1032 31.1222 47.9286 31.1222 47.8413 31.2117C47.8413 31.2117 47.754 31.2117 47.754 31.3011C47.5794 31.3905 47.4921 31.4799 47.3175 31.5694L47.2302 31.6588C47.0556 31.8377 46.9683 31.9271 46.7937 32.106L24.7937 66.0003C24.1825 66.8946 24.1825 68.0572 24.7937 68.9515L37.627 88.8051H30.381C28.8968 88.8051 27.7619 89.9677 27.7619 91.4881V107.317C27.7619 108.838 28.8968 110 30.381 110H67.4841C68.9683 110 70.1032 108.838 70.1032 107.317V91.3986C70.1032 89.8783 68.9683 88.7157 67.4841 88.7157H60.2381L73.0714 68.8621C73.6825 67.9677 73.6825 66.8051 73.0714 65.9108L51.0714 32.106ZM48.8889 64.2117C50.6349 64.2117 52.0317 65.6425 52.0317 67.4312C52.0317 69.2198 50.6349 70.7401 48.8889 70.7401C47.1429 70.7401 45.746 69.3092 45.746 67.5206C45.746 65.732 47.1429 64.2117 48.8889 64.2117ZM64.7778 104.634H33V94.0816H42.5159H55.2619H64.7778V104.634ZM53.8651 88.8051H43.9127L30.1191 67.4312L46.2698 42.4799V59.293C42.9524 60.4556 40.5079 63.6751 40.5079 67.4312C40.5079 72.171 44.2619 76.0165 48.8889 76.0165C53.5159 76.0165 57.2698 72.171 57.2698 67.4312C57.2698 63.5856 54.8254 60.3661 51.5079 59.293V42.4799L67.6587 67.4312L53.8651 88.8051Z" fill="black"/>
</g>
<defs>
<clipPath id="clip0_198_983">
<rect width="99" height="110" fill="white"/>
</clipPath>
</defs>
</svg>
