<svg width="89" height="120" viewBox="0 0 89 120" fill="none" xmlns="http://www.w3.org/2000/svg">
<g clip-path="url(#clip0_198_920)">
<path d="M89 21.0183C89 20.8554 89 20.6925 88.9184 20.611C88.9184 20.4481 88.8369 20.3666 88.7553 20.2037C88.7553 20.2037 88.7553 20.1222 88.6737 20.1222C88.5921 20.0407 88.5921 19.9593 88.5105 19.8778L88.429 19.7963C88.3474 19.7149 88.2658 19.5519 88.1842 19.4705L69.6664 0.733198C69.5848 0.651731 69.4216 0.570265 69.3401 0.488798L69.2585 0.407332C69.1769 0.325866 69.0953 0.325866 68.9322 0.244399C68.9322 0.244399 68.8506 0.244399 68.8506 0.162933C68.5243 0.0814664 68.2796 0 67.9533 0C67.9533 0 67.9533 0 67.8717 0H2.4473C1.06049 0 0 1.05906 0 2.44399V117.556C0 118.941 1.06049 120 2.4473 120H86.5527C87.9395 120 89 118.941 89 117.556V21.0183ZM80.5976 18.5743H70.4006V8.30957L75.5399 13.442L80.5976 18.5743ZM4.89459 115.112V4.88798H65.506V21.0183C65.506 22.4033 66.5665 23.4623 67.9533 23.4623H84.1054V115.031H4.89459V115.112Z" fill="black"/>
<path d="M76.9267 106.558H68.0348V78.5338C68.0348 77.1489 66.9743 76.0898 65.5875 76.0898H56.451C55.0642 76.0898 54.0037 77.1489 54.0037 78.5338V106.558H50.9038V84.8067C50.9038 83.4218 49.8433 82.3628 48.4565 82.3628H39.4015C38.0147 82.3628 36.9542 83.4218 36.9542 84.8067V106.558H33.8543V93.768C33.8543 92.3831 32.7938 91.3241 31.407 91.3241H22.352C20.9652 91.3241 19.9047 92.3831 19.9047 93.768V106.558H12.0733C10.6865 106.558 9.62603 107.617 9.62603 109.002C9.62603 110.387 10.6865 111.446 12.0733 111.446H22.352H31.407H39.4015H48.4565H56.451H65.506H76.8451C78.2319 111.446 79.2924 110.387 79.2924 109.002C79.2924 107.617 78.3135 106.558 76.9267 106.558ZM24.7993 106.558V96.212H28.9597V106.558H24.7993ZM41.8488 106.558V87.2507H46.0092V106.558H41.8488ZM58.8983 106.558V80.9778H63.0587V106.558H58.8983Z" fill="black"/>
<path d="M34.9148 62.9733C35.2411 63.1362 35.6489 63.2177 35.9753 63.2177C36.8726 63.2177 37.7699 62.7289 38.1778 61.8327L55.1457 27.6168C55.7168 26.3948 55.2273 24.9284 54.0037 24.3582C52.78 23.7879 51.3116 24.2767 50.7406 25.4987L33.7727 59.7146C33.2017 60.9366 33.6911 62.403 34.9148 62.9733Z" fill="black"/>
<path d="M32.6306 44.2367C36.791 44.2367 40.2172 40.8151 40.2172 36.6604C40.2172 32.5056 36.791 29.084 32.6306 29.084C28.4702 29.084 25.044 32.5056 25.044 36.6604C25.044 40.8151 28.3886 44.2367 32.6306 44.2367ZM32.6306 33.972C34.099 33.972 35.3226 35.194 35.3226 36.6604C35.3226 38.1268 34.099 39.3487 32.6306 39.3487C31.1622 39.3487 29.9386 38.1268 29.9386 36.6604C29.9386 35.194 31.0807 33.972 32.6306 33.972Z" fill="black"/>
<path d="M48.7828 51.6506C48.7828 55.8054 52.209 59.227 56.3694 59.227C60.5298 59.227 63.956 55.8054 63.956 51.6506C63.956 47.4958 60.5298 44.0742 56.3694 44.0742C52.209 44.0742 48.7828 47.4958 48.7828 51.6506ZM56.3694 48.9622C57.8378 48.9622 59.0614 50.1842 59.0614 51.6506C59.0614 53.117 57.8378 54.339 56.3694 54.339C54.901 54.339 53.6774 53.117 53.6774 51.6506C53.6774 50.1842 54.901 48.9622 56.3694 48.9622Z" fill="black"/>
</g>
<defs>
<clipPath id="clip0_198_920">
<rect width="89" height="120" fill="white"/>
</clipPath>
</defs>
</svg>
