<svg width="789" height="722" viewBox="0 0 789 722" fill="none" xmlns="http://www.w3.org/2000/svg">
<g clip-path="url(#clip0_192_450)">
<path d="M530.775 140.448C530.426 140.099 530.193 139.75 529.727 139.518C529.378 139.285 528.912 138.936 528.562 138.704C528.096 138.471 527.514 138.239 527.048 138.006C524.719 137.309 521.923 136.96 519.128 136.611C515.983 136.03 513.071 135.448 510.392 134.635C509.81 134.402 509.228 134.286 508.762 134.286C507.713 134.17 507.015 134.286 506.665 134.635C506.199 134.983 505.966 135.681 506.199 136.727C506.316 137.309 506.432 137.89 506.782 138.355C506.199 139.053 505.617 139.634 505.151 140.448C504.685 141.378 504.336 142.424 504.336 143.819C504.336 144.517 504.219 145.215 504.336 145.912C504.336 146.61 504.569 147.307 504.569 148.005C504.802 149.4 505.034 150.912 505.617 152.423C506.549 155.446 508.412 158.934 512.372 161.027C514.352 162.073 517.031 162.305 519.361 161.724C521.807 161.143 523.903 159.748 525.767 158.004C526.699 157.074 527.514 156.143 528.096 155.097C528.912 153.818 529.611 152.307 530.309 150.795C530.659 149.981 530.892 149.284 531.241 148.47C531.474 147.656 531.824 146.842 531.94 146.028C532.173 145.215 532.173 144.517 532.173 143.819C532.173 143.122 532.173 142.541 531.94 141.843C531.358 141.378 531.008 140.797 530.775 140.448ZM524.369 146.959L523.787 148.121C523.438 148.819 523.088 149.516 522.739 150.098C522.389 150.679 522.04 151.26 521.574 151.725C521.108 152.423 520.526 153.004 519.943 153.469C518.895 154.399 517.381 155.097 516.216 154.981C515.634 154.981 515.168 154.865 514.702 154.516C514.236 154.283 513.77 153.818 513.304 153.237C512.838 152.656 512.372 151.958 512.139 151.26C511.79 150.447 511.557 149.633 511.324 148.586C511.091 147.656 510.858 146.61 510.625 145.447C510.509 145.215 510.509 144.866 510.509 144.633C510.509 144.401 510.509 144.517 510.509 144.517C510.509 144.401 510.509 143.819 510.509 143.354C510.509 142.773 510.509 142.308 510.509 141.959C510.509 141.727 510.392 141.494 510.392 141.378C511.79 141.843 513.654 142.308 515.983 142.889C517.148 143.122 518.546 143.471 519.71 143.703C520.875 144.052 522.156 144.285 523.205 144.633C523.554 144.75 523.903 144.866 524.253 144.982C524.602 145.098 524.952 145.447 524.835 145.912C524.719 146.145 524.486 146.61 524.369 146.959Z" fill="black"/>
<path d="M788.767 224.739C787.602 222.763 783.526 221.368 776.77 220.554C770.131 219.856 763.026 219.043 755.339 218.345C759.998 214.741 763.492 209.393 765.356 203.231C767.452 196.371 767.685 189.977 768.035 184.396C768.384 178.815 768.733 173.234 768.384 167.77C768.268 166.259 768.268 164.98 768.035 164.05C767.569 160.678 766.637 158.353 765.822 157.074C765.123 156.027 764.424 155.795 763.725 156.26C763.609 156.26 763.492 156.26 763.376 156.144C758.6 155.214 752.776 154.516 746.137 154.167C746.021 153.586 745.904 153.121 745.788 152.423C745.438 150.796 744.973 148.703 745.089 146.377C745.089 145.215 745.322 143.936 745.788 142.773C746.254 141.494 746.953 140.448 747.651 139.285C748.7 137.774 749.864 136.379 750.447 134.635C751.146 133.007 751.146 131.031 750.447 129.17C749.864 127.426 748.7 125.682 747.186 124.404C745.671 123.125 743.924 122.195 741.944 121.497C738.101 120.102 734.024 119.52 729.714 119.404C727.618 119.404 725.405 119.52 723.308 119.637C721.212 119.753 718.999 120.102 717.019 120.102C715.039 120.102 713.058 119.637 711.661 118.474C710.147 117.428 709.215 115.684 708.516 113.824C707.817 111.847 707.235 109.638 706.536 107.429C705.837 105.104 704.905 102.662 703.042 100.453C701.178 98.2441 698.383 96.7327 695.471 96.2676C693.957 96.0351 692.442 96.0351 690.928 96.2676C689.414 96.5002 687.9 97.1978 686.735 97.7791C684.289 99.058 682.426 100.569 680.795 100.918C680.096 101.151 679.397 101.034 678.698 100.802C678 100.569 677.184 100.104 676.369 99.523C675.554 98.9417 674.738 98.1279 674.039 97.314C673.224 96.3839 672.292 95.4538 671.244 94.4074C670.196 93.361 669.031 92.3147 667.517 91.5008C666.003 90.687 664.139 89.9894 662.275 89.8731C658.665 89.5243 655.52 90.5707 652.841 91.5008C651.443 91.9659 649.929 92.5472 648.298 93.7098C646.668 94.8725 645.27 96.5002 644.338 98.2441C643.407 99.9881 642.941 101.965 642.824 103.825C642.708 105.801 642.941 107.778 643.523 109.522C644.688 113.126 646.784 116.033 649.347 118.358C650.628 119.52 652.259 120.683 654.122 121.497C655.986 122.311 657.966 122.776 659.829 122.892C661.693 123.008 663.324 123.008 664.838 123.008C666.352 123.008 667.633 122.892 668.915 122.892C671.477 122.892 673.923 123.241 676.136 123.938C678.233 124.636 679.98 125.799 681.144 127.078C681.727 127.775 682.076 128.473 682.426 129.17C682.775 129.984 683.008 131.147 683.241 132.542C683.474 133.937 683.823 135.681 684.522 137.774C685.221 139.75 686.386 142.192 688.482 144.168C690.579 146.145 693.141 147.191 695.471 147.656C697.8 148.121 699.897 148.238 701.877 148.121C705.721 147.889 708.982 147.191 712.127 146.61C715.272 146.029 718.067 145.564 720.629 145.564C723.192 145.447 725.521 145.912 727.152 146.726C727.967 147.075 728.55 147.54 729.016 147.889C729.598 148.354 730.064 148.819 730.53 149.4C731.345 150.563 731.811 151.609 732.16 152.539C732.277 152.888 732.393 153.121 732.51 153.353C728.899 153.237 725.055 153.121 721.095 153.005C720.746 153.005 720.396 153.005 720.047 153.121C719.581 152.888 718.999 153.121 718.3 153.935C716.553 155.795 715.388 159.167 714.922 163.933C714.107 163.817 713.175 163.701 712.01 163.585C710.962 163.468 709.797 163.468 708.632 163.468C707.351 163.468 706.07 163.585 704.439 163.933C703.973 164.05 703.508 164.282 702.925 164.515C700.829 165.677 699.082 167.421 697.917 169.514C696.752 171.607 696.053 173.932 695.82 176.257C695.587 178.234 695.587 180.443 696.053 182.884C696.519 185.326 697.684 188.116 699.431 190.558C701.178 193.116 703.275 195.092 705.371 196.72C707.584 198.348 709.797 199.626 712.01 200.557C712.593 200.789 713.058 201.022 713.524 201.138C713.874 201.254 714.223 201.254 714.573 201.254C714.689 203.696 715.039 206.137 715.854 208.462C716.436 210.206 717.252 211.834 718.416 213.229C718.999 213.927 719.581 214.508 720.28 215.09C692.326 213.113 659.48 211.485 621.859 210.788C619.879 210.788 618.132 210.788 616.501 210.904C615.802 210.904 615.22 211.02 614.637 211.02C614.754 209.858 614.055 209.625 612.541 210.206C611.143 210.788 609.629 211.95 607.998 213.578C607.183 214.392 606.368 215.438 605.436 216.485C604.62 217.647 603.805 218.926 602.873 220.321C598.797 226.716 592.74 236.831 584.82 251.131C577.016 265.316 571.076 276.71 566.533 285.081C565.834 286.476 565.019 287.871 564.32 289.382C564.087 288.568 563.971 287.638 563.738 286.592C561.874 278.919 560.942 270.431 559.312 261.014C558.496 256.363 557.215 251.48 555.352 246.481C553.488 241.598 550.926 236.598 547.897 231.832C544.752 227.065 541.025 222.298 536.599 217.996C535.434 216.95 534.386 215.787 533.221 214.741C532.057 213.694 530.775 212.648 529.611 211.602C528.329 210.555 527.048 209.625 525.767 208.695C524.486 207.765 523.088 206.835 521.807 205.905C516.333 202.3 510.742 198.929 505.267 195.441C502.589 193.697 499.793 191.837 497.231 189.976C494.668 188 492.222 186.024 490.009 183.814C489.427 183.233 488.845 182.652 488.262 182.071C490.009 181.489 491.873 181.14 493.853 181.373C499.793 181.605 505.966 181.954 512.489 181.722C515.75 181.605 519.128 181.257 522.506 180.792C525.884 180.21 529.378 179.396 532.756 178.234C536.133 176.955 539.511 175.327 542.772 173.351C544.287 172.188 545.801 171.258 547.548 169.747C549.062 168.235 550.576 166.607 551.741 164.747C554.187 161.027 555.352 156.725 555.934 152.772C556.4 149.749 556.516 146.843 556.633 144.052C557.215 144.052 557.798 144.052 558.38 144.052C560.011 144.052 561.525 144.052 563.039 143.82C564.553 143.587 565.834 143.122 566.999 142.424C568.164 141.727 569.212 140.797 570.027 139.634C570.493 139.053 570.843 138.472 571.076 137.774L571.542 136.728L571.891 135.681C573.172 131.147 571.309 126.613 568.28 123.008C568.28 123.008 568.28 123.008 568.164 122.892C568.28 122.892 568.28 122.892 568.397 122.776C570.26 121.962 572.008 120.799 573.522 119.288C575.036 117.776 576.201 116.033 577.132 114.172C578.064 112.312 578.88 110.336 579.462 108.359C580.743 104.29 581.558 99.7556 580.743 94.9887C580.51 93.8261 580.277 92.7797 579.928 91.6171C579.811 91.3846 579.695 90.9195 579.578 90.5707C579.462 90.2219 579.229 89.8731 579.112 89.5243C578.763 88.8267 578.414 88.1292 577.948 87.5478C576.201 84.99 573.638 83.1298 570.726 82.4322C569.096 82.0834 567.814 82.0834 566.766 82.0834C566.65 82.0834 566.533 82.0834 566.417 82.0834C564.67 82.3159 563.155 83.0135 562.107 83.5949C561.758 83.8274 561.408 84.0599 561.175 84.2924C560.709 82.4322 560.244 80.572 559.894 78.5955C558.846 73.4799 558.147 67.5504 559.894 62.7836C560.011 62.5511 560.011 62.2023 560.011 61.9697C560.011 61.7372 559.894 61.5047 559.778 61.3884C560.477 60.2258 560.709 58.7143 560.593 57.3192C560.477 56.3891 560.127 55.4589 559.661 54.7614C559.079 53.9475 558.264 53.4824 557.448 53.0174C556.633 52.5523 555.701 52.2035 554.886 51.6222C554.536 51.2734 554.187 50.9246 553.954 50.4596C553.837 49.9945 553.721 49.5295 553.954 49.0644C554.303 48.1343 555.002 47.4367 555.468 46.5066C555.934 45.6928 556.167 44.6464 556.05 43.6C556.05 42.5536 555.701 41.5073 555.235 40.6934C554.769 39.7633 553.837 39.0657 553.022 38.4844C552.207 37.9031 551.275 37.5543 550.576 36.9729C549.761 36.3916 549.062 35.694 548.829 34.7639C548.713 34.1826 548.713 33.7176 548.829 33.1362C548.946 32.5549 549.178 32.0899 549.411 31.6248C549.644 31.1597 549.877 30.6947 550.227 30.2296L550.576 29.532C550.693 29.2995 550.809 29.067 550.926 28.7182C551.391 27.6718 551.741 26.2767 551.275 24.9977C550.809 23.7188 549.761 22.905 548.596 22.3237C547.548 21.7424 546.15 21.5098 545.102 21.3936C544.054 21.2773 543.005 21.161 541.957 20.9285C541.491 20.8122 540.909 20.5797 540.559 20.2309C540.21 19.8821 540.093 19.3008 540.093 18.7195C540.093 17.6731 540.443 16.6267 540.443 15.5804C540.443 15.1153 540.443 14.4177 540.326 13.7201C540.21 13.0225 540.093 12.4412 539.861 11.8599C539.395 10.581 538.696 9.41836 537.647 8.48825C536.716 7.55814 535.434 6.74429 534.153 6.51176C532.872 6.27923 531.358 6.39549 530.077 6.74429C527.631 7.20934 525.185 8.13946 522.972 8.25572C521.923 8.37198 520.992 8.13946 520.409 7.6744C520.409 7.44187 520.526 7.09308 520.526 6.86055C520.293 6.62802 519.943 6.51176 519.477 6.27923C519.477 6.27923 519.361 6.27923 519.361 6.16297C519.128 5.58165 519.012 5.00033 518.779 4.53527C518.429 3.37263 517.614 2.32625 516.566 1.74493C515.517 1.16361 514.12 1.04735 512.955 1.16361C511.674 1.27987 510.509 1.74493 509.344 2.32625C508.762 2.55878 508.179 2.90757 507.597 3.37263L506.199 4.30274L505.5 4.65153L504.918 5.00033C504.569 5.23285 504.103 5.34912 503.753 5.46538C502.938 5.69791 502.006 5.81417 501.191 5.58165C500.376 5.34912 499.677 4.7678 499.094 4.07021L498.163 2.90757C497.697 2.44252 497.231 1.8612 496.648 1.39614C494.668 -0.231558 491.989 -0.580351 489.543 0.000969857C487.214 0.466026 485.234 1.62867 483.37 2.90757C482.904 3.25636 482.438 3.60516 482.089 3.95395C481.856 4.18648 481.507 4.41901 481.274 4.65153C480.691 5.11659 479.992 5.34912 479.177 5.34912C478.828 5.34912 478.478 5.23285 478.129 5.11659L477.547 5.00033L476.731 4.7678C475.683 4.53527 474.518 4.30274 473.353 4.30274C472.189 4.18648 471.024 4.30274 469.743 4.53527C468.461 4.7678 467.18 5.34912 466.016 6.16297C464.967 6.97682 464.035 8.02319 463.453 9.3021C462.871 10.581 462.521 11.5111 462.172 12.4412C461.822 13.3713 461.356 14.0689 461.124 14.3015C460.891 14.534 460.658 14.534 460.308 14.4177C460.075 14.3015 459.842 14.1852 459.493 14.0689L458.911 13.7201L458.095 13.1388C456.93 12.325 455.766 11.6274 454.368 11.2786C453.203 11.0461 451.806 11.0461 450.641 11.5111C449.476 11.9762 448.428 12.79 447.496 13.7201C447.03 14.1852 446.564 14.6502 446.215 15.2316C445.865 15.6966 445.399 16.3942 445.167 16.8593C444.934 17.3243 444.584 17.7894 444.351 18.2544C444.118 18.6032 443.885 18.952 443.652 19.3008C443.186 19.9984 442.604 20.5797 442.138 21.0448C441.556 21.5098 441.09 21.7424 440.74 21.8586C440.624 21.8586 440.508 21.8586 440.391 21.8586C440.275 21.8586 440.158 21.7424 439.809 21.6261L439.459 21.3936L438.993 21.0448C438.76 20.8122 438.411 20.5797 438.178 20.4634C437.596 20.1147 437.013 19.7659 436.314 19.5333C433.752 18.6032 430.607 19.0683 428.394 20.8122C427.346 21.6261 426.414 22.7887 425.832 24.0676C425.482 24.7652 425.249 25.3465 425.016 26.0441L424.667 27.0905L424.434 27.9044C424.318 28.3694 424.085 28.8345 423.968 29.2995C423.852 29.6483 423.735 29.9971 423.502 30.3459C423.153 30.9272 422.687 31.5085 422.337 31.7411C421.988 31.9736 421.872 31.9736 421.755 31.9736C421.755 31.9736 421.639 31.9736 421.522 31.8573L421.056 31.6248L420.59 31.3923C419.891 31.0435 419.193 30.811 418.494 30.5784C417.446 30.2296 416.281 30.1134 415.116 30.3459C413.951 30.5784 412.903 31.0435 411.971 31.7411C410.108 33.1362 408.71 35.1127 408.011 37.438C407.778 38.0193 407.662 38.6007 407.662 39.182C407.545 39.7633 407.545 40.4609 407.429 40.9259C407.312 41.9723 407.312 42.9024 407.312 43.7163C407.312 45.4602 407.312 47.0879 407.079 48.2506C407.079 48.4831 406.963 48.7156 406.846 48.9482L404.983 48.7156L404.4 51.1572C404.4 51.2734 404.4 51.3897 404.4 51.3897C404.284 51.3897 404.167 51.3897 404.167 51.3897C403.469 51.3897 402.77 51.2734 402.187 51.2734C400.906 51.2734 399.741 51.506 398.577 52.0873C397.412 52.6686 396.48 53.4825 395.665 54.5288C394.151 56.6216 393.568 59.2957 393.918 61.8535C394.034 63.0161 394.384 64.0625 394.849 65.1089C395.082 65.6902 395.315 66.1552 395.665 66.7366L396.131 67.5504L396.48 68.1317C396.713 68.4805 396.946 68.8293 397.179 69.0618C397.412 69.4106 397.645 69.6432 397.761 70.1082C397.878 70.457 397.761 70.9221 397.528 71.2709C397.295 71.6197 396.946 71.8522 396.597 72.0847C396.247 72.3172 395.898 72.4335 395.548 72.666L395.199 72.8986L394.616 73.2473C394.151 73.4799 393.568 73.9449 393.102 74.41C392.054 75.3401 391.122 76.5027 390.54 77.8979C390.19 78.5955 389.957 79.2931 389.841 79.9907C389.608 80.6883 389.608 81.3858 389.492 82.0834C389.375 83.4786 389.492 84.7575 389.725 86.1527C389.841 86.8503 390.074 87.4316 390.19 88.1292C390.423 88.7105 390.656 89.2918 390.889 89.8731C391.938 92.1984 393.219 94.0586 394.5 95.8026L395.432 97.0815L395.898 97.6628L396.131 98.1279C396.364 98.4767 396.597 98.9417 396.597 99.2905C396.713 99.8718 396.48 100.453 396.131 100.918C396.014 101.151 395.082 102.313 394.151 103.36C393.219 104.406 392.054 105.801 391.006 107.662C390.074 109.522 389.608 111.615 389.492 113.475C389.375 117.428 390.423 120.916 391.938 124.055C392.753 125.566 393.568 127.078 394.616 128.473C395.548 129.868 396.48 131.031 397.528 132.193C399.392 134.519 401.139 136.728 402.304 138.82C402.886 139.867 403.352 140.913 403.702 141.959C404.051 143.006 404.167 144.052 404.167 145.215C404.167 146.377 404.051 147.656 403.934 149.052L403.585 151.261L403.352 152.539L403.119 154.516C402.77 157.074 402.653 159.632 402.886 162.073L403.119 164.863C401.838 164.863 400.44 164.747 399.043 164.863C396.597 164.98 393.918 164.98 391.122 165.096C379.824 165.91 366.08 168.003 350.356 172.886C348.143 173.583 345.814 174.397 343.484 175.211C341.155 176.025 338.592 176.839 336.146 177.885C333.7 178.931 331.021 179.862 328.459 181.024C325.896 182.187 323.217 183.466 320.422 184.745C309.59 189.976 297.826 196.72 286.062 205.672C274.298 214.624 262.418 225.786 251.818 239.854C250.537 241.598 249.139 243.342 247.858 245.202C246.577 247.062 245.296 248.922 244.131 250.783C241.569 254.503 239.239 258.572 236.91 262.642C235.745 264.734 234.697 266.827 233.532 268.92C232.95 269.966 232.367 271.013 231.901 272.175C231.319 273.222 230.853 274.384 230.387 275.547C229.339 277.756 228.407 280.081 227.359 282.29C226.427 284.615 225.495 286.941 224.563 289.266C221.069 298.8 218.157 308.217 216.177 317.751C215.944 318.913 215.711 320.076 215.362 321.239C215.129 322.401 215.012 323.564 214.779 324.727C214.43 327.052 213.964 329.377 213.615 331.702C213.382 334.028 213.149 336.353 212.799 338.678C212.683 339.841 212.566 341.004 212.45 342.166C212.333 343.329 212.333 344.492 212.217 345.538C211.052 363.675 212.217 381.115 216.061 396.927C216.992 400.88 218.274 404.716 219.555 408.437C220.953 412.157 222.35 415.761 224.097 419.133C227.475 425.993 231.668 432.271 236.56 437.619C239.356 440.758 242.384 443.432 245.529 445.874C245.412 446.223 245.296 446.455 245.179 446.804C244.83 448.199 244.48 449.71 244.248 451.454C244.131 453.198 243.898 455.059 243.898 457.151C243.898 461.918 244.248 467.964 245.878 475.289C247.509 482.613 250.537 491.101 255.895 500.053C258.574 504.471 261.719 508.424 264.747 511.912C266.261 513.656 267.892 515.283 269.523 516.795C271.153 518.306 272.784 519.701 274.415 520.98C280.937 526.212 287.343 529.816 292.934 532.374C298.641 534.932 305.28 537.257 312.851 538.536C320.539 539.815 329.041 540.164 338.126 539.35C347.211 538.42 355.83 536.443 363.634 534.234C370.739 532.142 377.378 529.7 383.668 527.375C382.736 528.421 381.688 529.584 380.756 530.979C378.659 533.886 376.796 537.257 375.515 540.978C374.233 544.698 373.418 548.768 373.185 553.069C372.952 557.371 373.302 561.557 374.233 565.626C375.282 570.044 376.912 573.532 378.543 576.903C380.174 580.275 382.037 583.298 383.901 586.205C385.764 589.111 387.744 591.901 389.725 594.459C390.889 595.971 391.821 597.017 392.52 597.831C394.849 600.273 396.829 602.016 398.46 602.947C396.946 607.132 395.199 611.783 393.219 617.015C392.753 617.945 392.17 618.991 391.705 619.921C385.415 619.107 374.699 618.758 359.441 617.945C352.103 617.596 344.532 617.015 336.729 616.201C334.748 615.968 332.885 615.736 330.905 615.503C328.925 615.271 326.945 614.922 324.965 614.689C321.004 614.108 317.044 613.41 313.084 612.248C305.28 609.69 297.244 607.132 289.09 604.458C286.994 603.76 285.014 603.063 282.917 602.365C280.704 601.668 278.375 601.319 276.045 601.435C274.88 601.551 273.599 601.668 272.434 602.133C271.27 602.598 269.988 603.295 269.173 604.458C268.824 605.039 268.358 605.621 268.125 606.318C268.008 606.667 267.892 607.016 267.775 607.481C267.775 607.83 267.775 608.178 267.775 608.527C267.892 609.922 268.008 610.62 267.775 611.55C266.261 617.596 265.912 624.223 267.077 630.85C268.241 637.361 271.037 643.755 274.997 649.22C278.957 654.8 284.082 659.567 289.789 663.52C295.496 667.589 301.786 670.845 308.309 673.635C309.939 674.333 311.686 674.914 313.317 675.612C314.948 676.193 316.578 676.774 318.325 677.356C321.587 678.518 324.965 679.797 328.459 680.844C335.331 683.052 342.552 685.145 350.123 686.075C354.549 686.657 359.092 687.122 363.634 687.471C365.148 687.936 367.245 688.052 369.924 688.052C372.603 688.052 375.515 688.517 378.077 689.68C380.639 690.842 383.085 692.586 384.833 695.028C386.463 697.353 387.279 700.376 386.929 703.283C386.696 706.189 385.415 709.096 383.318 711.305C381.222 713.514 378.543 714.909 375.515 715.258C372.486 715.607 369.225 714.793 366.895 713.049C364.566 711.421 362.935 708.631 362.353 705.724C362.004 704.213 362.12 702.701 362.353 701.306C362.702 699.911 363.285 698.632 363.984 697.702C364.333 697.237 364.566 697.004 364.799 696.655C365.265 696.074 365.381 695.725 365.265 695.144C365.265 694.563 365.032 693.865 364.333 693.168C363.518 692.47 362.469 692.237 361.305 692.586C360.14 692.935 358.742 693.981 357.81 695.609C356.646 697.469 355.597 700.143 355.597 703.747C355.597 707.352 356.646 711.77 360.023 715.839C361.771 717.815 363.867 719.327 366.08 720.373C368.293 721.42 370.506 722.001 372.719 722.117C377.029 722.466 381.105 721.42 384.017 719.676C387.046 717.932 389.957 715.258 391.938 711.305C393.918 707.468 394.966 702.352 393.452 696.772C392.753 693.981 391.239 691.424 389.492 689.331C389.142 688.982 388.793 688.517 388.443 688.168C390.889 688.168 393.335 688.168 395.781 688.168C403.469 688.168 411.272 688.052 419.193 688.052C423.153 688.052 427.113 688.052 431.073 688.052C435.033 688.168 439.11 688.168 443.07 688.284C459.26 688.633 475.916 688.982 492.921 689.098C526.699 689.331 562.107 689.098 598.913 686.657C598.797 686.773 598.564 687.005 598.447 687.122C596.817 688.866 595.535 690.842 594.604 692.702C594.021 693.749 593.672 694.679 593.439 695.26C592.624 697.702 592.507 699.562 592.857 700.608C593.206 701.655 593.905 702.12 594.837 701.887C596.933 701.422 598.447 699.213 600.427 695.725C601.825 693.4 603.689 691.191 605.902 689.563C608.231 687.936 611.027 686.657 613.938 686.424C616.85 686.192 619.762 687.006 622.208 688.75C624.654 690.493 626.401 693.051 627.333 695.958C628.265 698.864 628.032 701.887 626.751 704.678C625.469 707.468 623.256 709.909 620.461 711.072C617.899 712.235 614.637 712.351 611.725 711.305C610.328 710.84 608.93 710.026 607.882 709.096C606.833 708.166 606.018 707.003 605.669 705.84C605.436 705.375 605.319 704.91 605.203 704.561C604.97 703.98 604.737 703.631 604.155 703.399C603.689 703.166 602.99 702.934 601.942 703.283C601.01 703.631 600.194 704.445 599.961 705.608C599.612 706.887 599.845 708.514 600.777 710.142C601.825 712.002 603.689 714.328 606.717 716.188C609.745 718.048 614.171 719.327 619.413 718.513C621.975 718.048 624.421 717.002 626.401 715.606C628.381 714.211 630.012 712.584 631.293 710.723C633.856 707.119 634.904 703.166 634.904 699.678C634.904 696.307 634.089 692.354 631.759 688.633C631.526 688.284 631.177 687.819 630.944 687.471C631.06 687.471 631.06 687.471 631.177 687.471C639.097 687.703 647.833 687.936 657.384 687.587C662.159 687.354 667.167 687.005 672.409 686.192C677.65 685.494 683.008 684.448 688.599 682.587C694.073 680.844 699.78 678.402 705.138 674.798C707.701 673.054 710.263 671.194 712.826 668.985C715.388 666.776 717.834 664.101 719.93 661.079C722.027 658.056 723.541 654.684 724.822 651.196L725.055 650.499L725.288 649.685C725.405 649.103 725.638 648.638 725.754 648.057C725.871 647.476 725.987 647.011 725.987 646.429C726.104 645.848 726.104 645.267 726.104 644.802C726.22 642.593 726.104 640.384 725.638 638.175C724.706 633.873 722.726 629.804 719.581 626.316C716.553 622.828 712.709 620.27 708.516 618.526C706.536 617.712 704.672 617.247 702.925 616.898C701.993 616.782 701.062 616.666 700.246 616.666C699.431 616.317 698.383 615.968 697.218 615.852C689.181 614.922 679.397 614.457 667.983 614.34C656.568 614.108 643.523 614.224 629.313 613.41C628.498 613.41 627.682 613.41 626.984 613.527C626.401 613.643 625.935 613.643 625.586 613.759C618.481 609.69 611.027 607.248 605.086 603.644C599.263 600.156 594.487 594.924 591.342 588.646C591.808 588.53 592.274 588.297 592.857 588.181C595.302 587.135 598.447 584.926 601.359 581.321C605.319 576.438 608.348 570.509 610.91 563.998C613.356 557.487 615.336 550.395 616.85 542.838C618.364 535.397 619.413 527.375 620.228 519.236C621.043 510.982 621.742 502.494 623.256 494.007C623.955 489.705 624.887 485.404 626.168 481.218C627.449 477.033 629.08 472.963 631.177 468.894C633.273 464.825 635.719 460.756 638.165 456.454C640.611 452.152 643.057 447.501 645.154 442.618C647.25 437.735 649.114 432.62 650.395 427.155C651.793 421.807 652.608 416.11 652.957 410.297C653.074 407.39 653.074 404.367 652.841 401.461L652.608 399.252L652.375 397.275C652.259 395.88 652.142 394.485 651.909 393.09C651.676 390.3 651.327 387.277 650.744 384.254C650.162 381.115 649.23 377.859 647.716 374.488C646.318 371.349 644.222 368.791 642.242 366.814C642.125 366.698 641.892 366.465 641.776 366.349C659.014 366.349 675.088 366.349 689.647 366.465C692.209 366.465 694.19 366.465 695.704 366.465C705.022 366.233 709.681 365.419 709.681 364.024C711.311 362.745 713.175 360.303 715.155 356.815C723.308 342.399 732.976 324.959 744.39 304.729C755.805 284.499 768.966 261.363 784.923 236.133C785.855 234.622 786.671 233.227 787.369 231.948C789 228.809 789.699 226.832 789.349 226.018C789 225.67 789 225.205 788.767 224.739ZM735.072 147.191C734.373 145.68 733.325 144.052 731.694 142.773C730.064 141.494 727.851 140.448 725.288 139.983C722.376 139.402 718.882 139.518 714.922 140.099C711.078 140.681 706.769 141.727 701.877 142.076C699.547 142.192 696.868 142.076 694.655 140.913C693.491 140.332 692.559 139.518 691.86 138.472C691.161 137.425 690.695 136.146 690.346 134.867C689.647 132.193 689.531 129.17 688.133 126.031C686.735 123.008 684.056 120.567 680.911 118.939C674.505 115.684 667.4 116.498 661.926 116.498C660.528 116.498 659.247 116.265 658.199 115.916C657.151 115.567 656.102 114.986 655.171 114.289C653.307 112.893 651.793 110.917 650.861 108.94C649.929 106.964 649.696 104.987 650.162 103.243C650.395 102.43 650.744 101.616 651.21 100.918C651.676 100.221 652.142 99.8718 652.841 99.4068C654.122 98.5929 656.335 97.8953 658.082 97.4303C659.829 96.9652 661.344 96.9652 662.508 97.1978C663.673 97.4303 664.721 98.1279 665.886 99.1742C667.167 100.337 668.332 101.848 670.079 103.592C671.011 104.406 671.943 105.336 673.224 106.15C674.389 106.964 675.787 107.662 677.534 108.01C679.281 108.359 681.144 108.359 682.891 107.894C684.639 107.429 685.92 106.731 687.085 106.034C688.249 105.336 689.181 104.755 690.113 104.29C691.045 103.825 691.627 103.592 692.209 103.476C693.491 103.243 695.121 103.592 696.286 104.29C696.635 104.522 696.868 104.639 697.101 104.871C697.334 105.104 697.567 105.336 697.8 105.685C698.033 105.918 698.266 106.383 698.499 106.731C698.732 107.196 698.965 107.545 699.082 108.01C699.431 108.94 699.78 110.103 700.246 111.382C700.596 112.661 700.945 114.056 701.527 115.567C702.11 117.079 702.692 118.823 703.857 120.451C704.905 122.195 706.536 123.822 708.516 124.985C710.496 126.148 712.709 126.845 714.573 127.078C716.553 127.31 718.183 127.31 719.814 127.194C721.328 127.078 722.726 126.961 724.007 126.729C725.172 126.613 726.453 126.496 727.618 126.496C729.947 126.38 732.277 126.496 734.373 126.729C736.47 126.961 738.566 127.543 740.197 128.124C741.828 128.822 743.109 129.635 743.575 130.333C744.157 131.031 744.39 131.961 744.274 132.193C744.274 132.31 744.274 132.193 744.157 132.31C744.157 132.426 744.041 132.542 743.924 132.775C743.691 133.24 743.225 133.937 742.527 134.984C741.828 136.03 740.896 137.425 740.197 139.053C739.498 140.681 739.149 142.192 739.032 143.471C738.799 145.796 739.032 147.889 739.382 149.633C739.731 151.261 740.314 152.539 740.779 153.702C739.032 153.586 737.169 153.586 735.305 153.47C736.004 152.307 736.237 149.865 735.072 147.191ZM732.626 160.445C737.285 160.794 740.896 161.027 743.575 161.143C746.254 161.376 749.515 161.608 753.359 161.841C756.504 162.073 759.299 162.306 761.861 162.538C761.745 164.05 761.745 165.91 761.861 167.886C761.978 171.839 761.745 176.025 761.396 180.443C761.046 184.745 760.813 189.395 760.114 194.046C759.415 198.696 758.251 203.347 755.688 207.416C753.242 211.485 749.399 214.741 744.973 215.438C740.546 216.252 735.305 214.741 729.947 212.764C727.385 211.834 725.055 210.671 723.891 209.276C722.726 207.881 722.027 205.905 721.561 203.347C721.328 202.068 721.328 200.557 721.212 199.045C721.095 197.417 721.095 195.79 720.979 194.278C720.862 191.023 720.746 187.767 720.746 184.396C720.629 177.653 720.746 170.793 721.095 163.817C721.212 162.189 721.212 160.794 721.095 159.399C721.561 159.515 722.027 159.632 722.493 159.748C724.589 159.864 727.967 160.097 732.626 160.445ZM708.05 190.209C706.186 188.349 704.556 186.14 703.624 183.582C702.692 181.14 702.459 178.234 703.158 175.676C703.508 174.397 703.973 173.118 704.672 172.188C705.022 171.723 705.371 171.374 705.721 171.025C705.954 170.793 706.186 170.793 706.303 170.56C706.419 170.444 706.536 170.444 706.652 170.444C706.769 170.444 706.769 170.444 706.885 170.444C707.002 170.444 707.002 170.444 707.118 170.444C707.235 170.444 707.235 170.444 707.351 170.444C707.701 170.444 708.05 170.328 708.516 170.328C709.331 170.212 710.38 170.212 711.311 170.328C712.36 170.328 713.291 170.444 714.34 170.56C714.456 170.56 714.456 170.56 714.573 170.56C714.34 176.49 714.107 184.628 714.34 194.743H714.223C712.01 193.581 709.914 192.069 708.05 190.209ZM565.601 134.635C565.252 135.797 564.437 136.844 563.272 137.425C561.758 138.123 559.778 138.123 557.215 138.006C555.934 138.006 554.653 137.89 553.139 138.239C552.44 138.472 551.741 138.82 551.159 139.402C550.576 139.983 550.227 140.913 549.994 141.843C549.877 143.471 549.761 145.564 549.528 148.005C549.295 150.447 548.946 153.237 548.014 156.26C547.082 159.167 545.451 162.306 542.889 164.747C540.326 167.189 536.832 169.281 533.105 170.909C527.864 173.234 522.389 174.281 517.264 174.746C512.139 175.211 507.131 175.211 502.589 174.978C500.259 174.862 498.046 174.746 495.833 174.746C494.785 174.746 493.62 174.63 492.572 174.63H491.756C491.407 174.63 491.058 174.63 490.708 174.63C490.126 174.63 489.543 174.746 488.961 174.862C486.632 175.211 484.302 176.025 482.322 177.187C480.342 178.35 478.711 179.745 477.314 181.373C474.635 184.396 472.888 188 471.373 191.72C469.976 195.441 468.811 199.394 467.646 203.347C467.064 205.323 466.365 207.3 465.666 209.16C465.433 209.625 465.317 210.09 465.084 210.555L464.851 211.137C464.851 211.253 464.734 211.369 464.734 211.369C464.501 211.718 464.152 212.067 463.686 212.299C462.754 212.881 461.473 213.229 460.075 213.113C459.376 212.997 458.678 212.881 458.095 212.648C457.513 212.415 457.047 212.067 456.581 211.834C456.348 211.602 455.999 211.253 455.766 211.02C454.252 209.858 453.087 209.16 451.806 208.462L450.058 207.532C449.709 207.3 449.709 207.416 449.709 207.3C449.593 207.3 449.593 207.184 449.593 207.184C447.845 205.556 446.098 203.928 444.351 202.3C440.857 199.045 437.596 195.906 434.8 192.651C428.977 186.256 424.667 179.513 423.036 173.118C422.57 171.374 422.454 169.863 422.337 168.816C422.105 167.421 422.104 166.259 421.988 165.096C424.201 164.863 426.414 164.747 428.627 164.747C431.888 164.747 435.033 164.863 438.294 165.096L440.74 165.329C441.556 165.445 442.488 165.561 443.536 165.677C444.584 165.794 445.749 165.794 447.03 165.677C448.311 165.561 449.709 165.212 451.107 164.631C453.902 163.468 455.882 161.492 457.28 159.864C457.979 159.05 458.561 158.236 459.143 157.423L460.658 155.33C462.638 152.539 464.734 149.633 466.831 146.726C468.927 143.82 470.907 141.029 473.004 138.123C473.353 137.658 473.586 137.309 473.936 136.844C474.052 136.728 474.169 136.611 474.285 136.611C475.217 135.797 476.265 134.751 477.197 133.472C478.012 132.426 478.828 130.914 479.41 129.287C479.527 129.054 479.76 128.822 479.876 128.589C480.691 127.194 481.274 125.682 481.507 124.055C481.74 122.427 481.623 120.799 481.157 119.288C480.691 117.776 479.876 116.381 478.711 115.102C478.129 114.521 477.547 113.94 476.964 113.358C476.615 113.126 476.265 112.777 476.032 112.545L475.333 111.963L473.12 110.336C472.538 109.987 472.072 109.522 471.49 109.057C470.442 108.127 469.626 107.08 468.811 106.034C467.297 103.941 466.365 101.383 466.365 99.1742C466.248 96.849 466.947 94.4074 468.112 92.7797C469.393 91.0358 470.791 90.2219 472.655 89.9894C473.586 89.8731 474.518 89.9894 475.217 90.3382C475.916 90.687 476.498 90.9195 476.964 91.5008C477.43 92.0821 477.896 92.896 478.129 93.9424C478.478 94.9887 478.595 96.3839 478.711 97.7791C478.711 98.4767 478.711 99.2905 478.711 100.104V101.5V102.313V102.895V103.592C478.828 105.453 479.061 107.313 479.76 108.94C480.458 110.684 481.507 112.08 482.788 113.358C483.603 114.056 484.651 114.87 485.933 115.335C487.447 116.033 489.194 116.381 490.825 116.498C491.29 116.498 491.64 116.498 492.106 116.498C492.455 116.498 493.038 116.498 493.387 116.498C493.969 116.498 494.552 116.381 495.134 116.381C497.464 116.149 499.677 115.684 501.773 114.754C503.986 113.94 506.083 112.661 507.946 111.033C509.81 109.289 511.441 107.08 512.372 104.522C512.722 103.709 512.838 102.895 513.071 102.081C517.031 103.476 521.457 104.987 526.466 106.615C526.466 106.731 526.349 106.964 526.349 107.08C525.884 109.405 525.884 111.731 526.233 113.94C526.582 116.149 527.514 118.358 528.912 119.986C530.31 121.729 532.173 122.892 533.92 123.706C535.667 124.52 537.531 124.752 539.162 124.869C540.909 124.869 542.656 124.636 544.636 123.938C546.5 123.125 548.247 121.962 549.761 120.451C550.576 119.637 551.159 118.823 551.857 117.893C552.09 118.358 552.44 118.823 552.789 119.288C554.187 121.032 556.05 122.195 557.798 123.008C559.428 123.706 561.059 124.055 562.573 124.055C562.573 124.171 562.69 124.171 562.69 124.287L563.039 124.869C563.155 125.101 563.272 125.334 563.388 125.566C564.437 127.31 565.485 129.17 565.951 131.263C565.951 132.31 565.951 133.472 565.601 134.635ZM454.834 21.5098C454.95 21.3936 455.067 21.3936 455.183 21.3936C455.3 21.3936 455.3 21.3936 455.416 21.3936H455.533C455.183 21.5098 454.95 21.6261 454.601 21.7424C454.717 21.5098 454.834 21.5098 454.834 21.5098ZM454.368 21.161C454.484 21.161 454.484 21.161 454.368 21.161V21.161ZM555.002 59.2957C555.235 59.5282 555.352 59.6444 555.002 59.2957C554.886 59.1794 554.886 59.1794 555.002 59.2957ZM527.864 101.267C527.514 101.034 527.281 100.802 526.932 100.686C525.534 100.104 523.438 99.2905 520.526 98.1279C517.614 96.9652 515.284 96.0351 513.537 95.3375C513.421 95.3375 513.304 95.2213 513.071 95.2213C513.071 95.105 513.071 94.8725 513.071 94.7562C513.77 92.6635 514.236 90.4544 514.585 88.1292C514.935 87.3153 515.168 86.5015 515.401 85.6876C515.517 85.5713 515.634 85.4551 515.75 85.3388C516.1 84.8738 516.1 84.7575 515.867 84.6412H515.75C515.983 83.3623 516.216 82.0834 516.216 80.8045C516.216 80.3395 516.216 79.9907 516.216 79.7581C516.1 79.2931 515.867 78.828 515.634 78.5955C515.75 77.2003 515.75 75.6889 515.867 74.41C515.867 73.7124 515.867 73.0148 515.983 72.201C516.1 71.8522 516.333 71.1546 516.449 70.5733C516.915 69.2944 517.381 67.8992 518.429 66.8528C519.594 65.8064 521.108 65.2251 522.855 65.2251C523.671 65.2251 524.602 65.2251 525.418 65.3414C526.349 65.4577 526.932 65.5739 527.747 65.6902C529.261 65.9227 530.892 66.2715 532.406 66.2715C533.221 66.2715 533.92 66.1552 534.619 65.9227C535.318 65.6902 536.017 65.2251 536.832 64.6438C538.23 63.5974 540.21 62.086 542.423 62.2023C543.471 62.2023 544.636 62.551 545.684 62.8998C546.733 63.2486 547.664 63.7137 548.713 64.1787C549.994 64.7601 551.392 65.1089 552.789 65.1089C552.44 66.6203 552.09 68.5968 552.09 71.0383C551.974 74.7588 552.556 77.7817 552.906 79.9907C553.255 82.1997 553.837 84.7575 554.769 87.8966C555.235 89.6406 555.701 91.2683 556.167 92.6635L556.05 92.7797C555.934 92.5472 555.818 92.1984 555.701 91.9659C555.585 91.6171 555.352 91.2683 555.235 90.9195C554.886 90.2219 554.536 89.5243 554.07 88.943C552.323 86.3852 549.761 84.525 546.849 83.8274C545.218 83.4786 543.937 83.4786 542.889 83.4786C542.772 83.4786 542.656 83.4786 542.539 83.4786C540.792 83.7111 539.278 84.4087 538.23 84.99C537.647 85.3388 537.298 85.6876 536.832 86.0364C536.483 86.3852 536.366 86.6177 536.25 86.8503C535.9 87.4316 535.9 88.0129 536.133 88.4779C536.017 88.4779 536.017 88.5942 535.9 88.5942C534.852 89.6406 533.571 91.0358 532.523 93.1285C532.406 93.361 532.29 93.5936 532.173 93.8261C531.474 94.6399 530.775 95.4538 530.193 96.5002C529.261 97.7791 528.562 99.4068 527.864 101.267ZM533.221 22.7887C533.221 22.7887 533.338 22.7887 533.338 22.6725C533.454 22.905 533.571 23.1375 533.571 23.3701C533.338 23.3701 533.105 23.3701 532.756 23.4863C532.406 23.4863 531.94 23.6026 531.591 23.7188H531.474L533.221 22.7887ZM527.398 20.1147C527.398 20.2309 527.398 20.2309 527.398 20.1147V20.1147ZM408.943 83.9436C409.525 83.9436 410.108 83.9436 410.69 83.9436C410.69 83.9436 410.69 83.9436 410.806 83.9436C410.806 84.1762 410.806 84.525 410.806 84.7575C409.991 85.5714 409.292 86.5015 408.477 87.3153C408.128 86.5015 407.778 85.5714 407.429 84.7575C407.662 84.525 407.895 84.2924 408.128 84.0599C408.36 83.9436 408.71 83.9436 408.943 83.9436ZM424.9 137.193C424.783 137.076 424.667 136.844 424.55 136.728C424.085 136.146 423.386 135.681 422.803 135.216C422.803 135.1 422.803 134.984 422.803 134.867C422.803 134.402 422.803 133.937 422.92 133.472C422.92 133.472 422.92 133.472 423.036 133.356C423.852 132.775 424.783 132.193 425.948 131.844V131.961C425.715 132.077 425.482 132.077 425.249 132.31C424.9 132.542 424.55 132.775 424.318 133.356C424.085 133.821 423.968 134.519 424.201 135.216C424.318 135.797 424.667 136.262 424.9 136.611C425.133 136.844 425.249 137.076 425.482 137.193C425.366 137.193 425.249 137.193 425.133 137.193C425.016 137.193 424.9 137.193 424.9 137.193ZM436.198 107.545C436.314 107.08 436.431 106.615 436.664 106.15C436.664 106.615 436.664 106.964 436.664 107.429L436.198 107.545ZM443.652 112.545C443.652 112.312 443.652 111.963 443.652 111.731C443.769 111.615 443.885 111.498 444.002 111.498C444.235 111.847 444.351 112.196 444.584 112.545C444.235 112.545 444.002 112.545 443.652 112.545ZM446.914 56.2728C446.564 57.2029 446.098 58.0168 445.399 58.7143C444.934 59.1794 444.584 59.6444 444.002 59.9932C444.002 59.2957 443.885 58.3655 444.118 57.0866C445.05 56.7378 445.982 56.5053 446.914 56.2728ZM466.248 52.9011C465.783 55.2264 465.317 57.4354 464.851 59.7607C464.851 57.9005 464.967 56.0403 464.967 54.0638C465.317 53.5987 465.783 53.2499 466.132 52.9011H466.248ZM502.006 42.2048C502.006 41.856 502.006 41.6235 501.89 41.2747C501.89 41.1585 501.89 41.0422 501.773 40.9259C503.404 41.2747 505.733 41.6235 508.645 42.2048C509.81 42.4374 510.858 42.5536 511.907 42.7862C508.878 42.5536 505.5 42.4374 502.006 42.2048ZM457.163 129.519C457.513 129.519 457.746 129.635 458.095 129.635L457.979 129.752C457.629 130.217 457.396 130.682 457.047 131.147C457.163 130.682 457.163 130.1 457.163 129.519ZM458.212 123.008C457.979 123.008 457.746 122.892 457.629 122.776C457.396 122.66 457.163 122.543 457.047 122.427C457.163 122.427 457.163 122.311 457.28 122.311C457.513 122.66 457.862 122.776 458.212 123.008ZM450.641 99.7556C450.641 99.6393 450.641 99.6393 450.641 99.523L451.806 98.9417C451.806 99.058 451.806 99.058 451.806 99.1742L450.641 99.7556ZM492.455 25.6953C492.455 25.5791 492.455 25.5791 492.455 25.4628L492.572 25.5791C492.572 25.6953 492.572 25.6953 492.455 25.6953ZM414.65 76.619V76.7353C414.534 76.7353 414.417 76.7353 414.184 76.7353C414.184 76.3865 414.184 76.154 414.068 75.8052C414.301 76.0377 414.417 76.2702 414.65 76.619ZM504.103 91.7333C504.569 91.152 504.918 90.687 505.267 90.2219C505.85 89.5243 506.432 88.5942 507.131 87.5478C506.316 89.0593 505.267 90.3382 504.103 91.7333ZM407.895 117.777C408.011 118.242 408.011 118.823 408.244 119.404C408.011 119.288 407.778 119.055 407.545 118.823C407.545 118.474 407.662 118.125 407.895 117.777ZM502.822 21.8586C502.938 21.6261 502.938 21.3936 503.054 21.161C503.637 21.2773 504.219 21.3936 504.685 21.5098C505.85 21.7424 507.015 22.0911 508.412 22.5562C506.549 22.3237 504.685 22.0911 502.822 21.8586ZM404.633 101.848C404.75 102.197 404.75 102.43 404.75 102.662C404.75 102.895 404.633 103.243 404.517 103.476C404.4 103.825 403.469 104.987 402.071 106.615L401.954 106.731C402.77 104.987 403.585 103.36 404.633 101.848ZM409.292 126.961C409.409 127.426 409.409 127.775 409.525 128.24C409.525 128.473 409.642 128.589 409.642 128.822C409.292 128.24 408.943 127.543 408.593 126.961C408.943 126.961 409.059 126.961 409.292 126.961ZM439.925 156.492C440.158 156.027 440.275 155.679 440.275 155.214C440.624 155.33 440.857 155.33 441.206 155.446L441.672 155.562L442.488 155.795C443.07 155.911 443.652 156.144 444.235 156.26C443.186 156.492 442.138 156.725 441.09 156.841C440.857 156.725 440.391 156.609 439.925 156.492ZM455.183 150.33C455.416 149.982 455.533 149.633 455.766 149.4L456.115 148.586L456.348 148.005C457.513 147.308 458.561 146.377 459.609 145.564C458.328 147.075 456.814 148.703 455.183 150.33ZM492.688 106.383C492.339 105.801 491.64 105.104 491.174 104.174C491.64 104.057 492.106 103.941 492.572 103.592C492.805 103.476 492.921 103.36 493.154 103.127C493.154 103.36 493.271 103.592 493.271 103.825C493.387 104.406 493.62 104.987 493.853 105.336C493.969 105.569 494.202 105.801 494.319 106.034C493.853 106.15 493.271 106.266 492.688 106.383ZM498.861 103.709C498.861 103.592 498.861 103.592 498.861 103.709C498.745 103.709 498.745 103.709 498.861 103.709ZM541.608 38.4844C541.724 38.2519 541.841 37.9031 542.074 37.5543C542.19 37.9031 542.306 38.2519 542.539 38.6007C542.19 38.6007 541.841 38.6006 541.608 38.4844ZM523.321 25.6953L523.438 25.5791C524.02 25.114 524.486 24.649 524.835 24.1839L524.952 24.3002L524.136 25.114C524.02 25.3465 523.787 25.5791 523.787 25.8116C523.671 25.6953 523.438 25.6953 523.321 25.6953ZM405.216 73.3636C405.332 74.7588 405.099 76.154 404.517 77.0841C404.167 77.0841 403.934 77.2003 403.585 77.2003C403.352 76.8515 403.352 76.3865 403.236 76.0377C404.051 75.3401 404.75 74.41 405.216 73.3636ZM474.984 122.776C474.868 124.287 474.052 125.45 473.237 126.613C473.004 126.961 472.771 127.194 472.538 127.543C472.189 127.426 471.839 127.426 471.49 127.426C472.422 126.38 473.353 125.334 474.169 124.055C474.402 123.706 474.751 123.241 474.984 122.776ZM467.879 120.799C467.879 120.916 467.763 120.916 467.763 121.032C467.53 121.381 467.18 121.846 466.831 122.195L466.365 120.683C466.365 120.567 466.365 120.451 466.248 120.451V120.334C466.831 120.451 467.413 120.567 467.879 120.799ZM484.418 81.3858C484.302 81.3858 484.186 81.2696 484.069 81.2696C484.186 81.2696 484.302 81.2696 484.418 81.3858ZM516.333 61.9697C516.216 61.0396 516.1 60.342 515.867 59.877C515.75 59.7607 515.75 59.6445 515.634 59.5282C515.75 59.5282 515.867 59.5282 515.867 59.5282C516.798 59.6445 517.847 59.7607 519.128 59.7607C519.477 59.877 519.943 59.9932 520.293 59.9932C518.779 60.5746 517.497 61.2721 516.333 61.9697ZM538.463 56.3891C538.346 56.2728 538.346 56.2728 538.23 56.1565C537.88 55.8077 537.531 55.5752 537.182 55.3427C537.997 55.3427 538.929 55.2264 539.977 55.1101C540.093 55.3427 540.326 55.5752 540.559 55.8077C539.861 55.924 539.162 56.1565 538.463 56.3891ZM549.761 56.6216C550.46 57.3192 551.391 57.9005 552.44 58.4818C552.207 58.4818 552.09 58.4818 551.857 58.3655C551.508 58.2493 550.576 57.9005 549.411 57.3192C549.528 57.0866 549.644 56.8541 549.761 56.6216ZM529.145 24.649C528.795 24.7652 529.028 24.649 529.145 24.649V24.649ZM527.98 20.2309C528.097 20.2309 528.329 20.3472 528.446 20.3472C528.912 20.3472 528.446 20.696 528.213 20.8122L527.514 21.5098L526.349 22.6725C526.582 21.9749 526.815 21.2773 527.048 20.696C527.398 20.5797 527.631 20.4634 527.98 20.2309ZM509.111 13.1388C509.228 13.4876 509.228 13.7201 509.344 13.9527C509.228 13.9527 509.111 13.8364 508.878 13.8364C508.645 13.7201 508.529 13.7201 508.412 13.7201C508.179 13.8364 507.946 13.9527 507.83 14.0689C507.597 13.9527 507.364 13.9527 507.131 13.8364C507.48 13.6039 507.946 13.4876 508.296 13.2551C508.645 13.3713 508.878 13.2551 509.111 13.1388ZM491.64 9.3021C491.291 9.53463 490.941 9.88342 490.708 10.2322C490.475 10.6973 490.126 11.2786 489.66 11.8599H489.543C489.077 11.8599 488.379 11.8599 487.447 11.8599C488.146 11.1623 488.961 10.4647 490.009 9.99968C490.592 9.65089 491.058 9.41836 491.64 9.3021ZM471.839 11.6274C471.956 11.6274 471.956 11.6274 472.072 11.6274C472.189 11.6274 472.305 11.6274 472.422 11.6274C472.189 11.6274 471.956 11.6274 471.839 11.6274ZM446.098 33.8338C445.865 33.9501 445.632 34.0663 445.399 34.1826C446.215 33.6013 447.03 33.1362 447.962 32.5549L447.845 33.02C447.147 33.2525 446.564 33.485 446.098 33.8338ZM420.94 38.9494C421.289 38.9494 421.755 38.9494 422.105 38.9494C421.406 39.5308 420.823 40.1121 420.124 40.6934C420.241 40.1121 420.357 39.5308 420.474 38.8332C420.59 38.8332 420.823 38.8332 420.94 38.9494ZM409.642 154.283L410.224 150.33C410.457 148.819 410.574 147.308 410.574 145.68C410.574 145.447 410.574 145.331 410.574 145.099C410.806 145.564 411.039 146.029 411.389 146.377C411.039 147.424 410.806 148.703 410.574 150.098C410.224 152.074 410.108 154.865 410.457 157.19C410.457 157.771 410.574 158.353 410.806 158.818C410.923 159.167 411.039 159.632 411.156 159.98C410.806 160.097 410.457 160.097 410.108 160.213L409.758 160.329H409.525C409.525 160.329 409.525 160.213 409.525 160.097L409.409 159.283C409.409 158.701 409.409 158.12 409.409 157.655C409.409 156.492 409.525 155.33 409.642 154.283ZM465.433 113.01C464.967 113.01 464.501 113.01 464.035 113.01C463.57 111.382 462.987 109.987 462.521 108.592C463.453 110.219 464.618 111.615 466.016 113.01C465.899 113.126 465.666 113.01 465.433 113.01ZM462.871 89.0593C462.987 88.3617 463.104 87.5478 463.22 86.8503C463.802 86.8503 464.385 86.734 464.967 86.734C464.967 86.734 464.967 86.734 465.084 86.734C464.152 87.4316 463.453 88.2454 462.871 89.0593ZM483.603 88.5942C483.603 89.1755 483.487 89.7569 483.487 90.4544C483.37 90.1057 483.254 89.8731 483.021 89.5243C482.671 88.8267 482.205 88.1292 481.623 87.4316C482.322 87.8966 483.021 88.2454 483.603 88.5942ZM534.852 101.383C535.085 100.802 535.434 100.221 535.667 99.6393C536.366 99.1742 536.832 98.7092 537.065 98.2441C537.182 97.8953 537.415 97.4303 537.531 97.0815C538.113 96.5002 538.579 96.3839 539.162 96.2676C539.511 96.2676 539.628 96.1514 539.744 96.1514C539.86 96.1514 539.861 95.9189 539.861 95.8026C539.861 95.6863 539.977 95.4538 540.21 95.2213C540.443 94.7562 540.909 94.1749 540.909 93.2448C540.909 93.0122 540.909 92.7797 540.909 92.5472C541.025 92.4309 541.142 92.3147 541.375 92.1984C542.306 91.5008 543.471 91.0358 544.519 90.9195C545.568 90.8032 546.616 91.0358 547.198 91.5008C547.315 91.5008 547.315 91.5008 547.315 91.5008V91.3846C547.548 91.6171 547.781 91.8496 548.014 92.1984C548.829 93.2448 549.295 94.4074 549.528 95.6863C550.227 98.2441 550.227 100.918 549.761 103.592C549.295 106.266 548.247 109.057 546.965 111.731C545.684 114.289 543.937 116.614 541.724 117.544C539.744 118.474 536.949 118.125 535.085 116.846C534.619 116.498 534.27 116.149 533.92 115.8C533.687 115.451 533.338 114.986 533.105 114.405C532.639 113.475 532.523 112.196 532.523 110.917C532.639 108.127 533.454 104.755 534.852 101.383ZM546.383 44.7626C546.034 45.1114 545.801 45.5765 545.451 46.1578C545.801 45.2277 546.034 44.2976 546.267 43.4837C546.267 43.3675 546.383 43.1349 546.383 43.0187C546.616 43.2512 546.965 43.3675 547.198 43.6C547.431 43.7163 547.781 43.9488 548.014 44.0651C547.198 44.1813 546.616 44.4139 546.383 44.7626ZM461.939 26.2767C462.288 26.1604 462.638 26.0441 463.104 25.9279C463.453 26.1604 463.802 26.2767 464.152 26.3929C463.453 26.6254 462.754 26.858 462.055 27.0905C457.163 28.8345 452.621 30.6947 448.544 32.5549L448.428 32.2061C452.854 29.7646 457.396 27.6718 461.939 26.2767ZM449.243 24.0676C449.01 24.1839 448.661 24.3002 448.428 24.4164C448.661 24.1839 448.777 23.9514 448.894 23.7188C449.127 23.8351 449.243 23.9514 449.243 24.0676ZM438.644 30.4622C438.644 30.3459 438.644 30.2296 438.644 30.2296L438.527 30.3459C438.527 30.3459 438.527 30.3459 438.527 30.2296C438.527 30.1134 438.411 30.2296 438.294 30.3459C438.294 30.2296 438.411 30.2296 438.411 30.1134L438.527 30.2296C438.76 30.3459 438.527 30.2296 438.294 30.1134C438.294 29.9971 438.411 29.9971 438.411 29.8808C438.644 29.532 438.76 29.2995 438.993 28.9507C439.459 29.067 439.809 29.067 440.275 29.067C440.391 29.067 440.508 29.067 440.508 29.067C439.925 29.532 439.226 29.9971 438.644 30.4622ZM434.8 27.2068H434.684L434.567 27.0905C434.451 26.9742 434.334 26.858 434.334 26.7417C434.567 26.858 434.8 26.9742 435.033 27.0905C434.917 27.2068 434.8 27.2068 434.8 27.2068ZM562.922 88.8267C563.971 88.8267 565.252 88.7105 566.533 88.8267C567.232 88.8267 567.931 88.943 568.63 89.0593C569.911 89.4081 570.959 90.2219 571.775 91.2683C572.59 92.3147 573.056 93.4773 573.289 94.7562C573.988 97.314 573.988 99.9881 573.522 102.662C573.056 105.336 572.008 108.127 570.726 110.801C569.445 113.358 567.698 115.684 565.485 116.614C564.437 117.079 563.272 117.195 561.991 117.079C561.874 116.963 561.758 116.963 561.641 116.846C561.292 116.73 561.059 116.73 560.709 116.73C560.011 116.498 559.312 116.265 558.729 115.8C558.264 115.451 557.914 115.102 557.565 114.754C557.332 114.405 556.982 113.94 556.749 113.358C556.283 112.428 556.167 111.149 556.167 109.871C556.167 107.08 557.099 103.709 558.496 100.337C559.195 98.7092 559.894 97.314 560.709 96.5002C560.826 96.3839 560.942 96.2676 561.059 96.1514C561.175 96.0351 561.175 96.0351 561.292 95.9189C561.874 95.4538 562.34 95.3375 562.806 95.2213C563.155 95.2213 563.272 95.105 563.388 95.105C563.505 95.105 563.505 94.8725 563.505 94.7562C563.505 94.6399 563.621 94.4074 563.854 94.1749C564.087 93.7098 564.553 93.1285 564.553 92.1984C564.553 91.2683 564.204 90.3382 563.272 89.7569C562.922 89.5243 562.457 89.4081 561.874 89.4081C561.758 89.0593 561.758 88.8267 561.641 88.4779C562.224 88.7105 562.573 88.8267 562.922 88.8267ZM454.368 19.6496L454.485 19.7659L454.95 20.1147L455.533 20.4634L456.232 20.8122C456.348 20.8122 456.348 20.9285 456.465 20.9285C456.115 21.0448 455.882 21.161 455.533 21.2773C455.416 21.2773 455.183 21.2773 454.717 21.2773C454.601 21.2773 454.484 21.161 454.368 21.0448C454.135 20.8122 454.019 20.5797 453.902 20.3472V20.2309C453.902 20.1147 453.902 19.9984 453.902 19.8821C453.902 19.6496 453.786 19.4171 453.669 19.1845C453.902 19.3008 454.135 19.4171 454.368 19.6496ZM433.053 26.858C432.82 27.0905 432.587 27.4393 432.238 27.6718C432.005 27.9044 431.772 28.1369 431.539 28.3694C431.772 27.6718 432.238 27.0905 433.053 26.858ZM239.938 430.876L237.259 427.62C233.881 423.086 230.969 418.087 228.64 412.855C223.864 402.275 221.069 390.648 219.555 378.673C218.157 366.698 217.924 354.374 218.973 342.05C221.069 317.402 228.174 292.521 240.287 269.617C252.284 246.713 269.29 225.786 290.837 209.741C312.385 193.581 337.893 181.722 365.265 175.095C367.478 174.63 369.691 174.048 371.787 173.583C373.884 173.118 375.981 172.769 378.077 172.421C379.125 172.188 380.057 172.072 381.105 171.839C382.154 171.607 383.085 171.49 384.134 171.374C386.114 171.142 387.977 170.793 389.841 170.56C391.705 170.212 393.452 170.095 395.199 169.979C396.946 169.863 398.577 169.63 400.091 169.514C401.605 169.281 403.119 169.281 404.517 169.165C405.915 169.049 407.196 169.049 408.477 168.933C409.758 168.816 410.806 168.816 411.855 168.7C412.903 168.7 413.951 168.7 414.767 168.584C415.232 168.584 415.698 168.584 416.048 168.584C416.048 170.328 416.164 172.421 416.63 174.513C417.446 178.466 419.193 182.419 421.406 186.256C423.619 190.093 426.414 193.813 429.559 197.301C432.704 200.905 436.198 204.393 439.925 207.881C440.857 208.695 441.789 209.625 442.721 210.555C443.652 211.485 444.701 212.415 445.749 213.229C445.982 213.578 446.448 213.694 446.797 213.811L447.729 214.276C448.311 214.624 448.894 214.857 449.36 215.206C450.408 215.903 451.573 216.601 452.155 217.299L452.271 217.415L452.388 217.531C453.553 218.461 454.834 219.159 456.115 219.624C457.513 220.089 458.911 220.438 460.425 220.438C463.337 220.554 466.598 219.74 469.16 217.531C469.51 217.299 469.743 216.95 470.092 216.717L470.907 215.787L471.606 214.624C471.839 214.276 471.956 213.811 472.072 213.462C472.655 212.183 473.12 210.904 473.47 209.625C474.402 207.067 475.101 204.393 475.916 201.835C477.43 196.72 479.177 191.488 481.973 187.419C482.438 186.837 482.904 186.256 483.37 185.675C484.302 187.186 485.583 188.814 487.33 190.558C489.776 192.767 493.038 195.557 497.347 198.58C501.657 201.603 506.898 204.858 512.955 208.811C518.895 212.648 524.136 216.252 528.097 219.973C532.173 223.693 535.318 227.181 537.764 230.32C542.656 236.598 547.781 245.086 550.926 256.014C552.44 261.363 553.255 267.06 554.187 272.524C555.119 277.988 556.051 283.337 557.565 288.568C557.914 289.964 558.38 291.126 558.613 292.056C559.312 293.917 560.127 295.428 560.826 296.591C557.681 302.52 554.07 309.031 550.11 316.123C543.937 327.168 538.113 337.167 532.523 345.887C531.474 345.654 530.31 345.654 528.912 345.654C518.08 345.77 505.035 345.77 490.009 345.422C490.126 345.073 490.126 344.724 490.126 344.491C490.126 344.259 490.126 343.91 490.242 343.678V342.98C490.359 340.073 490.475 337.051 490.592 334.028C490.592 333.098 490.708 332.167 490.708 331.237C490.825 331.47 490.825 331.586 490.941 331.819C491.407 333.098 491.873 334.493 492.339 335.888C492.805 337.283 493.271 338.678 494.086 340.306C494.552 341.12 495.018 341.817 495.6 342.631C495.949 342.98 496.299 343.329 496.648 343.678C496.998 344.026 497.58 344.491 498.163 344.724C499.211 345.305 500.492 345.654 502.123 345.422C502.938 345.305 503.87 344.957 504.685 344.259C505.5 343.561 506.083 342.631 506.316 341.701C506.782 339.841 506.432 338.678 506.432 337.864C506.316 337.051 506.316 336.237 506.199 335.307C506.083 333.563 505.85 331.819 505.617 330.075C505.384 328.331 505.151 326.703 504.918 324.959C504.918 325.075 505.035 325.075 505.035 325.192C506.665 327.517 508.645 329.958 510.509 331.935C511.441 332.981 512.489 333.911 513.421 334.725C513.887 335.19 514.469 335.539 515.051 335.772C515.634 336.004 516.449 336.004 517.148 335.655C517.847 335.307 518.196 334.725 518.546 334.26C518.779 333.679 519.012 333.214 519.128 332.633C519.244 332.051 519.361 331.586 519.477 331.005C519.594 330.54 519.594 329.842 519.71 329.261L519.827 328.331C519.827 327.982 519.827 327.633 519.827 327.284C519.827 326.471 519.827 325.773 519.71 324.959C519.594 324.029 519.477 323.215 519.361 322.285C519.244 321.355 519.012 320.309 518.779 319.378C518.662 318.448 518.313 317.286 517.963 316.123C517.847 315.542 517.614 314.96 517.497 314.379C517.264 313.798 517.148 313.216 516.915 312.635C516.449 311.472 516.1 310.077 515.634 308.915C515.168 307.752 514.702 306.589 514.236 305.427C513.071 302.52 511.79 299.614 510.392 296.707C510.509 296.707 510.625 296.823 510.742 296.823C514.236 298.451 518.662 299.962 523.554 300.776C524.835 301.009 526 301.125 527.281 301.241C528.562 301.358 529.727 301.358 530.892 301.125C532.057 300.892 533.338 300.311 533.92 299.148C534.619 297.986 534.386 296.707 533.92 295.661C533.454 294.614 532.756 293.684 532.057 292.87C531.241 292.056 530.426 291.359 529.494 290.545C528.562 289.731 527.514 288.801 526.233 287.871C524.835 286.941 523.438 286.011 522.04 285.081C520.642 284.15 519.244 283.22 517.847 282.174C516.682 281.36 515.634 280.662 514.469 279.849C512.14 278.221 509.81 276.593 507.364 275.082C502.356 271.943 496.881 268.687 490.126 266.943C486.864 266.013 483.137 265.548 479.527 265.664C475.916 265.781 472.422 266.362 469.044 267.06C455.882 269.734 442.022 273.222 427.579 277.756C425.832 278.337 424.318 278.802 423.036 279.384C421.755 279.965 420.707 280.43 419.891 280.895C418.261 281.476 416.747 282.174 415.116 282.755C413.602 283.337 412.204 283.918 410.69 284.499L407.662 285.662C406.147 286.243 404.517 286.941 403.003 287.522C396.829 290.08 390.773 292.638 384.833 295.312C372.952 300.66 361.654 306.241 350.705 312.054C346.396 314.379 342.552 316.472 339.407 318.216C339.99 317.169 340.572 315.891 340.922 314.495C341.271 313.216 341.504 311.473 341.388 310.077C341.271 308.682 341.038 307.287 340.689 305.892C340.339 304.613 339.99 303.334 339.757 302.171C339.64 301.59 339.524 301.009 339.407 300.427C339.291 299.846 339.291 299.265 339.174 298.683C338.942 296.358 339.058 293.917 339.524 291.475C340.339 286.708 342.552 281.825 345.93 277.988C346.279 277.523 346.629 277.175 346.862 276.71C347.91 275.082 347.677 273.919 345.697 273.338C343.833 272.757 341.737 273.338 339.99 275.431C339.058 276.593 337.777 278.105 336.612 280.197C335.447 282.29 334.166 284.964 333.351 288.22C331.604 294.847 332.07 300.776 333.118 304.729C333.584 306.706 334.166 308.682 334.283 310.542C334.283 311.007 334.283 311.473 334.283 311.821C334.283 312.054 334.166 312.17 334.166 312.286C334.166 312.403 334.166 312.519 334.05 312.751C333.817 313.449 333.467 314.263 332.885 315.193C331.837 317.053 330.322 319.03 328.925 320.657C327.527 322.401 326.013 324.029 324.499 325.54C324.033 326.005 323.8 326.238 323.567 326.587C323.217 327.168 322.868 327.633 322.752 328.098C313.899 333.795 307.493 338.329 303.417 341.469C297.826 345.887 296.661 347.631 299.806 346.584C301.32 346.119 303.65 345.073 306.562 343.561C309.473 342.166 313.084 340.073 317.394 337.748C326.013 332.981 337.427 326.354 351.987 318.681C362.819 312.984 374.233 307.403 385.997 302.055C391.938 299.381 397.994 296.823 404.167 294.265C405.682 293.568 407.312 292.986 408.826 292.405C410.341 291.824 411.855 291.243 413.485 290.545C415 289.964 416.397 289.382 417.911 288.917L420.124 288.103L420.707 287.871L420.94 287.755C420.94 287.755 421.056 287.638 421.056 287.755V287.871V289.034C420.94 292.289 421.056 295.428 421.056 298.683C421.173 302.171 421.289 305.659 421.639 309.263C422.221 316.356 423.036 323.448 424.318 330.656C425.599 337.864 427.113 345.073 429.209 352.281C430.258 355.885 431.306 359.49 432.471 363.094L433.17 365.303C433.403 366 433.636 366.698 433.868 367.396L434.684 369.488L434.917 369.953C434.917 370.07 435.15 370.418 434.917 370.302L433.752 370.07C432.82 369.953 431.888 369.953 430.84 370.07C430.374 370.07 429.908 370.302 429.442 370.302L429.209 370.418L428.744 370.535L427.812 370.883C425.249 371.814 423.036 373.325 421.056 374.953C417.096 378.441 413.951 382.742 411.738 387.393C409.525 392.044 407.895 396.81 405.915 401.345C403.934 405.879 401.488 410.181 397.994 413.32C394.5 416.459 390.074 418.435 385.182 419.133C380.29 419.947 375.165 419.831 369.924 419.482C364.682 419.249 359.208 418.668 353.617 418.784C348.027 418.901 342.203 419.598 336.612 421.923C333.933 423.086 331.371 424.481 328.925 426.109C326.479 427.737 324.266 429.481 322.053 431.224C317.627 434.829 313.55 438.549 309.24 441.805C307.027 443.432 304.931 444.944 302.601 446.223C301.437 446.804 300.272 447.385 299.107 447.85C297.942 448.315 296.661 448.78 295.38 449.129C290.372 450.641 285.014 451.222 279.656 450.873C269.406 450.176 259.156 446.223 250.654 439.944C250.654 439.828 250.654 439.828 250.654 439.712C250.421 438.898 250.071 438.665 249.489 439.014C248.441 438.2 247.392 437.27 246.344 436.34C245.296 435.41 244.364 434.364 243.316 433.434C241.802 432.968 240.87 431.922 239.938 430.876ZM431.888 282.639C438.644 280.779 449.243 277.872 463.919 274.733C467.53 274.035 471.024 273.222 474.285 272.757C477.547 272.291 480.458 272.175 483.254 272.524C488.728 273.105 493.154 275.082 496.765 276.942C500.376 278.802 504.336 281.476 508.762 284.499C509.81 285.313 510.975 286.011 512.14 286.824C512.722 287.173 513.304 287.638 513.887 287.987L514.353 288.336L514.585 288.452C514.585 288.452 514.585 288.452 514.702 288.568L514.935 288.801C515.634 289.382 516.216 289.964 516.566 290.429C516.915 290.894 517.148 291.126 516.915 291.591C516.798 291.824 516.449 292.056 516.1 292.056C515.75 292.056 515.284 291.94 515.051 291.824C513.77 291.359 513.304 290.894 513.304 290.661C512.14 290.196 511.208 289.731 510.509 289.382C508.645 288.685 507.248 288.103 506.083 287.755C505.617 286.941 505.267 286.127 504.802 285.313C504.569 284.964 504.452 284.499 504.219 284.15C504.103 284.034 503.986 283.802 503.87 283.685C503.753 283.569 503.753 283.569 503.753 283.569C503.637 283.685 503.404 283.569 503.054 283.685C502.705 283.802 502.239 283.918 501.307 284.034C500.841 284.15 500.259 284.267 499.793 284.615C499.327 284.964 499.094 285.429 498.978 285.894C498.861 286.359 499.094 287.057 499.211 287.638C499.444 288.336 499.677 289.034 500.026 289.731C501.424 292.986 503.986 298.102 506.898 305.194C507.597 306.938 508.296 308.798 508.645 309.961C508.995 311.24 509.228 312.17 509.461 312.984C509.81 314.612 509.81 315.774 509.694 316.472C509.577 317.169 509.344 317.867 508.995 318.216C508.762 318.332 508.645 318.448 508.063 318.448C507.83 318.448 507.364 318.332 507.015 317.983C506.665 317.634 506.316 317.286 506.083 316.821C503.986 313.565 503.637 312.054 503.753 311.472C503.753 311.356 503.753 311.356 503.753 311.356C503.753 311.356 503.637 311.472 503.52 311.589C503.404 311.589 503.404 311.705 503.287 311.705C503.171 311.705 502.938 311.589 502.705 311.472C502.589 311.472 502.472 311.472 502.239 311.472C501.89 310.077 501.657 308.798 501.307 307.403C500.841 305.427 500.259 303.45 499.677 301.474C499.094 299.381 498.512 297.521 498.163 295.777C497.93 294.963 497.813 294.382 497.58 293.8C497.231 292.638 496.881 292.056 496.299 291.824C495.717 291.591 495.018 291.591 494.202 292.173C492.455 293.335 491.756 295.777 492.572 299.148C493.504 302.985 495.251 308.915 496.765 317.169C497.93 323.564 498.628 329.028 499.094 333.33C499.094 333.214 498.978 333.098 498.978 332.865C496.532 326.122 494.319 319.96 492.106 314.495C491.873 313.682 491.523 313.1 491.407 312.635C491.407 312.635 491.407 312.635 491.407 312.519C491.407 312.286 491.407 312.054 491.29 311.705C490.941 309.147 490.009 308.45 488.379 309.263C487.796 309.147 487.214 309.38 486.748 309.845C485.933 310.659 485.467 311.705 485.467 313.216C485.234 313.914 485.117 314.728 485.117 315.542C484.884 318.797 484.535 323.913 484.069 331.005C483.836 334.028 483.72 336.818 483.487 339.376C483.487 339.027 483.37 338.678 483.37 338.446C483.254 337.167 483.021 335.772 482.904 334.26C482.206 328.331 481.39 322.866 480.691 318.1C480.691 317.867 480.691 317.751 480.575 317.634C481.39 316.821 481.39 315.891 480.342 314.728C479.061 313.216 477.197 312.751 474.984 313.333C472.538 313.914 468.578 315.193 463.337 317.286C458.095 319.378 454.019 321.355 451.107 322.983C450.408 323.448 449.593 323.796 448.777 324.378C447.962 324.843 447.147 325.424 446.215 326.005C444.468 327.168 442.721 328.331 440.74 329.726C437.596 331.819 434.8 333.911 432.238 335.888C431.888 334.028 431.539 332.168 431.19 330.307C430.025 323.448 429.093 316.704 428.511 309.961C428.278 306.589 428.045 303.218 427.928 299.962V298.683V298.102V297.753V297.172C427.928 295.661 427.928 294.149 427.928 292.638C427.928 289.731 427.928 286.824 427.812 283.918C428.744 283.453 430.258 283.104 431.888 282.639ZM474.052 320.076C474.402 323.796 474.751 327.866 475.217 332.168C475.45 334.493 475.799 336.934 476.032 339.376C476.149 340.655 476.382 342.05 476.848 343.445C476.964 343.91 477.081 344.375 477.314 344.724C464.851 344.143 451.223 343.329 436.314 341.817C435.849 341.817 435.266 341.701 434.8 341.701C437.246 340.073 439.925 338.329 442.721 336.353C445.749 334.376 449.127 332.051 452.621 329.842C455.999 327.749 460.075 325.773 464.385 323.796C467.413 322.634 470.674 321.239 474.052 320.076ZM435.616 350.77C435.383 349.84 435.033 348.793 434.8 347.863C435.732 348.096 436.664 348.328 437.829 348.444C442.488 349.026 449.825 349.956 459.842 350.77C469.859 351.584 477.896 352.049 483.72 352.281C489.66 352.514 496.881 352.746 505.5 352.746C513.887 352.746 521.457 352.514 528.329 352.165C526.466 355.42 525.651 357.629 525.767 358.908C524.952 358.908 524.253 358.908 523.438 358.908C500.725 358.443 476.498 357.629 450.99 355.885C447.962 355.653 445.283 355.537 442.837 355.42C440.391 355.304 438.411 355.304 436.897 355.42C436.431 353.793 435.965 352.281 435.616 350.77ZM386.58 577.368C384.017 572.718 381.455 567.602 380.523 562.022C379.591 556.441 379.708 550.395 381.455 544.698C382.27 541.792 383.435 539.001 385.066 536.443C385.881 535.165 386.813 533.886 387.744 532.723C388.793 531.56 389.841 530.398 391.122 529.235C393.452 526.91 396.131 524.468 398.577 521.329C399.741 519.818 400.906 518.074 401.838 516.097C402.77 514.121 403.469 512.028 403.818 509.935C404.633 505.75 404.517 501.681 404.633 498.076C404.633 496.216 404.75 494.472 404.983 492.844C405.216 491.217 405.565 489.705 406.147 488.194C408.361 482.148 413.369 476.568 419.076 470.406C420.474 468.894 421.988 467.266 423.386 465.522C424.9 463.778 426.298 461.802 427.695 459.825C429.093 457.849 430.258 455.64 431.306 453.315C432.354 450.989 433.286 448.432 433.868 445.641C434.218 444.362 434.334 443.083 434.451 441.805C434.451 441.223 434.451 440.526 434.451 439.944C434.451 439.363 434.451 438.782 434.334 438.2C434.218 437.619 434.218 437.038 434.101 436.573C433.985 435.991 433.868 435.526 433.752 435.061C433.635 434.596 433.519 434.131 433.403 433.666C433.286 433.201 433.053 432.852 432.937 432.503C432.354 430.992 431.655 430.178 431.073 429.597C430.025 428.55 429.559 429.132 429.442 431.108C429.209 434.945 429.442 440.642 426.88 447.618C425.366 451.571 422.803 456.338 418.494 461.337C416.397 463.778 413.951 466.336 411.272 469.243C408.71 472.033 405.798 475.172 403.352 479.009C400.79 482.846 399.043 487.031 398.344 491.217C397.645 495.402 397.761 499.239 397.645 502.727C397.528 506.215 397.179 509.121 396.247 511.679C395.432 513.888 394.267 515.748 392.869 517.376C390.307 517.841 387.162 518.888 383.202 520.283C372.603 524.12 360.955 528.189 347.794 530.747C341.271 531.909 334.283 532.723 327.178 532.723C320.073 532.723 312.735 531.677 305.397 529.584C290.837 525.398 276.511 516.446 265.912 503.308C263.349 499.937 260.903 496.449 258.807 492.612C256.71 488.775 254.963 484.706 253.566 480.52C250.77 472.149 249.372 462.965 249.605 453.663C249.605 452.036 249.722 450.641 249.838 449.245C250.654 449.71 251.469 450.176 252.284 450.641C258.108 453.896 264.281 456.221 270.338 457.5C276.395 458.779 283.034 459.244 289.673 458.198C290.488 458.082 291.303 457.965 292.119 457.849C292.934 457.616 293.749 457.5 294.565 457.268C296.195 456.919 297.826 456.338 299.457 455.756C302.718 454.477 305.863 452.966 308.775 450.989C314.715 447.153 319.723 442.386 324.965 438.084C330.089 433.782 335.564 429.946 341.62 428.085C347.677 426.341 354.782 426.458 362.236 426.923C365.964 427.155 369.807 427.388 373.884 427.504C377.961 427.62 382.154 427.504 386.58 426.574C388.793 426.109 391.006 425.528 393.219 424.597C395.432 423.667 397.528 422.505 399.508 421.11C403.469 418.203 406.613 414.25 408.826 410.297C411.156 406.228 412.67 402.158 414.301 398.206C415.116 396.229 415.815 394.369 416.63 392.509L417.213 391.113L417.795 389.834C418.261 389.021 418.61 388.207 419.193 387.393C421.289 384.021 423.968 381.115 426.763 379.254C427.462 378.789 428.161 378.441 428.744 378.208L429.209 377.976L429.675 377.859L430.141 377.743H430.258H430.374L430.724 377.627C431.073 377.627 431.19 377.627 431.539 377.627C432.587 377.627 433.519 377.627 434.451 377.743C435.616 377.859 436.78 378.092 437.945 378.324C439.11 378.557 440.275 378.673 441.323 378.906C442.371 379.138 443.536 379.254 444.584 379.487L444.235 377.859C444.235 377.627 444.002 377.162 443.885 376.813L443.419 375.65C442.837 374.023 442.255 372.511 441.672 370.883C441.09 369.256 440.508 367.744 439.925 366.117C439.576 365.303 439.343 364.489 439.11 363.791L438.411 361.582C438.294 361.117 438.062 360.536 437.945 360.071C439.11 360.42 440.275 360.768 441.672 361.001C445.283 361.815 449.709 362.396 454.95 362.745C457.979 362.977 461.356 363.21 465.2 363.559C469.044 363.791 473.353 364.024 478.129 364.373C482.904 364.721 488.029 364.954 493.62 365.186C499.211 365.419 505.267 365.652 511.674 365.884C529.145 366.465 544.17 366.582 556.633 366.698C557.215 368.093 557.914 369.605 558.729 371.348C560.127 374.371 561.874 378.208 562.573 382.859C563.039 385.533 563.155 388.556 563.272 391.927C563.388 395.299 563.388 399.136 563.155 403.321C562.69 411.576 561.175 421.458 557.448 431.922C553.022 442.27 548.829 451.571 545.335 459.825C541.724 468.08 538.812 475.405 536.483 481.683C535.9 483.311 535.318 484.939 534.736 486.566C534.153 488.31 533.687 489.589 532.872 490.984C531.358 493.891 529.145 496.681 526.582 499.704C524.02 502.727 520.992 505.866 518.196 509.703C517.497 510.633 516.798 511.679 516.1 512.726C515.75 513.307 515.401 513.888 515.051 514.47L514.702 515.051L514.469 515.632L514.353 515.981C514.353 516.097 514.353 516.097 514.236 516.097L514.12 516.33C513.77 517.144 513.188 517.958 512.605 519.12C512.023 520.283 511.208 521.794 510.742 523.771C510.509 524.585 510.392 526.096 510.392 525.863L510.043 527.607C509.81 528.886 509.577 530.049 509.461 531.328C509.111 533.769 508.878 536.211 508.645 538.536C508.179 543.187 507.713 547.605 507.131 551.79C505.966 560.161 504.103 567.602 500.725 572.95C499.793 574.462 498.978 575.508 498.279 576.322C497.347 577.485 496.532 578.415 495.717 579.229C494.668 579.345 493.387 579.694 491.989 580.043C486.748 581.438 480.808 581.67 474.518 580.74C468.229 579.81 461.706 577.717 454.717 575.276C447.612 572.834 440.042 569.928 430.957 568.067C426.88 567.253 422.687 566.788 418.377 566.672C418.261 566.556 418.028 566.556 417.911 566.44C417.562 566.323 417.096 566.207 416.747 566.207C416.164 566.207 415.698 566.323 415.349 566.672C410.806 566.672 406.147 567.021 401.488 567.719C400.324 567.951 399.159 568.184 398.227 568.532C394.384 569.811 393.568 571.09 395.548 572.485C397.528 573.764 400.557 574.113 404.517 573.648C406.38 573.532 408.593 573.299 411.272 573.183C408.011 578.299 404.051 586.67 399.625 598.412C398.46 596.436 396.713 593.878 394.5 590.855C392.054 586.437 389.142 582.135 386.58 577.368ZM633.623 632.129C633.739 632.129 633.739 632.245 633.739 632.361H633.623C633.623 632.245 633.506 632.245 633.623 632.129ZM620.228 637.477C619.995 637.361 619.762 637.361 619.529 637.361C619.296 637.361 618.947 637.361 618.597 637.361C618.597 637.361 618.714 637.361 618.714 637.244C619.18 637.012 619.646 636.896 619.995 636.547C621.043 635.849 621.975 634.919 622.907 633.989C622.79 634.105 622.79 634.222 622.674 634.222C622.092 635.384 621.276 636.547 620.228 637.477ZM600.311 633.059C600.311 633.175 600.311 633.292 600.427 633.408C599.845 633.408 599.263 633.408 598.797 633.408C598.797 633.292 598.68 633.292 598.68 633.292C598.913 633.292 599.146 633.292 599.263 633.292C599.612 633.059 599.961 633.059 600.311 633.059ZM522.273 634.222C522.389 634.57 522.389 635.035 522.622 635.384H522.506C522.156 634.57 521.807 633.873 521.341 633.059C521.225 632.943 521.225 632.826 521.108 632.71C521.225 632.71 521.341 632.826 521.341 632.826C521.574 632.943 521.807 632.943 522.156 633.059C522.156 633.292 522.156 633.64 522.273 634.222ZM476.265 642.593H474.285L472.305 642.36C471.839 642.36 471.373 642.244 470.791 642.128C472.655 642.011 474.518 641.895 476.498 641.779C476.382 642.011 476.382 642.244 476.265 642.476C476.382 642.593 476.265 642.593 476.265 642.593ZM445.865 631.78C446.215 631.664 446.448 631.548 446.797 631.315C446.797 631.548 446.681 631.78 446.681 632.129C446.331 632.013 446.098 631.896 445.865 631.78ZM415.349 596.901C415.465 597.017 415.582 597.25 415.698 597.366C415.698 597.366 415.698 597.482 415.582 597.482C415.349 597.715 415 597.831 414.767 598.063C415 597.715 415.116 597.25 415.349 596.901ZM450.524 594.808C450.291 594.343 450.175 593.994 449.942 593.529C449.942 593.413 449.826 593.413 449.826 593.413C449.942 593.297 450.058 593.18 450.058 593.18C450.175 593.18 450.291 593.064 450.408 592.948C450.641 593.529 450.641 594.111 450.524 594.808ZM518.779 592.134C518.662 592.367 518.546 592.715 518.546 592.948C518.196 592.832 517.963 592.832 517.73 592.832C517.963 592.599 518.313 592.25 518.779 592.134ZM530.543 608.062C530.426 607.481 530.31 606.9 530.077 606.318C530.543 607.248 530.892 608.062 531.358 608.76C531.358 609.109 531.358 609.341 531.358 609.574C531.241 609.574 531.125 609.457 531.008 609.457C530.775 608.992 530.659 608.527 530.543 608.062ZM534.037 617.363C533.92 617.247 533.92 617.131 533.804 617.015C534.619 617.131 535.318 617.131 536.133 617.131C536.25 617.131 536.25 617.131 536.25 617.131C536.366 617.363 536.366 617.596 536.483 617.828C536.599 618.293 536.832 618.642 536.949 619.107C536.133 619.107 535.434 618.991 534.619 618.758C534.503 618.293 534.27 617.828 534.037 617.363ZM492.222 640.616C492.572 641.197 492.921 641.779 493.504 642.244C493.038 642.476 492.455 642.709 491.989 643.058L492.222 640.616ZM439.343 612.829C439.576 613.41 439.692 613.759 439.809 614.108C439.809 614.108 439.809 614.108 439.809 614.224C439.576 613.992 439.459 613.759 439.226 613.527C439.226 613.294 439.343 613.062 439.343 612.829ZM440.857 589.576C440.275 589.227 439.692 588.995 439.11 588.762C439.11 588.53 438.993 588.181 438.993 587.948C439.11 588.065 439.343 588.065 439.459 588.181C439.925 588.646 440.391 589.111 440.857 589.576ZM428.511 615.968C429.209 615.154 430.025 614.34 430.84 613.41C430.84 614.108 430.84 614.805 430.84 615.387C430.491 615.736 430.141 616.084 429.675 616.433C429.326 616.201 428.86 616.084 428.511 615.968ZM456.115 622.944C456.232 622.944 456.232 623.06 456.348 623.06C456.581 623.99 456.814 625.037 457.163 626.083C456.465 625.967 455.882 625.734 455.416 625.618C455.533 624.804 455.766 623.874 456.115 622.944ZM466.598 626.548C466.365 626.199 466.132 625.851 466.016 625.386C466.132 625.153 466.248 624.804 466.365 624.572C466.598 625.153 466.714 625.734 466.947 626.316C466.831 626.316 466.714 626.432 466.598 626.548ZM428.86 584.693C428.278 584.926 427.812 585.274 427.579 585.739C427.462 585.274 427.229 584.926 426.763 584.693C426.996 584.577 427.229 584.461 427.462 584.461C427.928 584.577 428.394 584.693 428.86 584.693ZM411.622 617.363C411.156 617.945 410.574 618.526 410.108 619.107C409.758 618.991 409.409 618.875 408.943 618.758C408.826 618.758 408.71 618.758 408.593 618.642C409.409 617.712 410.341 616.782 411.156 615.736C411.389 616.433 411.505 616.898 411.622 617.363ZM453.786 635.268C453.669 635.268 453.669 635.268 453.786 635.268C453.786 634.803 453.786 634.454 453.902 633.989C453.902 633.873 453.902 633.64 453.902 633.524C454.135 633.64 454.252 633.757 454.485 633.757C454.135 634.338 453.902 634.803 453.786 635.268ZM433.286 626.781C433.519 626.781 433.868 626.664 434.101 626.664C434.218 626.897 434.334 627.13 434.451 627.246C433.985 627.13 433.519 626.897 433.053 626.781C433.17 626.781 433.17 626.781 433.286 626.781ZM483.37 641.314C484.186 641.197 485.001 641.198 485.816 641.081C485.816 641.314 485.7 641.43 485.7 641.663C485.117 641.779 484.535 641.895 483.953 642.011C483.72 642.011 483.487 642.128 483.254 642.128C483.254 641.779 483.37 641.546 483.37 641.314ZM510.043 631.78C510.043 631.896 510.159 632.129 510.159 632.245C509.81 632.129 509.461 632.013 509.228 631.896C509.461 631.78 509.81 631.78 510.043 631.78ZM406.031 627.478C406.147 627.478 406.264 627.362 406.264 627.362C406.264 627.246 406.264 627.013 406.147 626.664C406.264 626.664 406.264 626.664 406.38 626.664C406.497 626.664 406.497 626.664 406.613 626.781C406.846 627.013 407.196 627.129 407.545 627.362C408.36 627.711 409.059 627.827 409.758 627.711C410.573 627.943 411.272 628.176 411.855 628.408C412.088 629.339 412.787 630.269 413.835 630.85C414.184 631.082 414.65 631.315 415.116 631.664C413.485 630.85 411.738 630.152 409.875 629.339C408.593 628.757 407.196 628.176 405.798 627.595C405.915 627.478 405.915 627.478 406.031 627.478ZM554.42 602.598C553.954 601.9 553.605 601.319 553.255 600.621C553.488 599.459 553.605 598.18 553.837 596.901C554.07 599.226 554.303 601.203 554.653 602.947C554.536 602.83 554.42 602.714 554.42 602.598ZM514.353 572.137C514.236 572.137 514.12 572.137 514.003 572.253L514.12 572.137C514.236 572.137 514.236 572.137 514.353 572.137ZM454.95 586.437C454.834 586.321 454.717 586.321 454.717 586.321C454.601 586.205 454.601 586.088 454.485 585.972C454.019 585.391 453.32 584.693 452.854 584.112C452.504 583.647 452.039 583.298 451.573 582.833C451.34 582.6 450.99 582.368 450.757 582.135C451.107 582.368 451.573 582.484 451.922 582.717C453.32 583.414 454.601 584.228 455.882 585.274C455.416 585.623 455.183 585.972 454.95 586.437ZM611.027 621.665C610.91 621.665 610.91 621.665 610.794 621.665C610.91 621.549 610.91 621.549 611.027 621.433V621.665ZM566.766 623.409C566.533 623.293 566.417 623.177 566.184 622.944C566.184 622.479 566.184 622.014 566.067 621.549C565.951 621.084 565.834 620.619 565.718 620.154C566.766 621.433 567.814 622.711 568.979 623.99C568.28 623.758 567.465 623.642 566.766 623.409ZM555.119 582.484C555.002 582.252 555.002 582.135 554.886 582.019C554.886 581.903 555.002 581.786 555.002 581.554C555.119 581.321 555.119 581.089 555.119 580.856C555.119 580.74 555.119 580.74 555.002 580.624L555.352 579.81C555.352 580.508 555.468 581.321 555.585 582.135C555.352 582.252 555.235 582.368 555.119 582.484ZM547.082 576.787C546.965 576.671 546.849 576.671 546.732 576.555C546.15 576.206 545.568 575.973 544.985 575.741L545.102 575.508C546.034 575.857 546.849 576.206 547.781 576.555C547.431 576.555 547.315 576.671 547.082 576.787ZM517.614 573.648C517.497 573.532 517.264 573.532 517.031 573.532C517.031 573.299 517.031 573.183 517.031 573.067C517.148 573.067 517.148 573.067 517.264 573.183C517.614 573.299 517.847 573.415 518.196 573.532C518.08 573.415 517.847 573.532 517.614 573.648ZM504.569 591.32C504.452 592.715 504.452 594.343 504.569 596.087C504.685 598.645 504.918 600.854 505.151 602.947C505.151 603.412 505.267 603.76 505.267 604.225C505.151 603.528 505.035 602.83 504.918 602.016C504.452 598.761 504.336 595.157 504.219 591.32C504.336 591.32 504.452 591.32 504.569 591.32ZM482.089 631.199C481.74 631.083 481.39 631.083 481.157 630.966C481.157 630.734 481.157 630.617 481.041 630.385C481.041 630.269 481.041 630.152 480.924 630.152C481.274 630.385 481.74 630.734 482.089 630.966C482.089 630.966 482.089 631.083 482.089 631.199ZM418.144 572.718C419.076 573.183 420.124 573.881 421.522 574.578C421.522 574.578 421.522 574.578 421.522 574.694C420.94 574.462 420.357 574.229 419.659 573.997C418.61 573.764 417.446 573.764 416.397 574.113C415.815 574.346 415.116 574.694 414.65 575.276L414.534 575.392C414.883 574.346 415.116 573.415 415.232 572.602C416.048 572.718 417.096 572.718 418.144 572.718ZM396.48 625.851C396.946 626.316 397.528 626.664 397.994 626.781C397.878 627.013 397.761 627.246 397.645 627.478C397.528 627.943 397.295 628.292 397.179 628.873C397.179 629.106 397.062 629.455 397.179 629.92C397.179 629.92 397.179 629.92 397.179 630.036C396.364 629.92 395.548 629.804 394.849 629.804C395.548 628.408 396.014 627.129 396.48 625.851ZM463.453 648.522C463.453 648.29 463.453 648.057 463.453 647.825C463.453 647.708 463.453 647.708 463.453 647.592C463.686 647.708 464.035 647.708 464.268 647.825C464.385 648.173 464.385 648.406 464.501 648.755C464.035 648.638 463.686 648.638 463.453 648.522ZM611.609 639.802C611.609 639.919 611.609 639.919 611.609 639.802C611.492 639.919 611.26 639.919 611.143 639.919C611.376 639.919 611.492 639.919 611.609 639.802ZM494.435 585.856C495.484 585.507 496.415 585.158 496.998 584.926C497.347 584.809 497.58 584.693 497.813 584.461C497.697 587.948 497.464 593.18 497.93 600.156C498.046 602.016 498.279 603.877 498.512 605.504C498.745 607.248 499.211 608.876 499.677 610.387C500.608 613.41 501.773 615.852 502.938 617.945C503.753 619.34 504.685 620.851 505.85 622.363C502.006 623.525 497.813 624.804 493.154 625.502C490.941 625.851 488.495 625.967 486.632 625.269C485.7 624.92 485.001 624.455 484.302 623.758C483.72 623.06 483.137 622.13 482.555 621.084C481.973 620.037 481.507 618.642 480.924 617.363C480.342 616.084 479.76 614.689 479.177 613.41C478.012 610.736 476.848 607.83 475.683 604.923C473.47 599.11 471.257 592.948 469.277 586.437C473.47 587.251 477.663 587.832 481.74 587.716C486.282 587.832 490.592 587.135 494.435 585.856ZM390.423 641.779L390.54 641.546L391.122 640.035C391.588 638.988 391.938 637.826 392.403 636.779C392.869 635.617 393.219 634.57 393.685 633.408C398.227 635.384 406.147 637.826 417.213 641.43C427.462 644.802 438.178 648.638 449.476 652.126C455.183 653.87 461.124 655.382 467.18 656.661C473.353 657.939 479.527 659.102 486.166 659.683C492.688 660.265 499.677 660.265 506.549 658.288C508.296 657.823 509.926 657.126 511.557 656.428C513.188 655.73 514.818 654.8 516.333 653.87C517.847 652.824 519.361 651.777 520.759 650.499C522.156 649.22 523.438 647.825 524.486 646.197C525.534 644.685 526.466 643.174 527.398 641.895C527.631 641.546 527.864 641.197 528.097 640.965C528.329 640.732 528.446 640.5 528.679 640.384C529.145 640.035 529.611 639.57 530.077 639.337C531.125 638.872 532.406 638.872 533.338 639.453C534.27 640.035 535.085 640.965 535.434 642.011C535.667 642.593 535.9 643.29 536.133 643.988C536.25 644.685 536.25 645.267 536.25 646.081C536.25 647.592 536.017 649.103 535.434 650.615C534.852 652.126 534.153 653.521 533.221 654.8C532.29 656.079 531.125 657.358 529.96 658.521C527.514 660.73 524.486 662.474 521.225 663.52C517.963 664.683 514.353 665.148 510.742 665.38C503.404 665.729 495.484 664.683 487.447 663.869C471.373 662.125 454.834 659.567 438.062 655.963C429.675 654.219 421.173 652.126 412.67 649.801C408.36 648.638 404.167 647.359 399.858 646.081C397.761 645.383 395.548 644.685 393.452 643.988L391.821 643.406L391.006 643.174C390.889 643.058 390.889 643.174 390.773 643.058C390.656 642.941 390.423 642.941 390.307 642.825C390.19 642.476 390.307 642.011 390.423 641.779ZM544.636 637.593C544.52 637.593 544.403 637.593 544.287 637.593C543.238 637.71 542.423 637.71 541.724 637.942C541.375 637.361 541.025 636.779 540.559 636.198C541.957 636.663 543.355 637.128 544.636 637.593ZM543.471 644.337C543.471 644.104 543.471 643.872 543.355 643.639C544.17 643.872 545.218 643.988 546.383 644.104C556.982 645.034 569.911 645.267 584.936 645.732C588.663 645.848 592.507 645.964 596.467 646.081C598.447 646.197 600.427 646.313 602.524 646.313C604.62 646.429 606.717 646.546 608.93 646.662C611.259 646.778 613.822 646.778 616.734 646.197C618.132 645.848 619.762 645.383 621.276 644.685C622.791 643.872 624.305 642.825 625.586 641.43C628.032 638.756 629.197 636.198 630.245 634.687C630.478 634.338 630.711 633.989 630.944 633.757C631.06 633.64 631.06 633.64 631.177 633.64C631.177 633.64 631.177 633.64 631.293 633.64C631.526 633.524 632.109 633.175 632.691 633.059C633.157 632.826 633.623 632.71 633.856 632.594C634.205 633.291 634.322 633.989 634.554 634.687C634.671 635.384 634.904 636.198 635.02 636.896C635.253 638.291 635.137 639.686 634.904 640.849C634.322 643.29 633.157 645.15 631.526 646.546C625.237 652.242 610.91 650.964 595.535 650.847C579.928 650.499 565.834 649.336 553.139 647.941C551.391 647.708 549.994 647.592 548.945 647.476C546.849 647.359 544.985 647.243 543.588 647.359C543.588 647.011 543.704 646.546 543.704 646.197L543.471 644.337ZM627.566 623.758C627.915 624.107 628.265 624.339 628.614 624.688C628.381 624.804 628.265 624.804 628.032 624.92C627.682 624.92 627.333 624.92 626.984 625.037C626.984 624.688 626.984 624.223 626.984 623.874C626.984 623.642 626.984 623.409 626.867 623.177C627.1 623.293 627.333 623.525 627.566 623.758ZM600.311 623.177C600.194 623.177 599.961 623.177 599.845 623.177C600.194 622.944 600.427 622.828 600.777 622.595C600.66 622.828 600.544 623.06 600.311 623.177ZM580.86 625.734C580.86 625.851 580.86 625.967 580.86 626.083C580.627 625.851 580.277 625.618 580.044 625.269C580.277 625.502 580.51 625.618 580.86 625.734ZM272.085 607.597C271.503 607.481 271.852 607.481 272.085 607.597V607.597ZM664.256 621.433C668.565 621.549 673.806 621.665 680.096 621.898C686.386 622.13 691.977 622.246 696.985 622.479C697.684 622.479 698.266 622.479 698.616 622.479C699.547 622.363 700.363 622.246 700.945 622.014C701.062 622.014 701.178 622.13 701.178 622.13C703.158 623.06 705.604 624.107 708.167 625.618C711.078 627.362 714.806 630.152 717.135 634.919C718.3 637.244 719.115 640.035 719.115 643.058C719.115 644.569 718.999 646.081 718.533 647.592C718.067 649.103 717.368 650.731 716.669 652.243C713.757 658.637 709.331 662.939 704.905 666.194C703.857 667.008 702.692 667.822 701.644 668.52C701.062 668.868 700.596 669.217 700.013 669.566C699.431 669.915 698.965 670.147 698.499 670.496C697.451 671.077 696.519 671.659 695.587 672.124C694.655 672.589 693.724 673.054 692.792 673.403C691.86 673.868 690.928 674.216 689.996 674.565C688.948 674.914 688.016 675.379 686.968 675.728C684.872 676.309 682.659 677.123 680.213 677.588C677.883 678.169 675.204 678.634 672.525 679.1C669.846 679.448 667.051 679.913 664.023 680.146C654.355 681.076 645.27 681.076 636.884 681.076C636.651 680.727 635.486 680.495 633.39 680.262C629.779 679.913 624.771 679.797 618.597 679.913C616.268 679.448 613.705 679.448 611.492 679.797C611.027 679.913 610.677 680.03 610.211 680.146C604.388 680.378 597.865 680.727 590.411 681.076C566.766 682.355 529.727 683.285 479.061 682.355C466.365 682.122 454.368 681.89 443.07 681.541C437.363 681.425 431.888 681.309 426.531 681.192C421.173 681.192 416.048 681.192 410.923 681.192C390.889 681.309 373.535 681.192 359.092 679.797C355.481 679.448 351.754 678.983 348.027 678.402C344.299 677.821 340.572 676.891 336.729 675.728C332.885 674.565 328.925 673.286 324.965 671.891C322.984 671.194 320.888 670.38 318.791 669.682C317.743 669.333 316.695 668.868 315.647 668.52C314.598 668.171 313.667 667.706 312.618 667.357C308.542 665.845 304.465 663.869 300.505 661.66C296.661 659.335 292.701 656.893 289.207 653.87L287.926 652.708C287.46 652.359 287.11 651.894 286.644 651.545C285.829 650.731 285.014 649.917 284.198 649.103C283.5 648.173 282.684 647.359 281.985 646.429L281.403 645.732L280.937 645.034L280.005 643.639C277.443 639.802 275.346 635.501 274.415 630.966C274.182 630.152 274.182 629.339 273.949 628.525C273.832 627.711 273.716 626.897 273.599 626.083C273.599 625.269 273.599 624.455 273.483 623.642C273.483 622.828 273.366 622.014 273.483 621.316C273.599 619.805 273.716 618.293 273.949 616.782C274.182 615.271 274.531 613.875 274.764 612.596C274.997 611.55 275.113 610.62 274.997 609.574L274.88 608.876V608.527C274.88 608.527 274.88 608.527 274.997 608.527C275.23 608.411 275.812 608.295 276.395 608.295C277.676 608.178 279.306 608.411 280.821 608.876C282.801 609.574 284.781 610.155 286.761 610.853C294.914 613.527 302.834 616.084 310.522 618.526C314.948 619.805 319.024 620.502 323.101 621.2C327.178 621.781 331.021 622.246 334.981 622.711C342.785 623.525 350.24 623.99 357.694 624.339C362.702 624.572 366.663 624.688 369.691 624.688C378.543 624.688 385.415 624.339 390.074 623.758C390.074 624.223 390.074 624.572 390.074 624.92C389.026 627.827 387.861 630.85 386.58 633.989C385.881 635.617 385.298 637.361 384.6 639.105C384.017 640.849 382.969 642.825 382.969 644.918C382.969 645.964 383.435 647.011 384.367 647.592C385.298 648.173 386.23 648.406 387.279 648.871C389.259 649.568 391.239 650.266 393.335 650.964C401.488 653.638 410.224 656.312 419.775 658.753C438.877 663.636 456.348 666.776 471.839 668.985C479.527 670.031 486.864 670.961 493.62 671.659C500.376 672.356 506.782 672.938 512.838 672.473C515.867 672.24 519.012 671.775 522.273 670.845C523.088 670.612 523.903 670.38 524.719 670.031C525.534 669.682 526.349 669.45 527.165 668.985C528.795 668.287 530.31 667.357 531.824 666.31C534.852 664.218 537.531 661.66 539.744 658.288C540.909 656.544 541.841 654.568 542.539 652.475C544.752 653.405 547.897 654.219 552.09 654.684C562.107 656.079 573.289 657.242 585.519 657.823C591.692 658.172 597.981 658.405 604.737 658.405C608.115 658.405 611.492 658.405 614.987 658.288C618.481 658.172 622.208 657.939 626.052 657.009C629.779 656.079 633.972 654.452 637.233 651.196C638.864 649.568 640.145 647.476 641.077 645.267C641.31 644.685 641.543 644.104 641.659 643.523L642.009 641.779C642.125 640.616 642.242 639.337 642.242 638.175C642.009 633.292 640.145 628.873 637.583 625.037C636.418 623.409 635.253 621.898 633.856 620.502C637.117 620.735 641.427 620.967 646.901 621.2C654.122 621.084 659.946 621.316 664.256 621.433ZM595.885 605.388C598.447 607.597 601.592 609.69 605.203 611.55C605.436 611.666 605.669 611.783 605.785 611.899C602.64 613.527 599.379 615.503 596.001 617.363C593.555 618.642 590.76 620.037 588.198 620.154C587.615 620.27 587.033 620.154 586.45 620.037C585.868 619.921 585.169 619.805 584.587 619.572C583.306 619.107 582.024 618.41 580.86 617.596C575.735 614.34 571.891 609.109 568.979 602.598C566.067 596.203 563.971 588.762 561.525 580.508C563.272 580.856 565.019 581.089 566.999 581.205C570.726 581.438 574.453 581.205 578.064 580.391C580.044 580.043 581.908 579.345 583.655 578.647C583.306 579.926 583.073 581.554 583.189 583.414C583.422 585.972 584.121 588.995 585.868 592.367C587.732 596.087 590.76 600.854 595.885 605.388ZM634.904 366.233C635.137 366.465 635.37 366.814 635.603 367.047C635.836 367.396 636.069 367.628 636.302 367.977C636.767 368.558 637.35 369.256 637.816 369.953C639.912 372.744 642.009 376.464 643.29 380.998C644.804 386.23 645.27 393.206 645.969 401.577C646.318 405.763 646.202 410.297 645.62 415.296C645.037 420.179 643.872 425.411 642.125 430.759C640.378 436.108 638.282 441.107 635.952 445.525C633.623 450.059 631.177 454.129 628.847 458.082C626.518 462.034 624.421 465.871 622.791 469.592C621.975 471.452 621.276 473.312 620.577 475.056C619.995 476.8 619.296 478.544 618.83 480.288C617.782 483.66 616.967 487.148 616.268 490.984C615.569 494.821 614.987 498.774 614.521 502.959C613.473 511.33 612.89 520.283 611.609 529.816C610.328 539.234 608.581 548.302 606.135 556.325C603.689 564.347 600.427 571.672 596.351 577.02C595.186 578.531 594.254 579.578 593.439 580.391C591.808 582.135 590.527 583.414 589.362 584.344C589.129 583.647 588.78 582.833 588.547 582.135C587.732 579.81 587.266 578.182 586.683 577.252C587.149 577.02 587.615 576.787 588.081 576.438C588.896 575.973 589.595 575.508 590.061 575.043C591.692 573.648 592.507 572.253 592.74 571.206C592.973 570.16 592.507 569.579 591.575 569.23C589.595 568.532 587.499 569.463 584.587 570.858C580.627 572.95 575.968 573.997 571.076 573.997C568.63 573.997 565.951 573.881 563.388 573.299C560.709 572.834 558.031 572.137 555.235 571.206C549.644 569.463 543.821 567.021 536.949 564.812C533.454 563.766 529.844 562.719 525.767 562.138C521.807 561.557 517.381 561.208 512.722 561.905C513.071 560.626 513.421 559.348 513.654 557.952C515.051 551.209 515.634 544.001 516.566 536.56C516.798 534.7 517.031 532.839 517.264 530.979C517.381 530.049 517.614 529.119 517.73 528.189L517.963 526.794L518.08 525.98L518.196 525.166C518.429 523.654 519.244 522.259 520.293 520.515C520.526 520.05 520.759 519.585 521.108 519.12C521.225 518.888 521.341 518.655 521.457 518.423L521.807 517.725C521.923 517.376 522.156 517.144 522.389 516.679C522.622 516.33 522.855 515.865 523.205 515.516C525.418 512.261 528.097 509.238 530.892 506.099C533.687 502.959 536.599 499.588 539.045 495.402L539.977 493.891L540.792 492.263C541.025 491.682 541.258 491.1 541.491 490.519L541.841 489.589L542.074 488.775C542.772 486.682 543.588 484.59 544.287 482.497C545.801 478.311 547.431 474.01 549.295 469.708C552.789 461.104 556.749 452.268 560.709 442.967C561.641 440.642 562.69 438.317 563.738 435.875C564.786 433.55 565.718 430.643 566.417 428.085C567.931 422.854 568.979 417.389 569.795 411.808C570.493 406.228 570.843 400.531 570.726 394.718C570.726 391.811 570.493 388.904 570.26 385.998C570.144 384.486 570.027 383.207 569.678 381.347C569.329 379.603 568.863 377.859 568.28 376.232C567.232 373.092 565.718 370.535 564.204 368.326C563.621 367.512 563.039 366.814 562.573 366.117C566.65 366.117 570.377 366.117 573.871 366.233C588.896 366.349 607.532 366.233 629.663 366.233C631.177 366.233 633.04 366.233 634.904 366.233ZM777.585 235.203C773.742 241.016 767.802 250.434 759.881 263.339C752.078 276.244 746.021 286.592 741.595 294.265C737.169 301.939 731.927 311.356 725.638 322.634C719.465 333.911 713.874 344.259 708.982 353.56C708.283 354.839 707.701 355.885 707.351 356.699C706.419 358.676 705.837 360.303 705.488 361.582C702.226 360.652 697.101 360.071 689.88 359.838C675.67 359.49 660.062 359.141 642.941 359.141C625.819 359.025 607.299 359.141 587.382 359.141C569.329 359.141 550.11 359.141 529.611 358.908C531.474 357.629 533.571 355.304 536.017 351.816C541.025 344.491 546.267 336.12 551.624 326.936C556.982 317.634 562.69 307.52 568.513 296.474C574.337 285.429 580.51 273.57 587.266 260.898C593.905 248.341 601.126 234.971 609.512 221.484C610.444 219.856 611.376 218.461 612.075 217.066C612.308 216.601 612.541 216.136 612.774 215.787C615.569 216.834 619.529 217.415 624.654 217.647C632.458 217.88 644.688 218.345 661.46 219.159C678.233 219.973 691.394 220.786 701.062 221.484C710.729 222.182 722.726 222.995 736.936 224.042C751.146 225.205 764.074 226.251 775.722 227.181C777.353 227.297 778.634 227.414 779.566 227.53C781.313 227.53 782.827 227.53 784.108 227.53C782.245 228.925 780.031 231.599 777.585 235.203Z" fill="black"/>
<path d="M680.213 275.083C679.747 273.804 679.164 272.757 678.349 271.595C677.534 270.432 676.718 269.502 676.019 268.921C673.341 266.828 670.545 266.363 669.031 266.595C667.517 266.944 667.167 267.758 667.633 268.688C667.75 268.921 667.866 269.037 667.983 269.153C665.653 268.572 662.858 268.223 659.597 268.921C657.849 269.27 655.869 269.967 654.122 271.13C652.375 272.292 650.628 273.804 649.114 275.897C648.764 276.362 648.531 276.943 648.415 277.408C648.298 277.989 648.298 278.454 648.415 278.919C647.25 280.198 646.318 281.71 645.62 283.454C643.989 287.755 644.338 292.406 646.085 296.01C647.833 299.731 650.861 302.056 653.656 303.335C655.054 304.032 656.685 304.498 658.548 304.73C660.295 304.963 662.392 304.846 664.372 304.265C666.352 303.684 668.332 302.754 670.079 301.475C671.826 300.196 673.457 298.684 674.855 296.94C676.252 295.196 677.417 293.452 678.349 291.592C679.281 289.732 680.096 287.872 680.678 285.663C681.261 283.57 681.494 281.128 681.144 278.687C681.028 277.641 680.678 276.245 680.213 275.083ZM669.031 284.384C669.147 284.384 669.264 284.268 669.38 284.151C669.497 284.268 669.613 284.384 669.613 284.384C669.497 284.5 669.264 284.5 669.031 284.384ZM673.224 278.338C673.457 278.338 673.574 278.338 673.69 278.338C674.039 278.454 674.156 278.454 674.156 278.454L674.272 278.571C674.272 278.803 674.389 279.036 674.389 279.268C674.039 278.919 673.69 278.571 673.224 278.338ZM665.77 275.897C665.77 275.78 665.77 275.78 665.77 275.897C665.886 275.78 666.119 275.897 666.352 275.897C666.119 275.897 666.003 275.897 665.77 275.897ZM651.676 287.755C651.676 287.523 651.793 287.407 651.793 287.174C651.793 287.523 651.909 287.872 651.909 288.104C651.793 288.221 651.676 288.221 651.56 288.337C651.56 288.221 651.56 287.988 651.676 287.755ZM653.307 294.383C652.492 293.336 651.909 292.057 651.676 290.778C652.026 291.011 652.375 291.36 652.841 291.592C653.19 291.825 653.54 292.057 653.889 292.174C653.773 292.755 653.773 293.569 653.889 294.731C653.889 294.848 653.889 294.964 654.006 295.08C653.656 294.848 653.423 294.615 653.307 294.383ZM660.994 297.754C660.994 297.638 660.878 297.522 660.878 297.405C660.645 297.057 660.412 296.708 660.179 296.359C660.412 296.359 660.761 296.475 660.994 296.475C662.508 296.592 663.906 296.359 665.071 296.127C665.304 296.01 665.653 296.01 665.886 295.894C664.372 296.94 662.741 297.638 660.994 297.754Z" fill="black"/>
<path d="M170.17 166.026C190.436 169.048 218.856 172.536 255.546 176.257C256.594 176.373 257.642 176.373 258.457 176.373C262.068 176.257 263.116 175.327 261.835 173.35C260.438 171.49 257.875 170.327 254.148 169.746C249.838 169.165 243.083 168.351 233.881 167.072C224.68 165.909 217.342 164.979 211.984 164.282C206.626 163.584 199.987 162.77 192.067 161.84C184.147 160.91 177.042 160.096 170.519 159.399C169.587 159.282 168.888 159.282 168.423 159.166C164.462 159.166 162.832 160.212 163.531 162.073C164.229 164.282 166.442 165.444 170.17 166.026Z" fill="black"/>
<path d="M51.1324 254.736C69.3025 254.968 91.1997 254.968 116.708 254.852C129.52 254.736 143.147 254.619 157.823 254.503C165.161 254.387 172.732 254.271 180.419 254.271C188.223 254.154 196.143 254.038 204.18 254.271C206.044 254.387 207.791 254.387 209.305 254.271C212.333 254.271 214.43 254.038 215.362 253.573C216.294 253.108 216.177 252.41 215.012 251.364C212.566 249.388 208.024 248.109 201.268 247.876C193.581 247.527 181.351 247.644 164.812 247.644C148.272 247.644 135.111 247.644 125.443 247.644C115.776 247.644 103.895 247.76 89.6856 247.76C75.7086 247.876 62.8964 247.992 51.2489 248.225C49.6182 248.225 48.337 248.225 47.4052 248.341C40.3003 248.923 37.5049 250.085 38.9026 251.945C40.3003 253.689 44.3769 254.736 51.1324 254.736Z" fill="black"/>
<path d="M181.118 304.381C177.973 304.265 173.082 303.916 166.326 303.567C159.57 303.218 154.329 302.986 150.369 302.753C146.409 302.637 141.633 302.405 135.926 302.172C130.219 301.94 124.977 301.823 120.318 301.707C119.62 301.707 119.154 301.707 118.804 301.707C116.009 302.056 114.844 303.218 115.543 305.079C116.242 306.939 117.872 307.985 120.668 308.218C135.46 309.38 156.193 310.194 182.865 310.659C183.681 310.659 184.38 310.659 184.962 310.427C187.524 309.962 188.223 308.915 187.058 307.171C185.777 305.427 183.797 304.497 181.118 304.381Z" fill="black"/>
<path d="M188.922 400.414C196.027 400.066 198.124 398.903 195.212 397.159C192.3 395.415 187.175 394.369 179.721 394.252C171.218 394.02 157.823 393.787 139.537 393.439C121.25 393.206 106.807 393.09 96.0917 393.09C85.376 393.09 72.2143 393.09 56.6067 393.322C40.9991 393.555 26.7892 393.787 13.977 394.252C12.2299 394.252 10.8322 394.369 9.66741 394.485C1.8636 395.183 -1.28122 396.461 0.34943 398.205C1.8636 400.066 6.40612 400.88 13.8605 400.88C54.0443 400.647 110.418 399.949 183.098 400.647C185.311 400.647 187.175 400.531 188.922 400.414Z" fill="black"/>
<path d="M202.55 466.685C203.248 466.685 203.947 466.685 204.646 466.568C207.092 466.22 207.791 465.173 206.743 463.429C205.694 461.685 203.831 460.639 201.152 460.406C198.124 460.174 193.465 459.709 186.942 459.011C180.536 458.43 175.411 457.965 171.684 457.616C167.957 457.267 163.298 456.919 157.823 456.454C152.349 455.988 147.341 455.64 142.798 455.407C142.216 455.407 141.633 455.291 141.284 455.407C138.605 455.64 137.44 456.802 138.023 458.663C138.605 460.523 140.236 461.685 142.798 461.918C157.124 463.662 176.925 465.29 202.55 466.685Z" fill="black"/>
<path d="M211.285 541.56C208.024 541.327 202.783 540.862 195.678 540.397C188.573 539.932 182.982 539.467 178.905 539.118C174.712 538.886 169.704 538.537 163.647 538.072C157.59 537.723 152.116 537.374 147.108 537.258C146.409 537.258 145.826 537.258 145.477 537.258C142.449 537.607 141.284 538.653 141.983 540.513C142.682 542.373 144.429 543.42 147.341 543.769C162.948 545.396 184.729 546.791 212.799 547.838C213.615 547.838 214.314 547.838 215.012 547.722C217.691 547.373 218.507 546.326 217.342 544.466C216.177 542.722 214.081 541.792 211.285 541.56Z" fill="black"/>
</g>
<defs>
<clipPath id="clip0_192_450">
<rect width="789" height="722" fill="white"/>
</clipPath>
</defs>
</svg>
